0
SECTION
2
HEADER
9
$INSUNITS
70
4
9
$ACADVER
1
AC1014
9
$HANDSEED
5
FFFF
0
ENDSEC
0
SECTION
2
TABLES
0
TABLE
2
VPORT
5
8
100
AcDbSymbolTable
0
ENDTAB
0
TABLE
2
LTYPE
5
5
100
AcDbSymbolTable
0
LTYPE
5
14
100
AcDbSymbolTableRecord
100
AcDbLinetypeTableRecord
2
BYBLOCK
70
0
0
LTYPE
5
15
100
AcDbSymbolTableRecord
100
AcDbLinetypeTableRecord
2
BYLAYER
70
0
0
ENDTAB
0
TABLE
2
LAYER
5
2
100
AcDbSymbolTable
70
2
0
LAYER
5
50
100
AcDbSymbolTableRecord
100
AcDbLayerTableRecord
2
0
70
0
6
CONTINUOUS
0
ENDTAB
0
TABLE
2
STYLE
5
3
100
AcDbSymbolTable
70
1
0
STYLE
5
11
100
AcDbSymbolTableRecord
100
AcDbTextStyleTableRecord
2
STANDARD
70
0
0
ENDTAB
0
TABLE
2
VIEW
5
6
100
AcDbSymbolTable
70
0
0
ENDTAB
0
TABLE
2
UCS
5
7
100
AcDbSymbolTable
70
0
0
ENDTAB
0
TABLE
2
APPID
5
9
100
AcDbSymbolTable
70
2
0
APPID
5
12
100
AcDbSymbolTableRecord
100
AcDbRegAppTableRecord
2
ACAD
70
0
0
ENDTAB
0
TABLE
2
DIMSTYLE
5
A
100
AcDbSymbolTable
70
1
0
ENDTAB
0
TABLE
2
BLOCK_RECORD
5
1
100
AcDbSymbolTable
70
1
0
BLOCK_RECORD
5
1F
100
AcDbSymbolTableRecord
100
AcDbBlockTableRecord
2
*MODEL_SPACE
0
BLOCK_RECORD
5
1B
100
AcDbSymbolTableRecord
100
AcDbBlockTableRecord
2
*PAPER_SPACE
0
ENDTAB
0
ENDSEC
0
SECTION
2
BLOCKS
0
BLOCK
5
20
100
AcDbEntity
100
AcDbBlockBegin
2
*MODEL_SPACE
0
ENDBLK
5
21
100
AcDbEntity
100
AcDbBlockEnd
0
BLOCK
5
1C
100
AcDbEntity
100
AcDbBlockBegin
2
*PAPER_SPACE
0
ENDBLK
5
1D
100
AcDbEntity
100
AcDbBlockEnd
0
ENDSEC
0
SECTION
2
ENTITIES
0
CIRCLE
5
100
100
AcDbEntity
8
0
100
AcDbCircle
10
65
20
45.000000000000007
30
0
40
6.0000000000000053
210
0
220
-0
230
1
0
CIRCLE
5
101
100
AcDbEntity
8
0
100
AcDbCircle
10
-70
20
60.000000000000036
30
0
40
6.0000000000000053
210
0
220
-0
230
1
0
CIRCLE
5
102
100
AcDbEntity
8
0
100
AcDbCircle
10
70
20
60.000000000000036
30
0
40
6.0000000000000053
210
0
220
-0
230
1
0
CIRCLE
5
103
100
AcDbEntity
8
0
100
AcDbCircle
10
-65
20
45.000000000000007
30
0
40
6.0000000000000053
210
0
220
-0
230
1
0
LWPOLYLINE
5
104
100
AcDbEntity
8
0
100
AcDbPolyline
90
4
70
1
43
0.0
10
35.611623999999985
20
42.695612299155535
10
35.611623999999985
20
43.015612299155528
10
35.931623999999985
20
43.015612299155528
10
35.931623999999985
20
42.695612299155535
0
LWPOLYLINE
5
105
100
AcDbEntity
8
0
100
AcDbPolyline
90
4
70
1
43
0.0
10
-30.652839277970223
20
31.884999999999913
10
-30.652839277970216
20
30.614999999999913
10
-31.922839277970212
20
30.614999999999917
10
-31.922839277970226
20
31.884999999999923
0
CIRCLE
5
106
100
AcDbEntity
8
0
100
AcDbCircle
10
79.207113962617484
20
69.952180610934235
30
0
40
1.5000000000000036
210
-0
220
0
230
1
0
CIRCLE
5
107
100
AcDbEntity
8
0
100
AcDbCircle
10
65.135814439836068
20
-6.3397838856993216
30
0
40
1.5000000000000036
210
-0
220
0
230
1
0
CIRCLE
5
108
100
AcDbEntity
8
0
100
AcDbCircle
10
-79.207113962617484
20
69.952180610934235
30
0
40
1.5000000000000036
210
-0
220
0
230
1
0
LWPOLYLINE
5
109
100
AcDbEntity
8
0
100
AcDbPolyline
90
4
70
1
43
0.0
10
33.071623999999986
20
42.695612299155535
10
33.071623999999986
20
43.015612299155528
10
33.391623999999986
20
43.015612299155528
10
33.391623999999986
20
42.695612299155535
0
LWPOLYLINE
5
110
100
AcDbEntity
8
0
100
AcDbPolyline
90
4
70
1
43
0.0
10
-30.652839277970244
20
34.384999999999913
10
-30.652839277970237
20
33.11499999999991
10
-31.922839277970233
20
33.114999999999917
10
-31.922839277970247
20
34.38499999999992
0
CIRCLE
5
111
100
AcDbEntity
8
0
100
AcDbCircle
10
-65.135814439836068
20
-6.3397838856993216
30
0
40
1.5000000000000036
210
-0
220
0
230
1
0
LWPOLYLINE
5
112
100
AcDbEntity
8
0
100
AcDbPolyline
90
4
70
1
43
0.0
10
-30.652839277970337
20
44.384999999999906
10
-30.652839277970326
20
43.11499999999991
10
-31.922839277970326
20
43.114999999999917
10
-31.92283927797034
20
44.384999999999913
0
LWPOLYLINE
5
113
100
AcDbEntity
8
0
100
AcDbPolyline
90
4
70
1
43
0.0
10
-30.652839277970273
20
36.884999999999913
10
-30.652839277970259
20
35.61499999999991
10
-31.922839277970262
20
35.614999999999917
10
-31.922839277970276
20
36.88499999999992
0
LWPOLYLINE
5
114
100
AcDbEntity
8
0
100
AcDbPolyline
90
4
70
1
43
0.0
10
30.531623999999983
20
42.695612299155535
10
30.531623999999983
20
43.015612299155528
10
30.851623999999983
20
43.015612299155528
10
30.851623999999983
20
42.695612299155535
0
LWPOLYLINE
5
115
100
AcDbEntity
8
0
100
AcDbPolyline
90
4
70
1
43
0.0
10
27.991623999999984
20
42.695612299155535
10
27.991623999999984
20
43.015612299155528
10
28.311623999999984
20
43.015612299155528
10
28.311623999999984
20
42.695612299155535
0
LWPOLYLINE
5
116
100
AcDbEntity
8
0
100
AcDbPolyline
90
4
70
1
43
0.0
10
25.451623999999985
20
42.695612299155535
10
25.451623999999985
20
43.015612299155528
10
25.771623999999985
20
43.015612299155528
10
25.771623999999985
20
42.695612299155535
0
LWPOLYLINE
5
117
100
AcDbEntity
8
0
100
AcDbPolyline
90
4
70
1
43
0.0
10
-30.652839277970315
20
41.884999999999906
10
-30.652839277970301
20
40.614999999999917
10
-31.922839277970304
20
40.614999999999917
10
-31.922839277970319
20
41.884999999999913
0
LWPOLYLINE
5
118
100
AcDbEntity
8
0
100
AcDbPolyline
90
4
70
1
43
0.0
10
-31.922839277970297
20
39.384999999999913
10
-30.652839277970294
20
39.384999999999913
10
-30.65283927797028
20
38.11499999999991
10
-31.922839277970283
20
38.114999999999917
0
LWPOLYLINE
5
119
100
AcDbEntity
8
0
100
AcDbPolyline
90
4
70
1
43
0.0
10
22.911623999999982
20
42.695612299155535
10
22.911623999999982
20
43.015612299155528
10
23.231623999999982
20
43.015612299155528
10
23.231623999999982
20
42.695612299155535
0
LWPOLYLINE
5
120
100
AcDbEntity
8
0
100
AcDbPolyline
90
4
70
1
43
0.0
10
-30.652839277970362
20
46.884999999999906
10
-30.652839277970351
20
45.614999999999917
10
-31.92283927797035
20
45.614999999999917
10
-31.922839277970361
20
46.884999999999913
0
CIRCLE
5
121
100
AcDbEntity
8
0
100
AcDbCircle
10
-30.500000000000203
20
21.50000000000005
30
0
40
1.4999999999999991
210
-0
220
0
230
1
0
LWPOLYLINE
5
122
100
AcDbEntity
8
0
100
AcDbPolyline
90
4
70
1
43
0.0
10
-30.652839277970383
20
49.384999999999906
10
-30.652839277970372
20
48.114999999999917
10
-31.922839277970372
20
48.114999999999917
10
-31.922839277970386
20
49.384999999999913
0
CIRCLE
5
123
100
AcDbEntity
8
0
100
AcDbCircle
10
35.999999999999787
20
21.500000000000036
30
0
40
1.4999999999999991
210
-0
220
0
230
1
0
CIRCLE
5
124
100
AcDbEntity
8
0
100
AcDbCircle
10
35.999999999999446
20
58.500000000000028
30
0
40
1.4999999999999991
210
-0
220
0
230
1
0
CIRCLE
5
125
100
AcDbEntity
8
0
100
AcDbCircle
10
-30.50000000000054
20
58.500000000000057
30
0
40
1.4999999999999991
210
-0
220
0
230
1
0
LWPOLYLINE
5
126
100
AcDbEntity
8
0
100
AcDbPolyline
90
20
70
1
43
0.0
10
-80.39099735944518
20
73.952180610934221
42
0.52148082105239901
10
-83.207113962617456
20
69.918020431205036
10
-69.74875909592852
20
33.269639131713177
42
-0.088212884884835377
10
-69.135814439836054
20
29.822438532615827
10
-69.135814439836082
20
-8.3397838856993189
42
0.41421356237309798
10
-67.135814439836082
20
-10.339783885699322
10
67.135814439836082
20
-10.339783885699322
42
0.41421356237309265
10
69.135814439836082
20
-8.3397838856993207
10
69.135814439835485
20
29.822438532615827
42
-0.088212884884836487
10
69.748759095927994
20
33.269639131713369
10
83.207113962617441
20
69.918020431205036
42
0.52148082105240567
10
80.39099735944518
20
73.952180610934249
10
10.999999999999996
20
73.952180610934221
42
-0.4142135623730937
10
9.9999999999999982
20
74.952180610934235
10
9.9999999999999982
20
78.95218061095288
42
0.41421356237309503
10
9.0000000000000071
20
79.952180610952865
10
-9.000000000000016
20
79.952180610952851
42
0.41421356237309503
10
-10.000000000000004
20
78.952180610952865
10
-10
20
74.952180610934221
42
-0.41421356237309631
10
-11
20
73.952180610934221
0
ENDSEC
0
SECTION
2
OBJECTS
0
DICTIONARY
5
C
100
AcDbDictionary
3
ACAD_GROUP
350
D
3
ACAD_MLINESTYLE
350
17
0
DICTIONARY
5
D
100
AcDbDictionary
0
DICTIONARY
5
1A
330
C
100
AcDbDictionary
0
DICTIONARY
5
17
100
AcDbDictionary
0
ENDSEC
0
EOF
