M48
; DRILL file {KiCad 7.0.8} date Thu Oct 19 17:35:42 2023
; FORMAT={-:-/ absolute / inch / decimal}
; #@! TF.CreationDate,2023-10-19T17:35:42+02:00
; #@! TF.GenerationSoftware,Kicad,Pcbnew,7.0.8
; #@! TF.FileFunction,Plated,1,2,PTH
FMAT,2
INCH
; #@! TA.AperFunction,Plated,PTH,ViaDrill
T1C0.0118
; #@! TA.AperFunction,Plated,PTH,ViaDrill
T2C0.0157
; #@! TA.AperFunction,Plated,PTH,ComponentDrill
T3C0.0354
; #@! TA.AperFunction,Plated,PTH,ComponentDrill
T4C0.0394
%
G90
G05
T1
X4.806Y-4.442
X4.831Y-4.187
X4.862Y-4.162
X4.882Y-4.224
X4.884Y-4.264
X4.884Y-4.308
X4.892Y-4.34
X4.894Y-4.136
X4.898Y-4.444
X4.9Y-4.108
X4.902Y-4.366
X5.252Y-4.086
X5.274Y-4.116
X5.288Y-4.158
X5.3Y-4.186
X5.3Y-4.236
X5.302Y-4.292
X5.302Y-4.3195
X5.3023Y-4.2634
T2
X4.13Y-3.92
X4.3646Y-3.913
X6.02Y-3.82
T3
X3.7199Y-3.5778
X3.8199Y-3.5778
X3.9561Y-3.5778
X4.0561Y-3.5778
X4.1923Y-3.5778
X4.2923Y-3.5778
X4.4285Y-3.5778
X4.5285Y-3.5778
X4.6648Y-3.5778
X4.7648Y-3.5778
X4.901Y-3.5778
X5.001Y-3.5778
X5.1372Y-3.5778
X5.2372Y-3.5778
X5.3734Y-3.5778
X5.4734Y-3.5778
X5.6096Y-3.5778
X5.7096Y-3.5778
X5.8459Y-3.5778
X5.9459Y-3.5778
X6.0821Y-3.5778
X6.1821Y-3.5778
X6.3183Y-3.5778
X6.4183Y-3.5778
X6.5545Y-3.5778
X6.6545Y-3.5778
X6.7907Y-3.5778
X6.8907Y-3.5778
X7.027Y-3.5778
X7.127Y-3.5778
T4
X4.0151Y-4.5277
X4.1151Y-4.5277
X4.2151Y-4.5277
X4.3151Y-4.5277
X4.4151Y-4.5277
X4.5151Y-4.5277
T0
M30
