%TF.GenerationSoftware,KiCad,Pcbnew,7.0.8*%
%TF.CreationDate,2023-10-19T17:32:50+02:00*%
%TF.ProjectId,16_Channel_LED_Strip,31365f43-6861-46e6-9e65-6c5f4c45445f,rev?*%
%TF.SameCoordinates,Original*%
%TF.FileFunction,Legend,Bot*%
%TF.FilePolarity,Positive*%
%FSLAX46Y46*%
G04 Gerber Fmt 4.6, Leading zero omitted, Abs format (unit mm)*
G04 Created by KiCad (PCBNEW 7.0.8) date 2023-10-19 17:32:50*
%MOMM*%
%LPD*%
G01*
G04 APERTURE LIST*
%ADD10C,0.100000*%
%ADD11C,0.150000*%
%ADD12C,0.120000*%
G04 APERTURE END LIST*
D10*
X162029449Y-95183609D02*
X162196115Y-94945514D01*
X162315163Y-95183609D02*
X162315163Y-94683609D01*
X162315163Y-94683609D02*
X162124687Y-94683609D01*
X162124687Y-94683609D02*
X162077068Y-94707419D01*
X162077068Y-94707419D02*
X162053258Y-94731228D01*
X162053258Y-94731228D02*
X162029449Y-94778847D01*
X162029449Y-94778847D02*
X162029449Y-94850276D01*
X162029449Y-94850276D02*
X162053258Y-94897895D01*
X162053258Y-94897895D02*
X162077068Y-94921704D01*
X162077068Y-94921704D02*
X162124687Y-94945514D01*
X162124687Y-94945514D02*
X162315163Y-94945514D01*
X161815163Y-94921704D02*
X161648496Y-94921704D01*
X161577068Y-95183609D02*
X161815163Y-95183609D01*
X161815163Y-95183609D02*
X161815163Y-94683609D01*
X161815163Y-94683609D02*
X161577068Y-94683609D01*
X161362782Y-95183609D02*
X161362782Y-94683609D01*
X161362782Y-94683609D02*
X161243734Y-94683609D01*
X161243734Y-94683609D02*
X161172306Y-94707419D01*
X161172306Y-94707419D02*
X161124687Y-94755038D01*
X161124687Y-94755038D02*
X161100877Y-94802657D01*
X161100877Y-94802657D02*
X161077068Y-94897895D01*
X161077068Y-94897895D02*
X161077068Y-94969323D01*
X161077068Y-94969323D02*
X161100877Y-95064561D01*
X161100877Y-95064561D02*
X161124687Y-95112180D01*
X161124687Y-95112180D02*
X161172306Y-95159800D01*
X161172306Y-95159800D02*
X161243734Y-95183609D01*
X161243734Y-95183609D02*
X161362782Y-95183609D01*
X126404761Y-94921704D02*
X126333333Y-94945514D01*
X126333333Y-94945514D02*
X126309523Y-94969323D01*
X126309523Y-94969323D02*
X126285714Y-95016942D01*
X126285714Y-95016942D02*
X126285714Y-95088371D01*
X126285714Y-95088371D02*
X126309523Y-95135990D01*
X126309523Y-95135990D02*
X126333333Y-95159800D01*
X126333333Y-95159800D02*
X126380952Y-95183609D01*
X126380952Y-95183609D02*
X126571428Y-95183609D01*
X126571428Y-95183609D02*
X126571428Y-94683609D01*
X126571428Y-94683609D02*
X126404761Y-94683609D01*
X126404761Y-94683609D02*
X126357142Y-94707419D01*
X126357142Y-94707419D02*
X126333333Y-94731228D01*
X126333333Y-94731228D02*
X126309523Y-94778847D01*
X126309523Y-94778847D02*
X126309523Y-94826466D01*
X126309523Y-94826466D02*
X126333333Y-94874085D01*
X126333333Y-94874085D02*
X126357142Y-94897895D01*
X126357142Y-94897895D02*
X126404761Y-94921704D01*
X126404761Y-94921704D02*
X126571428Y-94921704D01*
X125833333Y-95183609D02*
X126071428Y-95183609D01*
X126071428Y-95183609D02*
X126071428Y-94683609D01*
X125666666Y-94683609D02*
X125666666Y-95088371D01*
X125666666Y-95088371D02*
X125642856Y-95135990D01*
X125642856Y-95135990D02*
X125619047Y-95159800D01*
X125619047Y-95159800D02*
X125571428Y-95183609D01*
X125571428Y-95183609D02*
X125476190Y-95183609D01*
X125476190Y-95183609D02*
X125428571Y-95159800D01*
X125428571Y-95159800D02*
X125404761Y-95135990D01*
X125404761Y-95135990D02*
X125380952Y-95088371D01*
X125380952Y-95088371D02*
X125380952Y-94683609D01*
X125142856Y-94921704D02*
X124976189Y-94921704D01*
X124904761Y-95183609D02*
X125142856Y-95183609D01*
X125142856Y-95183609D02*
X125142856Y-94683609D01*
X125142856Y-94683609D02*
X124904761Y-94683609D01*
X168029449Y-95183609D02*
X168196115Y-94945514D01*
X168315163Y-95183609D02*
X168315163Y-94683609D01*
X168315163Y-94683609D02*
X168124687Y-94683609D01*
X168124687Y-94683609D02*
X168077068Y-94707419D01*
X168077068Y-94707419D02*
X168053258Y-94731228D01*
X168053258Y-94731228D02*
X168029449Y-94778847D01*
X168029449Y-94778847D02*
X168029449Y-94850276D01*
X168029449Y-94850276D02*
X168053258Y-94897895D01*
X168053258Y-94897895D02*
X168077068Y-94921704D01*
X168077068Y-94921704D02*
X168124687Y-94945514D01*
X168124687Y-94945514D02*
X168315163Y-94945514D01*
X167815163Y-94921704D02*
X167648496Y-94921704D01*
X167577068Y-95183609D02*
X167815163Y-95183609D01*
X167815163Y-95183609D02*
X167815163Y-94683609D01*
X167815163Y-94683609D02*
X167577068Y-94683609D01*
X167362782Y-95183609D02*
X167362782Y-94683609D01*
X167362782Y-94683609D02*
X167243734Y-94683609D01*
X167243734Y-94683609D02*
X167172306Y-94707419D01*
X167172306Y-94707419D02*
X167124687Y-94755038D01*
X167124687Y-94755038D02*
X167100877Y-94802657D01*
X167100877Y-94802657D02*
X167077068Y-94897895D01*
X167077068Y-94897895D02*
X167077068Y-94969323D01*
X167077068Y-94969323D02*
X167100877Y-95064561D01*
X167100877Y-95064561D02*
X167124687Y-95112180D01*
X167124687Y-95112180D02*
X167172306Y-95159800D01*
X167172306Y-95159800D02*
X167243734Y-95183609D01*
X167243734Y-95183609D02*
X167362782Y-95183609D01*
X156029449Y-95183609D02*
X156196115Y-94945514D01*
X156315163Y-95183609D02*
X156315163Y-94683609D01*
X156315163Y-94683609D02*
X156124687Y-94683609D01*
X156124687Y-94683609D02*
X156077068Y-94707419D01*
X156077068Y-94707419D02*
X156053258Y-94731228D01*
X156053258Y-94731228D02*
X156029449Y-94778847D01*
X156029449Y-94778847D02*
X156029449Y-94850276D01*
X156029449Y-94850276D02*
X156053258Y-94897895D01*
X156053258Y-94897895D02*
X156077068Y-94921704D01*
X156077068Y-94921704D02*
X156124687Y-94945514D01*
X156124687Y-94945514D02*
X156315163Y-94945514D01*
X155815163Y-94921704D02*
X155648496Y-94921704D01*
X155577068Y-95183609D02*
X155815163Y-95183609D01*
X155815163Y-95183609D02*
X155815163Y-94683609D01*
X155815163Y-94683609D02*
X155577068Y-94683609D01*
X155362782Y-95183609D02*
X155362782Y-94683609D01*
X155362782Y-94683609D02*
X155243734Y-94683609D01*
X155243734Y-94683609D02*
X155172306Y-94707419D01*
X155172306Y-94707419D02*
X155124687Y-94755038D01*
X155124687Y-94755038D02*
X155100877Y-94802657D01*
X155100877Y-94802657D02*
X155077068Y-94897895D01*
X155077068Y-94897895D02*
X155077068Y-94969323D01*
X155077068Y-94969323D02*
X155100877Y-95064561D01*
X155100877Y-95064561D02*
X155124687Y-95112180D01*
X155124687Y-95112180D02*
X155172306Y-95159800D01*
X155172306Y-95159800D02*
X155243734Y-95183609D01*
X155243734Y-95183609D02*
X155362782Y-95183609D01*
X114404761Y-94921704D02*
X114333333Y-94945514D01*
X114333333Y-94945514D02*
X114309523Y-94969323D01*
X114309523Y-94969323D02*
X114285714Y-95016942D01*
X114285714Y-95016942D02*
X114285714Y-95088371D01*
X114285714Y-95088371D02*
X114309523Y-95135990D01*
X114309523Y-95135990D02*
X114333333Y-95159800D01*
X114333333Y-95159800D02*
X114380952Y-95183609D01*
X114380952Y-95183609D02*
X114571428Y-95183609D01*
X114571428Y-95183609D02*
X114571428Y-94683609D01*
X114571428Y-94683609D02*
X114404761Y-94683609D01*
X114404761Y-94683609D02*
X114357142Y-94707419D01*
X114357142Y-94707419D02*
X114333333Y-94731228D01*
X114333333Y-94731228D02*
X114309523Y-94778847D01*
X114309523Y-94778847D02*
X114309523Y-94826466D01*
X114309523Y-94826466D02*
X114333333Y-94874085D01*
X114333333Y-94874085D02*
X114357142Y-94897895D01*
X114357142Y-94897895D02*
X114404761Y-94921704D01*
X114404761Y-94921704D02*
X114571428Y-94921704D01*
X113833333Y-95183609D02*
X114071428Y-95183609D01*
X114071428Y-95183609D02*
X114071428Y-94683609D01*
X113666666Y-94683609D02*
X113666666Y-95088371D01*
X113666666Y-95088371D02*
X113642856Y-95135990D01*
X113642856Y-95135990D02*
X113619047Y-95159800D01*
X113619047Y-95159800D02*
X113571428Y-95183609D01*
X113571428Y-95183609D02*
X113476190Y-95183609D01*
X113476190Y-95183609D02*
X113428571Y-95159800D01*
X113428571Y-95159800D02*
X113404761Y-95135990D01*
X113404761Y-95135990D02*
X113380952Y-95088371D01*
X113380952Y-95088371D02*
X113380952Y-94683609D01*
X113142856Y-94921704D02*
X112976189Y-94921704D01*
X112904761Y-95183609D02*
X113142856Y-95183609D01*
X113142856Y-95183609D02*
X113142856Y-94683609D01*
X113142856Y-94683609D02*
X112904761Y-94683609D01*
X174029449Y-95183609D02*
X174196115Y-94945514D01*
X174315163Y-95183609D02*
X174315163Y-94683609D01*
X174315163Y-94683609D02*
X174124687Y-94683609D01*
X174124687Y-94683609D02*
X174077068Y-94707419D01*
X174077068Y-94707419D02*
X174053258Y-94731228D01*
X174053258Y-94731228D02*
X174029449Y-94778847D01*
X174029449Y-94778847D02*
X174029449Y-94850276D01*
X174029449Y-94850276D02*
X174053258Y-94897895D01*
X174053258Y-94897895D02*
X174077068Y-94921704D01*
X174077068Y-94921704D02*
X174124687Y-94945514D01*
X174124687Y-94945514D02*
X174315163Y-94945514D01*
X173815163Y-94921704D02*
X173648496Y-94921704D01*
X173577068Y-95183609D02*
X173815163Y-95183609D01*
X173815163Y-95183609D02*
X173815163Y-94683609D01*
X173815163Y-94683609D02*
X173577068Y-94683609D01*
X173362782Y-95183609D02*
X173362782Y-94683609D01*
X173362782Y-94683609D02*
X173243734Y-94683609D01*
X173243734Y-94683609D02*
X173172306Y-94707419D01*
X173172306Y-94707419D02*
X173124687Y-94755038D01*
X173124687Y-94755038D02*
X173100877Y-94802657D01*
X173100877Y-94802657D02*
X173077068Y-94897895D01*
X173077068Y-94897895D02*
X173077068Y-94969323D01*
X173077068Y-94969323D02*
X173100877Y-95064561D01*
X173100877Y-95064561D02*
X173124687Y-95112180D01*
X173124687Y-95112180D02*
X173172306Y-95159800D01*
X173172306Y-95159800D02*
X173243734Y-95183609D01*
X173243734Y-95183609D02*
X173362782Y-95183609D01*
X102404761Y-95121704D02*
X102333333Y-95145514D01*
X102333333Y-95145514D02*
X102309523Y-95169323D01*
X102309523Y-95169323D02*
X102285714Y-95216942D01*
X102285714Y-95216942D02*
X102285714Y-95288371D01*
X102285714Y-95288371D02*
X102309523Y-95335990D01*
X102309523Y-95335990D02*
X102333333Y-95359800D01*
X102333333Y-95359800D02*
X102380952Y-95383609D01*
X102380952Y-95383609D02*
X102571428Y-95383609D01*
X102571428Y-95383609D02*
X102571428Y-94883609D01*
X102571428Y-94883609D02*
X102404761Y-94883609D01*
X102404761Y-94883609D02*
X102357142Y-94907419D01*
X102357142Y-94907419D02*
X102333333Y-94931228D01*
X102333333Y-94931228D02*
X102309523Y-94978847D01*
X102309523Y-94978847D02*
X102309523Y-95026466D01*
X102309523Y-95026466D02*
X102333333Y-95074085D01*
X102333333Y-95074085D02*
X102357142Y-95097895D01*
X102357142Y-95097895D02*
X102404761Y-95121704D01*
X102404761Y-95121704D02*
X102571428Y-95121704D01*
X101833333Y-95383609D02*
X102071428Y-95383609D01*
X102071428Y-95383609D02*
X102071428Y-94883609D01*
X101666666Y-94883609D02*
X101666666Y-95288371D01*
X101666666Y-95288371D02*
X101642856Y-95335990D01*
X101642856Y-95335990D02*
X101619047Y-95359800D01*
X101619047Y-95359800D02*
X101571428Y-95383609D01*
X101571428Y-95383609D02*
X101476190Y-95383609D01*
X101476190Y-95383609D02*
X101428571Y-95359800D01*
X101428571Y-95359800D02*
X101404761Y-95335990D01*
X101404761Y-95335990D02*
X101380952Y-95288371D01*
X101380952Y-95288371D02*
X101380952Y-94883609D01*
X101142856Y-95121704D02*
X100976189Y-95121704D01*
X100904761Y-95383609D02*
X101142856Y-95383609D01*
X101142856Y-95383609D02*
X101142856Y-94883609D01*
X101142856Y-94883609D02*
X100904761Y-94883609D01*
X150583333Y-94707419D02*
X150630952Y-94683609D01*
X150630952Y-94683609D02*
X150702381Y-94683609D01*
X150702381Y-94683609D02*
X150773809Y-94707419D01*
X150773809Y-94707419D02*
X150821428Y-94755038D01*
X150821428Y-94755038D02*
X150845238Y-94802657D01*
X150845238Y-94802657D02*
X150869047Y-94897895D01*
X150869047Y-94897895D02*
X150869047Y-94969323D01*
X150869047Y-94969323D02*
X150845238Y-95064561D01*
X150845238Y-95064561D02*
X150821428Y-95112180D01*
X150821428Y-95112180D02*
X150773809Y-95159800D01*
X150773809Y-95159800D02*
X150702381Y-95183609D01*
X150702381Y-95183609D02*
X150654762Y-95183609D01*
X150654762Y-95183609D02*
X150583333Y-95159800D01*
X150583333Y-95159800D02*
X150559524Y-95135990D01*
X150559524Y-95135990D02*
X150559524Y-94969323D01*
X150559524Y-94969323D02*
X150654762Y-94969323D01*
X150059524Y-95183609D02*
X150226190Y-94945514D01*
X150345238Y-95183609D02*
X150345238Y-94683609D01*
X150345238Y-94683609D02*
X150154762Y-94683609D01*
X150154762Y-94683609D02*
X150107143Y-94707419D01*
X150107143Y-94707419D02*
X150083333Y-94731228D01*
X150083333Y-94731228D02*
X150059524Y-94778847D01*
X150059524Y-94778847D02*
X150059524Y-94850276D01*
X150059524Y-94850276D02*
X150083333Y-94897895D01*
X150083333Y-94897895D02*
X150107143Y-94921704D01*
X150107143Y-94921704D02*
X150154762Y-94945514D01*
X150154762Y-94945514D02*
X150345238Y-94945514D01*
X149845238Y-94921704D02*
X149678571Y-94921704D01*
X149607143Y-95183609D02*
X149845238Y-95183609D01*
X149845238Y-95183609D02*
X149845238Y-94683609D01*
X149845238Y-94683609D02*
X149607143Y-94683609D01*
X149392857Y-94921704D02*
X149226190Y-94921704D01*
X149154762Y-95183609D02*
X149392857Y-95183609D01*
X149392857Y-95183609D02*
X149392857Y-94683609D01*
X149392857Y-94683609D02*
X149154762Y-94683609D01*
X148940476Y-95183609D02*
X148940476Y-94683609D01*
X148940476Y-94683609D02*
X148654762Y-95183609D01*
X148654762Y-95183609D02*
X148654762Y-94683609D01*
X138583333Y-94707419D02*
X138630952Y-94683609D01*
X138630952Y-94683609D02*
X138702381Y-94683609D01*
X138702381Y-94683609D02*
X138773809Y-94707419D01*
X138773809Y-94707419D02*
X138821428Y-94755038D01*
X138821428Y-94755038D02*
X138845238Y-94802657D01*
X138845238Y-94802657D02*
X138869047Y-94897895D01*
X138869047Y-94897895D02*
X138869047Y-94969323D01*
X138869047Y-94969323D02*
X138845238Y-95064561D01*
X138845238Y-95064561D02*
X138821428Y-95112180D01*
X138821428Y-95112180D02*
X138773809Y-95159800D01*
X138773809Y-95159800D02*
X138702381Y-95183609D01*
X138702381Y-95183609D02*
X138654762Y-95183609D01*
X138654762Y-95183609D02*
X138583333Y-95159800D01*
X138583333Y-95159800D02*
X138559524Y-95135990D01*
X138559524Y-95135990D02*
X138559524Y-94969323D01*
X138559524Y-94969323D02*
X138654762Y-94969323D01*
X138059524Y-95183609D02*
X138226190Y-94945514D01*
X138345238Y-95183609D02*
X138345238Y-94683609D01*
X138345238Y-94683609D02*
X138154762Y-94683609D01*
X138154762Y-94683609D02*
X138107143Y-94707419D01*
X138107143Y-94707419D02*
X138083333Y-94731228D01*
X138083333Y-94731228D02*
X138059524Y-94778847D01*
X138059524Y-94778847D02*
X138059524Y-94850276D01*
X138059524Y-94850276D02*
X138083333Y-94897895D01*
X138083333Y-94897895D02*
X138107143Y-94921704D01*
X138107143Y-94921704D02*
X138154762Y-94945514D01*
X138154762Y-94945514D02*
X138345238Y-94945514D01*
X137845238Y-94921704D02*
X137678571Y-94921704D01*
X137607143Y-95183609D02*
X137845238Y-95183609D01*
X137845238Y-95183609D02*
X137845238Y-94683609D01*
X137845238Y-94683609D02*
X137607143Y-94683609D01*
X137392857Y-94921704D02*
X137226190Y-94921704D01*
X137154762Y-95183609D02*
X137392857Y-95183609D01*
X137392857Y-95183609D02*
X137392857Y-94683609D01*
X137392857Y-94683609D02*
X137154762Y-94683609D01*
X136940476Y-95183609D02*
X136940476Y-94683609D01*
X136940476Y-94683609D02*
X136654762Y-95183609D01*
X136654762Y-95183609D02*
X136654762Y-94683609D01*
X108404761Y-94921704D02*
X108333333Y-94945514D01*
X108333333Y-94945514D02*
X108309523Y-94969323D01*
X108309523Y-94969323D02*
X108285714Y-95016942D01*
X108285714Y-95016942D02*
X108285714Y-95088371D01*
X108285714Y-95088371D02*
X108309523Y-95135990D01*
X108309523Y-95135990D02*
X108333333Y-95159800D01*
X108333333Y-95159800D02*
X108380952Y-95183609D01*
X108380952Y-95183609D02*
X108571428Y-95183609D01*
X108571428Y-95183609D02*
X108571428Y-94683609D01*
X108571428Y-94683609D02*
X108404761Y-94683609D01*
X108404761Y-94683609D02*
X108357142Y-94707419D01*
X108357142Y-94707419D02*
X108333333Y-94731228D01*
X108333333Y-94731228D02*
X108309523Y-94778847D01*
X108309523Y-94778847D02*
X108309523Y-94826466D01*
X108309523Y-94826466D02*
X108333333Y-94874085D01*
X108333333Y-94874085D02*
X108357142Y-94897895D01*
X108357142Y-94897895D02*
X108404761Y-94921704D01*
X108404761Y-94921704D02*
X108571428Y-94921704D01*
X107833333Y-95183609D02*
X108071428Y-95183609D01*
X108071428Y-95183609D02*
X108071428Y-94683609D01*
X107666666Y-94683609D02*
X107666666Y-95088371D01*
X107666666Y-95088371D02*
X107642856Y-95135990D01*
X107642856Y-95135990D02*
X107619047Y-95159800D01*
X107619047Y-95159800D02*
X107571428Y-95183609D01*
X107571428Y-95183609D02*
X107476190Y-95183609D01*
X107476190Y-95183609D02*
X107428571Y-95159800D01*
X107428571Y-95159800D02*
X107404761Y-95135990D01*
X107404761Y-95135990D02*
X107380952Y-95088371D01*
X107380952Y-95088371D02*
X107380952Y-94683609D01*
X107142856Y-94921704D02*
X106976189Y-94921704D01*
X106904761Y-95183609D02*
X107142856Y-95183609D01*
X107142856Y-95183609D02*
X107142856Y-94683609D01*
X107142856Y-94683609D02*
X106904761Y-94683609D01*
X120404761Y-94921704D02*
X120333333Y-94945514D01*
X120333333Y-94945514D02*
X120309523Y-94969323D01*
X120309523Y-94969323D02*
X120285714Y-95016942D01*
X120285714Y-95016942D02*
X120285714Y-95088371D01*
X120285714Y-95088371D02*
X120309523Y-95135990D01*
X120309523Y-95135990D02*
X120333333Y-95159800D01*
X120333333Y-95159800D02*
X120380952Y-95183609D01*
X120380952Y-95183609D02*
X120571428Y-95183609D01*
X120571428Y-95183609D02*
X120571428Y-94683609D01*
X120571428Y-94683609D02*
X120404761Y-94683609D01*
X120404761Y-94683609D02*
X120357142Y-94707419D01*
X120357142Y-94707419D02*
X120333333Y-94731228D01*
X120333333Y-94731228D02*
X120309523Y-94778847D01*
X120309523Y-94778847D02*
X120309523Y-94826466D01*
X120309523Y-94826466D02*
X120333333Y-94874085D01*
X120333333Y-94874085D02*
X120357142Y-94897895D01*
X120357142Y-94897895D02*
X120404761Y-94921704D01*
X120404761Y-94921704D02*
X120571428Y-94921704D01*
X119833333Y-95183609D02*
X120071428Y-95183609D01*
X120071428Y-95183609D02*
X120071428Y-94683609D01*
X119666666Y-94683609D02*
X119666666Y-95088371D01*
X119666666Y-95088371D02*
X119642856Y-95135990D01*
X119642856Y-95135990D02*
X119619047Y-95159800D01*
X119619047Y-95159800D02*
X119571428Y-95183609D01*
X119571428Y-95183609D02*
X119476190Y-95183609D01*
X119476190Y-95183609D02*
X119428571Y-95159800D01*
X119428571Y-95159800D02*
X119404761Y-95135990D01*
X119404761Y-95135990D02*
X119380952Y-95088371D01*
X119380952Y-95088371D02*
X119380952Y-94683609D01*
X119142856Y-94921704D02*
X118976189Y-94921704D01*
X118904761Y-95183609D02*
X119142856Y-95183609D01*
X119142856Y-95183609D02*
X119142856Y-94683609D01*
X119142856Y-94683609D02*
X118904761Y-94683609D01*
X180029449Y-95183609D02*
X180196115Y-94945514D01*
X180315163Y-95183609D02*
X180315163Y-94683609D01*
X180315163Y-94683609D02*
X180124687Y-94683609D01*
X180124687Y-94683609D02*
X180077068Y-94707419D01*
X180077068Y-94707419D02*
X180053258Y-94731228D01*
X180053258Y-94731228D02*
X180029449Y-94778847D01*
X180029449Y-94778847D02*
X180029449Y-94850276D01*
X180029449Y-94850276D02*
X180053258Y-94897895D01*
X180053258Y-94897895D02*
X180077068Y-94921704D01*
X180077068Y-94921704D02*
X180124687Y-94945514D01*
X180124687Y-94945514D02*
X180315163Y-94945514D01*
X179815163Y-94921704D02*
X179648496Y-94921704D01*
X179577068Y-95183609D02*
X179815163Y-95183609D01*
X179815163Y-95183609D02*
X179815163Y-94683609D01*
X179815163Y-94683609D02*
X179577068Y-94683609D01*
X179362782Y-95183609D02*
X179362782Y-94683609D01*
X179362782Y-94683609D02*
X179243734Y-94683609D01*
X179243734Y-94683609D02*
X179172306Y-94707419D01*
X179172306Y-94707419D02*
X179124687Y-94755038D01*
X179124687Y-94755038D02*
X179100877Y-94802657D01*
X179100877Y-94802657D02*
X179077068Y-94897895D01*
X179077068Y-94897895D02*
X179077068Y-94969323D01*
X179077068Y-94969323D02*
X179100877Y-95064561D01*
X179100877Y-95064561D02*
X179124687Y-95112180D01*
X179124687Y-95112180D02*
X179172306Y-95159800D01*
X179172306Y-95159800D02*
X179243734Y-95183609D01*
X179243734Y-95183609D02*
X179362782Y-95183609D01*
X132583333Y-94707419D02*
X132630952Y-94683609D01*
X132630952Y-94683609D02*
X132702381Y-94683609D01*
X132702381Y-94683609D02*
X132773809Y-94707419D01*
X132773809Y-94707419D02*
X132821428Y-94755038D01*
X132821428Y-94755038D02*
X132845238Y-94802657D01*
X132845238Y-94802657D02*
X132869047Y-94897895D01*
X132869047Y-94897895D02*
X132869047Y-94969323D01*
X132869047Y-94969323D02*
X132845238Y-95064561D01*
X132845238Y-95064561D02*
X132821428Y-95112180D01*
X132821428Y-95112180D02*
X132773809Y-95159800D01*
X132773809Y-95159800D02*
X132702381Y-95183609D01*
X132702381Y-95183609D02*
X132654762Y-95183609D01*
X132654762Y-95183609D02*
X132583333Y-95159800D01*
X132583333Y-95159800D02*
X132559524Y-95135990D01*
X132559524Y-95135990D02*
X132559524Y-94969323D01*
X132559524Y-94969323D02*
X132654762Y-94969323D01*
X132059524Y-95183609D02*
X132226190Y-94945514D01*
X132345238Y-95183609D02*
X132345238Y-94683609D01*
X132345238Y-94683609D02*
X132154762Y-94683609D01*
X132154762Y-94683609D02*
X132107143Y-94707419D01*
X132107143Y-94707419D02*
X132083333Y-94731228D01*
X132083333Y-94731228D02*
X132059524Y-94778847D01*
X132059524Y-94778847D02*
X132059524Y-94850276D01*
X132059524Y-94850276D02*
X132083333Y-94897895D01*
X132083333Y-94897895D02*
X132107143Y-94921704D01*
X132107143Y-94921704D02*
X132154762Y-94945514D01*
X132154762Y-94945514D02*
X132345238Y-94945514D01*
X131845238Y-94921704D02*
X131678571Y-94921704D01*
X131607143Y-95183609D02*
X131845238Y-95183609D01*
X131845238Y-95183609D02*
X131845238Y-94683609D01*
X131845238Y-94683609D02*
X131607143Y-94683609D01*
X131392857Y-94921704D02*
X131226190Y-94921704D01*
X131154762Y-95183609D02*
X131392857Y-95183609D01*
X131392857Y-95183609D02*
X131392857Y-94683609D01*
X131392857Y-94683609D02*
X131154762Y-94683609D01*
X130940476Y-95183609D02*
X130940476Y-94683609D01*
X130940476Y-94683609D02*
X130654762Y-95183609D01*
X130654762Y-95183609D02*
X130654762Y-94683609D01*
X96454761Y-94971704D02*
X96383333Y-94995514D01*
X96383333Y-94995514D02*
X96359523Y-95019323D01*
X96359523Y-95019323D02*
X96335714Y-95066942D01*
X96335714Y-95066942D02*
X96335714Y-95138371D01*
X96335714Y-95138371D02*
X96359523Y-95185990D01*
X96359523Y-95185990D02*
X96383333Y-95209800D01*
X96383333Y-95209800D02*
X96430952Y-95233609D01*
X96430952Y-95233609D02*
X96621428Y-95233609D01*
X96621428Y-95233609D02*
X96621428Y-94733609D01*
X96621428Y-94733609D02*
X96454761Y-94733609D01*
X96454761Y-94733609D02*
X96407142Y-94757419D01*
X96407142Y-94757419D02*
X96383333Y-94781228D01*
X96383333Y-94781228D02*
X96359523Y-94828847D01*
X96359523Y-94828847D02*
X96359523Y-94876466D01*
X96359523Y-94876466D02*
X96383333Y-94924085D01*
X96383333Y-94924085D02*
X96407142Y-94947895D01*
X96407142Y-94947895D02*
X96454761Y-94971704D01*
X96454761Y-94971704D02*
X96621428Y-94971704D01*
X95883333Y-95233609D02*
X96121428Y-95233609D01*
X96121428Y-95233609D02*
X96121428Y-94733609D01*
X95716666Y-94733609D02*
X95716666Y-95138371D01*
X95716666Y-95138371D02*
X95692856Y-95185990D01*
X95692856Y-95185990D02*
X95669047Y-95209800D01*
X95669047Y-95209800D02*
X95621428Y-95233609D01*
X95621428Y-95233609D02*
X95526190Y-95233609D01*
X95526190Y-95233609D02*
X95478571Y-95209800D01*
X95478571Y-95209800D02*
X95454761Y-95185990D01*
X95454761Y-95185990D02*
X95430952Y-95138371D01*
X95430952Y-95138371D02*
X95430952Y-94733609D01*
X95192856Y-94971704D02*
X95026189Y-94971704D01*
X94954761Y-95233609D02*
X95192856Y-95233609D01*
X95192856Y-95233609D02*
X95192856Y-94733609D01*
X95192856Y-94733609D02*
X94954761Y-94733609D01*
X144583333Y-94707419D02*
X144630952Y-94683609D01*
X144630952Y-94683609D02*
X144702381Y-94683609D01*
X144702381Y-94683609D02*
X144773809Y-94707419D01*
X144773809Y-94707419D02*
X144821428Y-94755038D01*
X144821428Y-94755038D02*
X144845238Y-94802657D01*
X144845238Y-94802657D02*
X144869047Y-94897895D01*
X144869047Y-94897895D02*
X144869047Y-94969323D01*
X144869047Y-94969323D02*
X144845238Y-95064561D01*
X144845238Y-95064561D02*
X144821428Y-95112180D01*
X144821428Y-95112180D02*
X144773809Y-95159800D01*
X144773809Y-95159800D02*
X144702381Y-95183609D01*
X144702381Y-95183609D02*
X144654762Y-95183609D01*
X144654762Y-95183609D02*
X144583333Y-95159800D01*
X144583333Y-95159800D02*
X144559524Y-95135990D01*
X144559524Y-95135990D02*
X144559524Y-94969323D01*
X144559524Y-94969323D02*
X144654762Y-94969323D01*
X144059524Y-95183609D02*
X144226190Y-94945514D01*
X144345238Y-95183609D02*
X144345238Y-94683609D01*
X144345238Y-94683609D02*
X144154762Y-94683609D01*
X144154762Y-94683609D02*
X144107143Y-94707419D01*
X144107143Y-94707419D02*
X144083333Y-94731228D01*
X144083333Y-94731228D02*
X144059524Y-94778847D01*
X144059524Y-94778847D02*
X144059524Y-94850276D01*
X144059524Y-94850276D02*
X144083333Y-94897895D01*
X144083333Y-94897895D02*
X144107143Y-94921704D01*
X144107143Y-94921704D02*
X144154762Y-94945514D01*
X144154762Y-94945514D02*
X144345238Y-94945514D01*
X143845238Y-94921704D02*
X143678571Y-94921704D01*
X143607143Y-95183609D02*
X143845238Y-95183609D01*
X143845238Y-95183609D02*
X143845238Y-94683609D01*
X143845238Y-94683609D02*
X143607143Y-94683609D01*
X143392857Y-94921704D02*
X143226190Y-94921704D01*
X143154762Y-95183609D02*
X143392857Y-95183609D01*
X143392857Y-95183609D02*
X143392857Y-94683609D01*
X143392857Y-94683609D02*
X143154762Y-94683609D01*
X142940476Y-95183609D02*
X142940476Y-94683609D01*
X142940476Y-94683609D02*
X142654762Y-95183609D01*
X142654762Y-95183609D02*
X142654762Y-94683609D01*
D11*
X174493094Y-96619819D02*
X174493094Y-95619819D01*
X174493094Y-95619819D02*
X174254999Y-95619819D01*
X174254999Y-95619819D02*
X174112142Y-95667438D01*
X174112142Y-95667438D02*
X174016904Y-95762676D01*
X174016904Y-95762676D02*
X173969285Y-95857914D01*
X173969285Y-95857914D02*
X173921666Y-96048390D01*
X173921666Y-96048390D02*
X173921666Y-96191247D01*
X173921666Y-96191247D02*
X173969285Y-96381723D01*
X173969285Y-96381723D02*
X174016904Y-96476961D01*
X174016904Y-96476961D02*
X174112142Y-96572200D01*
X174112142Y-96572200D02*
X174254999Y-96619819D01*
X174254999Y-96619819D02*
X174493094Y-96619819D01*
X172969285Y-96619819D02*
X173540713Y-96619819D01*
X173254999Y-96619819D02*
X173254999Y-95619819D01*
X173254999Y-95619819D02*
X173350237Y-95762676D01*
X173350237Y-95762676D02*
X173445475Y-95857914D01*
X173445475Y-95857914D02*
X173540713Y-95905533D01*
X168493094Y-96619819D02*
X168493094Y-95619819D01*
X168493094Y-95619819D02*
X168254999Y-95619819D01*
X168254999Y-95619819D02*
X168112142Y-95667438D01*
X168112142Y-95667438D02*
X168016904Y-95762676D01*
X168016904Y-95762676D02*
X167969285Y-95857914D01*
X167969285Y-95857914D02*
X167921666Y-96048390D01*
X167921666Y-96048390D02*
X167921666Y-96191247D01*
X167921666Y-96191247D02*
X167969285Y-96381723D01*
X167969285Y-96381723D02*
X168016904Y-96476961D01*
X168016904Y-96476961D02*
X168112142Y-96572200D01*
X168112142Y-96572200D02*
X168254999Y-96619819D01*
X168254999Y-96619819D02*
X168493094Y-96619819D01*
X167540713Y-95715057D02*
X167493094Y-95667438D01*
X167493094Y-95667438D02*
X167397856Y-95619819D01*
X167397856Y-95619819D02*
X167159761Y-95619819D01*
X167159761Y-95619819D02*
X167064523Y-95667438D01*
X167064523Y-95667438D02*
X167016904Y-95715057D01*
X167016904Y-95715057D02*
X166969285Y-95810295D01*
X166969285Y-95810295D02*
X166969285Y-95905533D01*
X166969285Y-95905533D02*
X167016904Y-96048390D01*
X167016904Y-96048390D02*
X167588332Y-96619819D01*
X167588332Y-96619819D02*
X166969285Y-96619819D01*
X138493094Y-96619819D02*
X138493094Y-95619819D01*
X138493094Y-95619819D02*
X138254999Y-95619819D01*
X138254999Y-95619819D02*
X138112142Y-95667438D01*
X138112142Y-95667438D02*
X138016904Y-95762676D01*
X138016904Y-95762676D02*
X137969285Y-95857914D01*
X137969285Y-95857914D02*
X137921666Y-96048390D01*
X137921666Y-96048390D02*
X137921666Y-96191247D01*
X137921666Y-96191247D02*
X137969285Y-96381723D01*
X137969285Y-96381723D02*
X138016904Y-96476961D01*
X138016904Y-96476961D02*
X138112142Y-96572200D01*
X138112142Y-96572200D02*
X138254999Y-96619819D01*
X138254999Y-96619819D02*
X138493094Y-96619819D01*
X137588332Y-95619819D02*
X136921666Y-95619819D01*
X136921666Y-95619819D02*
X137350237Y-96619819D01*
X162493094Y-96619819D02*
X162493094Y-95619819D01*
X162493094Y-95619819D02*
X162254999Y-95619819D01*
X162254999Y-95619819D02*
X162112142Y-95667438D01*
X162112142Y-95667438D02*
X162016904Y-95762676D01*
X162016904Y-95762676D02*
X161969285Y-95857914D01*
X161969285Y-95857914D02*
X161921666Y-96048390D01*
X161921666Y-96048390D02*
X161921666Y-96191247D01*
X161921666Y-96191247D02*
X161969285Y-96381723D01*
X161969285Y-96381723D02*
X162016904Y-96476961D01*
X162016904Y-96476961D02*
X162112142Y-96572200D01*
X162112142Y-96572200D02*
X162254999Y-96619819D01*
X162254999Y-96619819D02*
X162493094Y-96619819D01*
X161588332Y-95619819D02*
X160969285Y-95619819D01*
X160969285Y-95619819D02*
X161302618Y-96000771D01*
X161302618Y-96000771D02*
X161159761Y-96000771D01*
X161159761Y-96000771D02*
X161064523Y-96048390D01*
X161064523Y-96048390D02*
X161016904Y-96096009D01*
X161016904Y-96096009D02*
X160969285Y-96191247D01*
X160969285Y-96191247D02*
X160969285Y-96429342D01*
X160969285Y-96429342D02*
X161016904Y-96524580D01*
X161016904Y-96524580D02*
X161064523Y-96572200D01*
X161064523Y-96572200D02*
X161159761Y-96619819D01*
X161159761Y-96619819D02*
X161445475Y-96619819D01*
X161445475Y-96619819D02*
X161540713Y-96572200D01*
X161540713Y-96572200D02*
X161588332Y-96524580D01*
X132493094Y-96619819D02*
X132493094Y-95619819D01*
X132493094Y-95619819D02*
X132254999Y-95619819D01*
X132254999Y-95619819D02*
X132112142Y-95667438D01*
X132112142Y-95667438D02*
X132016904Y-95762676D01*
X132016904Y-95762676D02*
X131969285Y-95857914D01*
X131969285Y-95857914D02*
X131921666Y-96048390D01*
X131921666Y-96048390D02*
X131921666Y-96191247D01*
X131921666Y-96191247D02*
X131969285Y-96381723D01*
X131969285Y-96381723D02*
X132016904Y-96476961D01*
X132016904Y-96476961D02*
X132112142Y-96572200D01*
X132112142Y-96572200D02*
X132254999Y-96619819D01*
X132254999Y-96619819D02*
X132493094Y-96619819D01*
X131350237Y-96048390D02*
X131445475Y-96000771D01*
X131445475Y-96000771D02*
X131493094Y-95953152D01*
X131493094Y-95953152D02*
X131540713Y-95857914D01*
X131540713Y-95857914D02*
X131540713Y-95810295D01*
X131540713Y-95810295D02*
X131493094Y-95715057D01*
X131493094Y-95715057D02*
X131445475Y-95667438D01*
X131445475Y-95667438D02*
X131350237Y-95619819D01*
X131350237Y-95619819D02*
X131159761Y-95619819D01*
X131159761Y-95619819D02*
X131064523Y-95667438D01*
X131064523Y-95667438D02*
X131016904Y-95715057D01*
X131016904Y-95715057D02*
X130969285Y-95810295D01*
X130969285Y-95810295D02*
X130969285Y-95857914D01*
X130969285Y-95857914D02*
X131016904Y-95953152D01*
X131016904Y-95953152D02*
X131064523Y-96000771D01*
X131064523Y-96000771D02*
X131159761Y-96048390D01*
X131159761Y-96048390D02*
X131350237Y-96048390D01*
X131350237Y-96048390D02*
X131445475Y-96096009D01*
X131445475Y-96096009D02*
X131493094Y-96143628D01*
X131493094Y-96143628D02*
X131540713Y-96238866D01*
X131540713Y-96238866D02*
X131540713Y-96429342D01*
X131540713Y-96429342D02*
X131493094Y-96524580D01*
X131493094Y-96524580D02*
X131445475Y-96572200D01*
X131445475Y-96572200D02*
X131350237Y-96619819D01*
X131350237Y-96619819D02*
X131159761Y-96619819D01*
X131159761Y-96619819D02*
X131064523Y-96572200D01*
X131064523Y-96572200D02*
X131016904Y-96524580D01*
X131016904Y-96524580D02*
X130969285Y-96429342D01*
X130969285Y-96429342D02*
X130969285Y-96238866D01*
X130969285Y-96238866D02*
X131016904Y-96143628D01*
X131016904Y-96143628D02*
X131064523Y-96096009D01*
X131064523Y-96096009D02*
X131159761Y-96048390D01*
X150493094Y-96619819D02*
X150493094Y-95619819D01*
X150493094Y-95619819D02*
X150254999Y-95619819D01*
X150254999Y-95619819D02*
X150112142Y-95667438D01*
X150112142Y-95667438D02*
X150016904Y-95762676D01*
X150016904Y-95762676D02*
X149969285Y-95857914D01*
X149969285Y-95857914D02*
X149921666Y-96048390D01*
X149921666Y-96048390D02*
X149921666Y-96191247D01*
X149921666Y-96191247D02*
X149969285Y-96381723D01*
X149969285Y-96381723D02*
X150016904Y-96476961D01*
X150016904Y-96476961D02*
X150112142Y-96572200D01*
X150112142Y-96572200D02*
X150254999Y-96619819D01*
X150254999Y-96619819D02*
X150493094Y-96619819D01*
X149016904Y-95619819D02*
X149493094Y-95619819D01*
X149493094Y-95619819D02*
X149540713Y-96096009D01*
X149540713Y-96096009D02*
X149493094Y-96048390D01*
X149493094Y-96048390D02*
X149397856Y-96000771D01*
X149397856Y-96000771D02*
X149159761Y-96000771D01*
X149159761Y-96000771D02*
X149064523Y-96048390D01*
X149064523Y-96048390D02*
X149016904Y-96096009D01*
X149016904Y-96096009D02*
X148969285Y-96191247D01*
X148969285Y-96191247D02*
X148969285Y-96429342D01*
X148969285Y-96429342D02*
X149016904Y-96524580D01*
X149016904Y-96524580D02*
X149064523Y-96572200D01*
X149064523Y-96572200D02*
X149159761Y-96619819D01*
X149159761Y-96619819D02*
X149397856Y-96619819D01*
X149397856Y-96619819D02*
X149493094Y-96572200D01*
X149493094Y-96572200D02*
X149540713Y-96524580D01*
X180493094Y-96619819D02*
X180493094Y-95619819D01*
X180493094Y-95619819D02*
X180254999Y-95619819D01*
X180254999Y-95619819D02*
X180112142Y-95667438D01*
X180112142Y-95667438D02*
X180016904Y-95762676D01*
X180016904Y-95762676D02*
X179969285Y-95857914D01*
X179969285Y-95857914D02*
X179921666Y-96048390D01*
X179921666Y-96048390D02*
X179921666Y-96191247D01*
X179921666Y-96191247D02*
X179969285Y-96381723D01*
X179969285Y-96381723D02*
X180016904Y-96476961D01*
X180016904Y-96476961D02*
X180112142Y-96572200D01*
X180112142Y-96572200D02*
X180254999Y-96619819D01*
X180254999Y-96619819D02*
X180493094Y-96619819D01*
X179302618Y-95619819D02*
X179207380Y-95619819D01*
X179207380Y-95619819D02*
X179112142Y-95667438D01*
X179112142Y-95667438D02*
X179064523Y-95715057D01*
X179064523Y-95715057D02*
X179016904Y-95810295D01*
X179016904Y-95810295D02*
X178969285Y-96000771D01*
X178969285Y-96000771D02*
X178969285Y-96238866D01*
X178969285Y-96238866D02*
X179016904Y-96429342D01*
X179016904Y-96429342D02*
X179064523Y-96524580D01*
X179064523Y-96524580D02*
X179112142Y-96572200D01*
X179112142Y-96572200D02*
X179207380Y-96619819D01*
X179207380Y-96619819D02*
X179302618Y-96619819D01*
X179302618Y-96619819D02*
X179397856Y-96572200D01*
X179397856Y-96572200D02*
X179445475Y-96524580D01*
X179445475Y-96524580D02*
X179493094Y-96429342D01*
X179493094Y-96429342D02*
X179540713Y-96238866D01*
X179540713Y-96238866D02*
X179540713Y-96000771D01*
X179540713Y-96000771D02*
X179493094Y-95810295D01*
X179493094Y-95810295D02*
X179445475Y-95715057D01*
X179445475Y-95715057D02*
X179397856Y-95667438D01*
X179397856Y-95667438D02*
X179302618Y-95619819D01*
X108969285Y-96619819D02*
X108969285Y-95619819D01*
X108969285Y-95619819D02*
X108731190Y-95619819D01*
X108731190Y-95619819D02*
X108588333Y-95667438D01*
X108588333Y-95667438D02*
X108493095Y-95762676D01*
X108493095Y-95762676D02*
X108445476Y-95857914D01*
X108445476Y-95857914D02*
X108397857Y-96048390D01*
X108397857Y-96048390D02*
X108397857Y-96191247D01*
X108397857Y-96191247D02*
X108445476Y-96381723D01*
X108445476Y-96381723D02*
X108493095Y-96476961D01*
X108493095Y-96476961D02*
X108588333Y-96572200D01*
X108588333Y-96572200D02*
X108731190Y-96619819D01*
X108731190Y-96619819D02*
X108969285Y-96619819D01*
X107445476Y-96619819D02*
X108016904Y-96619819D01*
X107731190Y-96619819D02*
X107731190Y-95619819D01*
X107731190Y-95619819D02*
X107826428Y-95762676D01*
X107826428Y-95762676D02*
X107921666Y-95857914D01*
X107921666Y-95857914D02*
X108016904Y-95905533D01*
X107064523Y-95715057D02*
X107016904Y-95667438D01*
X107016904Y-95667438D02*
X106921666Y-95619819D01*
X106921666Y-95619819D02*
X106683571Y-95619819D01*
X106683571Y-95619819D02*
X106588333Y-95667438D01*
X106588333Y-95667438D02*
X106540714Y-95715057D01*
X106540714Y-95715057D02*
X106493095Y-95810295D01*
X106493095Y-95810295D02*
X106493095Y-95905533D01*
X106493095Y-95905533D02*
X106540714Y-96048390D01*
X106540714Y-96048390D02*
X107112142Y-96619819D01*
X107112142Y-96619819D02*
X106493095Y-96619819D01*
X144493094Y-96619819D02*
X144493094Y-95619819D01*
X144493094Y-95619819D02*
X144254999Y-95619819D01*
X144254999Y-95619819D02*
X144112142Y-95667438D01*
X144112142Y-95667438D02*
X144016904Y-95762676D01*
X144016904Y-95762676D02*
X143969285Y-95857914D01*
X143969285Y-95857914D02*
X143921666Y-96048390D01*
X143921666Y-96048390D02*
X143921666Y-96191247D01*
X143921666Y-96191247D02*
X143969285Y-96381723D01*
X143969285Y-96381723D02*
X144016904Y-96476961D01*
X144016904Y-96476961D02*
X144112142Y-96572200D01*
X144112142Y-96572200D02*
X144254999Y-96619819D01*
X144254999Y-96619819D02*
X144493094Y-96619819D01*
X143064523Y-95619819D02*
X143254999Y-95619819D01*
X143254999Y-95619819D02*
X143350237Y-95667438D01*
X143350237Y-95667438D02*
X143397856Y-95715057D01*
X143397856Y-95715057D02*
X143493094Y-95857914D01*
X143493094Y-95857914D02*
X143540713Y-96048390D01*
X143540713Y-96048390D02*
X143540713Y-96429342D01*
X143540713Y-96429342D02*
X143493094Y-96524580D01*
X143493094Y-96524580D02*
X143445475Y-96572200D01*
X143445475Y-96572200D02*
X143350237Y-96619819D01*
X143350237Y-96619819D02*
X143159761Y-96619819D01*
X143159761Y-96619819D02*
X143064523Y-96572200D01*
X143064523Y-96572200D02*
X143016904Y-96524580D01*
X143016904Y-96524580D02*
X142969285Y-96429342D01*
X142969285Y-96429342D02*
X142969285Y-96191247D01*
X142969285Y-96191247D02*
X143016904Y-96096009D01*
X143016904Y-96096009D02*
X143064523Y-96048390D01*
X143064523Y-96048390D02*
X143159761Y-96000771D01*
X143159761Y-96000771D02*
X143350237Y-96000771D01*
X143350237Y-96000771D02*
X143445475Y-96048390D01*
X143445475Y-96048390D02*
X143493094Y-96096009D01*
X143493094Y-96096009D02*
X143540713Y-96191247D01*
X114969285Y-96619819D02*
X114969285Y-95619819D01*
X114969285Y-95619819D02*
X114731190Y-95619819D01*
X114731190Y-95619819D02*
X114588333Y-95667438D01*
X114588333Y-95667438D02*
X114493095Y-95762676D01*
X114493095Y-95762676D02*
X114445476Y-95857914D01*
X114445476Y-95857914D02*
X114397857Y-96048390D01*
X114397857Y-96048390D02*
X114397857Y-96191247D01*
X114397857Y-96191247D02*
X114445476Y-96381723D01*
X114445476Y-96381723D02*
X114493095Y-96476961D01*
X114493095Y-96476961D02*
X114588333Y-96572200D01*
X114588333Y-96572200D02*
X114731190Y-96619819D01*
X114731190Y-96619819D02*
X114969285Y-96619819D01*
X113445476Y-96619819D02*
X114016904Y-96619819D01*
X113731190Y-96619819D02*
X113731190Y-95619819D01*
X113731190Y-95619819D02*
X113826428Y-95762676D01*
X113826428Y-95762676D02*
X113921666Y-95857914D01*
X113921666Y-95857914D02*
X114016904Y-95905533D01*
X112493095Y-96619819D02*
X113064523Y-96619819D01*
X112778809Y-96619819D02*
X112778809Y-95619819D01*
X112778809Y-95619819D02*
X112874047Y-95762676D01*
X112874047Y-95762676D02*
X112969285Y-95857914D01*
X112969285Y-95857914D02*
X113064523Y-95905533D01*
X102969285Y-96819819D02*
X102969285Y-95819819D01*
X102969285Y-95819819D02*
X102731190Y-95819819D01*
X102731190Y-95819819D02*
X102588333Y-95867438D01*
X102588333Y-95867438D02*
X102493095Y-95962676D01*
X102493095Y-95962676D02*
X102445476Y-96057914D01*
X102445476Y-96057914D02*
X102397857Y-96248390D01*
X102397857Y-96248390D02*
X102397857Y-96391247D01*
X102397857Y-96391247D02*
X102445476Y-96581723D01*
X102445476Y-96581723D02*
X102493095Y-96676961D01*
X102493095Y-96676961D02*
X102588333Y-96772200D01*
X102588333Y-96772200D02*
X102731190Y-96819819D01*
X102731190Y-96819819D02*
X102969285Y-96819819D01*
X101445476Y-96819819D02*
X102016904Y-96819819D01*
X101731190Y-96819819D02*
X101731190Y-95819819D01*
X101731190Y-95819819D02*
X101826428Y-95962676D01*
X101826428Y-95962676D02*
X101921666Y-96057914D01*
X101921666Y-96057914D02*
X102016904Y-96105533D01*
X101112142Y-95819819D02*
X100493095Y-95819819D01*
X100493095Y-95819819D02*
X100826428Y-96200771D01*
X100826428Y-96200771D02*
X100683571Y-96200771D01*
X100683571Y-96200771D02*
X100588333Y-96248390D01*
X100588333Y-96248390D02*
X100540714Y-96296009D01*
X100540714Y-96296009D02*
X100493095Y-96391247D01*
X100493095Y-96391247D02*
X100493095Y-96629342D01*
X100493095Y-96629342D02*
X100540714Y-96724580D01*
X100540714Y-96724580D02*
X100588333Y-96772200D01*
X100588333Y-96772200D02*
X100683571Y-96819819D01*
X100683571Y-96819819D02*
X100969285Y-96819819D01*
X100969285Y-96819819D02*
X101064523Y-96772200D01*
X101064523Y-96772200D02*
X101112142Y-96724580D01*
X156493094Y-96619819D02*
X156493094Y-95619819D01*
X156493094Y-95619819D02*
X156254999Y-95619819D01*
X156254999Y-95619819D02*
X156112142Y-95667438D01*
X156112142Y-95667438D02*
X156016904Y-95762676D01*
X156016904Y-95762676D02*
X155969285Y-95857914D01*
X155969285Y-95857914D02*
X155921666Y-96048390D01*
X155921666Y-96048390D02*
X155921666Y-96191247D01*
X155921666Y-96191247D02*
X155969285Y-96381723D01*
X155969285Y-96381723D02*
X156016904Y-96476961D01*
X156016904Y-96476961D02*
X156112142Y-96572200D01*
X156112142Y-96572200D02*
X156254999Y-96619819D01*
X156254999Y-96619819D02*
X156493094Y-96619819D01*
X155064523Y-95953152D02*
X155064523Y-96619819D01*
X155302618Y-95572200D02*
X155540713Y-96286485D01*
X155540713Y-96286485D02*
X154921666Y-96286485D01*
X126493094Y-96619819D02*
X126493094Y-95619819D01*
X126493094Y-95619819D02*
X126254999Y-95619819D01*
X126254999Y-95619819D02*
X126112142Y-95667438D01*
X126112142Y-95667438D02*
X126016904Y-95762676D01*
X126016904Y-95762676D02*
X125969285Y-95857914D01*
X125969285Y-95857914D02*
X125921666Y-96048390D01*
X125921666Y-96048390D02*
X125921666Y-96191247D01*
X125921666Y-96191247D02*
X125969285Y-96381723D01*
X125969285Y-96381723D02*
X126016904Y-96476961D01*
X126016904Y-96476961D02*
X126112142Y-96572200D01*
X126112142Y-96572200D02*
X126254999Y-96619819D01*
X126254999Y-96619819D02*
X126493094Y-96619819D01*
X125445475Y-96619819D02*
X125254999Y-96619819D01*
X125254999Y-96619819D02*
X125159761Y-96572200D01*
X125159761Y-96572200D02*
X125112142Y-96524580D01*
X125112142Y-96524580D02*
X125016904Y-96381723D01*
X125016904Y-96381723D02*
X124969285Y-96191247D01*
X124969285Y-96191247D02*
X124969285Y-95810295D01*
X124969285Y-95810295D02*
X125016904Y-95715057D01*
X125016904Y-95715057D02*
X125064523Y-95667438D01*
X125064523Y-95667438D02*
X125159761Y-95619819D01*
X125159761Y-95619819D02*
X125350237Y-95619819D01*
X125350237Y-95619819D02*
X125445475Y-95667438D01*
X125445475Y-95667438D02*
X125493094Y-95715057D01*
X125493094Y-95715057D02*
X125540713Y-95810295D01*
X125540713Y-95810295D02*
X125540713Y-96048390D01*
X125540713Y-96048390D02*
X125493094Y-96143628D01*
X125493094Y-96143628D02*
X125445475Y-96191247D01*
X125445475Y-96191247D02*
X125350237Y-96238866D01*
X125350237Y-96238866D02*
X125159761Y-96238866D01*
X125159761Y-96238866D02*
X125064523Y-96191247D01*
X125064523Y-96191247D02*
X125016904Y-96143628D01*
X125016904Y-96143628D02*
X124969285Y-96048390D01*
X97019285Y-96669819D02*
X97019285Y-95669819D01*
X97019285Y-95669819D02*
X96781190Y-95669819D01*
X96781190Y-95669819D02*
X96638333Y-95717438D01*
X96638333Y-95717438D02*
X96543095Y-95812676D01*
X96543095Y-95812676D02*
X96495476Y-95907914D01*
X96495476Y-95907914D02*
X96447857Y-96098390D01*
X96447857Y-96098390D02*
X96447857Y-96241247D01*
X96447857Y-96241247D02*
X96495476Y-96431723D01*
X96495476Y-96431723D02*
X96543095Y-96526961D01*
X96543095Y-96526961D02*
X96638333Y-96622200D01*
X96638333Y-96622200D02*
X96781190Y-96669819D01*
X96781190Y-96669819D02*
X97019285Y-96669819D01*
X95495476Y-96669819D02*
X96066904Y-96669819D01*
X95781190Y-96669819D02*
X95781190Y-95669819D01*
X95781190Y-95669819D02*
X95876428Y-95812676D01*
X95876428Y-95812676D02*
X95971666Y-95907914D01*
X95971666Y-95907914D02*
X96066904Y-95955533D01*
X94638333Y-96003152D02*
X94638333Y-96669819D01*
X94876428Y-95622200D02*
X95114523Y-96336485D01*
X95114523Y-96336485D02*
X94495476Y-96336485D01*
X120969285Y-96619819D02*
X120969285Y-95619819D01*
X120969285Y-95619819D02*
X120731190Y-95619819D01*
X120731190Y-95619819D02*
X120588333Y-95667438D01*
X120588333Y-95667438D02*
X120493095Y-95762676D01*
X120493095Y-95762676D02*
X120445476Y-95857914D01*
X120445476Y-95857914D02*
X120397857Y-96048390D01*
X120397857Y-96048390D02*
X120397857Y-96191247D01*
X120397857Y-96191247D02*
X120445476Y-96381723D01*
X120445476Y-96381723D02*
X120493095Y-96476961D01*
X120493095Y-96476961D02*
X120588333Y-96572200D01*
X120588333Y-96572200D02*
X120731190Y-96619819D01*
X120731190Y-96619819D02*
X120969285Y-96619819D01*
X119445476Y-96619819D02*
X120016904Y-96619819D01*
X119731190Y-96619819D02*
X119731190Y-95619819D01*
X119731190Y-95619819D02*
X119826428Y-95762676D01*
X119826428Y-95762676D02*
X119921666Y-95857914D01*
X119921666Y-95857914D02*
X120016904Y-95905533D01*
X118826428Y-95619819D02*
X118731190Y-95619819D01*
X118731190Y-95619819D02*
X118635952Y-95667438D01*
X118635952Y-95667438D02*
X118588333Y-95715057D01*
X118588333Y-95715057D02*
X118540714Y-95810295D01*
X118540714Y-95810295D02*
X118493095Y-96000771D01*
X118493095Y-96000771D02*
X118493095Y-96238866D01*
X118493095Y-96238866D02*
X118540714Y-96429342D01*
X118540714Y-96429342D02*
X118588333Y-96524580D01*
X118588333Y-96524580D02*
X118635952Y-96572200D01*
X118635952Y-96572200D02*
X118731190Y-96619819D01*
X118731190Y-96619819D02*
X118826428Y-96619819D01*
X118826428Y-96619819D02*
X118921666Y-96572200D01*
X118921666Y-96572200D02*
X118969285Y-96524580D01*
X118969285Y-96524580D02*
X119016904Y-96429342D01*
X119016904Y-96429342D02*
X119064523Y-96238866D01*
X119064523Y-96238866D02*
X119064523Y-96000771D01*
X119064523Y-96000771D02*
X119016904Y-95810295D01*
X119016904Y-95810295D02*
X118969285Y-95715057D01*
X118969285Y-95715057D02*
X118921666Y-95667438D01*
X118921666Y-95667438D02*
X118826428Y-95619819D01*
D12*
%TO.C,D1*%
X176315000Y-89330000D02*
X176315000Y-92420000D01*
X170765001Y-90874538D02*
G75*
G03*
X176314999Y-92419830I2989999J-462D01*
G01*
X176315000Y-89330170D02*
G75*
G03*
X170765000Y-90875462I-2560000J-1544830D01*
G01*
X176255000Y-90875000D02*
G75*
G03*
X176255000Y-90875000I-2500000J0D01*
G01*
%TO.C,D2*%
X170315000Y-89330000D02*
X170315000Y-92420000D01*
X164765001Y-90874538D02*
G75*
G03*
X170314999Y-92419830I2989999J-462D01*
G01*
X170315000Y-89330170D02*
G75*
G03*
X164765000Y-90875462I-2560000J-1544830D01*
G01*
X170255000Y-90875000D02*
G75*
G03*
X170255000Y-90875000I-2500000J0D01*
G01*
%TO.C,D7*%
X140315000Y-89330000D02*
X140315000Y-92420000D01*
X134765001Y-90874538D02*
G75*
G03*
X140314999Y-92419830I2989999J-462D01*
G01*
X140315000Y-89330170D02*
G75*
G03*
X134765000Y-90875462I-2560000J-1544830D01*
G01*
X140255000Y-90875000D02*
G75*
G03*
X140255000Y-90875000I-2500000J0D01*
G01*
%TO.C,D3*%
X164315000Y-89330000D02*
X164315000Y-92420000D01*
X158765001Y-90874538D02*
G75*
G03*
X164314999Y-92419830I2989999J-462D01*
G01*
X164315000Y-89330170D02*
G75*
G03*
X158765000Y-90875462I-2560000J-1544830D01*
G01*
X164255000Y-90875000D02*
G75*
G03*
X164255000Y-90875000I-2500000J0D01*
G01*
%TO.C,D8*%
X134315000Y-89330000D02*
X134315000Y-92420000D01*
X128765001Y-90874538D02*
G75*
G03*
X134314999Y-92419830I2989999J-462D01*
G01*
X134315000Y-89330170D02*
G75*
G03*
X128765000Y-90875462I-2560000J-1544830D01*
G01*
X134255000Y-90875000D02*
G75*
G03*
X134255000Y-90875000I-2500000J0D01*
G01*
%TO.C,D5*%
X152315000Y-89330000D02*
X152315000Y-92420000D01*
X146765001Y-90874538D02*
G75*
G03*
X152314999Y-92419830I2989999J-462D01*
G01*
X152315000Y-89330170D02*
G75*
G03*
X146765000Y-90875462I-2560000J-1544830D01*
G01*
X152255000Y-90875000D02*
G75*
G03*
X152255000Y-90875000I-2500000J0D01*
G01*
%TO.C,D0*%
X182315000Y-89330000D02*
X182315000Y-92420000D01*
X176765001Y-90874538D02*
G75*
G03*
X182314999Y-92419830I2989999J-462D01*
G01*
X182315000Y-89330170D02*
G75*
G03*
X176765000Y-90875462I-2560000J-1544830D01*
G01*
X182255000Y-90875000D02*
G75*
G03*
X182255000Y-90875000I-2500000J0D01*
G01*
%TO.C,D12*%
X110315000Y-89330000D02*
X110315000Y-92420000D01*
X104765001Y-90874538D02*
G75*
G03*
X110314999Y-92419830I2989999J-462D01*
G01*
X110315000Y-89330170D02*
G75*
G03*
X104765000Y-90875462I-2560000J-1544830D01*
G01*
X110255000Y-90875000D02*
G75*
G03*
X110255000Y-90875000I-2500000J0D01*
G01*
%TO.C,D6*%
X146315000Y-89330000D02*
X146315000Y-92420000D01*
X140765001Y-90874538D02*
G75*
G03*
X146314999Y-92419830I2989999J-462D01*
G01*
X146315000Y-89330170D02*
G75*
G03*
X140765000Y-90875462I-2560000J-1544830D01*
G01*
X146255000Y-90875000D02*
G75*
G03*
X146255000Y-90875000I-2500000J0D01*
G01*
%TO.C,D11*%
X116315000Y-89330000D02*
X116315000Y-92420000D01*
X110765001Y-90874538D02*
G75*
G03*
X116314999Y-92419830I2989999J-462D01*
G01*
X116315000Y-89330170D02*
G75*
G03*
X110765000Y-90875462I-2560000J-1544830D01*
G01*
X116255000Y-90875000D02*
G75*
G03*
X116255000Y-90875000I-2500000J0D01*
G01*
%TO.C,D13*%
X104315000Y-89330000D02*
X104315000Y-92420000D01*
X98765001Y-90874538D02*
G75*
G03*
X104314999Y-92419830I2989999J-462D01*
G01*
X104315000Y-89330170D02*
G75*
G03*
X98765000Y-90875462I-2560000J-1544830D01*
G01*
X104255000Y-90875000D02*
G75*
G03*
X104255000Y-90875000I-2500000J0D01*
G01*
%TO.C,D4*%
X158315000Y-89330000D02*
X158315000Y-92420000D01*
X152765001Y-90874538D02*
G75*
G03*
X158314999Y-92419830I2989999J-462D01*
G01*
X158315000Y-89330170D02*
G75*
G03*
X152765000Y-90875462I-2560000J-1544830D01*
G01*
X158255000Y-90875000D02*
G75*
G03*
X158255000Y-90875000I-2500000J0D01*
G01*
%TO.C,D9*%
X128315000Y-89330000D02*
X128315000Y-92420000D01*
X122765001Y-90874538D02*
G75*
G03*
X128314999Y-92419830I2989999J-462D01*
G01*
X128315000Y-89330170D02*
G75*
G03*
X122765000Y-90875462I-2560000J-1544830D01*
G01*
X128255000Y-90875000D02*
G75*
G03*
X128255000Y-90875000I-2500000J0D01*
G01*
%TO.C,D14*%
X98315000Y-89330000D02*
X98315000Y-92420000D01*
X92765001Y-90874538D02*
G75*
G03*
X98314999Y-92419830I2989999J-462D01*
G01*
X98315000Y-89330170D02*
G75*
G03*
X92765000Y-90875462I-2560000J-1544830D01*
G01*
X98255000Y-90875000D02*
G75*
G03*
X98255000Y-90875000I-2500000J0D01*
G01*
%TO.C,D10*%
X122315000Y-89330000D02*
X122315000Y-92420000D01*
X116765001Y-90874538D02*
G75*
G03*
X122314999Y-92419830I2989999J-462D01*
G01*
X122315000Y-89330170D02*
G75*
G03*
X116765000Y-90875462I-2560000J-1544830D01*
G01*
X122255000Y-90875000D02*
G75*
G03*
X122255000Y-90875000I-2500000J0D01*
G01*
%TD*%
M02*
