%TF.GenerationSoftware,KiCad,Pcbnew,7.0.8*%
%TF.CreationDate,2023-10-19T17:32:50+02:00*%
%TF.ProjectId,16_Channel_LED_Strip,31365f43-6861-46e6-9e65-6c5f4c45445f,rev?*%
%TF.SameCoordinates,Original*%
%TF.FileFunction,Copper,L2,Bot*%
%TF.FilePolarity,Positive*%
%FSLAX46Y46*%
G04 Gerber Fmt 4.6, Leading zero omitted, Abs format (unit mm)*
G04 Created by KiCad (PCBNEW 7.0.8) date 2023-10-19 17:32:50*
%MOMM*%
%LPD*%
G01*
G04 APERTURE LIST*
%TA.AperFunction,ComponentPad*%
%ADD10R,1.700000X1.700000*%
%TD*%
%TA.AperFunction,ComponentPad*%
%ADD11O,1.700000X1.700000*%
%TD*%
%TA.AperFunction,ComponentPad*%
%ADD12R,1.800000X1.800000*%
%TD*%
%TA.AperFunction,ComponentPad*%
%ADD13C,1.800000*%
%TD*%
%TA.AperFunction,ViaPad*%
%ADD14C,0.500000*%
%TD*%
%TA.AperFunction,ViaPad*%
%ADD15C,0.800000*%
%TD*%
%TA.AperFunction,Conductor*%
%ADD16C,0.250000*%
%TD*%
%TA.AperFunction,Conductor*%
%ADD17C,0.500000*%
%TD*%
G04 APERTURE END LIST*
D10*
%TO.P,J1,1,Pin_1*%
%TO.N,Earth*%
X101983376Y-115002502D03*
D11*
%TO.P,J1,2,Pin_2*%
%TO.N,+3V3*%
X104523376Y-115002502D03*
%TO.P,J1,3,Pin_3*%
%TO.N,+BATT*%
X107063376Y-115002502D03*
%TO.P,J1,4,Pin_4*%
%TO.N,/SCL*%
X109603376Y-115002502D03*
%TO.P,J1,5,Pin_5*%
%TO.N,/SDA*%
X112143376Y-115002502D03*
%TO.P,J1,6,Pin_6*%
%TO.N,/RESET*%
X114683376Y-115002502D03*
%TD*%
D12*
%TO.P,D1,1,K*%
%TO.N,Net-(D1-K)*%
X175025000Y-90875000D03*
D13*
%TO.P,D1,2,A*%
%TO.N,Net-(D1-A)*%
X172485000Y-90875000D03*
%TD*%
D12*
%TO.P,D2,1,K*%
%TO.N,Net-(D2-K)*%
X169025000Y-90875000D03*
D13*
%TO.P,D2,2,A*%
%TO.N,Net-(D2-A)*%
X166485000Y-90875000D03*
%TD*%
D12*
%TO.P,D7,1,K*%
%TO.N,Net-(D7-K)*%
X139025000Y-90875000D03*
D13*
%TO.P,D7,2,A*%
%TO.N,Net-(D7-A)*%
X136485000Y-90875000D03*
%TD*%
D12*
%TO.P,D3,1,K*%
%TO.N,Net-(D3-K)*%
X163025000Y-90875000D03*
D13*
%TO.P,D3,2,A*%
%TO.N,Net-(D3-A)*%
X160485000Y-90875000D03*
%TD*%
D12*
%TO.P,D8,1,K*%
%TO.N,Net-(D8-K)*%
X133025000Y-90875000D03*
D13*
%TO.P,D8,2,A*%
%TO.N,Net-(D8-A)*%
X130485000Y-90875000D03*
%TD*%
D12*
%TO.P,D5,1,K*%
%TO.N,Net-(D5-K)*%
X151025000Y-90875000D03*
D13*
%TO.P,D5,2,A*%
%TO.N,Net-(D5-A)*%
X148485000Y-90875000D03*
%TD*%
D12*
%TO.P,D0,1,K*%
%TO.N,Net-(D0-K)*%
X181025000Y-90875000D03*
D13*
%TO.P,D0,2,A*%
%TO.N,Net-(D0-A)*%
X178485000Y-90875000D03*
%TD*%
D12*
%TO.P,D12,1,K*%
%TO.N,Net-(D12-K)*%
X109025000Y-90875000D03*
D13*
%TO.P,D12,2,A*%
%TO.N,Net-(D12-A)*%
X106485000Y-90875000D03*
%TD*%
D12*
%TO.P,D6,1,K*%
%TO.N,Net-(D6-K)*%
X145025000Y-90875000D03*
D13*
%TO.P,D6,2,A*%
%TO.N,Net-(D6-A)*%
X142485000Y-90875000D03*
%TD*%
D12*
%TO.P,D11,1,K*%
%TO.N,Net-(D11-K)*%
X115025000Y-90875000D03*
D13*
%TO.P,D11,2,A*%
%TO.N,Net-(D11-A)*%
X112485000Y-90875000D03*
%TD*%
D12*
%TO.P,D13,1,K*%
%TO.N,Net-(D13-K)*%
X103025000Y-90875000D03*
D13*
%TO.P,D13,2,A*%
%TO.N,Net-(D13-A)*%
X100485000Y-90875000D03*
%TD*%
D12*
%TO.P,D4,1,K*%
%TO.N,Net-(D4-K)*%
X157025000Y-90875000D03*
D13*
%TO.P,D4,2,A*%
%TO.N,Net-(D4-A)*%
X154485000Y-90875000D03*
%TD*%
D12*
%TO.P,D9,1,K*%
%TO.N,Net-(D9-K)*%
X127025000Y-90875000D03*
D13*
%TO.P,D9,2,A*%
%TO.N,Net-(D9-A)*%
X124485000Y-90875000D03*
%TD*%
D12*
%TO.P,D14,1,K*%
%TO.N,Net-(D14-K)*%
X97025000Y-90875000D03*
D13*
%TO.P,D14,2,A*%
%TO.N,Net-(D14-A)*%
X94485000Y-90875000D03*
%TD*%
D12*
%TO.P,D10,1,K*%
%TO.N,Net-(D10-K)*%
X121025000Y-90875000D03*
D13*
%TO.P,D10,2,A*%
%TO.N,Net-(D10-A)*%
X118485000Y-90875000D03*
%TD*%
D14*
%TO.N,+3V3*%
X122072400Y-112826800D03*
X124409200Y-112877600D03*
%TO.N,/RESET*%
X124510800Y-110896400D03*
%TO.N,Earth*%
X124256800Y-110236000D03*
%TO.N,Net-(D14-K)*%
X124053600Y-109423200D03*
%TO.N,Net-(D12-K)*%
X124002800Y-107289600D03*
%TO.N,Net-(D13-K)*%
X124053600Y-108305600D03*
%TO.N,Net-(D11-K)*%
X122707400Y-106349800D03*
%TO.N,Net-(D10-K)*%
X123494800Y-105714800D03*
%TO.N,Net-(D9-K)*%
X124307600Y-105054400D03*
%TO.N,Net-(D8-K)*%
X124460000Y-104343200D03*
%TO.N,Net-(D0-K)*%
X134670800Y-109716303D03*
%TO.N,Net-(D1-K)*%
X134670800Y-109016800D03*
%TO.N,Net-(D2-K)*%
X134678090Y-108291486D03*
%TO.N,Net-(D3-K)*%
X134620000Y-107594400D03*
%TO.N,Net-(D4-K)*%
X134620000Y-106324400D03*
%TO.N,Net-(D5-K)*%
X134315200Y-105613200D03*
%TO.N,Net-(D6-K)*%
X133959600Y-104546400D03*
%TO.N,Net-(D7-K)*%
X133400800Y-103784400D03*
D15*
%TO.N,Net-(D4-A)*%
X152908000Y-97028000D03*
%TO.N,Net-(D11-A)*%
X110861250Y-99390157D03*
%TO.N,Net-(D12-A)*%
X104902000Y-99568000D03*
%TD*%
D16*
%TO.N,+3V3*%
X122072400Y-112776000D02*
X122072400Y-112776000D01*
X122072400Y-112826800D02*
X122072400Y-112776000D01*
X122123200Y-112826800D02*
X122072400Y-112826800D01*
X122174000Y-112877600D02*
X122123200Y-112826800D01*
X124409200Y-112877600D02*
X122174000Y-112877600D01*
%TO.N,/RESET*%
X124510800Y-110786087D02*
X123086887Y-112210000D01*
X124510800Y-110896400D02*
X124510800Y-110786087D01*
X124400487Y-110896400D02*
X124510800Y-110896400D01*
%TO.N,Earth*%
X124247714Y-110236000D02*
X122723714Y-111760000D01*
X124256800Y-110236000D02*
X124247714Y-110236000D01*
X124256800Y-110226914D02*
X124256800Y-110236000D01*
%TO.N,Net-(D12-K)*%
X109025000Y-98579212D02*
X109025000Y-90875000D01*
X118090988Y-107645200D02*
X109025000Y-98579212D01*
X123647200Y-107645200D02*
X118090988Y-107645200D01*
X124002800Y-107289600D02*
X123647200Y-107645200D01*
%TO.N,Net-(D14-K)*%
X99263200Y-98044000D02*
X97025000Y-95805800D01*
X97025000Y-95805800D02*
X97025000Y-90875000D01*
X99263200Y-100177600D02*
X99263200Y-98044000D01*
X108009513Y-108923913D02*
X99263200Y-100177600D01*
X123554313Y-108923913D02*
X108009513Y-108923913D01*
X124053600Y-109423200D02*
X123554313Y-108923913D01*
%TO.N,Net-(D13-K)*%
X104177000Y-92027000D02*
X103025000Y-90875000D01*
X112589670Y-108280975D02*
X104177000Y-99868305D01*
X104177000Y-99868305D02*
X104177000Y-92027000D01*
X124028975Y-108280975D02*
X112589670Y-108280975D01*
X124053600Y-108305600D02*
X124028975Y-108280975D01*
%TO.N,Net-(D11-K)*%
X122783600Y-106426000D02*
X122707400Y-106349800D01*
X115025000Y-98667400D02*
X115025000Y-90875000D01*
X122707400Y-106349800D02*
X115025000Y-98667400D01*
%TO.N,Net-(D9-K)*%
X124310164Y-105054400D02*
X123817773Y-104562009D01*
X124307600Y-105054400D02*
X124310164Y-105054400D01*
X124307600Y-105051836D02*
X124307600Y-105054400D01*
%TO.N,Net-(D10-K)*%
X121025000Y-103245000D02*
X121025000Y-90875000D01*
X123494800Y-105714800D02*
X121025000Y-103245000D01*
%TO.N,Net-(D11-K)*%
X122783600Y-106426000D02*
X122783600Y-106426000D01*
%TO.N,Net-(D8-K)*%
X124460000Y-104256609D02*
X133025000Y-95691609D01*
X124460000Y-104343200D02*
X124460000Y-104256609D01*
X124373409Y-104343200D02*
X124460000Y-104343200D01*
%TO.N,Net-(D0-K)*%
X175438000Y-96462000D02*
X181025000Y-90875000D01*
X167799600Y-96462000D02*
X175438000Y-96462000D01*
X154545297Y-109716303D02*
X167799600Y-96462000D01*
X134670800Y-109716303D02*
X154545297Y-109716303D01*
%TO.N,Net-(D1-K)*%
X134670800Y-109016800D02*
X154228800Y-109016800D01*
X154228800Y-109016800D02*
X167233600Y-96012000D01*
X167233600Y-96012000D02*
X169888000Y-96012000D01*
X169888000Y-96012000D02*
X175025000Y-90875000D01*
%TO.N,Net-(D3-K)*%
X146407200Y-107492800D02*
X163025000Y-90875000D01*
X146405600Y-107492800D02*
X146407200Y-107492800D01*
X134620000Y-107594400D02*
X146304000Y-107594400D01*
X146304000Y-107594400D02*
X146405600Y-107492800D01*
%TO.N,Net-(D2-K)*%
X151608514Y-108291486D02*
X169025000Y-90875000D01*
X134678090Y-108291486D02*
X151608514Y-108291486D01*
%TO.N,Net-(D4-K)*%
X144636649Y-106324400D02*
X144636777Y-106324528D01*
X134620000Y-106324400D02*
X144636649Y-106324400D01*
%TO.N,Net-(D5-K)*%
X136286800Y-105613200D02*
X151025000Y-90875000D01*
X134315200Y-105613200D02*
X136286800Y-105613200D01*
%TO.N,Net-(D6-K)*%
X134060826Y-104546400D02*
X145025000Y-93582226D01*
X133959600Y-104546400D02*
X134060826Y-104546400D01*
%TO.N,Net-(D7-K)*%
X138416147Y-98769053D02*
X139025000Y-98769053D01*
X133400800Y-103784400D02*
X138416147Y-98769053D01*
X139025000Y-98769053D02*
X139025000Y-90875000D01*
%TO.N,+3V3*%
X124409200Y-112826800D02*
X124409200Y-112877600D01*
%TO.N,/RESET*%
X114816698Y-115002502D02*
X114683376Y-115002502D01*
X123086887Y-112210000D02*
X117609200Y-112210000D01*
X117609200Y-112210000D02*
X114816698Y-115002502D01*
X124409200Y-110887687D02*
X124400487Y-110896400D01*
%TO.N,Net-(D9-K)*%
X123817773Y-94082227D02*
X127025000Y-90875000D01*
X124278909Y-105023145D02*
X124307600Y-105051836D01*
X123817773Y-104562009D02*
X123817773Y-94082227D01*
%TO.N,Net-(D8-K)*%
X124392773Y-104323836D02*
X124373409Y-104343200D01*
X133025000Y-95691609D02*
X133025000Y-90875000D01*
%TO.N,Earth*%
X122723714Y-111760000D02*
X105225878Y-111760000D01*
X124261379Y-110222335D02*
X124256800Y-110226914D01*
X105225878Y-111760000D02*
X101983376Y-115002502D01*
%TO.N,Net-(D4-K)*%
X157025000Y-93936305D02*
X157025000Y-90875000D01*
X144636777Y-106324528D02*
X157025000Y-93936305D01*
%TO.N,Net-(D6-K)*%
X145025000Y-93582226D02*
X145025000Y-90875000D01*
D17*
%TO.N,Net-(D4-A)*%
X152908000Y-92452000D02*
X154485000Y-90875000D01*
X152908000Y-97028000D02*
X152908000Y-92452000D01*
%TO.N,Net-(D11-A)*%
X110861250Y-92498750D02*
X112485000Y-90875000D01*
X110861250Y-99390157D02*
X110861250Y-92498750D01*
%TO.N,Net-(D12-A)*%
X104902000Y-92458000D02*
X106485000Y-90875000D01*
X104902000Y-99568000D02*
X104902000Y-92458000D01*
%TD*%
%TA.AperFunction,Conductor*%
%TO.N,Earth*%
G36*
X175039745Y-87095460D02*
G01*
X175710104Y-87111741D01*
X176070409Y-87135115D01*
X176576643Y-87172076D01*
X176965399Y-87214215D01*
X177440311Y-87272187D01*
X177837306Y-87332658D01*
X178299991Y-87412108D01*
X178696742Y-87490202D01*
X179155059Y-87592039D01*
X179545291Y-87686518D01*
X180006824Y-87812876D01*
X180382280Y-87921137D01*
X180382520Y-87921206D01*
X180865031Y-88078869D01*
X181207283Y-88193777D01*
X181831037Y-88431703D01*
X182005338Y-88498729D01*
X182005354Y-88498735D01*
X182010312Y-88500894D01*
X182032034Y-88511502D01*
X182061032Y-88525665D01*
X182251803Y-88620836D01*
X182258398Y-88624649D01*
X182349480Y-88685065D01*
X182351498Y-88686476D01*
X182483182Y-88778572D01*
X182488380Y-88782637D01*
X182579073Y-88861705D01*
X182606816Y-88887971D01*
X182690428Y-88967134D01*
X182694311Y-88971158D01*
X182775468Y-89063242D01*
X182777746Y-89065981D01*
X182869591Y-89183117D01*
X182872283Y-89186824D01*
X182941233Y-89289564D01*
X182943644Y-89293460D01*
X183017253Y-89422865D01*
X183018925Y-89426011D01*
X183073376Y-89535990D01*
X183075628Y-89541106D01*
X183131004Y-89684125D01*
X183169801Y-89797994D01*
X183171598Y-89804364D01*
X183207473Y-89963559D01*
X183228850Y-90070651D01*
X183229882Y-90078218D01*
X183246065Y-90296844D01*
X183249366Y-90347042D01*
X183249500Y-90351111D01*
X183249500Y-95461258D01*
X183249380Y-95465113D01*
X183245472Y-95527841D01*
X183232057Y-95719459D01*
X183231132Y-95726632D01*
X183210744Y-95834670D01*
X183179968Y-95979179D01*
X183178356Y-95985231D01*
X183142133Y-96097989D01*
X183094027Y-96229906D01*
X183092000Y-96234803D01*
X183041398Y-96343651D01*
X183039894Y-96346669D01*
X182975578Y-96467382D01*
X182973406Y-96471135D01*
X182909306Y-96573498D01*
X182906877Y-96577090D01*
X182826367Y-96687652D01*
X182824308Y-96690323D01*
X182748481Y-96783369D01*
X182744961Y-96787330D01*
X182647292Y-96888206D01*
X182561655Y-96970037D01*
X182556914Y-96974130D01*
X182440348Y-97064913D01*
X182352042Y-97130436D01*
X182345997Y-97134398D01*
X182181197Y-97229156D01*
X182124459Y-97261196D01*
X182121051Y-97262983D01*
X178783426Y-98882944D01*
X155128480Y-110364183D01*
X155059574Y-110375747D01*
X154995355Y-110348222D01*
X154956212Y-110290346D01*
X154954572Y-110220496D01*
X154978789Y-110173593D01*
X155006604Y-110139969D01*
X155010499Y-110135689D01*
X166877953Y-98268237D01*
X166939275Y-98234753D01*
X167008967Y-98239737D01*
X167064900Y-98281609D01*
X167089317Y-98347073D01*
X167074465Y-98415346D01*
X167063492Y-98432074D01*
X167061841Y-98434195D01*
X167008901Y-98515224D01*
X167005925Y-98519392D01*
X166992099Y-98537158D01*
X166992094Y-98537165D01*
X166981386Y-98556952D01*
X166978763Y-98561353D01*
X166925828Y-98642378D01*
X166886953Y-98731003D01*
X166884704Y-98735603D01*
X166873985Y-98755412D01*
X166866676Y-98776702D01*
X166864814Y-98781475D01*
X166846077Y-98824192D01*
X166825939Y-98870104D01*
X166825936Y-98870110D01*
X166802177Y-98963930D01*
X166800716Y-98968838D01*
X166793408Y-98990128D01*
X166789705Y-99012315D01*
X166788654Y-99017330D01*
X166764891Y-99111166D01*
X166764891Y-99111170D01*
X166756898Y-99207622D01*
X166756265Y-99212702D01*
X166752562Y-99234907D01*
X166752562Y-99257407D01*
X166752350Y-99262523D01*
X166751713Y-99270216D01*
X166744357Y-99358982D01*
X166744357Y-99358992D01*
X166746077Y-99379744D01*
X166752029Y-99451577D01*
X166752350Y-99455444D01*
X166752562Y-99460567D01*
X166752562Y-99483069D01*
X166756265Y-99505270D01*
X166756899Y-99510353D01*
X166764891Y-99606804D01*
X166764891Y-99606806D01*
X166788654Y-99700645D01*
X166789705Y-99705660D01*
X166793407Y-99727842D01*
X166793409Y-99727850D01*
X166800714Y-99749129D01*
X166802176Y-99754041D01*
X166825935Y-99847862D01*
X166825939Y-99847875D01*
X166864815Y-99936503D01*
X166866677Y-99941274D01*
X166873986Y-99962564D01*
X166873988Y-99962567D01*
X166884698Y-99982359D01*
X166886948Y-99986963D01*
X166925827Y-100075596D01*
X166978764Y-100156622D01*
X166981388Y-100161026D01*
X166992095Y-100180811D01*
X166992098Y-100180816D01*
X167005926Y-100198583D01*
X167008903Y-100202753D01*
X167061834Y-100283770D01*
X167061838Y-100283775D01*
X167127393Y-100354988D01*
X167130706Y-100358899D01*
X167144522Y-100376650D01*
X167161080Y-100391893D01*
X167164694Y-100395507D01*
X167230256Y-100466726D01*
X167306651Y-100526187D01*
X167310547Y-100529487D01*
X167316913Y-100535348D01*
X167327099Y-100544725D01*
X167345936Y-100557032D01*
X167350102Y-100560006D01*
X167426491Y-100619462D01*
X167511640Y-100665542D01*
X167516001Y-100668141D01*
X167534855Y-100680459D01*
X167555494Y-100689512D01*
X167560033Y-100691731D01*
X167645190Y-100737816D01*
X167736754Y-100769250D01*
X167741489Y-100771097D01*
X167762116Y-100780145D01*
X167783932Y-100785669D01*
X167788816Y-100787123D01*
X167860089Y-100811591D01*
X167880385Y-100818559D01*
X167912855Y-100823977D01*
X167975866Y-100834491D01*
X167980879Y-100835543D01*
X168002676Y-100841063D01*
X168002678Y-100841063D01*
X168002685Y-100841065D01*
X168025125Y-100842924D01*
X168030169Y-100843552D01*
X168125665Y-100859488D01*
X168125666Y-100859488D01*
X168222448Y-100859488D01*
X168227561Y-100859699D01*
X168243415Y-100861013D01*
X168249998Y-100861559D01*
X168250000Y-100861559D01*
X168250002Y-100861559D01*
X168256584Y-100861013D01*
X168272438Y-100859699D01*
X168277552Y-100859488D01*
X168374330Y-100859488D01*
X168374335Y-100859488D01*
X168469851Y-100843549D01*
X168474862Y-100842925D01*
X168497315Y-100841065D01*
X168519153Y-100835534D01*
X168524105Y-100834496D01*
X168619614Y-100818559D01*
X168711198Y-100787117D01*
X168716042Y-100785676D01*
X168737884Y-100780145D01*
X168758500Y-100771101D01*
X168763234Y-100769253D01*
X168854810Y-100737816D01*
X168939975Y-100691726D01*
X168944505Y-100689512D01*
X168965145Y-100680459D01*
X168984008Y-100668134D01*
X168988337Y-100665554D01*
X169073509Y-100619462D01*
X169149931Y-100559980D01*
X169154018Y-100557061D01*
X169172898Y-100544727D01*
X169189466Y-100529475D01*
X169193341Y-100526192D01*
X169269744Y-100466726D01*
X169335313Y-100395498D01*
X169338897Y-100391913D01*
X169355477Y-100376651D01*
X169369320Y-100358864D01*
X169372581Y-100355014D01*
X169438164Y-100283773D01*
X169491127Y-100202706D01*
X169494053Y-100198608D01*
X169507902Y-100180816D01*
X169518623Y-100161004D01*
X169521233Y-100156624D01*
X169574173Y-100075595D01*
X169613061Y-99986938D01*
X169615299Y-99982363D01*
X169615301Y-99982359D01*
X169626014Y-99962564D01*
X169633336Y-99941234D01*
X169635162Y-99936552D01*
X169674063Y-99847869D01*
X169697826Y-99754029D01*
X169699278Y-99749150D01*
X169706592Y-99727847D01*
X169710296Y-99705646D01*
X169711340Y-99700665D01*
X169735108Y-99606809D01*
X169743104Y-99510309D01*
X169743733Y-99505270D01*
X169747438Y-99483069D01*
X169748088Y-99451577D01*
X169748283Y-99447800D01*
X169755643Y-99358988D01*
X169748284Y-99270178D01*
X169748088Y-99266395D01*
X169747438Y-99234907D01*
X169743733Y-99212702D01*
X169743103Y-99207654D01*
X169735108Y-99111167D01*
X169711341Y-99017315D01*
X169710295Y-99012322D01*
X169706592Y-98990131D01*
X169706591Y-98990128D01*
X169699283Y-98968838D01*
X169697825Y-98963940D01*
X169686138Y-98917790D01*
X169674063Y-98870107D01*
X169671522Y-98864315D01*
X169645205Y-98804318D01*
X169635174Y-98781449D01*
X169633329Y-98776722D01*
X169626014Y-98755412D01*
X169620045Y-98744384D01*
X169615298Y-98735610D01*
X169613052Y-98731017D01*
X169574173Y-98642381D01*
X169574173Y-98642380D01*
X169521231Y-98561346D01*
X169518607Y-98556942D01*
X169507904Y-98537165D01*
X169507902Y-98537160D01*
X169494080Y-98519401D01*
X169491102Y-98515230D01*
X169438166Y-98434206D01*
X169438165Y-98434205D01*
X169438164Y-98434203D01*
X169408241Y-98401698D01*
X169372606Y-98362987D01*
X169369295Y-98359078D01*
X169355477Y-98341325D01*
X169355473Y-98341320D01*
X169338919Y-98326081D01*
X169335301Y-98322464D01*
X169269744Y-98251250D01*
X169193352Y-98191792D01*
X169189444Y-98188481D01*
X169172898Y-98173249D01*
X169154063Y-98160943D01*
X169149897Y-98157969D01*
X169073509Y-98098514D01*
X169073508Y-98098513D01*
X169073505Y-98098511D01*
X169073503Y-98098510D01*
X168988385Y-98052447D01*
X168983981Y-98049823D01*
X168965145Y-98037517D01*
X168957549Y-98034185D01*
X168944544Y-98028480D01*
X168939940Y-98026230D01*
X168854811Y-97980160D01*
X168854802Y-97980157D01*
X168763259Y-97948730D01*
X168758484Y-97946867D01*
X168755076Y-97945372D01*
X168737884Y-97937831D01*
X168737880Y-97937830D01*
X168737878Y-97937829D01*
X168716076Y-97932307D01*
X168711166Y-97930846D01*
X168619614Y-97899417D01*
X168524138Y-97883484D01*
X168519123Y-97882432D01*
X168497312Y-97876910D01*
X168497316Y-97876910D01*
X168474895Y-97875053D01*
X168469810Y-97874419D01*
X168374336Y-97858488D01*
X168374335Y-97858488D01*
X168277541Y-97858488D01*
X168272427Y-97858276D01*
X168256555Y-97856961D01*
X168250002Y-97856418D01*
X168249998Y-97856418D01*
X168243444Y-97856961D01*
X168227572Y-97858276D01*
X168222459Y-97858488D01*
X168125665Y-97858488D01*
X168030188Y-97874419D01*
X168025103Y-97875053D01*
X168002688Y-97876910D01*
X168002683Y-97876911D01*
X167980880Y-97882432D01*
X167975866Y-97883483D01*
X167880382Y-97899417D01*
X167788834Y-97930844D01*
X167783927Y-97932305D01*
X167762126Y-97937827D01*
X167762116Y-97937831D01*
X167741510Y-97946869D01*
X167736738Y-97948730D01*
X167645194Y-97980158D01*
X167645183Y-97980163D01*
X167560062Y-98026228D01*
X167555458Y-98028479D01*
X167534854Y-98037517D01*
X167534845Y-98037522D01*
X167516023Y-98049819D01*
X167511621Y-98052443D01*
X167426492Y-98098512D01*
X167426489Y-98098515D01*
X167350106Y-98157965D01*
X167345938Y-98160942D01*
X167327099Y-98173251D01*
X167310542Y-98188491D01*
X167306634Y-98191800D01*
X167293701Y-98201867D01*
X167228707Y-98227510D01*
X167160167Y-98213944D01*
X167109842Y-98165476D01*
X167093710Y-98097494D01*
X167116892Y-98031582D01*
X167129852Y-98016338D01*
X168022372Y-97123819D01*
X168083695Y-97090334D01*
X168110053Y-97087500D01*
X175355257Y-97087500D01*
X175370877Y-97089224D01*
X175370904Y-97088939D01*
X175378660Y-97089671D01*
X175378667Y-97089673D01*
X175447814Y-97087500D01*
X175477350Y-97087500D01*
X175484228Y-97086630D01*
X175490041Y-97086172D01*
X175536627Y-97084709D01*
X175555869Y-97079117D01*
X175574912Y-97075174D01*
X175594792Y-97072664D01*
X175638122Y-97055507D01*
X175643646Y-97053617D01*
X175647396Y-97052527D01*
X175688390Y-97040618D01*
X175705629Y-97030422D01*
X175723103Y-97021862D01*
X175741727Y-97014488D01*
X175741727Y-97014487D01*
X175741732Y-97014486D01*
X175779449Y-96987082D01*
X175784305Y-96983892D01*
X175824420Y-96960170D01*
X175838589Y-96945999D01*
X175853379Y-96933368D01*
X175869587Y-96921594D01*
X175899299Y-96885676D01*
X175903212Y-96881376D01*
X180472772Y-92311818D01*
X180534095Y-92278333D01*
X180560453Y-92275499D01*
X181972871Y-92275499D01*
X181972872Y-92275499D01*
X182032483Y-92269091D01*
X182167331Y-92218796D01*
X182282546Y-92132546D01*
X182368796Y-92017331D01*
X182419091Y-91882483D01*
X182425500Y-91822873D01*
X182425499Y-89927128D01*
X182419091Y-89867517D01*
X182409233Y-89841087D01*
X182368797Y-89732671D01*
X182368793Y-89732664D01*
X182282547Y-89617455D01*
X182282544Y-89617452D01*
X182167335Y-89531206D01*
X182167328Y-89531202D01*
X182032482Y-89480908D01*
X182032483Y-89480908D01*
X181972883Y-89474501D01*
X181972881Y-89474500D01*
X181972873Y-89474500D01*
X181972864Y-89474500D01*
X180077129Y-89474500D01*
X180077123Y-89474501D01*
X180017516Y-89480908D01*
X179882671Y-89531202D01*
X179882664Y-89531206D01*
X179767455Y-89617452D01*
X179767452Y-89617455D01*
X179681206Y-89732664D01*
X179681203Y-89732670D01*
X179652544Y-89809508D01*
X179610672Y-89865441D01*
X179545208Y-89889858D01*
X179476935Y-89875006D01*
X179445135Y-89850158D01*
X179436784Y-89841087D01*
X179436778Y-89841082D01*
X179436777Y-89841081D01*
X179253634Y-89698535D01*
X179253628Y-89698531D01*
X179049504Y-89588064D01*
X179049495Y-89588061D01*
X178829984Y-89512702D01*
X178639450Y-89480908D01*
X178601049Y-89474500D01*
X178368951Y-89474500D01*
X178330550Y-89480908D01*
X178140015Y-89512702D01*
X177920504Y-89588061D01*
X177920495Y-89588064D01*
X177716371Y-89698531D01*
X177716365Y-89698535D01*
X177533222Y-89841081D01*
X177533219Y-89841084D01*
X177533216Y-89841086D01*
X177533216Y-89841087D01*
X177488319Y-89889858D01*
X177376016Y-90011852D01*
X177249075Y-90206151D01*
X177155842Y-90418699D01*
X177098866Y-90643691D01*
X177098864Y-90643702D01*
X177079700Y-90874993D01*
X177079700Y-90875006D01*
X177098864Y-91106297D01*
X177098866Y-91106308D01*
X177155842Y-91331300D01*
X177249075Y-91543848D01*
X177376016Y-91738147D01*
X177376019Y-91738151D01*
X177376021Y-91738153D01*
X177533216Y-91908913D01*
X177533219Y-91908915D01*
X177533222Y-91908918D01*
X177716365Y-92051464D01*
X177716371Y-92051468D01*
X177716374Y-92051470D01*
X177920497Y-92161936D01*
X178034487Y-92201068D01*
X178140015Y-92237297D01*
X178140017Y-92237297D01*
X178140019Y-92237298D01*
X178368951Y-92275500D01*
X178368952Y-92275500D01*
X178440546Y-92275500D01*
X178507585Y-92295185D01*
X178553340Y-92347989D01*
X178563284Y-92417147D01*
X178534259Y-92480703D01*
X178528227Y-92487181D01*
X175215228Y-95800181D01*
X175153905Y-95833666D01*
X175127547Y-95836500D01*
X171247452Y-95836500D01*
X171180413Y-95816815D01*
X171134658Y-95764011D01*
X171124714Y-95694853D01*
X171153739Y-95631297D01*
X171159771Y-95624819D01*
X174472772Y-92311818D01*
X174534095Y-92278333D01*
X174560453Y-92275499D01*
X175972871Y-92275499D01*
X175972872Y-92275499D01*
X176032483Y-92269091D01*
X176167331Y-92218796D01*
X176282546Y-92132546D01*
X176368796Y-92017331D01*
X176419091Y-91882483D01*
X176425500Y-91822873D01*
X176425499Y-89927128D01*
X176419091Y-89867517D01*
X176409233Y-89841087D01*
X176368797Y-89732671D01*
X176368793Y-89732664D01*
X176282547Y-89617455D01*
X176282544Y-89617452D01*
X176167335Y-89531206D01*
X176167328Y-89531202D01*
X176032482Y-89480908D01*
X176032483Y-89480908D01*
X175972883Y-89474501D01*
X175972881Y-89474500D01*
X175972873Y-89474500D01*
X175972864Y-89474500D01*
X174077129Y-89474500D01*
X174077123Y-89474501D01*
X174017516Y-89480908D01*
X173882671Y-89531202D01*
X173882664Y-89531206D01*
X173767455Y-89617452D01*
X173767452Y-89617455D01*
X173681206Y-89732664D01*
X173681203Y-89732670D01*
X173652544Y-89809508D01*
X173610672Y-89865441D01*
X173545208Y-89889858D01*
X173476935Y-89875006D01*
X173445135Y-89850158D01*
X173436784Y-89841087D01*
X173436778Y-89841082D01*
X173436777Y-89841081D01*
X173253634Y-89698535D01*
X173253628Y-89698531D01*
X173049504Y-89588064D01*
X173049495Y-89588061D01*
X172829984Y-89512702D01*
X172639450Y-89480908D01*
X172601049Y-89474500D01*
X172368951Y-89474500D01*
X172330550Y-89480908D01*
X172140015Y-89512702D01*
X171920504Y-89588061D01*
X171920495Y-89588064D01*
X171716371Y-89698531D01*
X171716365Y-89698535D01*
X171533222Y-89841081D01*
X171533219Y-89841084D01*
X171533216Y-89841086D01*
X171533216Y-89841087D01*
X171488319Y-89889858D01*
X171376016Y-90011852D01*
X171249075Y-90206151D01*
X171155842Y-90418699D01*
X171098866Y-90643691D01*
X171098864Y-90643702D01*
X171079700Y-90874993D01*
X171079700Y-90875006D01*
X171098864Y-91106297D01*
X171098866Y-91106308D01*
X171155842Y-91331300D01*
X171249075Y-91543848D01*
X171376016Y-91738147D01*
X171376019Y-91738151D01*
X171376021Y-91738153D01*
X171533216Y-91908913D01*
X171533219Y-91908915D01*
X171533222Y-91908918D01*
X171716365Y-92051464D01*
X171716371Y-92051468D01*
X171716374Y-92051470D01*
X171920497Y-92161936D01*
X172034487Y-92201068D01*
X172140015Y-92237297D01*
X172140017Y-92237297D01*
X172140019Y-92237298D01*
X172368951Y-92275500D01*
X172368952Y-92275500D01*
X172440547Y-92275500D01*
X172507586Y-92295185D01*
X172553341Y-92347989D01*
X172563285Y-92417147D01*
X172534260Y-92480703D01*
X172528228Y-92487181D01*
X169665228Y-95350181D01*
X169603905Y-95383666D01*
X169577547Y-95386500D01*
X167316343Y-95386500D01*
X167300722Y-95384775D01*
X167300695Y-95385061D01*
X167292933Y-95384326D01*
X167223772Y-95386500D01*
X167194249Y-95386500D01*
X167187378Y-95387367D01*
X167181559Y-95387825D01*
X167134974Y-95389289D01*
X167134968Y-95389290D01*
X167115726Y-95394880D01*
X167096687Y-95398823D01*
X167076817Y-95401334D01*
X167076803Y-95401337D01*
X167033483Y-95418488D01*
X167027958Y-95420380D01*
X166983213Y-95433380D01*
X166983210Y-95433381D01*
X166965966Y-95443579D01*
X166948505Y-95452133D01*
X166929874Y-95459510D01*
X166929862Y-95459517D01*
X166892170Y-95486902D01*
X166887287Y-95490109D01*
X166847180Y-95513829D01*
X166833014Y-95527995D01*
X166818224Y-95540627D01*
X166802014Y-95552404D01*
X166802011Y-95552407D01*
X166772310Y-95588309D01*
X166768377Y-95592631D01*
X154006028Y-108354981D01*
X153944705Y-108388466D01*
X153918347Y-108391300D01*
X152692652Y-108391300D01*
X152625613Y-108371615D01*
X152579858Y-108318811D01*
X152569914Y-108249653D01*
X152598939Y-108186097D01*
X152604971Y-108179619D01*
X168472771Y-92311818D01*
X168534094Y-92278333D01*
X168560452Y-92275499D01*
X169972871Y-92275499D01*
X169972872Y-92275499D01*
X170032483Y-92269091D01*
X170167331Y-92218796D01*
X170282546Y-92132546D01*
X170368796Y-92017331D01*
X170419091Y-91882483D01*
X170425500Y-91822873D01*
X170425499Y-89927128D01*
X170419091Y-89867517D01*
X170409233Y-89841087D01*
X170368797Y-89732671D01*
X170368793Y-89732664D01*
X170282547Y-89617455D01*
X170282544Y-89617452D01*
X170167335Y-89531206D01*
X170167328Y-89531202D01*
X170032482Y-89480908D01*
X170032483Y-89480908D01*
X169972883Y-89474501D01*
X169972881Y-89474500D01*
X169972873Y-89474500D01*
X169972864Y-89474500D01*
X168077129Y-89474500D01*
X168077123Y-89474501D01*
X168017516Y-89480908D01*
X167882671Y-89531202D01*
X167882664Y-89531206D01*
X167767455Y-89617452D01*
X167767452Y-89617455D01*
X167681206Y-89732664D01*
X167681203Y-89732670D01*
X167652544Y-89809508D01*
X167610672Y-89865441D01*
X167545208Y-89889858D01*
X167476935Y-89875006D01*
X167445135Y-89850158D01*
X167436784Y-89841087D01*
X167436778Y-89841082D01*
X167436777Y-89841081D01*
X167253634Y-89698535D01*
X167253628Y-89698531D01*
X167049504Y-89588064D01*
X167049495Y-89588061D01*
X166829984Y-89512702D01*
X166639450Y-89480908D01*
X166601049Y-89474500D01*
X166368951Y-89474500D01*
X166330550Y-89480908D01*
X166140015Y-89512702D01*
X165920504Y-89588061D01*
X165920495Y-89588064D01*
X165716371Y-89698531D01*
X165716365Y-89698535D01*
X165533222Y-89841081D01*
X165533219Y-89841084D01*
X165533216Y-89841086D01*
X165533216Y-89841087D01*
X165488319Y-89889858D01*
X165376016Y-90011852D01*
X165249075Y-90206151D01*
X165155842Y-90418699D01*
X165098866Y-90643691D01*
X165098864Y-90643702D01*
X165079700Y-90874993D01*
X165079700Y-90875006D01*
X165098864Y-91106297D01*
X165098866Y-91106308D01*
X165155842Y-91331300D01*
X165249075Y-91543848D01*
X165376016Y-91738147D01*
X165376019Y-91738151D01*
X165376021Y-91738153D01*
X165533216Y-91908913D01*
X165533219Y-91908915D01*
X165533222Y-91908918D01*
X165716365Y-92051464D01*
X165716371Y-92051468D01*
X165716374Y-92051470D01*
X165920497Y-92161936D01*
X166034487Y-92201068D01*
X166140015Y-92237297D01*
X166140017Y-92237297D01*
X166140019Y-92237298D01*
X166368951Y-92275500D01*
X166368952Y-92275500D01*
X166440547Y-92275500D01*
X166507586Y-92295185D01*
X166553341Y-92347989D01*
X166563285Y-92417147D01*
X166534260Y-92480703D01*
X166528228Y-92487181D01*
X151385742Y-107629667D01*
X151324419Y-107663152D01*
X151298061Y-107665986D01*
X147417966Y-107665986D01*
X147350927Y-107646301D01*
X147305172Y-107593497D01*
X147295228Y-107524339D01*
X147324253Y-107460783D01*
X147330285Y-107454305D01*
X162472772Y-92311818D01*
X162534095Y-92278333D01*
X162560453Y-92275499D01*
X163972871Y-92275499D01*
X163972872Y-92275499D01*
X164032483Y-92269091D01*
X164167331Y-92218796D01*
X164282546Y-92132546D01*
X164368796Y-92017331D01*
X164419091Y-91882483D01*
X164425500Y-91822873D01*
X164425499Y-89927128D01*
X164419091Y-89867517D01*
X164409233Y-89841087D01*
X164368797Y-89732671D01*
X164368793Y-89732664D01*
X164282547Y-89617455D01*
X164282544Y-89617452D01*
X164167335Y-89531206D01*
X164167328Y-89531202D01*
X164032482Y-89480908D01*
X164032483Y-89480908D01*
X163972883Y-89474501D01*
X163972881Y-89474500D01*
X163972873Y-89474500D01*
X163972864Y-89474500D01*
X162077129Y-89474500D01*
X162077123Y-89474501D01*
X162017516Y-89480908D01*
X161882671Y-89531202D01*
X161882664Y-89531206D01*
X161767455Y-89617452D01*
X161767452Y-89617455D01*
X161681206Y-89732664D01*
X161681203Y-89732670D01*
X161652544Y-89809508D01*
X161610672Y-89865441D01*
X161545208Y-89889858D01*
X161476935Y-89875006D01*
X161445135Y-89850158D01*
X161436784Y-89841087D01*
X161436778Y-89841082D01*
X161436777Y-89841081D01*
X161253634Y-89698535D01*
X161253628Y-89698531D01*
X161049504Y-89588064D01*
X161049495Y-89588061D01*
X160829984Y-89512702D01*
X160639450Y-89480908D01*
X160601049Y-89474500D01*
X160368951Y-89474500D01*
X160330550Y-89480908D01*
X160140015Y-89512702D01*
X159920504Y-89588061D01*
X159920495Y-89588064D01*
X159716371Y-89698531D01*
X159716365Y-89698535D01*
X159533222Y-89841081D01*
X159533219Y-89841084D01*
X159533216Y-89841086D01*
X159533216Y-89841087D01*
X159488319Y-89889858D01*
X159376016Y-90011852D01*
X159249075Y-90206151D01*
X159155842Y-90418699D01*
X159098866Y-90643691D01*
X159098864Y-90643702D01*
X159079700Y-90874993D01*
X159079700Y-90875006D01*
X159098864Y-91106297D01*
X159098866Y-91106308D01*
X159155842Y-91331300D01*
X159249075Y-91543848D01*
X159376016Y-91738147D01*
X159376019Y-91738151D01*
X159376021Y-91738153D01*
X159533216Y-91908913D01*
X159533219Y-91908915D01*
X159533222Y-91908918D01*
X159716365Y-92051464D01*
X159716371Y-92051468D01*
X159716374Y-92051470D01*
X159920497Y-92161936D01*
X160034487Y-92201068D01*
X160140015Y-92237297D01*
X160140017Y-92237297D01*
X160140019Y-92237298D01*
X160368951Y-92275500D01*
X160368952Y-92275500D01*
X160440546Y-92275500D01*
X160507585Y-92295185D01*
X160553340Y-92347989D01*
X160563284Y-92417147D01*
X160534259Y-92480703D01*
X160528227Y-92487181D01*
X146082828Y-106932581D01*
X146021505Y-106966066D01*
X145995147Y-106968900D01*
X145178781Y-106968900D01*
X145111742Y-106949215D01*
X145065987Y-106896411D01*
X145056043Y-106827253D01*
X145083234Y-106765864D01*
X145084717Y-106764070D01*
X145096723Y-106749557D01*
X145100624Y-106745269D01*
X157408788Y-94437106D01*
X157421042Y-94427291D01*
X157420859Y-94427069D01*
X157426866Y-94422097D01*
X157426877Y-94422091D01*
X157457775Y-94389187D01*
X157474227Y-94371669D01*
X157484671Y-94361223D01*
X157495120Y-94350776D01*
X157499379Y-94345283D01*
X157503152Y-94340866D01*
X157535062Y-94306887D01*
X157544715Y-94289325D01*
X157555389Y-94273075D01*
X157567673Y-94257241D01*
X157586180Y-94214472D01*
X157588749Y-94209229D01*
X157611196Y-94168398D01*
X157611197Y-94168397D01*
X157616177Y-94148996D01*
X157622478Y-94130593D01*
X157630438Y-94112201D01*
X157637730Y-94066154D01*
X157638911Y-94060457D01*
X157650500Y-94015324D01*
X157650500Y-93995288D01*
X157652027Y-93975887D01*
X157655160Y-93956109D01*
X157650775Y-93909720D01*
X157650500Y-93903882D01*
X157650500Y-92399499D01*
X157670185Y-92332460D01*
X157722989Y-92286705D01*
X157774500Y-92275499D01*
X157972871Y-92275499D01*
X157972872Y-92275499D01*
X158032483Y-92269091D01*
X158167331Y-92218796D01*
X158282546Y-92132546D01*
X158368796Y-92017331D01*
X158419091Y-91882483D01*
X158425500Y-91822873D01*
X158425499Y-89927128D01*
X158419091Y-89867517D01*
X158409233Y-89841087D01*
X158368797Y-89732671D01*
X158368793Y-89732664D01*
X158282547Y-89617455D01*
X158282544Y-89617452D01*
X158167335Y-89531206D01*
X158167328Y-89531202D01*
X158032482Y-89480908D01*
X158032483Y-89480908D01*
X157972883Y-89474501D01*
X157972881Y-89474500D01*
X157972873Y-89474500D01*
X157972864Y-89474500D01*
X156077129Y-89474500D01*
X156077123Y-89474501D01*
X156017516Y-89480908D01*
X155882671Y-89531202D01*
X155882664Y-89531206D01*
X155767455Y-89617452D01*
X155767452Y-89617455D01*
X155681206Y-89732664D01*
X155681203Y-89732670D01*
X155652544Y-89809508D01*
X155610672Y-89865441D01*
X155545208Y-89889858D01*
X155476935Y-89875006D01*
X155445135Y-89850158D01*
X155436784Y-89841087D01*
X155436778Y-89841082D01*
X155436777Y-89841081D01*
X155253634Y-89698535D01*
X155253628Y-89698531D01*
X155049504Y-89588064D01*
X155049495Y-89588061D01*
X154829984Y-89512702D01*
X154639450Y-89480908D01*
X154601049Y-89474500D01*
X154368951Y-89474500D01*
X154330550Y-89480908D01*
X154140015Y-89512702D01*
X153920504Y-89588061D01*
X153920495Y-89588064D01*
X153716371Y-89698531D01*
X153716365Y-89698535D01*
X153533222Y-89841081D01*
X153533219Y-89841084D01*
X153533216Y-89841086D01*
X153533216Y-89841087D01*
X153488319Y-89889858D01*
X153376016Y-90011852D01*
X153249075Y-90206151D01*
X153155842Y-90418699D01*
X153098866Y-90643691D01*
X153098864Y-90643702D01*
X153079700Y-90874993D01*
X153079700Y-90875006D01*
X153098865Y-91106303D01*
X153100455Y-91112581D01*
X153097829Y-91182401D01*
X153067930Y-91230701D01*
X152637180Y-91661450D01*
X152575857Y-91694935D01*
X152506165Y-91689951D01*
X152450232Y-91648079D01*
X152425815Y-91582615D01*
X152425499Y-91573793D01*
X152425499Y-89927128D01*
X152419091Y-89867517D01*
X152409233Y-89841087D01*
X152368797Y-89732671D01*
X152368793Y-89732664D01*
X152282547Y-89617455D01*
X152282544Y-89617452D01*
X152167335Y-89531206D01*
X152167328Y-89531202D01*
X152032482Y-89480908D01*
X152032483Y-89480908D01*
X151972883Y-89474501D01*
X151972881Y-89474500D01*
X151972873Y-89474500D01*
X151972864Y-89474500D01*
X150077129Y-89474500D01*
X150077123Y-89474501D01*
X150017516Y-89480908D01*
X149882671Y-89531202D01*
X149882664Y-89531206D01*
X149767455Y-89617452D01*
X149767452Y-89617455D01*
X149681206Y-89732664D01*
X149681203Y-89732670D01*
X149652544Y-89809508D01*
X149610672Y-89865441D01*
X149545208Y-89889858D01*
X149476935Y-89875006D01*
X149445135Y-89850158D01*
X149436784Y-89841087D01*
X149436778Y-89841082D01*
X149436777Y-89841081D01*
X149253634Y-89698535D01*
X149253628Y-89698531D01*
X149049504Y-89588064D01*
X149049495Y-89588061D01*
X148829984Y-89512702D01*
X148639450Y-89480908D01*
X148601049Y-89474500D01*
X148368951Y-89474500D01*
X148330550Y-89480908D01*
X148140015Y-89512702D01*
X147920504Y-89588061D01*
X147920495Y-89588064D01*
X147716371Y-89698531D01*
X147716365Y-89698535D01*
X147533222Y-89841081D01*
X147533219Y-89841084D01*
X147533216Y-89841086D01*
X147533216Y-89841087D01*
X147488319Y-89889858D01*
X147376016Y-90011852D01*
X147249075Y-90206151D01*
X147155842Y-90418699D01*
X147098866Y-90643691D01*
X147098864Y-90643702D01*
X147079700Y-90874993D01*
X147079700Y-90875006D01*
X147098864Y-91106297D01*
X147098866Y-91106308D01*
X147155842Y-91331300D01*
X147249075Y-91543848D01*
X147376016Y-91738147D01*
X147376019Y-91738151D01*
X147376021Y-91738153D01*
X147533216Y-91908913D01*
X147533219Y-91908915D01*
X147533222Y-91908918D01*
X147716365Y-92051464D01*
X147716371Y-92051468D01*
X147716374Y-92051470D01*
X147920497Y-92161936D01*
X148034487Y-92201068D01*
X148140015Y-92237297D01*
X148140017Y-92237297D01*
X148140019Y-92237298D01*
X148368951Y-92275500D01*
X148368952Y-92275500D01*
X148440546Y-92275500D01*
X148507585Y-92295185D01*
X148553340Y-92347989D01*
X148563284Y-92417147D01*
X148534259Y-92480703D01*
X148528227Y-92487181D01*
X136064028Y-104951381D01*
X136002705Y-104984866D01*
X135976347Y-104987700D01*
X134803477Y-104987700D01*
X134736438Y-104968015D01*
X134690683Y-104915211D01*
X134680739Y-104846053D01*
X134709764Y-104782497D01*
X134715796Y-104776019D01*
X140044057Y-99447758D01*
X145408786Y-94083028D01*
X145421048Y-94073206D01*
X145420865Y-94072985D01*
X145426867Y-94068018D01*
X145426877Y-94068012D01*
X145474241Y-94017574D01*
X145495120Y-93996696D01*
X145499373Y-93991212D01*
X145503150Y-93986789D01*
X145535062Y-93952808D01*
X145544714Y-93935249D01*
X145555389Y-93918998D01*
X145567674Y-93903162D01*
X145586186Y-93860378D01*
X145588742Y-93855161D01*
X145611197Y-93814318D01*
X145616180Y-93794906D01*
X145622477Y-93776517D01*
X145630438Y-93758121D01*
X145637729Y-93712079D01*
X145638908Y-93706388D01*
X145650500Y-93661245D01*
X145650500Y-93641209D01*
X145652027Y-93621808D01*
X145655160Y-93602030D01*
X145650775Y-93555641D01*
X145650500Y-93549803D01*
X145650500Y-92399499D01*
X145670185Y-92332460D01*
X145722989Y-92286705D01*
X145774500Y-92275499D01*
X145972871Y-92275499D01*
X145972872Y-92275499D01*
X146032483Y-92269091D01*
X146167331Y-92218796D01*
X146282546Y-92132546D01*
X146368796Y-92017331D01*
X146419091Y-91882483D01*
X146425500Y-91822873D01*
X146425499Y-89927128D01*
X146419091Y-89867517D01*
X146409233Y-89841087D01*
X146368797Y-89732671D01*
X146368793Y-89732664D01*
X146282547Y-89617455D01*
X146282544Y-89617452D01*
X146167335Y-89531206D01*
X146167328Y-89531202D01*
X146032482Y-89480908D01*
X146032483Y-89480908D01*
X145972883Y-89474501D01*
X145972881Y-89474500D01*
X145972873Y-89474500D01*
X145972864Y-89474500D01*
X144077129Y-89474500D01*
X144077123Y-89474501D01*
X144017516Y-89480908D01*
X143882671Y-89531202D01*
X143882664Y-89531206D01*
X143767455Y-89617452D01*
X143767452Y-89617455D01*
X143681206Y-89732664D01*
X143681203Y-89732670D01*
X143652544Y-89809508D01*
X143610672Y-89865441D01*
X143545208Y-89889858D01*
X143476935Y-89875006D01*
X143445135Y-89850158D01*
X143436784Y-89841087D01*
X143436778Y-89841082D01*
X143436777Y-89841081D01*
X143253634Y-89698535D01*
X143253628Y-89698531D01*
X143049504Y-89588064D01*
X143049495Y-89588061D01*
X142829984Y-89512702D01*
X142639450Y-89480908D01*
X142601049Y-89474500D01*
X142368951Y-89474500D01*
X142330550Y-89480908D01*
X142140015Y-89512702D01*
X141920504Y-89588061D01*
X141920495Y-89588064D01*
X141716371Y-89698531D01*
X141716365Y-89698535D01*
X141533222Y-89841081D01*
X141533219Y-89841084D01*
X141533216Y-89841086D01*
X141533216Y-89841087D01*
X141488319Y-89889858D01*
X141376016Y-90011852D01*
X141249075Y-90206151D01*
X141155842Y-90418699D01*
X141098866Y-90643691D01*
X141098864Y-90643702D01*
X141079700Y-90874993D01*
X141079700Y-90875006D01*
X141098864Y-91106297D01*
X141098866Y-91106308D01*
X141155842Y-91331300D01*
X141249075Y-91543848D01*
X141376016Y-91738147D01*
X141376019Y-91738151D01*
X141376021Y-91738153D01*
X141533216Y-91908913D01*
X141533219Y-91908915D01*
X141533222Y-91908918D01*
X141716365Y-92051464D01*
X141716371Y-92051468D01*
X141716374Y-92051470D01*
X141920497Y-92161936D01*
X142034487Y-92201068D01*
X142140015Y-92237297D01*
X142140017Y-92237297D01*
X142140019Y-92237298D01*
X142368951Y-92275500D01*
X142368952Y-92275500D01*
X142601048Y-92275500D01*
X142601049Y-92275500D01*
X142829981Y-92237298D01*
X143049503Y-92161936D01*
X143253626Y-92051470D01*
X143436784Y-91908913D01*
X143445130Y-91899846D01*
X143505010Y-91863854D01*
X143574849Y-91865949D01*
X143632468Y-91905469D01*
X143652544Y-91940491D01*
X143681203Y-92017330D01*
X143681206Y-92017335D01*
X143767452Y-92132544D01*
X143767455Y-92132547D01*
X143882664Y-92218793D01*
X143882671Y-92218797D01*
X143927618Y-92235561D01*
X144017517Y-92269091D01*
X144077127Y-92275500D01*
X144275500Y-92275499D01*
X144342539Y-92295183D01*
X144388294Y-92347987D01*
X144399500Y-92399499D01*
X144399500Y-93271773D01*
X144379815Y-93338812D01*
X144363181Y-93359454D01*
X139862181Y-97860454D01*
X139800858Y-97893939D01*
X139731166Y-97888955D01*
X139675233Y-97847083D01*
X139650816Y-97781619D01*
X139650500Y-97772773D01*
X139650500Y-92399499D01*
X139670185Y-92332460D01*
X139722989Y-92286705D01*
X139774500Y-92275499D01*
X139972871Y-92275499D01*
X139972872Y-92275499D01*
X140032483Y-92269091D01*
X140167331Y-92218796D01*
X140282546Y-92132546D01*
X140368796Y-92017331D01*
X140419091Y-91882483D01*
X140425500Y-91822873D01*
X140425499Y-89927128D01*
X140419091Y-89867517D01*
X140409233Y-89841087D01*
X140368797Y-89732671D01*
X140368793Y-89732664D01*
X140282547Y-89617455D01*
X140282544Y-89617452D01*
X140167335Y-89531206D01*
X140167328Y-89531202D01*
X140032482Y-89480908D01*
X140032483Y-89480908D01*
X139972883Y-89474501D01*
X139972881Y-89474500D01*
X139972873Y-89474500D01*
X139972864Y-89474500D01*
X138077129Y-89474500D01*
X138077123Y-89474501D01*
X138017516Y-89480908D01*
X137882671Y-89531202D01*
X137882664Y-89531206D01*
X137767455Y-89617452D01*
X137767452Y-89617455D01*
X137681206Y-89732664D01*
X137681203Y-89732670D01*
X137652544Y-89809508D01*
X137610672Y-89865441D01*
X137545208Y-89889858D01*
X137476935Y-89875006D01*
X137445135Y-89850158D01*
X137436784Y-89841087D01*
X137436778Y-89841082D01*
X137436777Y-89841081D01*
X137253634Y-89698535D01*
X137253628Y-89698531D01*
X137049504Y-89588064D01*
X137049495Y-89588061D01*
X136829984Y-89512702D01*
X136639450Y-89480908D01*
X136601049Y-89474500D01*
X136368951Y-89474500D01*
X136330550Y-89480908D01*
X136140015Y-89512702D01*
X135920504Y-89588061D01*
X135920495Y-89588064D01*
X135716371Y-89698531D01*
X135716365Y-89698535D01*
X135533222Y-89841081D01*
X135533219Y-89841084D01*
X135533216Y-89841086D01*
X135533216Y-89841087D01*
X135488319Y-89889858D01*
X135376016Y-90011852D01*
X135249075Y-90206151D01*
X135155842Y-90418699D01*
X135098866Y-90643691D01*
X135098864Y-90643702D01*
X135079700Y-90874993D01*
X135079700Y-90875006D01*
X135098864Y-91106297D01*
X135098866Y-91106308D01*
X135155842Y-91331300D01*
X135249075Y-91543848D01*
X135376016Y-91738147D01*
X135376019Y-91738151D01*
X135376021Y-91738153D01*
X135533216Y-91908913D01*
X135533219Y-91908915D01*
X135533222Y-91908918D01*
X135716365Y-92051464D01*
X135716371Y-92051468D01*
X135716374Y-92051470D01*
X135920497Y-92161936D01*
X136034487Y-92201068D01*
X136140015Y-92237297D01*
X136140017Y-92237297D01*
X136140019Y-92237298D01*
X136368951Y-92275500D01*
X136368952Y-92275500D01*
X136601048Y-92275500D01*
X136601049Y-92275500D01*
X136829981Y-92237298D01*
X137049503Y-92161936D01*
X137253626Y-92051470D01*
X137436784Y-91908913D01*
X137445130Y-91899846D01*
X137505010Y-91863854D01*
X137574849Y-91865949D01*
X137632468Y-91905469D01*
X137652544Y-91940491D01*
X137681203Y-92017330D01*
X137681206Y-92017335D01*
X137767452Y-92132544D01*
X137767455Y-92132547D01*
X137882664Y-92218793D01*
X137882671Y-92218797D01*
X137927618Y-92235561D01*
X138017517Y-92269091D01*
X138077127Y-92275500D01*
X138275500Y-92275499D01*
X138342539Y-92295183D01*
X138388294Y-92347987D01*
X138399500Y-92399499D01*
X138399500Y-98029423D01*
X138379815Y-98096462D01*
X138327011Y-98142217D01*
X138310090Y-98148501D01*
X138298275Y-98151933D01*
X138279234Y-98155876D01*
X138259364Y-98158387D01*
X138259350Y-98158390D01*
X138216030Y-98175541D01*
X138210505Y-98177433D01*
X138165760Y-98190433D01*
X138165757Y-98190434D01*
X138148513Y-98200632D01*
X138131052Y-98209186D01*
X138112421Y-98216563D01*
X138112409Y-98216570D01*
X138074717Y-98243955D01*
X138069834Y-98247162D01*
X138029727Y-98270882D01*
X138015561Y-98285048D01*
X138000771Y-98297680D01*
X137984561Y-98309457D01*
X137984558Y-98309460D01*
X137954857Y-98345362D01*
X137950924Y-98349684D01*
X133283180Y-103017427D01*
X133236453Y-103046788D01*
X133073108Y-103103944D01*
X133073102Y-103103947D01*
X132929915Y-103193918D01*
X132929909Y-103193923D01*
X132810323Y-103313509D01*
X132810318Y-103313515D01*
X132720347Y-103456702D01*
X132720345Y-103456705D01*
X132664485Y-103616343D01*
X132645551Y-103784397D01*
X132645551Y-103784402D01*
X132664485Y-103952456D01*
X132720345Y-104112094D01*
X132720347Y-104112097D01*
X132810318Y-104255284D01*
X132810323Y-104255290D01*
X132929909Y-104374876D01*
X132929915Y-104374881D01*
X133073102Y-104464852D01*
X133073107Y-104464855D01*
X133073110Y-104464856D01*
X133126630Y-104483583D01*
X133183406Y-104524304D01*
X133208896Y-104586741D01*
X133223285Y-104714456D01*
X133279145Y-104874094D01*
X133279147Y-104874097D01*
X133369118Y-105017284D01*
X133369123Y-105017290D01*
X133488712Y-105136879D01*
X133532321Y-105164279D01*
X133567328Y-105186276D01*
X133613619Y-105238609D01*
X133624268Y-105307663D01*
X133618398Y-105332223D01*
X133578886Y-105445142D01*
X133559951Y-105613197D01*
X133559951Y-105613202D01*
X133578885Y-105781256D01*
X133634745Y-105940894D01*
X133634747Y-105940897D01*
X133724718Y-106084084D01*
X133724723Y-106084090D01*
X133832680Y-106192047D01*
X133866165Y-106253370D01*
X133868220Y-106293609D01*
X133865107Y-106321245D01*
X133864751Y-106324402D01*
X133883685Y-106492456D01*
X133939545Y-106652094D01*
X133939547Y-106652097D01*
X134029518Y-106795284D01*
X134029523Y-106795290D01*
X134105952Y-106871719D01*
X134139437Y-106933042D01*
X134134453Y-107002734D01*
X134105952Y-107047081D01*
X134029523Y-107123509D01*
X134029518Y-107123515D01*
X133939547Y-107266702D01*
X133939545Y-107266705D01*
X133883685Y-107426343D01*
X133864751Y-107594397D01*
X133864751Y-107594402D01*
X133883686Y-107762457D01*
X133939543Y-107922089D01*
X133954458Y-107945826D01*
X133973458Y-108013063D01*
X133966506Y-108052751D01*
X133941776Y-108123427D01*
X133922841Y-108291483D01*
X133922841Y-108291488D01*
X133941775Y-108459542D01*
X133991894Y-108602771D01*
X133995455Y-108672550D01*
X133991894Y-108684681D01*
X133934485Y-108848743D01*
X133915551Y-109016797D01*
X133915551Y-109016802D01*
X133934485Y-109184856D01*
X133959080Y-109255143D01*
X133981698Y-109319782D01*
X133983733Y-109325596D01*
X133987294Y-109395375D01*
X133983733Y-109407505D01*
X133934486Y-109548245D01*
X133915551Y-109716300D01*
X133915551Y-109716305D01*
X133934485Y-109884359D01*
X133990345Y-110043997D01*
X133990347Y-110044000D01*
X134080318Y-110187187D01*
X134080323Y-110187193D01*
X134199909Y-110306779D01*
X134199915Y-110306784D01*
X134343102Y-110396755D01*
X134343105Y-110396757D01*
X134343109Y-110396758D01*
X134343110Y-110396759D01*
X134375664Y-110408150D01*
X134502743Y-110452617D01*
X134670797Y-110471552D01*
X134670800Y-110471552D01*
X134670803Y-110471552D01*
X134838856Y-110452617D01*
X134838859Y-110452616D01*
X134998490Y-110396759D01*
X135055704Y-110360808D01*
X135121676Y-110341803D01*
X154462554Y-110341803D01*
X154478174Y-110343527D01*
X154478201Y-110343242D01*
X154485957Y-110343974D01*
X154485964Y-110343976D01*
X154555111Y-110341803D01*
X154584647Y-110341803D01*
X154591527Y-110340933D01*
X154597334Y-110340475D01*
X154636646Y-110339240D01*
X154704268Y-110356810D01*
X154751659Y-110408150D01*
X154763770Y-110476962D01*
X154736755Y-110541398D01*
X154694682Y-110574733D01*
X139060978Y-118162758D01*
X139058431Y-118163924D01*
X139019110Y-118180859D01*
X138782307Y-118279692D01*
X138777711Y-118281400D01*
X138668033Y-118317299D01*
X138484370Y-118370592D01*
X138480981Y-118371472D01*
X138361524Y-118398931D01*
X138358090Y-118399619D01*
X138169583Y-118431870D01*
X138055246Y-118447465D01*
X138050366Y-118447935D01*
X137794326Y-118462413D01*
X137765472Y-118463718D01*
X137751342Y-118464357D01*
X137748554Y-118464420D01*
X101678447Y-118464420D01*
X101675204Y-118464335D01*
X101656602Y-118463360D01*
X101548093Y-118457674D01*
X101359380Y-118447052D01*
X101353161Y-118446387D01*
X101205132Y-118422942D01*
X101038195Y-118394579D01*
X101032531Y-118393341D01*
X100882420Y-118353121D01*
X100724604Y-118307657D01*
X100719547Y-118305961D01*
X100572237Y-118249414D01*
X100422293Y-118187307D01*
X100417870Y-118185268D01*
X100276082Y-118113025D01*
X100248987Y-118098050D01*
X100134806Y-118034946D01*
X100131045Y-118032690D01*
X99996853Y-117945546D01*
X99865501Y-117852347D01*
X99862360Y-117849965D01*
X99738764Y-117749881D01*
X99736484Y-117747942D01*
X99617534Y-117641644D01*
X99615011Y-117639259D01*
X99502477Y-117526726D01*
X99500088Y-117524199D01*
X99393789Y-117405252D01*
X99391854Y-117402979D01*
X99291743Y-117279354D01*
X99289395Y-117276257D01*
X99196168Y-117144868D01*
X99109042Y-117010708D01*
X99106791Y-117006959D01*
X99028696Y-116865658D01*
X99010015Y-116828996D01*
X98956435Y-116723841D01*
X98954407Y-116719441D01*
X98892297Y-116569495D01*
X98881622Y-116541686D01*
X98835746Y-116422179D01*
X98834065Y-116417167D01*
X98788579Y-116259285D01*
X98748363Y-116109200D01*
X98747132Y-116103567D01*
X98718770Y-115936650D01*
X98695317Y-115788576D01*
X98694655Y-115782388D01*
X98683645Y-115586378D01*
X98677409Y-115467411D01*
X98677325Y-115464167D01*
X98677325Y-101677459D01*
X98677340Y-101677407D01*
X98677347Y-101626070D01*
X98677370Y-101465849D01*
X98641587Y-101147410D01*
X98570471Y-100834959D01*
X98470489Y-100548392D01*
X98469214Y-100522944D01*
X98455732Y-100511195D01*
X98448451Y-100498116D01*
X98326229Y-100243523D01*
X98156159Y-99971936D01*
X97956826Y-99721038D01*
X97730726Y-99493965D01*
X97730725Y-99493964D01*
X97730721Y-99493960D01*
X97480688Y-99293561D01*
X97480686Y-99293560D01*
X97480684Y-99293558D01*
X97387911Y-99234907D01*
X97209829Y-99122323D01*
X97209823Y-99122320D01*
X97095597Y-99066903D01*
X97069636Y-99054307D01*
X97065767Y-99052429D01*
X93378652Y-97262839D01*
X93375253Y-97261057D01*
X93320662Y-97230231D01*
X93153942Y-97134384D01*
X93147903Y-97130427D01*
X93059818Y-97065068D01*
X93028421Y-97040617D01*
X92943021Y-96974108D01*
X92938296Y-96970030D01*
X92852797Y-96888329D01*
X92846054Y-96881365D01*
X92754970Y-96787291D01*
X92751465Y-96783348D01*
X92675739Y-96690425D01*
X92673681Y-96687754D01*
X92593057Y-96577034D01*
X92590629Y-96573442D01*
X92526621Y-96471227D01*
X92524450Y-96467473D01*
X92460035Y-96346570D01*
X92458540Y-96343570D01*
X92408008Y-96234864D01*
X92405994Y-96229998D01*
X92357815Y-96097869D01*
X92321643Y-95985263D01*
X92320046Y-95979263D01*
X92289206Y-95834421D01*
X92286767Y-95821492D01*
X92268873Y-95726654D01*
X92267953Y-95719518D01*
X92254617Y-95529120D01*
X92250620Y-95464883D01*
X92250500Y-95461032D01*
X92250500Y-90875006D01*
X93079700Y-90875006D01*
X93098864Y-91106297D01*
X93098866Y-91106308D01*
X93155842Y-91331300D01*
X93249075Y-91543848D01*
X93376016Y-91738147D01*
X93376019Y-91738151D01*
X93376021Y-91738153D01*
X93533216Y-91908913D01*
X93533219Y-91908915D01*
X93533222Y-91908918D01*
X93716365Y-92051464D01*
X93716371Y-92051468D01*
X93716374Y-92051470D01*
X93920497Y-92161936D01*
X94034487Y-92201068D01*
X94140015Y-92237297D01*
X94140017Y-92237297D01*
X94140019Y-92237298D01*
X94368951Y-92275500D01*
X94368952Y-92275500D01*
X94601048Y-92275500D01*
X94601049Y-92275500D01*
X94829981Y-92237298D01*
X95049503Y-92161936D01*
X95253626Y-92051470D01*
X95436784Y-91908913D01*
X95445130Y-91899846D01*
X95505010Y-91863854D01*
X95574849Y-91865949D01*
X95632468Y-91905469D01*
X95652544Y-91940491D01*
X95681203Y-92017330D01*
X95681206Y-92017335D01*
X95767452Y-92132544D01*
X95767455Y-92132547D01*
X95882664Y-92218793D01*
X95882671Y-92218797D01*
X95927618Y-92235561D01*
X96017517Y-92269091D01*
X96077127Y-92275500D01*
X96275500Y-92275499D01*
X96342539Y-92295183D01*
X96388294Y-92347987D01*
X96399500Y-92399499D01*
X96399500Y-95723055D01*
X96397775Y-95738672D01*
X96398061Y-95738699D01*
X96397326Y-95746465D01*
X96399500Y-95815614D01*
X96399500Y-95845143D01*
X96399501Y-95845160D01*
X96400368Y-95852031D01*
X96400826Y-95857850D01*
X96402290Y-95904424D01*
X96402291Y-95904427D01*
X96407880Y-95923667D01*
X96411824Y-95942711D01*
X96414336Y-95962592D01*
X96423299Y-95985231D01*
X96431490Y-96005919D01*
X96433382Y-96011447D01*
X96433701Y-96012546D01*
X96446382Y-96056190D01*
X96449931Y-96062192D01*
X96456580Y-96073434D01*
X96465136Y-96090900D01*
X96468062Y-96098289D01*
X96472514Y-96109532D01*
X96499898Y-96147223D01*
X96503106Y-96152107D01*
X96526827Y-96192216D01*
X96526833Y-96192224D01*
X96540990Y-96206380D01*
X96553628Y-96221176D01*
X96565405Y-96237386D01*
X96565406Y-96237387D01*
X96601309Y-96267088D01*
X96605620Y-96271010D01*
X97730887Y-97396277D01*
X98601381Y-98266771D01*
X98634866Y-98328094D01*
X98637700Y-98354452D01*
X98637700Y-100094855D01*
X98635975Y-100110472D01*
X98636261Y-100110499D01*
X98635526Y-100118265D01*
X98637700Y-100187414D01*
X98637700Y-100216943D01*
X98637701Y-100216960D01*
X98638568Y-100223831D01*
X98639026Y-100229650D01*
X98640490Y-100276224D01*
X98640491Y-100276227D01*
X98646080Y-100295467D01*
X98650024Y-100314511D01*
X98652536Y-100334392D01*
X98661009Y-100355792D01*
X98669690Y-100377719D01*
X98671582Y-100383246D01*
X98679312Y-100409854D01*
X98679260Y-100428220D01*
X98688397Y-100435368D01*
X98694292Y-100444410D01*
X98694770Y-100445218D01*
X98703336Y-100462700D01*
X98704931Y-100466726D01*
X98710714Y-100481332D01*
X98738098Y-100519023D01*
X98741306Y-100523907D01*
X98765027Y-100564016D01*
X98765033Y-100564024D01*
X98779190Y-100578180D01*
X98791827Y-100592975D01*
X98803606Y-100609187D01*
X98816026Y-100619462D01*
X98839509Y-100638888D01*
X98843820Y-100642810D01*
X105467711Y-107266702D01*
X107508710Y-109307701D01*
X107518535Y-109319964D01*
X107518756Y-109319782D01*
X107523727Y-109325791D01*
X107543640Y-109344490D01*
X107574148Y-109373139D01*
X107595042Y-109394033D01*
X107600524Y-109398286D01*
X107604956Y-109402070D01*
X107638931Y-109433975D01*
X107656489Y-109443627D01*
X107672748Y-109454308D01*
X107688577Y-109466586D01*
X107731351Y-109485095D01*
X107736569Y-109487651D01*
X107777421Y-109510110D01*
X107796829Y-109515093D01*
X107815230Y-109521393D01*
X107833617Y-109529350D01*
X107877001Y-109536221D01*
X107879632Y-109536638D01*
X107885352Y-109537822D01*
X107930494Y-109549413D01*
X107950529Y-109549413D01*
X107969927Y-109550939D01*
X107989707Y-109554072D01*
X107989708Y-109554073D01*
X107989708Y-109554072D01*
X107989709Y-109554073D01*
X108036097Y-109549688D01*
X108041935Y-109549413D01*
X123214661Y-109549413D01*
X123281700Y-109569098D01*
X123327455Y-109621902D01*
X123331702Y-109632458D01*
X123373142Y-109750886D01*
X123373147Y-109750897D01*
X123463118Y-109894084D01*
X123463123Y-109894090D01*
X123582709Y-110013676D01*
X123582715Y-110013681D01*
X123725902Y-110103652D01*
X123725905Y-110103654D01*
X123725909Y-110103655D01*
X123725910Y-110103656D01*
X123833065Y-110141151D01*
X123885544Y-110159514D01*
X123899992Y-110161142D01*
X123964406Y-110188209D01*
X124003961Y-110245804D01*
X124006098Y-110315641D01*
X123973790Y-110372042D01*
X123920323Y-110425509D01*
X123830342Y-110568712D01*
X123827322Y-110574984D01*
X123825317Y-110574018D01*
X123803203Y-110609091D01*
X122864115Y-111548181D01*
X122802792Y-111581666D01*
X122776434Y-111584500D01*
X117691937Y-111584500D01*
X117676320Y-111582776D01*
X117676293Y-111583062D01*
X117668531Y-111582327D01*
X117599403Y-111584500D01*
X117569850Y-111584500D01*
X117569129Y-111584590D01*
X117562957Y-111585369D01*
X117557145Y-111585826D01*
X117510573Y-111587290D01*
X117510572Y-111587290D01*
X117491329Y-111592881D01*
X117472279Y-111596825D01*
X117452411Y-111599334D01*
X117452409Y-111599335D01*
X117409084Y-111616488D01*
X117403557Y-111618380D01*
X117358810Y-111631381D01*
X117358809Y-111631382D01*
X117341567Y-111641579D01*
X117324099Y-111650137D01*
X117305469Y-111657513D01*
X117305467Y-111657514D01*
X117267776Y-111684898D01*
X117262894Y-111688105D01*
X117222779Y-111711830D01*
X117208608Y-111726000D01*
X117193823Y-111738628D01*
X117177612Y-111750407D01*
X117147909Y-111786310D01*
X117143977Y-111790631D01*
X115244170Y-113690437D01*
X115182847Y-113723922D01*
X115124396Y-113722531D01*
X114918789Y-113667440D01*
X114918779Y-113667438D01*
X114683377Y-113646843D01*
X114683375Y-113646843D01*
X114447972Y-113667438D01*
X114447962Y-113667440D01*
X114219720Y-113728596D01*
X114219711Y-113728600D01*
X114005547Y-113828466D01*
X114005545Y-113828467D01*
X113811973Y-113964007D01*
X113644881Y-114131099D01*
X113514951Y-114316660D01*
X113460374Y-114360285D01*
X113390876Y-114367479D01*
X113328521Y-114335956D01*
X113311801Y-114316660D01*
X113181870Y-114131099D01*
X113014778Y-113964008D01*
X113014771Y-113964003D01*
X112821210Y-113828469D01*
X112821206Y-113828467D01*
X112750103Y-113795311D01*
X112607039Y-113728599D01*
X112607035Y-113728598D01*
X112607031Y-113728596D01*
X112378789Y-113667440D01*
X112378779Y-113667438D01*
X112143377Y-113646843D01*
X112143375Y-113646843D01*
X111907972Y-113667438D01*
X111907962Y-113667440D01*
X111679720Y-113728596D01*
X111679711Y-113728600D01*
X111465547Y-113828466D01*
X111465545Y-113828467D01*
X111271973Y-113964007D01*
X111104881Y-114131099D01*
X110974951Y-114316660D01*
X110920374Y-114360285D01*
X110850876Y-114367479D01*
X110788521Y-114335956D01*
X110771801Y-114316660D01*
X110641870Y-114131099D01*
X110474778Y-113964008D01*
X110474771Y-113964003D01*
X110281210Y-113828469D01*
X110281206Y-113828467D01*
X110210103Y-113795311D01*
X110067039Y-113728599D01*
X110067035Y-113728598D01*
X110067031Y-113728596D01*
X109838789Y-113667440D01*
X109838779Y-113667438D01*
X109603377Y-113646843D01*
X109603375Y-113646843D01*
X109367972Y-113667438D01*
X109367962Y-113667440D01*
X109139720Y-113728596D01*
X109139711Y-113728600D01*
X108925547Y-113828466D01*
X108925545Y-113828467D01*
X108731973Y-113964007D01*
X108564881Y-114131099D01*
X108434951Y-114316660D01*
X108380374Y-114360285D01*
X108310876Y-114367479D01*
X108248521Y-114335956D01*
X108231801Y-114316660D01*
X108101870Y-114131099D01*
X107934778Y-113964008D01*
X107934771Y-113964003D01*
X107741210Y-113828469D01*
X107741206Y-113828467D01*
X107670103Y-113795311D01*
X107527039Y-113728599D01*
X107527035Y-113728598D01*
X107527031Y-113728596D01*
X107298789Y-113667440D01*
X107298779Y-113667438D01*
X107063377Y-113646843D01*
X107063375Y-113646843D01*
X106827972Y-113667438D01*
X106827962Y-113667440D01*
X106599720Y-113728596D01*
X106599711Y-113728600D01*
X106385547Y-113828466D01*
X106385545Y-113828467D01*
X106191973Y-113964007D01*
X106024881Y-114131099D01*
X105894951Y-114316660D01*
X105840374Y-114360285D01*
X105770876Y-114367479D01*
X105708521Y-114335956D01*
X105691801Y-114316660D01*
X105561870Y-114131099D01*
X105394778Y-113964008D01*
X105394771Y-113964003D01*
X105201210Y-113828469D01*
X105201206Y-113828467D01*
X105130103Y-113795311D01*
X104987039Y-113728599D01*
X104987035Y-113728598D01*
X104987031Y-113728596D01*
X104758789Y-113667440D01*
X104758779Y-113667438D01*
X104523377Y-113646843D01*
X104523375Y-113646843D01*
X104287972Y-113667438D01*
X104287962Y-113667440D01*
X104059720Y-113728596D01*
X104059711Y-113728600D01*
X103845547Y-113828466D01*
X103845545Y-113828467D01*
X103651976Y-113964005D01*
X103529660Y-114086321D01*
X103468337Y-114119805D01*
X103398645Y-114114821D01*
X103342712Y-114072949D01*
X103325797Y-114041972D01*
X103276730Y-113910415D01*
X103276726Y-113910408D01*
X103190566Y-113795314D01*
X103190563Y-113795311D01*
X103075469Y-113709151D01*
X103075462Y-113709147D01*
X102940755Y-113658905D01*
X102940748Y-113658903D01*
X102881220Y-113652502D01*
X102233376Y-113652502D01*
X102233376Y-114567000D01*
X102125691Y-114517822D01*
X102019139Y-114502502D01*
X101947613Y-114502502D01*
X101841061Y-114517822D01*
X101733376Y-114567000D01*
X101733376Y-113652502D01*
X101085531Y-113652502D01*
X101026003Y-113658903D01*
X101025996Y-113658905D01*
X100891289Y-113709147D01*
X100891282Y-113709151D01*
X100776188Y-113795311D01*
X100776185Y-113795314D01*
X100690025Y-113910408D01*
X100690021Y-113910415D01*
X100639779Y-114045122D01*
X100639777Y-114045129D01*
X100633376Y-114104657D01*
X100633376Y-114752502D01*
X101549690Y-114752502D01*
X101523883Y-114792658D01*
X101483376Y-114930613D01*
X101483376Y-115074391D01*
X101523883Y-115212346D01*
X101549690Y-115252502D01*
X100633376Y-115252502D01*
X100633376Y-115900346D01*
X100639777Y-115959874D01*
X100639779Y-115959881D01*
X100690021Y-116094588D01*
X100690025Y-116094595D01*
X100776185Y-116209689D01*
X100776188Y-116209692D01*
X100891282Y-116295852D01*
X100891289Y-116295856D01*
X101025996Y-116346098D01*
X101026003Y-116346100D01*
X101085531Y-116352501D01*
X101085548Y-116352502D01*
X101733376Y-116352502D01*
X101733376Y-115438003D01*
X101841061Y-115487182D01*
X101947613Y-115502502D01*
X102019139Y-115502502D01*
X102125691Y-115487182D01*
X102233376Y-115438003D01*
X102233376Y-116352502D01*
X102881204Y-116352502D01*
X102881220Y-116352501D01*
X102940748Y-116346100D01*
X102940755Y-116346098D01*
X103075462Y-116295856D01*
X103075469Y-116295852D01*
X103190563Y-116209692D01*
X103190566Y-116209689D01*
X103276726Y-116094595D01*
X103276730Y-116094588D01*
X103325798Y-115963031D01*
X103367669Y-115907097D01*
X103433133Y-115882680D01*
X103501406Y-115897532D01*
X103529661Y-115918683D01*
X103651975Y-116040997D01*
X103719895Y-116088555D01*
X103845541Y-116176534D01*
X103845543Y-116176535D01*
X103845546Y-116176537D01*
X104059713Y-116276405D01*
X104287968Y-116337565D01*
X104458695Y-116352502D01*
X104523375Y-116358161D01*
X104523376Y-116358161D01*
X104523377Y-116358161D01*
X104588057Y-116352502D01*
X104758784Y-116337565D01*
X104987039Y-116276405D01*
X105201206Y-116176537D01*
X105394777Y-116040997D01*
X105561871Y-115873903D01*
X105691801Y-115688344D01*
X105746378Y-115644719D01*
X105815876Y-115637525D01*
X105878231Y-115669048D01*
X105894951Y-115688344D01*
X106024876Y-115873897D01*
X106024881Y-115873903D01*
X106191975Y-116040997D01*
X106259895Y-116088555D01*
X106385541Y-116176534D01*
X106385543Y-116176535D01*
X106385546Y-116176537D01*
X106599713Y-116276405D01*
X106827968Y-116337565D01*
X106998695Y-116352502D01*
X107063375Y-116358161D01*
X107063376Y-116358161D01*
X107063377Y-116358161D01*
X107128057Y-116352502D01*
X107298784Y-116337565D01*
X107527039Y-116276405D01*
X107741206Y-116176537D01*
X107934777Y-116040997D01*
X108101871Y-115873903D01*
X108231801Y-115688344D01*
X108286378Y-115644719D01*
X108355876Y-115637525D01*
X108418231Y-115669048D01*
X108434951Y-115688344D01*
X108564876Y-115873897D01*
X108564881Y-115873903D01*
X108731975Y-116040997D01*
X108799895Y-116088555D01*
X108925541Y-116176534D01*
X108925543Y-116176535D01*
X108925546Y-116176537D01*
X109139713Y-116276405D01*
X109367968Y-116337565D01*
X109538695Y-116352502D01*
X109603375Y-116358161D01*
X109603376Y-116358161D01*
X109603377Y-116358161D01*
X109668057Y-116352502D01*
X109838784Y-116337565D01*
X110067039Y-116276405D01*
X110281206Y-116176537D01*
X110474777Y-116040997D01*
X110641871Y-115873903D01*
X110771801Y-115688344D01*
X110826378Y-115644719D01*
X110895876Y-115637525D01*
X110958231Y-115669048D01*
X110974951Y-115688344D01*
X111104876Y-115873897D01*
X111104881Y-115873903D01*
X111271975Y-116040997D01*
X111339895Y-116088555D01*
X111465541Y-116176534D01*
X111465543Y-116176535D01*
X111465546Y-116176537D01*
X111679713Y-116276405D01*
X111907968Y-116337565D01*
X112078695Y-116352502D01*
X112143375Y-116358161D01*
X112143376Y-116358161D01*
X112143377Y-116358161D01*
X112208057Y-116352502D01*
X112378784Y-116337565D01*
X112607039Y-116276405D01*
X112821206Y-116176537D01*
X113014777Y-116040997D01*
X113181871Y-115873903D01*
X113311801Y-115688344D01*
X113366378Y-115644719D01*
X113435876Y-115637525D01*
X113498231Y-115669048D01*
X113514951Y-115688344D01*
X113644876Y-115873897D01*
X113644881Y-115873903D01*
X113811975Y-116040997D01*
X113879895Y-116088555D01*
X114005541Y-116176534D01*
X114005543Y-116176535D01*
X114005546Y-116176537D01*
X114219713Y-116276405D01*
X114447968Y-116337565D01*
X114618695Y-116352502D01*
X114683375Y-116358161D01*
X114683376Y-116358161D01*
X114683377Y-116358161D01*
X114748057Y-116352502D01*
X114918784Y-116337565D01*
X115147039Y-116276405D01*
X115361206Y-116176537D01*
X115554777Y-116040997D01*
X115721871Y-115873903D01*
X115857411Y-115680332D01*
X115957279Y-115466165D01*
X116018439Y-115237910D01*
X116039035Y-115002502D01*
X116018439Y-114767094D01*
X116018436Y-114767085D01*
X116017498Y-114761757D01*
X116019960Y-114761322D01*
X116021328Y-114702013D01*
X116051785Y-114652003D01*
X117831972Y-112871819D01*
X117893295Y-112838334D01*
X117919653Y-112835500D01*
X121207318Y-112835500D01*
X121274357Y-112855185D01*
X121320112Y-112907989D01*
X121330538Y-112945617D01*
X121336085Y-112994853D01*
X121391944Y-113154492D01*
X121391947Y-113154497D01*
X121481918Y-113297684D01*
X121481923Y-113297690D01*
X121601509Y-113417276D01*
X121601515Y-113417281D01*
X121744702Y-113507252D01*
X121744705Y-113507254D01*
X121744709Y-113507255D01*
X121744710Y-113507256D01*
X121752721Y-113510059D01*
X121904343Y-113563114D01*
X122072397Y-113582049D01*
X122072400Y-113582049D01*
X122072403Y-113582049D01*
X122240459Y-113563113D01*
X122240461Y-113563113D01*
X122392080Y-113510059D01*
X122433035Y-113503100D01*
X123958324Y-113503100D01*
X124024295Y-113522105D01*
X124081510Y-113558056D01*
X124202821Y-113600504D01*
X124241143Y-113613914D01*
X124409197Y-113632849D01*
X124409200Y-113632849D01*
X124409203Y-113632849D01*
X124577256Y-113613914D01*
X124577259Y-113613913D01*
X124736890Y-113558056D01*
X124736892Y-113558054D01*
X124736894Y-113558054D01*
X124736897Y-113558052D01*
X124880084Y-113468081D01*
X124880085Y-113468080D01*
X124880090Y-113468077D01*
X124999677Y-113348490D01*
X125089652Y-113205297D01*
X125089654Y-113205294D01*
X125089654Y-113205292D01*
X125089656Y-113205290D01*
X125145513Y-113045659D01*
X125145513Y-113045658D01*
X125145514Y-113045656D01*
X125164449Y-112877602D01*
X125164449Y-112877597D01*
X125145514Y-112709543D01*
X125089654Y-112549905D01*
X125089652Y-112549902D01*
X124999681Y-112406715D01*
X124999676Y-112406709D01*
X124880090Y-112287123D01*
X124880084Y-112287118D01*
X124736897Y-112197147D01*
X124736894Y-112197145D01*
X124577256Y-112141285D01*
X124409203Y-112122351D01*
X124409196Y-112122351D01*
X124366815Y-112127126D01*
X124297993Y-112115071D01*
X124246614Y-112067722D01*
X124228990Y-112000112D01*
X124250717Y-111933706D01*
X124265246Y-111916230D01*
X124501565Y-111679911D01*
X124562886Y-111646428D01*
X124575362Y-111644374D01*
X124678855Y-111632714D01*
X124678857Y-111632713D01*
X124678859Y-111632713D01*
X124838490Y-111576856D01*
X124838493Y-111576853D01*
X124838497Y-111576852D01*
X124981684Y-111486881D01*
X124981685Y-111486880D01*
X124981690Y-111486877D01*
X125101277Y-111367290D01*
X125191252Y-111224097D01*
X125191254Y-111224094D01*
X125191254Y-111224092D01*
X125191256Y-111224090D01*
X125247113Y-111064459D01*
X125247113Y-111064458D01*
X125247114Y-111064456D01*
X125266049Y-110896402D01*
X125266049Y-110896397D01*
X125247114Y-110728343D01*
X125193451Y-110574984D01*
X125191256Y-110568710D01*
X125191255Y-110568709D01*
X125191254Y-110568705D01*
X125191252Y-110568702D01*
X125101281Y-110425515D01*
X125101276Y-110425509D01*
X124981690Y-110305923D01*
X124981684Y-110305918D01*
X124838497Y-110215947D01*
X124838494Y-110215945D01*
X124678857Y-110160086D01*
X124664402Y-110158457D01*
X124599989Y-110131387D01*
X124560437Y-110073790D01*
X124558302Y-110003953D01*
X124590609Y-109947557D01*
X124644077Y-109894090D01*
X124650190Y-109884362D01*
X124734052Y-109750897D01*
X124734054Y-109750894D01*
X124734054Y-109750892D01*
X124734056Y-109750890D01*
X124789913Y-109591259D01*
X124789913Y-109591258D01*
X124789914Y-109591256D01*
X124808849Y-109423202D01*
X124808849Y-109423197D01*
X124789914Y-109255143D01*
X124734054Y-109095505D01*
X124734052Y-109095502D01*
X124644081Y-108952315D01*
X124644076Y-108952309D01*
X124643848Y-108952081D01*
X124643747Y-108951897D01*
X124639736Y-108946867D01*
X124640617Y-108946164D01*
X124610363Y-108890758D01*
X124615347Y-108821066D01*
X124640239Y-108782334D01*
X124639736Y-108781933D01*
X124643656Y-108777017D01*
X124643848Y-108776719D01*
X124644077Y-108776490D01*
X124701765Y-108684681D01*
X124734052Y-108633297D01*
X124734054Y-108633294D01*
X124734054Y-108633292D01*
X124734056Y-108633290D01*
X124789913Y-108473659D01*
X124789913Y-108473658D01*
X124789914Y-108473656D01*
X124808849Y-108305602D01*
X124808849Y-108305597D01*
X124789914Y-108137543D01*
X124759460Y-108050513D01*
X124734056Y-107977910D01*
X124734055Y-107977909D01*
X124734054Y-107977905D01*
X124734052Y-107977902D01*
X124640373Y-107828814D01*
X124641545Y-107828077D01*
X124618028Y-107770480D01*
X124630781Y-107701784D01*
X124636376Y-107691898D01*
X124683256Y-107617290D01*
X124739113Y-107457659D01*
X124739113Y-107457658D01*
X124739114Y-107457656D01*
X124758049Y-107289602D01*
X124758049Y-107289597D01*
X124739114Y-107121543D01*
X124683254Y-106961905D01*
X124683252Y-106961902D01*
X124593281Y-106818715D01*
X124593276Y-106818709D01*
X124473690Y-106699123D01*
X124473684Y-106699118D01*
X124330497Y-106609147D01*
X124330494Y-106609145D01*
X124170855Y-106553285D01*
X124014340Y-106535650D01*
X123949926Y-106508583D01*
X123910371Y-106450988D01*
X123908234Y-106381151D01*
X123944193Y-106321245D01*
X123962251Y-106307437D01*
X123965690Y-106305277D01*
X124085277Y-106185690D01*
X124175256Y-106042490D01*
X124228909Y-105889155D01*
X124269629Y-105832382D01*
X124332066Y-105806892D01*
X124374989Y-105802056D01*
X124475655Y-105790714D01*
X124475657Y-105790713D01*
X124475659Y-105790713D01*
X124635290Y-105734856D01*
X124635292Y-105734854D01*
X124635294Y-105734854D01*
X124635297Y-105734852D01*
X124778484Y-105644881D01*
X124778485Y-105644880D01*
X124778490Y-105644877D01*
X124898077Y-105525290D01*
X124898081Y-105525284D01*
X124988052Y-105382097D01*
X124988054Y-105382094D01*
X124988054Y-105382092D01*
X124988056Y-105382090D01*
X125043913Y-105222459D01*
X125043913Y-105222458D01*
X125043914Y-105222456D01*
X125062849Y-105054402D01*
X125062849Y-105054397D01*
X125043134Y-104879421D01*
X125045735Y-104879127D01*
X125049250Y-104821387D01*
X125060888Y-104797520D01*
X125140456Y-104670890D01*
X125196313Y-104511259D01*
X125196313Y-104511258D01*
X125196314Y-104511256D01*
X125204962Y-104434495D01*
X125232028Y-104370081D01*
X125240491Y-104360706D01*
X133408788Y-96192410D01*
X133421042Y-96182595D01*
X133420859Y-96182373D01*
X133426866Y-96177401D01*
X133426877Y-96177395D01*
X133457775Y-96144491D01*
X133474227Y-96126973D01*
X133484671Y-96116527D01*
X133495120Y-96106080D01*
X133499379Y-96100587D01*
X133503152Y-96096170D01*
X133535062Y-96062191D01*
X133544713Y-96044633D01*
X133555396Y-96028370D01*
X133567673Y-96012545D01*
X133586185Y-95969762D01*
X133588738Y-95964550D01*
X133611197Y-95923701D01*
X133616180Y-95904289D01*
X133622481Y-95885889D01*
X133630437Y-95867505D01*
X133637729Y-95821461D01*
X133638906Y-95815780D01*
X133650500Y-95770628D01*
X133650500Y-95750592D01*
X133652027Y-95731191D01*
X133655160Y-95711413D01*
X133650775Y-95665024D01*
X133650500Y-95659186D01*
X133650500Y-92399499D01*
X133670185Y-92332460D01*
X133722989Y-92286705D01*
X133774500Y-92275499D01*
X133972871Y-92275499D01*
X133972872Y-92275499D01*
X134032483Y-92269091D01*
X134167331Y-92218796D01*
X134282546Y-92132546D01*
X134368796Y-92017331D01*
X134419091Y-91882483D01*
X134425500Y-91822873D01*
X134425499Y-89927128D01*
X134419091Y-89867517D01*
X134409233Y-89841087D01*
X134368797Y-89732671D01*
X134368793Y-89732664D01*
X134282547Y-89617455D01*
X134282544Y-89617452D01*
X134167335Y-89531206D01*
X134167328Y-89531202D01*
X134032482Y-89480908D01*
X134032483Y-89480908D01*
X133972883Y-89474501D01*
X133972881Y-89474500D01*
X133972873Y-89474500D01*
X133972864Y-89474500D01*
X132077129Y-89474500D01*
X132077123Y-89474501D01*
X132017516Y-89480908D01*
X131882671Y-89531202D01*
X131882664Y-89531206D01*
X131767455Y-89617452D01*
X131767452Y-89617455D01*
X131681206Y-89732664D01*
X131681203Y-89732670D01*
X131652544Y-89809508D01*
X131610672Y-89865441D01*
X131545208Y-89889858D01*
X131476935Y-89875006D01*
X131445135Y-89850158D01*
X131436784Y-89841087D01*
X131436778Y-89841082D01*
X131436777Y-89841081D01*
X131253634Y-89698535D01*
X131253628Y-89698531D01*
X131049504Y-89588064D01*
X131049495Y-89588061D01*
X130829984Y-89512702D01*
X130639450Y-89480908D01*
X130601049Y-89474500D01*
X130368951Y-89474500D01*
X130330550Y-89480908D01*
X130140015Y-89512702D01*
X129920504Y-89588061D01*
X129920495Y-89588064D01*
X129716371Y-89698531D01*
X129716365Y-89698535D01*
X129533222Y-89841081D01*
X129533219Y-89841084D01*
X129533216Y-89841086D01*
X129533216Y-89841087D01*
X129488319Y-89889858D01*
X129376016Y-90011852D01*
X129249075Y-90206151D01*
X129155842Y-90418699D01*
X129098866Y-90643691D01*
X129098864Y-90643702D01*
X129079700Y-90874993D01*
X129079700Y-90875006D01*
X129098864Y-91106297D01*
X129098866Y-91106308D01*
X129155842Y-91331300D01*
X129249075Y-91543848D01*
X129376016Y-91738147D01*
X129376019Y-91738151D01*
X129376021Y-91738153D01*
X129533216Y-91908913D01*
X129533219Y-91908915D01*
X129533222Y-91908918D01*
X129716365Y-92051464D01*
X129716371Y-92051468D01*
X129716374Y-92051470D01*
X129920497Y-92161936D01*
X130034487Y-92201068D01*
X130140015Y-92237297D01*
X130140017Y-92237297D01*
X130140019Y-92237298D01*
X130368951Y-92275500D01*
X130368952Y-92275500D01*
X130601048Y-92275500D01*
X130601049Y-92275500D01*
X130829981Y-92237298D01*
X131049503Y-92161936D01*
X131253626Y-92051470D01*
X131436784Y-91908913D01*
X131445130Y-91899846D01*
X131505010Y-91863854D01*
X131574849Y-91865949D01*
X131632468Y-91905469D01*
X131652544Y-91940491D01*
X131681203Y-92017330D01*
X131681206Y-92017335D01*
X131767452Y-92132544D01*
X131767455Y-92132547D01*
X131882664Y-92218793D01*
X131882671Y-92218797D01*
X131927618Y-92235561D01*
X132017517Y-92269091D01*
X132077127Y-92275500D01*
X132275500Y-92275499D01*
X132342539Y-92295183D01*
X132388294Y-92347987D01*
X132399500Y-92399499D01*
X132399500Y-95381156D01*
X132379815Y-95448195D01*
X132363181Y-95468837D01*
X124654954Y-103177064D01*
X124593631Y-103210549D01*
X124523939Y-103205565D01*
X124468006Y-103163693D01*
X124443589Y-103098229D01*
X124443273Y-103089383D01*
X124443273Y-94392678D01*
X124462958Y-94325639D01*
X124479587Y-94305002D01*
X126472771Y-92311817D01*
X126534094Y-92278333D01*
X126560452Y-92275499D01*
X127972871Y-92275499D01*
X127972872Y-92275499D01*
X128032483Y-92269091D01*
X128167331Y-92218796D01*
X128282546Y-92132546D01*
X128368796Y-92017331D01*
X128419091Y-91882483D01*
X128425500Y-91822873D01*
X128425499Y-89927128D01*
X128419091Y-89867517D01*
X128409233Y-89841087D01*
X128368797Y-89732671D01*
X128368793Y-89732664D01*
X128282547Y-89617455D01*
X128282544Y-89617452D01*
X128167335Y-89531206D01*
X128167328Y-89531202D01*
X128032482Y-89480908D01*
X128032483Y-89480908D01*
X127972883Y-89474501D01*
X127972881Y-89474500D01*
X127972873Y-89474500D01*
X127972864Y-89474500D01*
X126077129Y-89474500D01*
X126077123Y-89474501D01*
X126017516Y-89480908D01*
X125882671Y-89531202D01*
X125882664Y-89531206D01*
X125767455Y-89617452D01*
X125767452Y-89617455D01*
X125681206Y-89732664D01*
X125681203Y-89732670D01*
X125652544Y-89809508D01*
X125610672Y-89865441D01*
X125545208Y-89889858D01*
X125476935Y-89875006D01*
X125445135Y-89850158D01*
X125436784Y-89841087D01*
X125436778Y-89841082D01*
X125436777Y-89841081D01*
X125253634Y-89698535D01*
X125253628Y-89698531D01*
X125049504Y-89588064D01*
X125049495Y-89588061D01*
X124829984Y-89512702D01*
X124639450Y-89480908D01*
X124601049Y-89474500D01*
X124368951Y-89474500D01*
X124330550Y-89480908D01*
X124140015Y-89512702D01*
X123920504Y-89588061D01*
X123920495Y-89588064D01*
X123716371Y-89698531D01*
X123716365Y-89698535D01*
X123533222Y-89841081D01*
X123533219Y-89841084D01*
X123533216Y-89841086D01*
X123533216Y-89841087D01*
X123488319Y-89889858D01*
X123376016Y-90011852D01*
X123249075Y-90206151D01*
X123155842Y-90418699D01*
X123098866Y-90643691D01*
X123098864Y-90643702D01*
X123079700Y-90874993D01*
X123079700Y-90875006D01*
X123098864Y-91106297D01*
X123098866Y-91106308D01*
X123155842Y-91331300D01*
X123249075Y-91543848D01*
X123376016Y-91738147D01*
X123376019Y-91738151D01*
X123376021Y-91738153D01*
X123533216Y-91908913D01*
X123533219Y-91908915D01*
X123533222Y-91908918D01*
X123716365Y-92051464D01*
X123716371Y-92051468D01*
X123716374Y-92051470D01*
X123920497Y-92161936D01*
X124034487Y-92201068D01*
X124140015Y-92237297D01*
X124140017Y-92237297D01*
X124140019Y-92237298D01*
X124368951Y-92275500D01*
X124368952Y-92275500D01*
X124440547Y-92275500D01*
X124507586Y-92295185D01*
X124553341Y-92347989D01*
X124563285Y-92417147D01*
X124534260Y-92480703D01*
X124528228Y-92487181D01*
X123433981Y-93581426D01*
X123421724Y-93591247D01*
X123421907Y-93591468D01*
X123415896Y-93596440D01*
X123368545Y-93646863D01*
X123347662Y-93667746D01*
X123347650Y-93667759D01*
X123343394Y-93673244D01*
X123339610Y-93677674D01*
X123307710Y-93711645D01*
X123307709Y-93711647D01*
X123298057Y-93729203D01*
X123287383Y-93745453D01*
X123275102Y-93761288D01*
X123275097Y-93761295D01*
X123256588Y-93804065D01*
X123254018Y-93809311D01*
X123231576Y-93850133D01*
X123226595Y-93869534D01*
X123220294Y-93887937D01*
X123212335Y-93906329D01*
X123212334Y-93906332D01*
X123205044Y-93952354D01*
X123203860Y-93958073D01*
X123192274Y-94003199D01*
X123192273Y-94003209D01*
X123192273Y-94023243D01*
X123190746Y-94042640D01*
X123187613Y-94062423D01*
X123188632Y-94073206D01*
X123191998Y-94108810D01*
X123192273Y-94114648D01*
X123192273Y-104228320D01*
X123172588Y-104295359D01*
X123119784Y-104341114D01*
X123050626Y-104351058D01*
X122987070Y-104322033D01*
X122980592Y-104316001D01*
X121686819Y-103022228D01*
X121653334Y-102960905D01*
X121650500Y-102934547D01*
X121650500Y-92399499D01*
X121670185Y-92332460D01*
X121722989Y-92286705D01*
X121774500Y-92275499D01*
X121972871Y-92275499D01*
X121972872Y-92275499D01*
X122032483Y-92269091D01*
X122167331Y-92218796D01*
X122282546Y-92132546D01*
X122368796Y-92017331D01*
X122419091Y-91882483D01*
X122425500Y-91822873D01*
X122425499Y-89927128D01*
X122419091Y-89867517D01*
X122409233Y-89841087D01*
X122368797Y-89732671D01*
X122368793Y-89732664D01*
X122282547Y-89617455D01*
X122282544Y-89617452D01*
X122167335Y-89531206D01*
X122167328Y-89531202D01*
X122032482Y-89480908D01*
X122032483Y-89480908D01*
X121972883Y-89474501D01*
X121972881Y-89474500D01*
X121972873Y-89474500D01*
X121972864Y-89474500D01*
X120077129Y-89474500D01*
X120077123Y-89474501D01*
X120017516Y-89480908D01*
X119882671Y-89531202D01*
X119882664Y-89531206D01*
X119767455Y-89617452D01*
X119767452Y-89617455D01*
X119681206Y-89732664D01*
X119681203Y-89732670D01*
X119652544Y-89809508D01*
X119610672Y-89865441D01*
X119545208Y-89889858D01*
X119476935Y-89875006D01*
X119445135Y-89850158D01*
X119436784Y-89841087D01*
X119436778Y-89841082D01*
X119436777Y-89841081D01*
X119253634Y-89698535D01*
X119253628Y-89698531D01*
X119049504Y-89588064D01*
X119049495Y-89588061D01*
X118829984Y-89512702D01*
X118639450Y-89480908D01*
X118601049Y-89474500D01*
X118368951Y-89474500D01*
X118330550Y-89480908D01*
X118140015Y-89512702D01*
X117920504Y-89588061D01*
X117920495Y-89588064D01*
X117716371Y-89698531D01*
X117716365Y-89698535D01*
X117533222Y-89841081D01*
X117533219Y-89841084D01*
X117533216Y-89841086D01*
X117533216Y-89841087D01*
X117488319Y-89889858D01*
X117376016Y-90011852D01*
X117249075Y-90206151D01*
X117155842Y-90418699D01*
X117098866Y-90643691D01*
X117098864Y-90643702D01*
X117079700Y-90874993D01*
X117079700Y-90875006D01*
X117098864Y-91106297D01*
X117098866Y-91106308D01*
X117155842Y-91331300D01*
X117249075Y-91543848D01*
X117376016Y-91738147D01*
X117376019Y-91738151D01*
X117376021Y-91738153D01*
X117533216Y-91908913D01*
X117533219Y-91908915D01*
X117533222Y-91908918D01*
X117716365Y-92051464D01*
X117716371Y-92051468D01*
X117716374Y-92051470D01*
X117920497Y-92161936D01*
X118034487Y-92201068D01*
X118140015Y-92237297D01*
X118140017Y-92237297D01*
X118140019Y-92237298D01*
X118368951Y-92275500D01*
X118368952Y-92275500D01*
X118601048Y-92275500D01*
X118601049Y-92275500D01*
X118829981Y-92237298D01*
X119049503Y-92161936D01*
X119253626Y-92051470D01*
X119436784Y-91908913D01*
X119445130Y-91899846D01*
X119505010Y-91863854D01*
X119574849Y-91865949D01*
X119632468Y-91905469D01*
X119652544Y-91940491D01*
X119681203Y-92017330D01*
X119681206Y-92017335D01*
X119767452Y-92132544D01*
X119767455Y-92132547D01*
X119882664Y-92218793D01*
X119882671Y-92218797D01*
X119927618Y-92235561D01*
X120017517Y-92269091D01*
X120077127Y-92275500D01*
X120275500Y-92275499D01*
X120342539Y-92295183D01*
X120388294Y-92347987D01*
X120399500Y-92399499D01*
X120399500Y-102857947D01*
X120379815Y-102924986D01*
X120327011Y-102970741D01*
X120257853Y-102980685D01*
X120194297Y-102951660D01*
X120187819Y-102945628D01*
X115686819Y-98444628D01*
X115653334Y-98383305D01*
X115650500Y-98356947D01*
X115650500Y-92399499D01*
X115670185Y-92332460D01*
X115722989Y-92286705D01*
X115774500Y-92275499D01*
X115972871Y-92275499D01*
X115972872Y-92275499D01*
X116032483Y-92269091D01*
X116167331Y-92218796D01*
X116282546Y-92132546D01*
X116368796Y-92017331D01*
X116419091Y-91882483D01*
X116425500Y-91822873D01*
X116425499Y-89927128D01*
X116419091Y-89867517D01*
X116409233Y-89841087D01*
X116368797Y-89732671D01*
X116368793Y-89732664D01*
X116282547Y-89617455D01*
X116282544Y-89617452D01*
X116167335Y-89531206D01*
X116167328Y-89531202D01*
X116032482Y-89480908D01*
X116032483Y-89480908D01*
X115972883Y-89474501D01*
X115972881Y-89474500D01*
X115972873Y-89474500D01*
X115972864Y-89474500D01*
X114077129Y-89474500D01*
X114077123Y-89474501D01*
X114017516Y-89480908D01*
X113882671Y-89531202D01*
X113882664Y-89531206D01*
X113767455Y-89617452D01*
X113767452Y-89617455D01*
X113681206Y-89732664D01*
X113681203Y-89732670D01*
X113652544Y-89809508D01*
X113610672Y-89865441D01*
X113545208Y-89889858D01*
X113476935Y-89875006D01*
X113445135Y-89850158D01*
X113436784Y-89841087D01*
X113436778Y-89841082D01*
X113436777Y-89841081D01*
X113253634Y-89698535D01*
X113253628Y-89698531D01*
X113049504Y-89588064D01*
X113049495Y-89588061D01*
X112829984Y-89512702D01*
X112639450Y-89480908D01*
X112601049Y-89474500D01*
X112368951Y-89474500D01*
X112330550Y-89480908D01*
X112140015Y-89512702D01*
X111920504Y-89588061D01*
X111920495Y-89588064D01*
X111716371Y-89698531D01*
X111716365Y-89698535D01*
X111533222Y-89841081D01*
X111533219Y-89841084D01*
X111533216Y-89841086D01*
X111533216Y-89841087D01*
X111488319Y-89889858D01*
X111376016Y-90011852D01*
X111249075Y-90206151D01*
X111155842Y-90418699D01*
X111098866Y-90643691D01*
X111098864Y-90643702D01*
X111079700Y-90874993D01*
X111079700Y-90875006D01*
X111098865Y-91106304D01*
X111098865Y-91106307D01*
X111100454Y-91112578D01*
X111097830Y-91182398D01*
X111067930Y-91230700D01*
X110637180Y-91661450D01*
X110575857Y-91694935D01*
X110506165Y-91689951D01*
X110450232Y-91648079D01*
X110425815Y-91582615D01*
X110425499Y-91573793D01*
X110425499Y-89927128D01*
X110419091Y-89867517D01*
X110409233Y-89841087D01*
X110368797Y-89732671D01*
X110368793Y-89732664D01*
X110282547Y-89617455D01*
X110282544Y-89617452D01*
X110167335Y-89531206D01*
X110167328Y-89531202D01*
X110032482Y-89480908D01*
X110032483Y-89480908D01*
X109972883Y-89474501D01*
X109972881Y-89474500D01*
X109972873Y-89474500D01*
X109972864Y-89474500D01*
X108077129Y-89474500D01*
X108077123Y-89474501D01*
X108017516Y-89480908D01*
X107882671Y-89531202D01*
X107882664Y-89531206D01*
X107767455Y-89617452D01*
X107767452Y-89617455D01*
X107681206Y-89732664D01*
X107681203Y-89732670D01*
X107652544Y-89809508D01*
X107610672Y-89865441D01*
X107545208Y-89889858D01*
X107476935Y-89875006D01*
X107445135Y-89850158D01*
X107436784Y-89841087D01*
X107436778Y-89841082D01*
X107436777Y-89841081D01*
X107253634Y-89698535D01*
X107253628Y-89698531D01*
X107049504Y-89588064D01*
X107049495Y-89588061D01*
X106829984Y-89512702D01*
X106639450Y-89480908D01*
X106601049Y-89474500D01*
X106368951Y-89474500D01*
X106330550Y-89480908D01*
X106140015Y-89512702D01*
X105920504Y-89588061D01*
X105920495Y-89588064D01*
X105716371Y-89698531D01*
X105716365Y-89698535D01*
X105533222Y-89841081D01*
X105533219Y-89841084D01*
X105533216Y-89841086D01*
X105533216Y-89841087D01*
X105488319Y-89889858D01*
X105376016Y-90011852D01*
X105249075Y-90206151D01*
X105155842Y-90418699D01*
X105098866Y-90643691D01*
X105098864Y-90643702D01*
X105079700Y-90874993D01*
X105079700Y-90875006D01*
X105098865Y-91106304D01*
X105098865Y-91106307D01*
X105100454Y-91112578D01*
X105097830Y-91182398D01*
X105067930Y-91230700D01*
X104754291Y-91544339D01*
X104692968Y-91577824D01*
X104623276Y-91572840D01*
X104578929Y-91544339D01*
X104461818Y-91427228D01*
X104428333Y-91365905D01*
X104425499Y-91339547D01*
X104425499Y-89927129D01*
X104425498Y-89927123D01*
X104421492Y-89889858D01*
X104419091Y-89867517D01*
X104409233Y-89841087D01*
X104368797Y-89732671D01*
X104368793Y-89732664D01*
X104282547Y-89617455D01*
X104282544Y-89617452D01*
X104167335Y-89531206D01*
X104167328Y-89531202D01*
X104032482Y-89480908D01*
X104032483Y-89480908D01*
X103972883Y-89474501D01*
X103972881Y-89474500D01*
X103972873Y-89474500D01*
X103972864Y-89474500D01*
X102077129Y-89474500D01*
X102077123Y-89474501D01*
X102017516Y-89480908D01*
X101882671Y-89531202D01*
X101882664Y-89531206D01*
X101767455Y-89617452D01*
X101767452Y-89617455D01*
X101681206Y-89732664D01*
X101681203Y-89732670D01*
X101652544Y-89809508D01*
X101610672Y-89865441D01*
X101545208Y-89889858D01*
X101476935Y-89875006D01*
X101445135Y-89850158D01*
X101436784Y-89841087D01*
X101436778Y-89841082D01*
X101436777Y-89841081D01*
X101253634Y-89698535D01*
X101253628Y-89698531D01*
X101049504Y-89588064D01*
X101049495Y-89588061D01*
X100829984Y-89512702D01*
X100639450Y-89480908D01*
X100601049Y-89474500D01*
X100368951Y-89474500D01*
X100330550Y-89480908D01*
X100140015Y-89512702D01*
X99920504Y-89588061D01*
X99920495Y-89588064D01*
X99716371Y-89698531D01*
X99716365Y-89698535D01*
X99533222Y-89841081D01*
X99533219Y-89841084D01*
X99533216Y-89841086D01*
X99533216Y-89841087D01*
X99488319Y-89889858D01*
X99376016Y-90011852D01*
X99249075Y-90206151D01*
X99155842Y-90418699D01*
X99098866Y-90643691D01*
X99098864Y-90643702D01*
X99079700Y-90874993D01*
X99079700Y-90875006D01*
X99098864Y-91106297D01*
X99098866Y-91106308D01*
X99155842Y-91331300D01*
X99249075Y-91543848D01*
X99376016Y-91738147D01*
X99376019Y-91738151D01*
X99376021Y-91738153D01*
X99533216Y-91908913D01*
X99533219Y-91908915D01*
X99533222Y-91908918D01*
X99716365Y-92051464D01*
X99716371Y-92051468D01*
X99716374Y-92051470D01*
X99920497Y-92161936D01*
X100034487Y-92201068D01*
X100140015Y-92237297D01*
X100140017Y-92237297D01*
X100140019Y-92237298D01*
X100368951Y-92275500D01*
X100368952Y-92275500D01*
X100601048Y-92275500D01*
X100601049Y-92275500D01*
X100829981Y-92237298D01*
X101049503Y-92161936D01*
X101253626Y-92051470D01*
X101436784Y-91908913D01*
X101445130Y-91899846D01*
X101505010Y-91863854D01*
X101574849Y-91865949D01*
X101632468Y-91905469D01*
X101652544Y-91940491D01*
X101681203Y-92017330D01*
X101681206Y-92017335D01*
X101767452Y-92132544D01*
X101767455Y-92132547D01*
X101882664Y-92218793D01*
X101882671Y-92218797D01*
X102017517Y-92269091D01*
X102017516Y-92269091D01*
X102024444Y-92269835D01*
X102077127Y-92275500D01*
X103427500Y-92275499D01*
X103494539Y-92295184D01*
X103540294Y-92347987D01*
X103551500Y-92399499D01*
X103551500Y-99785560D01*
X103549775Y-99801177D01*
X103550061Y-99801204D01*
X103549326Y-99808970D01*
X103551500Y-99878119D01*
X103551500Y-99907648D01*
X103551501Y-99907665D01*
X103552368Y-99914536D01*
X103552826Y-99920355D01*
X103554290Y-99966929D01*
X103554291Y-99966932D01*
X103559880Y-99986172D01*
X103563824Y-100005216D01*
X103564982Y-100014378D01*
X103566336Y-100025096D01*
X103583490Y-100068424D01*
X103585382Y-100073952D01*
X103598381Y-100118693D01*
X103608580Y-100135939D01*
X103617136Y-100153405D01*
X103620148Y-100161011D01*
X103624514Y-100172037D01*
X103651898Y-100209728D01*
X103655106Y-100214612D01*
X103678827Y-100254721D01*
X103678833Y-100254729D01*
X103692990Y-100268885D01*
X103705628Y-100283681D01*
X103717405Y-100299891D01*
X103717406Y-100299892D01*
X103753309Y-100329593D01*
X103757620Y-100333515D01*
X109609788Y-106185684D01*
X111510836Y-108086732D01*
X111544321Y-108148055D01*
X111539337Y-108217747D01*
X111497465Y-108273680D01*
X111432001Y-108298097D01*
X111423155Y-108298413D01*
X108319966Y-108298413D01*
X108252927Y-108278728D01*
X108232285Y-108262094D01*
X100794168Y-100823977D01*
X100760683Y-100762654D01*
X100765667Y-100692962D01*
X100807539Y-100637029D01*
X100873003Y-100612612D01*
X100940864Y-100627240D01*
X101011640Y-100665542D01*
X101016008Y-100668145D01*
X101034855Y-100680459D01*
X101055494Y-100689512D01*
X101060033Y-100691731D01*
X101145190Y-100737816D01*
X101236754Y-100769250D01*
X101241489Y-100771097D01*
X101262116Y-100780145D01*
X101283932Y-100785669D01*
X101288816Y-100787123D01*
X101360089Y-100811591D01*
X101380385Y-100818559D01*
X101412855Y-100823977D01*
X101475866Y-100834491D01*
X101480879Y-100835543D01*
X101502676Y-100841063D01*
X101502678Y-100841063D01*
X101502685Y-100841065D01*
X101525125Y-100842924D01*
X101530169Y-100843552D01*
X101625665Y-100859488D01*
X101625666Y-100859488D01*
X101722448Y-100859488D01*
X101727561Y-100859699D01*
X101743415Y-100861013D01*
X101749998Y-100861559D01*
X101750000Y-100861559D01*
X101750002Y-100861559D01*
X101756584Y-100861013D01*
X101772438Y-100859699D01*
X101777552Y-100859488D01*
X101874330Y-100859488D01*
X101874335Y-100859488D01*
X101969851Y-100843549D01*
X101974862Y-100842925D01*
X101997315Y-100841065D01*
X102019153Y-100835534D01*
X102024105Y-100834496D01*
X102119614Y-100818559D01*
X102211198Y-100787117D01*
X102216042Y-100785676D01*
X102237884Y-100780145D01*
X102258500Y-100771101D01*
X102263234Y-100769253D01*
X102354810Y-100737816D01*
X102439975Y-100691726D01*
X102444505Y-100689512D01*
X102465145Y-100680459D01*
X102484008Y-100668134D01*
X102488337Y-100665554D01*
X102573509Y-100619462D01*
X102649931Y-100559980D01*
X102654018Y-100557061D01*
X102672898Y-100544727D01*
X102689466Y-100529475D01*
X102693341Y-100526192D01*
X102769744Y-100466726D01*
X102835313Y-100395498D01*
X102838897Y-100391913D01*
X102855477Y-100376651D01*
X102869320Y-100358864D01*
X102872581Y-100355014D01*
X102938164Y-100283773D01*
X102991127Y-100202706D01*
X102994053Y-100198608D01*
X103007902Y-100180816D01*
X103018623Y-100161004D01*
X103021233Y-100156624D01*
X103074173Y-100075595D01*
X103113061Y-99986938D01*
X103115299Y-99982363D01*
X103115301Y-99982359D01*
X103126014Y-99962564D01*
X103133336Y-99941234D01*
X103135162Y-99936552D01*
X103174063Y-99847869D01*
X103197826Y-99754029D01*
X103199278Y-99749150D01*
X103206592Y-99727847D01*
X103210296Y-99705646D01*
X103211340Y-99700665D01*
X103235108Y-99606809D01*
X103243104Y-99510309D01*
X103243733Y-99505270D01*
X103247438Y-99483069D01*
X103248088Y-99451577D01*
X103248283Y-99447800D01*
X103255643Y-99358988D01*
X103248284Y-99270178D01*
X103248088Y-99266395D01*
X103247438Y-99234907D01*
X103243733Y-99212702D01*
X103243103Y-99207654D01*
X103235108Y-99111167D01*
X103211341Y-99017315D01*
X103210295Y-99012322D01*
X103206592Y-98990131D01*
X103206591Y-98990128D01*
X103199283Y-98968838D01*
X103197825Y-98963940D01*
X103186138Y-98917790D01*
X103174063Y-98870107D01*
X103171522Y-98864315D01*
X103145205Y-98804318D01*
X103135174Y-98781449D01*
X103133329Y-98776722D01*
X103126014Y-98755412D01*
X103120045Y-98744384D01*
X103115298Y-98735610D01*
X103113052Y-98731017D01*
X103074173Y-98642381D01*
X103074173Y-98642380D01*
X103021231Y-98561346D01*
X103018607Y-98556942D01*
X103007904Y-98537165D01*
X103007902Y-98537160D01*
X102994080Y-98519401D01*
X102991102Y-98515230D01*
X102938166Y-98434206D01*
X102938165Y-98434205D01*
X102938164Y-98434203D01*
X102908241Y-98401698D01*
X102872606Y-98362987D01*
X102869295Y-98359078D01*
X102855477Y-98341325D01*
X102855473Y-98341320D01*
X102838919Y-98326081D01*
X102835301Y-98322464D01*
X102769744Y-98251250D01*
X102693352Y-98191792D01*
X102689444Y-98188481D01*
X102672898Y-98173249D01*
X102654063Y-98160943D01*
X102649897Y-98157969D01*
X102573509Y-98098514D01*
X102573508Y-98098513D01*
X102573505Y-98098511D01*
X102573503Y-98098510D01*
X102488385Y-98052447D01*
X102483981Y-98049823D01*
X102465145Y-98037517D01*
X102457549Y-98034185D01*
X102444544Y-98028480D01*
X102439940Y-98026230D01*
X102354811Y-97980160D01*
X102354802Y-97980157D01*
X102263259Y-97948730D01*
X102258484Y-97946867D01*
X102255076Y-97945372D01*
X102237884Y-97937831D01*
X102237880Y-97937830D01*
X102237878Y-97937829D01*
X102216076Y-97932307D01*
X102211166Y-97930846D01*
X102119614Y-97899417D01*
X102024138Y-97883484D01*
X102019123Y-97882432D01*
X101997312Y-97876910D01*
X101997316Y-97876910D01*
X101974895Y-97875053D01*
X101969810Y-97874419D01*
X101874336Y-97858488D01*
X101874335Y-97858488D01*
X101777541Y-97858488D01*
X101772427Y-97858276D01*
X101756555Y-97856961D01*
X101750002Y-97856418D01*
X101749998Y-97856418D01*
X101743444Y-97856961D01*
X101727572Y-97858276D01*
X101722459Y-97858488D01*
X101625665Y-97858488D01*
X101530188Y-97874419D01*
X101525103Y-97875053D01*
X101502688Y-97876910D01*
X101502683Y-97876911D01*
X101480880Y-97882432D01*
X101475866Y-97883483D01*
X101380382Y-97899417D01*
X101288834Y-97930844D01*
X101283927Y-97932305D01*
X101262126Y-97937827D01*
X101262116Y-97937831D01*
X101241510Y-97946869D01*
X101236738Y-97948730D01*
X101145194Y-97980158D01*
X101145183Y-97980163D01*
X101060062Y-98026228D01*
X101055458Y-98028479D01*
X101034854Y-98037517D01*
X101034845Y-98037522D01*
X101016023Y-98049819D01*
X101011621Y-98052443D01*
X100926492Y-98098512D01*
X100926489Y-98098515D01*
X100850106Y-98157965D01*
X100845938Y-98160942D01*
X100827099Y-98173251D01*
X100810542Y-98188491D01*
X100806635Y-98191800D01*
X100730255Y-98251250D01*
X100664697Y-98322464D01*
X100661075Y-98326086D01*
X100644529Y-98341318D01*
X100644514Y-98341334D01*
X100630699Y-98359082D01*
X100627390Y-98362989D01*
X100561836Y-98434203D01*
X100508901Y-98515224D01*
X100505925Y-98519392D01*
X100492099Y-98537158D01*
X100492094Y-98537165D01*
X100481386Y-98556952D01*
X100478763Y-98561353D01*
X100425828Y-98642378D01*
X100386953Y-98731003D01*
X100384704Y-98735603D01*
X100373985Y-98755412D01*
X100366676Y-98776702D01*
X100364814Y-98781475D01*
X100346077Y-98824192D01*
X100325939Y-98870104D01*
X100325936Y-98870110D01*
X100302177Y-98963930D01*
X100300716Y-98968838D01*
X100293408Y-98990128D01*
X100289705Y-99012315D01*
X100288654Y-99017330D01*
X100264891Y-99111166D01*
X100264891Y-99111170D01*
X100256898Y-99207622D01*
X100256265Y-99212702D01*
X100252562Y-99234907D01*
X100252562Y-99257407D01*
X100252350Y-99262523D01*
X100251713Y-99270216D01*
X100244357Y-99358982D01*
X100244357Y-99358992D01*
X100246077Y-99379744D01*
X100252029Y-99451577D01*
X100252350Y-99455444D01*
X100252562Y-99460567D01*
X100252562Y-99483069D01*
X100256265Y-99505270D01*
X100256899Y-99510353D01*
X100264891Y-99606804D01*
X100264891Y-99606806D01*
X100288654Y-99700645D01*
X100289705Y-99705660D01*
X100293407Y-99727842D01*
X100293409Y-99727850D01*
X100300714Y-99749129D01*
X100302176Y-99754041D01*
X100325935Y-99847862D01*
X100325939Y-99847875D01*
X100364815Y-99936503D01*
X100366677Y-99941274D01*
X100373986Y-99962564D01*
X100373988Y-99962567D01*
X100384698Y-99982359D01*
X100386948Y-99986963D01*
X100425827Y-100075596D01*
X100478764Y-100156622D01*
X100481380Y-100161011D01*
X100487347Y-100172037D01*
X100489335Y-100175710D01*
X100503929Y-100244039D01*
X100479265Y-100309410D01*
X100423174Y-100351070D01*
X100353464Y-100355792D01*
X100292598Y-100322407D01*
X99925019Y-99954828D01*
X99891534Y-99893505D01*
X99888700Y-99867147D01*
X99888700Y-98126742D01*
X99890424Y-98111122D01*
X99890139Y-98111096D01*
X99890871Y-98103340D01*
X99890873Y-98103333D01*
X99888700Y-98034185D01*
X99888700Y-98004650D01*
X99887831Y-97997772D01*
X99887372Y-97991943D01*
X99885909Y-97945372D01*
X99880322Y-97926144D01*
X99876374Y-97907084D01*
X99874714Y-97893939D01*
X99873864Y-97887208D01*
X99873863Y-97887206D01*
X99873863Y-97887204D01*
X99856712Y-97843887D01*
X99854819Y-97838358D01*
X99841818Y-97793609D01*
X99841816Y-97793606D01*
X99831623Y-97776371D01*
X99823061Y-97758894D01*
X99815687Y-97740270D01*
X99809606Y-97731900D01*
X99788279Y-97702545D01*
X99785088Y-97697686D01*
X99761372Y-97657583D01*
X99761365Y-97657574D01*
X99747206Y-97643415D01*
X99734568Y-97628619D01*
X99722794Y-97612413D01*
X99686888Y-97582709D01*
X99682576Y-97578786D01*
X97686819Y-95583028D01*
X97653334Y-95521705D01*
X97650500Y-95495347D01*
X97650500Y-92399499D01*
X97670185Y-92332460D01*
X97722989Y-92286705D01*
X97774500Y-92275499D01*
X97972871Y-92275499D01*
X97972872Y-92275499D01*
X98032483Y-92269091D01*
X98167331Y-92218796D01*
X98282546Y-92132546D01*
X98368796Y-92017331D01*
X98419091Y-91882483D01*
X98425500Y-91822873D01*
X98425499Y-89927128D01*
X98419091Y-89867517D01*
X98409233Y-89841087D01*
X98368797Y-89732671D01*
X98368793Y-89732664D01*
X98282547Y-89617455D01*
X98282544Y-89617452D01*
X98167335Y-89531206D01*
X98167328Y-89531202D01*
X98032482Y-89480908D01*
X98032483Y-89480908D01*
X97972883Y-89474501D01*
X97972881Y-89474500D01*
X97972873Y-89474500D01*
X97972864Y-89474500D01*
X96077129Y-89474500D01*
X96077123Y-89474501D01*
X96017516Y-89480908D01*
X95882671Y-89531202D01*
X95882664Y-89531206D01*
X95767455Y-89617452D01*
X95767452Y-89617455D01*
X95681206Y-89732664D01*
X95681203Y-89732670D01*
X95652544Y-89809508D01*
X95610672Y-89865441D01*
X95545208Y-89889858D01*
X95476935Y-89875006D01*
X95445135Y-89850158D01*
X95436784Y-89841087D01*
X95436778Y-89841082D01*
X95436777Y-89841081D01*
X95253634Y-89698535D01*
X95253628Y-89698531D01*
X95049504Y-89588064D01*
X95049495Y-89588061D01*
X94829984Y-89512702D01*
X94639450Y-89480908D01*
X94601049Y-89474500D01*
X94368951Y-89474500D01*
X94330550Y-89480908D01*
X94140015Y-89512702D01*
X93920504Y-89588061D01*
X93920495Y-89588064D01*
X93716371Y-89698531D01*
X93716365Y-89698535D01*
X93533222Y-89841081D01*
X93533219Y-89841084D01*
X93533216Y-89841086D01*
X93533216Y-89841087D01*
X93488319Y-89889858D01*
X93376016Y-90011852D01*
X93249075Y-90206151D01*
X93155842Y-90418699D01*
X93098866Y-90643691D01*
X93098864Y-90643702D01*
X93079700Y-90874993D01*
X93079700Y-90875006D01*
X92250500Y-90875006D01*
X92250500Y-90352040D01*
X92250634Y-90347971D01*
X92254487Y-90289370D01*
X92270078Y-90078708D01*
X92271102Y-90071195D01*
X92293089Y-89961041D01*
X92300734Y-89927123D01*
X92328271Y-89804925D01*
X92330065Y-89798564D01*
X92369544Y-89682687D01*
X92424132Y-89541699D01*
X92426347Y-89536665D01*
X92481638Y-89424985D01*
X92483252Y-89421948D01*
X92555950Y-89294141D01*
X92558333Y-89290292D01*
X92628248Y-89186108D01*
X92630888Y-89182472D01*
X92721608Y-89066763D01*
X92723798Y-89064129D01*
X92806194Y-88970637D01*
X92810045Y-88966645D01*
X92919798Y-88862727D01*
X92936592Y-88848084D01*
X93012096Y-88782253D01*
X93017262Y-88778212D01*
X93148423Y-88686476D01*
X93242010Y-88624392D01*
X93248596Y-88620585D01*
X93437456Y-88526406D01*
X93489796Y-88500840D01*
X93494736Y-88498688D01*
X93665579Y-88432993D01*
X94292894Y-88193709D01*
X94634203Y-88079119D01*
X95117671Y-87921145D01*
X95492708Y-87813007D01*
X95954881Y-87686474D01*
X96344632Y-87592112D01*
X96803509Y-87490153D01*
X97199715Y-87412166D01*
X97663056Y-87332604D01*
X98059430Y-87272228D01*
X98535113Y-87214162D01*
X98923193Y-87172098D01*
X99430393Y-87135067D01*
X99789743Y-87111755D01*
X100459653Y-87095477D01*
X100646606Y-87091440D01*
X100646606Y-87091439D01*
X100646785Y-87091436D01*
X100647106Y-87091436D01*
X174852894Y-87091436D01*
X174853394Y-87091436D01*
X175039745Y-87095460D01*
G37*
%TD.AperFunction*%
%TD*%
M02*
