%TF.GenerationSoftware,KiCad,Pcbnew,7.0.8*%
%TF.CreationDate,2023-10-19T17:32:50+02:00*%
%TF.ProjectId,16_Channel_LED_Strip,31365f43-6861-46e6-9e65-6c5f4c45445f,rev?*%
%TF.SameCoordinates,Original*%
%TF.FileFunction,Paste,Top*%
%TF.FilePolarity,Positive*%
%FSLAX46Y46*%
G04 Gerber Fmt 4.6, Leading zero omitted, Abs format (unit mm)*
G04 Created by KiCad (PCBNEW 7.0.8) date 2023-10-19 17:32:50*
%MOMM*%
%LPD*%
G01*
G04 APERTURE LIST*
G04 Aperture macros list*
%AMRoundRect*
0 Rectangle with rounded corners*
0 $1 Rounding radius*
0 $2 $3 $4 $5 $6 $7 $8 $9 X,Y pos of 4 corners*
0 Add a 4 corners polygon primitive as box body*
4,1,4,$2,$3,$4,$5,$6,$7,$8,$9,$2,$3,0*
0 Add four circle primitives for the rounded corners*
1,1,$1+$1,$2,$3*
1,1,$1+$1,$4,$5*
1,1,$1+$1,$6,$7*
1,1,$1+$1,$8,$9*
0 Add four rect primitives between the rounded corners*
20,1,$1+$1,$2,$3,$4,$5,0*
20,1,$1+$1,$4,$5,$6,$7,0*
20,1,$1+$1,$6,$7,$8,$9,0*
20,1,$1+$1,$8,$9,$2,$3,0*%
G04 Aperture macros list end*
%ADD10RoundRect,0.250000X-0.350000X-0.450000X0.350000X-0.450000X0.350000X0.450000X-0.350000X0.450000X0*%
%ADD11R,1.475000X0.450000*%
%ADD12RoundRect,0.250000X-0.337500X-0.475000X0.337500X-0.475000X0.337500X0.475000X-0.337500X0.475000X0*%
G04 APERTURE END LIST*
D10*
%TO.C,R5*%
X148931942Y-104218762D03*
X150931942Y-104218762D03*
%TD*%
%TO.C,R4*%
X154931942Y-104218762D03*
X156931942Y-104218762D03*
%TD*%
D11*
%TO.C,IC1*%
X131738000Y-112800000D03*
X131738000Y-112150000D03*
X131738000Y-111500000D03*
X131738000Y-110850000D03*
X131738000Y-110200000D03*
X131738000Y-109550000D03*
X131738000Y-108900000D03*
X131738000Y-108250000D03*
X131738000Y-107600000D03*
X131738000Y-106950000D03*
X131738000Y-106300000D03*
X131738000Y-105650000D03*
X131738000Y-105000000D03*
X131738000Y-104350000D03*
X125862000Y-104350000D03*
X125862000Y-105000000D03*
X125862000Y-105650000D03*
X125862000Y-106300000D03*
X125862000Y-106950000D03*
X125862000Y-107600000D03*
X125862000Y-108250000D03*
X125862000Y-108900000D03*
X125862000Y-109550000D03*
X125862000Y-110200000D03*
X125862000Y-110850000D03*
X125862000Y-111500000D03*
X125862000Y-112150000D03*
X125862000Y-112800000D03*
%TD*%
D10*
%TO.C,R6*%
X142931942Y-104218762D03*
X144931942Y-104218762D03*
%TD*%
%TO.C,R_I2C_2*%
X121619400Y-109744200D03*
X119619400Y-109744200D03*
%TD*%
%TO.C,R3*%
X143045000Y-99175000D03*
X145045000Y-99175000D03*
%TD*%
%TO.C,R8*%
X130825000Y-99175000D03*
X132825000Y-99175000D03*
%TD*%
%TO.C,R12*%
X106825000Y-104175000D03*
X108825000Y-104175000D03*
%TD*%
%TO.C,R11*%
X112825000Y-104175000D03*
X114825000Y-104175000D03*
%TD*%
%TO.C,R7*%
X136825000Y-99175000D03*
X138825000Y-99175000D03*
%TD*%
%TO.C,R13*%
X112925000Y-99175000D03*
X114925000Y-99175000D03*
%TD*%
%TO.C,R_I2C_1*%
X121670200Y-115161400D03*
X119670200Y-115161400D03*
%TD*%
%TO.C,R1*%
X154971000Y-99175000D03*
X156971000Y-99175000D03*
%TD*%
%TO.C,R10*%
X118575000Y-99175000D03*
X120575000Y-99175000D03*
%TD*%
%TO.C,R14*%
X106775000Y-99175000D03*
X108775000Y-99175000D03*
%TD*%
%TO.C,R9*%
X124825000Y-99175000D03*
X126825000Y-99175000D03*
%TD*%
%TO.C,R0*%
X161021000Y-99175000D03*
X163021000Y-99175000D03*
%TD*%
D12*
%TO.C,C1*%
X127687500Y-116525000D03*
X129762500Y-116525000D03*
%TD*%
D10*
%TO.C,R2*%
X148921000Y-99175000D03*
X150921000Y-99175000D03*
%TD*%
M02*
