%TF.GenerationSoftware,KiCad,Pcbnew,7.0.8*%
%TF.CreationDate,2023-10-19T17:32:50+02:00*%
%TF.ProjectId,16_Channel_LED_Strip,31365f43-6861-46e6-9e65-6c5f4c45445f,rev?*%
%TF.SameCoordinates,Original*%
%TF.FileFunction,Copper,L1,Top*%
%TF.FilePolarity,Positive*%
%FSLAX46Y46*%
G04 Gerber Fmt 4.6, Leading zero omitted, Abs format (unit mm)*
G04 Created by KiCad (PCBNEW 7.0.8) date 2023-10-19 17:32:50*
%MOMM*%
%LPD*%
G01*
G04 APERTURE LIST*
G04 Aperture macros list*
%AMRoundRect*
0 Rectangle with rounded corners*
0 $1 Rounding radius*
0 $2 $3 $4 $5 $6 $7 $8 $9 X,Y pos of 4 corners*
0 Add a 4 corners polygon primitive as box body*
4,1,4,$2,$3,$4,$5,$6,$7,$8,$9,$2,$3,0*
0 Add four circle primitives for the rounded corners*
1,1,$1+$1,$2,$3*
1,1,$1+$1,$4,$5*
1,1,$1+$1,$6,$7*
1,1,$1+$1,$8,$9*
0 Add four rect primitives between the rounded corners*
20,1,$1+$1,$2,$3,$4,$5,0*
20,1,$1+$1,$4,$5,$6,$7,0*
20,1,$1+$1,$6,$7,$8,$9,0*
20,1,$1+$1,$8,$9,$2,$3,0*%
G04 Aperture macros list end*
%TA.AperFunction,SMDPad,CuDef*%
%ADD10RoundRect,0.250000X-0.350000X-0.450000X0.350000X-0.450000X0.350000X0.450000X-0.350000X0.450000X0*%
%TD*%
%TA.AperFunction,SMDPad,CuDef*%
%ADD11R,1.475000X0.450000*%
%TD*%
%TA.AperFunction,ComponentPad*%
%ADD12R,1.700000X1.700000*%
%TD*%
%TA.AperFunction,ComponentPad*%
%ADD13O,1.700000X1.700000*%
%TD*%
%TA.AperFunction,SMDPad,CuDef*%
%ADD14RoundRect,0.250000X-0.337500X-0.475000X0.337500X-0.475000X0.337500X0.475000X-0.337500X0.475000X0*%
%TD*%
%TA.AperFunction,ComponentPad*%
%ADD15R,1.800000X1.800000*%
%TD*%
%TA.AperFunction,ComponentPad*%
%ADD16C,1.800000*%
%TD*%
%TA.AperFunction,ViaPad*%
%ADD17C,0.500000*%
%TD*%
%TA.AperFunction,ViaPad*%
%ADD18C,0.800000*%
%TD*%
%TA.AperFunction,Conductor*%
%ADD19C,0.250000*%
%TD*%
%TA.AperFunction,Conductor*%
%ADD20C,0.500000*%
%TD*%
G04 APERTURE END LIST*
D10*
%TO.P,R5,1*%
%TO.N,Net-(D5-A)*%
X148931942Y-104218762D03*
%TO.P,R5,2*%
%TO.N,+BATT*%
X150931942Y-104218762D03*
%TD*%
%TO.P,R4,1*%
%TO.N,Net-(D4-A)*%
X154931942Y-104218762D03*
%TO.P,R4,2*%
%TO.N,+BATT*%
X156931942Y-104218762D03*
%TD*%
D11*
%TO.P,IC1,1,N.C.*%
%TO.N,unconnected-(IC1-N.C.-Pad1)*%
X131738000Y-112800000D03*
%TO.P,IC1,2,A0*%
%TO.N,Earth*%
X131738000Y-112150000D03*
%TO.P,IC1,3,A1*%
X131738000Y-111500000D03*
%TO.P,IC1,4,A2*%
X131738000Y-110850000D03*
%TO.P,IC1,5,A3*%
X131738000Y-110200000D03*
%TO.P,IC1,6,~{OUT0}*%
%TO.N,Net-(D0-K)*%
X131738000Y-109550000D03*
%TO.P,IC1,7,~{OUT1}*%
%TO.N,Net-(D1-K)*%
X131738000Y-108900000D03*
%TO.P,IC1,8,~{OUT2}*%
%TO.N,Net-(D2-K)*%
X131738000Y-108250000D03*
%TO.P,IC1,9,~{OUT3}*%
%TO.N,Net-(D3-K)*%
X131738000Y-107600000D03*
%TO.P,IC1,10,GND_1*%
%TO.N,Earth*%
X131738000Y-106950000D03*
%TO.P,IC1,11,~{OUT4}*%
%TO.N,Net-(D4-K)*%
X131738000Y-106300000D03*
%TO.P,IC1,12,~{OUT5}*%
%TO.N,Net-(D5-K)*%
X131738000Y-105650000D03*
%TO.P,IC1,13,~{OUT6}*%
%TO.N,Net-(D6-K)*%
X131738000Y-105000000D03*
%TO.P,IC1,14,~{OUT7}*%
%TO.N,Net-(D7-K)*%
X131738000Y-104350000D03*
%TO.P,IC1,15,~{OUT8}*%
%TO.N,Net-(D8-K)*%
X125862000Y-104350000D03*
%TO.P,IC1,16,~{OUT9}*%
%TO.N,Net-(D9-K)*%
X125862000Y-105000000D03*
%TO.P,IC1,17,~{OUT10}*%
%TO.N,Net-(D10-K)*%
X125862000Y-105650000D03*
%TO.P,IC1,18,~{OUT11}*%
%TO.N,Net-(D11-K)*%
X125862000Y-106300000D03*
%TO.P,IC1,19,GND_2*%
%TO.N,Earth*%
X125862000Y-106950000D03*
%TO.P,IC1,20,~{OUT12}*%
%TO.N,Net-(D12-K)*%
X125862000Y-107600000D03*
%TO.P,IC1,21,~{OUT13}*%
%TO.N,Net-(D13-K)*%
X125862000Y-108250000D03*
%TO.P,IC1,22,~{OUT14}*%
%TO.N,Net-(D14-K)*%
X125862000Y-108900000D03*
%TO.P,IC1,23,~{OUT15}*%
%TO.N,unconnected-(IC1-~{OUT15}-Pad23)*%
X125862000Y-109550000D03*
%TO.P,IC1,24,GND_3*%
%TO.N,Earth*%
X125862000Y-110200000D03*
%TO.P,IC1,25,~{RESET}*%
%TO.N,/RESET*%
X125862000Y-110850000D03*
%TO.P,IC1,26,SCL*%
%TO.N,/SCL*%
X125862000Y-111500000D03*
%TO.P,IC1,27,SDA*%
%TO.N,/SDA*%
X125862000Y-112150000D03*
%TO.P,IC1,28,VCC*%
%TO.N,+3V3*%
X125862000Y-112800000D03*
%TD*%
D10*
%TO.P,R6,1*%
%TO.N,Net-(D6-A)*%
X142931942Y-104218762D03*
%TO.P,R6,2*%
%TO.N,+BATT*%
X144931942Y-104218762D03*
%TD*%
%TO.P,R_I2C_2,2*%
%TO.N,/SCL*%
X121619400Y-109744200D03*
%TO.P,R_I2C_2,1*%
%TO.N,+3V3*%
X119619400Y-109744200D03*
%TD*%
D12*
%TO.P,J1,1,Pin_1*%
%TO.N,Earth*%
X101983376Y-115002502D03*
D13*
%TO.P,J1,2,Pin_2*%
%TO.N,+3V3*%
X104523376Y-115002502D03*
%TO.P,J1,3,Pin_3*%
%TO.N,+BATT*%
X107063376Y-115002502D03*
%TO.P,J1,4,Pin_4*%
%TO.N,/SCL*%
X109603376Y-115002502D03*
%TO.P,J1,5,Pin_5*%
%TO.N,/SDA*%
X112143376Y-115002502D03*
%TO.P,J1,6,Pin_6*%
%TO.N,/RESET*%
X114683376Y-115002502D03*
%TD*%
D10*
%TO.P,R3,1*%
%TO.N,Net-(D3-A)*%
X143045000Y-99175000D03*
%TO.P,R3,2*%
%TO.N,+BATT*%
X145045000Y-99175000D03*
%TD*%
%TO.P,R8,1*%
%TO.N,Net-(D8-A)*%
X130825000Y-99175000D03*
%TO.P,R8,2*%
%TO.N,+BATT*%
X132825000Y-99175000D03*
%TD*%
%TO.P,R12,1*%
%TO.N,Net-(D12-A)*%
X106825000Y-104175000D03*
%TO.P,R12,2*%
%TO.N,+BATT*%
X108825000Y-104175000D03*
%TD*%
%TO.P,R11,1*%
%TO.N,Net-(D11-A)*%
X112825000Y-104175000D03*
%TO.P,R11,2*%
%TO.N,+BATT*%
X114825000Y-104175000D03*
%TD*%
%TO.P,R7,1*%
%TO.N,Net-(D7-A)*%
X136825000Y-99175000D03*
%TO.P,R7,2*%
%TO.N,+BATT*%
X138825000Y-99175000D03*
%TD*%
%TO.P,R13,1*%
%TO.N,Net-(D13-A)*%
X112925000Y-99175000D03*
%TO.P,R13,2*%
%TO.N,+BATT*%
X114925000Y-99175000D03*
%TD*%
%TO.P,R_I2C_1,2*%
%TO.N,/SDA*%
X121670200Y-115161400D03*
%TO.P,R_I2C_1,1*%
%TO.N,+3V3*%
X119670200Y-115161400D03*
%TD*%
%TO.P,R1,1*%
%TO.N,Net-(D1-A)*%
X154971000Y-99175000D03*
%TO.P,R1,2*%
%TO.N,+BATT*%
X156971000Y-99175000D03*
%TD*%
%TO.P,R10,1*%
%TO.N,Net-(D10-A)*%
X118575000Y-99175000D03*
%TO.P,R10,2*%
%TO.N,+BATT*%
X120575000Y-99175000D03*
%TD*%
%TO.P,R14,1*%
%TO.N,Net-(D14-A)*%
X106775000Y-99175000D03*
%TO.P,R14,2*%
%TO.N,+BATT*%
X108775000Y-99175000D03*
%TD*%
%TO.P,R9,1*%
%TO.N,Net-(D9-A)*%
X124825000Y-99175000D03*
%TO.P,R9,2*%
%TO.N,+BATT*%
X126825000Y-99175000D03*
%TD*%
%TO.P,R0,1*%
%TO.N,Net-(D0-A)*%
X161021000Y-99175000D03*
%TO.P,R0,2*%
%TO.N,+BATT*%
X163021000Y-99175000D03*
%TD*%
D14*
%TO.P,C1,1*%
%TO.N,+3V3*%
X127687500Y-116525000D03*
%TO.P,C1,2*%
%TO.N,Earth*%
X129762500Y-116525000D03*
%TD*%
D10*
%TO.P,R2,1*%
%TO.N,Net-(D2-A)*%
X148921000Y-99175000D03*
%TO.P,R2,2*%
%TO.N,+BATT*%
X150921000Y-99175000D03*
%TD*%
D15*
%TO.P,D1,1,K*%
%TO.N,Net-(D1-K)*%
X175025000Y-90875000D03*
D16*
%TO.P,D1,2,A*%
%TO.N,Net-(D1-A)*%
X172485000Y-90875000D03*
%TD*%
D15*
%TO.P,D2,1,K*%
%TO.N,Net-(D2-K)*%
X169025000Y-90875000D03*
D16*
%TO.P,D2,2,A*%
%TO.N,Net-(D2-A)*%
X166485000Y-90875000D03*
%TD*%
D15*
%TO.P,D7,1,K*%
%TO.N,Net-(D7-K)*%
X139025000Y-90875000D03*
D16*
%TO.P,D7,2,A*%
%TO.N,Net-(D7-A)*%
X136485000Y-90875000D03*
%TD*%
D15*
%TO.P,D3,1,K*%
%TO.N,Net-(D3-K)*%
X163025000Y-90875000D03*
D16*
%TO.P,D3,2,A*%
%TO.N,Net-(D3-A)*%
X160485000Y-90875000D03*
%TD*%
D15*
%TO.P,D8,1,K*%
%TO.N,Net-(D8-K)*%
X133025000Y-90875000D03*
D16*
%TO.P,D8,2,A*%
%TO.N,Net-(D8-A)*%
X130485000Y-90875000D03*
%TD*%
D15*
%TO.P,D5,1,K*%
%TO.N,Net-(D5-K)*%
X151025000Y-90875000D03*
D16*
%TO.P,D5,2,A*%
%TO.N,Net-(D5-A)*%
X148485000Y-90875000D03*
%TD*%
D15*
%TO.P,D0,1,K*%
%TO.N,Net-(D0-K)*%
X181025000Y-90875000D03*
D16*
%TO.P,D0,2,A*%
%TO.N,Net-(D0-A)*%
X178485000Y-90875000D03*
%TD*%
D15*
%TO.P,D12,1,K*%
%TO.N,Net-(D12-K)*%
X109025000Y-90875000D03*
D16*
%TO.P,D12,2,A*%
%TO.N,Net-(D12-A)*%
X106485000Y-90875000D03*
%TD*%
D15*
%TO.P,D6,1,K*%
%TO.N,Net-(D6-K)*%
X145025000Y-90875000D03*
D16*
%TO.P,D6,2,A*%
%TO.N,Net-(D6-A)*%
X142485000Y-90875000D03*
%TD*%
D15*
%TO.P,D11,1,K*%
%TO.N,Net-(D11-K)*%
X115025000Y-90875000D03*
D16*
%TO.P,D11,2,A*%
%TO.N,Net-(D11-A)*%
X112485000Y-90875000D03*
%TD*%
D15*
%TO.P,D13,1,K*%
%TO.N,Net-(D13-K)*%
X103025000Y-90875000D03*
D16*
%TO.P,D13,2,A*%
%TO.N,Net-(D13-A)*%
X100485000Y-90875000D03*
%TD*%
D15*
%TO.P,D4,1,K*%
%TO.N,Net-(D4-K)*%
X157025000Y-90875000D03*
D16*
%TO.P,D4,2,A*%
%TO.N,Net-(D4-A)*%
X154485000Y-90875000D03*
%TD*%
D15*
%TO.P,D9,1,K*%
%TO.N,Net-(D9-K)*%
X127025000Y-90875000D03*
D16*
%TO.P,D9,2,A*%
%TO.N,Net-(D9-A)*%
X124485000Y-90875000D03*
%TD*%
D15*
%TO.P,D14,1,K*%
%TO.N,Net-(D14-K)*%
X97025000Y-90875000D03*
D16*
%TO.P,D14,2,A*%
%TO.N,Net-(D14-A)*%
X94485000Y-90875000D03*
%TD*%
D15*
%TO.P,D10,1,K*%
%TO.N,Net-(D10-K)*%
X121025000Y-90875000D03*
D16*
%TO.P,D10,2,A*%
%TO.N,Net-(D10-A)*%
X118485000Y-90875000D03*
%TD*%
D17*
%TO.N,+3V3*%
X122072400Y-112826800D03*
X124409200Y-112877600D03*
%TO.N,/RESET*%
X124510800Y-110896400D03*
%TO.N,Earth*%
X124256800Y-110236000D03*
%TO.N,Net-(D14-K)*%
X124053600Y-109423200D03*
%TO.N,Net-(D12-K)*%
X124002800Y-107289600D03*
%TO.N,Net-(D13-K)*%
X124053600Y-108305600D03*
%TO.N,Net-(D11-K)*%
X122707400Y-106349800D03*
%TO.N,Net-(D10-K)*%
X123494800Y-105714800D03*
%TO.N,Net-(D9-K)*%
X124307600Y-105054400D03*
%TO.N,Net-(D8-K)*%
X124460000Y-104343200D03*
%TO.N,Net-(D0-K)*%
X134670800Y-109716303D03*
%TO.N,Net-(D1-K)*%
X134670800Y-109016800D03*
%TO.N,Net-(D2-K)*%
X134678090Y-108291486D03*
%TO.N,Net-(D3-K)*%
X134620000Y-107594400D03*
%TO.N,Net-(D4-K)*%
X134620000Y-106324400D03*
%TO.N,Net-(D5-K)*%
X134315200Y-105613200D03*
%TO.N,Net-(D6-K)*%
X133959600Y-104546400D03*
%TO.N,Net-(D7-K)*%
X133400800Y-103784400D03*
D18*
%TO.N,Net-(D4-A)*%
X152908000Y-97028000D03*
%TO.N,Net-(D11-A)*%
X110861250Y-99390157D03*
%TO.N,Net-(D12-A)*%
X104902000Y-99568000D03*
%TD*%
D19*
%TO.N,+3V3*%
X119670200Y-112826800D02*
X119619400Y-112776000D01*
X122072400Y-112826800D02*
X119670200Y-112826800D01*
X125784400Y-112877600D02*
X125862000Y-112800000D01*
X124409200Y-112877600D02*
X125784400Y-112877600D01*
%TO.N,/SDA*%
X124261386Y-112150000D02*
X125862000Y-112150000D01*
X124254794Y-112143408D02*
X124261386Y-112150000D01*
%TO.N,/SCL*%
X124208340Y-111500000D02*
X125862000Y-111500000D01*
X122452540Y-109744200D02*
X124208340Y-111500000D01*
X121619400Y-109744200D02*
X122452540Y-109744200D01*
%TO.N,Earth*%
X124292800Y-110200000D02*
X124256800Y-110236000D01*
X125862000Y-110200000D02*
X124292800Y-110200000D01*
%TO.N,/RESET*%
X124510800Y-110896400D02*
X125815600Y-110896400D01*
X125815600Y-110896400D02*
X125862000Y-110850000D01*
%TO.N,Net-(D12-K)*%
X124313200Y-107600000D02*
X125862000Y-107600000D01*
X124002800Y-107289600D02*
X124313200Y-107600000D01*
%TO.N,Net-(D14-K)*%
X124576800Y-108900000D02*
X125862000Y-108900000D01*
X124053600Y-109423200D02*
X124576800Y-108900000D01*
%TO.N,Net-(D13-K)*%
X125806400Y-108305600D02*
X125862000Y-108250000D01*
X124053600Y-108305600D02*
X125806400Y-108305600D01*
%TO.N,Net-(D11-K)*%
X122707400Y-106349800D02*
X122757200Y-106300000D01*
X122757200Y-106300000D02*
X125862000Y-106300000D01*
%TO.N,Net-(D10-K)*%
X125797200Y-105714800D02*
X125862000Y-105650000D01*
X123494800Y-105714800D02*
X125797200Y-105714800D01*
%TO.N,Net-(D9-K)*%
X125807600Y-105054400D02*
X125862000Y-105000000D01*
X124307600Y-105054400D02*
X125807600Y-105054400D01*
%TO.N,Net-(D8-K)*%
X125855200Y-104343200D02*
X125862000Y-104350000D01*
X124460000Y-104343200D02*
X125855200Y-104343200D01*
%TO.N,Net-(D0-K)*%
X132676423Y-109716303D02*
X134670800Y-109716303D01*
X132510120Y-109550000D02*
X132676423Y-109716303D01*
X131738000Y-109550000D02*
X132510120Y-109550000D01*
%TO.N,Net-(D1-K)*%
X134554000Y-108900000D02*
X134670800Y-109016800D01*
X131738000Y-108900000D02*
X134554000Y-108900000D01*
%TO.N,Net-(D2-K)*%
X134636604Y-108250000D02*
X134678090Y-108291486D01*
X131738000Y-108250000D02*
X134636604Y-108250000D01*
%TO.N,Net-(D3-K)*%
X134614400Y-107600000D02*
X134620000Y-107594400D01*
X131738000Y-107600000D02*
X134614400Y-107600000D01*
%TO.N,Net-(D4-K)*%
X134595600Y-106300000D02*
X134620000Y-106324400D01*
X131738000Y-106300000D02*
X134595600Y-106300000D01*
%TO.N,Net-(D5-K)*%
X134278400Y-105650000D02*
X134315200Y-105613200D01*
X131738000Y-105650000D02*
X134278400Y-105650000D01*
%TO.N,Net-(D6-K)*%
X133506000Y-105000000D02*
X133959600Y-104546400D01*
X131738000Y-105000000D02*
X133506000Y-105000000D01*
%TO.N,Net-(D7-K)*%
X132835200Y-104350000D02*
X133400800Y-103784400D01*
X131738000Y-104350000D02*
X132835200Y-104350000D01*
X131783709Y-104304291D02*
X131738000Y-104350000D01*
%TO.N,Net-(D0-K)*%
X131747857Y-109540143D02*
X131738000Y-109550000D01*
%TO.N,Net-(D1-K)*%
X131742368Y-108904368D02*
X131738000Y-108900000D01*
%TO.N,Net-(D2-K)*%
X131749430Y-108261430D02*
X131738000Y-108250000D01*
%TO.N,Net-(D3-K)*%
X131763655Y-107625655D02*
X131738000Y-107600000D01*
%TO.N,Earth*%
X131748303Y-106960303D02*
X131738000Y-106950000D01*
%TO.N,Net-(D4-K)*%
X131762528Y-106324528D02*
X131738000Y-106300000D01*
%TO.N,Net-(D5-K)*%
X131748625Y-105639375D02*
X131738000Y-105650000D01*
%TO.N,Net-(D6-K)*%
X131741600Y-105003600D02*
X131738000Y-105000000D01*
%TO.N,+3V3*%
X118895630Y-116636400D02*
X127576100Y-116636400D01*
X118888830Y-116629600D02*
X118895630Y-116636400D01*
X106150474Y-116629600D02*
X118888830Y-116629600D01*
X127576100Y-116636400D02*
X127687500Y-116525000D01*
X104523376Y-115002502D02*
X106150474Y-116629600D01*
%TO.N,/SDA*%
X119075226Y-116179600D02*
X113320474Y-116179600D01*
X113320474Y-116179600D02*
X112143376Y-115002502D01*
X119082026Y-116186400D02*
X119075226Y-116179600D01*
X121670200Y-115161400D02*
X120645200Y-116186400D01*
X120645200Y-116186400D02*
X119082026Y-116186400D01*
%TO.N,+3V3*%
X119619400Y-112776000D02*
X119619400Y-115110600D01*
X119619400Y-109744200D02*
X119619400Y-112776000D01*
%TO.N,+BATT*%
X161996000Y-100200000D02*
X163021000Y-99175000D01*
X157996000Y-100200000D02*
X161996000Y-100200000D01*
X156971000Y-99175000D02*
X157996000Y-100200000D01*
X156931942Y-99214058D02*
X156971000Y-99175000D01*
X156931942Y-104218762D02*
X156931942Y-99214058D01*
X146070000Y-100200000D02*
X145045000Y-99175000D01*
X149896000Y-100200000D02*
X146070000Y-100200000D01*
X150921000Y-99175000D02*
X149896000Y-100200000D01*
X150931942Y-99185942D02*
X150921000Y-99175000D01*
X150931942Y-104218762D02*
X150931942Y-99185942D01*
X155906942Y-105243762D02*
X156931942Y-104218762D01*
X150931942Y-104218762D02*
X151956942Y-105243762D01*
X151956942Y-105243762D02*
X155906942Y-105243762D01*
X149906942Y-105243762D02*
X150931942Y-104218762D01*
X145956942Y-105243762D02*
X149906942Y-105243762D01*
X144931942Y-104218762D02*
X145956942Y-105243762D01*
X143906942Y-105243762D02*
X144931942Y-104218762D01*
X138825000Y-101724994D02*
X142343768Y-105243762D01*
X142343768Y-105243762D02*
X143906942Y-105243762D01*
X138825000Y-99175000D02*
X138825000Y-101724994D01*
X132825000Y-99175000D02*
X132825000Y-100973400D01*
X132825000Y-100973400D02*
X132842000Y-100990400D01*
X132842000Y-100990400D02*
X137009600Y-100990400D01*
X126898400Y-100990400D02*
X132842000Y-100990400D01*
X126825000Y-100917000D02*
X126898400Y-100990400D01*
X126825000Y-99175000D02*
X126825000Y-100917000D01*
X122834400Y-100990400D02*
X126898400Y-100990400D01*
X121019000Y-99175000D02*
X122834400Y-100990400D01*
X137009600Y-100990400D02*
X138825000Y-99175000D01*
X120575000Y-99175000D02*
X121019000Y-99175000D01*
X120575000Y-99175000D02*
X118150000Y-101600000D01*
X118150000Y-101600000D02*
X114825000Y-101600000D01*
X114825000Y-101600000D02*
X114825000Y-99275000D01*
X114825000Y-104175000D02*
X114825000Y-101600000D01*
X108775000Y-104125000D02*
X108825000Y-104175000D01*
X108775000Y-99175000D02*
X108775000Y-104125000D01*
X114825000Y-99275000D02*
X114925000Y-99175000D01*
X109850000Y-105200000D02*
X108825000Y-104175000D01*
X114825000Y-104175000D02*
X113800000Y-105200000D01*
X113800000Y-105200000D02*
X109850000Y-105200000D01*
X108825000Y-113240878D02*
X107063376Y-115002502D01*
X108825000Y-104175000D02*
X108825000Y-113240878D01*
%TO.N,Earth*%
X128727200Y-106950000D02*
X128727200Y-108356400D01*
X128727200Y-106950000D02*
X131738000Y-106950000D01*
X125862000Y-106950000D02*
X128727200Y-106950000D01*
X128727200Y-108356400D02*
X126883600Y-110200000D01*
%TO.N,/SCL*%
X121619400Y-109744200D02*
X120594400Y-108719200D01*
X120594400Y-108719200D02*
X115886678Y-108719200D01*
X115886678Y-108719200D02*
X109603376Y-115002502D01*
%TO.N,+3V3*%
X119619400Y-115110600D02*
X119670200Y-115161400D01*
%TO.N,/SDA*%
X121670200Y-114728002D02*
X121670200Y-115161400D01*
X124254794Y-112143408D02*
X121670200Y-114728002D01*
%TO.N,+3V3*%
X127687500Y-114625500D02*
X127687500Y-116525000D01*
X125862000Y-112800000D02*
X127687500Y-114625500D01*
%TO.N,Earth*%
X129762500Y-113328380D02*
X129762500Y-113353380D01*
X126634120Y-110200000D02*
X129762500Y-113328380D01*
X129762500Y-113353380D02*
X129762500Y-116525000D01*
X130965880Y-112150000D02*
X129762500Y-113353380D01*
X131738000Y-112150000D02*
X130965880Y-112150000D01*
X132756800Y-112150000D02*
X133705600Y-111201200D01*
X131738000Y-112150000D02*
X132756800Y-112150000D01*
X133406800Y-111500000D02*
X133705600Y-111201200D01*
X131738000Y-111500000D02*
X133406800Y-111500000D01*
X131738000Y-110850000D02*
X133354400Y-110850000D01*
X133354400Y-110850000D02*
X133705600Y-111201200D01*
X132704400Y-110200000D02*
X133705600Y-111201200D01*
X131738000Y-110200000D02*
X132704400Y-110200000D01*
D20*
%TO.N,Net-(D4-A)*%
X152908000Y-102194820D02*
X152908000Y-97028000D01*
X154931942Y-104218762D02*
X152908000Y-102194820D01*
%TO.N,Net-(D5-A)*%
X141732000Y-101092000D02*
X141732000Y-97628000D01*
X142240000Y-101600000D02*
X141732000Y-101092000D01*
X147906762Y-104218762D02*
X145288000Y-101600000D01*
X145288000Y-101600000D02*
X142240000Y-101600000D01*
X141732000Y-97628000D02*
X148485000Y-90875000D01*
X148931942Y-104218762D02*
X147906762Y-104218762D01*
%TO.N,Net-(D0-A)*%
X173788000Y-95572000D02*
X178485000Y-90875000D01*
X164624000Y-95572000D02*
X173788000Y-95572000D01*
X161021000Y-99175000D02*
X164624000Y-95572000D01*
%TO.N,Net-(D1-A)*%
X168488000Y-94872000D02*
X172485000Y-90875000D01*
X159274000Y-94872000D02*
X168488000Y-94872000D01*
X154971000Y-99175000D02*
X159274000Y-94872000D01*
%TO.N,Net-(D2-A)*%
X163188000Y-94172000D02*
X166485000Y-90875000D01*
X153924000Y-94172000D02*
X163188000Y-94172000D01*
X148921000Y-99175000D02*
X153924000Y-94172000D01*
%TO.N,Net-(D3-A)*%
X157888000Y-93472000D02*
X160485000Y-90875000D01*
X148748000Y-93472000D02*
X157888000Y-93472000D01*
X143045000Y-99175000D02*
X148748000Y-93472000D01*
%TO.N,Net-(D6-A)*%
X142825000Y-104175000D02*
X140970000Y-102320000D01*
X140970000Y-102320000D02*
X140970000Y-92390000D01*
X140970000Y-92390000D02*
X142485000Y-90875000D01*
%TO.N,Net-(D7-A)*%
X136825000Y-91215000D02*
X136485000Y-90875000D01*
X136825000Y-99175000D02*
X136825000Y-91215000D01*
%TO.N,Net-(D8-A)*%
X130825000Y-91215000D02*
X130485000Y-90875000D01*
X130825000Y-99175000D02*
X130825000Y-91215000D01*
%TO.N,Net-(D9-A)*%
X124825000Y-91215000D02*
X124485000Y-90875000D01*
X124825000Y-99175000D02*
X124825000Y-91215000D01*
%TO.N,Net-(D10-A)*%
X118575000Y-90965000D02*
X118485000Y-90875000D01*
X118575000Y-99175000D02*
X118575000Y-90965000D01*
%TO.N,Net-(D11-A)*%
X110861250Y-99390157D02*
X110885644Y-99438944D01*
X110885644Y-102249644D02*
X110861250Y-99390157D01*
X111506000Y-102870000D02*
X110885644Y-102249644D01*
X112825000Y-104175000D02*
X112811000Y-104175000D01*
X112811000Y-104175000D02*
X111506000Y-102870000D01*
%TO.N,Net-(D12-A)*%
X104902000Y-102362000D02*
X104902000Y-99568000D01*
X105664000Y-103124000D02*
X104902000Y-102362000D01*
X106715000Y-104175000D02*
X105664000Y-103124000D01*
X106825000Y-104175000D02*
X106715000Y-104175000D01*
%TO.N,Net-(D13-A)*%
X110016000Y-96266000D02*
X112925000Y-99175000D01*
X100485000Y-90875000D02*
X105876000Y-96266000D01*
X105876000Y-96266000D02*
X110016000Y-96266000D01*
%TO.N,Net-(D14-A)*%
X100130000Y-96520000D02*
X104120000Y-96520000D01*
X104120000Y-96520000D02*
X106775000Y-99175000D01*
X94485000Y-90875000D02*
X100130000Y-96520000D01*
%TD*%
%TA.AperFunction,Conductor*%
%TO.N,+BATT*%
G36*
X175039745Y-87095460D02*
G01*
X175710104Y-87111741D01*
X176070409Y-87135115D01*
X176576643Y-87172076D01*
X176965399Y-87214215D01*
X177440311Y-87272187D01*
X177837306Y-87332658D01*
X178299991Y-87412108D01*
X178696742Y-87490202D01*
X179155059Y-87592039D01*
X179545291Y-87686518D01*
X180006824Y-87812876D01*
X180382280Y-87921137D01*
X180382520Y-87921206D01*
X180865031Y-88078869D01*
X181207283Y-88193777D01*
X181831037Y-88431703D01*
X182005338Y-88498729D01*
X182005354Y-88498735D01*
X182010312Y-88500894D01*
X182032034Y-88511502D01*
X182061032Y-88525665D01*
X182251803Y-88620836D01*
X182258398Y-88624649D01*
X182349480Y-88685065D01*
X182351498Y-88686476D01*
X182483182Y-88778572D01*
X182488380Y-88782637D01*
X182579073Y-88861705D01*
X182606816Y-88887971D01*
X182690428Y-88967134D01*
X182694311Y-88971158D01*
X182775468Y-89063242D01*
X182777746Y-89065981D01*
X182869591Y-89183117D01*
X182872283Y-89186824D01*
X182941233Y-89289564D01*
X182943644Y-89293460D01*
X183017253Y-89422865D01*
X183018925Y-89426011D01*
X183073376Y-89535990D01*
X183075628Y-89541106D01*
X183131004Y-89684125D01*
X183169801Y-89797994D01*
X183171598Y-89804364D01*
X183207473Y-89963559D01*
X183228850Y-90070651D01*
X183229882Y-90078218D01*
X183246065Y-90296844D01*
X183249366Y-90347042D01*
X183249500Y-90351111D01*
X183249500Y-95461258D01*
X183249380Y-95465113D01*
X183245472Y-95527841D01*
X183232057Y-95719459D01*
X183231132Y-95726632D01*
X183210744Y-95834670D01*
X183179968Y-95979179D01*
X183178356Y-95985231D01*
X183142133Y-96097989D01*
X183094027Y-96229906D01*
X183092000Y-96234803D01*
X183041398Y-96343651D01*
X183039894Y-96346669D01*
X182975578Y-96467382D01*
X182973406Y-96471135D01*
X182909306Y-96573498D01*
X182906877Y-96577090D01*
X182826367Y-96687652D01*
X182824308Y-96690323D01*
X182748481Y-96783369D01*
X182744961Y-96787330D01*
X182647292Y-96888206D01*
X182561655Y-96970037D01*
X182556914Y-96974130D01*
X182440348Y-97064913D01*
X182352042Y-97130436D01*
X182345997Y-97134398D01*
X182181197Y-97229156D01*
X182124459Y-97261196D01*
X182121051Y-97262983D01*
X176597073Y-99944119D01*
X139060978Y-118162758D01*
X139058431Y-118163924D01*
X139019110Y-118180859D01*
X138782307Y-118279692D01*
X138777711Y-118281400D01*
X138668033Y-118317299D01*
X138484370Y-118370592D01*
X138480981Y-118371472D01*
X138361524Y-118398931D01*
X138358090Y-118399619D01*
X138169583Y-118431870D01*
X138055246Y-118447465D01*
X138050366Y-118447935D01*
X137794326Y-118462413D01*
X137765472Y-118463718D01*
X137751342Y-118464357D01*
X137748554Y-118464420D01*
X101678447Y-118464420D01*
X101675204Y-118464335D01*
X101656602Y-118463360D01*
X101548093Y-118457674D01*
X101359380Y-118447052D01*
X101353161Y-118446387D01*
X101205132Y-118422942D01*
X101038195Y-118394579D01*
X101032531Y-118393341D01*
X100882420Y-118353121D01*
X100724604Y-118307657D01*
X100719547Y-118305961D01*
X100572237Y-118249414D01*
X100422293Y-118187307D01*
X100417870Y-118185268D01*
X100276082Y-118113025D01*
X100248987Y-118098050D01*
X100134806Y-118034946D01*
X100131045Y-118032690D01*
X99996853Y-117945546D01*
X99865501Y-117852347D01*
X99862360Y-117849965D01*
X99738764Y-117749881D01*
X99736484Y-117747942D01*
X99617534Y-117641644D01*
X99615011Y-117639259D01*
X99502477Y-117526726D01*
X99500088Y-117524199D01*
X99406161Y-117419096D01*
X99393785Y-117405247D01*
X99391854Y-117402979D01*
X99291743Y-117279354D01*
X99289395Y-117276257D01*
X99196168Y-117144868D01*
X99170772Y-117105763D01*
X99109040Y-117010705D01*
X99106791Y-117006959D01*
X99028696Y-116865658D01*
X99010015Y-116828996D01*
X98956435Y-116723841D01*
X98954407Y-116719441D01*
X98892297Y-116569495D01*
X98881622Y-116541686D01*
X98835746Y-116422179D01*
X98834065Y-116417167D01*
X98788579Y-116259285D01*
X98748363Y-116109200D01*
X98747132Y-116103567D01*
X98718770Y-115936650D01*
X98713024Y-115900372D01*
X100632876Y-115900372D01*
X100632877Y-115900378D01*
X100639284Y-115959985D01*
X100689578Y-116094830D01*
X100689582Y-116094837D01*
X100775828Y-116210046D01*
X100775831Y-116210049D01*
X100891040Y-116296295D01*
X100891047Y-116296299D01*
X101025893Y-116346593D01*
X101025892Y-116346593D01*
X101032820Y-116347337D01*
X101085503Y-116353002D01*
X102881248Y-116353001D01*
X102940859Y-116346593D01*
X103075707Y-116296298D01*
X103190922Y-116210048D01*
X103277172Y-116094833D01*
X103326186Y-115963418D01*
X103368057Y-115907486D01*
X103433521Y-115883068D01*
X103501794Y-115897919D01*
X103530049Y-115919071D01*
X103651975Y-116040997D01*
X103741334Y-116103567D01*
X103845541Y-116176534D01*
X103845543Y-116176535D01*
X103845546Y-116176537D01*
X104059713Y-116276405D01*
X104287968Y-116337565D01*
X104464410Y-116353002D01*
X104523375Y-116358161D01*
X104523376Y-116358161D01*
X104523377Y-116358161D01*
X104582342Y-116353002D01*
X104758784Y-116337565D01*
X104859249Y-116310645D01*
X104929098Y-116312308D01*
X104979023Y-116342739D01*
X105649671Y-117013388D01*
X105659496Y-117025651D01*
X105659717Y-117025469D01*
X105664688Y-117031478D01*
X105684422Y-117050009D01*
X105715109Y-117078826D01*
X105736003Y-117099720D01*
X105741485Y-117103973D01*
X105745917Y-117107757D01*
X105779892Y-117139662D01*
X105797450Y-117149314D01*
X105813707Y-117159993D01*
X105829538Y-117172273D01*
X105849211Y-117180786D01*
X105872307Y-117190782D01*
X105877551Y-117193350D01*
X105918382Y-117215797D01*
X105930997Y-117219035D01*
X105937779Y-117220777D01*
X105956193Y-117227081D01*
X105974578Y-117235038D01*
X106020631Y-117242332D01*
X106026300Y-117243506D01*
X106071455Y-117255100D01*
X106091490Y-117255100D01*
X106110887Y-117256626D01*
X106130670Y-117259760D01*
X106177058Y-117255375D01*
X106182896Y-117255100D01*
X118774463Y-117255100D01*
X118805294Y-117258994D01*
X118816611Y-117261900D01*
X118836646Y-117261900D01*
X118856043Y-117263426D01*
X118875826Y-117266560D01*
X118922214Y-117262175D01*
X118928052Y-117261900D01*
X126560554Y-117261900D01*
X126627593Y-117281585D01*
X126666092Y-117320803D01*
X126706295Y-117385984D01*
X126754590Y-117464283D01*
X126757288Y-117468656D01*
X126881344Y-117592712D01*
X127030666Y-117684814D01*
X127197203Y-117739999D01*
X127299991Y-117750500D01*
X128075008Y-117750499D01*
X128075016Y-117750498D01*
X128075019Y-117750498D01*
X128131302Y-117744748D01*
X128177797Y-117739999D01*
X128344334Y-117684814D01*
X128493656Y-117592712D01*
X128617712Y-117468656D01*
X128619461Y-117465819D01*
X128621169Y-117464283D01*
X128622193Y-117462989D01*
X128622414Y-117463163D01*
X128671406Y-117419096D01*
X128740368Y-117407872D01*
X128804451Y-117435713D01*
X128830537Y-117465817D01*
X128832288Y-117468656D01*
X128956344Y-117592712D01*
X129105666Y-117684814D01*
X129272203Y-117739999D01*
X129374991Y-117750500D01*
X130150008Y-117750499D01*
X130150016Y-117750498D01*
X130150019Y-117750498D01*
X130206302Y-117744748D01*
X130252797Y-117739999D01*
X130419334Y-117684814D01*
X130568656Y-117592712D01*
X130692712Y-117468656D01*
X130784814Y-117319334D01*
X130839999Y-117152797D01*
X130850500Y-117050009D01*
X130850499Y-115999992D01*
X130849602Y-115991215D01*
X130839999Y-115897203D01*
X130839998Y-115897200D01*
X130823660Y-115847895D01*
X130784814Y-115730666D01*
X130692712Y-115581344D01*
X130568656Y-115457288D01*
X130446902Y-115382190D01*
X130400179Y-115330243D01*
X130388000Y-115276652D01*
X130388000Y-113663831D01*
X130407685Y-113596792D01*
X130424310Y-113576159D01*
X130552666Y-113447803D01*
X130613984Y-113414321D01*
X130683676Y-113419305D01*
X130714653Y-113436219D01*
X130757209Y-113468077D01*
X130758168Y-113468795D01*
X130758171Y-113468797D01*
X130893017Y-113519091D01*
X130893016Y-113519091D01*
X130899944Y-113519835D01*
X130952627Y-113525500D01*
X132523372Y-113525499D01*
X132582983Y-113519091D01*
X132717831Y-113468796D01*
X132833046Y-113382546D01*
X132919296Y-113267331D01*
X132969591Y-113132483D01*
X132976000Y-113072873D01*
X132975999Y-112820224D01*
X132995683Y-112753186D01*
X133048487Y-112707431D01*
X133054344Y-112704935D01*
X133060532Y-112702486D01*
X133098249Y-112675082D01*
X133103105Y-112671892D01*
X133143220Y-112648170D01*
X133157389Y-112633999D01*
X133172179Y-112621368D01*
X133188387Y-112609594D01*
X133218099Y-112573676D01*
X133222012Y-112569376D01*
X133807386Y-111984002D01*
X133822183Y-111971366D01*
X133838384Y-111959596D01*
X133838383Y-111959596D01*
X133838387Y-111959594D01*
X133868096Y-111923680D01*
X133872009Y-111919380D01*
X134097799Y-111693590D01*
X134115782Y-111678714D01*
X134122538Y-111674124D01*
X134160528Y-111631031D01*
X134163152Y-111628237D01*
X134175720Y-111615671D01*
X134186590Y-111601654D01*
X134189075Y-111598652D01*
X134205289Y-111580260D01*
X134227051Y-111555578D01*
X134230760Y-111548297D01*
X134243270Y-111528584D01*
X134248273Y-111522136D01*
X134271076Y-111469438D01*
X134272725Y-111465934D01*
X134298798Y-111414765D01*
X134300579Y-111406793D01*
X134307792Y-111384595D01*
X134311038Y-111377096D01*
X134320023Y-111320354D01*
X134320744Y-111316577D01*
X134333273Y-111260533D01*
X134333016Y-111252364D01*
X134334483Y-111229067D01*
X134334846Y-111226768D01*
X134335760Y-111221004D01*
X134330356Y-111163852D01*
X134330113Y-111159980D01*
X134328310Y-111102573D01*
X134326027Y-111094716D01*
X134321655Y-111071797D01*
X134320887Y-111063667D01*
X134301438Y-111009644D01*
X134300235Y-111005940D01*
X134284219Y-110950813D01*
X134284219Y-110950812D01*
X134284218Y-110950810D01*
X134280058Y-110943776D01*
X134270121Y-110922658D01*
X134267354Y-110914972D01*
X134235078Y-110867479D01*
X134232993Y-110864194D01*
X134203771Y-110814782D01*
X134203770Y-110814780D01*
X134197997Y-110809007D01*
X134183121Y-110791026D01*
X134178524Y-110784262D01*
X134178520Y-110784258D01*
X134178519Y-110784257D01*
X134135444Y-110746282D01*
X134132620Y-110743630D01*
X133990867Y-110601877D01*
X133942474Y-110553484D01*
X133908989Y-110492161D01*
X133913973Y-110422469D01*
X133955845Y-110366536D01*
X134021309Y-110342119D01*
X134030155Y-110341803D01*
X134219924Y-110341803D01*
X134285895Y-110360808D01*
X134343110Y-110396759D01*
X134464421Y-110439207D01*
X134502743Y-110452617D01*
X134670797Y-110471552D01*
X134670800Y-110471552D01*
X134670803Y-110471552D01*
X134838856Y-110452617D01*
X134851699Y-110448123D01*
X134998490Y-110396759D01*
X134998492Y-110396757D01*
X134998494Y-110396757D01*
X134998497Y-110396755D01*
X135141684Y-110306784D01*
X135141685Y-110306783D01*
X135141690Y-110306780D01*
X135261277Y-110187193D01*
X135351252Y-110044000D01*
X135351254Y-110043997D01*
X135351254Y-110043995D01*
X135351256Y-110043993D01*
X135407113Y-109884362D01*
X135407113Y-109884361D01*
X135407114Y-109884359D01*
X135426049Y-109716305D01*
X135426049Y-109716300D01*
X135407113Y-109548243D01*
X135407113Y-109548241D01*
X135357867Y-109407506D01*
X135354305Y-109337727D01*
X135357867Y-109325596D01*
X135407113Y-109184860D01*
X135407113Y-109184859D01*
X135426049Y-109016802D01*
X135426049Y-109016797D01*
X135407113Y-108848740D01*
X135407113Y-108848738D01*
X135356996Y-108705513D01*
X135353434Y-108635734D01*
X135356996Y-108623602D01*
X135358543Y-108619180D01*
X135358546Y-108619176D01*
X135414403Y-108459545D01*
X135430428Y-108317323D01*
X135433339Y-108291488D01*
X135433339Y-108291483D01*
X135416336Y-108140579D01*
X135414403Y-108123427D01*
X135358546Y-107963796D01*
X135343630Y-107940058D01*
X135324630Y-107872823D01*
X135331583Y-107833132D01*
X135334526Y-107824722D01*
X135356313Y-107762459D01*
X135356313Y-107762457D01*
X135356314Y-107762455D01*
X135375249Y-107594402D01*
X135375249Y-107594397D01*
X135356314Y-107426343D01*
X135308466Y-107289602D01*
X135300456Y-107266710D01*
X135300455Y-107266709D01*
X135300454Y-107266705D01*
X135300452Y-107266702D01*
X135210481Y-107123515D01*
X135210476Y-107123509D01*
X135134048Y-107047081D01*
X135100563Y-106985758D01*
X135105547Y-106916066D01*
X135134048Y-106871719D01*
X135210477Y-106795290D01*
X135300452Y-106652097D01*
X135300454Y-106652094D01*
X135300454Y-106652092D01*
X135300456Y-106652090D01*
X135356313Y-106492459D01*
X135356313Y-106492458D01*
X135356314Y-106492456D01*
X135375249Y-106324402D01*
X135375249Y-106324397D01*
X135356314Y-106156343D01*
X135311099Y-106027127D01*
X135300456Y-105996710D01*
X135300455Y-105996709D01*
X135300454Y-105996705D01*
X135300452Y-105996702D01*
X135210481Y-105853515D01*
X135210476Y-105853509D01*
X135102519Y-105745552D01*
X135069034Y-105684229D01*
X135066980Y-105643986D01*
X135070449Y-105613200D01*
X135070449Y-105613197D01*
X135051514Y-105445143D01*
X135004836Y-105311745D01*
X134995656Y-105285510D01*
X134995655Y-105285509D01*
X134995654Y-105285505D01*
X134995652Y-105285502D01*
X134905681Y-105142315D01*
X134905676Y-105142309D01*
X134786088Y-105022721D01*
X134707470Y-104973322D01*
X134661180Y-104920988D01*
X134650532Y-104851934D01*
X134656400Y-104827381D01*
X134695913Y-104714459D01*
X134714849Y-104546400D01*
X134711702Y-104518470D01*
X134695914Y-104378343D01*
X134657238Y-104267813D01*
X134640056Y-104218710D01*
X134640055Y-104218709D01*
X134640054Y-104218705D01*
X134640052Y-104218702D01*
X134550081Y-104075515D01*
X134550076Y-104075509D01*
X134430490Y-103955923D01*
X134430484Y-103955918D01*
X134287299Y-103865948D01*
X134287291Y-103865944D01*
X134233767Y-103847215D01*
X134176991Y-103806493D01*
X134151503Y-103744057D01*
X134148655Y-103718782D01*
X134144422Y-103681206D01*
X134137114Y-103616344D01*
X134121703Y-103572302D01*
X134081256Y-103456710D01*
X134081255Y-103456708D01*
X134081254Y-103456705D01*
X134081252Y-103456702D01*
X133991281Y-103313515D01*
X133991276Y-103313509D01*
X133871690Y-103193923D01*
X133871684Y-103193918D01*
X133728497Y-103103947D01*
X133728494Y-103103945D01*
X133568856Y-103048085D01*
X133400803Y-103029151D01*
X133400797Y-103029151D01*
X133232743Y-103048085D01*
X133073105Y-103103945D01*
X133073102Y-103103947D01*
X132929915Y-103193918D01*
X132929909Y-103193923D01*
X132810323Y-103313509D01*
X132810318Y-103313515D01*
X132720347Y-103456702D01*
X132720344Y-103456708D01*
X132689109Y-103545975D01*
X132648387Y-103602752D01*
X132583434Y-103628499D01*
X132558819Y-103628311D01*
X132523373Y-103624500D01*
X132523364Y-103624500D01*
X130952629Y-103624500D01*
X130952623Y-103624501D01*
X130893016Y-103630908D01*
X130758171Y-103681202D01*
X130758164Y-103681206D01*
X130642955Y-103767452D01*
X130642952Y-103767455D01*
X130556706Y-103882664D01*
X130556702Y-103882671D01*
X130506410Y-104017513D01*
X130506409Y-104017517D01*
X130500000Y-104077127D01*
X130500000Y-104077134D01*
X130500000Y-104077135D01*
X130500000Y-104622869D01*
X130500001Y-104622878D01*
X130504179Y-104661745D01*
X130504179Y-104688250D01*
X130500000Y-104727122D01*
X130500000Y-105272869D01*
X130500001Y-105272878D01*
X130504179Y-105311745D01*
X130504179Y-105338250D01*
X130500000Y-105377122D01*
X130500000Y-105922869D01*
X130500001Y-105922878D01*
X130504179Y-105961745D01*
X130504179Y-105988250D01*
X130500000Y-106027122D01*
X130500000Y-106027127D01*
X130500000Y-106156343D01*
X130500001Y-106200499D01*
X130480317Y-106267539D01*
X130427513Y-106313294D01*
X130376001Y-106324500D01*
X128798047Y-106324500D01*
X128774815Y-106322304D01*
X128766788Y-106320773D01*
X128766786Y-106320773D01*
X128757833Y-106321336D01*
X128709475Y-106324378D01*
X128705603Y-106324500D01*
X127224000Y-106324500D01*
X127156961Y-106304815D01*
X127111206Y-106252011D01*
X127100000Y-106200501D01*
X127099999Y-106027128D01*
X127099998Y-106027111D01*
X127095820Y-105988253D01*
X127095820Y-105961745D01*
X127100000Y-105922873D01*
X127099999Y-105377128D01*
X127099999Y-105377127D01*
X127099998Y-105377111D01*
X127095820Y-105338253D01*
X127095820Y-105311745D01*
X127100000Y-105272873D01*
X127099999Y-104727128D01*
X127099999Y-104727127D01*
X127099998Y-104727111D01*
X127095820Y-104688253D01*
X127095820Y-104661745D01*
X127100000Y-104622873D01*
X127099999Y-104077128D01*
X127093591Y-104017517D01*
X127092842Y-104015510D01*
X127043297Y-103882671D01*
X127043293Y-103882664D01*
X126957047Y-103767455D01*
X126957044Y-103767452D01*
X126841835Y-103681206D01*
X126841828Y-103681202D01*
X126706982Y-103630908D01*
X126706983Y-103630908D01*
X126647383Y-103624501D01*
X126647381Y-103624500D01*
X126647373Y-103624500D01*
X126647364Y-103624500D01*
X125076629Y-103624500D01*
X125076623Y-103624501D01*
X125017016Y-103630908D01*
X124898734Y-103675025D01*
X124829042Y-103680009D01*
X124793992Y-103665700D01*
X124793962Y-103665764D01*
X124792920Y-103665262D01*
X124789430Y-103663837D01*
X124787690Y-103662744D01*
X124764033Y-103654466D01*
X124628056Y-103606885D01*
X124460003Y-103587951D01*
X124459997Y-103587951D01*
X124291943Y-103606885D01*
X124132305Y-103662745D01*
X124132302Y-103662747D01*
X123989115Y-103752718D01*
X123989109Y-103752723D01*
X123869523Y-103872309D01*
X123869518Y-103872315D01*
X123779547Y-104015502D01*
X123779545Y-104015505D01*
X123723685Y-104175143D01*
X123704751Y-104343197D01*
X123704751Y-104343202D01*
X123724466Y-104518178D01*
X123721874Y-104518470D01*
X123718329Y-104576266D01*
X123706708Y-104600085D01*
X123627143Y-104726709D01*
X123627142Y-104726713D01*
X123573490Y-104880042D01*
X123532769Y-104936818D01*
X123470333Y-104962307D01*
X123326743Y-104978485D01*
X123167105Y-105034345D01*
X123167102Y-105034347D01*
X123023915Y-105124318D01*
X123023909Y-105124323D01*
X122904323Y-105243909D01*
X122904318Y-105243915D01*
X122814347Y-105387102D01*
X122814342Y-105387113D01*
X122768900Y-105516979D01*
X122728179Y-105573755D01*
X122665743Y-105599244D01*
X122539343Y-105613485D01*
X122379705Y-105669345D01*
X122379702Y-105669347D01*
X122236515Y-105759318D01*
X122236509Y-105759323D01*
X122116923Y-105878909D01*
X122116918Y-105878915D01*
X122026947Y-106022102D01*
X122026945Y-106022105D01*
X121971085Y-106181743D01*
X121952151Y-106349797D01*
X121952151Y-106349802D01*
X121971085Y-106517856D01*
X122026945Y-106677494D01*
X122026947Y-106677497D01*
X122116918Y-106820684D01*
X122116923Y-106820690D01*
X122236509Y-106940276D01*
X122236515Y-106940281D01*
X122379702Y-107030252D01*
X122379705Y-107030254D01*
X122379709Y-107030255D01*
X122379710Y-107030256D01*
X122452313Y-107055660D01*
X122539343Y-107086114D01*
X122707397Y-107105049D01*
X122707400Y-107105049D01*
X122707403Y-107105049D01*
X122875456Y-107086114D01*
X122875459Y-107086113D01*
X123035090Y-107030256D01*
X123045318Y-107023828D01*
X123077163Y-107003820D01*
X123144400Y-106984819D01*
X123211235Y-107005186D01*
X123256450Y-107058454D01*
X123266356Y-107122696D01*
X123247551Y-107289596D01*
X123247551Y-107289602D01*
X123266485Y-107457656D01*
X123322345Y-107617294D01*
X123322347Y-107617297D01*
X123416027Y-107766386D01*
X123414854Y-107767122D01*
X123438371Y-107824722D01*
X123425617Y-107893417D01*
X123420010Y-107903323D01*
X123373145Y-107977907D01*
X123317285Y-108137543D01*
X123298351Y-108305597D01*
X123298351Y-108305602D01*
X123317285Y-108473656D01*
X123373145Y-108633294D01*
X123373147Y-108633297D01*
X123463118Y-108776484D01*
X123463123Y-108776490D01*
X123463352Y-108776719D01*
X123463452Y-108776902D01*
X123467464Y-108781933D01*
X123466582Y-108782635D01*
X123496837Y-108838042D01*
X123491853Y-108907734D01*
X123466960Y-108946465D01*
X123467464Y-108946867D01*
X123463543Y-108951782D01*
X123463352Y-108952081D01*
X123463123Y-108952309D01*
X123463118Y-108952315D01*
X123373147Y-109095502D01*
X123373145Y-109095505D01*
X123317285Y-109255144D01*
X123298601Y-109420972D01*
X123271534Y-109485386D01*
X123213939Y-109524941D01*
X123144102Y-109527078D01*
X123087700Y-109494769D01*
X122953343Y-109360412D01*
X122943520Y-109348150D01*
X122943299Y-109348334D01*
X122938326Y-109342323D01*
X122933432Y-109337727D01*
X122887904Y-109294973D01*
X122877459Y-109284528D01*
X122867015Y-109274083D01*
X122861526Y-109269825D01*
X122857101Y-109266047D01*
X122823122Y-109234138D01*
X122823120Y-109234136D01*
X122823117Y-109234135D01*
X122805569Y-109224488D01*
X122789303Y-109213804D01*
X122773472Y-109201524D01*
X122772905Y-109201279D01*
X122772531Y-109200967D01*
X122766759Y-109197554D01*
X122767309Y-109196622D01*
X122719201Y-109156584D01*
X122704456Y-109126486D01*
X122695351Y-109099009D01*
X122654214Y-108974866D01*
X122562112Y-108825544D01*
X122438056Y-108701488D01*
X122325216Y-108631888D01*
X122288736Y-108609387D01*
X122288731Y-108609385D01*
X122225689Y-108588495D01*
X122122197Y-108554201D01*
X122122195Y-108554200D01*
X122019416Y-108543700D01*
X122019409Y-108543700D01*
X121354853Y-108543700D01*
X121287814Y-108524015D01*
X121267172Y-108507381D01*
X121095203Y-108335412D01*
X121085380Y-108323150D01*
X121085159Y-108323334D01*
X121080186Y-108317323D01*
X121029764Y-108269973D01*
X121019319Y-108259528D01*
X121008875Y-108249083D01*
X121003386Y-108244825D01*
X120998961Y-108241047D01*
X120964982Y-108209138D01*
X120964980Y-108209136D01*
X120964977Y-108209135D01*
X120947429Y-108199488D01*
X120931163Y-108188804D01*
X120915333Y-108176525D01*
X120872568Y-108158018D01*
X120867322Y-108155448D01*
X120826493Y-108133003D01*
X120826492Y-108133002D01*
X120807093Y-108128022D01*
X120788681Y-108121718D01*
X120770298Y-108113762D01*
X120770292Y-108113760D01*
X120724274Y-108106472D01*
X120718552Y-108105287D01*
X120673421Y-108093700D01*
X120673419Y-108093700D01*
X120653384Y-108093700D01*
X120633986Y-108092173D01*
X120626562Y-108090997D01*
X120614205Y-108089040D01*
X120614204Y-108089040D01*
X120567816Y-108093425D01*
X120561978Y-108093700D01*
X115969421Y-108093700D01*
X115953800Y-108091975D01*
X115953774Y-108092261D01*
X115946012Y-108091527D01*
X115946011Y-108091527D01*
X115876864Y-108093700D01*
X115847327Y-108093700D01*
X115840444Y-108094569D01*
X115834627Y-108095026D01*
X115788051Y-108096490D01*
X115768807Y-108102081D01*
X115749757Y-108106025D01*
X115729889Y-108108534D01*
X115686562Y-108125688D01*
X115681036Y-108127579D01*
X115636292Y-108140579D01*
X115636288Y-108140581D01*
X115619044Y-108150779D01*
X115601583Y-108159333D01*
X115582952Y-108166710D01*
X115582940Y-108166717D01*
X115545248Y-108194102D01*
X115540365Y-108197309D01*
X115500258Y-108221029D01*
X115486092Y-108235195D01*
X115471302Y-108247827D01*
X115455092Y-108259604D01*
X115455089Y-108259607D01*
X115425388Y-108295509D01*
X115421455Y-108299831D01*
X110059022Y-113662263D01*
X109997699Y-113695748D01*
X109939249Y-113694357D01*
X109838784Y-113667439D01*
X109603377Y-113646843D01*
X109603375Y-113646843D01*
X109367972Y-113667438D01*
X109367962Y-113667440D01*
X109139720Y-113728596D01*
X109139711Y-113728600D01*
X108925547Y-113828466D01*
X108925545Y-113828467D01*
X108731973Y-113964007D01*
X108564884Y-114131096D01*
X108434645Y-114317097D01*
X108380068Y-114360721D01*
X108310569Y-114367914D01*
X108248215Y-114336392D01*
X108231495Y-114317096D01*
X108101489Y-114131428D01*
X108101484Y-114131422D01*
X107934458Y-113964396D01*
X107740954Y-113828901D01*
X107526868Y-113729072D01*
X107526862Y-113729069D01*
X107313376Y-113671866D01*
X107313376Y-114567000D01*
X107205691Y-114517822D01*
X107099139Y-114502502D01*
X107027613Y-114502502D01*
X106921061Y-114517822D01*
X106813376Y-114567000D01*
X106813376Y-113671866D01*
X106813375Y-113671866D01*
X106599889Y-113729069D01*
X106599883Y-113729072D01*
X106385798Y-113828901D01*
X106385796Y-113828902D01*
X106192302Y-113964388D01*
X106192296Y-113964393D01*
X106025267Y-114131422D01*
X106025266Y-114131424D01*
X105895256Y-114317097D01*
X105840679Y-114360721D01*
X105771180Y-114367914D01*
X105708826Y-114336392D01*
X105692106Y-114317096D01*
X105561870Y-114131099D01*
X105394778Y-113964008D01*
X105394771Y-113964003D01*
X105390339Y-113960900D01*
X105317894Y-113910173D01*
X105201210Y-113828469D01*
X105201206Y-113828467D01*
X105201204Y-113828466D01*
X104987039Y-113728599D01*
X104987035Y-113728598D01*
X104987031Y-113728596D01*
X104758789Y-113667440D01*
X104758779Y-113667438D01*
X104523377Y-113646843D01*
X104523375Y-113646843D01*
X104287972Y-113667438D01*
X104287962Y-113667440D01*
X104059720Y-113728596D01*
X104059711Y-113728600D01*
X103845547Y-113828466D01*
X103845545Y-113828467D01*
X103651976Y-113964005D01*
X103530049Y-114085932D01*
X103468726Y-114119416D01*
X103399034Y-114114432D01*
X103343101Y-114072560D01*
X103326186Y-114041583D01*
X103277173Y-113910173D01*
X103277169Y-113910166D01*
X103190923Y-113794957D01*
X103190920Y-113794954D01*
X103075711Y-113708708D01*
X103075704Y-113708704D01*
X102940858Y-113658410D01*
X102940859Y-113658410D01*
X102881259Y-113652003D01*
X102881257Y-113652002D01*
X102881249Y-113652002D01*
X102881240Y-113652002D01*
X101085505Y-113652002D01*
X101085499Y-113652003D01*
X101025892Y-113658410D01*
X100891047Y-113708704D01*
X100891040Y-113708708D01*
X100775831Y-113794954D01*
X100775828Y-113794957D01*
X100689582Y-113910166D01*
X100689578Y-113910173D01*
X100639284Y-114045019D01*
X100632877Y-114104618D01*
X100632876Y-114104637D01*
X100632876Y-115900372D01*
X98713024Y-115900372D01*
X98695317Y-115788576D01*
X98694655Y-115782388D01*
X98683645Y-115586378D01*
X98677409Y-115467411D01*
X98677325Y-115464167D01*
X98677325Y-101677459D01*
X98677340Y-101677407D01*
X98677347Y-101626070D01*
X98677370Y-101465849D01*
X98641587Y-101147410D01*
X98570471Y-100834959D01*
X98464911Y-100532402D01*
X98326229Y-100243523D01*
X98156159Y-99971936D01*
X97956826Y-99721038D01*
X97730726Y-99493965D01*
X97730725Y-99493964D01*
X97730721Y-99493960D01*
X97562325Y-99358992D01*
X100244357Y-99358992D01*
X100246077Y-99379744D01*
X100252029Y-99451577D01*
X100252350Y-99455444D01*
X100252562Y-99460567D01*
X100252562Y-99483069D01*
X100256265Y-99505270D01*
X100256899Y-99510353D01*
X100264891Y-99606804D01*
X100264891Y-99606806D01*
X100288654Y-99700645D01*
X100289705Y-99705660D01*
X100293407Y-99727842D01*
X100293409Y-99727850D01*
X100300714Y-99749129D01*
X100302176Y-99754041D01*
X100325935Y-99847862D01*
X100325939Y-99847875D01*
X100364815Y-99936503D01*
X100366679Y-99941279D01*
X100372568Y-99958435D01*
X100373986Y-99962564D01*
X100373988Y-99962567D01*
X100384698Y-99982359D01*
X100386948Y-99986963D01*
X100425827Y-100075596D01*
X100478764Y-100156622D01*
X100481388Y-100161026D01*
X100492095Y-100180811D01*
X100492098Y-100180816D01*
X100505926Y-100198583D01*
X100508903Y-100202753D01*
X100561834Y-100283770D01*
X100561838Y-100283775D01*
X100627393Y-100354988D01*
X100630706Y-100358899D01*
X100644522Y-100376650D01*
X100661080Y-100391893D01*
X100664694Y-100395507D01*
X100730256Y-100466726D01*
X100806651Y-100526187D01*
X100810547Y-100529487D01*
X100813718Y-100532406D01*
X100827099Y-100544725D01*
X100845936Y-100557032D01*
X100850102Y-100560006D01*
X100926491Y-100619462D01*
X101011640Y-100665542D01*
X101016001Y-100668141D01*
X101034855Y-100680459D01*
X101055494Y-100689512D01*
X101060033Y-100691731D01*
X101145190Y-100737816D01*
X101236754Y-100769250D01*
X101241489Y-100771097D01*
X101262116Y-100780145D01*
X101283932Y-100785669D01*
X101288816Y-100787123D01*
X101360089Y-100811591D01*
X101380385Y-100818559D01*
X101414189Y-100824199D01*
X101475866Y-100834491D01*
X101480879Y-100835543D01*
X101502676Y-100841063D01*
X101502678Y-100841063D01*
X101502685Y-100841065D01*
X101525125Y-100842924D01*
X101530169Y-100843552D01*
X101625665Y-100859488D01*
X101625666Y-100859488D01*
X101722448Y-100859488D01*
X101727561Y-100859699D01*
X101743415Y-100861013D01*
X101749998Y-100861559D01*
X101750000Y-100861559D01*
X101750002Y-100861559D01*
X101756584Y-100861013D01*
X101772438Y-100859699D01*
X101777552Y-100859488D01*
X101874330Y-100859488D01*
X101874335Y-100859488D01*
X101969851Y-100843549D01*
X101974862Y-100842925D01*
X101997315Y-100841065D01*
X102019153Y-100835534D01*
X102024105Y-100834496D01*
X102119614Y-100818559D01*
X102211198Y-100787117D01*
X102216042Y-100785676D01*
X102237884Y-100780145D01*
X102258500Y-100771101D01*
X102263234Y-100769253D01*
X102354810Y-100737816D01*
X102439975Y-100691726D01*
X102444505Y-100689512D01*
X102465145Y-100680459D01*
X102484008Y-100668134D01*
X102488337Y-100665554D01*
X102573509Y-100619462D01*
X102649931Y-100559980D01*
X102654018Y-100557061D01*
X102672898Y-100544727D01*
X102689466Y-100529475D01*
X102693341Y-100526192D01*
X102769744Y-100466726D01*
X102835313Y-100395498D01*
X102838897Y-100391913D01*
X102855477Y-100376651D01*
X102869320Y-100358864D01*
X102872581Y-100355014D01*
X102938164Y-100283773D01*
X102991127Y-100202706D01*
X102994053Y-100198608D01*
X103007902Y-100180816D01*
X103018623Y-100161004D01*
X103021233Y-100156624D01*
X103074173Y-100075595D01*
X103113061Y-99986938D01*
X103115299Y-99982363D01*
X103115301Y-99982359D01*
X103126014Y-99962564D01*
X103133336Y-99941234D01*
X103135162Y-99936552D01*
X103174063Y-99847869D01*
X103197826Y-99754029D01*
X103199278Y-99749150D01*
X103206592Y-99727847D01*
X103210296Y-99705646D01*
X103211340Y-99700665D01*
X103235108Y-99606809D01*
X103243104Y-99510309D01*
X103243733Y-99505270D01*
X103247438Y-99483069D01*
X103248088Y-99451577D01*
X103248283Y-99447800D01*
X103255643Y-99358988D01*
X103248284Y-99270178D01*
X103248088Y-99266395D01*
X103247438Y-99234907D01*
X103243733Y-99212702D01*
X103243103Y-99207654D01*
X103235108Y-99111167D01*
X103211341Y-99017315D01*
X103210295Y-99012322D01*
X103206592Y-98990131D01*
X103206591Y-98990128D01*
X103199283Y-98968838D01*
X103197825Y-98963940D01*
X103174062Y-98870104D01*
X103158496Y-98834618D01*
X103135174Y-98781449D01*
X103133329Y-98776722D01*
X103126014Y-98755412D01*
X103115298Y-98735610D01*
X103113052Y-98731017D01*
X103075456Y-98645305D01*
X103074173Y-98642380D01*
X103021231Y-98561346D01*
X103018607Y-98556942D01*
X103007904Y-98537165D01*
X103007902Y-98537160D01*
X102994080Y-98519401D01*
X102991102Y-98515230D01*
X102938166Y-98434206D01*
X102938165Y-98434205D01*
X102938164Y-98434203D01*
X102897543Y-98390077D01*
X102872606Y-98362987D01*
X102869295Y-98359078D01*
X102855477Y-98341325D01*
X102855473Y-98341320D01*
X102838919Y-98326081D01*
X102835301Y-98322464D01*
X102769744Y-98251250D01*
X102693352Y-98191792D01*
X102689444Y-98188481D01*
X102672898Y-98173249D01*
X102654063Y-98160943D01*
X102649897Y-98157969D01*
X102573509Y-98098514D01*
X102573508Y-98098513D01*
X102573505Y-98098511D01*
X102573503Y-98098510D01*
X102488385Y-98052447D01*
X102483981Y-98049823D01*
X102465145Y-98037517D01*
X102444547Y-98028482D01*
X102439940Y-98026230D01*
X102354811Y-97980160D01*
X102354802Y-97980157D01*
X102263259Y-97948730D01*
X102258484Y-97946867D01*
X102257141Y-97946278D01*
X102237884Y-97937831D01*
X102237880Y-97937830D01*
X102237878Y-97937829D01*
X102216076Y-97932307D01*
X102211166Y-97930846D01*
X102119614Y-97899417D01*
X102024138Y-97883484D01*
X102019123Y-97882432D01*
X101997312Y-97876910D01*
X101997316Y-97876910D01*
X101974895Y-97875053D01*
X101969810Y-97874419D01*
X101874336Y-97858488D01*
X101874335Y-97858488D01*
X101777541Y-97858488D01*
X101772427Y-97858276D01*
X101756555Y-97856961D01*
X101750002Y-97856418D01*
X101749998Y-97856418D01*
X101743444Y-97856961D01*
X101727572Y-97858276D01*
X101722459Y-97858488D01*
X101625665Y-97858488D01*
X101530188Y-97874419D01*
X101525103Y-97875053D01*
X101502688Y-97876910D01*
X101502683Y-97876911D01*
X101480880Y-97882432D01*
X101475866Y-97883483D01*
X101380382Y-97899417D01*
X101288834Y-97930844D01*
X101283927Y-97932305D01*
X101262126Y-97937827D01*
X101262116Y-97937831D01*
X101241510Y-97946869D01*
X101236738Y-97948730D01*
X101145194Y-97980158D01*
X101145183Y-97980163D01*
X101060062Y-98026228D01*
X101055458Y-98028479D01*
X101034854Y-98037517D01*
X101034845Y-98037522D01*
X101016023Y-98049819D01*
X101011621Y-98052443D01*
X100926492Y-98098512D01*
X100926489Y-98098515D01*
X100850106Y-98157965D01*
X100845938Y-98160942D01*
X100827099Y-98173251D01*
X100810542Y-98188491D01*
X100806635Y-98191800D01*
X100730255Y-98251250D01*
X100664697Y-98322464D01*
X100661075Y-98326086D01*
X100644529Y-98341318D01*
X100644514Y-98341334D01*
X100630699Y-98359082D01*
X100627390Y-98362989D01*
X100561836Y-98434203D01*
X100508901Y-98515224D01*
X100505925Y-98519392D01*
X100492099Y-98537158D01*
X100492094Y-98537165D01*
X100481386Y-98556952D01*
X100478763Y-98561353D01*
X100425828Y-98642378D01*
X100386953Y-98731003D01*
X100384704Y-98735603D01*
X100373985Y-98755412D01*
X100366676Y-98776702D01*
X100364814Y-98781475D01*
X100363773Y-98783849D01*
X100325939Y-98870104D01*
X100325936Y-98870110D01*
X100302177Y-98963930D01*
X100300716Y-98968838D01*
X100293408Y-98990128D01*
X100289705Y-99012315D01*
X100288654Y-99017330D01*
X100264891Y-99111166D01*
X100264891Y-99111170D01*
X100256898Y-99207622D01*
X100256265Y-99212702D01*
X100252562Y-99234907D01*
X100252562Y-99257407D01*
X100252350Y-99262523D01*
X100251713Y-99270216D01*
X100244357Y-99358982D01*
X100244357Y-99358992D01*
X97562325Y-99358992D01*
X97480688Y-99293561D01*
X97480686Y-99293560D01*
X97480684Y-99293558D01*
X97387911Y-99234907D01*
X97209829Y-99122323D01*
X97209823Y-99122320D01*
X97114527Y-99076087D01*
X97069935Y-99054452D01*
X97065767Y-99052429D01*
X93378652Y-97262839D01*
X93375253Y-97261057D01*
X93320662Y-97230231D01*
X93153942Y-97134384D01*
X93147903Y-97130427D01*
X93059818Y-97065068D01*
X93044089Y-97052819D01*
X92943021Y-96974108D01*
X92938296Y-96970030D01*
X92852797Y-96888329D01*
X92852678Y-96888206D01*
X92754970Y-96787291D01*
X92751465Y-96783348D01*
X92675739Y-96690425D01*
X92673681Y-96687754D01*
X92593057Y-96577034D01*
X92590629Y-96573442D01*
X92526621Y-96471227D01*
X92524450Y-96467473D01*
X92460035Y-96346570D01*
X92458540Y-96343570D01*
X92408008Y-96234864D01*
X92405994Y-96229998D01*
X92357815Y-96097869D01*
X92321643Y-95985263D01*
X92320046Y-95979263D01*
X92289206Y-95834421D01*
X92289161Y-95834181D01*
X92268873Y-95726654D01*
X92267953Y-95719518D01*
X92254617Y-95529120D01*
X92250620Y-95464883D01*
X92250500Y-95461032D01*
X92250500Y-90875006D01*
X93079700Y-90875006D01*
X93098864Y-91106297D01*
X93098866Y-91106308D01*
X93155842Y-91331300D01*
X93249075Y-91543848D01*
X93376016Y-91738147D01*
X93376019Y-91738151D01*
X93376021Y-91738153D01*
X93533216Y-91908913D01*
X93533219Y-91908915D01*
X93533222Y-91908918D01*
X93716365Y-92051464D01*
X93716371Y-92051468D01*
X93716374Y-92051470D01*
X93920497Y-92161936D01*
X94034487Y-92201068D01*
X94140015Y-92237297D01*
X94140017Y-92237297D01*
X94140019Y-92237298D01*
X94368951Y-92275500D01*
X94368952Y-92275500D01*
X94601047Y-92275500D01*
X94601049Y-92275500D01*
X94729274Y-92254102D01*
X94798635Y-92262483D01*
X94837362Y-92288730D01*
X99554267Y-97005634D01*
X99566048Y-97019266D01*
X99580390Y-97038530D01*
X99620420Y-97072119D01*
X99624392Y-97075759D01*
X99630224Y-97081591D01*
X99630227Y-97081594D01*
X99655947Y-97101931D01*
X99714788Y-97151304D01*
X99720818Y-97155270D01*
X99720785Y-97155319D01*
X99727143Y-97159369D01*
X99727175Y-97159319D01*
X99733320Y-97163109D01*
X99733323Y-97163111D01*
X99802936Y-97195572D01*
X99871567Y-97230040D01*
X99871572Y-97230041D01*
X99878361Y-97232513D01*
X99878340Y-97232570D01*
X99885455Y-97235043D01*
X99885475Y-97234986D01*
X99892330Y-97237258D01*
X99967558Y-97252790D01*
X100042279Y-97270500D01*
X100042289Y-97270500D01*
X100049452Y-97271338D01*
X100049444Y-97271397D01*
X100056945Y-97272164D01*
X100056951Y-97272105D01*
X100064140Y-97272734D01*
X100064144Y-97272733D01*
X100064145Y-97272734D01*
X100140918Y-97270500D01*
X103757770Y-97270500D01*
X103824809Y-97290185D01*
X103845451Y-97306819D01*
X104994451Y-98455819D01*
X105027936Y-98517142D01*
X105022952Y-98586834D01*
X104981080Y-98642767D01*
X104915616Y-98667184D01*
X104906770Y-98667500D01*
X104807354Y-98667500D01*
X104774897Y-98674398D01*
X104622197Y-98706855D01*
X104622192Y-98706857D01*
X104449270Y-98783848D01*
X104449265Y-98783851D01*
X104296129Y-98895111D01*
X104169466Y-99035785D01*
X104074821Y-99199715D01*
X104074818Y-99199722D01*
X104016327Y-99379740D01*
X104016326Y-99379744D01*
X103996540Y-99568000D01*
X104016326Y-99756256D01*
X104017036Y-99758441D01*
X104074818Y-99936277D01*
X104074821Y-99936284D01*
X104121135Y-100016503D01*
X104134887Y-100040321D01*
X104151500Y-100102321D01*
X104151500Y-102298294D01*
X104150191Y-102316263D01*
X104146710Y-102340025D01*
X104151264Y-102392064D01*
X104151500Y-102397470D01*
X104151500Y-102405709D01*
X104152702Y-102415998D01*
X104155306Y-102438274D01*
X104162000Y-102514791D01*
X104163461Y-102521867D01*
X104163403Y-102521878D01*
X104165034Y-102529237D01*
X104165092Y-102529224D01*
X104166757Y-102536250D01*
X104193025Y-102608424D01*
X104217185Y-102681331D01*
X104220236Y-102687874D01*
X104220182Y-102687898D01*
X104223470Y-102694688D01*
X104223521Y-102694663D01*
X104226761Y-102701113D01*
X104226762Y-102701114D01*
X104226763Y-102701117D01*
X104268965Y-102765283D01*
X104309287Y-102830655D01*
X104313766Y-102836319D01*
X104313719Y-102836356D01*
X104318482Y-102842202D01*
X104318528Y-102842164D01*
X104323173Y-102847700D01*
X104379017Y-102900385D01*
X105071288Y-103592656D01*
X105688181Y-104209548D01*
X105721666Y-104270871D01*
X105724500Y-104297229D01*
X105724500Y-104675001D01*
X105724501Y-104675019D01*
X105735000Y-104777796D01*
X105735001Y-104777799D01*
X105790185Y-104944331D01*
X105790187Y-104944336D01*
X105807314Y-104972103D01*
X105882288Y-105093656D01*
X106006344Y-105217712D01*
X106155666Y-105309814D01*
X106322203Y-105364999D01*
X106424991Y-105375500D01*
X107225008Y-105375499D01*
X107225016Y-105375498D01*
X107225019Y-105375498D01*
X107281302Y-105369748D01*
X107327797Y-105364999D01*
X107494334Y-105309814D01*
X107643656Y-105217712D01*
X107737675Y-105123692D01*
X107798994Y-105090210D01*
X107868686Y-105095194D01*
X107913034Y-105123695D01*
X108006654Y-105217315D01*
X108155875Y-105309356D01*
X108155880Y-105309358D01*
X108322302Y-105364505D01*
X108322309Y-105364506D01*
X108425019Y-105374999D01*
X108574999Y-105374999D01*
X108575000Y-105374998D01*
X108575000Y-104425000D01*
X109075000Y-104425000D01*
X109075000Y-105374999D01*
X109224972Y-105374999D01*
X109224986Y-105374998D01*
X109327697Y-105364505D01*
X109494119Y-105309358D01*
X109494124Y-105309356D01*
X109643345Y-105217315D01*
X109767315Y-105093345D01*
X109859356Y-104944124D01*
X109859358Y-104944119D01*
X109914505Y-104777697D01*
X109914506Y-104777690D01*
X109924999Y-104674986D01*
X109925000Y-104674973D01*
X109925000Y-104425000D01*
X109075000Y-104425000D01*
X108575000Y-104425000D01*
X108575000Y-102975000D01*
X109075000Y-102975000D01*
X109075000Y-103925000D01*
X109924999Y-103925000D01*
X109924999Y-103675025D01*
X109924998Y-103675013D01*
X109914505Y-103572302D01*
X109859358Y-103405880D01*
X109859356Y-103405875D01*
X109767315Y-103256654D01*
X109643345Y-103132684D01*
X109494124Y-103040643D01*
X109494119Y-103040641D01*
X109327697Y-102985494D01*
X109327690Y-102985493D01*
X109224986Y-102975000D01*
X109075000Y-102975000D01*
X108575000Y-102975000D01*
X108425027Y-102975000D01*
X108425012Y-102975001D01*
X108322302Y-102985494D01*
X108155880Y-103040641D01*
X108155875Y-103040643D01*
X108006657Y-103132682D01*
X107913034Y-103226305D01*
X107851710Y-103259789D01*
X107782019Y-103254805D01*
X107737672Y-103226304D01*
X107643657Y-103132289D01*
X107643656Y-103132288D01*
X107507144Y-103048087D01*
X107494336Y-103040187D01*
X107494331Y-103040185D01*
X107492862Y-103039698D01*
X107327797Y-102985001D01*
X107327795Y-102985000D01*
X107225016Y-102974500D01*
X107225009Y-102974500D01*
X106627230Y-102974500D01*
X106560191Y-102954815D01*
X106539549Y-102938181D01*
X106162535Y-102561167D01*
X106162516Y-102561149D01*
X105688819Y-102087451D01*
X105655334Y-102026128D01*
X105652500Y-101999770D01*
X105652500Y-100213230D01*
X105672185Y-100146191D01*
X105724989Y-100100436D01*
X105794147Y-100090492D01*
X105857703Y-100119517D01*
X105864181Y-100125549D01*
X105956344Y-100217712D01*
X106105666Y-100309814D01*
X106272203Y-100364999D01*
X106374991Y-100375500D01*
X107175008Y-100375499D01*
X107175016Y-100375498D01*
X107175019Y-100375498D01*
X107231302Y-100369748D01*
X107277797Y-100364999D01*
X107444334Y-100309814D01*
X107593656Y-100217712D01*
X107687675Y-100123692D01*
X107748994Y-100090210D01*
X107818686Y-100095194D01*
X107863034Y-100123695D01*
X107956654Y-100217315D01*
X108105875Y-100309356D01*
X108105880Y-100309358D01*
X108272302Y-100364505D01*
X108272309Y-100364506D01*
X108375019Y-100374999D01*
X108524999Y-100374999D01*
X108525000Y-100374998D01*
X108525000Y-97975000D01*
X108375027Y-97975000D01*
X108375012Y-97975001D01*
X108272302Y-97985494D01*
X108105880Y-98040641D01*
X108105875Y-98040643D01*
X107956657Y-98132682D01*
X107863034Y-98226305D01*
X107801710Y-98259789D01*
X107732019Y-98254805D01*
X107687672Y-98226304D01*
X107593657Y-98132289D01*
X107593656Y-98132288D01*
X107500180Y-98074632D01*
X107444336Y-98040187D01*
X107444331Y-98040185D01*
X107436295Y-98037522D01*
X107277797Y-97985001D01*
X107277795Y-97985000D01*
X107175016Y-97974500D01*
X107175009Y-97974500D01*
X106687230Y-97974500D01*
X106620191Y-97954815D01*
X106599549Y-97938181D01*
X105889549Y-97228181D01*
X105856064Y-97166858D01*
X105861048Y-97097166D01*
X105902920Y-97041233D01*
X105968384Y-97016816D01*
X105977230Y-97016500D01*
X109653770Y-97016500D01*
X109720809Y-97036185D01*
X109741451Y-97052819D01*
X110966608Y-98277976D01*
X111000093Y-98339299D01*
X110995109Y-98408991D01*
X110953237Y-98464924D01*
X110887773Y-98489341D01*
X110878927Y-98489657D01*
X110766604Y-98489657D01*
X110734147Y-98496555D01*
X110581447Y-98529012D01*
X110581442Y-98529014D01*
X110408520Y-98606005D01*
X110408515Y-98606008D01*
X110255379Y-98717268D01*
X110128717Y-98857940D01*
X110106386Y-98896619D01*
X110055818Y-98944834D01*
X109987211Y-98958056D01*
X109922346Y-98932088D01*
X109881819Y-98875173D01*
X109874999Y-98834618D01*
X109874999Y-98675028D01*
X109874998Y-98675012D01*
X109864505Y-98572302D01*
X109809358Y-98405880D01*
X109809356Y-98405875D01*
X109717315Y-98256654D01*
X109593345Y-98132684D01*
X109444124Y-98040643D01*
X109444119Y-98040641D01*
X109277697Y-97985494D01*
X109277690Y-97985493D01*
X109174986Y-97975000D01*
X109025000Y-97975000D01*
X109025000Y-100374999D01*
X109174972Y-100374999D01*
X109174986Y-100374998D01*
X109277697Y-100364505D01*
X109444119Y-100309358D01*
X109444124Y-100309356D01*
X109593345Y-100217315D01*
X109717315Y-100093345D01*
X109809356Y-99944124D01*
X109809359Y-99944117D01*
X109843469Y-99841179D01*
X109883241Y-99783734D01*
X109947757Y-99756910D01*
X110016532Y-99769225D01*
X110067733Y-99816767D01*
X110068562Y-99818182D01*
X110098731Y-99870436D01*
X110115339Y-99931378D01*
X110134595Y-102188589D01*
X110133291Y-102207616D01*
X110130355Y-102227661D01*
X110130354Y-102227671D01*
X110135210Y-102283167D01*
X110135444Y-102288042D01*
X110135543Y-102299751D01*
X110135543Y-102299755D01*
X110139230Y-102329117D01*
X110145644Y-102402436D01*
X110145646Y-102402446D01*
X110146323Y-102404489D01*
X110151647Y-102428025D01*
X110151915Y-102430163D01*
X110151916Y-102430166D01*
X110177680Y-102499117D01*
X110200830Y-102568978D01*
X110200833Y-102568986D01*
X110201955Y-102570804D01*
X110212569Y-102592490D01*
X110213321Y-102594504D01*
X110213323Y-102594508D01*
X110254296Y-102655660D01*
X110292931Y-102718299D01*
X110294450Y-102719818D01*
X110309784Y-102738478D01*
X110310977Y-102740259D01*
X110364929Y-102790298D01*
X110658579Y-103083947D01*
X110913288Y-103338656D01*
X111318689Y-103744057D01*
X111688181Y-104113548D01*
X111721666Y-104174871D01*
X111724500Y-104201229D01*
X111724500Y-104675001D01*
X111724501Y-104675019D01*
X111735000Y-104777796D01*
X111735001Y-104777799D01*
X111790185Y-104944331D01*
X111790187Y-104944336D01*
X111807314Y-104972103D01*
X111882288Y-105093656D01*
X112006344Y-105217712D01*
X112155666Y-105309814D01*
X112322203Y-105364999D01*
X112424991Y-105375500D01*
X113225008Y-105375499D01*
X113225016Y-105375498D01*
X113225019Y-105375498D01*
X113281302Y-105369748D01*
X113327797Y-105364999D01*
X113494334Y-105309814D01*
X113643656Y-105217712D01*
X113737675Y-105123692D01*
X113798994Y-105090210D01*
X113868686Y-105095194D01*
X113913034Y-105123695D01*
X114006654Y-105217315D01*
X114155875Y-105309356D01*
X114155880Y-105309358D01*
X114322302Y-105364505D01*
X114322309Y-105364506D01*
X114425019Y-105374999D01*
X114574999Y-105374999D01*
X114575000Y-105374998D01*
X114575000Y-104425000D01*
X115075000Y-104425000D01*
X115075000Y-105374999D01*
X115224972Y-105374999D01*
X115224986Y-105374998D01*
X115327697Y-105364505D01*
X115494119Y-105309358D01*
X115494124Y-105309356D01*
X115643345Y-105217315D01*
X115767315Y-105093345D01*
X115859356Y-104944124D01*
X115859358Y-104944119D01*
X115914505Y-104777697D01*
X115914506Y-104777690D01*
X115924999Y-104674986D01*
X115925000Y-104674973D01*
X115925000Y-104425000D01*
X115075000Y-104425000D01*
X114575000Y-104425000D01*
X114575000Y-102975000D01*
X115075000Y-102975000D01*
X115075000Y-103925000D01*
X115924999Y-103925000D01*
X115924999Y-103675025D01*
X115924998Y-103675013D01*
X115914505Y-103572302D01*
X115859358Y-103405880D01*
X115859356Y-103405875D01*
X115767315Y-103256654D01*
X115643345Y-103132684D01*
X115494124Y-103040643D01*
X115494119Y-103040641D01*
X115327697Y-102985494D01*
X115327690Y-102985493D01*
X115224986Y-102975000D01*
X115075000Y-102975000D01*
X114575000Y-102975000D01*
X114425027Y-102975000D01*
X114425012Y-102975001D01*
X114322302Y-102985494D01*
X114155880Y-103040641D01*
X114155875Y-103040643D01*
X114006657Y-103132682D01*
X113913034Y-103226305D01*
X113851710Y-103259789D01*
X113782019Y-103254805D01*
X113737672Y-103226304D01*
X113643657Y-103132289D01*
X113643656Y-103132288D01*
X113507144Y-103048087D01*
X113494336Y-103040187D01*
X113494331Y-103040185D01*
X113492862Y-103039698D01*
X113327797Y-102985001D01*
X113327795Y-102985000D01*
X113225016Y-102974500D01*
X113225009Y-102974500D01*
X112723230Y-102974500D01*
X112656191Y-102954815D01*
X112635549Y-102938181D01*
X112004541Y-102307172D01*
X112004502Y-102307135D01*
X111669377Y-101972010D01*
X111635892Y-101910687D01*
X111633063Y-101885387D01*
X111633051Y-101883952D01*
X111616277Y-99917701D01*
X111632883Y-99854648D01*
X111639306Y-99843522D01*
X111689871Y-99795307D01*
X111758477Y-99782082D01*
X111823343Y-99808048D01*
X111863873Y-99864961D01*
X111864400Y-99866517D01*
X111890185Y-99944331D01*
X111890187Y-99944336D01*
X111901430Y-99962564D01*
X111982288Y-100093656D01*
X112106344Y-100217712D01*
X112255666Y-100309814D01*
X112422203Y-100364999D01*
X112524991Y-100375500D01*
X113325008Y-100375499D01*
X113325016Y-100375498D01*
X113325019Y-100375498D01*
X113381302Y-100369748D01*
X113427797Y-100364999D01*
X113594334Y-100309814D01*
X113743656Y-100217712D01*
X113837675Y-100123692D01*
X113898994Y-100090210D01*
X113968686Y-100095194D01*
X114013034Y-100123695D01*
X114106654Y-100217315D01*
X114255875Y-100309356D01*
X114255880Y-100309358D01*
X114422302Y-100364505D01*
X114422309Y-100364506D01*
X114525019Y-100374999D01*
X114674999Y-100374999D01*
X114675000Y-100374998D01*
X114675000Y-99425000D01*
X115175000Y-99425000D01*
X115175000Y-100374999D01*
X115324972Y-100374999D01*
X115324986Y-100374998D01*
X115427697Y-100364505D01*
X115594119Y-100309358D01*
X115594124Y-100309356D01*
X115743345Y-100217315D01*
X115867315Y-100093345D01*
X115959356Y-99944124D01*
X115959358Y-99944119D01*
X116014505Y-99777697D01*
X116014506Y-99777690D01*
X116024999Y-99674986D01*
X116025000Y-99674973D01*
X116025000Y-99425000D01*
X115175000Y-99425000D01*
X114675000Y-99425000D01*
X114675000Y-97975000D01*
X115175000Y-97975000D01*
X115175000Y-98925000D01*
X116024999Y-98925000D01*
X116024999Y-98675028D01*
X116024998Y-98675013D01*
X116014505Y-98572302D01*
X115959358Y-98405880D01*
X115959356Y-98405875D01*
X115867315Y-98256654D01*
X115743345Y-98132684D01*
X115594124Y-98040643D01*
X115594119Y-98040641D01*
X115427697Y-97985494D01*
X115427690Y-97985493D01*
X115324986Y-97975000D01*
X115175000Y-97975000D01*
X114675000Y-97975000D01*
X114525027Y-97975000D01*
X114525012Y-97975001D01*
X114422302Y-97985494D01*
X114255880Y-98040641D01*
X114255875Y-98040643D01*
X114106657Y-98132682D01*
X114013034Y-98226305D01*
X113951710Y-98259789D01*
X113882019Y-98254805D01*
X113837672Y-98226304D01*
X113743657Y-98132289D01*
X113743656Y-98132288D01*
X113650180Y-98074632D01*
X113594336Y-98040187D01*
X113594331Y-98040185D01*
X113586295Y-98037522D01*
X113427797Y-97985001D01*
X113427795Y-97985000D01*
X113325016Y-97974500D01*
X113325009Y-97974500D01*
X112837230Y-97974500D01*
X112770191Y-97954815D01*
X112749549Y-97938181D01*
X110591729Y-95780361D01*
X110579949Y-95766730D01*
X110567356Y-95749815D01*
X110565612Y-95747472D01*
X110565610Y-95747470D01*
X110525587Y-95713886D01*
X110521612Y-95710244D01*
X110518690Y-95707322D01*
X110515780Y-95704411D01*
X110490040Y-95684059D01*
X110459960Y-95658819D01*
X110431214Y-95634698D01*
X110431213Y-95634697D01*
X110431209Y-95634694D01*
X110425180Y-95630729D01*
X110425212Y-95630680D01*
X110418853Y-95626628D01*
X110418822Y-95626679D01*
X110412680Y-95622891D01*
X110412678Y-95622890D01*
X110412677Y-95622889D01*
X110373474Y-95604608D01*
X110343058Y-95590424D01*
X110308894Y-95573267D01*
X110274433Y-95555960D01*
X110274431Y-95555959D01*
X110274430Y-95555959D01*
X110267645Y-95553489D01*
X110267665Y-95553433D01*
X110260549Y-95550959D01*
X110260531Y-95551015D01*
X110253671Y-95548742D01*
X110225841Y-95542996D01*
X110178434Y-95533207D01*
X110129472Y-95521603D01*
X110103719Y-95515499D01*
X110096547Y-95514661D01*
X110096553Y-95514601D01*
X110089055Y-95513835D01*
X110089050Y-95513895D01*
X110081860Y-95513265D01*
X110005083Y-95515500D01*
X106238230Y-95515500D01*
X106171191Y-95495815D01*
X106150549Y-95479181D01*
X103158548Y-92487180D01*
X103125063Y-92425857D01*
X103130047Y-92356165D01*
X103171919Y-92300232D01*
X103237383Y-92275815D01*
X103246229Y-92275499D01*
X103972871Y-92275499D01*
X103972872Y-92275499D01*
X104032483Y-92269091D01*
X104167331Y-92218796D01*
X104282546Y-92132546D01*
X104368796Y-92017331D01*
X104419091Y-91882483D01*
X104425500Y-91822873D01*
X104425500Y-90875006D01*
X105079700Y-90875006D01*
X105098864Y-91106297D01*
X105098866Y-91106308D01*
X105155842Y-91331300D01*
X105249075Y-91543848D01*
X105376016Y-91738147D01*
X105376019Y-91738151D01*
X105376021Y-91738153D01*
X105533216Y-91908913D01*
X105533219Y-91908915D01*
X105533222Y-91908918D01*
X105716365Y-92051464D01*
X105716371Y-92051468D01*
X105716374Y-92051470D01*
X105920497Y-92161936D01*
X106034487Y-92201068D01*
X106140015Y-92237297D01*
X106140017Y-92237297D01*
X106140019Y-92237298D01*
X106368951Y-92275500D01*
X106368952Y-92275500D01*
X106601048Y-92275500D01*
X106601049Y-92275500D01*
X106829981Y-92237298D01*
X107049503Y-92161936D01*
X107253626Y-92051470D01*
X107436784Y-91908913D01*
X107445130Y-91899846D01*
X107505010Y-91863854D01*
X107574849Y-91865949D01*
X107632468Y-91905469D01*
X107652544Y-91940491D01*
X107681203Y-92017330D01*
X107681206Y-92017335D01*
X107767452Y-92132544D01*
X107767455Y-92132547D01*
X107882664Y-92218793D01*
X107882671Y-92218797D01*
X108017517Y-92269091D01*
X108017516Y-92269091D01*
X108024444Y-92269835D01*
X108077127Y-92275500D01*
X109972872Y-92275499D01*
X110032483Y-92269091D01*
X110167331Y-92218796D01*
X110282546Y-92132546D01*
X110368796Y-92017331D01*
X110419091Y-91882483D01*
X110425500Y-91822873D01*
X110425500Y-90875006D01*
X111079700Y-90875006D01*
X111098864Y-91106297D01*
X111098866Y-91106308D01*
X111155842Y-91331300D01*
X111249075Y-91543848D01*
X111376016Y-91738147D01*
X111376019Y-91738151D01*
X111376021Y-91738153D01*
X111533216Y-91908913D01*
X111533219Y-91908915D01*
X111533222Y-91908918D01*
X111716365Y-92051464D01*
X111716371Y-92051468D01*
X111716374Y-92051470D01*
X111920497Y-92161936D01*
X112034487Y-92201068D01*
X112140015Y-92237297D01*
X112140017Y-92237297D01*
X112140019Y-92237298D01*
X112368951Y-92275500D01*
X112368952Y-92275500D01*
X112601048Y-92275500D01*
X112601049Y-92275500D01*
X112829981Y-92237298D01*
X113049503Y-92161936D01*
X113253626Y-92051470D01*
X113436784Y-91908913D01*
X113445130Y-91899846D01*
X113505010Y-91863854D01*
X113574849Y-91865949D01*
X113632468Y-91905469D01*
X113652544Y-91940491D01*
X113681203Y-92017330D01*
X113681206Y-92017335D01*
X113767452Y-92132544D01*
X113767455Y-92132547D01*
X113882664Y-92218793D01*
X113882671Y-92218797D01*
X114017517Y-92269091D01*
X114017516Y-92269091D01*
X114024444Y-92269835D01*
X114077127Y-92275500D01*
X115972872Y-92275499D01*
X116032483Y-92269091D01*
X116167331Y-92218796D01*
X116282546Y-92132546D01*
X116368796Y-92017331D01*
X116419091Y-91882483D01*
X116425500Y-91822873D01*
X116425500Y-90875006D01*
X117079700Y-90875006D01*
X117098864Y-91106297D01*
X117098866Y-91106308D01*
X117155842Y-91331300D01*
X117249075Y-91543848D01*
X117376016Y-91738147D01*
X117376019Y-91738151D01*
X117376021Y-91738153D01*
X117533216Y-91908913D01*
X117533219Y-91908915D01*
X117533222Y-91908918D01*
X117716364Y-92051463D01*
X117716371Y-92051468D01*
X117716374Y-92051470D01*
X117759518Y-92074818D01*
X117809108Y-92124036D01*
X117824500Y-92183872D01*
X117824500Y-98021042D01*
X117804815Y-98088081D01*
X117765598Y-98126580D01*
X117756344Y-98132287D01*
X117632289Y-98256342D01*
X117540187Y-98405663D01*
X117540185Y-98405668D01*
X117523567Y-98455819D01*
X117485001Y-98572203D01*
X117485001Y-98572204D01*
X117485000Y-98572204D01*
X117474500Y-98674983D01*
X117474500Y-99675001D01*
X117474501Y-99675019D01*
X117485000Y-99777796D01*
X117485001Y-99777799D01*
X117540185Y-99944331D01*
X117540187Y-99944336D01*
X117551430Y-99962564D01*
X117632288Y-100093656D01*
X117756344Y-100217712D01*
X117905666Y-100309814D01*
X118072203Y-100364999D01*
X118174991Y-100375500D01*
X118975008Y-100375499D01*
X118975016Y-100375498D01*
X118975019Y-100375498D01*
X119031302Y-100369748D01*
X119077797Y-100364999D01*
X119244334Y-100309814D01*
X119393656Y-100217712D01*
X119487675Y-100123692D01*
X119548994Y-100090210D01*
X119618686Y-100095194D01*
X119663034Y-100123695D01*
X119756654Y-100217315D01*
X119905875Y-100309356D01*
X119905880Y-100309358D01*
X120072302Y-100364505D01*
X120072309Y-100364506D01*
X120175019Y-100374999D01*
X120324999Y-100374999D01*
X120325000Y-100374998D01*
X120325000Y-99425000D01*
X120825000Y-99425000D01*
X120825000Y-100374999D01*
X120974972Y-100374999D01*
X120974986Y-100374998D01*
X121077697Y-100364505D01*
X121244119Y-100309358D01*
X121244124Y-100309356D01*
X121393345Y-100217315D01*
X121517315Y-100093345D01*
X121609356Y-99944124D01*
X121609358Y-99944119D01*
X121664505Y-99777697D01*
X121664506Y-99777690D01*
X121674999Y-99674986D01*
X121675000Y-99674973D01*
X121675000Y-99425000D01*
X120825000Y-99425000D01*
X120325000Y-99425000D01*
X120325000Y-97975000D01*
X120825000Y-97975000D01*
X120825000Y-98925000D01*
X121674999Y-98925000D01*
X121674999Y-98675028D01*
X121674998Y-98675013D01*
X121664505Y-98572302D01*
X121609358Y-98405880D01*
X121609356Y-98405875D01*
X121517315Y-98256654D01*
X121393345Y-98132684D01*
X121244124Y-98040643D01*
X121244119Y-98040641D01*
X121077697Y-97985494D01*
X121077690Y-97985493D01*
X120974986Y-97975000D01*
X120825000Y-97975000D01*
X120325000Y-97975000D01*
X120175027Y-97975000D01*
X120175012Y-97975001D01*
X120072302Y-97985494D01*
X119905880Y-98040641D01*
X119905875Y-98040643D01*
X119756657Y-98132682D01*
X119663034Y-98226305D01*
X119601710Y-98259789D01*
X119532019Y-98254805D01*
X119487672Y-98226304D01*
X119393655Y-98132287D01*
X119384402Y-98126580D01*
X119337678Y-98074632D01*
X119325500Y-98021042D01*
X119325500Y-92056148D01*
X119345185Y-91989109D01*
X119373336Y-91958295D01*
X119436784Y-91908913D01*
X119445130Y-91899846D01*
X119505010Y-91863854D01*
X119574849Y-91865949D01*
X119632468Y-91905469D01*
X119652544Y-91940491D01*
X119681203Y-92017330D01*
X119681206Y-92017335D01*
X119767452Y-92132544D01*
X119767455Y-92132547D01*
X119882664Y-92218793D01*
X119882671Y-92218797D01*
X120017517Y-92269091D01*
X120017516Y-92269091D01*
X120024444Y-92269835D01*
X120077127Y-92275500D01*
X121972872Y-92275499D01*
X122032483Y-92269091D01*
X122167331Y-92218796D01*
X122282546Y-92132546D01*
X122368796Y-92017331D01*
X122419091Y-91882483D01*
X122425500Y-91822873D01*
X122425500Y-90875006D01*
X123079700Y-90875006D01*
X123098864Y-91106297D01*
X123098866Y-91106308D01*
X123155842Y-91331300D01*
X123249075Y-91543848D01*
X123376016Y-91738147D01*
X123376019Y-91738151D01*
X123376021Y-91738153D01*
X123533216Y-91908913D01*
X123533219Y-91908915D01*
X123533222Y-91908918D01*
X123716365Y-92051464D01*
X123716371Y-92051468D01*
X123716374Y-92051470D01*
X123920497Y-92161936D01*
X123990764Y-92186058D01*
X124047778Y-92226443D01*
X124073909Y-92291242D01*
X124074500Y-92303339D01*
X124074500Y-98021042D01*
X124054815Y-98088081D01*
X124015598Y-98126580D01*
X124006344Y-98132287D01*
X123882289Y-98256342D01*
X123790187Y-98405663D01*
X123790185Y-98405668D01*
X123773567Y-98455819D01*
X123735001Y-98572203D01*
X123735001Y-98572204D01*
X123735000Y-98572204D01*
X123724500Y-98674983D01*
X123724500Y-99675001D01*
X123724501Y-99675019D01*
X123735000Y-99777796D01*
X123735001Y-99777799D01*
X123790185Y-99944331D01*
X123790187Y-99944336D01*
X123801430Y-99962564D01*
X123882288Y-100093656D01*
X124006344Y-100217712D01*
X124155666Y-100309814D01*
X124322203Y-100364999D01*
X124424991Y-100375500D01*
X125225008Y-100375499D01*
X125225016Y-100375498D01*
X125225019Y-100375498D01*
X125281302Y-100369748D01*
X125327797Y-100364999D01*
X125494334Y-100309814D01*
X125643656Y-100217712D01*
X125737675Y-100123692D01*
X125798994Y-100090210D01*
X125868686Y-100095194D01*
X125913034Y-100123695D01*
X126006654Y-100217315D01*
X126155875Y-100309356D01*
X126155880Y-100309358D01*
X126322302Y-100364505D01*
X126322309Y-100364506D01*
X126425019Y-100374999D01*
X126574999Y-100374999D01*
X126575000Y-100374998D01*
X126575000Y-99425000D01*
X127075000Y-99425000D01*
X127075000Y-100374999D01*
X127224972Y-100374999D01*
X127224986Y-100374998D01*
X127327697Y-100364505D01*
X127494119Y-100309358D01*
X127494124Y-100309356D01*
X127643345Y-100217315D01*
X127767315Y-100093345D01*
X127859356Y-99944124D01*
X127859358Y-99944119D01*
X127914505Y-99777697D01*
X127914506Y-99777690D01*
X127924999Y-99674986D01*
X127925000Y-99674973D01*
X127925000Y-99425000D01*
X127075000Y-99425000D01*
X126575000Y-99425000D01*
X126575000Y-97975000D01*
X127075000Y-97975000D01*
X127075000Y-98925000D01*
X127924999Y-98925000D01*
X127924999Y-98675028D01*
X127924998Y-98675013D01*
X127914505Y-98572302D01*
X127859358Y-98405880D01*
X127859356Y-98405875D01*
X127767315Y-98256654D01*
X127643345Y-98132684D01*
X127494124Y-98040643D01*
X127494119Y-98040641D01*
X127327697Y-97985494D01*
X127327690Y-97985493D01*
X127224986Y-97975000D01*
X127075000Y-97975000D01*
X126575000Y-97975000D01*
X126425027Y-97975000D01*
X126425012Y-97975001D01*
X126322302Y-97985494D01*
X126155880Y-98040641D01*
X126155875Y-98040643D01*
X126006657Y-98132682D01*
X125913034Y-98226305D01*
X125851710Y-98259789D01*
X125782019Y-98254805D01*
X125737672Y-98226304D01*
X125643655Y-98132287D01*
X125634402Y-98126580D01*
X125587678Y-98074632D01*
X125575500Y-98021042D01*
X125575500Y-92236571D01*
X125595185Y-92169532D01*
X125647989Y-92123777D01*
X125717147Y-92113833D01*
X125773811Y-92137305D01*
X125882664Y-92218793D01*
X125882671Y-92218797D01*
X126017517Y-92269091D01*
X126017516Y-92269091D01*
X126024444Y-92269835D01*
X126077127Y-92275500D01*
X127972872Y-92275499D01*
X128032483Y-92269091D01*
X128167331Y-92218796D01*
X128282546Y-92132546D01*
X128368796Y-92017331D01*
X128419091Y-91882483D01*
X128425500Y-91822873D01*
X128425500Y-90875006D01*
X129079700Y-90875006D01*
X129098864Y-91106297D01*
X129098866Y-91106308D01*
X129155842Y-91331300D01*
X129249075Y-91543848D01*
X129376016Y-91738147D01*
X129376019Y-91738151D01*
X129376021Y-91738153D01*
X129533216Y-91908913D01*
X129533219Y-91908915D01*
X129533222Y-91908918D01*
X129716365Y-92051464D01*
X129716371Y-92051468D01*
X129716374Y-92051470D01*
X129920497Y-92161936D01*
X129990764Y-92186058D01*
X130047778Y-92226443D01*
X130073909Y-92291242D01*
X130074500Y-92303339D01*
X130074500Y-98021042D01*
X130054815Y-98088081D01*
X130015598Y-98126580D01*
X130006344Y-98132287D01*
X129882289Y-98256342D01*
X129790187Y-98405663D01*
X129790185Y-98405668D01*
X129773567Y-98455819D01*
X129735001Y-98572203D01*
X129735001Y-98572204D01*
X129735000Y-98572204D01*
X129724500Y-98674983D01*
X129724500Y-99675001D01*
X129724501Y-99675019D01*
X129735000Y-99777796D01*
X129735001Y-99777799D01*
X129790185Y-99944331D01*
X129790187Y-99944336D01*
X129801430Y-99962564D01*
X129882288Y-100093656D01*
X130006344Y-100217712D01*
X130155666Y-100309814D01*
X130322203Y-100364999D01*
X130424991Y-100375500D01*
X131225008Y-100375499D01*
X131225016Y-100375498D01*
X131225019Y-100375498D01*
X131281302Y-100369748D01*
X131327797Y-100364999D01*
X131494334Y-100309814D01*
X131643656Y-100217712D01*
X131737675Y-100123692D01*
X131798994Y-100090210D01*
X131868686Y-100095194D01*
X131913034Y-100123695D01*
X132006654Y-100217315D01*
X132155875Y-100309356D01*
X132155880Y-100309358D01*
X132322302Y-100364505D01*
X132322309Y-100364506D01*
X132425019Y-100374999D01*
X132574999Y-100374999D01*
X132575000Y-100374998D01*
X132575000Y-99425000D01*
X133075000Y-99425000D01*
X133075000Y-100374999D01*
X133224972Y-100374999D01*
X133224986Y-100374998D01*
X133327697Y-100364505D01*
X133494119Y-100309358D01*
X133494124Y-100309356D01*
X133643345Y-100217315D01*
X133767315Y-100093345D01*
X133859356Y-99944124D01*
X133859358Y-99944119D01*
X133914505Y-99777697D01*
X133914506Y-99777690D01*
X133924999Y-99674986D01*
X133925000Y-99674973D01*
X133925000Y-99425000D01*
X133075000Y-99425000D01*
X132575000Y-99425000D01*
X132575000Y-97975000D01*
X133075000Y-97975000D01*
X133075000Y-98925000D01*
X133924999Y-98925000D01*
X133924999Y-98675028D01*
X133924998Y-98675013D01*
X133914505Y-98572302D01*
X133859358Y-98405880D01*
X133859356Y-98405875D01*
X133767315Y-98256654D01*
X133643345Y-98132684D01*
X133494124Y-98040643D01*
X133494119Y-98040641D01*
X133327697Y-97985494D01*
X133327690Y-97985493D01*
X133224986Y-97975000D01*
X133075000Y-97975000D01*
X132575000Y-97975000D01*
X132425027Y-97975000D01*
X132425012Y-97975001D01*
X132322302Y-97985494D01*
X132155880Y-98040641D01*
X132155875Y-98040643D01*
X132006657Y-98132682D01*
X131913034Y-98226305D01*
X131851710Y-98259789D01*
X131782019Y-98254805D01*
X131737672Y-98226304D01*
X131643655Y-98132287D01*
X131634402Y-98126580D01*
X131587678Y-98074632D01*
X131575500Y-98021042D01*
X131575500Y-92236571D01*
X131595185Y-92169532D01*
X131647989Y-92123777D01*
X131717147Y-92113833D01*
X131773811Y-92137305D01*
X131882664Y-92218793D01*
X131882671Y-92218797D01*
X132017517Y-92269091D01*
X132017516Y-92269091D01*
X132024444Y-92269835D01*
X132077127Y-92275500D01*
X133972872Y-92275499D01*
X134032483Y-92269091D01*
X134167331Y-92218796D01*
X134282546Y-92132546D01*
X134368796Y-92017331D01*
X134419091Y-91882483D01*
X134425500Y-91822873D01*
X134425500Y-90875006D01*
X135079700Y-90875006D01*
X135098864Y-91106297D01*
X135098866Y-91106308D01*
X135155842Y-91331300D01*
X135249075Y-91543848D01*
X135376016Y-91738147D01*
X135376019Y-91738151D01*
X135376021Y-91738153D01*
X135533216Y-91908913D01*
X135533219Y-91908915D01*
X135533222Y-91908918D01*
X135716365Y-92051464D01*
X135716371Y-92051468D01*
X135716374Y-92051470D01*
X135920497Y-92161936D01*
X135990764Y-92186058D01*
X136047778Y-92226443D01*
X136073909Y-92291242D01*
X136074500Y-92303339D01*
X136074500Y-98021042D01*
X136054815Y-98088081D01*
X136015598Y-98126580D01*
X136006344Y-98132287D01*
X135882289Y-98256342D01*
X135790187Y-98405663D01*
X135790185Y-98405668D01*
X135773567Y-98455819D01*
X135735001Y-98572203D01*
X135735001Y-98572204D01*
X135735000Y-98572204D01*
X135724500Y-98674983D01*
X135724500Y-99675001D01*
X135724501Y-99675019D01*
X135735000Y-99777796D01*
X135735001Y-99777799D01*
X135790185Y-99944331D01*
X135790187Y-99944336D01*
X135801430Y-99962564D01*
X135882288Y-100093656D01*
X136006344Y-100217712D01*
X136155666Y-100309814D01*
X136322203Y-100364999D01*
X136424991Y-100375500D01*
X137225008Y-100375499D01*
X137225016Y-100375498D01*
X137225019Y-100375498D01*
X137281302Y-100369748D01*
X137327797Y-100364999D01*
X137494334Y-100309814D01*
X137643656Y-100217712D01*
X137737675Y-100123692D01*
X137798994Y-100090210D01*
X137868686Y-100095194D01*
X137913034Y-100123695D01*
X138006654Y-100217315D01*
X138155875Y-100309356D01*
X138155880Y-100309358D01*
X138322302Y-100364505D01*
X138322309Y-100364506D01*
X138425019Y-100374999D01*
X138574999Y-100374999D01*
X138575000Y-100374998D01*
X138575000Y-99425000D01*
X139075000Y-99425000D01*
X139075000Y-100374999D01*
X139224972Y-100374999D01*
X139224986Y-100374998D01*
X139327697Y-100364505D01*
X139494119Y-100309358D01*
X139494124Y-100309356D01*
X139643345Y-100217315D01*
X139767315Y-100093345D01*
X139859356Y-99944124D01*
X139859358Y-99944119D01*
X139914505Y-99777697D01*
X139914506Y-99777690D01*
X139924999Y-99674986D01*
X139925000Y-99674973D01*
X139925000Y-99425000D01*
X139075000Y-99425000D01*
X138575000Y-99425000D01*
X138575000Y-97975000D01*
X139075000Y-97975000D01*
X139075000Y-98925000D01*
X139924999Y-98925000D01*
X139924999Y-98675028D01*
X139924998Y-98675013D01*
X139914505Y-98572302D01*
X139859358Y-98405880D01*
X139859356Y-98405875D01*
X139767315Y-98256654D01*
X139643345Y-98132684D01*
X139494124Y-98040643D01*
X139494119Y-98040641D01*
X139327697Y-97985494D01*
X139327690Y-97985493D01*
X139224986Y-97975000D01*
X139075000Y-97975000D01*
X138575000Y-97975000D01*
X138425027Y-97975000D01*
X138425012Y-97975001D01*
X138322302Y-97985494D01*
X138155880Y-98040641D01*
X138155875Y-98040643D01*
X138006657Y-98132682D01*
X137913034Y-98226305D01*
X137851710Y-98259789D01*
X137782019Y-98254805D01*
X137737672Y-98226304D01*
X137643655Y-98132287D01*
X137634402Y-98126580D01*
X137587678Y-98074632D01*
X137575500Y-98021042D01*
X137575500Y-92236571D01*
X137595185Y-92169532D01*
X137647989Y-92123777D01*
X137717147Y-92113833D01*
X137773811Y-92137305D01*
X137882664Y-92218793D01*
X137882671Y-92218797D01*
X138017517Y-92269091D01*
X138017516Y-92269091D01*
X138024444Y-92269835D01*
X138077127Y-92275500D01*
X139972872Y-92275499D01*
X140032483Y-92269091D01*
X140051452Y-92262015D01*
X140121141Y-92257030D01*
X140182465Y-92290514D01*
X140215952Y-92351836D01*
X140218733Y-92374588D01*
X140219500Y-92400915D01*
X140219500Y-102256294D01*
X140218191Y-102274263D01*
X140214710Y-102298025D01*
X140219264Y-102350064D01*
X140219500Y-102355470D01*
X140219500Y-102363709D01*
X140223306Y-102396275D01*
X140223846Y-102402446D01*
X140230000Y-102472791D01*
X140231461Y-102479867D01*
X140231403Y-102479878D01*
X140233034Y-102487237D01*
X140233092Y-102487224D01*
X140234757Y-102494250D01*
X140261025Y-102566424D01*
X140285185Y-102639331D01*
X140288236Y-102645874D01*
X140288182Y-102645898D01*
X140291470Y-102652688D01*
X140291521Y-102652663D01*
X140294761Y-102659113D01*
X140294762Y-102659114D01*
X140294763Y-102659117D01*
X140333687Y-102718299D01*
X140336965Y-102723283D01*
X140377287Y-102788655D01*
X140381766Y-102794319D01*
X140381719Y-102794356D01*
X140386482Y-102800202D01*
X140386528Y-102800164D01*
X140391173Y-102805700D01*
X140447018Y-102858386D01*
X141134607Y-103545975D01*
X141795123Y-104206490D01*
X141828608Y-104267813D01*
X141831442Y-104294171D01*
X141831442Y-104718763D01*
X141831443Y-104718781D01*
X141841942Y-104821558D01*
X141841943Y-104821561D01*
X141880136Y-104936818D01*
X141897128Y-104988096D01*
X141989230Y-105137418D01*
X142113286Y-105261474D01*
X142262608Y-105353576D01*
X142429145Y-105408761D01*
X142531933Y-105419262D01*
X143331950Y-105419261D01*
X143331958Y-105419260D01*
X143331961Y-105419260D01*
X143388244Y-105413510D01*
X143434739Y-105408761D01*
X143601276Y-105353576D01*
X143750598Y-105261474D01*
X143844617Y-105167454D01*
X143905936Y-105133972D01*
X143975628Y-105138956D01*
X144019976Y-105167457D01*
X144113596Y-105261077D01*
X144262817Y-105353118D01*
X144262822Y-105353120D01*
X144429244Y-105408267D01*
X144429251Y-105408268D01*
X144531961Y-105418761D01*
X144681941Y-105418761D01*
X144681942Y-105418760D01*
X144681942Y-104468762D01*
X145181942Y-104468762D01*
X145181942Y-105418761D01*
X145331914Y-105418761D01*
X145331928Y-105418760D01*
X145434639Y-105408267D01*
X145601061Y-105353120D01*
X145601066Y-105353118D01*
X145750287Y-105261077D01*
X145874257Y-105137107D01*
X145966298Y-104987886D01*
X145966300Y-104987881D01*
X146021447Y-104821459D01*
X146021448Y-104821452D01*
X146031941Y-104718748D01*
X146031942Y-104718735D01*
X146031942Y-104468762D01*
X145181942Y-104468762D01*
X144681942Y-104468762D01*
X144681942Y-103018762D01*
X144531969Y-103018762D01*
X144531954Y-103018763D01*
X144429244Y-103029256D01*
X144262822Y-103084403D01*
X144262817Y-103084405D01*
X144113599Y-103176444D01*
X144019976Y-103270067D01*
X143958652Y-103303551D01*
X143888961Y-103298567D01*
X143844614Y-103270066D01*
X143750599Y-103176051D01*
X143750598Y-103176050D01*
X143633700Y-103103947D01*
X143601278Y-103083949D01*
X143601273Y-103083947D01*
X143599804Y-103083460D01*
X143434739Y-103028763D01*
X143434737Y-103028762D01*
X143331958Y-103018262D01*
X143331951Y-103018262D01*
X142780992Y-103018262D01*
X142713953Y-102998577D01*
X142693311Y-102981943D01*
X142273549Y-102562181D01*
X142240064Y-102500858D01*
X142245048Y-102431166D01*
X142286920Y-102375233D01*
X142352384Y-102350816D01*
X142361230Y-102350500D01*
X144925770Y-102350500D01*
X144992809Y-102370185D01*
X145013451Y-102386819D01*
X145434599Y-102807967D01*
X145468084Y-102869290D01*
X145463100Y-102938982D01*
X145421228Y-102994915D01*
X145355764Y-103019332D01*
X145334326Y-103019007D01*
X145331936Y-103018763D01*
X145331916Y-103018762D01*
X145181942Y-103018762D01*
X145181942Y-103968762D01*
X146031941Y-103968762D01*
X146031941Y-103718790D01*
X146031940Y-103718782D01*
X146031696Y-103716389D01*
X146031792Y-103715870D01*
X146031780Y-103715628D01*
X146031837Y-103715625D01*
X146044464Y-103647696D01*
X146092343Y-103596810D01*
X146160133Y-103579888D01*
X146226310Y-103602302D01*
X146242735Y-103616103D01*
X147331032Y-104704400D01*
X147342813Y-104718032D01*
X147357150Y-104737290D01*
X147397171Y-104770873D01*
X147401159Y-104774528D01*
X147406978Y-104780347D01*
X147406982Y-104780350D01*
X147406985Y-104780353D01*
X147432721Y-104800702D01*
X147491548Y-104850064D01*
X147491549Y-104850064D01*
X147491551Y-104850066D01*
X147497580Y-104854032D01*
X147497547Y-104854081D01*
X147503909Y-104858134D01*
X147503941Y-104858083D01*
X147510081Y-104861870D01*
X147510085Y-104861873D01*
X147544894Y-104878105D01*
X147579703Y-104894337D01*
X147632770Y-104920988D01*
X147648329Y-104928802D01*
X147648331Y-104928802D01*
X147655119Y-104931273D01*
X147655098Y-104931329D01*
X147662217Y-104933804D01*
X147662236Y-104933748D01*
X147669091Y-104936020D01*
X147744324Y-104951553D01*
X147819041Y-104969262D01*
X147819051Y-104969262D01*
X147826214Y-104970100D01*
X147825979Y-104972103D01*
X147883343Y-104988947D01*
X147921841Y-105028163D01*
X147989230Y-105137418D01*
X148113286Y-105261474D01*
X148262608Y-105353576D01*
X148429145Y-105408761D01*
X148531933Y-105419262D01*
X149331950Y-105419261D01*
X149331958Y-105419260D01*
X149331961Y-105419260D01*
X149388244Y-105413510D01*
X149434739Y-105408761D01*
X149601276Y-105353576D01*
X149750598Y-105261474D01*
X149844617Y-105167454D01*
X149905936Y-105133972D01*
X149975628Y-105138956D01*
X150019976Y-105167457D01*
X150113596Y-105261077D01*
X150262817Y-105353118D01*
X150262822Y-105353120D01*
X150429244Y-105408267D01*
X150429251Y-105408268D01*
X150531961Y-105418761D01*
X150681941Y-105418761D01*
X150681942Y-105418760D01*
X150681942Y-104468762D01*
X151181942Y-104468762D01*
X151181942Y-105418761D01*
X151331914Y-105418761D01*
X151331928Y-105418760D01*
X151434639Y-105408267D01*
X151601061Y-105353120D01*
X151601066Y-105353118D01*
X151750287Y-105261077D01*
X151874257Y-105137107D01*
X151966298Y-104987886D01*
X151966300Y-104987881D01*
X152021447Y-104821459D01*
X152021448Y-104821452D01*
X152031941Y-104718748D01*
X152031942Y-104718735D01*
X152031942Y-104468762D01*
X151181942Y-104468762D01*
X150681942Y-104468762D01*
X150681942Y-103018762D01*
X151181942Y-103018762D01*
X151181942Y-103968762D01*
X152031941Y-103968762D01*
X152031941Y-103718790D01*
X152031940Y-103718775D01*
X152021447Y-103616064D01*
X151966300Y-103449642D01*
X151966298Y-103449637D01*
X151874257Y-103300416D01*
X151750287Y-103176446D01*
X151601066Y-103084405D01*
X151601061Y-103084403D01*
X151434639Y-103029256D01*
X151434632Y-103029255D01*
X151331928Y-103018762D01*
X151181942Y-103018762D01*
X150681942Y-103018762D01*
X150531969Y-103018762D01*
X150531954Y-103018763D01*
X150429244Y-103029256D01*
X150262822Y-103084403D01*
X150262817Y-103084405D01*
X150113599Y-103176444D01*
X150019976Y-103270067D01*
X149958652Y-103303551D01*
X149888961Y-103298567D01*
X149844614Y-103270066D01*
X149750599Y-103176051D01*
X149750598Y-103176050D01*
X149633700Y-103103947D01*
X149601278Y-103083949D01*
X149601273Y-103083947D01*
X149599804Y-103083460D01*
X149434739Y-103028763D01*
X149434737Y-103028762D01*
X149331952Y-103018262D01*
X148531940Y-103018262D01*
X148531922Y-103018263D01*
X148429145Y-103028762D01*
X148429142Y-103028763D01*
X148262610Y-103083947D01*
X148262605Y-103083949D01*
X148113280Y-103176054D01*
X148107024Y-103182310D01*
X148045697Y-103215790D01*
X147976006Y-103210799D01*
X147931669Y-103182302D01*
X146937956Y-102188589D01*
X145863729Y-101114361D01*
X145851949Y-101100730D01*
X145844482Y-101090701D01*
X145837612Y-101081472D01*
X145837610Y-101081470D01*
X145797587Y-101047886D01*
X145793612Y-101044244D01*
X145790690Y-101041322D01*
X145787780Y-101038411D01*
X145762040Y-101018059D01*
X145703209Y-100968694D01*
X145697180Y-100964729D01*
X145697212Y-100964680D01*
X145690853Y-100960628D01*
X145690822Y-100960679D01*
X145684680Y-100956891D01*
X145684678Y-100956890D01*
X145684677Y-100956889D01*
X145645474Y-100938608D01*
X145615058Y-100924424D01*
X145580894Y-100907267D01*
X145546433Y-100889960D01*
X145546431Y-100889959D01*
X145546430Y-100889959D01*
X145539645Y-100887489D01*
X145539665Y-100887433D01*
X145532549Y-100884959D01*
X145532531Y-100885015D01*
X145525671Y-100882742D01*
X145497841Y-100876996D01*
X145450434Y-100867207D01*
X145401472Y-100855603D01*
X145375719Y-100849499D01*
X145368547Y-100848661D01*
X145368553Y-100848601D01*
X145361055Y-100847835D01*
X145361050Y-100847895D01*
X145353860Y-100847265D01*
X145277083Y-100849500D01*
X142606500Y-100849500D01*
X142539461Y-100829815D01*
X142493706Y-100777011D01*
X142482500Y-100725500D01*
X142482500Y-100496213D01*
X142502185Y-100429174D01*
X142554989Y-100383419D01*
X142619102Y-100372855D01*
X142644991Y-100375500D01*
X143445008Y-100375499D01*
X143445016Y-100375498D01*
X143445019Y-100375498D01*
X143501302Y-100369748D01*
X143547797Y-100364999D01*
X143714334Y-100309814D01*
X143863656Y-100217712D01*
X143957675Y-100123692D01*
X144018994Y-100090210D01*
X144088686Y-100095194D01*
X144133034Y-100123695D01*
X144226654Y-100217315D01*
X144375875Y-100309356D01*
X144375880Y-100309358D01*
X144542302Y-100364505D01*
X144542309Y-100364506D01*
X144645019Y-100374999D01*
X144794999Y-100374999D01*
X144795000Y-100374998D01*
X144795000Y-99425000D01*
X145295000Y-99425000D01*
X145295000Y-100374999D01*
X145444972Y-100374999D01*
X145444986Y-100374998D01*
X145547697Y-100364505D01*
X145714119Y-100309358D01*
X145714124Y-100309356D01*
X145863345Y-100217315D01*
X145987315Y-100093345D01*
X146079356Y-99944124D01*
X146079358Y-99944119D01*
X146134505Y-99777697D01*
X146134506Y-99777690D01*
X146144999Y-99674986D01*
X146145000Y-99674973D01*
X146145000Y-99425000D01*
X145295000Y-99425000D01*
X144795000Y-99425000D01*
X144795000Y-99049000D01*
X144814685Y-98981961D01*
X144867489Y-98936206D01*
X144919000Y-98925000D01*
X146144999Y-98925000D01*
X146144999Y-98675028D01*
X146144998Y-98675013D01*
X146134505Y-98572302D01*
X146079358Y-98405880D01*
X146079356Y-98405875D01*
X145987315Y-98256654D01*
X145863345Y-98132684D01*
X145714124Y-98040643D01*
X145714119Y-98040641D01*
X145549378Y-97986052D01*
X145491933Y-97946280D01*
X145465110Y-97881764D01*
X145477425Y-97812988D01*
X145500697Y-97780669D01*
X149022549Y-94258819D01*
X149083872Y-94225334D01*
X149110230Y-94222500D01*
X152512771Y-94222500D01*
X152579810Y-94242185D01*
X152625565Y-94294989D01*
X152635509Y-94364147D01*
X152606484Y-94427703D01*
X152600452Y-94434181D01*
X149096449Y-97938181D01*
X149035126Y-97971666D01*
X149008768Y-97974500D01*
X148520998Y-97974500D01*
X148520980Y-97974501D01*
X148418203Y-97985000D01*
X148418200Y-97985001D01*
X148251668Y-98040185D01*
X148251663Y-98040187D01*
X148102342Y-98132289D01*
X147978289Y-98256342D01*
X147886187Y-98405663D01*
X147886185Y-98405668D01*
X147869567Y-98455819D01*
X147831001Y-98572203D01*
X147831001Y-98572204D01*
X147831000Y-98572204D01*
X147820500Y-98674983D01*
X147820500Y-99675001D01*
X147820501Y-99675019D01*
X147831000Y-99777796D01*
X147831001Y-99777799D01*
X147886185Y-99944331D01*
X147886187Y-99944336D01*
X147897430Y-99962564D01*
X147978288Y-100093656D01*
X148102344Y-100217712D01*
X148251666Y-100309814D01*
X148418203Y-100364999D01*
X148520991Y-100375500D01*
X149321008Y-100375499D01*
X149321016Y-100375498D01*
X149321019Y-100375498D01*
X149377302Y-100369748D01*
X149423797Y-100364999D01*
X149590334Y-100309814D01*
X149739656Y-100217712D01*
X149833675Y-100123692D01*
X149894994Y-100090210D01*
X149964686Y-100095194D01*
X150009034Y-100123695D01*
X150102654Y-100217315D01*
X150251875Y-100309356D01*
X150251880Y-100309358D01*
X150418302Y-100364505D01*
X150418309Y-100364506D01*
X150521019Y-100374999D01*
X150670999Y-100374999D01*
X150671000Y-100374998D01*
X150671000Y-99049000D01*
X150690685Y-98981961D01*
X150743489Y-98936206D01*
X150795000Y-98925000D01*
X151047000Y-98925000D01*
X151114039Y-98944685D01*
X151159794Y-98997489D01*
X151171000Y-99049000D01*
X151171000Y-100374999D01*
X151320972Y-100374999D01*
X151320986Y-100374998D01*
X151423697Y-100364505D01*
X151590119Y-100309358D01*
X151590124Y-100309356D01*
X151739345Y-100217315D01*
X151863315Y-100093345D01*
X151927961Y-99988538D01*
X151979909Y-99941814D01*
X152048871Y-99930591D01*
X152112954Y-99958435D01*
X152151810Y-100016503D01*
X152157500Y-100053635D01*
X152157500Y-102131114D01*
X152156191Y-102149083D01*
X152152710Y-102172845D01*
X152157264Y-102224884D01*
X152157500Y-102230290D01*
X152157500Y-102238529D01*
X152161306Y-102271094D01*
X152168000Y-102347611D01*
X152169461Y-102354687D01*
X152169403Y-102354698D01*
X152171034Y-102362057D01*
X152171092Y-102362044D01*
X152172757Y-102369070D01*
X152199025Y-102441244D01*
X152223185Y-102514151D01*
X152226236Y-102520694D01*
X152226182Y-102520718D01*
X152229470Y-102527508D01*
X152229521Y-102527483D01*
X152232761Y-102533933D01*
X152232762Y-102533934D01*
X152232763Y-102533937D01*
X152263800Y-102581127D01*
X152274965Y-102598103D01*
X152315287Y-102663475D01*
X152319766Y-102669139D01*
X152319719Y-102669176D01*
X152324482Y-102675022D01*
X152324528Y-102674984D01*
X152329173Y-102680520D01*
X152374500Y-102723283D01*
X152385018Y-102733206D01*
X153101454Y-103449642D01*
X153795123Y-104143310D01*
X153828608Y-104204633D01*
X153831442Y-104230991D01*
X153831442Y-104718763D01*
X153831443Y-104718781D01*
X153841942Y-104821558D01*
X153841943Y-104821561D01*
X153880136Y-104936818D01*
X153897128Y-104988096D01*
X153989230Y-105137418D01*
X154113286Y-105261474D01*
X154262608Y-105353576D01*
X154429145Y-105408761D01*
X154531933Y-105419262D01*
X155331950Y-105419261D01*
X155331958Y-105419260D01*
X155331961Y-105419260D01*
X155388244Y-105413510D01*
X155434739Y-105408761D01*
X155601276Y-105353576D01*
X155750598Y-105261474D01*
X155844617Y-105167454D01*
X155905936Y-105133972D01*
X155975628Y-105138956D01*
X156019976Y-105167457D01*
X156113596Y-105261077D01*
X156262817Y-105353118D01*
X156262822Y-105353120D01*
X156429244Y-105408267D01*
X156429251Y-105408268D01*
X156531961Y-105418761D01*
X156681941Y-105418761D01*
X156681942Y-105418760D01*
X156681942Y-104468762D01*
X157181942Y-104468762D01*
X157181942Y-105418761D01*
X157331914Y-105418761D01*
X157331928Y-105418760D01*
X157434639Y-105408267D01*
X157601061Y-105353120D01*
X157601066Y-105353118D01*
X157750287Y-105261077D01*
X157874257Y-105137107D01*
X157966298Y-104987886D01*
X157966300Y-104987881D01*
X158021447Y-104821459D01*
X158021448Y-104821452D01*
X158031941Y-104718748D01*
X158031942Y-104718735D01*
X158031942Y-104468762D01*
X157181942Y-104468762D01*
X156681942Y-104468762D01*
X156681942Y-103018762D01*
X157181942Y-103018762D01*
X157181942Y-103968762D01*
X158031941Y-103968762D01*
X158031941Y-103718790D01*
X158031940Y-103718775D01*
X158021447Y-103616064D01*
X157966300Y-103449642D01*
X157966298Y-103449637D01*
X157874257Y-103300416D01*
X157750287Y-103176446D01*
X157601066Y-103084405D01*
X157601061Y-103084403D01*
X157434639Y-103029256D01*
X157434632Y-103029255D01*
X157331928Y-103018762D01*
X157181942Y-103018762D01*
X156681942Y-103018762D01*
X156531969Y-103018762D01*
X156531954Y-103018763D01*
X156429244Y-103029256D01*
X156262822Y-103084403D01*
X156262817Y-103084405D01*
X156113599Y-103176444D01*
X156019976Y-103270067D01*
X155958652Y-103303551D01*
X155888961Y-103298567D01*
X155844614Y-103270066D01*
X155750599Y-103176051D01*
X155750598Y-103176050D01*
X155633700Y-103103947D01*
X155601278Y-103083949D01*
X155601273Y-103083947D01*
X155599804Y-103083460D01*
X155434739Y-103028763D01*
X155434737Y-103028762D01*
X155331958Y-103018262D01*
X155331951Y-103018262D01*
X154844172Y-103018262D01*
X154777133Y-102998577D01*
X154756491Y-102981943D01*
X153694819Y-101920271D01*
X153661334Y-101858948D01*
X153658500Y-101832590D01*
X153658500Y-99874757D01*
X153678185Y-99807718D01*
X153730989Y-99761963D01*
X153800147Y-99752019D01*
X153863703Y-99781044D01*
X153900205Y-99835752D01*
X153933588Y-99936493D01*
X153936185Y-99944331D01*
X153936187Y-99944336D01*
X153947430Y-99962564D01*
X154028288Y-100093656D01*
X154152344Y-100217712D01*
X154301666Y-100309814D01*
X154468203Y-100364999D01*
X154570991Y-100375500D01*
X155371008Y-100375499D01*
X155371016Y-100375498D01*
X155371019Y-100375498D01*
X155427302Y-100369748D01*
X155473797Y-100364999D01*
X155640334Y-100309814D01*
X155789656Y-100217712D01*
X155883675Y-100123692D01*
X155944994Y-100090210D01*
X156014686Y-100095194D01*
X156059034Y-100123695D01*
X156152654Y-100217315D01*
X156301875Y-100309356D01*
X156301880Y-100309358D01*
X156468302Y-100364505D01*
X156468309Y-100364506D01*
X156571019Y-100374999D01*
X156720999Y-100374999D01*
X156721000Y-100374998D01*
X156721000Y-99425000D01*
X157221000Y-99425000D01*
X157221000Y-100374999D01*
X157370972Y-100374999D01*
X157370986Y-100374998D01*
X157473697Y-100364505D01*
X157640119Y-100309358D01*
X157640124Y-100309356D01*
X157789345Y-100217315D01*
X157913315Y-100093345D01*
X158005356Y-99944124D01*
X158005358Y-99944119D01*
X158060505Y-99777697D01*
X158060506Y-99777690D01*
X158070999Y-99674986D01*
X158071000Y-99674973D01*
X158071000Y-99425000D01*
X157221000Y-99425000D01*
X156721000Y-99425000D01*
X156721000Y-99049000D01*
X156740685Y-98981961D01*
X156793489Y-98936206D01*
X156845000Y-98925000D01*
X158070999Y-98925000D01*
X158070999Y-98675028D01*
X158070998Y-98675013D01*
X158060505Y-98572302D01*
X158005358Y-98405880D01*
X158005356Y-98405875D01*
X157913315Y-98256654D01*
X157789345Y-98132684D01*
X157640124Y-98040643D01*
X157640119Y-98040641D01*
X157475379Y-97986052D01*
X157417934Y-97946279D01*
X157391111Y-97881764D01*
X157403426Y-97812988D01*
X157426702Y-97780665D01*
X157859966Y-97347402D01*
X159548549Y-95658819D01*
X159609872Y-95625334D01*
X159636230Y-95622500D01*
X163212771Y-95622500D01*
X163279810Y-95642185D01*
X163325565Y-95694989D01*
X163335509Y-95764147D01*
X163306484Y-95827703D01*
X163300452Y-95834181D01*
X161196449Y-97938181D01*
X161135126Y-97971666D01*
X161108768Y-97974500D01*
X160620998Y-97974500D01*
X160620980Y-97974501D01*
X160518203Y-97985000D01*
X160518200Y-97985001D01*
X160351668Y-98040185D01*
X160351663Y-98040187D01*
X160202342Y-98132289D01*
X160078289Y-98256342D01*
X159986187Y-98405663D01*
X159986185Y-98405668D01*
X159969567Y-98455819D01*
X159931001Y-98572203D01*
X159931001Y-98572204D01*
X159931000Y-98572204D01*
X159920500Y-98674983D01*
X159920500Y-99675001D01*
X159920501Y-99675019D01*
X159931000Y-99777796D01*
X159931001Y-99777799D01*
X159986185Y-99944331D01*
X159986187Y-99944336D01*
X159997430Y-99962564D01*
X160078288Y-100093656D01*
X160202344Y-100217712D01*
X160351666Y-100309814D01*
X160518203Y-100364999D01*
X160620991Y-100375500D01*
X161421008Y-100375499D01*
X161421016Y-100375498D01*
X161421019Y-100375498D01*
X161477302Y-100369748D01*
X161523797Y-100364999D01*
X161690334Y-100309814D01*
X161839656Y-100217712D01*
X161933675Y-100123692D01*
X161994994Y-100090210D01*
X162064686Y-100095194D01*
X162109034Y-100123695D01*
X162202654Y-100217315D01*
X162351875Y-100309356D01*
X162351880Y-100309358D01*
X162518302Y-100364505D01*
X162518309Y-100364506D01*
X162621019Y-100374999D01*
X162770999Y-100374999D01*
X162771000Y-100374998D01*
X162771000Y-99425000D01*
X163271000Y-99425000D01*
X163271000Y-100374999D01*
X163420972Y-100374999D01*
X163420986Y-100374998D01*
X163523697Y-100364505D01*
X163690119Y-100309358D01*
X163690124Y-100309356D01*
X163839345Y-100217315D01*
X163963315Y-100093345D01*
X164055356Y-99944124D01*
X164055358Y-99944119D01*
X164110505Y-99777697D01*
X164110506Y-99777690D01*
X164120999Y-99674986D01*
X164121000Y-99674973D01*
X164121000Y-99425000D01*
X163271000Y-99425000D01*
X162771000Y-99425000D01*
X162771000Y-99358992D01*
X166744357Y-99358992D01*
X166746077Y-99379744D01*
X166752029Y-99451577D01*
X166752350Y-99455444D01*
X166752562Y-99460567D01*
X166752562Y-99483069D01*
X166756265Y-99505270D01*
X166756899Y-99510353D01*
X166764891Y-99606804D01*
X166764891Y-99606806D01*
X166788654Y-99700645D01*
X166789705Y-99705660D01*
X166793407Y-99727842D01*
X166793409Y-99727850D01*
X166800714Y-99749129D01*
X166802176Y-99754041D01*
X166825935Y-99847862D01*
X166825939Y-99847875D01*
X166864815Y-99936503D01*
X166866679Y-99941279D01*
X166872568Y-99958435D01*
X166873986Y-99962564D01*
X166873988Y-99962567D01*
X166884698Y-99982359D01*
X166886948Y-99986963D01*
X166925827Y-100075596D01*
X166978764Y-100156622D01*
X166981388Y-100161026D01*
X166992095Y-100180811D01*
X166992098Y-100180816D01*
X167005926Y-100198583D01*
X167008903Y-100202753D01*
X167061834Y-100283770D01*
X167061838Y-100283775D01*
X167127393Y-100354988D01*
X167130706Y-100358899D01*
X167144522Y-100376650D01*
X167161080Y-100391893D01*
X167164694Y-100395507D01*
X167230256Y-100466726D01*
X167306651Y-100526187D01*
X167310547Y-100529487D01*
X167313718Y-100532406D01*
X167327099Y-100544725D01*
X167345936Y-100557032D01*
X167350102Y-100560006D01*
X167426491Y-100619462D01*
X167511640Y-100665542D01*
X167516001Y-100668141D01*
X167534855Y-100680459D01*
X167555494Y-100689512D01*
X167560033Y-100691731D01*
X167645190Y-100737816D01*
X167736754Y-100769250D01*
X167741489Y-100771097D01*
X167762116Y-100780145D01*
X167783932Y-100785669D01*
X167788816Y-100787123D01*
X167860089Y-100811591D01*
X167880385Y-100818559D01*
X167914189Y-100824199D01*
X167975866Y-100834491D01*
X167980879Y-100835543D01*
X168002676Y-100841063D01*
X168002678Y-100841063D01*
X168002685Y-100841065D01*
X168025125Y-100842924D01*
X168030169Y-100843552D01*
X168125665Y-100859488D01*
X168125666Y-100859488D01*
X168222448Y-100859488D01*
X168227561Y-100859699D01*
X168243415Y-100861013D01*
X168249998Y-100861559D01*
X168250000Y-100861559D01*
X168250002Y-100861559D01*
X168256584Y-100861013D01*
X168272438Y-100859699D01*
X168277552Y-100859488D01*
X168374330Y-100859488D01*
X168374335Y-100859488D01*
X168469851Y-100843549D01*
X168474862Y-100842925D01*
X168497315Y-100841065D01*
X168519153Y-100835534D01*
X168524105Y-100834496D01*
X168619614Y-100818559D01*
X168711198Y-100787117D01*
X168716042Y-100785676D01*
X168737884Y-100780145D01*
X168758500Y-100771101D01*
X168763234Y-100769253D01*
X168854810Y-100737816D01*
X168939975Y-100691726D01*
X168944505Y-100689512D01*
X168965145Y-100680459D01*
X168984008Y-100668134D01*
X168988337Y-100665554D01*
X169073509Y-100619462D01*
X169149931Y-100559980D01*
X169154018Y-100557061D01*
X169172898Y-100544727D01*
X169189466Y-100529475D01*
X169193341Y-100526192D01*
X169269744Y-100466726D01*
X169335313Y-100395498D01*
X169338897Y-100391913D01*
X169355477Y-100376651D01*
X169369320Y-100358864D01*
X169372581Y-100355014D01*
X169438164Y-100283773D01*
X169491127Y-100202706D01*
X169494053Y-100198608D01*
X169507902Y-100180816D01*
X169518623Y-100161004D01*
X169521233Y-100156624D01*
X169574173Y-100075595D01*
X169613061Y-99986938D01*
X169615299Y-99982363D01*
X169615301Y-99982359D01*
X169626014Y-99962564D01*
X169633336Y-99941234D01*
X169635162Y-99936552D01*
X169674063Y-99847869D01*
X169697826Y-99754029D01*
X169699278Y-99749150D01*
X169706592Y-99727847D01*
X169710296Y-99705646D01*
X169711340Y-99700665D01*
X169735108Y-99606809D01*
X169743104Y-99510309D01*
X169743733Y-99505270D01*
X169747438Y-99483069D01*
X169748088Y-99451577D01*
X169748283Y-99447800D01*
X169755643Y-99358988D01*
X169748284Y-99270178D01*
X169748088Y-99266395D01*
X169747438Y-99234907D01*
X169743733Y-99212702D01*
X169743103Y-99207654D01*
X169735108Y-99111167D01*
X169711341Y-99017315D01*
X169710295Y-99012322D01*
X169706592Y-98990131D01*
X169706591Y-98990128D01*
X169699283Y-98968838D01*
X169697825Y-98963940D01*
X169674062Y-98870104D01*
X169658496Y-98834618D01*
X169635174Y-98781449D01*
X169633329Y-98776722D01*
X169626014Y-98755412D01*
X169615298Y-98735610D01*
X169613052Y-98731017D01*
X169575456Y-98645305D01*
X169574173Y-98642380D01*
X169521231Y-98561346D01*
X169518607Y-98556942D01*
X169507904Y-98537165D01*
X169507902Y-98537160D01*
X169494080Y-98519401D01*
X169491102Y-98515230D01*
X169438166Y-98434206D01*
X169438165Y-98434205D01*
X169438164Y-98434203D01*
X169397543Y-98390077D01*
X169372606Y-98362987D01*
X169369295Y-98359078D01*
X169355477Y-98341325D01*
X169355473Y-98341320D01*
X169338919Y-98326081D01*
X169335301Y-98322464D01*
X169269744Y-98251250D01*
X169193352Y-98191792D01*
X169189444Y-98188481D01*
X169172898Y-98173249D01*
X169154063Y-98160943D01*
X169149897Y-98157969D01*
X169073509Y-98098514D01*
X169073508Y-98098513D01*
X169073505Y-98098511D01*
X169073503Y-98098510D01*
X168988385Y-98052447D01*
X168983981Y-98049823D01*
X168965145Y-98037517D01*
X168944547Y-98028482D01*
X168939940Y-98026230D01*
X168854811Y-97980160D01*
X168854802Y-97980157D01*
X168763259Y-97948730D01*
X168758484Y-97946867D01*
X168757141Y-97946278D01*
X168737884Y-97937831D01*
X168737880Y-97937830D01*
X168737878Y-97937829D01*
X168716076Y-97932307D01*
X168711166Y-97930846D01*
X168619614Y-97899417D01*
X168524138Y-97883484D01*
X168519123Y-97882432D01*
X168497312Y-97876910D01*
X168497316Y-97876910D01*
X168474895Y-97875053D01*
X168469810Y-97874419D01*
X168374336Y-97858488D01*
X168374335Y-97858488D01*
X168277541Y-97858488D01*
X168272427Y-97858276D01*
X168256555Y-97856961D01*
X168250002Y-97856418D01*
X168249998Y-97856418D01*
X168243444Y-97856961D01*
X168227572Y-97858276D01*
X168222459Y-97858488D01*
X168125665Y-97858488D01*
X168030188Y-97874419D01*
X168025103Y-97875053D01*
X168002688Y-97876910D01*
X168002683Y-97876911D01*
X167980880Y-97882432D01*
X167975866Y-97883483D01*
X167880382Y-97899417D01*
X167788834Y-97930844D01*
X167783927Y-97932305D01*
X167762126Y-97937827D01*
X167762116Y-97937831D01*
X167741510Y-97946869D01*
X167736738Y-97948730D01*
X167645194Y-97980158D01*
X167645183Y-97980163D01*
X167560062Y-98026228D01*
X167555458Y-98028479D01*
X167534854Y-98037517D01*
X167534845Y-98037522D01*
X167516023Y-98049819D01*
X167511621Y-98052443D01*
X167426492Y-98098512D01*
X167426489Y-98098515D01*
X167350106Y-98157965D01*
X167345938Y-98160942D01*
X167327099Y-98173251D01*
X167310542Y-98188491D01*
X167306635Y-98191800D01*
X167230255Y-98251250D01*
X167164697Y-98322464D01*
X167161075Y-98326086D01*
X167144529Y-98341318D01*
X167144514Y-98341334D01*
X167130699Y-98359082D01*
X167127390Y-98362989D01*
X167061836Y-98434203D01*
X167008901Y-98515224D01*
X167005925Y-98519392D01*
X166992099Y-98537158D01*
X166992094Y-98537165D01*
X166981386Y-98556952D01*
X166978763Y-98561353D01*
X166925828Y-98642378D01*
X166886953Y-98731003D01*
X166884704Y-98735603D01*
X166873985Y-98755412D01*
X166866676Y-98776702D01*
X166864814Y-98781475D01*
X166863773Y-98783849D01*
X166825939Y-98870104D01*
X166825936Y-98870110D01*
X166802177Y-98963930D01*
X166800716Y-98968838D01*
X166793408Y-98990128D01*
X166789705Y-99012315D01*
X166788654Y-99017330D01*
X166764891Y-99111166D01*
X166764891Y-99111170D01*
X166756898Y-99207622D01*
X166756265Y-99212702D01*
X166752562Y-99234907D01*
X166752562Y-99257407D01*
X166752350Y-99262523D01*
X166751713Y-99270216D01*
X166744357Y-99358982D01*
X166744357Y-99358992D01*
X162771000Y-99358992D01*
X162771000Y-99049000D01*
X162790685Y-98981961D01*
X162843489Y-98936206D01*
X162895000Y-98925000D01*
X164120999Y-98925000D01*
X164120999Y-98675028D01*
X164120998Y-98675013D01*
X164110505Y-98572302D01*
X164055358Y-98405880D01*
X164055356Y-98405875D01*
X163963315Y-98256654D01*
X163839345Y-98132684D01*
X163690124Y-98040643D01*
X163690119Y-98040641D01*
X163525378Y-97986051D01*
X163467933Y-97946278D01*
X163441110Y-97881762D01*
X163453425Y-97812986D01*
X163476695Y-97780671D01*
X164898548Y-96358819D01*
X164959871Y-96325334D01*
X164986229Y-96322500D01*
X173724295Y-96322500D01*
X173742265Y-96323809D01*
X173766023Y-96327289D01*
X173818068Y-96322735D01*
X173823470Y-96322500D01*
X173831704Y-96322500D01*
X173831709Y-96322500D01*
X173843327Y-96321141D01*
X173864276Y-96318693D01*
X173877028Y-96317577D01*
X173940797Y-96311999D01*
X173940805Y-96311996D01*
X173947866Y-96310539D01*
X173947878Y-96310598D01*
X173955243Y-96308965D01*
X173955229Y-96308906D01*
X173962246Y-96307241D01*
X173962255Y-96307241D01*
X174034423Y-96280974D01*
X174107334Y-96256814D01*
X174107343Y-96256807D01*
X174113882Y-96253760D01*
X174113908Y-96253816D01*
X174120690Y-96250532D01*
X174120663Y-96250478D01*
X174127106Y-96247240D01*
X174127117Y-96247237D01*
X174191283Y-96205034D01*
X174256656Y-96164712D01*
X174256662Y-96164705D01*
X174262325Y-96160229D01*
X174262362Y-96160277D01*
X174268204Y-96155518D01*
X174268164Y-96155471D01*
X174273691Y-96150832D01*
X174273696Y-96150830D01*
X174326386Y-96094981D01*
X178132637Y-92288728D01*
X178193958Y-92255245D01*
X178240721Y-92254102D01*
X178368951Y-92275500D01*
X178368952Y-92275500D01*
X178601048Y-92275500D01*
X178601049Y-92275500D01*
X178829981Y-92237298D01*
X179049503Y-92161936D01*
X179253626Y-92051470D01*
X179436784Y-91908913D01*
X179445130Y-91899846D01*
X179505010Y-91863854D01*
X179574849Y-91865949D01*
X179632468Y-91905469D01*
X179652544Y-91940491D01*
X179681203Y-92017330D01*
X179681206Y-92017335D01*
X179767452Y-92132544D01*
X179767455Y-92132547D01*
X179882664Y-92218793D01*
X179882671Y-92218797D01*
X180017517Y-92269091D01*
X180017516Y-92269091D01*
X180024444Y-92269835D01*
X180077127Y-92275500D01*
X181972872Y-92275499D01*
X182032483Y-92269091D01*
X182167331Y-92218796D01*
X182282546Y-92132546D01*
X182368796Y-92017331D01*
X182419091Y-91882483D01*
X182425500Y-91822873D01*
X182425499Y-89927128D01*
X182419091Y-89867517D01*
X182409233Y-89841087D01*
X182368797Y-89732671D01*
X182368793Y-89732664D01*
X182282547Y-89617455D01*
X182282544Y-89617452D01*
X182167335Y-89531206D01*
X182167328Y-89531202D01*
X182032482Y-89480908D01*
X182032483Y-89480908D01*
X181972883Y-89474501D01*
X181972881Y-89474500D01*
X181972873Y-89474500D01*
X181972864Y-89474500D01*
X180077129Y-89474500D01*
X180077123Y-89474501D01*
X180017516Y-89480908D01*
X179882671Y-89531202D01*
X179882664Y-89531206D01*
X179767455Y-89617452D01*
X179767452Y-89617455D01*
X179681206Y-89732664D01*
X179681203Y-89732670D01*
X179652544Y-89809508D01*
X179610672Y-89865441D01*
X179545208Y-89889858D01*
X179476935Y-89875006D01*
X179445135Y-89850158D01*
X179436784Y-89841087D01*
X179436778Y-89841082D01*
X179436777Y-89841081D01*
X179253634Y-89698535D01*
X179253628Y-89698531D01*
X179049504Y-89588064D01*
X179049495Y-89588061D01*
X178829984Y-89512702D01*
X178639450Y-89480908D01*
X178601049Y-89474500D01*
X178368951Y-89474500D01*
X178330550Y-89480908D01*
X178140015Y-89512702D01*
X177920504Y-89588061D01*
X177920495Y-89588064D01*
X177716371Y-89698531D01*
X177716365Y-89698535D01*
X177533222Y-89841081D01*
X177533219Y-89841084D01*
X177533216Y-89841086D01*
X177533216Y-89841087D01*
X177488319Y-89889858D01*
X177376016Y-90011852D01*
X177249075Y-90206151D01*
X177155842Y-90418699D01*
X177098866Y-90643691D01*
X177098864Y-90643702D01*
X177079700Y-90874993D01*
X177079700Y-90875006D01*
X177098865Y-91106304D01*
X177098865Y-91106307D01*
X177100454Y-91112578D01*
X177097830Y-91182398D01*
X177067930Y-91230700D01*
X176637180Y-91661450D01*
X176575857Y-91694935D01*
X176506165Y-91689951D01*
X176450232Y-91648079D01*
X176425815Y-91582615D01*
X176425499Y-91573793D01*
X176425499Y-89927128D01*
X176419091Y-89867517D01*
X176409233Y-89841087D01*
X176368797Y-89732671D01*
X176368793Y-89732664D01*
X176282547Y-89617455D01*
X176282544Y-89617452D01*
X176167335Y-89531206D01*
X176167328Y-89531202D01*
X176032482Y-89480908D01*
X176032483Y-89480908D01*
X175972883Y-89474501D01*
X175972881Y-89474500D01*
X175972873Y-89474500D01*
X175972864Y-89474500D01*
X174077129Y-89474500D01*
X174077123Y-89474501D01*
X174017516Y-89480908D01*
X173882671Y-89531202D01*
X173882664Y-89531206D01*
X173767455Y-89617452D01*
X173767452Y-89617455D01*
X173681206Y-89732664D01*
X173681203Y-89732670D01*
X173652544Y-89809508D01*
X173610672Y-89865441D01*
X173545208Y-89889858D01*
X173476935Y-89875006D01*
X173445135Y-89850158D01*
X173436784Y-89841087D01*
X173436778Y-89841082D01*
X173436777Y-89841081D01*
X173253634Y-89698535D01*
X173253628Y-89698531D01*
X173049504Y-89588064D01*
X173049495Y-89588061D01*
X172829984Y-89512702D01*
X172639450Y-89480908D01*
X172601049Y-89474500D01*
X172368951Y-89474500D01*
X172330550Y-89480908D01*
X172140015Y-89512702D01*
X171920504Y-89588061D01*
X171920495Y-89588064D01*
X171716371Y-89698531D01*
X171716365Y-89698535D01*
X171533222Y-89841081D01*
X171533219Y-89841084D01*
X171533216Y-89841086D01*
X171533216Y-89841087D01*
X171488319Y-89889858D01*
X171376016Y-90011852D01*
X171249075Y-90206151D01*
X171155842Y-90418699D01*
X171098866Y-90643691D01*
X171098864Y-90643702D01*
X171079700Y-90874993D01*
X171079700Y-90875006D01*
X171098865Y-91106303D01*
X171100455Y-91112581D01*
X171097829Y-91182401D01*
X171067930Y-91230701D01*
X170637180Y-91661451D01*
X170575857Y-91694936D01*
X170506165Y-91689952D01*
X170450232Y-91648080D01*
X170425815Y-91582616D01*
X170425499Y-91573794D01*
X170425499Y-89927128D01*
X170419091Y-89867517D01*
X170409233Y-89841087D01*
X170368797Y-89732671D01*
X170368793Y-89732664D01*
X170282547Y-89617455D01*
X170282544Y-89617452D01*
X170167335Y-89531206D01*
X170167328Y-89531202D01*
X170032482Y-89480908D01*
X170032483Y-89480908D01*
X169972883Y-89474501D01*
X169972881Y-89474500D01*
X169972873Y-89474500D01*
X169972864Y-89474500D01*
X168077129Y-89474500D01*
X168077123Y-89474501D01*
X168017516Y-89480908D01*
X167882671Y-89531202D01*
X167882664Y-89531206D01*
X167767455Y-89617452D01*
X167767452Y-89617455D01*
X167681206Y-89732664D01*
X167681203Y-89732670D01*
X167652544Y-89809508D01*
X167610672Y-89865441D01*
X167545208Y-89889858D01*
X167476935Y-89875006D01*
X167445135Y-89850158D01*
X167436784Y-89841087D01*
X167436778Y-89841082D01*
X167436777Y-89841081D01*
X167253634Y-89698535D01*
X167253628Y-89698531D01*
X167049504Y-89588064D01*
X167049495Y-89588061D01*
X166829984Y-89512702D01*
X166639450Y-89480908D01*
X166601049Y-89474500D01*
X166368951Y-89474500D01*
X166330550Y-89480908D01*
X166140015Y-89512702D01*
X165920504Y-89588061D01*
X165920495Y-89588064D01*
X165716371Y-89698531D01*
X165716365Y-89698535D01*
X165533222Y-89841081D01*
X165533219Y-89841084D01*
X165533216Y-89841086D01*
X165533216Y-89841087D01*
X165488319Y-89889858D01*
X165376016Y-90011852D01*
X165249075Y-90206151D01*
X165155842Y-90418699D01*
X165098866Y-90643691D01*
X165098864Y-90643702D01*
X165079700Y-90874993D01*
X165079700Y-90875006D01*
X165098865Y-91106304D01*
X165098865Y-91106307D01*
X165100454Y-91112578D01*
X165097830Y-91182398D01*
X165067930Y-91230700D01*
X164637180Y-91661450D01*
X164575857Y-91694935D01*
X164506165Y-91689951D01*
X164450232Y-91648079D01*
X164425815Y-91582615D01*
X164425499Y-91573793D01*
X164425499Y-89927128D01*
X164419091Y-89867517D01*
X164409233Y-89841087D01*
X164368797Y-89732671D01*
X164368793Y-89732664D01*
X164282547Y-89617455D01*
X164282544Y-89617452D01*
X164167335Y-89531206D01*
X164167328Y-89531202D01*
X164032482Y-89480908D01*
X164032483Y-89480908D01*
X163972883Y-89474501D01*
X163972881Y-89474500D01*
X163972873Y-89474500D01*
X163972864Y-89474500D01*
X162077129Y-89474500D01*
X162077123Y-89474501D01*
X162017516Y-89480908D01*
X161882671Y-89531202D01*
X161882664Y-89531206D01*
X161767455Y-89617452D01*
X161767452Y-89617455D01*
X161681206Y-89732664D01*
X161681203Y-89732670D01*
X161652544Y-89809508D01*
X161610672Y-89865441D01*
X161545208Y-89889858D01*
X161476935Y-89875006D01*
X161445135Y-89850158D01*
X161436784Y-89841087D01*
X161436778Y-89841082D01*
X161436777Y-89841081D01*
X161253634Y-89698535D01*
X161253628Y-89698531D01*
X161049504Y-89588064D01*
X161049495Y-89588061D01*
X160829984Y-89512702D01*
X160639450Y-89480908D01*
X160601049Y-89474500D01*
X160368951Y-89474500D01*
X160330550Y-89480908D01*
X160140015Y-89512702D01*
X159920504Y-89588061D01*
X159920495Y-89588064D01*
X159716371Y-89698531D01*
X159716365Y-89698535D01*
X159533222Y-89841081D01*
X159533219Y-89841084D01*
X159533216Y-89841086D01*
X159533216Y-89841087D01*
X159488319Y-89889858D01*
X159376016Y-90011852D01*
X159249075Y-90206151D01*
X159155842Y-90418699D01*
X159098866Y-90643691D01*
X159098864Y-90643702D01*
X159079700Y-90874993D01*
X159079700Y-90875006D01*
X159098865Y-91106303D01*
X159100455Y-91112581D01*
X159097829Y-91182401D01*
X159067930Y-91230701D01*
X158637180Y-91661451D01*
X158575857Y-91694936D01*
X158506165Y-91689952D01*
X158450232Y-91648080D01*
X158425815Y-91582616D01*
X158425499Y-91573794D01*
X158425499Y-89927128D01*
X158419091Y-89867517D01*
X158409233Y-89841087D01*
X158368797Y-89732671D01*
X158368793Y-89732664D01*
X158282547Y-89617455D01*
X158282544Y-89617452D01*
X158167335Y-89531206D01*
X158167328Y-89531202D01*
X158032482Y-89480908D01*
X158032483Y-89480908D01*
X157972883Y-89474501D01*
X157972881Y-89474500D01*
X157972873Y-89474500D01*
X157972864Y-89474500D01*
X156077129Y-89474500D01*
X156077123Y-89474501D01*
X156017516Y-89480908D01*
X155882671Y-89531202D01*
X155882664Y-89531206D01*
X155767455Y-89617452D01*
X155767452Y-89617455D01*
X155681206Y-89732664D01*
X155681203Y-89732670D01*
X155652544Y-89809508D01*
X155610672Y-89865441D01*
X155545208Y-89889858D01*
X155476935Y-89875006D01*
X155445135Y-89850158D01*
X155436784Y-89841087D01*
X155436778Y-89841082D01*
X155436777Y-89841081D01*
X155253634Y-89698535D01*
X155253628Y-89698531D01*
X155049504Y-89588064D01*
X155049495Y-89588061D01*
X154829984Y-89512702D01*
X154639450Y-89480908D01*
X154601049Y-89474500D01*
X154368951Y-89474500D01*
X154330550Y-89480908D01*
X154140015Y-89512702D01*
X153920504Y-89588061D01*
X153920495Y-89588064D01*
X153716371Y-89698531D01*
X153716365Y-89698535D01*
X153533222Y-89841081D01*
X153533219Y-89841084D01*
X153533216Y-89841086D01*
X153533216Y-89841087D01*
X153488319Y-89889858D01*
X153376016Y-90011852D01*
X153249075Y-90206151D01*
X153155842Y-90418699D01*
X153098866Y-90643691D01*
X153098864Y-90643702D01*
X153079700Y-90874993D01*
X153079700Y-90875006D01*
X153098864Y-91106297D01*
X153098866Y-91106308D01*
X153155842Y-91331300D01*
X153249075Y-91543848D01*
X153376016Y-91738147D01*
X153376019Y-91738151D01*
X153376021Y-91738153D01*
X153533216Y-91908913D01*
X153533219Y-91908915D01*
X153533222Y-91908918D01*
X153716365Y-92051464D01*
X153716371Y-92051468D01*
X153716374Y-92051470D01*
X153920497Y-92161936D01*
X154034487Y-92201068D01*
X154140015Y-92237297D01*
X154140017Y-92237297D01*
X154140019Y-92237298D01*
X154368951Y-92275500D01*
X154368952Y-92275500D01*
X154601048Y-92275500D01*
X154601049Y-92275500D01*
X154829981Y-92237298D01*
X155049503Y-92161936D01*
X155253626Y-92051470D01*
X155436784Y-91908913D01*
X155445130Y-91899846D01*
X155505010Y-91863854D01*
X155574849Y-91865949D01*
X155632468Y-91905469D01*
X155652544Y-91940491D01*
X155681203Y-92017330D01*
X155681206Y-92017335D01*
X155767452Y-92132544D01*
X155767455Y-92132547D01*
X155882664Y-92218793D01*
X155882671Y-92218797D01*
X156017517Y-92269091D01*
X156017516Y-92269091D01*
X156024444Y-92269835D01*
X156077127Y-92275500D01*
X157723770Y-92275499D01*
X157790809Y-92295184D01*
X157836564Y-92347987D01*
X157846508Y-92417146D01*
X157817483Y-92480702D01*
X157811451Y-92487180D01*
X157613451Y-92685181D01*
X157552128Y-92718666D01*
X157525770Y-92721500D01*
X148811705Y-92721500D01*
X148793735Y-92720191D01*
X148769972Y-92716710D01*
X148724533Y-92720686D01*
X148717931Y-92721264D01*
X148712530Y-92721500D01*
X148704289Y-92721500D01*
X148682579Y-92724037D01*
X148671724Y-92725306D01*
X148656419Y-92726645D01*
X148595199Y-92732001D01*
X148588132Y-92733460D01*
X148588120Y-92733404D01*
X148580763Y-92735035D01*
X148580777Y-92735092D01*
X148573743Y-92736759D01*
X148501575Y-92763025D01*
X148428675Y-92787181D01*
X148422126Y-92790236D01*
X148422101Y-92790183D01*
X148415308Y-92793471D01*
X148415334Y-92793523D01*
X148408880Y-92796764D01*
X148344708Y-92838971D01*
X148279347Y-92879285D01*
X148273683Y-92883765D01*
X148273647Y-92883719D01*
X148267798Y-92888484D01*
X148267835Y-92888528D01*
X148262310Y-92893164D01*
X148209597Y-92949035D01*
X143220449Y-97938181D01*
X143159126Y-97971666D01*
X143132768Y-97974500D01*
X142746228Y-97974500D01*
X142679189Y-97954815D01*
X142633434Y-97902011D01*
X142623490Y-97832853D01*
X142652515Y-97769297D01*
X142658533Y-97762833D01*
X148132637Y-92288728D01*
X148193958Y-92255245D01*
X148240721Y-92254102D01*
X148368951Y-92275500D01*
X148368952Y-92275500D01*
X148601048Y-92275500D01*
X148601049Y-92275500D01*
X148829981Y-92237298D01*
X149049503Y-92161936D01*
X149253626Y-92051470D01*
X149436784Y-91908913D01*
X149445130Y-91899846D01*
X149505010Y-91863854D01*
X149574849Y-91865949D01*
X149632468Y-91905469D01*
X149652544Y-91940491D01*
X149681203Y-92017330D01*
X149681206Y-92017335D01*
X149767452Y-92132544D01*
X149767455Y-92132547D01*
X149882664Y-92218793D01*
X149882671Y-92218797D01*
X150017517Y-92269091D01*
X150017516Y-92269091D01*
X150024444Y-92269835D01*
X150077127Y-92275500D01*
X151972872Y-92275499D01*
X152032483Y-92269091D01*
X152167331Y-92218796D01*
X152282546Y-92132546D01*
X152368796Y-92017331D01*
X152419091Y-91882483D01*
X152425500Y-91822873D01*
X152425499Y-89927128D01*
X152419091Y-89867517D01*
X152409233Y-89841087D01*
X152368797Y-89732671D01*
X152368793Y-89732664D01*
X152282547Y-89617455D01*
X152282544Y-89617452D01*
X152167335Y-89531206D01*
X152167328Y-89531202D01*
X152032482Y-89480908D01*
X152032483Y-89480908D01*
X151972883Y-89474501D01*
X151972881Y-89474500D01*
X151972873Y-89474500D01*
X151972864Y-89474500D01*
X150077129Y-89474500D01*
X150077123Y-89474501D01*
X150017516Y-89480908D01*
X149882671Y-89531202D01*
X149882664Y-89531206D01*
X149767455Y-89617452D01*
X149767452Y-89617455D01*
X149681206Y-89732664D01*
X149681203Y-89732670D01*
X149652544Y-89809508D01*
X149610672Y-89865441D01*
X149545208Y-89889858D01*
X149476935Y-89875006D01*
X149445135Y-89850158D01*
X149436784Y-89841087D01*
X149436778Y-89841082D01*
X149436777Y-89841081D01*
X149253634Y-89698535D01*
X149253628Y-89698531D01*
X149049504Y-89588064D01*
X149049495Y-89588061D01*
X148829984Y-89512702D01*
X148639450Y-89480908D01*
X148601049Y-89474500D01*
X148368951Y-89474500D01*
X148330550Y-89480908D01*
X148140015Y-89512702D01*
X147920504Y-89588061D01*
X147920495Y-89588064D01*
X147716371Y-89698531D01*
X147716365Y-89698535D01*
X147533222Y-89841081D01*
X147533219Y-89841084D01*
X147533216Y-89841086D01*
X147533216Y-89841087D01*
X147488319Y-89889858D01*
X147376016Y-90011852D01*
X147249075Y-90206151D01*
X147155842Y-90418699D01*
X147098866Y-90643691D01*
X147098864Y-90643702D01*
X147079700Y-90874993D01*
X147079700Y-90875006D01*
X147098865Y-91106304D01*
X147098865Y-91106307D01*
X147100454Y-91112578D01*
X147097830Y-91182398D01*
X147067930Y-91230700D01*
X146637180Y-91661450D01*
X146575857Y-91694935D01*
X146506165Y-91689951D01*
X146450232Y-91648079D01*
X146425815Y-91582615D01*
X146425499Y-91573793D01*
X146425499Y-89927128D01*
X146419091Y-89867517D01*
X146409233Y-89841087D01*
X146368797Y-89732671D01*
X146368793Y-89732664D01*
X146282547Y-89617455D01*
X146282544Y-89617452D01*
X146167335Y-89531206D01*
X146167328Y-89531202D01*
X146032482Y-89480908D01*
X146032483Y-89480908D01*
X145972883Y-89474501D01*
X145972881Y-89474500D01*
X145972873Y-89474500D01*
X145972864Y-89474500D01*
X144077129Y-89474500D01*
X144077123Y-89474501D01*
X144017516Y-89480908D01*
X143882671Y-89531202D01*
X143882664Y-89531206D01*
X143767455Y-89617452D01*
X143767452Y-89617455D01*
X143681206Y-89732664D01*
X143681203Y-89732670D01*
X143652544Y-89809508D01*
X143610672Y-89865441D01*
X143545208Y-89889858D01*
X143476935Y-89875006D01*
X143445135Y-89850158D01*
X143436784Y-89841087D01*
X143436778Y-89841082D01*
X143436777Y-89841081D01*
X143253634Y-89698535D01*
X143253628Y-89698531D01*
X143049504Y-89588064D01*
X143049495Y-89588061D01*
X142829984Y-89512702D01*
X142639450Y-89480908D01*
X142601049Y-89474500D01*
X142368951Y-89474500D01*
X142330550Y-89480908D01*
X142140015Y-89512702D01*
X141920504Y-89588061D01*
X141920495Y-89588064D01*
X141716371Y-89698531D01*
X141716365Y-89698535D01*
X141533222Y-89841081D01*
X141533219Y-89841084D01*
X141533216Y-89841086D01*
X141533216Y-89841087D01*
X141488319Y-89889858D01*
X141376016Y-90011852D01*
X141249075Y-90206151D01*
X141155842Y-90418699D01*
X141098866Y-90643691D01*
X141098864Y-90643702D01*
X141079700Y-90874993D01*
X141079700Y-90875006D01*
X141098865Y-91106303D01*
X141100455Y-91112581D01*
X141097829Y-91182401D01*
X141067930Y-91230701D01*
X140637180Y-91661450D01*
X140575857Y-91694935D01*
X140506165Y-91689951D01*
X140450232Y-91648079D01*
X140425815Y-91582615D01*
X140425499Y-91573793D01*
X140425499Y-89927128D01*
X140419091Y-89867517D01*
X140409233Y-89841087D01*
X140368797Y-89732671D01*
X140368793Y-89732664D01*
X140282547Y-89617455D01*
X140282544Y-89617452D01*
X140167335Y-89531206D01*
X140167328Y-89531202D01*
X140032482Y-89480908D01*
X140032483Y-89480908D01*
X139972883Y-89474501D01*
X139972881Y-89474500D01*
X139972873Y-89474500D01*
X139972864Y-89474500D01*
X138077129Y-89474500D01*
X138077123Y-89474501D01*
X138017516Y-89480908D01*
X137882671Y-89531202D01*
X137882664Y-89531206D01*
X137767455Y-89617452D01*
X137767452Y-89617455D01*
X137681206Y-89732664D01*
X137681203Y-89732670D01*
X137652544Y-89809508D01*
X137610672Y-89865441D01*
X137545208Y-89889858D01*
X137476935Y-89875006D01*
X137445135Y-89850158D01*
X137436784Y-89841087D01*
X137436778Y-89841082D01*
X137436777Y-89841081D01*
X137253634Y-89698535D01*
X137253628Y-89698531D01*
X137049504Y-89588064D01*
X137049495Y-89588061D01*
X136829984Y-89512702D01*
X136639450Y-89480908D01*
X136601049Y-89474500D01*
X136368951Y-89474500D01*
X136330550Y-89480908D01*
X136140015Y-89512702D01*
X135920504Y-89588061D01*
X135920495Y-89588064D01*
X135716371Y-89698531D01*
X135716365Y-89698535D01*
X135533222Y-89841081D01*
X135533219Y-89841084D01*
X135533216Y-89841086D01*
X135533216Y-89841087D01*
X135488319Y-89889858D01*
X135376016Y-90011852D01*
X135249075Y-90206151D01*
X135155842Y-90418699D01*
X135098866Y-90643691D01*
X135098864Y-90643702D01*
X135079700Y-90874993D01*
X135079700Y-90875006D01*
X134425500Y-90875006D01*
X134425499Y-89927128D01*
X134419091Y-89867517D01*
X134409233Y-89841087D01*
X134368797Y-89732671D01*
X134368793Y-89732664D01*
X134282547Y-89617455D01*
X134282544Y-89617452D01*
X134167335Y-89531206D01*
X134167328Y-89531202D01*
X134032482Y-89480908D01*
X134032483Y-89480908D01*
X133972883Y-89474501D01*
X133972881Y-89474500D01*
X133972873Y-89474500D01*
X133972864Y-89474500D01*
X132077129Y-89474500D01*
X132077123Y-89474501D01*
X132017516Y-89480908D01*
X131882671Y-89531202D01*
X131882664Y-89531206D01*
X131767455Y-89617452D01*
X131767452Y-89617455D01*
X131681206Y-89732664D01*
X131681203Y-89732670D01*
X131652544Y-89809508D01*
X131610672Y-89865441D01*
X131545208Y-89889858D01*
X131476935Y-89875006D01*
X131445135Y-89850158D01*
X131436784Y-89841087D01*
X131436778Y-89841082D01*
X131436777Y-89841081D01*
X131253634Y-89698535D01*
X131253628Y-89698531D01*
X131049504Y-89588064D01*
X131049495Y-89588061D01*
X130829984Y-89512702D01*
X130639450Y-89480908D01*
X130601049Y-89474500D01*
X130368951Y-89474500D01*
X130330550Y-89480908D01*
X130140015Y-89512702D01*
X129920504Y-89588061D01*
X129920495Y-89588064D01*
X129716371Y-89698531D01*
X129716365Y-89698535D01*
X129533222Y-89841081D01*
X129533219Y-89841084D01*
X129533216Y-89841086D01*
X129533216Y-89841087D01*
X129488319Y-89889858D01*
X129376016Y-90011852D01*
X129249075Y-90206151D01*
X129155842Y-90418699D01*
X129098866Y-90643691D01*
X129098864Y-90643702D01*
X129079700Y-90874993D01*
X129079700Y-90875006D01*
X128425500Y-90875006D01*
X128425499Y-89927128D01*
X128419091Y-89867517D01*
X128409233Y-89841087D01*
X128368797Y-89732671D01*
X128368793Y-89732664D01*
X128282547Y-89617455D01*
X128282544Y-89617452D01*
X128167335Y-89531206D01*
X128167328Y-89531202D01*
X128032482Y-89480908D01*
X128032483Y-89480908D01*
X127972883Y-89474501D01*
X127972881Y-89474500D01*
X127972873Y-89474500D01*
X127972864Y-89474500D01*
X126077129Y-89474500D01*
X126077123Y-89474501D01*
X126017516Y-89480908D01*
X125882671Y-89531202D01*
X125882664Y-89531206D01*
X125767455Y-89617452D01*
X125767452Y-89617455D01*
X125681206Y-89732664D01*
X125681203Y-89732670D01*
X125652544Y-89809508D01*
X125610672Y-89865441D01*
X125545208Y-89889858D01*
X125476935Y-89875006D01*
X125445135Y-89850158D01*
X125436784Y-89841087D01*
X125436778Y-89841082D01*
X125436777Y-89841081D01*
X125253634Y-89698535D01*
X125253628Y-89698531D01*
X125049504Y-89588064D01*
X125049495Y-89588061D01*
X124829984Y-89512702D01*
X124639450Y-89480908D01*
X124601049Y-89474500D01*
X124368951Y-89474500D01*
X124330550Y-89480908D01*
X124140015Y-89512702D01*
X123920504Y-89588061D01*
X123920495Y-89588064D01*
X123716371Y-89698531D01*
X123716365Y-89698535D01*
X123533222Y-89841081D01*
X123533219Y-89841084D01*
X123533216Y-89841086D01*
X123533216Y-89841087D01*
X123488319Y-89889858D01*
X123376016Y-90011852D01*
X123249075Y-90206151D01*
X123155842Y-90418699D01*
X123098866Y-90643691D01*
X123098864Y-90643702D01*
X123079700Y-90874993D01*
X123079700Y-90875006D01*
X122425500Y-90875006D01*
X122425499Y-89927128D01*
X122419091Y-89867517D01*
X122409233Y-89841087D01*
X122368797Y-89732671D01*
X122368793Y-89732664D01*
X122282547Y-89617455D01*
X122282544Y-89617452D01*
X122167335Y-89531206D01*
X122167328Y-89531202D01*
X122032482Y-89480908D01*
X122032483Y-89480908D01*
X121972883Y-89474501D01*
X121972881Y-89474500D01*
X121972873Y-89474500D01*
X121972864Y-89474500D01*
X120077129Y-89474500D01*
X120077123Y-89474501D01*
X120017516Y-89480908D01*
X119882671Y-89531202D01*
X119882664Y-89531206D01*
X119767455Y-89617452D01*
X119767452Y-89617455D01*
X119681206Y-89732664D01*
X119681203Y-89732670D01*
X119652544Y-89809508D01*
X119610672Y-89865441D01*
X119545208Y-89889858D01*
X119476935Y-89875006D01*
X119445135Y-89850158D01*
X119436784Y-89841087D01*
X119436778Y-89841082D01*
X119436777Y-89841081D01*
X119253634Y-89698535D01*
X119253628Y-89698531D01*
X119049504Y-89588064D01*
X119049495Y-89588061D01*
X118829984Y-89512702D01*
X118639450Y-89480908D01*
X118601049Y-89474500D01*
X118368951Y-89474500D01*
X118330550Y-89480908D01*
X118140015Y-89512702D01*
X117920504Y-89588061D01*
X117920495Y-89588064D01*
X117716371Y-89698531D01*
X117716365Y-89698535D01*
X117533222Y-89841081D01*
X117533219Y-89841084D01*
X117533216Y-89841086D01*
X117533216Y-89841087D01*
X117488319Y-89889858D01*
X117376016Y-90011852D01*
X117249075Y-90206151D01*
X117155842Y-90418699D01*
X117098866Y-90643691D01*
X117098864Y-90643702D01*
X117079700Y-90874993D01*
X117079700Y-90875006D01*
X116425500Y-90875006D01*
X116425499Y-89927128D01*
X116419091Y-89867517D01*
X116409233Y-89841087D01*
X116368797Y-89732671D01*
X116368793Y-89732664D01*
X116282547Y-89617455D01*
X116282544Y-89617452D01*
X116167335Y-89531206D01*
X116167328Y-89531202D01*
X116032482Y-89480908D01*
X116032483Y-89480908D01*
X115972883Y-89474501D01*
X115972881Y-89474500D01*
X115972873Y-89474500D01*
X115972864Y-89474500D01*
X114077129Y-89474500D01*
X114077123Y-89474501D01*
X114017516Y-89480908D01*
X113882671Y-89531202D01*
X113882664Y-89531206D01*
X113767455Y-89617452D01*
X113767452Y-89617455D01*
X113681206Y-89732664D01*
X113681203Y-89732670D01*
X113652544Y-89809508D01*
X113610672Y-89865441D01*
X113545208Y-89889858D01*
X113476935Y-89875006D01*
X113445135Y-89850158D01*
X113436784Y-89841087D01*
X113436778Y-89841082D01*
X113436777Y-89841081D01*
X113253634Y-89698535D01*
X113253628Y-89698531D01*
X113049504Y-89588064D01*
X113049495Y-89588061D01*
X112829984Y-89512702D01*
X112639450Y-89480908D01*
X112601049Y-89474500D01*
X112368951Y-89474500D01*
X112330550Y-89480908D01*
X112140015Y-89512702D01*
X111920504Y-89588061D01*
X111920495Y-89588064D01*
X111716371Y-89698531D01*
X111716365Y-89698535D01*
X111533222Y-89841081D01*
X111533219Y-89841084D01*
X111533216Y-89841086D01*
X111533216Y-89841087D01*
X111488319Y-89889858D01*
X111376016Y-90011852D01*
X111249075Y-90206151D01*
X111155842Y-90418699D01*
X111098866Y-90643691D01*
X111098864Y-90643702D01*
X111079700Y-90874993D01*
X111079700Y-90875006D01*
X110425500Y-90875006D01*
X110425499Y-89927128D01*
X110419091Y-89867517D01*
X110409233Y-89841087D01*
X110368797Y-89732671D01*
X110368793Y-89732664D01*
X110282547Y-89617455D01*
X110282544Y-89617452D01*
X110167335Y-89531206D01*
X110167328Y-89531202D01*
X110032482Y-89480908D01*
X110032483Y-89480908D01*
X109972883Y-89474501D01*
X109972881Y-89474500D01*
X109972873Y-89474500D01*
X109972864Y-89474500D01*
X108077129Y-89474500D01*
X108077123Y-89474501D01*
X108017516Y-89480908D01*
X107882671Y-89531202D01*
X107882664Y-89531206D01*
X107767455Y-89617452D01*
X107767452Y-89617455D01*
X107681206Y-89732664D01*
X107681203Y-89732670D01*
X107652544Y-89809508D01*
X107610672Y-89865441D01*
X107545208Y-89889858D01*
X107476935Y-89875006D01*
X107445135Y-89850158D01*
X107436784Y-89841087D01*
X107436778Y-89841082D01*
X107436777Y-89841081D01*
X107253634Y-89698535D01*
X107253628Y-89698531D01*
X107049504Y-89588064D01*
X107049495Y-89588061D01*
X106829984Y-89512702D01*
X106639450Y-89480908D01*
X106601049Y-89474500D01*
X106368951Y-89474500D01*
X106330550Y-89480908D01*
X106140015Y-89512702D01*
X105920504Y-89588061D01*
X105920495Y-89588064D01*
X105716371Y-89698531D01*
X105716365Y-89698535D01*
X105533222Y-89841081D01*
X105533219Y-89841084D01*
X105533216Y-89841086D01*
X105533216Y-89841087D01*
X105488319Y-89889858D01*
X105376016Y-90011852D01*
X105249075Y-90206151D01*
X105155842Y-90418699D01*
X105098866Y-90643691D01*
X105098864Y-90643702D01*
X105079700Y-90874993D01*
X105079700Y-90875006D01*
X104425500Y-90875006D01*
X104425499Y-89927128D01*
X104419091Y-89867517D01*
X104409233Y-89841087D01*
X104368797Y-89732671D01*
X104368793Y-89732664D01*
X104282547Y-89617455D01*
X104282544Y-89617452D01*
X104167335Y-89531206D01*
X104167328Y-89531202D01*
X104032482Y-89480908D01*
X104032483Y-89480908D01*
X103972883Y-89474501D01*
X103972881Y-89474500D01*
X103972873Y-89474500D01*
X103972864Y-89474500D01*
X102077129Y-89474500D01*
X102077123Y-89474501D01*
X102017516Y-89480908D01*
X101882671Y-89531202D01*
X101882664Y-89531206D01*
X101767455Y-89617452D01*
X101767452Y-89617455D01*
X101681206Y-89732664D01*
X101681203Y-89732670D01*
X101652544Y-89809508D01*
X101610672Y-89865441D01*
X101545208Y-89889858D01*
X101476935Y-89875006D01*
X101445135Y-89850158D01*
X101436784Y-89841087D01*
X101436778Y-89841082D01*
X101436777Y-89841081D01*
X101253634Y-89698535D01*
X101253628Y-89698531D01*
X101049504Y-89588064D01*
X101049495Y-89588061D01*
X100829984Y-89512702D01*
X100639450Y-89480908D01*
X100601049Y-89474500D01*
X100368951Y-89474500D01*
X100330550Y-89480908D01*
X100140015Y-89512702D01*
X99920504Y-89588061D01*
X99920495Y-89588064D01*
X99716371Y-89698531D01*
X99716365Y-89698535D01*
X99533222Y-89841081D01*
X99533219Y-89841084D01*
X99533216Y-89841086D01*
X99533216Y-89841087D01*
X99488319Y-89889858D01*
X99376016Y-90011852D01*
X99249075Y-90206151D01*
X99155842Y-90418699D01*
X99098866Y-90643691D01*
X99098864Y-90643702D01*
X99079700Y-90874993D01*
X99079700Y-90875006D01*
X99098864Y-91106297D01*
X99098866Y-91106308D01*
X99155842Y-91331300D01*
X99249075Y-91543848D01*
X99376016Y-91738147D01*
X99376019Y-91738151D01*
X99376021Y-91738153D01*
X99533216Y-91908913D01*
X99533219Y-91908915D01*
X99533222Y-91908918D01*
X99716365Y-92051464D01*
X99716371Y-92051468D01*
X99716374Y-92051470D01*
X99920497Y-92161936D01*
X100034487Y-92201068D01*
X100140015Y-92237297D01*
X100140017Y-92237297D01*
X100140019Y-92237298D01*
X100368951Y-92275500D01*
X100368952Y-92275500D01*
X100601047Y-92275500D01*
X100601049Y-92275500D01*
X100729274Y-92254102D01*
X100798635Y-92262483D01*
X100837362Y-92288730D01*
X102528485Y-93979853D01*
X104106452Y-95557819D01*
X104139937Y-95619142D01*
X104134953Y-95688834D01*
X104093081Y-95744767D01*
X104027617Y-95769184D01*
X104018771Y-95769500D01*
X100492229Y-95769500D01*
X100425190Y-95749815D01*
X100404548Y-95733181D01*
X97158548Y-92487180D01*
X97125063Y-92425857D01*
X97130047Y-92356165D01*
X97171919Y-92300232D01*
X97237383Y-92275815D01*
X97246229Y-92275499D01*
X97972871Y-92275499D01*
X97972872Y-92275499D01*
X98032483Y-92269091D01*
X98167331Y-92218796D01*
X98282546Y-92132546D01*
X98368796Y-92017331D01*
X98419091Y-91882483D01*
X98425500Y-91822873D01*
X98425499Y-89927128D01*
X98419091Y-89867517D01*
X98409233Y-89841087D01*
X98368797Y-89732671D01*
X98368793Y-89732664D01*
X98282547Y-89617455D01*
X98282544Y-89617452D01*
X98167335Y-89531206D01*
X98167328Y-89531202D01*
X98032482Y-89480908D01*
X98032483Y-89480908D01*
X97972883Y-89474501D01*
X97972881Y-89474500D01*
X97972873Y-89474500D01*
X97972864Y-89474500D01*
X96077129Y-89474500D01*
X96077123Y-89474501D01*
X96017516Y-89480908D01*
X95882671Y-89531202D01*
X95882664Y-89531206D01*
X95767455Y-89617452D01*
X95767452Y-89617455D01*
X95681206Y-89732664D01*
X95681203Y-89732670D01*
X95652544Y-89809508D01*
X95610672Y-89865441D01*
X95545208Y-89889858D01*
X95476935Y-89875006D01*
X95445135Y-89850158D01*
X95436784Y-89841087D01*
X95436778Y-89841082D01*
X95436777Y-89841081D01*
X95253634Y-89698535D01*
X95253628Y-89698531D01*
X95049504Y-89588064D01*
X95049495Y-89588061D01*
X94829984Y-89512702D01*
X94639450Y-89480908D01*
X94601049Y-89474500D01*
X94368951Y-89474500D01*
X94330550Y-89480908D01*
X94140015Y-89512702D01*
X93920504Y-89588061D01*
X93920495Y-89588064D01*
X93716371Y-89698531D01*
X93716365Y-89698535D01*
X93533222Y-89841081D01*
X93533219Y-89841084D01*
X93533216Y-89841086D01*
X93533216Y-89841087D01*
X93488319Y-89889858D01*
X93376016Y-90011852D01*
X93249075Y-90206151D01*
X93155842Y-90418699D01*
X93098866Y-90643691D01*
X93098864Y-90643702D01*
X93079700Y-90874993D01*
X93079700Y-90875006D01*
X92250500Y-90875006D01*
X92250500Y-90352040D01*
X92250634Y-90347971D01*
X92254487Y-90289370D01*
X92270078Y-90078708D01*
X92271102Y-90071195D01*
X92293089Y-89961041D01*
X92300734Y-89927123D01*
X92328271Y-89804925D01*
X92330065Y-89798564D01*
X92369544Y-89682687D01*
X92424132Y-89541699D01*
X92426347Y-89536665D01*
X92481638Y-89424985D01*
X92483252Y-89421948D01*
X92555950Y-89294141D01*
X92558333Y-89290292D01*
X92628248Y-89186108D01*
X92630888Y-89182472D01*
X92721608Y-89066763D01*
X92723798Y-89064129D01*
X92806194Y-88970637D01*
X92810045Y-88966645D01*
X92919798Y-88862727D01*
X92936592Y-88848084D01*
X93012096Y-88782253D01*
X93017262Y-88778212D01*
X93148423Y-88686476D01*
X93242010Y-88624392D01*
X93248596Y-88620585D01*
X93437456Y-88526406D01*
X93489796Y-88500840D01*
X93494736Y-88498688D01*
X93665579Y-88432993D01*
X94292894Y-88193709D01*
X94634203Y-88079119D01*
X95117671Y-87921145D01*
X95492708Y-87813007D01*
X95954881Y-87686474D01*
X96344632Y-87592112D01*
X96803509Y-87490153D01*
X97199715Y-87412166D01*
X97663056Y-87332604D01*
X98059430Y-87272228D01*
X98535113Y-87214162D01*
X98923193Y-87172098D01*
X99430393Y-87135067D01*
X99789743Y-87111755D01*
X100459653Y-87095477D01*
X100646606Y-87091440D01*
X100646606Y-87091439D01*
X100646785Y-87091436D01*
X100647106Y-87091436D01*
X174852894Y-87091436D01*
X174853394Y-87091436D01*
X175039745Y-87095460D01*
G37*
%TD.AperFunction*%
%TD*%
M02*
