0
SECTION
2
HEADER
9
$INSUNITS
70
4
9
$ACADVER
1
AC1014
9
$HANDSEED
5
FFFF
0
ENDSEC
0
SECTION
2
TABLES
0
TABLE
2
VPORT
5
8
100
AcDbSymbolTable
0
ENDTAB
0
TABLE
2
LTYPE
5
5
100
AcDbSymbolTable
0
LTYPE
5
14
100
AcDbSymbolTableRecord
100
AcDbLinetypeTableRecord
2
BYBLOCK
70
0
0
LTYPE
5
15
100
AcDbSymbolTableRecord
100
AcDbLinetypeTableRecord
2
BYLAYER
70
0
0
ENDTAB
0
TABLE
2
LAYER
5
2
100
AcDbSymbolTable
70
2
0
LAYER
5
50
100
AcDbSymbolTableRecord
100
AcDbLayerTableRecord
2
0
70
0
6
CONTINUOUS
0
ENDTAB
0
TABLE
2
STYLE
5
3
100
AcDbSymbolTable
70
1
0
STYLE
5
11
100
AcDbSymbolTableRecord
100
AcDbTextStyleTableRecord
2
STANDARD
70
0
0
ENDTAB
0
TABLE
2
VIEW
5
6
100
AcDbSymbolTable
70
0
0
ENDTAB
0
TABLE
2
UCS
5
7
100
AcDbSymbolTable
70
0
0
ENDTAB
0
TABLE
2
APPID
5
9
100
AcDbSymbolTable
70
2
0
APPID
5
12
100
AcDbSymbolTableRecord
100
AcDbRegAppTableRecord
2
ACAD
70
0
0
ENDTAB
0
TABLE
2
DIMSTYLE
5
A
100
AcDbSymbolTable
70
1
0
ENDTAB
0
TABLE
2
BLOCK_RECORD
5
1
100
AcDbSymbolTable
70
1
0
BLOCK_RECORD
5
1F
100
AcDbSymbolTableRecord
100
AcDbBlockTableRecord
2
*MODEL_SPACE
0
BLOCK_RECORD
5
1B
100
AcDbSymbolTableRecord
100
AcDbBlockTableRecord
2
*PAPER_SPACE
0
ENDTAB
0
ENDSEC
0
SECTION
2
BLOCKS
0
BLOCK
5
20
100
AcDbEntity
100
AcDbBlockBegin
2
*MODEL_SPACE
0
ENDBLK
5
21
100
AcDbEntity
100
AcDbBlockEnd
0
BLOCK
5
1C
100
AcDbEntity
100
AcDbBlockBegin
2
*PAPER_SPACE
0
ENDBLK
5
1D
100
AcDbEntity
100
AcDbBlockEnd
0
ENDSEC
0
SECTION
2
ENTITIES
0
CIRCLE
5
100
100
AcDbEntity
8
0
100
AcDbCircle
10
54.999999999999886
20
55.000000000000227
30
0
40
1.5000000000000036
210
0
220
-0
230
1
0
CIRCLE
5
101
100
AcDbEntity
8
0
100
AcDbCircle
10
-25
20
25.000000000000234
30
0
40
1.4999999999999991
210
0
220
-0
230
1
0
CIRCLE
5
102
100
AcDbEntity
8
0
100
AcDbCircle
10
25
20
25.000000000000234
30
0
40
1.4999999999999991
210
0
220
-0
230
1
0
CIRCLE
5
103
100
AcDbEntity
8
0
100
AcDbCircle
10
-54.999999999999886
20
55.000000000000227
30
0
40
1.5000000000000036
210
0
220
-0
230
1
0
CIRCLE
5
104
100
AcDbEntity
8
0
100
AcDbCircle
10
57.922013427710226
20
77.013703728361349
30
0
40
2.0000000000000018
210
0
220
0
230
1
0
CIRCLE
5
105
100
AcDbEntity
8
0
100
AcDbCircle
10
40.630687711396988
20
-66.159972414221201
30
0
40
2.0000000000000018
210
0
220
0
230
1
0
CIRCLE
5
106
100
AcDbEntity
8
0
100
AcDbCircle
10
-57.922013427710226
20
77.013703728361349
30
0
40
2.0000000000000018
210
0
220
0
230
1
0
CIRCLE
5
107
100
AcDbEntity
8
0
100
AcDbCircle
10
-40.630687711396988
20
-66.159972414221201
30
0
40
2.0000000000000018
210
0
220
0
230
1
0
LWPOLYLINE
5
108
100
AcDbEntity
8
0
100
AcDbPolyline
90
10
70
1
43
0.0
10
-93.238876597669559
20
-53.365067831629347
42
0.46942991446922744
10
-87.470103998387231
20
-56.766225740796571
10
-66.713037794548612
20
-49.305193138837751
42
0.38584884448564849
10
-61.360714004987933
20
-39.252128119908889
10
-66.127989269674984
20
-20.366228875859676
42
0.13597257532599194
10
-70.93007751331632
20
-11.931297670984096
10
-74.578252144735103
20
-8.3008591751034473
42
0.28521075090299125
10
-87.792243093017532
20
-5.2445943456388999
10
-96.470603524410805
20
-8.2013989177111153
42
0.36579560346158135
10
-99.677699502244209
20
-13.538710364745787
0
CIRCLE
5
109
100
AcDbEntity
8
0
100
AcDbCircle
10
-86.561664515175224
20
65.13259741411818
30
0
40
1.9999999999999929
210
-0
220
0
230
1
0
CIRCLE
5
110
100
AcDbEntity
8
0
100
AcDbCircle
10
-86.56166451517737
20
55.132597414118052
30
0
40
1.9999999999999929
210
-0
220
0
230
1
0
CIRCLE
5
111
100
AcDbEntity
8
0
100
AcDbCircle
10
86.56166451517737
20
55.132597414118052
30
0
40
1.9999999999999929
210
0
220
0
230
1
0
CIRCLE
5
112
100
AcDbEntity
8
0
100
AcDbCircle
10
86.561664515175224
20
65.13259741411818
30
0
40
1.9999999999999929
210
0
220
0
230
1
0
LWPOLYLINE
5
113
100
AcDbEntity
8
0
100
AcDbPolyline
90
63
70
1
43
0.0
10
-57.466055068159356
20
83.233717364863566
42
0.15777563539641695
10
-67.966701236588477
20
78.66051425026059
10
-73.608928456553969
20
73.674685385328814
42
-0.18292935193644999
10
-76.240916993161107
20
72.678410993494111
10
-96.261664515169443
20
72.678410993494069
10
-96.261664515169528
20
47.678410993494083
10
-76.367681274525921
20
47.678410993493962
42
-0.37996670121157283
10
-74.381665676283774
20
45.91450852321109
10
-71.990481165152403
20
25.80023734438381
42
-0.29943745076178979
10
-78.160334409279983
20
13.457721297805467
10
-81.72261416003002
20
11.39267122182558
42
-0.1707324812805682
10
-87.423089075740862
20
10.3131677805143
10
-96.855492182876674
20
11.74886182318817
42
-0.38311930215240497
10
-101.01219790336779
20
16.805734917424186
10
-100.70914022388442
20
23.731103745939915
10
-131.25373647836594
20
23.731103745940025
42
0.034352920280998435
10
-132.69814904898703
20
13.288010741455764
42
0.052065468125807923
10
-131.23535673663312
20
-28.162894902606705
42
0.058394455996539515
10
-123.22338121332557
20
-58.776910467266681
42
0.027967259004699412
10
-115.6091885907511
20
-75.443230004652747
42
0.33020409827478397
10
-98.597558613059959
20
-83.62866990466415
10
-88.05826299151947
20
-81.608366098052699
42
0.15538879902504107
10
-84.887359044800178
20
-79.88552297993553
10
-82.207375178555395
20
-77.092669858542479
42
-0.17328810873537884
10
-81.054592786113787
20
-76.517426890742499
10
-50.864842533890204
20
-72.886902482640636
42
-0.12709027573109469
10
-47.52043624078901
20
-73.334836868142659
10
-41.73021183074912
20
-75.687692483055386
42
0.10806677259787145
10
-38.566550327288049
20
-76.232939471718169
10
-35.382774783254277
20
-76.090759986985432
42
0.026682472116503587
10
-28.533470129302497
20
-75.417508328919055
42
-0.037407803412332331
10
-4.8849813083506888e-14
20
-73.228946203250416
42
-0.037407803412332886
10
28.533470129302309
20
-75.41750832891907
42
0.026682472116503847
10
35.382774783254348
20
-76.090759986985418
10
38.566550327288041
20
-76.232939471718154
42
0.10806677259787184
10
41.73021183074912
20
-75.687692483055372
10
47.520436240789003
20
-73.334836868142659
42
-0.12709027573109322
10
50.864842533890204
20
-72.886902482640622
10
81.054592786113773
20
-76.517426890742499
42
-0.17328810873537517
10
82.207375178555395
20
-77.092669858542479
10
84.887359044800178
20
-79.88552297993553
42
0.15538879902504613
10
88.05826299151947
20
-81.608366098052699
10
98.597558613059959
20
-83.62866990466415
42
0.33020409827478248
10
115.60918859075107
20
-75.443230004652847
42
0.02796725900469817
10
123.22338121332544
20
-58.776910467266745
42
0.058394455996539758
10
131.23535673663309
20
-28.162894902607007
42
0.052065468125806175
10
132.69814904898706
20
13.288010741455709
42
0.034352920280995396
10
131.25373647836594
20
23.731103745939997
10
100.70914022388442
20
23.731103745939915
10
101.01219790336779
20
16.805734917424186
42
-0.38311930215240453
10
96.855492182876674
20
11.748861823188172
10
87.423089075740876
20
10.313167780514298
42
-0.17073248128056887
10
81.72261416003002
20
11.39267122182558
10
78.160334409279983
20
13.457721297805467
42
-0.29943745076230005
10
71.990481165155188
20
25.800237344407154
10
74.381665676283788
20
45.91450852321109
42
-0.37996670121157305
10
76.367681274525921
20
47.678410993493962
10
96.261664515169528
20
47.678410993494083
10
96.261664515169443
20
72.678410993494069
10
76.240916993161107
20
72.678410993494111
42
-0.18292935193644794
10
73.608928456553969
20
73.6746853853288
10
67.966701236588491
20
78.66051425026059
42
0.15777563539641812
10
57.466055068159363
20
83.233717364863651
42
0.048925444173047616
0
LWPOLYLINE
5
114
100
AcDbEntity
8
0
100
AcDbPolyline
90
10
70
1
43
0.0
10
87.470103998387231
20
-56.766225740796571
42
0.46942991446922805
10
93.238876597669545
20
-53.365067831629347
10
99.677699502244209
20
-13.538710364745787
42
0.36579560346158441
10
96.470603524410805
20
-8.2013989177111135
10
87.792243093017532
20
-5.2445943456388999
42
0.28521075090299203
10
74.578252144735103
20
-8.3008591751034455
10
70.93007751331632
20
-11.931297670984097
42
0.13597257532599316
10
66.127989269674913
20
-20.366228875859669
10
61.360714004987933
20
-39.252128119908889
42
0.38584884448564916
10
66.713037794548612
20
-49.305193138837751
0
CIRCLE
5
115
100
AcDbEntity
8
0
100
AcDbCircle
10
66.741478013895772
20
64.616677083770497
30
0
40
2.0000000000000018
210
0
220
-0
230
1
0
CIRCLE
5
116
100
AcDbEntity
8
0
100
AcDbCircle
10
61.347299917849504
20
0
30
0
40
2.0000000000000018
210
0
220
-0
230
1
0
CIRCLE
5
117
100
AcDbEntity
8
0
100
AcDbCircle
10
52.31023828138941
20
-51.803742802291872
30
0
40
2.0000000000000018
210
0
220
-0
230
1
0
CIRCLE
5
118
100
AcDbEntity
8
0
100
AcDbCircle
10
-66.741478013895772
20
64.616677083770497
30
0
40
2.0000000000000018
210
0
220
0
230
1
0
CIRCLE
5
119
100
AcDbEntity
8
0
100
AcDbCircle
10
-61.347299917849504
20
0
30
0
40
2.0000000000000018
210
0
220
0
230
1
0
CIRCLE
5
120
100
AcDbEntity
8
0
100
AcDbCircle
10
-52.31023828138941
20
-51.803742802291872
30
0
40
2.0000000000000018
210
0
220
0
230
1
0
CIRCLE
5
121
100
AcDbEntity
8
0
100
AcDbCircle
10
-15.000000000000004
20
-3.3306690738754696e-15
30
0
40
2.5
210
0
220
0
230
1
0
CIRCLE
5
122
100
AcDbEntity
8
0
100
AcDbCircle
10
0
20
15
30
0
40
2.5
210
0
220
0
230
1
0
CIRCLE
5
123
100
AcDbEntity
8
0
100
AcDbCircle
10
15
20
-3.3306690738754696e-15
30
0
40
2.5
210
0
220
0
230
1
0
CIRCLE
5
124
100
AcDbEntity
8
0
100
AcDbCircle
10
0
20
0
30
0
40
10
210
0
220
0
230
1
0
CIRCLE
5
125
100
AcDbEntity
8
0
100
AcDbCircle
10
-1.8369701987210296e-15
20
-15
30
0
40
2.5
210
0
220
0
230
1
0
LWPOLYLINE
5
126
100
AcDbEntity
8
0
100
AcDbPolyline
90
8
70
1
43
0.0
10
21.649754838669427
20
14.578687026804271
10
61.065009188814734
20
53.993941376949934
42
-0.71329306789700486
10
65.314141520884405
20
51.921501065470686
10
60.092010051082205
20
9.3906532829742524
42
-0.37886610869531395
10
55.12927929287558
20
4.9999999999999991
10
25.617376914898962
20
5.0000000000000622
42
-0.30896041143303571
10
20.959672021280976
20
8.1818181818182332
42
0.010265634455044456
10
20.606145336492688
20
9.0353070988948918
42
-0.30896041143303876
0
LWPOLYLINE
5
127
100
AcDbEntity
8
0
100
AcDbPolyline
90
12
70
1
43
0.0
10
9.0353070988947106
20
20.60614533649278
42
0.20960600926767611
10
-9.0353070988946893
20
20.60614533649278
42
-0.30896041143303832
10
-14.578687026804051
20
21.649754838669555
10
-55.775480987541677
20
62.846548799407351
42
-0.48573562396663506
10
-54.842761125039331
20
70.651199599420337
10
-44.770057829612647
20
76.792369832776615
42
-0.13773877087008776
10
-42.167243786182254
20
77.523252938696345
10
42.167243786182254
20
77.523252938696373
42
-0.13773877087008685
10
44.770057829612654
20
76.792369832776629
10
54.84276112503931
20
70.651199599420337
42
-0.48573562396663494
10
55.775480987541656
20
62.846548799407351
10
14.57868702680404
20
21.649754838669544
42
-0.30896041143303649
0
LWPOLYLINE
5
128
100
AcDbEntity
8
0
100
AcDbPolyline
90
8
70
1
43
0.0
10
25.61737691489903
20
-4.999999999999952
10
52.673588074817481
20
-5.0000000000000009
42
-0.45046715369079882
10
57.636318833024085
20
-10.609346717025749
10
54.516199459177663
20
-36.020679794265817
42
-0.62486935190932769
10
46.017934795038315
20
-38.946866983172811
10
21.649754838669534
20
-14.578687026804054
42
-0.30896041143303654
10
20.606145336492769
20
-9.0353070988947124
42
0.01026563445504175
10
20.959672021281015
20
-8.1818181818181444
42
-0.30896041143303843
0
LWPOLYLINE
5
129
100
AcDbEntity
8
0
100
AcDbPolyline
90
8
70
1
43
0.0
10
-20.606145336492695
20
9.0353070988948954
42
0.010265634455045133
10
-20.959672021280976
20
8.1818181818182332
42
-0.30896041143303632
10
-25.617376914898962
20
5.0000000000000488
10
-55.129279292875594
20
4.9999999999999787
42
-0.37886610869531401
10
-60.092010051082212
20
9.3906532829742346
10
-65.314141520884377
20
51.921501065470622
42
-0.71329306789700886
10
-61.065009188814713
20
53.993941376949863
10
-21.649754838669431
20
14.578687026804262
42
-0.30896041143303804
0
LWPOLYLINE
5
130
100
AcDbEntity
8
0
100
AcDbPolyline
90
12
70
1
43
0.0
10
14.578687026804074
20
-21.64975483866953
10
42.47811454212156
20
-49.549182353986971
42
-0.51604378454066402
10
41.12008262869297
20
-57.585658947028762
10
28.828491637336828
20
-63.532182983289111
42
-0.11312744366489594
10
25.247372428562937
20
-64.352932509868211
10
-25.247372428562937
20
-64.352932509868225
42
-0.11312744366490055
10
-28.828491637336828
20
-63.532182983289125
10
-41.12008262869297
20
-57.585658947028797
42
-0.51604378454066402
10
-42.478114542121553
20
-49.549182353987007
10
-14.578687026804067
20
-21.649754838669534
42
-0.30896041143303699
10
-9.0353070988947284
20
-20.606145336492769
42
0.20960600926767675
10
9.0353070988947159
20
-20.606145336492766
42
-0.30896041143303765
0
LWPOLYLINE
5
131
100
AcDbEntity
8
0
100
AcDbPolyline
90
8
70
1
43
0.0
10
-20.959672021281012
20
-8.181818181818139
42
0.30896041143303804
10
-25.617376914899026
20
-4.9999999999999458
10
-52.673588074817481
20
-5.0000000000000178
42
0.45046715369079909
10
-57.636318833024085
20
-10.609346717025767
10
-54.516199459177656
20
-36.020679794265853
42
0.62486935190932669
10
-46.0179347950383
20
-38.946866983172839
10
-21.649754838669537
20
-14.578687026804044
42
0.30896041143303687
10
-20.60614533649283
20
-9.0353070988945881
42
-0.010265634455041748
0
ENDSEC
0
SECTION
2
OBJECTS
0
DICTIONARY
5
C
100
AcDbDictionary
3
ACAD_GROUP
350
D
3
ACAD_MLINESTYLE
350
17
0
DICTIONARY
5
D
100
AcDbDictionary
0
DICTIONARY
5
1A
330
C
100
AcDbDictionary
0
DICTIONARY
5
17
100
AcDbDictionary
0
ENDSEC
0
EOF
