%TF.GenerationSoftware,KiCad,Pcbnew,7.0.8*%
%TF.CreationDate,2023-10-07T23:20:30+02:00*%
%TF.ProjectId,FC_Wheel_PCB,46435f57-6865-4656-9c5f-5043422e6b69,rev?*%
%TF.SameCoordinates,Original*%
%TF.FileFunction,Legend,Bot*%
%TF.FilePolarity,Positive*%
%FSLAX46Y46*%
G04 Gerber Fmt 4.6, Leading zero omitted, Abs format (unit mm)*
G04 Created by KiCad (PCBNEW 7.0.8) date 2023-10-07 23:20:30*
%MOMM*%
%LPD*%
G01*
G04 APERTURE LIST*
%ADD10C,0.010000*%
G04 APERTURE END LIST*
%TO.C,REF\u002A\u002A*%
D10*
X134011177Y-108476471D02*
X127038628Y-108476471D01*
X127038628Y-106758235D01*
X134011177Y-106758235D01*
X134011177Y-108476471D01*
G36*
X134011177Y-108476471D02*
G01*
X127038628Y-108476471D01*
X127038628Y-106758235D01*
X134011177Y-106758235D01*
X134011177Y-108476471D01*
G37*
X131969241Y-97500931D02*
X131970220Y-97526578D01*
X131982956Y-97569638D01*
X132019205Y-97606155D01*
X132089917Y-97649625D01*
X132151991Y-97689339D01*
X132246493Y-97765587D01*
X132332136Y-97851185D01*
X132397648Y-97934456D01*
X132431758Y-98003724D01*
X132440115Y-98030416D01*
X132455597Y-98048740D01*
X132460817Y-98054919D01*
X132503486Y-98065300D01*
X132582013Y-98067451D01*
X132716275Y-98067451D01*
X132716275Y-98291569D01*
X132400339Y-98291569D01*
X132370841Y-98643645D01*
X132366880Y-98691779D01*
X132357653Y-98812272D01*
X132351134Y-98910319D01*
X132347888Y-98976866D01*
X132348478Y-99002857D01*
X132357060Y-98995385D01*
X132396217Y-98956437D01*
X132463912Y-98887404D01*
X132556718Y-98791866D01*
X132671211Y-98673400D01*
X132803963Y-98535586D01*
X132951550Y-98382002D01*
X133110546Y-98216226D01*
X133277525Y-98041838D01*
X133449061Y-97862415D01*
X133621729Y-97681537D01*
X133792103Y-97502782D01*
X133956757Y-97329729D01*
X134112266Y-97165956D01*
X134255204Y-97015041D01*
X134382145Y-96880564D01*
X134489664Y-96766103D01*
X134681779Y-96560882D01*
X134683529Y-96910520D01*
X132304931Y-99412026D01*
X132281157Y-99697099D01*
X132186037Y-100837729D01*
X132169225Y-101040036D01*
X132148365Y-101293172D01*
X132129113Y-101529146D01*
X132111836Y-101743320D01*
X132096904Y-101931058D01*
X132084685Y-102087720D01*
X132075546Y-102208669D01*
X132069856Y-102289266D01*
X132067983Y-102324873D01*
X132072927Y-102341189D01*
X132095148Y-102376420D01*
X132137292Y-102429519D01*
X132157630Y-102452727D01*
X132201601Y-102502903D01*
X132290320Y-102598991D01*
X132405692Y-102720204D01*
X132549962Y-102868960D01*
X132725372Y-103047678D01*
X132934167Y-103258777D01*
X133071523Y-103397301D01*
X133263001Y-103590518D01*
X133453806Y-103783176D01*
X133638204Y-103969478D01*
X133810459Y-104143625D01*
X133964833Y-104299820D01*
X134095592Y-104432266D01*
X134196999Y-104535164D01*
X134594488Y-104939089D01*
X134522291Y-105014447D01*
X134505264Y-105031425D01*
X134455032Y-105073118D01*
X134420571Y-105089804D01*
X134393592Y-105075559D01*
X134343432Y-105032811D01*
X134283298Y-104971520D01*
X134246696Y-104932807D01*
X134178434Y-104862115D01*
X134081958Y-104762962D01*
X133960674Y-104638824D01*
X133817989Y-104493180D01*
X133657310Y-104329506D01*
X133482043Y-104151281D01*
X133295595Y-103961981D01*
X133101374Y-103765085D01*
X132027200Y-102676934D01*
X131983444Y-103242144D01*
X131973906Y-103362782D01*
X131959976Y-103524947D01*
X131947413Y-103647774D01*
X131935284Y-103737720D01*
X131922659Y-103801239D01*
X131908607Y-103844789D01*
X131892197Y-103874825D01*
X131869229Y-103916805D01*
X131850331Y-103993980D01*
X131844706Y-104105168D01*
X131844706Y-104268039D01*
X131396471Y-104268039D01*
X131396471Y-103919412D01*
X129721867Y-103919412D01*
X129625068Y-104029381D01*
X129598596Y-104058017D01*
X129455121Y-104173061D01*
X129293014Y-104243886D01*
X129117488Y-104268039D01*
X128962605Y-104255234D01*
X128787422Y-104201250D01*
X128637454Y-104104766D01*
X128608226Y-104077191D01*
X128535181Y-103987924D01*
X128471094Y-103883934D01*
X128425137Y-103781433D01*
X128406485Y-103696630D01*
X128406125Y-103684320D01*
X128403442Y-103639212D01*
X128396427Y-103608054D01*
X128381752Y-103593311D01*
X128356089Y-103597446D01*
X128316108Y-103622922D01*
X128258483Y-103672203D01*
X128179884Y-103747752D01*
X128076983Y-103852033D01*
X127946451Y-103987509D01*
X127784960Y-104156644D01*
X127698941Y-104246927D01*
X127555157Y-104398089D01*
X127419121Y-104541403D01*
X127296167Y-104671235D01*
X127191624Y-104781953D01*
X127110824Y-104867926D01*
X127059098Y-104923521D01*
X126917706Y-105077353D01*
X126830316Y-104990196D01*
X126742925Y-104903039D01*
X127823875Y-103770000D01*
X127892032Y-103698510D01*
X128134512Y-103443204D01*
X128342662Y-103222355D01*
X128517105Y-103035276D01*
X128658465Y-102881283D01*
X128758421Y-102769677D01*
X129167685Y-102769677D01*
X129170903Y-102795937D01*
X129171465Y-102798680D01*
X129198284Y-102860883D01*
X129251854Y-102889866D01*
X129416981Y-102951654D01*
X129564101Y-103054585D01*
X129679812Y-103190742D01*
X129759116Y-103354173D01*
X129797012Y-103538925D01*
X129809564Y-103695294D01*
X131689895Y-103695294D01*
X131703005Y-103639265D01*
X131705324Y-103625515D01*
X131712530Y-103564027D01*
X131722364Y-103464611D01*
X131734095Y-103335185D01*
X131746991Y-103183668D01*
X131760323Y-103017981D01*
X131804531Y-102452727D01*
X131208636Y-101847589D01*
X131099337Y-101736962D01*
X130965608Y-101602660D01*
X130845636Y-101483351D01*
X130743630Y-101383162D01*
X130663799Y-101306219D01*
X130610352Y-101256650D01*
X130587497Y-101238580D01*
X130572172Y-101247214D01*
X130526527Y-101286496D01*
X130457834Y-101352115D01*
X130372238Y-101438153D01*
X130275882Y-101538692D01*
X130250747Y-101565355D01*
X130138042Y-101684623D01*
X130003741Y-101826397D01*
X129857957Y-101980021D01*
X129710800Y-102134837D01*
X129572383Y-102280186D01*
X129564068Y-102288907D01*
X129435380Y-102424319D01*
X129337184Y-102529174D01*
X129265597Y-102608461D01*
X129216736Y-102667166D01*
X129186719Y-102710279D01*
X129171663Y-102742787D01*
X129167685Y-102769677D01*
X128758421Y-102769677D01*
X128767365Y-102759691D01*
X128844430Y-102669815D01*
X128890284Y-102610970D01*
X128905550Y-102582471D01*
X128905551Y-102582302D01*
X128903458Y-102546784D01*
X128897341Y-102467168D01*
X128887679Y-102348870D01*
X128874953Y-102197312D01*
X128859641Y-102017911D01*
X128842222Y-101816086D01*
X128823177Y-101597256D01*
X128802983Y-101366840D01*
X128782120Y-101130257D01*
X128761068Y-100892926D01*
X128740306Y-100660265D01*
X128720313Y-100437693D01*
X128701568Y-100230630D01*
X128684550Y-100044494D01*
X128669739Y-99884704D01*
X128657614Y-99756679D01*
X128648655Y-99665837D01*
X128643339Y-99617598D01*
X128632622Y-99536801D01*
X128888461Y-99536801D01*
X128891739Y-99598037D01*
X128898950Y-99701018D01*
X128909735Y-99841297D01*
X128923732Y-100014432D01*
X128940579Y-100215976D01*
X128959917Y-100441484D01*
X128981384Y-100686512D01*
X129004619Y-100946615D01*
X129022783Y-101147210D01*
X129045533Y-101395981D01*
X129066833Y-101626175D01*
X129086259Y-101833359D01*
X129103389Y-102013100D01*
X129117798Y-102160964D01*
X129129065Y-102272519D01*
X129136764Y-102343332D01*
X129140473Y-102368970D01*
X129151724Y-102361027D01*
X129192981Y-102322038D01*
X129260021Y-102255068D01*
X129348228Y-102164990D01*
X129452987Y-102056680D01*
X129569682Y-101935013D01*
X129693700Y-101804863D01*
X129820424Y-101671104D01*
X129945240Y-101538612D01*
X130063532Y-101412261D01*
X130170686Y-101296926D01*
X130262086Y-101197481D01*
X130333117Y-101118801D01*
X130379164Y-101065761D01*
X130392618Y-101047337D01*
X130752699Y-101047337D01*
X131298703Y-101592917D01*
X131432221Y-101726110D01*
X131558058Y-101850751D01*
X131655538Y-101945688D01*
X131728231Y-102013999D01*
X131779710Y-102058767D01*
X131813546Y-102083070D01*
X131833311Y-102089991D01*
X131842577Y-102082608D01*
X131844916Y-102064004D01*
X131846415Y-102034111D01*
X131851817Y-101957139D01*
X131860743Y-101840320D01*
X131872765Y-101688975D01*
X131887454Y-101508428D01*
X131904379Y-101304000D01*
X131923113Y-101081016D01*
X131943225Y-100844797D01*
X131960981Y-100636604D01*
X131979483Y-100417322D01*
X131996072Y-100218219D01*
X132010352Y-100044200D01*
X132021922Y-99900171D01*
X132030386Y-99791041D01*
X132035344Y-99721714D01*
X132036398Y-99697099D01*
X132035563Y-99697562D01*
X132012046Y-99720222D01*
X131959806Y-99773392D01*
X131883442Y-99852250D01*
X131787558Y-99951972D01*
X131676755Y-100067737D01*
X131555633Y-100194720D01*
X131428794Y-100328100D01*
X131300840Y-100463054D01*
X131176372Y-100594759D01*
X131059992Y-100718393D01*
X130956301Y-100829132D01*
X130756526Y-101043235D01*
X130752699Y-101047337D01*
X130392618Y-101047337D01*
X130395613Y-101043235D01*
X130379489Y-101021406D01*
X130332612Y-100969154D01*
X130259338Y-100890984D01*
X130164026Y-100791300D01*
X130051038Y-100674508D01*
X129924735Y-100545016D01*
X129789478Y-100407230D01*
X129649629Y-100265554D01*
X129509548Y-100124396D01*
X129373597Y-99988162D01*
X129246136Y-99861258D01*
X129131528Y-99748090D01*
X129034132Y-99653064D01*
X128958311Y-99580587D01*
X128908426Y-99535064D01*
X128888836Y-99520902D01*
X128888461Y-99536801D01*
X128632622Y-99536801D01*
X128629301Y-99511765D01*
X128084510Y-99511765D01*
X128084199Y-99312549D01*
X128283726Y-99312549D01*
X128445588Y-99312549D01*
X128459988Y-99312536D01*
X128541293Y-99310801D01*
X128585509Y-99303383D01*
X128603831Y-99286358D01*
X128607451Y-99255800D01*
X128591507Y-99210883D01*
X128536895Y-99136161D01*
X128445588Y-99038628D01*
X128283726Y-98878204D01*
X128283726Y-99312549D01*
X128084199Y-99312549D01*
X128083206Y-98677549D01*
X127188614Y-97768628D01*
X126294022Y-96859706D01*
X126292795Y-96687248D01*
X126291569Y-96514791D01*
X127364581Y-97602395D01*
X127468291Y-97707446D01*
X127683492Y-97924842D01*
X127867482Y-98109696D01*
X128022639Y-98264283D01*
X128151340Y-98390878D01*
X128255962Y-98491755D01*
X128338882Y-98569189D01*
X128402478Y-98625456D01*
X128449126Y-98662831D01*
X128481204Y-98683587D01*
X128501089Y-98690000D01*
X128534617Y-98688058D01*
X128553440Y-98673874D01*
X128556686Y-98635069D01*
X128548881Y-98559265D01*
X128543500Y-98511539D01*
X128536013Y-98431768D01*
X128532996Y-98378726D01*
X128531519Y-98360441D01*
X128517124Y-98340857D01*
X128477362Y-98334367D01*
X128400168Y-98337200D01*
X128380459Y-98338310D01*
X128301562Y-98337058D01*
X128245442Y-98319722D01*
X128205886Y-98291569D01*
X128766863Y-98291569D01*
X128775104Y-98384951D01*
X128778911Y-98427320D01*
X128790772Y-98542997D01*
X128802459Y-98619186D01*
X128816125Y-98663805D01*
X128833920Y-98684771D01*
X128857996Y-98690000D01*
X128879644Y-98693562D01*
X128894000Y-98710579D01*
X128902021Y-98750137D01*
X128905512Y-98821323D01*
X128906275Y-98933219D01*
X128906275Y-99176438D01*
X128985884Y-99255800D01*
X129180196Y-99449510D01*
X129454118Y-99722582D01*
X129454118Y-99511765D01*
X130948235Y-99511765D01*
X130948235Y-99984902D01*
X129723350Y-99984902D01*
X130138760Y-100414461D01*
X130218328Y-100496504D01*
X130328355Y-100609121D01*
X130423894Y-100705926D01*
X130499942Y-100781893D01*
X130551496Y-100831996D01*
X130573552Y-100851208D01*
X130581935Y-100845910D01*
X130621246Y-100810294D01*
X130689030Y-100744343D01*
X130781665Y-100651722D01*
X130895531Y-100536093D01*
X131027006Y-100401118D01*
X131172470Y-100250461D01*
X131328300Y-100087783D01*
X131484930Y-99923397D01*
X131638471Y-99761386D01*
X131762987Y-99628595D01*
X131861523Y-99521503D01*
X131937126Y-99436589D01*
X131992841Y-99370332D01*
X132031713Y-99319214D01*
X132056788Y-99279712D01*
X132071111Y-99248307D01*
X132077728Y-99221477D01*
X132079482Y-99208409D01*
X132087261Y-99136399D01*
X132097106Y-99030387D01*
X132107934Y-98902460D01*
X132118662Y-98764706D01*
X132122299Y-98716728D01*
X132132809Y-98587097D01*
X132142830Y-98475283D01*
X132151375Y-98391909D01*
X132157456Y-98347598D01*
X132169380Y-98291569D01*
X128766863Y-98291569D01*
X128205886Y-98291569D01*
X128190130Y-98280355D01*
X128180604Y-98272068D01*
X128102699Y-98171707D01*
X128071846Y-98067451D01*
X128746755Y-98067451D01*
X131548064Y-98067451D01*
X131969216Y-98067451D01*
X132082151Y-98067451D01*
X132115986Y-98067212D01*
X132166120Y-98062855D01*
X132180593Y-98048740D01*
X132169358Y-98019379D01*
X132166038Y-98013781D01*
X132128769Y-97970732D01*
X132074774Y-97922957D01*
X132020914Y-97884208D01*
X131984048Y-97868235D01*
X131980733Y-97870760D01*
X131972508Y-97905443D01*
X131969216Y-97967843D01*
X131969216Y-98067451D01*
X131548064Y-98067451D01*
X131540748Y-97887854D01*
X131533431Y-97708257D01*
X131384020Y-97678245D01*
X131309091Y-97664633D01*
X131183963Y-97645574D01*
X131066520Y-97631197D01*
X130898431Y-97614161D01*
X130898431Y-97818431D01*
X129752941Y-97818431D01*
X129752941Y-97638379D01*
X129609755Y-97655470D01*
X129390977Y-97692100D01*
X129170793Y-97758330D01*
X128988664Y-97850681D01*
X128841504Y-97970419D01*
X128746755Y-98067451D01*
X128071846Y-98067451D01*
X128068418Y-98055869D01*
X128078919Y-97934354D01*
X128135361Y-97816961D01*
X128140824Y-97809651D01*
X128216254Y-97746763D01*
X128314588Y-97709564D01*
X128420591Y-97699669D01*
X128519028Y-97718695D01*
X128594664Y-97768256D01*
X128620272Y-97793557D01*
X128645220Y-97799690D01*
X128680944Y-97780720D01*
X128741269Y-97733358D01*
X128759777Y-97718801D01*
X128902676Y-97626927D01*
X128918654Y-97619216D01*
X129952157Y-97619216D01*
X130699216Y-97619216D01*
X130699216Y-97494706D01*
X129952157Y-97494706D01*
X129952157Y-97619216D01*
X128918654Y-97619216D01*
X129071968Y-97545224D01*
X129251891Y-97479579D01*
X129426680Y-97435876D01*
X129580574Y-97420000D01*
X129596924Y-97419874D01*
X129687799Y-97411027D01*
X129737705Y-97386221D01*
X129752941Y-97342630D01*
X129754731Y-97328897D01*
X129764512Y-97317085D01*
X129788269Y-97308439D01*
X129831974Y-97302467D01*
X129901596Y-97298677D01*
X130003108Y-97296579D01*
X130142481Y-97295681D01*
X130325686Y-97295490D01*
X130497346Y-97295826D01*
X130643246Y-97297181D01*
X130750055Y-97299915D01*
X130823374Y-97304381D01*
X130868808Y-97310933D01*
X130891959Y-97319926D01*
X130898431Y-97331715D01*
X130919718Y-97360660D01*
X130979363Y-97379132D01*
X131002192Y-97382363D01*
X131080030Y-97393739D01*
X131183608Y-97409159D01*
X131296863Y-97426240D01*
X131359323Y-97434935D01*
X131450733Y-97444352D01*
X131515230Y-97446624D01*
X131541732Y-97441078D01*
X131546257Y-97437465D01*
X131588037Y-97428543D01*
X131663193Y-97422331D01*
X131759624Y-97420000D01*
X131969216Y-97420000D01*
X131969240Y-97494706D01*
X131969241Y-97500931D01*
G36*
X131969241Y-97500931D02*
G01*
X131970220Y-97526578D01*
X131982956Y-97569638D01*
X132019205Y-97606155D01*
X132089917Y-97649625D01*
X132151991Y-97689339D01*
X132246493Y-97765587D01*
X132332136Y-97851185D01*
X132397648Y-97934456D01*
X132431758Y-98003724D01*
X132440115Y-98030416D01*
X132455597Y-98048740D01*
X132460817Y-98054919D01*
X132503486Y-98065300D01*
X132582013Y-98067451D01*
X132716275Y-98067451D01*
X132716275Y-98291569D01*
X132400339Y-98291569D01*
X132370841Y-98643645D01*
X132366880Y-98691779D01*
X132357653Y-98812272D01*
X132351134Y-98910319D01*
X132347888Y-98976866D01*
X132348478Y-99002857D01*
X132357060Y-98995385D01*
X132396217Y-98956437D01*
X132463912Y-98887404D01*
X132556718Y-98791866D01*
X132671211Y-98673400D01*
X132803963Y-98535586D01*
X132951550Y-98382002D01*
X133110546Y-98216226D01*
X133277525Y-98041838D01*
X133449061Y-97862415D01*
X133621729Y-97681537D01*
X133792103Y-97502782D01*
X133956757Y-97329729D01*
X134112266Y-97165956D01*
X134255204Y-97015041D01*
X134382145Y-96880564D01*
X134489664Y-96766103D01*
X134681779Y-96560882D01*
X134683529Y-96910520D01*
X132304931Y-99412026D01*
X132281157Y-99697099D01*
X132186037Y-100837729D01*
X132169225Y-101040036D01*
X132148365Y-101293172D01*
X132129113Y-101529146D01*
X132111836Y-101743320D01*
X132096904Y-101931058D01*
X132084685Y-102087720D01*
X132075546Y-102208669D01*
X132069856Y-102289266D01*
X132067983Y-102324873D01*
X132072927Y-102341189D01*
X132095148Y-102376420D01*
X132137292Y-102429519D01*
X132157630Y-102452727D01*
X132201601Y-102502903D01*
X132290320Y-102598991D01*
X132405692Y-102720204D01*
X132549962Y-102868960D01*
X132725372Y-103047678D01*
X132934167Y-103258777D01*
X133071523Y-103397301D01*
X133263001Y-103590518D01*
X133453806Y-103783176D01*
X133638204Y-103969478D01*
X133810459Y-104143625D01*
X133964833Y-104299820D01*
X134095592Y-104432266D01*
X134196999Y-104535164D01*
X134594488Y-104939089D01*
X134522291Y-105014447D01*
X134505264Y-105031425D01*
X134455032Y-105073118D01*
X134420571Y-105089804D01*
X134393592Y-105075559D01*
X134343432Y-105032811D01*
X134283298Y-104971520D01*
X134246696Y-104932807D01*
X134178434Y-104862115D01*
X134081958Y-104762962D01*
X133960674Y-104638824D01*
X133817989Y-104493180D01*
X133657310Y-104329506D01*
X133482043Y-104151281D01*
X133295595Y-103961981D01*
X133101374Y-103765085D01*
X132027200Y-102676934D01*
X131983444Y-103242144D01*
X131973906Y-103362782D01*
X131959976Y-103524947D01*
X131947413Y-103647774D01*
X131935284Y-103737720D01*
X131922659Y-103801239D01*
X131908607Y-103844789D01*
X131892197Y-103874825D01*
X131869229Y-103916805D01*
X131850331Y-103993980D01*
X131844706Y-104105168D01*
X131844706Y-104268039D01*
X131396471Y-104268039D01*
X131396471Y-103919412D01*
X129721867Y-103919412D01*
X129625068Y-104029381D01*
X129598596Y-104058017D01*
X129455121Y-104173061D01*
X129293014Y-104243886D01*
X129117488Y-104268039D01*
X128962605Y-104255234D01*
X128787422Y-104201250D01*
X128637454Y-104104766D01*
X128608226Y-104077191D01*
X128535181Y-103987924D01*
X128471094Y-103883934D01*
X128425137Y-103781433D01*
X128406485Y-103696630D01*
X128406125Y-103684320D01*
X128403442Y-103639212D01*
X128396427Y-103608054D01*
X128381752Y-103593311D01*
X128356089Y-103597446D01*
X128316108Y-103622922D01*
X128258483Y-103672203D01*
X128179884Y-103747752D01*
X128076983Y-103852033D01*
X127946451Y-103987509D01*
X127784960Y-104156644D01*
X127698941Y-104246927D01*
X127555157Y-104398089D01*
X127419121Y-104541403D01*
X127296167Y-104671235D01*
X127191624Y-104781953D01*
X127110824Y-104867926D01*
X127059098Y-104923521D01*
X126917706Y-105077353D01*
X126830316Y-104990196D01*
X126742925Y-104903039D01*
X127823875Y-103770000D01*
X127892032Y-103698510D01*
X128134512Y-103443204D01*
X128342662Y-103222355D01*
X128517105Y-103035276D01*
X128658465Y-102881283D01*
X128758421Y-102769677D01*
X129167685Y-102769677D01*
X129170903Y-102795937D01*
X129171465Y-102798680D01*
X129198284Y-102860883D01*
X129251854Y-102889866D01*
X129416981Y-102951654D01*
X129564101Y-103054585D01*
X129679812Y-103190742D01*
X129759116Y-103354173D01*
X129797012Y-103538925D01*
X129809564Y-103695294D01*
X131689895Y-103695294D01*
X131703005Y-103639265D01*
X131705324Y-103625515D01*
X131712530Y-103564027D01*
X131722364Y-103464611D01*
X131734095Y-103335185D01*
X131746991Y-103183668D01*
X131760323Y-103017981D01*
X131804531Y-102452727D01*
X131208636Y-101847589D01*
X131099337Y-101736962D01*
X130965608Y-101602660D01*
X130845636Y-101483351D01*
X130743630Y-101383162D01*
X130663799Y-101306219D01*
X130610352Y-101256650D01*
X130587497Y-101238580D01*
X130572172Y-101247214D01*
X130526527Y-101286496D01*
X130457834Y-101352115D01*
X130372238Y-101438153D01*
X130275882Y-101538692D01*
X130250747Y-101565355D01*
X130138042Y-101684623D01*
X130003741Y-101826397D01*
X129857957Y-101980021D01*
X129710800Y-102134837D01*
X129572383Y-102280186D01*
X129564068Y-102288907D01*
X129435380Y-102424319D01*
X129337184Y-102529174D01*
X129265597Y-102608461D01*
X129216736Y-102667166D01*
X129186719Y-102710279D01*
X129171663Y-102742787D01*
X129167685Y-102769677D01*
X128758421Y-102769677D01*
X128767365Y-102759691D01*
X128844430Y-102669815D01*
X128890284Y-102610970D01*
X128905550Y-102582471D01*
X128905551Y-102582302D01*
X128903458Y-102546784D01*
X128897341Y-102467168D01*
X128887679Y-102348870D01*
X128874953Y-102197312D01*
X128859641Y-102017911D01*
X128842222Y-101816086D01*
X128823177Y-101597256D01*
X128802983Y-101366840D01*
X128782120Y-101130257D01*
X128761068Y-100892926D01*
X128740306Y-100660265D01*
X128720313Y-100437693D01*
X128701568Y-100230630D01*
X128684550Y-100044494D01*
X128669739Y-99884704D01*
X128657614Y-99756679D01*
X128648655Y-99665837D01*
X128643339Y-99617598D01*
X128632622Y-99536801D01*
X128888461Y-99536801D01*
X128891739Y-99598037D01*
X128898950Y-99701018D01*
X128909735Y-99841297D01*
X128923732Y-100014432D01*
X128940579Y-100215976D01*
X128959917Y-100441484D01*
X128981384Y-100686512D01*
X129004619Y-100946615D01*
X129022783Y-101147210D01*
X129045533Y-101395981D01*
X129066833Y-101626175D01*
X129086259Y-101833359D01*
X129103389Y-102013100D01*
X129117798Y-102160964D01*
X129129065Y-102272519D01*
X129136764Y-102343332D01*
X129140473Y-102368970D01*
X129151724Y-102361027D01*
X129192981Y-102322038D01*
X129260021Y-102255068D01*
X129348228Y-102164990D01*
X129452987Y-102056680D01*
X129569682Y-101935013D01*
X129693700Y-101804863D01*
X129820424Y-101671104D01*
X129945240Y-101538612D01*
X130063532Y-101412261D01*
X130170686Y-101296926D01*
X130262086Y-101197481D01*
X130333117Y-101118801D01*
X130379164Y-101065761D01*
X130392618Y-101047337D01*
X130752699Y-101047337D01*
X131298703Y-101592917D01*
X131432221Y-101726110D01*
X131558058Y-101850751D01*
X131655538Y-101945688D01*
X131728231Y-102013999D01*
X131779710Y-102058767D01*
X131813546Y-102083070D01*
X131833311Y-102089991D01*
X131842577Y-102082608D01*
X131844916Y-102064004D01*
X131846415Y-102034111D01*
X131851817Y-101957139D01*
X131860743Y-101840320D01*
X131872765Y-101688975D01*
X131887454Y-101508428D01*
X131904379Y-101304000D01*
X131923113Y-101081016D01*
X131943225Y-100844797D01*
X131960981Y-100636604D01*
X131979483Y-100417322D01*
X131996072Y-100218219D01*
X132010352Y-100044200D01*
X132021922Y-99900171D01*
X132030386Y-99791041D01*
X132035344Y-99721714D01*
X132036398Y-99697099D01*
X132035563Y-99697562D01*
X132012046Y-99720222D01*
X131959806Y-99773392D01*
X131883442Y-99852250D01*
X131787558Y-99951972D01*
X131676755Y-100067737D01*
X131555633Y-100194720D01*
X131428794Y-100328100D01*
X131300840Y-100463054D01*
X131176372Y-100594759D01*
X131059992Y-100718393D01*
X130956301Y-100829132D01*
X130756526Y-101043235D01*
X130752699Y-101047337D01*
X130392618Y-101047337D01*
X130395613Y-101043235D01*
X130379489Y-101021406D01*
X130332612Y-100969154D01*
X130259338Y-100890984D01*
X130164026Y-100791300D01*
X130051038Y-100674508D01*
X129924735Y-100545016D01*
X129789478Y-100407230D01*
X129649629Y-100265554D01*
X129509548Y-100124396D01*
X129373597Y-99988162D01*
X129246136Y-99861258D01*
X129131528Y-99748090D01*
X129034132Y-99653064D01*
X128958311Y-99580587D01*
X128908426Y-99535064D01*
X128888836Y-99520902D01*
X128888461Y-99536801D01*
X128632622Y-99536801D01*
X128629301Y-99511765D01*
X128084510Y-99511765D01*
X128084199Y-99312549D01*
X128283726Y-99312549D01*
X128445588Y-99312549D01*
X128459988Y-99312536D01*
X128541293Y-99310801D01*
X128585509Y-99303383D01*
X128603831Y-99286358D01*
X128607451Y-99255800D01*
X128591507Y-99210883D01*
X128536895Y-99136161D01*
X128445588Y-99038628D01*
X128283726Y-98878204D01*
X128283726Y-99312549D01*
X128084199Y-99312549D01*
X128083206Y-98677549D01*
X127188614Y-97768628D01*
X126294022Y-96859706D01*
X126292795Y-96687248D01*
X126291569Y-96514791D01*
X127364581Y-97602395D01*
X127468291Y-97707446D01*
X127683492Y-97924842D01*
X127867482Y-98109696D01*
X128022639Y-98264283D01*
X128151340Y-98390878D01*
X128255962Y-98491755D01*
X128338882Y-98569189D01*
X128402478Y-98625456D01*
X128449126Y-98662831D01*
X128481204Y-98683587D01*
X128501089Y-98690000D01*
X128534617Y-98688058D01*
X128553440Y-98673874D01*
X128556686Y-98635069D01*
X128548881Y-98559265D01*
X128543500Y-98511539D01*
X128536013Y-98431768D01*
X128532996Y-98378726D01*
X128531519Y-98360441D01*
X128517124Y-98340857D01*
X128477362Y-98334367D01*
X128400168Y-98337200D01*
X128380459Y-98338310D01*
X128301562Y-98337058D01*
X128245442Y-98319722D01*
X128205886Y-98291569D01*
X128766863Y-98291569D01*
X128775104Y-98384951D01*
X128778911Y-98427320D01*
X128790772Y-98542997D01*
X128802459Y-98619186D01*
X128816125Y-98663805D01*
X128833920Y-98684771D01*
X128857996Y-98690000D01*
X128879644Y-98693562D01*
X128894000Y-98710579D01*
X128902021Y-98750137D01*
X128905512Y-98821323D01*
X128906275Y-98933219D01*
X128906275Y-99176438D01*
X128985884Y-99255800D01*
X129180196Y-99449510D01*
X129454118Y-99722582D01*
X129454118Y-99511765D01*
X130948235Y-99511765D01*
X130948235Y-99984902D01*
X129723350Y-99984902D01*
X130138760Y-100414461D01*
X130218328Y-100496504D01*
X130328355Y-100609121D01*
X130423894Y-100705926D01*
X130499942Y-100781893D01*
X130551496Y-100831996D01*
X130573552Y-100851208D01*
X130581935Y-100845910D01*
X130621246Y-100810294D01*
X130689030Y-100744343D01*
X130781665Y-100651722D01*
X130895531Y-100536093D01*
X131027006Y-100401118D01*
X131172470Y-100250461D01*
X131328300Y-100087783D01*
X131484930Y-99923397D01*
X131638471Y-99761386D01*
X131762987Y-99628595D01*
X131861523Y-99521503D01*
X131937126Y-99436589D01*
X131992841Y-99370332D01*
X132031713Y-99319214D01*
X132056788Y-99279712D01*
X132071111Y-99248307D01*
X132077728Y-99221477D01*
X132079482Y-99208409D01*
X132087261Y-99136399D01*
X132097106Y-99030387D01*
X132107934Y-98902460D01*
X132118662Y-98764706D01*
X132122299Y-98716728D01*
X132132809Y-98587097D01*
X132142830Y-98475283D01*
X132151375Y-98391909D01*
X132157456Y-98347598D01*
X132169380Y-98291569D01*
X128766863Y-98291569D01*
X128205886Y-98291569D01*
X128190130Y-98280355D01*
X128180604Y-98272068D01*
X128102699Y-98171707D01*
X128071846Y-98067451D01*
X128746755Y-98067451D01*
X131548064Y-98067451D01*
X131969216Y-98067451D01*
X132082151Y-98067451D01*
X132115986Y-98067212D01*
X132166120Y-98062855D01*
X132180593Y-98048740D01*
X132169358Y-98019379D01*
X132166038Y-98013781D01*
X132128769Y-97970732D01*
X132074774Y-97922957D01*
X132020914Y-97884208D01*
X131984048Y-97868235D01*
X131980733Y-97870760D01*
X131972508Y-97905443D01*
X131969216Y-97967843D01*
X131969216Y-98067451D01*
X131548064Y-98067451D01*
X131540748Y-97887854D01*
X131533431Y-97708257D01*
X131384020Y-97678245D01*
X131309091Y-97664633D01*
X131183963Y-97645574D01*
X131066520Y-97631197D01*
X130898431Y-97614161D01*
X130898431Y-97818431D01*
X129752941Y-97818431D01*
X129752941Y-97638379D01*
X129609755Y-97655470D01*
X129390977Y-97692100D01*
X129170793Y-97758330D01*
X128988664Y-97850681D01*
X128841504Y-97970419D01*
X128746755Y-98067451D01*
X128071846Y-98067451D01*
X128068418Y-98055869D01*
X128078919Y-97934354D01*
X128135361Y-97816961D01*
X128140824Y-97809651D01*
X128216254Y-97746763D01*
X128314588Y-97709564D01*
X128420591Y-97699669D01*
X128519028Y-97718695D01*
X128594664Y-97768256D01*
X128620272Y-97793557D01*
X128645220Y-97799690D01*
X128680944Y-97780720D01*
X128741269Y-97733358D01*
X128759777Y-97718801D01*
X128902676Y-97626927D01*
X128918654Y-97619216D01*
X129952157Y-97619216D01*
X130699216Y-97619216D01*
X130699216Y-97494706D01*
X129952157Y-97494706D01*
X129952157Y-97619216D01*
X128918654Y-97619216D01*
X129071968Y-97545224D01*
X129251891Y-97479579D01*
X129426680Y-97435876D01*
X129580574Y-97420000D01*
X129596924Y-97419874D01*
X129687799Y-97411027D01*
X129737705Y-97386221D01*
X129752941Y-97342630D01*
X129754731Y-97328897D01*
X129764512Y-97317085D01*
X129788269Y-97308439D01*
X129831974Y-97302467D01*
X129901596Y-97298677D01*
X130003108Y-97296579D01*
X130142481Y-97295681D01*
X130325686Y-97295490D01*
X130497346Y-97295826D01*
X130643246Y-97297181D01*
X130750055Y-97299915D01*
X130823374Y-97304381D01*
X130868808Y-97310933D01*
X130891959Y-97319926D01*
X130898431Y-97331715D01*
X130919718Y-97360660D01*
X130979363Y-97379132D01*
X131002192Y-97382363D01*
X131080030Y-97393739D01*
X131183608Y-97409159D01*
X131296863Y-97426240D01*
X131359323Y-97434935D01*
X131450733Y-97444352D01*
X131515230Y-97446624D01*
X131541732Y-97441078D01*
X131546257Y-97437465D01*
X131588037Y-97428543D01*
X131663193Y-97422331D01*
X131759624Y-97420000D01*
X131969216Y-97420000D01*
X131969240Y-97494706D01*
X131969241Y-97500931D01*
G37*
%TD*%
M02*
