%TF.GenerationSoftware,KiCad,Pcbnew,7.0.8*%
%TF.CreationDate,2023-10-07T23:20:30+02:00*%
%TF.ProjectId,FC_Wheel_PCB,46435f57-6865-4656-9c5f-5043422e6b69,rev?*%
%TF.SameCoordinates,Original*%
%TF.FileFunction,Paste,Top*%
%TF.FilePolarity,Positive*%
%FSLAX46Y46*%
G04 Gerber Fmt 4.6, Leading zero omitted, Abs format (unit mm)*
G04 Created by KiCad (PCBNEW 7.0.8) date 2023-10-07 23:20:30*
%MOMM*%
%LPD*%
G01*
G04 APERTURE LIST*
G04 Aperture macros list*
%AMRoundRect*
0 Rectangle with rounded corners*
0 $1 Rounding radius*
0 $2 $3 $4 $5 $6 $7 $8 $9 X,Y pos of 4 corners*
0 Add a 4 corners polygon primitive as box body*
4,1,4,$2,$3,$4,$5,$6,$7,$8,$9,$2,$3,0*
0 Add four circle primitives for the rounded corners*
1,1,$1+$1,$2,$3*
1,1,$1+$1,$4,$5*
1,1,$1+$1,$6,$7*
1,1,$1+$1,$8,$9*
0 Add four rect primitives between the rounded corners*
20,1,$1+$1,$2,$3,$4,$5,0*
20,1,$1+$1,$4,$5,$6,$7,0*
20,1,$1+$1,$6,$7,$8,$9,0*
20,1,$1+$1,$8,$9,$2,$3,0*%
G04 Aperture macros list end*
%ADD10RoundRect,0.250000X-0.325000X-0.650000X0.325000X-0.650000X0.325000X0.650000X-0.325000X0.650000X0*%
%ADD11RoundRect,0.250000X0.350000X0.450000X-0.350000X0.450000X-0.350000X-0.450000X0.350000X-0.450000X0*%
%ADD12RoundRect,0.250000X-0.350000X-0.450000X0.350000X-0.450000X0.350000X0.450000X-0.350000X0.450000X0*%
%ADD13R,0.750000X1.800000*%
%ADD14R,0.600000X1.800000*%
%ADD15R,1.300000X0.900000*%
%ADD16R,1.500000X2.000000*%
%ADD17R,3.800000X2.000000*%
%ADD18R,0.838200X0.889000*%
%ADD19R,0.889000X0.838200*%
%ADD20R,0.600000X1.450000*%
%ADD21R,0.300000X1.450000*%
%ADD22RoundRect,0.250000X-0.337500X-0.475000X0.337500X-0.475000X0.337500X0.475000X-0.337500X0.475000X0*%
%ADD23R,2.000000X1.500000*%
%ADD24R,2.000000X3.800000*%
G04 APERTURE END LIST*
%TO.C,U2*%
G36*
X130458000Y-97208000D02*
G01*
X128803800Y-97208000D01*
X128803800Y-95553800D01*
X130458000Y-95553800D01*
X130458000Y-97208000D01*
G37*
G36*
X130458000Y-99062200D02*
G01*
X128803800Y-99062200D01*
X128803800Y-97408000D01*
X130458000Y-97408000D01*
X130458000Y-99062200D01*
G37*
G36*
X132312200Y-97208000D02*
G01*
X130658000Y-97208000D01*
X130658000Y-95553800D01*
X132312200Y-95553800D01*
X132312200Y-97208000D01*
G37*
G36*
X132312200Y-99062200D02*
G01*
X130658000Y-99062200D01*
X130658000Y-97408000D01*
X132312200Y-97408000D01*
X132312200Y-99062200D01*
G37*
%TD*%
D10*
%TO.C,C5*%
X141950000Y-81585000D03*
X144900000Y-81585000D03*
%TD*%
D11*
%TO.C,R_bat1*%
X148065000Y-100275000D03*
X146065000Y-100275000D03*
%TD*%
D12*
%TO.C,R10*%
X111935000Y-84375000D03*
X113935000Y-84375000D03*
%TD*%
D13*
%TO.C,S1*%
X122350000Y-71926000D03*
D14*
X121125000Y-71926000D03*
D13*
X119900000Y-71926000D03*
D15*
X122975000Y-69975000D03*
X119275000Y-69975000D03*
%TD*%
D10*
%TO.C,C7*%
X82950000Y-124285000D03*
X85900000Y-124285000D03*
%TD*%
D16*
%TO.C,U6*%
X155475000Y-81535000D03*
X153175000Y-81535000D03*
D17*
X153175000Y-87835000D03*
D16*
X150875000Y-81535000D03*
%TD*%
D12*
%TO.C,R12*%
X132935000Y-79775000D03*
X134935000Y-79775000D03*
%TD*%
D10*
%TO.C,C2*%
X111450000Y-89735000D03*
X114400000Y-89735000D03*
%TD*%
D11*
%TO.C,R2*%
X83935000Y-113975000D03*
X81935000Y-113975000D03*
%TD*%
D12*
%TO.C,R9*%
X81435000Y-86425000D03*
X83435000Y-86425000D03*
%TD*%
D11*
%TO.C,R1*%
X83935000Y-109025000D03*
X81935000Y-109025000D03*
%TD*%
D18*
%TO.C,U2*%
X121977100Y-92054300D03*
X121977100Y-93324300D03*
X121977100Y-94594300D03*
X121977100Y-95864300D03*
X121977100Y-97134300D03*
X121977100Y-98404300D03*
X121977100Y-99674300D03*
X121977100Y-100944300D03*
X121977100Y-102214300D03*
X121977100Y-103484300D03*
X121977100Y-104754300D03*
X121977100Y-106024300D03*
X121977100Y-107294300D03*
X121977100Y-108564300D03*
D19*
X123573000Y-109638900D03*
X124843000Y-109638900D03*
X126113000Y-109638900D03*
X127383000Y-109638900D03*
X128653000Y-109638900D03*
X129923000Y-109638900D03*
X131193000Y-109638900D03*
X132463000Y-109638900D03*
X133733000Y-109638900D03*
X135003000Y-109638900D03*
X136273000Y-109638900D03*
X137543000Y-109638900D03*
D18*
X139138900Y-108564300D03*
X139138900Y-107294300D03*
X139138900Y-106024300D03*
X139138900Y-104754300D03*
X139138900Y-103484300D03*
X139138900Y-102214300D03*
X139138900Y-100944300D03*
X139138900Y-99674300D03*
X139138900Y-98404300D03*
X139138900Y-97134300D03*
X139138900Y-95864300D03*
X139138900Y-94594300D03*
X139138900Y-93324300D03*
X139138900Y-92054300D03*
%TD*%
D10*
%TO.C,C9*%
X82950000Y-130135000D03*
X85900000Y-130135000D03*
%TD*%
D20*
%TO.C,J1*%
X133405000Y-75090000D03*
X132605000Y-75090000D03*
D21*
X131905000Y-75090000D03*
X130905000Y-75090000D03*
X129405000Y-75090000D03*
X128405000Y-75090000D03*
D20*
X127705000Y-75090000D03*
X126905000Y-75090000D03*
X126905000Y-75090000D03*
X127705000Y-75090000D03*
D21*
X128905000Y-75090000D03*
X129905000Y-75090000D03*
X130405000Y-75090000D03*
X131405000Y-75090000D03*
D20*
X132605000Y-75090000D03*
X133405000Y-75090000D03*
%TD*%
D22*
%TO.C,C8*%
X111967500Y-79315000D03*
X114042500Y-79315000D03*
%TD*%
D11*
%TO.C,R_bat2*%
X148065000Y-95325000D03*
X146065000Y-95325000D03*
%TD*%
D13*
%TO.C,S2*%
X115350000Y-71927000D03*
D14*
X114125000Y-71927000D03*
D13*
X112900000Y-71927000D03*
D15*
X115975000Y-69976000D03*
X112275000Y-69976000D03*
%TD*%
D10*
%TO.C,C6*%
X160450000Y-81435000D03*
X163400000Y-81435000D03*
%TD*%
D23*
%TO.C,U7*%
X89525000Y-124135000D03*
X89525000Y-126435000D03*
D24*
X95825000Y-126435000D03*
D23*
X89525000Y-128735000D03*
%TD*%
D12*
%TO.C,R4*%
X109875000Y-132475000D03*
X111875000Y-132475000D03*
%TD*%
%TO.C,R11*%
X125435000Y-79825000D03*
X127435000Y-79825000D03*
%TD*%
%TO.C,R3*%
X105375000Y-132525000D03*
X107375000Y-132525000D03*
%TD*%
M02*
