M48
; DRILL file {KiCad 7.0.8} date Sat Oct  7 23:20:28 2023
; FORMAT={-:-/ absolute / inch / decimal}
; #@! TF.CreationDate,2023-10-07T23:20:28+02:00
; #@! TF.GenerationSoftware,Kicad,Pcbnew,7.0.8
; #@! TF.FileFunction,Plated,1,2,PTH
FMAT,2
INCH
; #@! TA.AperFunction,Plated,PTH,ViaDrill
T1C0.0118
; #@! TA.AperFunction,Plated,PTH,ComponentDrill
T2C0.0236
; #@! TA.AperFunction,Plated,PTH,ComponentDrill
T3C0.0315
; #@! TA.AperFunction,Plated,PTH,ComponentDrill
T4C0.0354
; #@! TA.AperFunction,Plated,PTH,ComponentDrill
T5C0.0394
; #@! TA.AperFunction,Plated,PTH,ComponentDrill
T6C0.0512
; #@! TA.AperFunction,Plated,PTH,ComponentDrill
T7C0.0787
%
G90
G05
T1
X3.2968Y-5.0094
X3.4055Y-3.8583
X3.4449Y-4.9606
X4.2126Y-4.0748
X4.2323Y-3.3268
X4.2323Y-3.4449
X4.2913Y-4.3701
X4.5223Y-5.0187
X4.5472Y-4.0945
X4.626Y-3.5827
X4.7244Y-3.5827
X4.7244Y-4.8031
X4.8622Y-4.0354
X4.8622Y-4.2717
X4.8819Y-3.1102
X4.8819Y-3.9173
X4.8819Y-3.9764
X4.9121Y-4.2217
X4.9213Y-4.1339
X4.928Y-4.046
X4.9606Y-3.6417
X4.9606Y-4.0945
X5.0Y-4.1929
X5.0197Y-3.4055
X5.1124Y-3.0598
X5.1652Y-3.059
X5.2161Y-3.061
X5.2362Y-3.8976
X5.2559Y-3.0455
X5.3346Y-3.9173
X5.374Y-4.0354
X5.4134Y-4.0354
X5.4134Y-4.5669
X5.5315Y-3.878
X5.5512Y-4.0354
X5.6102Y-3.563
X5.6102Y-3.8976
X5.7582Y-3.1989
X5.8175Y-4.1834
X5.8661Y-4.252
X5.9055Y-3.1299
X5.9154Y-4.6752
X5.9252Y-4.5669
X5.9646Y-4.2913
X5.9952Y-4.6937
X6.0039Y-4.5472
X6.0236Y-4.3307
X6.0827Y-4.5079
X6.2402Y-3.2874
X6.3189Y-3.8583
X6.3386Y-5.5118
X6.3386Y-5.5512
X6.3386Y-5.5906
X6.378Y-3.3858
X6.811Y-4.2126
X7.0472Y-5.5118
X7.0472Y-5.5512
X7.0472Y-5.5906
T3
X3.0581Y-4.686
X3.0581Y-4.7648
X3.0581Y-5.001
X3.0581Y-5.0797
X3.0581Y-5.3356
X3.0581Y-5.4144
X3.7628Y-3.7608
X3.7628Y-3.8396
X4.1526Y-4.8435
X4.2313Y-4.8435
X5.8494Y-4.8435
X5.9281Y-4.8435
X7.2293Y-4.686
X7.2293Y-4.7648
X7.2293Y-5.001
X7.2293Y-5.0797
X7.2293Y-5.3356
X7.2293Y-5.4144
T4
X3.4457Y-3.3992
X3.5457Y-3.3992
X4.4094Y-2.7963
X4.5768Y-2.7963
X4.685Y-2.7963
X4.8524Y-2.7963
T5
X2.873Y-4.0679
X2.873Y-4.1679
X2.873Y-4.2679
X3.5069Y-4.2888
X3.5069Y-4.3872
X3.5069Y-4.4856
X3.6447Y-5.3124
X3.7431Y-5.3124
X4.0778Y-4.2888
X4.0778Y-4.4856
X4.4281Y-4.6762
X4.7274Y-4.6762
X4.999Y-4.6781
X5.2982Y-4.6781
X6.1545Y-3.6152
X6.1545Y-3.7152
X6.1545Y-3.8152
X6.1545Y-3.9152
X6.1545Y-4.0152
X6.1545Y-4.1152
X6.1545Y-4.2152
X6.3907Y-4.7337
X6.3907Y-4.8337
X6.3907Y-4.9337
X6.3907Y-5.0337
X6.3907Y-5.1337
X6.3907Y-5.2337
X6.3907Y-5.3337
X6.3907Y-5.4337
X6.6211Y-3.5612
X6.6211Y-3.6612
X6.6211Y-3.7612
X6.6211Y-3.8612
X6.6211Y-3.9612
X6.6211Y-4.0612
X6.6211Y-4.1612
X6.6211Y-4.2612
X7.375Y-4.1663
X7.375Y-4.2663
X7.375Y-4.3663
T6
X6.9758Y-4.1014
X6.9758Y-4.2982
X7.1254Y-4.1998
T2
G00X4.9541Y-2.7675
M15
G01X4.9541Y-2.7439
M16
G05
G00X4.9541Y-2.9419
M15
G01X4.9541Y-2.8986
M16
G05
G00X5.2943Y-2.7675
M15
G01X5.2943Y-2.7439
M16
G05
G00X5.2943Y-2.9419
M15
G01X5.2943Y-2.8986
M16
G05
T7
G00X3.7923Y-4.1667
M15
G01X3.812Y-4.1667
M16
G05
G00X3.7923Y-4.6077
M15
G01X3.812Y-4.6077
M16
G05
T0
M30
