%TF.GenerationSoftware,KiCad,Pcbnew,7.0.8*%
%TF.CreationDate,2023-10-07T23:20:30+02:00*%
%TF.ProjectId,FC_Wheel_PCB,46435f57-6865-4656-9c5f-5043422e6b69,rev?*%
%TF.SameCoordinates,Original*%
%TF.FileFunction,Soldermask,Bot*%
%TF.FilePolarity,Negative*%
%FSLAX46Y46*%
G04 Gerber Fmt 4.6, Leading zero omitted, Abs format (unit mm)*
G04 Created by KiCad (PCBNEW 7.0.8) date 2023-10-07 23:20:30*
%MOMM*%
%LPD*%
G01*
G04 APERTURE LIST*
G04 Aperture macros list*
%AMRoundRect*
0 Rectangle with rounded corners*
0 $1 Rounding radius*
0 $2 $3 $4 $5 $6 $7 $8 $9 X,Y pos of 4 corners*
0 Add a 4 corners polygon primitive as box body*
4,1,4,$2,$3,$4,$5,$6,$7,$8,$9,$2,$3,0*
0 Add four circle primitives for the rounded corners*
1,1,$1+$1,$2,$3*
1,1,$1+$1,$4,$5*
1,1,$1+$1,$6,$7*
1,1,$1+$1,$8,$9*
0 Add four rect primitives between the rounded corners*
20,1,$1+$1,$2,$3,$4,$5,0*
20,1,$1+$1,$4,$5,$6,$7,0*
20,1,$1+$1,$6,$7,$8,$9,0*
20,1,$1+$1,$8,$9,$2,$3,0*%
G04 Aperture macros list end*
%ADD10R,1.700000X1.700000*%
%ADD11O,1.700000X1.700000*%
%ADD12R,1.350000X1.350000*%
%ADD13O,1.350000X1.350000*%
%ADD14R,1.800000X1.800000*%
%ADD15C,1.800000*%
%ADD16C,0.900000*%
%ADD17RoundRect,0.250000X-0.600000X-0.750000X0.600000X-0.750000X0.600000X0.750000X-0.600000X0.750000X0*%
%ADD18O,1.700000X2.000000*%
%ADD19R,2.000000X2.000000*%
%ADD20C,2.000000*%
%ADD21R,3.000000X2.500000*%
%ADD22O,1.000000X1.600000*%
%ADD23O,1.000000X2.100000*%
%ADD24C,0.650000*%
%ADD25C,2.340000*%
G04 APERTURE END LIST*
D10*
%TO.C,J6*%
X156325000Y-91825000D03*
D11*
X156325000Y-94365000D03*
X156325000Y-96905000D03*
X156325000Y-99445000D03*
X156325000Y-101985000D03*
X156325000Y-104525000D03*
X156325000Y-107065000D03*
%TD*%
D12*
%TO.C,BTN5*%
X77675000Y-127025000D03*
D13*
X77675000Y-129025000D03*
%TD*%
D14*
%TO.C,D1*%
X87520000Y-86340000D03*
D15*
X90060000Y-86340000D03*
%TD*%
D12*
%TO.C,PADDLE2*%
X148575000Y-123025000D03*
D13*
X150575000Y-123025000D03*
%TD*%
D16*
%TO.C,S1*%
X123250000Y-71025000D03*
X119000000Y-71025000D03*
%TD*%
D12*
%TO.C,BTN6*%
X77675000Y-135525000D03*
D13*
X77675000Y-137525000D03*
%TD*%
D17*
%TO.C,BT1*%
X92575000Y-134935000D03*
D18*
X95075000Y-134935000D03*
%TD*%
D10*
%TO.C,J2*%
X168175000Y-108235000D03*
D11*
X168175000Y-105695000D03*
X168175000Y-103155000D03*
X168175000Y-100615000D03*
X168175000Y-98075000D03*
X168175000Y-95535000D03*
X168175000Y-92995000D03*
X168175000Y-90455000D03*
%TD*%
D12*
%TO.C,BTN3*%
X183625000Y-135525000D03*
D13*
X183625000Y-137525000D03*
%TD*%
D12*
%TO.C,PADDLE1*%
X107475000Y-123025000D03*
D13*
X105475000Y-123025000D03*
%TD*%
D12*
%TO.C,BTN4*%
X77675000Y-119025000D03*
D13*
X77675000Y-121025000D03*
%TD*%
D12*
%TO.C,BTN2*%
X183625000Y-127025000D03*
D13*
X183625000Y-129025000D03*
%TD*%
D12*
%TO.C,BTN1*%
X183625000Y-119025000D03*
D13*
X183625000Y-121025000D03*
%TD*%
D10*
%TO.C,J4*%
X187325000Y-105825000D03*
D11*
X187325000Y-108365000D03*
X187325000Y-110905000D03*
%TD*%
D19*
%TO.C,BZ2*%
X126975000Y-118825000D03*
D20*
X134575000Y-118825000D03*
%TD*%
%TO.C,SW10*%
X103575000Y-113935000D03*
X103575000Y-108935000D03*
D21*
X96575000Y-117035000D03*
X96575000Y-105835000D03*
D20*
X89075000Y-111435000D03*
X89075000Y-113935000D03*
D19*
X89075000Y-108935000D03*
%TD*%
D10*
%TO.C,J3*%
X162325000Y-120235000D03*
D11*
X162325000Y-122775000D03*
X162325000Y-125315000D03*
X162325000Y-127855000D03*
X162325000Y-130395000D03*
X162325000Y-132935000D03*
X162325000Y-135475000D03*
X162325000Y-138015000D03*
%TD*%
D22*
%TO.C,J1*%
X125835000Y-69995000D03*
D23*
X125835000Y-74175000D03*
D22*
X134475000Y-69995000D03*
D23*
X134475000Y-74175000D03*
D24*
X127265000Y-73645000D03*
X133045000Y-73645000D03*
%TD*%
D16*
%TO.C,S2*%
X116250000Y-71026000D03*
X112000000Y-71026000D03*
%TD*%
D19*
%TO.C,BZ1*%
X112475000Y-118775000D03*
D20*
X120075000Y-118775000D03*
%TD*%
D10*
%TO.C,J5*%
X72975000Y-103325000D03*
D11*
X72975000Y-105865000D03*
X72975000Y-108405000D03*
%TD*%
D13*
%TO.C,SW3*%
X95575000Y-97525000D03*
D12*
X95575000Y-95525000D03*
%TD*%
D25*
%TO.C,Volume1*%
X177185000Y-104175000D03*
X180985000Y-106675000D03*
X177185000Y-109175000D03*
%TD*%
M02*
