0
SECTION
2
HEADER
9
$INSUNITS
70
4
9
$ACADVER
1
AC1014
9
$HANDSEED
5
FFFF
0
ENDSEC
0
SECTION
2
TABLES
0
TABLE
2
VPORT
5
8
100
AcDbSymbolTable
0
ENDTAB
0
TABLE
2
LTYPE
5
5
100
AcDbSymbolTable
0
LTYPE
5
14
100
AcDbSymbolTableRecord
100
AcDbLinetypeTableRecord
2
BYBLOCK
70
0
0
LTYPE
5
15
100
AcDbSymbolTableRecord
100
AcDbLinetypeTableRecord
2
BYLAYER
70
0
0
ENDTAB
0
TABLE
2
LAYER
5
2
100
AcDbSymbolTable
70
2
0
LAYER
5
50
100
AcDbSymbolTableRecord
100
AcDbLayerTableRecord
2
0
70
0
6
CONTINUOUS
0
ENDTAB
0
TABLE
2
STYLE
5
3
100
AcDbSymbolTable
70
1
0
STYLE
5
11
100
AcDbSymbolTableRecord
100
AcDbTextStyleTableRecord
2
STANDARD
70
0
0
ENDTAB
0
TABLE
2
VIEW
5
6
100
AcDbSymbolTable
70
0
0
ENDTAB
0
TABLE
2
UCS
5
7
100
AcDbSymbolTable
70
0
0
ENDTAB
0
TABLE
2
APPID
5
9
100
AcDbSymbolTable
70
2
0
APPID
5
12
100
AcDbSymbolTableRecord
100
AcDbRegAppTableRecord
2
ACAD
70
0
0
ENDTAB
0
TABLE
2
DIMSTYLE
5
A
100
AcDbSymbolTable
70
1
0
ENDTAB
0
TABLE
2
BLOCK_RECORD
5
1
100
AcDbSymbolTable
70
1
0
BLOCK_RECORD
5
1F
100
AcDbSymbolTableRecord
100
AcDbBlockTableRecord
2
*MODEL_SPACE
0
BLOCK_RECORD
5
1B
100
AcDbSymbolTableRecord
100
AcDbBlockTableRecord
2
*PAPER_SPACE
0
ENDTAB
0
ENDSEC
0
SECTION
2
BLOCKS
0
BLOCK
5
20
100
AcDbEntity
100
AcDbBlockBegin
2
*MODEL_SPACE
0
ENDBLK
5
21
100
AcDbEntity
100
AcDbBlockEnd
0
BLOCK
5
1C
100
AcDbEntity
100
AcDbBlockBegin
2
*PAPER_SPACE
0
ENDBLK
5
1D
100
AcDbEntity
100
AcDbBlockEnd
0
ENDSEC
0
SECTION
2
ENTITIES
0
CIRCLE
5
100
100
AcDbEntity
8
0
100
AcDbCircle
10
-17.344995785457481
20
-23.689512742727498
30
0
40
1.5000000000000022
210
-1.2225784536284012e-31
220
-9.8607613152627001e-32
230
1
0
CIRCLE
5
101
100
AcDbEntity
8
0
100
AcDbCircle
10
-17.34499578545757
20
-3.6895127427274939
30
-2.2204460492503131e-15
40
1.5000000000000022
210
-1.2225784536284012e-31
220
-9.8607613152627001e-32
230
1
0
CIRCLE
5
102
100
AcDbEntity
8
0
100
AcDbCircle
10
17.344995785456998
20
-23.689512742727356
30
2.2204460492503131e-15
40
1.5000000000000022
210
-9.0781959857264981e-32
220
-5.6461178940733117e-46
230
1
0
CIRCLE
5
103
100
AcDbEntity
8
0
100
AcDbCircle
10
17.344995785456874
20
-3.6895127427273477
30
0
40
1.5000000000000022
210
-9.0781959857264981e-32
220
-5.6461178940733117e-46
230
1
0
ARC
5
104
100
AcDbEntity
8
0
100
AcDbCircle
10
7.9371513085770573
20
25.853730436029728
30
-1.8782052170759877e-45
40
1.9999999999999702
210
-1.1955505230561477e-31
220
-1.9815236097093116e-45
230
1
100
AcDbArc
50
64.545005474457952
51
90.000000000000568
0
LINE
5
105
100
AcDbEntity
8
0
100
AcDbLine
10
7.9371513085770378
20
27.8537304360297
30
-2.8737566162911288e-46
11
-7.9371513085781045
21
27.853730436029633
31
-2.789165482291914e-30
0
ARC
5
106
100
AcDbEntity
8
0
100
AcDbCircle
10
-7.9371513085780974
20
25.853730436029636
30
-1.7242539697746773e-45
40
1.9999999999999973
210
-1.9819317084380702e-31
220
1.3945827411459573e-30
230
1
100
AcDbArc
50
90.000000000000199
51
115.45499452554256
0
LINE
5
107
100
AcDbEntity
8
0
100
AcDbLine
10
-8.7967552865865422
20
27.65957677528224
30
-1.9721522630525352e-31
11
-19.204599768255981
21
22.705321075631169
31
-1.4791141972893971e-30
0
ARC
5
108
100
AcDbEntity
8
0
100
AcDbCircle
10
-18.34499579024753
20
20.899474736378547
30
-7.1159687641494617e-46
40
2.0000000000000133
210
-4.1445229866866965e-31
220
6.217856570918263e-31
230
1
100
AcDbArc
50
115.45499452554249
51
180
0
LINE
5
109
100
AcDbEntity
8
0
100
AcDbLine
10
-20.34499579024753
20
20.899474743963893
30
-3.3082686305093094e-31
11
-20.344995785456895
21
18.477262405396168
31
-2.2186712959340957e-30
0
LINE
5
110
100
AcDbEntity
8
0
100
AcDbLine
10
-20.344995785456895
20
18.477262405396168
30
-2.2186712959340957e-30
11
-20.344995785456838
21
-61.755689249331638
31
0
0
SPLINE
5
111
100
AcDbEntity
8
0
100
AcDbSpline
70
0
71
3
72
12
73
8
74
0
42
0.000000001
43
0.0000000001
44
0.0000000001
40
0
40
0
40
0
40
0
40
0.13152112549418193
40
0.13152112549418193
40
0.21923634777040157
40
0.21923634777040157
40
0.3105050012756731
40
0.3105050012756731
40
0.3105050012756731
40
0.3105050012756731
10
-21.694569405854814
20
-64.392141330389194
30
2.2204460492503131e-15
10
-21.338929257124384
20
-64.135786236682449
30
2.2204460492503131e-15
10
-21.033450810719934
20
-63.825139653426469
30
2.2204460492503131e-15
10
-20.649506341046795
20
-63.203921069016687
30
0
10
-20.535300508291414
20
-62.937401650362439
30
0
10
-20.380304479213351
20
-62.361654538791754
30
0
10
-20.344995785456842
20
-62.059808533693456
30
0
10
-20.344995785456838
20
-61.755689249331652
30
0
0
LINE
5
112
100
AcDbEntity
8
0
100
AcDbLine
10
-21.694569405854814
20
-64.392141330389194
30
2.2204460492503131e-15
11
-21.790756050438866
21
-64.461475280376874
31
2.2204460492503131e-15
0
ARC
5
113
100
AcDbEntity
8
0
100
AcDbCircle
10
-23.544995785456798
20
-62.027827205555411
30
-2.2204460492503174e-15
40
3.0000000000000209
210
-6.4496840632998143e-31
220
1.3502577331856885e-30
230
1
100
AcDbArc
50
267.00929709333582
51
305.78508895124651
0
ARC
5
114
100
AcDbEntity
8
0
100
AcDbCircle
10
-23.844995785456771
20
-67.769995785456786
30
0
40
2.750000000000548
210
4.2127039669551698e-17
220
8.0633521184932739e-16
230
1
100
AcDbArc
50
87.009297093336187
51
269.58268981907679
0
LINE
5
115
100
AcDbEntity
8
0
100
AcDbLine
10
-23.865025059181502
20
-70.519922844161641
30
2.6633522736612942e-33
11
23.865025059181445
21
-70.51992284416167
31
-2.220446049250306e-15
0
ARC
5
116
100
AcDbEntity
8
0
100
AcDbCircle
10
23.84499578545671
20
-67.769995785456828
30
2.2204460492503131e-15
40
2.7500000000005524
210
1.1761698303847377e-17
220
-1.6148270210182478e-15
230
1
100
AcDbArc
50
-89.582689819076748
51
92.990702906663813
0
ARC
5
117
100
AcDbEntity
8
0
100
AcDbCircle
10
23.544995785456706
20
-62.027827205555539
30
5.6106676794255371e-46
40
2.9999999999999321
210
-2.1541036771131504e-32
220
-1.1254129761987106e-33
230
1
100
AcDbArc
50
234.21491104875255
51
272.99070290666492
0
LINE
5
118
100
AcDbEntity
8
0
100
AcDbLine
10
21.790756050438581
20
-64.461475280377186
30
-4.0527001760310125e-32
11
21.694569405854743
21
-64.392141330389222
31
-2.2204460492503131e-15
0
SPLINE
5
119
100
AcDbEntity
8
0
100
AcDbSpline
70
0
71
3
72
12
73
8
74
0
42
0.000000001
43
0.0000000001
44
0.0000000001
40
0
40
0
40
0
40
0
40
0.1315211254941793
40
0.1315211254941793
40
0.21923634777038895
40
0.21923634777038895
40
0.31050500127564762
40
0.31050500127564762
40
0.31050500127564762
40
0.31050500127564762
10
20.344995785456767
20
-61.755689249331674
30
0
10
20.344995785456771
20
-62.194093000978938
30
0
10
20.418369795595773
20
-62.623551538607913
30
0
10
20.697802051346446
20
-63.298268886728422
30
0
10
20.847225404786577
20
-63.546760806520275
30
0
10
21.22364729034657
20
-64.009162222590177
30
0
10
21.447862968886948
20
-64.214308619451742
30
0
10
21.694569405854743
20
-64.392141330389222
30
0
0
LINE
5
120
100
AcDbEntity
8
0
100
AcDbLine
10
20.344995785456767
20
-61.755689249331674
30
0
11
20.344995785456778
21
18.477262405396139
31
0
0
LINE
5
121
100
AcDbEntity
8
0
100
AcDbLine
10
20.344995785456778
20
18.477262405396139
30
0
11
20.3449957902465
21
20.899474743964102
31
-9.8607613152626476e-31
0
ARC
5
122
100
AcDbEntity
8
0
100
AcDbCircle
10
18.344995790246514
20
20.899474736378735
30
2.2204460492503119e-15
40
1.999999999999984
210
1.1102230246251652e-15
220
4.2107248096650851e-24
230
1
100
AcDbArc
50
0
51
64.545005474458293
0
LINE
5
123
100
AcDbEntity
8
0
100
AcDbLine
10
19.204599768254926
20
22.705321075631339
30
2.2204460492503131e-15
11
8.7967552865854763
21
27.659576775282318
31
1.0276999855291284e-31
0
CIRCLE
5
124
100
AcDbEntity
8
0
100
AcDbCircle
10
17.344995785456771
20
16.310487257272658
30
2.2204460492503131e-15
40
1.5000000000000002
210
7.1711380076608327e-33
220
2.148098627756976e-48
230
1
0
CIRCLE
5
125
100
AcDbEntity
8
0
100
AcDbCircle
10
-17.344995785456891
20
16.310487257272683
30
0
40
1.5000000000000002
210
7.1711380076608327e-33
220
2.148098627756976e-48
230
1
0
CIRCLE
5
126
100
AcDbEntity
8
0
100
AcDbCircle
10
16.844995785456785
20
-48.7699957854568
30
0
40
1.5000000000000002
210
-1.9004408829759216e-31
220
-5.6927288925310446e-47
230
1
0
CIRCLE
5
127
100
AcDbEntity
8
0
100
AcDbCircle
10
-16.844995785456863
20
-48.769995785456778
30
-2.2204460492503131e-15
40
1.5000000000000002
210
-1.9004408829759212e-31
220
-5.6927288925310426e-47
230
1
0
CIRCLE
5
128
100
AcDbEntity
8
0
100
AcDbCircle
10
-23.844995785456771
20
-67.769995785456786
30
0
40
1.5000000000000047
210
-4.2132668568652449e-32
220
-1.2620748260509888e-47
230
1
0
CIRCLE
5
129
100
AcDbEntity
8
0
100
AcDbCircle
10
23.84499578545671
20
-67.769995785456828
30
2.2204460492503131e-15
40
1.5000000000000047
210
-4.2132668568652449e-32
220
-1.2620748260509888e-47
230
1
0
ENDSEC
0
SECTION
2
OBJECTS
0
DICTIONARY
5
C
100
AcDbDictionary
3
ACAD_GROUP
350
D
3
ACAD_MLINESTYLE
350
17
0
DICTIONARY
5
D
100
AcDbDictionary
0
DICTIONARY
5
1A
330
C
100
AcDbDictionary
0
DICTIONARY
5
17
100
AcDbDictionary
0
ENDSEC
0
EOF
