%TF.GenerationSoftware,KiCad,Pcbnew,7.0.7*%
%TF.CreationDate,2023-11-05T16:04:25+01:00*%
%TF.ProjectId,FC_Wheel_PCB-2.0,46435f57-6865-4656-9c5f-5043422d322e,rev?*%
%TF.SameCoordinates,Original*%
%TF.FileFunction,Paste,Top*%
%TF.FilePolarity,Positive*%
%FSLAX46Y46*%
G04 Gerber Fmt 4.6, Leading zero omitted, Abs format (unit mm)*
G04 Created by KiCad (PCBNEW 7.0.7) date 2023-11-05 16:04:25*
%MOMM*%
%LPD*%
G01*
G04 APERTURE LIST*
G04 Aperture macros list*
%AMRoundRect*
0 Rectangle with rounded corners*
0 $1 Rounding radius*
0 $2 $3 $4 $5 $6 $7 $8 $9 X,Y pos of 4 corners*
0 Add a 4 corners polygon primitive as box body*
4,1,4,$2,$3,$4,$5,$6,$7,$8,$9,$2,$3,0*
0 Add four circle primitives for the rounded corners*
1,1,$1+$1,$2,$3*
1,1,$1+$1,$4,$5*
1,1,$1+$1,$6,$7*
1,1,$1+$1,$8,$9*
0 Add four rect primitives between the rounded corners*
20,1,$1+$1,$2,$3,$4,$5,0*
20,1,$1+$1,$4,$5,$6,$7,0*
20,1,$1+$1,$6,$7,$8,$9,0*
20,1,$1+$1,$8,$9,$2,$3,0*%
G04 Aperture macros list end*
%ADD10R,0.900000X0.900000*%
%ADD11R,1.500000X0.900000*%
%ADD12R,0.900000X1.500000*%
%ADD13RoundRect,0.250000X-0.325000X-0.650000X0.325000X-0.650000X0.325000X0.650000X-0.325000X0.650000X0*%
%ADD14RoundRect,0.250000X-0.350000X-0.450000X0.350000X-0.450000X0.350000X0.450000X-0.350000X0.450000X0*%
%ADD15R,0.600000X1.450000*%
%ADD16R,0.300000X1.450000*%
%ADD17RoundRect,0.250000X-0.650000X0.325000X-0.650000X-0.325000X0.650000X-0.325000X0.650000X0.325000X0*%
%ADD18R,1.500000X2.000000*%
%ADD19R,3.800000X2.000000*%
%ADD20RoundRect,0.250000X-0.337500X-0.475000X0.337500X-0.475000X0.337500X0.475000X-0.337500X0.475000X0*%
%ADD21R,2.000000X1.500000*%
%ADD22R,2.000000X3.800000*%
%ADD23RoundRect,0.250000X0.350000X0.450000X-0.350000X0.450000X-0.350000X-0.450000X0.350000X-0.450000X0*%
%ADD24RoundRect,0.250000X-0.450000X0.350000X-0.450000X-0.350000X0.450000X-0.350000X0.450000X0.350000X0*%
%ADD25RoundRect,0.250000X0.325000X0.650000X-0.325000X0.650000X-0.325000X-0.650000X0.325000X-0.650000X0*%
G04 APERTURE END LIST*
D10*
%TO.C,U2*%
X166364000Y-118488000D03*
X166364000Y-119888000D03*
X166364000Y-121288000D03*
X167764000Y-118488000D03*
X167764000Y-119888000D03*
X167764000Y-121288000D03*
X169164000Y-118488000D03*
X169164000Y-119888000D03*
X169164000Y-121288000D03*
D11*
X160514000Y-112168000D03*
X160514000Y-113438000D03*
X160514000Y-114708000D03*
X160514000Y-115978000D03*
X160514000Y-117248000D03*
X160514000Y-118518000D03*
X160514000Y-119788000D03*
X160514000Y-121058000D03*
X160514000Y-122328000D03*
X160514000Y-123598000D03*
X160514000Y-124868000D03*
X160514000Y-126138000D03*
X160514000Y-127408000D03*
X160514000Y-128678000D03*
D12*
X162279000Y-129928000D03*
X163549000Y-129928000D03*
X164819000Y-129928000D03*
X166089000Y-129928000D03*
X167359000Y-129928000D03*
X168629000Y-129928000D03*
X169899000Y-129928000D03*
X171169000Y-129928000D03*
X172439000Y-129928000D03*
X173709000Y-129928000D03*
X174979000Y-129928000D03*
X176249000Y-129928000D03*
D11*
X178014000Y-128678000D03*
X178014000Y-127408000D03*
X178014000Y-126138000D03*
X178014000Y-124868000D03*
X178014000Y-123598000D03*
X178014000Y-122328000D03*
X178014000Y-121058000D03*
X178014000Y-119788000D03*
X178014000Y-118518000D03*
X178014000Y-117248000D03*
X178014000Y-115978000D03*
X178014000Y-114708000D03*
X178014000Y-113438000D03*
X178014000Y-112168000D03*
%TD*%
D13*
%TO.C,C7*%
X259450000Y-168150000D03*
X262400000Y-168150000D03*
%TD*%
%TO.C,C2*%
X153514000Y-119380000D03*
X156464000Y-119380000D03*
%TD*%
D14*
%TO.C,R12*%
X211150000Y-119150000D03*
X213150000Y-119150000D03*
%TD*%
D15*
%TO.C,J1*%
X219150000Y-112695000D03*
X218350000Y-112695000D03*
D16*
X217150000Y-112695000D03*
X216150000Y-112695000D03*
X215650000Y-112695000D03*
X214650000Y-112695000D03*
D15*
X213450000Y-112695000D03*
X212650000Y-112695000D03*
X212650000Y-112695000D03*
X213450000Y-112695000D03*
D16*
X214150000Y-112695000D03*
X215150000Y-112695000D03*
X216650000Y-112695000D03*
X217650000Y-112695000D03*
D15*
X218350000Y-112695000D03*
X219150000Y-112695000D03*
%TD*%
D17*
%TO.C,C9*%
X232400000Y-120400000D03*
X232400000Y-123350000D03*
%TD*%
D14*
%TO.C,R1*%
X173900000Y-165400000D03*
X175900000Y-165400000D03*
%TD*%
%TO.C,R_bat1*%
X195000000Y-163000000D03*
X197000000Y-163000000D03*
%TD*%
D18*
%TO.C,U6*%
X226200000Y-118250000D03*
X223900000Y-118250000D03*
D19*
X223900000Y-124550000D03*
D18*
X221600000Y-118250000D03*
%TD*%
D14*
%TO.C,R9*%
X253000000Y-134000000D03*
X255000000Y-134000000D03*
%TD*%
D13*
%TO.C,C6*%
X266950000Y-164400000D03*
X269900000Y-164400000D03*
%TD*%
D20*
%TO.C,C8*%
X153881000Y-113538000D03*
X155956000Y-113538000D03*
%TD*%
D14*
%TO.C,R10*%
X153250000Y-125900000D03*
X155250000Y-125900000D03*
%TD*%
%TO.C,R_bat2*%
X194900000Y-125400000D03*
X196900000Y-125400000D03*
%TD*%
D21*
%TO.C,U7*%
X262788000Y-173468000D03*
X262788000Y-175768000D03*
D22*
X269088000Y-175768000D03*
D21*
X262788000Y-178068000D03*
%TD*%
D23*
%TO.C,R11*%
X217400000Y-119150000D03*
X215400000Y-119150000D03*
%TD*%
D24*
%TO.C,R2*%
X178000000Y-151500000D03*
X178000000Y-153500000D03*
%TD*%
D25*
%TO.C,C5*%
X202875000Y-116650000D03*
X199925000Y-116650000D03*
%TD*%
M02*
