M48
; DRILL file {KiCad 7.0.7} date Sun Nov  5 16:04:23 2023
; FORMAT={-:-/ absolute / inch / decimal}
; #@! TF.CreationDate,2023-11-05T16:04:23+01:00
; #@! TF.GenerationSoftware,Kicad,Pcbnew,7.0.7
; #@! TF.FileFunction,Plated,1,2,PTH
FMAT,2
INCH
; #@! TA.AperFunction,Plated,PTH,ComponentDrill
T1C0.0118
; #@! TA.AperFunction,Plated,PTH,ViaDrill
T2C0.0197
; #@! TA.AperFunction,Plated,PTH,ComponentDrill
T3C0.0236
; #@! TA.AperFunction,Plated,PTH,ComponentDrill
T4C0.0300
; #@! TA.AperFunction,Plated,PTH,ComponentDrill
T5C0.0354
; #@! TA.AperFunction,Plated,PTH,ComponentDrill
T6C0.0394
; #@! TA.AperFunction,Plated,PTH,ComponentDrill
T7C0.0512
; #@! TA.AperFunction,Plated,PTH,ComponentDrill
T8C0.0520
; #@! TA.AperFunction,Plated,PTH,ComponentDrill
T9C0.0591
; #@! TA.AperFunction,Plated,PTH,ComponentDrill
T10C0.0787
; #@! TA.AperFunction,Plated,PTH,ComponentDrill
T11C0.0941
; #@! TA.AperFunction,Plated,PTH,ComponentDrill
T12C0.1260
; #@! TA.AperFunction,Plated,PTH,ComponentDrill
T13C0.1398
%
G90
G05
T1
X6.5498Y-4.6924
X6.5498Y-4.7476
X6.5773Y-4.6649
X6.5773Y-4.72
X6.5773Y-4.7751
X6.6049Y-4.6924
X6.6049Y-4.7476
X6.6324Y-4.6649
X6.6324Y-4.72
X6.6324Y-4.7751
X6.66Y-4.6924
X6.66Y-4.7476
T2
X5.9744Y-4.7638
X6.1909Y-4.6161
X6.2303Y-4.4685
X6.2402Y-4.8622
X6.4075Y-4.7736
X6.4075Y-4.8228
X6.4518Y-4.4439
X6.5748Y-6.5256
X6.5945Y-4.4783
X6.6043Y-6.3976
X6.6388Y-5.0267
X6.6831Y-4.5079
X6.6929Y-5.3051
X6.7126Y-5.4528
X6.7126Y-6.3976
X6.7126Y-6.5157
X6.7202Y-5.2385
X6.7421Y-5.0197
X6.7913Y-5.0394
X6.8012Y-4.4783
X6.8268Y-4.7697
X6.8307Y-4.5817
X6.8406Y-5.0295
X6.8504Y-4.498
X6.8661Y-4.8091
X6.8799Y-4.5472
X6.8799Y-5.2657
X6.8898Y-5.0197
X6.8996Y-4.4685
X6.9094Y-4.872
X6.9193Y-4.7146
X6.9193Y-5.7283
X6.9291Y-4.6358
X7.0079Y-6.565
X7.1358Y-4.9606
X7.1752Y-4.8622
X7.2047Y-4.6034
X7.2106Y-4.8091
X7.269Y-5.1818
X7.2992Y-4.7697
X7.4016Y-4.6161
X7.4114Y-4.6752
X7.5394Y-5.6594
X7.5591Y-4.8228
X7.6181Y-5.8268
X7.6378Y-5.4035
X7.687Y-4.6654
X7.7559Y-4.7766
X7.7864Y-5.3051
X7.8445Y-5.0295
X8.0413Y-4.5374
X8.0512Y-4.3406
X8.1299Y-4.4291
X8.1299Y-4.7215
X8.2283Y-4.7047
X8.4027Y-4.4855
X8.4154Y-4.9114
X8.435Y-4.5866
X8.5236Y-6.4665
X8.5817Y-4.5472
X8.622Y-4.7047
X8.6811Y-4.5374
X8.7303Y-4.7539
X8.9567Y-4.3406
X8.9567Y-4.4193
X9.065Y-5.5217
X9.2815Y-6.6831
X9.6358Y-5.7283
X9.6555Y-5.1378
X9.7441Y-4.7736
X9.7736Y-5.8563
X9.8228Y-5.8169
X9.8622Y-4.7343
X10.0591Y-5.1476
X10.2067Y-5.5217
X10.2264Y-5.4626
X10.6791Y-4.8327
X10.9154Y-4.7441
T5
X10.2898Y-5.2126
X10.3898Y-5.2126
T6
X5.6447Y-4.4843
X5.7447Y-4.4843
X5.8447Y-4.4843
X6.128Y-6.8071
X6.128Y-6.9055
X6.128Y-7.0039
X6.5Y-6.0
X6.6988Y-6.8071
X6.6988Y-7.0039
X6.7992Y-6.0
X7.2677Y-5.3465
X7.2677Y-5.4465
X7.2677Y-5.5465
X7.2677Y-5.6465
X7.2677Y-5.7465
X7.2677Y-5.8465
X7.2677Y-5.9465
X7.2677Y-6.0465
X7.5354Y-4.4537
X7.5354Y-4.5537
X8.1969Y-6.6299
X8.2969Y-6.6299
X8.3969Y-6.6299
X8.4969Y-6.6299
X8.5969Y-6.6299
X8.6969Y-6.6299
X8.7969Y-6.6299
X9.4646Y-4.4734
X9.4646Y-4.5734
X10.2008Y-6.0
X10.5Y-6.0
X10.7835Y-6.4693
X10.7835Y-6.5693
X10.7835Y-6.6693
X10.7835Y-6.7693
X10.7835Y-6.8693
X10.7835Y-6.9693
X10.7835Y-7.0693
X10.7835Y-7.1693
X10.8031Y-4.4833
X10.9031Y-4.4833
X11.0031Y-4.4833
T7
X9.7992Y-4.6142
X9.8976Y-4.4646
X9.9961Y-4.6142
T8
X7.0787Y-7.2205
X9.922Y-7.2205
T9
X9.3978Y-5.5841
X9.4978Y-5.5841
X9.5978Y-5.5841
X9.6978Y-5.5841
X9.7978Y-5.5841
X9.8978Y-5.5841
T11
X9.922Y-7.5303
T12
X5.3819Y-4.5169
X5.9356Y-7.5206
X7.2992Y-4.9665
X7.2992Y-6.4232
X9.9173Y-4.9665
X9.9173Y-6.4232
X11.0644Y-7.5206
X11.6181Y-4.5169
T13
X7.426Y-7.5303
X9.5992Y-6.9106
T3
G00X8.3299Y-4.248
M15
G01X8.3299Y-4.2244
M16
G05
G00X8.3299Y-4.4224
M15
G01X8.3299Y-4.3791
M16
G05
G00X8.6701Y-4.248
M15
G01X8.6701Y-4.2244
M16
G05
G00X8.6701Y-4.4224
M15
G01X8.6701Y-4.3791
M16
G05
T4
G00X10.326Y-4.5039
M15
G01X10.3748Y-4.5039
M16
G05
G00X10.326Y-4.7008
M15
G01X10.3748Y-4.7008
M16
G05
T6
G00X5.6451Y-4.8687
M15
G01X5.6451Y-4.9474
M16
G05
G00X5.8414Y-5.4591
M15
G01X5.8414Y-5.5379
M16
G05
G00X5.8451Y-4.8687
M15
G01X5.8451Y-4.9474
M16
G05
G00X6.0414Y-5.4591
M15
G01X6.0414Y-5.5379
M16
G05
G00X10.9594Y-5.4592
M15
G01X10.9594Y-5.538
M16
G05
G00X11.1563Y-4.8686
M15
G01X11.1563Y-4.9474
M16
G05
G00X11.1594Y-5.4592
M15
G01X11.1594Y-5.538
M16
G05
G00X11.3563Y-4.8686
M15
G01X11.3563Y-4.9474
M16
G05
T10
G00X6.4134Y-6.685
M15
G01X6.4331Y-6.685
M16
G05
G00X6.4134Y-7.126
M15
G01X6.4331Y-7.126
M16
G05
T0
M30
