%TF.GenerationSoftware,KiCad,Pcbnew,7.0.7*%
%TF.CreationDate,2023-11-05T16:04:25+01:00*%
%TF.ProjectId,FC_Wheel_PCB-2.0,46435f57-6865-4656-9c5f-5043422d322e,rev?*%
%TF.SameCoordinates,Original*%
%TF.FileFunction,Legend,Bot*%
%TF.FilePolarity,Positive*%
%FSLAX46Y46*%
G04 Gerber Fmt 4.6, Leading zero omitted, Abs format (unit mm)*
G04 Created by KiCad (PCBNEW 7.0.7) date 2023-11-05 16:04:25*
%MOMM*%
%LPD*%
G01*
G04 APERTURE LIST*
%ADD10C,0.187500*%
%ADD11C,0.150000*%
%ADD12C,0.254000*%
%ADD13C,0.010000*%
%ADD14C,0.120000*%
%ADD15C,0.200000*%
G04 APERTURE END LIST*
D10*
X276830156Y-182511893D02*
X276639680Y-182511893D01*
X276715871Y-182702369D02*
X276639680Y-182511893D01*
X276639680Y-182511893D02*
X276715871Y-182321416D01*
X276487299Y-182626178D02*
X276639680Y-182511893D01*
X276639680Y-182511893D02*
X276487299Y-182397607D01*
X276830156Y-179464273D02*
X276639680Y-179464273D01*
X276715871Y-179654749D02*
X276639680Y-179464273D01*
X276639680Y-179464273D02*
X276715871Y-179273796D01*
X276487299Y-179578558D02*
X276639680Y-179464273D01*
X276639680Y-179464273D02*
X276487299Y-179349987D01*
X276830156Y-177026177D02*
X276639680Y-177026177D01*
X276715871Y-177216653D02*
X276639680Y-177026177D01*
X276639680Y-177026177D02*
X276715871Y-176835700D01*
X276487299Y-177140462D02*
X276639680Y-177026177D01*
X276639680Y-177026177D02*
X276487299Y-176911891D01*
X276830156Y-174588081D02*
X276639680Y-174588081D01*
X276715871Y-174778557D02*
X276639680Y-174588081D01*
X276639680Y-174588081D02*
X276715871Y-174397604D01*
X276487299Y-174702366D02*
X276639680Y-174588081D01*
X276639680Y-174588081D02*
X276487299Y-174473795D01*
X276068252Y-172911890D02*
X276030156Y-172797604D01*
X276030156Y-172797604D02*
X276030156Y-172607128D01*
X276030156Y-172607128D02*
X276068252Y-172530937D01*
X276068252Y-172530937D02*
X276106347Y-172492842D01*
X276106347Y-172492842D02*
X276182537Y-172454747D01*
X276182537Y-172454747D02*
X276258728Y-172454747D01*
X276258728Y-172454747D02*
X276334918Y-172492842D01*
X276334918Y-172492842D02*
X276373013Y-172530937D01*
X276373013Y-172530937D02*
X276411109Y-172607128D01*
X276411109Y-172607128D02*
X276449204Y-172759509D01*
X276449204Y-172759509D02*
X276487299Y-172835699D01*
X276487299Y-172835699D02*
X276525394Y-172873794D01*
X276525394Y-172873794D02*
X276601585Y-172911890D01*
X276601585Y-172911890D02*
X276677775Y-172911890D01*
X276677775Y-172911890D02*
X276753966Y-172873794D01*
X276753966Y-172873794D02*
X276792061Y-172835699D01*
X276792061Y-172835699D02*
X276830156Y-172759509D01*
X276830156Y-172759509D02*
X276830156Y-172569032D01*
X276830156Y-172569032D02*
X276792061Y-172454747D01*
X276030156Y-172111889D02*
X276830156Y-172111889D01*
X276830156Y-172111889D02*
X276830156Y-171921413D01*
X276830156Y-171921413D02*
X276792061Y-171807127D01*
X276792061Y-171807127D02*
X276715871Y-171730937D01*
X276715871Y-171730937D02*
X276639680Y-171692842D01*
X276639680Y-171692842D02*
X276487299Y-171654746D01*
X276487299Y-171654746D02*
X276373013Y-171654746D01*
X276373013Y-171654746D02*
X276220632Y-171692842D01*
X276220632Y-171692842D02*
X276144442Y-171730937D01*
X276144442Y-171730937D02*
X276068252Y-171807127D01*
X276068252Y-171807127D02*
X276030156Y-171921413D01*
X276030156Y-171921413D02*
X276030156Y-172111889D01*
X276258728Y-171349985D02*
X276258728Y-170969032D01*
X276030156Y-171426175D02*
X276830156Y-171159508D01*
X276830156Y-171159508D02*
X276030156Y-170892842D01*
X276068252Y-170054747D02*
X276030156Y-169940461D01*
X276030156Y-169940461D02*
X276030156Y-169749985D01*
X276030156Y-169749985D02*
X276068252Y-169673794D01*
X276068252Y-169673794D02*
X276106347Y-169635699D01*
X276106347Y-169635699D02*
X276182537Y-169597604D01*
X276182537Y-169597604D02*
X276258728Y-169597604D01*
X276258728Y-169597604D02*
X276334918Y-169635699D01*
X276334918Y-169635699D02*
X276373013Y-169673794D01*
X276373013Y-169673794D02*
X276411109Y-169749985D01*
X276411109Y-169749985D02*
X276449204Y-169902366D01*
X276449204Y-169902366D02*
X276487299Y-169978556D01*
X276487299Y-169978556D02*
X276525394Y-170016651D01*
X276525394Y-170016651D02*
X276601585Y-170054747D01*
X276601585Y-170054747D02*
X276677775Y-170054747D01*
X276677775Y-170054747D02*
X276753966Y-170016651D01*
X276753966Y-170016651D02*
X276792061Y-169978556D01*
X276792061Y-169978556D02*
X276830156Y-169902366D01*
X276830156Y-169902366D02*
X276830156Y-169711889D01*
X276830156Y-169711889D02*
X276792061Y-169597604D01*
X276106347Y-168797603D02*
X276068252Y-168835699D01*
X276068252Y-168835699D02*
X276030156Y-168949984D01*
X276030156Y-168949984D02*
X276030156Y-169026175D01*
X276030156Y-169026175D02*
X276068252Y-169140461D01*
X276068252Y-169140461D02*
X276144442Y-169216651D01*
X276144442Y-169216651D02*
X276220632Y-169254746D01*
X276220632Y-169254746D02*
X276373013Y-169292842D01*
X276373013Y-169292842D02*
X276487299Y-169292842D01*
X276487299Y-169292842D02*
X276639680Y-169254746D01*
X276639680Y-169254746D02*
X276715871Y-169216651D01*
X276715871Y-169216651D02*
X276792061Y-169140461D01*
X276792061Y-169140461D02*
X276830156Y-169026175D01*
X276830156Y-169026175D02*
X276830156Y-168949984D01*
X276830156Y-168949984D02*
X276792061Y-168835699D01*
X276792061Y-168835699D02*
X276753966Y-168797603D01*
X276030156Y-168073794D02*
X276030156Y-168454746D01*
X276030156Y-168454746D02*
X276830156Y-168454746D01*
X276792061Y-166778556D02*
X276830156Y-166854746D01*
X276830156Y-166854746D02*
X276830156Y-166969032D01*
X276830156Y-166969032D02*
X276792061Y-167083318D01*
X276792061Y-167083318D02*
X276715871Y-167159508D01*
X276715871Y-167159508D02*
X276639680Y-167197603D01*
X276639680Y-167197603D02*
X276487299Y-167235699D01*
X276487299Y-167235699D02*
X276373013Y-167235699D01*
X276373013Y-167235699D02*
X276220632Y-167197603D01*
X276220632Y-167197603D02*
X276144442Y-167159508D01*
X276144442Y-167159508D02*
X276068252Y-167083318D01*
X276068252Y-167083318D02*
X276030156Y-166969032D01*
X276030156Y-166969032D02*
X276030156Y-166892841D01*
X276030156Y-166892841D02*
X276068252Y-166778556D01*
X276068252Y-166778556D02*
X276106347Y-166740460D01*
X276106347Y-166740460D02*
X276373013Y-166740460D01*
X276373013Y-166740460D02*
X276373013Y-166892841D01*
X276030156Y-166397603D02*
X276830156Y-166397603D01*
X276830156Y-166397603D02*
X276030156Y-165940460D01*
X276030156Y-165940460D02*
X276830156Y-165940460D01*
X276030156Y-165559508D02*
X276830156Y-165559508D01*
X276830156Y-165559508D02*
X276830156Y-165369032D01*
X276830156Y-165369032D02*
X276792061Y-165254746D01*
X276792061Y-165254746D02*
X276715871Y-165178556D01*
X276715871Y-165178556D02*
X276639680Y-165140461D01*
X276639680Y-165140461D02*
X276487299Y-165102365D01*
X276487299Y-165102365D02*
X276373013Y-165102365D01*
X276373013Y-165102365D02*
X276220632Y-165140461D01*
X276220632Y-165140461D02*
X276144442Y-165178556D01*
X276144442Y-165178556D02*
X276068252Y-165254746D01*
X276068252Y-165254746D02*
X276030156Y-165369032D01*
X276030156Y-165369032D02*
X276030156Y-165559508D01*
X276830156Y-164226175D02*
X276830156Y-163730937D01*
X276830156Y-163730937D02*
X276525394Y-163997603D01*
X276525394Y-163997603D02*
X276525394Y-163883318D01*
X276525394Y-163883318D02*
X276487299Y-163807127D01*
X276487299Y-163807127D02*
X276449204Y-163769032D01*
X276449204Y-163769032D02*
X276373013Y-163730937D01*
X276373013Y-163730937D02*
X276182537Y-163730937D01*
X276182537Y-163730937D02*
X276106347Y-163769032D01*
X276106347Y-163769032D02*
X276068252Y-163807127D01*
X276068252Y-163807127D02*
X276030156Y-163883318D01*
X276030156Y-163883318D02*
X276030156Y-164111889D01*
X276030156Y-164111889D02*
X276068252Y-164188080D01*
X276068252Y-164188080D02*
X276106347Y-164226175D01*
X276830156Y-163502365D02*
X276030156Y-163235698D01*
X276030156Y-163235698D02*
X276830156Y-162969032D01*
X276830156Y-162778556D02*
X276830156Y-162283318D01*
X276830156Y-162283318D02*
X276525394Y-162549984D01*
X276525394Y-162549984D02*
X276525394Y-162435699D01*
X276525394Y-162435699D02*
X276487299Y-162359508D01*
X276487299Y-162359508D02*
X276449204Y-162321413D01*
X276449204Y-162321413D02*
X276373013Y-162283318D01*
X276373013Y-162283318D02*
X276182537Y-162283318D01*
X276182537Y-162283318D02*
X276106347Y-162321413D01*
X276106347Y-162321413D02*
X276068252Y-162359508D01*
X276068252Y-162359508D02*
X276030156Y-162435699D01*
X276030156Y-162435699D02*
X276030156Y-162664270D01*
X276030156Y-162664270D02*
X276068252Y-162740461D01*
X276068252Y-162740461D02*
X276106347Y-162778556D01*
X224520025Y-165541697D02*
X224596215Y-165503602D01*
X224596215Y-165503602D02*
X224710501Y-165503602D01*
X224710501Y-165503602D02*
X224824787Y-165541697D01*
X224824787Y-165541697D02*
X224900977Y-165617887D01*
X224900977Y-165617887D02*
X224939072Y-165694078D01*
X224939072Y-165694078D02*
X224977168Y-165846459D01*
X224977168Y-165846459D02*
X224977168Y-165960745D01*
X224977168Y-165960745D02*
X224939072Y-166113126D01*
X224939072Y-166113126D02*
X224900977Y-166189316D01*
X224900977Y-166189316D02*
X224824787Y-166265507D01*
X224824787Y-166265507D02*
X224710501Y-166303602D01*
X224710501Y-166303602D02*
X224634310Y-166303602D01*
X224634310Y-166303602D02*
X224520025Y-166265507D01*
X224520025Y-166265507D02*
X224481929Y-166227411D01*
X224481929Y-166227411D02*
X224481929Y-165960745D01*
X224481929Y-165960745D02*
X224634310Y-165960745D01*
X224139072Y-166303602D02*
X224139072Y-165503602D01*
X224139072Y-165503602D02*
X223681929Y-166303602D01*
X223681929Y-166303602D02*
X223681929Y-165503602D01*
X223300977Y-166303602D02*
X223300977Y-165503602D01*
X223300977Y-165503602D02*
X223110501Y-165503602D01*
X223110501Y-165503602D02*
X222996215Y-165541697D01*
X222996215Y-165541697D02*
X222920025Y-165617887D01*
X222920025Y-165617887D02*
X222881930Y-165694078D01*
X222881930Y-165694078D02*
X222843834Y-165846459D01*
X222843834Y-165846459D02*
X222843834Y-165960745D01*
X222843834Y-165960745D02*
X222881930Y-166113126D01*
X222881930Y-166113126D02*
X222920025Y-166189316D01*
X222920025Y-166189316D02*
X222996215Y-166265507D01*
X222996215Y-166265507D02*
X223110501Y-166303602D01*
X223110501Y-166303602D02*
X223300977Y-166303602D01*
X221967644Y-165503602D02*
X221472406Y-165503602D01*
X221472406Y-165503602D02*
X221739072Y-165808364D01*
X221739072Y-165808364D02*
X221624787Y-165808364D01*
X221624787Y-165808364D02*
X221548596Y-165846459D01*
X221548596Y-165846459D02*
X221510501Y-165884554D01*
X221510501Y-165884554D02*
X221472406Y-165960745D01*
X221472406Y-165960745D02*
X221472406Y-166151221D01*
X221472406Y-166151221D02*
X221510501Y-166227411D01*
X221510501Y-166227411D02*
X221548596Y-166265507D01*
X221548596Y-166265507D02*
X221624787Y-166303602D01*
X221624787Y-166303602D02*
X221853358Y-166303602D01*
X221853358Y-166303602D02*
X221929549Y-166265507D01*
X221929549Y-166265507D02*
X221967644Y-166227411D01*
X221243834Y-165503602D02*
X220977167Y-166303602D01*
X220977167Y-166303602D02*
X220710501Y-165503602D01*
X220520025Y-165503602D02*
X220024787Y-165503602D01*
X220024787Y-165503602D02*
X220291453Y-165808364D01*
X220291453Y-165808364D02*
X220177168Y-165808364D01*
X220177168Y-165808364D02*
X220100977Y-165846459D01*
X220100977Y-165846459D02*
X220062882Y-165884554D01*
X220062882Y-165884554D02*
X220024787Y-165960745D01*
X220024787Y-165960745D02*
X220024787Y-166151221D01*
X220024787Y-166151221D02*
X220062882Y-166227411D01*
X220062882Y-166227411D02*
X220100977Y-166265507D01*
X220100977Y-166265507D02*
X220177168Y-166303602D01*
X220177168Y-166303602D02*
X220405739Y-166303602D01*
X220405739Y-166303602D02*
X220481930Y-166265507D01*
X220481930Y-166265507D02*
X220520025Y-166227411D01*
X219186691Y-165503602D02*
X218920024Y-166303602D01*
X218920024Y-166303602D02*
X218653358Y-165503602D01*
X217929548Y-166227411D02*
X217967644Y-166265507D01*
X217967644Y-166265507D02*
X218081929Y-166303602D01*
X218081929Y-166303602D02*
X218158120Y-166303602D01*
X218158120Y-166303602D02*
X218272406Y-166265507D01*
X218272406Y-166265507D02*
X218348596Y-166189316D01*
X218348596Y-166189316D02*
X218386691Y-166113126D01*
X218386691Y-166113126D02*
X218424787Y-165960745D01*
X218424787Y-165960745D02*
X218424787Y-165846459D01*
X218424787Y-165846459D02*
X218386691Y-165694078D01*
X218386691Y-165694078D02*
X218348596Y-165617887D01*
X218348596Y-165617887D02*
X218272406Y-165541697D01*
X218272406Y-165541697D02*
X218158120Y-165503602D01*
X218158120Y-165503602D02*
X218081929Y-165503602D01*
X218081929Y-165503602D02*
X217967644Y-165541697D01*
X217967644Y-165541697D02*
X217929548Y-165579792D01*
X217129548Y-166227411D02*
X217167644Y-166265507D01*
X217167644Y-166265507D02*
X217281929Y-166303602D01*
X217281929Y-166303602D02*
X217358120Y-166303602D01*
X217358120Y-166303602D02*
X217472406Y-166265507D01*
X217472406Y-166265507D02*
X217548596Y-166189316D01*
X217548596Y-166189316D02*
X217586691Y-166113126D01*
X217586691Y-166113126D02*
X217624787Y-165960745D01*
X217624787Y-165960745D02*
X217624787Y-165846459D01*
X217624787Y-165846459D02*
X217586691Y-165694078D01*
X217586691Y-165694078D02*
X217548596Y-165617887D01*
X217548596Y-165617887D02*
X217472406Y-165541697D01*
X217472406Y-165541697D02*
X217358120Y-165503602D01*
X217358120Y-165503602D02*
X217281929Y-165503602D01*
X217281929Y-165503602D02*
X217167644Y-165541697D01*
X217167644Y-165541697D02*
X217129548Y-165579792D01*
X215453358Y-165503602D02*
X215453358Y-165694078D01*
X215643834Y-165617887D02*
X215453358Y-165694078D01*
X215453358Y-165694078D02*
X215262881Y-165617887D01*
X215567643Y-165846459D02*
X215453358Y-165694078D01*
X215453358Y-165694078D02*
X215339072Y-165846459D01*
X213739071Y-166303602D02*
X213739071Y-165503602D01*
X213205738Y-165503602D02*
X213053357Y-165503602D01*
X213053357Y-165503602D02*
X212977167Y-165541697D01*
X212977167Y-165541697D02*
X212900976Y-165617887D01*
X212900976Y-165617887D02*
X212862881Y-165770268D01*
X212862881Y-165770268D02*
X212862881Y-166036935D01*
X212862881Y-166036935D02*
X212900976Y-166189316D01*
X212900976Y-166189316D02*
X212977167Y-166265507D01*
X212977167Y-166265507D02*
X213053357Y-166303602D01*
X213053357Y-166303602D02*
X213205738Y-166303602D01*
X213205738Y-166303602D02*
X213281929Y-166265507D01*
X213281929Y-166265507D02*
X213358119Y-166189316D01*
X213358119Y-166189316D02*
X213396215Y-166036935D01*
X213396215Y-166036935D02*
X213396215Y-165770268D01*
X213396215Y-165770268D02*
X213358119Y-165617887D01*
X213358119Y-165617887D02*
X213281929Y-165541697D01*
X213281929Y-165541697D02*
X213205738Y-165503602D01*
X212100977Y-166303602D02*
X212558120Y-166303602D01*
X212329548Y-166303602D02*
X212329548Y-165503602D01*
X212329548Y-165503602D02*
X212405739Y-165617887D01*
X212405739Y-165617887D02*
X212481929Y-165694078D01*
X212481929Y-165694078D02*
X212558120Y-165732173D01*
X211415262Y-165770268D02*
X211415262Y-166303602D01*
X211605738Y-165465507D02*
X211796215Y-166036935D01*
X211796215Y-166036935D02*
X211300976Y-166036935D01*
X210424786Y-166265507D02*
X210310500Y-166303602D01*
X210310500Y-166303602D02*
X210120024Y-166303602D01*
X210120024Y-166303602D02*
X210043833Y-166265507D01*
X210043833Y-166265507D02*
X210005738Y-166227411D01*
X210005738Y-166227411D02*
X209967643Y-166151221D01*
X209967643Y-166151221D02*
X209967643Y-166075030D01*
X209967643Y-166075030D02*
X210005738Y-165998840D01*
X210005738Y-165998840D02*
X210043833Y-165960745D01*
X210043833Y-165960745D02*
X210120024Y-165922649D01*
X210120024Y-165922649D02*
X210272405Y-165884554D01*
X210272405Y-165884554D02*
X210348595Y-165846459D01*
X210348595Y-165846459D02*
X210386690Y-165808364D01*
X210386690Y-165808364D02*
X210424786Y-165732173D01*
X210424786Y-165732173D02*
X210424786Y-165655983D01*
X210424786Y-165655983D02*
X210386690Y-165579792D01*
X210386690Y-165579792D02*
X210348595Y-165541697D01*
X210348595Y-165541697D02*
X210272405Y-165503602D01*
X210272405Y-165503602D02*
X210081928Y-165503602D01*
X210081928Y-165503602D02*
X209967643Y-165541697D01*
X209624785Y-166303602D02*
X209624785Y-165503602D01*
X209624785Y-165503602D02*
X209434309Y-165503602D01*
X209434309Y-165503602D02*
X209320023Y-165541697D01*
X209320023Y-165541697D02*
X209243833Y-165617887D01*
X209243833Y-165617887D02*
X209205738Y-165694078D01*
X209205738Y-165694078D02*
X209167642Y-165846459D01*
X209167642Y-165846459D02*
X209167642Y-165960745D01*
X209167642Y-165960745D02*
X209205738Y-166113126D01*
X209205738Y-166113126D02*
X209243833Y-166189316D01*
X209243833Y-166189316D02*
X209320023Y-166265507D01*
X209320023Y-166265507D02*
X209434309Y-166303602D01*
X209434309Y-166303602D02*
X209624785Y-166303602D01*
X208862881Y-166075030D02*
X208481928Y-166075030D01*
X208939071Y-166303602D02*
X208672404Y-165503602D01*
X208672404Y-165503602D02*
X208405738Y-166303602D01*
X207567643Y-166265507D02*
X207453357Y-166303602D01*
X207453357Y-166303602D02*
X207262881Y-166303602D01*
X207262881Y-166303602D02*
X207186690Y-166265507D01*
X207186690Y-166265507D02*
X207148595Y-166227411D01*
X207148595Y-166227411D02*
X207110500Y-166151221D01*
X207110500Y-166151221D02*
X207110500Y-166075030D01*
X207110500Y-166075030D02*
X207148595Y-165998840D01*
X207148595Y-165998840D02*
X207186690Y-165960745D01*
X207186690Y-165960745D02*
X207262881Y-165922649D01*
X207262881Y-165922649D02*
X207415262Y-165884554D01*
X207415262Y-165884554D02*
X207491452Y-165846459D01*
X207491452Y-165846459D02*
X207529547Y-165808364D01*
X207529547Y-165808364D02*
X207567643Y-165732173D01*
X207567643Y-165732173D02*
X207567643Y-165655983D01*
X207567643Y-165655983D02*
X207529547Y-165579792D01*
X207529547Y-165579792D02*
X207491452Y-165541697D01*
X207491452Y-165541697D02*
X207415262Y-165503602D01*
X207415262Y-165503602D02*
X207224785Y-165503602D01*
X207224785Y-165503602D02*
X207110500Y-165541697D01*
X206310499Y-166227411D02*
X206348595Y-166265507D01*
X206348595Y-166265507D02*
X206462880Y-166303602D01*
X206462880Y-166303602D02*
X206539071Y-166303602D01*
X206539071Y-166303602D02*
X206653357Y-166265507D01*
X206653357Y-166265507D02*
X206729547Y-166189316D01*
X206729547Y-166189316D02*
X206767642Y-166113126D01*
X206767642Y-166113126D02*
X206805738Y-165960745D01*
X206805738Y-165960745D02*
X206805738Y-165846459D01*
X206805738Y-165846459D02*
X206767642Y-165694078D01*
X206767642Y-165694078D02*
X206729547Y-165617887D01*
X206729547Y-165617887D02*
X206653357Y-165541697D01*
X206653357Y-165541697D02*
X206539071Y-165503602D01*
X206539071Y-165503602D02*
X206462880Y-165503602D01*
X206462880Y-165503602D02*
X206348595Y-165541697D01*
X206348595Y-165541697D02*
X206310499Y-165579792D01*
X205586690Y-166303602D02*
X205967642Y-166303602D01*
X205967642Y-166303602D02*
X205967642Y-165503602D01*
D11*
X274233333Y-161444819D02*
X274233333Y-162159104D01*
X274233333Y-162159104D02*
X274280952Y-162301961D01*
X274280952Y-162301961D02*
X274376190Y-162397200D01*
X274376190Y-162397200D02*
X274519047Y-162444819D01*
X274519047Y-162444819D02*
X274614285Y-162444819D01*
X273852380Y-161444819D02*
X273233333Y-161444819D01*
X273233333Y-161444819D02*
X273566666Y-161825771D01*
X273566666Y-161825771D02*
X273423809Y-161825771D01*
X273423809Y-161825771D02*
X273328571Y-161873390D01*
X273328571Y-161873390D02*
X273280952Y-161921009D01*
X273280952Y-161921009D02*
X273233333Y-162016247D01*
X273233333Y-162016247D02*
X273233333Y-162254342D01*
X273233333Y-162254342D02*
X273280952Y-162349580D01*
X273280952Y-162349580D02*
X273328571Y-162397200D01*
X273328571Y-162397200D02*
X273423809Y-162444819D01*
X273423809Y-162444819D02*
X273709523Y-162444819D01*
X273709523Y-162444819D02*
X273804761Y-162397200D01*
X273804761Y-162397200D02*
X273852380Y-162349580D01*
X271726819Y-168759809D02*
X270726819Y-168759809D01*
X270726819Y-168759809D02*
X271441104Y-169093142D01*
X271441104Y-169093142D02*
X270726819Y-169426475D01*
X270726819Y-169426475D02*
X271726819Y-169426475D01*
X271726819Y-169902666D02*
X270726819Y-169902666D01*
X270726819Y-169902666D02*
X270726819Y-170283618D01*
X270726819Y-170283618D02*
X270774438Y-170378856D01*
X270774438Y-170378856D02*
X270822057Y-170426475D01*
X270822057Y-170426475D02*
X270917295Y-170474094D01*
X270917295Y-170474094D02*
X271060152Y-170474094D01*
X271060152Y-170474094D02*
X271155390Y-170426475D01*
X271155390Y-170426475D02*
X271203009Y-170378856D01*
X271203009Y-170378856D02*
X271250628Y-170283618D01*
X271250628Y-170283618D02*
X271250628Y-169902666D01*
X270726819Y-170902666D02*
X271536342Y-170902666D01*
X271536342Y-170902666D02*
X271631580Y-170950285D01*
X271631580Y-170950285D02*
X271679200Y-170997904D01*
X271679200Y-170997904D02*
X271726819Y-171093142D01*
X271726819Y-171093142D02*
X271726819Y-171283618D01*
X271726819Y-171283618D02*
X271679200Y-171378856D01*
X271679200Y-171378856D02*
X271631580Y-171426475D01*
X271631580Y-171426475D02*
X271536342Y-171474094D01*
X271536342Y-171474094D02*
X270726819Y-171474094D01*
X270726819Y-172378856D02*
X270726819Y-172188380D01*
X270726819Y-172188380D02*
X270774438Y-172093142D01*
X270774438Y-172093142D02*
X270822057Y-172045523D01*
X270822057Y-172045523D02*
X270964914Y-171950285D01*
X270964914Y-171950285D02*
X271155390Y-171902666D01*
X271155390Y-171902666D02*
X271536342Y-171902666D01*
X271536342Y-171902666D02*
X271631580Y-171950285D01*
X271631580Y-171950285D02*
X271679200Y-171997904D01*
X271679200Y-171997904D02*
X271726819Y-172093142D01*
X271726819Y-172093142D02*
X271726819Y-172283618D01*
X271726819Y-172283618D02*
X271679200Y-172378856D01*
X271679200Y-172378856D02*
X271631580Y-172426475D01*
X271631580Y-172426475D02*
X271536342Y-172474094D01*
X271536342Y-172474094D02*
X271298247Y-172474094D01*
X271298247Y-172474094D02*
X271203009Y-172426475D01*
X271203009Y-172426475D02*
X271155390Y-172378856D01*
X271155390Y-172378856D02*
X271107771Y-172283618D01*
X271107771Y-172283618D02*
X271107771Y-172093142D01*
X271107771Y-172093142D02*
X271155390Y-171997904D01*
X271155390Y-171997904D02*
X271203009Y-171950285D01*
X271203009Y-171950285D02*
X271298247Y-171902666D01*
X270726819Y-173093142D02*
X270726819Y-173188380D01*
X270726819Y-173188380D02*
X270774438Y-173283618D01*
X270774438Y-173283618D02*
X270822057Y-173331237D01*
X270822057Y-173331237D02*
X270917295Y-173378856D01*
X270917295Y-173378856D02*
X271107771Y-173426475D01*
X271107771Y-173426475D02*
X271345866Y-173426475D01*
X271345866Y-173426475D02*
X271536342Y-173378856D01*
X271536342Y-173378856D02*
X271631580Y-173331237D01*
X271631580Y-173331237D02*
X271679200Y-173283618D01*
X271679200Y-173283618D02*
X271726819Y-173188380D01*
X271726819Y-173188380D02*
X271726819Y-173093142D01*
X271726819Y-173093142D02*
X271679200Y-172997904D01*
X271679200Y-172997904D02*
X271631580Y-172950285D01*
X271631580Y-172950285D02*
X271536342Y-172902666D01*
X271536342Y-172902666D02*
X271345866Y-172855047D01*
X271345866Y-172855047D02*
X271107771Y-172855047D01*
X271107771Y-172855047D02*
X270917295Y-172902666D01*
X270917295Y-172902666D02*
X270822057Y-172950285D01*
X270822057Y-172950285D02*
X270774438Y-172997904D01*
X270774438Y-172997904D02*
X270726819Y-173093142D01*
X270726819Y-174331237D02*
X270726819Y-173855047D01*
X270726819Y-173855047D02*
X271203009Y-173807428D01*
X271203009Y-173807428D02*
X271155390Y-173855047D01*
X271155390Y-173855047D02*
X271107771Y-173950285D01*
X271107771Y-173950285D02*
X271107771Y-174188380D01*
X271107771Y-174188380D02*
X271155390Y-174283618D01*
X271155390Y-174283618D02*
X271203009Y-174331237D01*
X271203009Y-174331237D02*
X271298247Y-174378856D01*
X271298247Y-174378856D02*
X271536342Y-174378856D01*
X271536342Y-174378856D02*
X271631580Y-174331237D01*
X271631580Y-174331237D02*
X271679200Y-174283618D01*
X271679200Y-174283618D02*
X271726819Y-174188380D01*
X271726819Y-174188380D02*
X271726819Y-173950285D01*
X271726819Y-173950285D02*
X271679200Y-173855047D01*
X271679200Y-173855047D02*
X271631580Y-173807428D01*
X270726819Y-174997904D02*
X270726819Y-175093142D01*
X270726819Y-175093142D02*
X270774438Y-175188380D01*
X270774438Y-175188380D02*
X270822057Y-175235999D01*
X270822057Y-175235999D02*
X270917295Y-175283618D01*
X270917295Y-175283618D02*
X271107771Y-175331237D01*
X271107771Y-175331237D02*
X271345866Y-175331237D01*
X271345866Y-175331237D02*
X271536342Y-175283618D01*
X271536342Y-175283618D02*
X271631580Y-175235999D01*
X271631580Y-175235999D02*
X271679200Y-175188380D01*
X271679200Y-175188380D02*
X271726819Y-175093142D01*
X271726819Y-175093142D02*
X271726819Y-174997904D01*
X271726819Y-174997904D02*
X271679200Y-174902666D01*
X271679200Y-174902666D02*
X271631580Y-174855047D01*
X271631580Y-174855047D02*
X271536342Y-174807428D01*
X271536342Y-174807428D02*
X271345866Y-174759809D01*
X271345866Y-174759809D02*
X271107771Y-174759809D01*
X271107771Y-174759809D02*
X270917295Y-174807428D01*
X270917295Y-174807428D02*
X270822057Y-174855047D01*
X270822057Y-174855047D02*
X270774438Y-174902666D01*
X270774438Y-174902666D02*
X270726819Y-174997904D01*
X271822057Y-175521714D02*
X271822057Y-176283618D01*
X271679200Y-176950285D02*
X271726819Y-176855047D01*
X271726819Y-176855047D02*
X271726819Y-176664571D01*
X271726819Y-176664571D02*
X271679200Y-176569333D01*
X271679200Y-176569333D02*
X271631580Y-176521714D01*
X271631580Y-176521714D02*
X271536342Y-176474095D01*
X271536342Y-176474095D02*
X271250628Y-176474095D01*
X271250628Y-176474095D02*
X271155390Y-176521714D01*
X271155390Y-176521714D02*
X271107771Y-176569333D01*
X271107771Y-176569333D02*
X271060152Y-176664571D01*
X271060152Y-176664571D02*
X271060152Y-176855047D01*
X271060152Y-176855047D02*
X271107771Y-176950285D01*
X271726819Y-177521714D02*
X271679200Y-177426476D01*
X271679200Y-177426476D02*
X271631580Y-177378857D01*
X271631580Y-177378857D02*
X271536342Y-177331238D01*
X271536342Y-177331238D02*
X271250628Y-177331238D01*
X271250628Y-177331238D02*
X271155390Y-177378857D01*
X271155390Y-177378857D02*
X271107771Y-177426476D01*
X271107771Y-177426476D02*
X271060152Y-177521714D01*
X271060152Y-177521714D02*
X271060152Y-177664571D01*
X271060152Y-177664571D02*
X271107771Y-177759809D01*
X271107771Y-177759809D02*
X271155390Y-177807428D01*
X271155390Y-177807428D02*
X271250628Y-177855047D01*
X271250628Y-177855047D02*
X271536342Y-177855047D01*
X271536342Y-177855047D02*
X271631580Y-177807428D01*
X271631580Y-177807428D02*
X271679200Y-177759809D01*
X271679200Y-177759809D02*
X271726819Y-177664571D01*
X271726819Y-177664571D02*
X271726819Y-177521714D01*
X271060152Y-178283619D02*
X271726819Y-178283619D01*
X271155390Y-178283619D02*
X271107771Y-178331238D01*
X271107771Y-178331238D02*
X271060152Y-178426476D01*
X271060152Y-178426476D02*
X271060152Y-178569333D01*
X271060152Y-178569333D02*
X271107771Y-178664571D01*
X271107771Y-178664571D02*
X271203009Y-178712190D01*
X271203009Y-178712190D02*
X271726819Y-178712190D01*
D12*
X228617619Y-109038842D02*
X228436190Y-109099318D01*
X228436190Y-109099318D02*
X228133809Y-109099318D01*
X228133809Y-109099318D02*
X228012857Y-109038842D01*
X228012857Y-109038842D02*
X227952381Y-108978365D01*
X227952381Y-108978365D02*
X227891904Y-108857413D01*
X227891904Y-108857413D02*
X227891904Y-108736461D01*
X227891904Y-108736461D02*
X227952381Y-108615508D01*
X227952381Y-108615508D02*
X228012857Y-108555032D01*
X228012857Y-108555032D02*
X228133809Y-108494556D01*
X228133809Y-108494556D02*
X228375714Y-108434080D01*
X228375714Y-108434080D02*
X228496666Y-108373603D01*
X228496666Y-108373603D02*
X228557143Y-108313127D01*
X228557143Y-108313127D02*
X228617619Y-108192175D01*
X228617619Y-108192175D02*
X228617619Y-108071222D01*
X228617619Y-108071222D02*
X228557143Y-107950270D01*
X228557143Y-107950270D02*
X228496666Y-107889794D01*
X228496666Y-107889794D02*
X228375714Y-107829318D01*
X228375714Y-107829318D02*
X228073333Y-107829318D01*
X228073333Y-107829318D02*
X227891904Y-107889794D01*
X227468571Y-107829318D02*
X226682380Y-107829318D01*
X226682380Y-107829318D02*
X227105714Y-108313127D01*
X227105714Y-108313127D02*
X226924285Y-108313127D01*
X226924285Y-108313127D02*
X226803333Y-108373603D01*
X226803333Y-108373603D02*
X226742857Y-108434080D01*
X226742857Y-108434080D02*
X226682380Y-108555032D01*
X226682380Y-108555032D02*
X226682380Y-108857413D01*
X226682380Y-108857413D02*
X226742857Y-108978365D01*
X226742857Y-108978365D02*
X226803333Y-109038842D01*
X226803333Y-109038842D02*
X226924285Y-109099318D01*
X226924285Y-109099318D02*
X227287142Y-109099318D01*
X227287142Y-109099318D02*
X227408095Y-109038842D01*
X227408095Y-109038842D02*
X227468571Y-108978365D01*
X205117619Y-109038842D02*
X204936190Y-109099318D01*
X204936190Y-109099318D02*
X204633809Y-109099318D01*
X204633809Y-109099318D02*
X204512857Y-109038842D01*
X204512857Y-109038842D02*
X204452381Y-108978365D01*
X204452381Y-108978365D02*
X204391904Y-108857413D01*
X204391904Y-108857413D02*
X204391904Y-108736461D01*
X204391904Y-108736461D02*
X204452381Y-108615508D01*
X204452381Y-108615508D02*
X204512857Y-108555032D01*
X204512857Y-108555032D02*
X204633809Y-108494556D01*
X204633809Y-108494556D02*
X204875714Y-108434080D01*
X204875714Y-108434080D02*
X204996666Y-108373603D01*
X204996666Y-108373603D02*
X205057143Y-108313127D01*
X205057143Y-108313127D02*
X205117619Y-108192175D01*
X205117619Y-108192175D02*
X205117619Y-108071222D01*
X205117619Y-108071222D02*
X205057143Y-107950270D01*
X205057143Y-107950270D02*
X204996666Y-107889794D01*
X204996666Y-107889794D02*
X204875714Y-107829318D01*
X204875714Y-107829318D02*
X204573333Y-107829318D01*
X204573333Y-107829318D02*
X204391904Y-107889794D01*
X203182380Y-109099318D02*
X203908095Y-109099318D01*
X203545238Y-109099318D02*
X203545238Y-107829318D01*
X203545238Y-107829318D02*
X203666190Y-108010746D01*
X203666190Y-108010746D02*
X203787142Y-108131699D01*
X203787142Y-108131699D02*
X203908095Y-108192175D01*
D11*
X225224819Y-168066666D02*
X225939104Y-168066666D01*
X225939104Y-168066666D02*
X226081961Y-168019047D01*
X226081961Y-168019047D02*
X226177200Y-167923809D01*
X226177200Y-167923809D02*
X226224819Y-167780952D01*
X226224819Y-167780952D02*
X226224819Y-167685714D01*
X225224819Y-168971428D02*
X225224819Y-168780952D01*
X225224819Y-168780952D02*
X225272438Y-168685714D01*
X225272438Y-168685714D02*
X225320057Y-168638095D01*
X225320057Y-168638095D02*
X225462914Y-168542857D01*
X225462914Y-168542857D02*
X225653390Y-168495238D01*
X225653390Y-168495238D02*
X226034342Y-168495238D01*
X226034342Y-168495238D02*
X226129580Y-168542857D01*
X226129580Y-168542857D02*
X226177200Y-168590476D01*
X226177200Y-168590476D02*
X226224819Y-168685714D01*
X226224819Y-168685714D02*
X226224819Y-168876190D01*
X226224819Y-168876190D02*
X226177200Y-168971428D01*
X226177200Y-168971428D02*
X226129580Y-169019047D01*
X226129580Y-169019047D02*
X226034342Y-169066666D01*
X226034342Y-169066666D02*
X225796247Y-169066666D01*
X225796247Y-169066666D02*
X225701009Y-169019047D01*
X225701009Y-169019047D02*
X225653390Y-168971428D01*
X225653390Y-168971428D02*
X225605771Y-168876190D01*
X225605771Y-168876190D02*
X225605771Y-168685714D01*
X225605771Y-168685714D02*
X225653390Y-168590476D01*
X225653390Y-168590476D02*
X225701009Y-168542857D01*
X225701009Y-168542857D02*
X225796247Y-168495238D01*
X217792856Y-171354819D02*
X217792856Y-170354819D01*
X217792856Y-170354819D02*
X217411904Y-170354819D01*
X217411904Y-170354819D02*
X217316666Y-170402438D01*
X217316666Y-170402438D02*
X217269047Y-170450057D01*
X217269047Y-170450057D02*
X217221428Y-170545295D01*
X217221428Y-170545295D02*
X217221428Y-170688152D01*
X217221428Y-170688152D02*
X217269047Y-170783390D01*
X217269047Y-170783390D02*
X217316666Y-170831009D01*
X217316666Y-170831009D02*
X217411904Y-170878628D01*
X217411904Y-170878628D02*
X217792856Y-170878628D01*
X216792856Y-171354819D02*
X216792856Y-170688152D01*
X216792856Y-170354819D02*
X216840475Y-170402438D01*
X216840475Y-170402438D02*
X216792856Y-170450057D01*
X216792856Y-170450057D02*
X216745237Y-170402438D01*
X216745237Y-170402438D02*
X216792856Y-170354819D01*
X216792856Y-170354819D02*
X216792856Y-170450057D01*
X216316666Y-170688152D02*
X216316666Y-171354819D01*
X216316666Y-170783390D02*
X216269047Y-170735771D01*
X216269047Y-170735771D02*
X216173809Y-170688152D01*
X216173809Y-170688152D02*
X216030952Y-170688152D01*
X216030952Y-170688152D02*
X215935714Y-170735771D01*
X215935714Y-170735771D02*
X215888095Y-170831009D01*
X215888095Y-170831009D02*
X215888095Y-171354819D01*
X215269047Y-171354819D02*
X215364285Y-171307200D01*
X215364285Y-171307200D02*
X215411904Y-171259580D01*
X215411904Y-171259580D02*
X215459523Y-171164342D01*
X215459523Y-171164342D02*
X215459523Y-170878628D01*
X215459523Y-170878628D02*
X215411904Y-170783390D01*
X215411904Y-170783390D02*
X215364285Y-170735771D01*
X215364285Y-170735771D02*
X215269047Y-170688152D01*
X215269047Y-170688152D02*
X215126190Y-170688152D01*
X215126190Y-170688152D02*
X215030952Y-170735771D01*
X215030952Y-170735771D02*
X214983333Y-170783390D01*
X214983333Y-170783390D02*
X214935714Y-170878628D01*
X214935714Y-170878628D02*
X214935714Y-171164342D01*
X214935714Y-171164342D02*
X214983333Y-171259580D01*
X214983333Y-171259580D02*
X215030952Y-171307200D01*
X215030952Y-171307200D02*
X215126190Y-171354819D01*
X215126190Y-171354819D02*
X215269047Y-171354819D01*
X214078571Y-170688152D02*
X214078571Y-171354819D01*
X214507142Y-170688152D02*
X214507142Y-171211961D01*
X214507142Y-171211961D02*
X214459523Y-171307200D01*
X214459523Y-171307200D02*
X214364285Y-171354819D01*
X214364285Y-171354819D02*
X214221428Y-171354819D01*
X214221428Y-171354819D02*
X214126190Y-171307200D01*
X214126190Y-171307200D02*
X214078571Y-171259580D01*
X213745237Y-170688152D02*
X213364285Y-170688152D01*
X213602380Y-170354819D02*
X213602380Y-171211961D01*
X213602380Y-171211961D02*
X213554761Y-171307200D01*
X213554761Y-171307200D02*
X213459523Y-171354819D01*
X213459523Y-171354819D02*
X213364285Y-171354819D01*
%TO.C,REF\u002A\u002A*%
D13*
X220261177Y-190726471D02*
X213288628Y-190726471D01*
X213288628Y-189008235D01*
X220261177Y-189008235D01*
X220261177Y-190726471D01*
G36*
X220261177Y-190726471D02*
G01*
X213288628Y-190726471D01*
X213288628Y-189008235D01*
X220261177Y-189008235D01*
X220261177Y-190726471D01*
G37*
X218219241Y-179750931D02*
X218220220Y-179776578D01*
X218232956Y-179819638D01*
X218269205Y-179856155D01*
X218339917Y-179899625D01*
X218401991Y-179939339D01*
X218496493Y-180015587D01*
X218582136Y-180101185D01*
X218647648Y-180184456D01*
X218681758Y-180253724D01*
X218690115Y-180280416D01*
X218705597Y-180298740D01*
X218710817Y-180304919D01*
X218753486Y-180315300D01*
X218832013Y-180317451D01*
X218966275Y-180317451D01*
X218966275Y-180541569D01*
X218650339Y-180541569D01*
X218620841Y-180893645D01*
X218616880Y-180941779D01*
X218607653Y-181062272D01*
X218601134Y-181160319D01*
X218597888Y-181226866D01*
X218598478Y-181252857D01*
X218607060Y-181245385D01*
X218646217Y-181206437D01*
X218713912Y-181137404D01*
X218806718Y-181041866D01*
X218921211Y-180923400D01*
X219053963Y-180785586D01*
X219201550Y-180632002D01*
X219360546Y-180466226D01*
X219527525Y-180291838D01*
X219699061Y-180112415D01*
X219871729Y-179931537D01*
X220042103Y-179752782D01*
X220206757Y-179579729D01*
X220362266Y-179415956D01*
X220505204Y-179265041D01*
X220632145Y-179130564D01*
X220739664Y-179016103D01*
X220931779Y-178810882D01*
X220933529Y-179160520D01*
X218554931Y-181662026D01*
X218531157Y-181947099D01*
X218436037Y-183087729D01*
X218419225Y-183290036D01*
X218398365Y-183543172D01*
X218379113Y-183779146D01*
X218361836Y-183993320D01*
X218346904Y-184181058D01*
X218334685Y-184337720D01*
X218325546Y-184458669D01*
X218319856Y-184539266D01*
X218317983Y-184574873D01*
X218322927Y-184591189D01*
X218345148Y-184626420D01*
X218387292Y-184679519D01*
X218407630Y-184702727D01*
X218451601Y-184752903D01*
X218540320Y-184848991D01*
X218655692Y-184970204D01*
X218799962Y-185118960D01*
X218975372Y-185297678D01*
X219184167Y-185508777D01*
X219321523Y-185647301D01*
X219513001Y-185840518D01*
X219703806Y-186033176D01*
X219888204Y-186219478D01*
X220060459Y-186393625D01*
X220214833Y-186549820D01*
X220345592Y-186682266D01*
X220446999Y-186785164D01*
X220844488Y-187189089D01*
X220772291Y-187264447D01*
X220755264Y-187281425D01*
X220705032Y-187323118D01*
X220670571Y-187339804D01*
X220643592Y-187325559D01*
X220593432Y-187282811D01*
X220533298Y-187221520D01*
X220496696Y-187182807D01*
X220428434Y-187112115D01*
X220331958Y-187012962D01*
X220210674Y-186888824D01*
X220067989Y-186743180D01*
X219907310Y-186579506D01*
X219732043Y-186401281D01*
X219545595Y-186211981D01*
X219351374Y-186015085D01*
X218277200Y-184926934D01*
X218233444Y-185492144D01*
X218223906Y-185612782D01*
X218209976Y-185774947D01*
X218197413Y-185897774D01*
X218185284Y-185987720D01*
X218172659Y-186051239D01*
X218158607Y-186094789D01*
X218142197Y-186124825D01*
X218119229Y-186166805D01*
X218100331Y-186243980D01*
X218094706Y-186355168D01*
X218094706Y-186518039D01*
X217646471Y-186518039D01*
X217646471Y-186169412D01*
X215971867Y-186169412D01*
X215875068Y-186279381D01*
X215848596Y-186308017D01*
X215705121Y-186423061D01*
X215543014Y-186493886D01*
X215367488Y-186518039D01*
X215212605Y-186505234D01*
X215037422Y-186451250D01*
X214887454Y-186354766D01*
X214858226Y-186327191D01*
X214785181Y-186237924D01*
X214721094Y-186133934D01*
X214675137Y-186031433D01*
X214656485Y-185946630D01*
X214656125Y-185934320D01*
X214653442Y-185889212D01*
X214646427Y-185858054D01*
X214631752Y-185843311D01*
X214606089Y-185847446D01*
X214566108Y-185872922D01*
X214508483Y-185922203D01*
X214429884Y-185997752D01*
X214326983Y-186102033D01*
X214196451Y-186237509D01*
X214034960Y-186406644D01*
X213948941Y-186496927D01*
X213805157Y-186648089D01*
X213669121Y-186791403D01*
X213546167Y-186921235D01*
X213441624Y-187031953D01*
X213360824Y-187117926D01*
X213309098Y-187173521D01*
X213167706Y-187327353D01*
X213080316Y-187240196D01*
X212992925Y-187153039D01*
X214073875Y-186020000D01*
X214142032Y-185948510D01*
X214384512Y-185693204D01*
X214592662Y-185472355D01*
X214767105Y-185285276D01*
X214908465Y-185131283D01*
X215008421Y-185019677D01*
X215417685Y-185019677D01*
X215420903Y-185045937D01*
X215421465Y-185048680D01*
X215448284Y-185110883D01*
X215501854Y-185139866D01*
X215666981Y-185201654D01*
X215814101Y-185304585D01*
X215929812Y-185440742D01*
X216009116Y-185604173D01*
X216047012Y-185788925D01*
X216059564Y-185945294D01*
X217939895Y-185945294D01*
X217953005Y-185889265D01*
X217955324Y-185875515D01*
X217962530Y-185814027D01*
X217972364Y-185714611D01*
X217984095Y-185585185D01*
X217996991Y-185433668D01*
X218010323Y-185267981D01*
X218054531Y-184702727D01*
X217458636Y-184097589D01*
X217349337Y-183986962D01*
X217215608Y-183852660D01*
X217095636Y-183733351D01*
X216993630Y-183633162D01*
X216913799Y-183556219D01*
X216860352Y-183506650D01*
X216837497Y-183488580D01*
X216822172Y-183497214D01*
X216776527Y-183536496D01*
X216707834Y-183602115D01*
X216622238Y-183688153D01*
X216525882Y-183788692D01*
X216500747Y-183815355D01*
X216388042Y-183934623D01*
X216253741Y-184076397D01*
X216107957Y-184230021D01*
X215960800Y-184384837D01*
X215822383Y-184530186D01*
X215814068Y-184538907D01*
X215685380Y-184674319D01*
X215587184Y-184779174D01*
X215515597Y-184858461D01*
X215466736Y-184917166D01*
X215436719Y-184960279D01*
X215421663Y-184992787D01*
X215417685Y-185019677D01*
X215008421Y-185019677D01*
X215017365Y-185009691D01*
X215094430Y-184919815D01*
X215140284Y-184860970D01*
X215155550Y-184832471D01*
X215155551Y-184832302D01*
X215153458Y-184796784D01*
X215147341Y-184717168D01*
X215137679Y-184598870D01*
X215124953Y-184447312D01*
X215109641Y-184267911D01*
X215092222Y-184066086D01*
X215073177Y-183847256D01*
X215052983Y-183616840D01*
X215032120Y-183380257D01*
X215011068Y-183142926D01*
X214990306Y-182910265D01*
X214970313Y-182687693D01*
X214951568Y-182480630D01*
X214934550Y-182294494D01*
X214919739Y-182134704D01*
X214907614Y-182006679D01*
X214898655Y-181915837D01*
X214893339Y-181867598D01*
X214882622Y-181786801D01*
X215138461Y-181786801D01*
X215141739Y-181848037D01*
X215148950Y-181951018D01*
X215159735Y-182091297D01*
X215173732Y-182264432D01*
X215190579Y-182465976D01*
X215209917Y-182691484D01*
X215231384Y-182936512D01*
X215254619Y-183196615D01*
X215272783Y-183397210D01*
X215295533Y-183645981D01*
X215316833Y-183876175D01*
X215336259Y-184083359D01*
X215353389Y-184263100D01*
X215367798Y-184410964D01*
X215379065Y-184522519D01*
X215386764Y-184593332D01*
X215390473Y-184618970D01*
X215401724Y-184611027D01*
X215442981Y-184572038D01*
X215510021Y-184505068D01*
X215598228Y-184414990D01*
X215702987Y-184306680D01*
X215819682Y-184185013D01*
X215943700Y-184054863D01*
X216070424Y-183921104D01*
X216195240Y-183788612D01*
X216313532Y-183662261D01*
X216420686Y-183546926D01*
X216512086Y-183447481D01*
X216583117Y-183368801D01*
X216629164Y-183315761D01*
X216642618Y-183297337D01*
X217002699Y-183297337D01*
X217548703Y-183842917D01*
X217682221Y-183976110D01*
X217808058Y-184100751D01*
X217905538Y-184195688D01*
X217978231Y-184263999D01*
X218029710Y-184308767D01*
X218063546Y-184333070D01*
X218083311Y-184339991D01*
X218092577Y-184332608D01*
X218094916Y-184314004D01*
X218096415Y-184284111D01*
X218101817Y-184207139D01*
X218110743Y-184090320D01*
X218122765Y-183938975D01*
X218137454Y-183758428D01*
X218154379Y-183554000D01*
X218173113Y-183331016D01*
X218193225Y-183094797D01*
X218210981Y-182886604D01*
X218229483Y-182667322D01*
X218246072Y-182468219D01*
X218260352Y-182294200D01*
X218271922Y-182150171D01*
X218280386Y-182041041D01*
X218285344Y-181971714D01*
X218286398Y-181947099D01*
X218285563Y-181947562D01*
X218262046Y-181970222D01*
X218209806Y-182023392D01*
X218133442Y-182102250D01*
X218037558Y-182201972D01*
X217926755Y-182317737D01*
X217805633Y-182444720D01*
X217678794Y-182578100D01*
X217550840Y-182713054D01*
X217426372Y-182844759D01*
X217309992Y-182968393D01*
X217206301Y-183079132D01*
X217006526Y-183293235D01*
X217002699Y-183297337D01*
X216642618Y-183297337D01*
X216645613Y-183293235D01*
X216629489Y-183271406D01*
X216582612Y-183219154D01*
X216509338Y-183140984D01*
X216414026Y-183041300D01*
X216301038Y-182924508D01*
X216174735Y-182795016D01*
X216039478Y-182657230D01*
X215899629Y-182515554D01*
X215759548Y-182374396D01*
X215623597Y-182238162D01*
X215496136Y-182111258D01*
X215381528Y-181998090D01*
X215284132Y-181903064D01*
X215208311Y-181830587D01*
X215158426Y-181785064D01*
X215138836Y-181770902D01*
X215138461Y-181786801D01*
X214882622Y-181786801D01*
X214879301Y-181761765D01*
X214334510Y-181761765D01*
X214334199Y-181562549D01*
X214533726Y-181562549D01*
X214695588Y-181562549D01*
X214709988Y-181562536D01*
X214791293Y-181560801D01*
X214835509Y-181553383D01*
X214853831Y-181536358D01*
X214857451Y-181505800D01*
X214841507Y-181460883D01*
X214786895Y-181386161D01*
X214695588Y-181288628D01*
X214533726Y-181128204D01*
X214533726Y-181562549D01*
X214334199Y-181562549D01*
X214333206Y-180927549D01*
X213438614Y-180018628D01*
X212544022Y-179109706D01*
X212542795Y-178937248D01*
X212541569Y-178764791D01*
X213614581Y-179852395D01*
X213718291Y-179957446D01*
X213933492Y-180174842D01*
X214117482Y-180359696D01*
X214272639Y-180514283D01*
X214401340Y-180640878D01*
X214505962Y-180741755D01*
X214588882Y-180819189D01*
X214652478Y-180875456D01*
X214699126Y-180912831D01*
X214731204Y-180933587D01*
X214751089Y-180940000D01*
X214784617Y-180938058D01*
X214803440Y-180923874D01*
X214806686Y-180885069D01*
X214798881Y-180809265D01*
X214793500Y-180761539D01*
X214786013Y-180681768D01*
X214782996Y-180628726D01*
X214781519Y-180610441D01*
X214767124Y-180590857D01*
X214727362Y-180584367D01*
X214650168Y-180587200D01*
X214630459Y-180588310D01*
X214551562Y-180587058D01*
X214495442Y-180569722D01*
X214455886Y-180541569D01*
X215016863Y-180541569D01*
X215025104Y-180634951D01*
X215028911Y-180677320D01*
X215040772Y-180792997D01*
X215052459Y-180869186D01*
X215066125Y-180913805D01*
X215083920Y-180934771D01*
X215107996Y-180940000D01*
X215129644Y-180943562D01*
X215144000Y-180960579D01*
X215152021Y-181000137D01*
X215155512Y-181071323D01*
X215156275Y-181183219D01*
X215156275Y-181426438D01*
X215235884Y-181505800D01*
X215430196Y-181699510D01*
X215704118Y-181972582D01*
X215704118Y-181761765D01*
X217198235Y-181761765D01*
X217198235Y-182234902D01*
X215973350Y-182234902D01*
X216388760Y-182664461D01*
X216468328Y-182746504D01*
X216578355Y-182859121D01*
X216673894Y-182955926D01*
X216749942Y-183031893D01*
X216801496Y-183081996D01*
X216823552Y-183101208D01*
X216831935Y-183095910D01*
X216871246Y-183060294D01*
X216939030Y-182994343D01*
X217031665Y-182901722D01*
X217145531Y-182786093D01*
X217277006Y-182651118D01*
X217422470Y-182500461D01*
X217578300Y-182337783D01*
X217734930Y-182173397D01*
X217888471Y-182011386D01*
X218012987Y-181878595D01*
X218111523Y-181771503D01*
X218187126Y-181686589D01*
X218242841Y-181620332D01*
X218281713Y-181569214D01*
X218306788Y-181529712D01*
X218321111Y-181498307D01*
X218327728Y-181471477D01*
X218329482Y-181458409D01*
X218337261Y-181386399D01*
X218347106Y-181280387D01*
X218357934Y-181152460D01*
X218368662Y-181014706D01*
X218372299Y-180966728D01*
X218382809Y-180837097D01*
X218392830Y-180725283D01*
X218401375Y-180641909D01*
X218407456Y-180597598D01*
X218419380Y-180541569D01*
X215016863Y-180541569D01*
X214455886Y-180541569D01*
X214440130Y-180530355D01*
X214430604Y-180522068D01*
X214352699Y-180421707D01*
X214321846Y-180317451D01*
X214996755Y-180317451D01*
X217798064Y-180317451D01*
X218219216Y-180317451D01*
X218332151Y-180317451D01*
X218365986Y-180317212D01*
X218416120Y-180312855D01*
X218430593Y-180298740D01*
X218419358Y-180269379D01*
X218416038Y-180263781D01*
X218378769Y-180220732D01*
X218324774Y-180172957D01*
X218270914Y-180134208D01*
X218234048Y-180118235D01*
X218230733Y-180120760D01*
X218222508Y-180155443D01*
X218219216Y-180217843D01*
X218219216Y-180317451D01*
X217798064Y-180317451D01*
X217790748Y-180137854D01*
X217783431Y-179958257D01*
X217634020Y-179928245D01*
X217559091Y-179914633D01*
X217433963Y-179895574D01*
X217316520Y-179881197D01*
X217148431Y-179864161D01*
X217148431Y-180068431D01*
X216002941Y-180068431D01*
X216002941Y-179888379D01*
X215859755Y-179905470D01*
X215640977Y-179942100D01*
X215420793Y-180008330D01*
X215238664Y-180100681D01*
X215091504Y-180220419D01*
X214996755Y-180317451D01*
X214321846Y-180317451D01*
X214318418Y-180305869D01*
X214328919Y-180184354D01*
X214385361Y-180066961D01*
X214390824Y-180059651D01*
X214466254Y-179996763D01*
X214564588Y-179959564D01*
X214670591Y-179949669D01*
X214769028Y-179968695D01*
X214844664Y-180018256D01*
X214870272Y-180043557D01*
X214895220Y-180049690D01*
X214930944Y-180030720D01*
X214991269Y-179983358D01*
X215009777Y-179968801D01*
X215152676Y-179876927D01*
X215168654Y-179869216D01*
X216202157Y-179869216D01*
X216949216Y-179869216D01*
X216949216Y-179744706D01*
X216202157Y-179744706D01*
X216202157Y-179869216D01*
X215168654Y-179869216D01*
X215321968Y-179795224D01*
X215501891Y-179729579D01*
X215676680Y-179685876D01*
X215830574Y-179670000D01*
X215846924Y-179669874D01*
X215937799Y-179661027D01*
X215987705Y-179636221D01*
X216002941Y-179592630D01*
X216004731Y-179578897D01*
X216014512Y-179567085D01*
X216038269Y-179558439D01*
X216081974Y-179552467D01*
X216151596Y-179548677D01*
X216253108Y-179546579D01*
X216392481Y-179545681D01*
X216575686Y-179545490D01*
X216747346Y-179545826D01*
X216893246Y-179547181D01*
X217000055Y-179549915D01*
X217073374Y-179554381D01*
X217118808Y-179560933D01*
X217141959Y-179569926D01*
X217148431Y-179581715D01*
X217169718Y-179610660D01*
X217229363Y-179629132D01*
X217252192Y-179632363D01*
X217330030Y-179643739D01*
X217433608Y-179659159D01*
X217546863Y-179676240D01*
X217609323Y-179684935D01*
X217700733Y-179694352D01*
X217765230Y-179696624D01*
X217791732Y-179691078D01*
X217796257Y-179687465D01*
X217838037Y-179678543D01*
X217913193Y-179672331D01*
X218009624Y-179670000D01*
X218219216Y-179670000D01*
X218219240Y-179744706D01*
X218219241Y-179750931D01*
G36*
X218219241Y-179750931D02*
G01*
X218220220Y-179776578D01*
X218232956Y-179819638D01*
X218269205Y-179856155D01*
X218339917Y-179899625D01*
X218401991Y-179939339D01*
X218496493Y-180015587D01*
X218582136Y-180101185D01*
X218647648Y-180184456D01*
X218681758Y-180253724D01*
X218690115Y-180280416D01*
X218705597Y-180298740D01*
X218710817Y-180304919D01*
X218753486Y-180315300D01*
X218832013Y-180317451D01*
X218966275Y-180317451D01*
X218966275Y-180541569D01*
X218650339Y-180541569D01*
X218620841Y-180893645D01*
X218616880Y-180941779D01*
X218607653Y-181062272D01*
X218601134Y-181160319D01*
X218597888Y-181226866D01*
X218598478Y-181252857D01*
X218607060Y-181245385D01*
X218646217Y-181206437D01*
X218713912Y-181137404D01*
X218806718Y-181041866D01*
X218921211Y-180923400D01*
X219053963Y-180785586D01*
X219201550Y-180632002D01*
X219360546Y-180466226D01*
X219527525Y-180291838D01*
X219699061Y-180112415D01*
X219871729Y-179931537D01*
X220042103Y-179752782D01*
X220206757Y-179579729D01*
X220362266Y-179415956D01*
X220505204Y-179265041D01*
X220632145Y-179130564D01*
X220739664Y-179016103D01*
X220931779Y-178810882D01*
X220933529Y-179160520D01*
X218554931Y-181662026D01*
X218531157Y-181947099D01*
X218436037Y-183087729D01*
X218419225Y-183290036D01*
X218398365Y-183543172D01*
X218379113Y-183779146D01*
X218361836Y-183993320D01*
X218346904Y-184181058D01*
X218334685Y-184337720D01*
X218325546Y-184458669D01*
X218319856Y-184539266D01*
X218317983Y-184574873D01*
X218322927Y-184591189D01*
X218345148Y-184626420D01*
X218387292Y-184679519D01*
X218407630Y-184702727D01*
X218451601Y-184752903D01*
X218540320Y-184848991D01*
X218655692Y-184970204D01*
X218799962Y-185118960D01*
X218975372Y-185297678D01*
X219184167Y-185508777D01*
X219321523Y-185647301D01*
X219513001Y-185840518D01*
X219703806Y-186033176D01*
X219888204Y-186219478D01*
X220060459Y-186393625D01*
X220214833Y-186549820D01*
X220345592Y-186682266D01*
X220446999Y-186785164D01*
X220844488Y-187189089D01*
X220772291Y-187264447D01*
X220755264Y-187281425D01*
X220705032Y-187323118D01*
X220670571Y-187339804D01*
X220643592Y-187325559D01*
X220593432Y-187282811D01*
X220533298Y-187221520D01*
X220496696Y-187182807D01*
X220428434Y-187112115D01*
X220331958Y-187012962D01*
X220210674Y-186888824D01*
X220067989Y-186743180D01*
X219907310Y-186579506D01*
X219732043Y-186401281D01*
X219545595Y-186211981D01*
X219351374Y-186015085D01*
X218277200Y-184926934D01*
X218233444Y-185492144D01*
X218223906Y-185612782D01*
X218209976Y-185774947D01*
X218197413Y-185897774D01*
X218185284Y-185987720D01*
X218172659Y-186051239D01*
X218158607Y-186094789D01*
X218142197Y-186124825D01*
X218119229Y-186166805D01*
X218100331Y-186243980D01*
X218094706Y-186355168D01*
X218094706Y-186518039D01*
X217646471Y-186518039D01*
X217646471Y-186169412D01*
X215971867Y-186169412D01*
X215875068Y-186279381D01*
X215848596Y-186308017D01*
X215705121Y-186423061D01*
X215543014Y-186493886D01*
X215367488Y-186518039D01*
X215212605Y-186505234D01*
X215037422Y-186451250D01*
X214887454Y-186354766D01*
X214858226Y-186327191D01*
X214785181Y-186237924D01*
X214721094Y-186133934D01*
X214675137Y-186031433D01*
X214656485Y-185946630D01*
X214656125Y-185934320D01*
X214653442Y-185889212D01*
X214646427Y-185858054D01*
X214631752Y-185843311D01*
X214606089Y-185847446D01*
X214566108Y-185872922D01*
X214508483Y-185922203D01*
X214429884Y-185997752D01*
X214326983Y-186102033D01*
X214196451Y-186237509D01*
X214034960Y-186406644D01*
X213948941Y-186496927D01*
X213805157Y-186648089D01*
X213669121Y-186791403D01*
X213546167Y-186921235D01*
X213441624Y-187031953D01*
X213360824Y-187117926D01*
X213309098Y-187173521D01*
X213167706Y-187327353D01*
X213080316Y-187240196D01*
X212992925Y-187153039D01*
X214073875Y-186020000D01*
X214142032Y-185948510D01*
X214384512Y-185693204D01*
X214592662Y-185472355D01*
X214767105Y-185285276D01*
X214908465Y-185131283D01*
X215008421Y-185019677D01*
X215417685Y-185019677D01*
X215420903Y-185045937D01*
X215421465Y-185048680D01*
X215448284Y-185110883D01*
X215501854Y-185139866D01*
X215666981Y-185201654D01*
X215814101Y-185304585D01*
X215929812Y-185440742D01*
X216009116Y-185604173D01*
X216047012Y-185788925D01*
X216059564Y-185945294D01*
X217939895Y-185945294D01*
X217953005Y-185889265D01*
X217955324Y-185875515D01*
X217962530Y-185814027D01*
X217972364Y-185714611D01*
X217984095Y-185585185D01*
X217996991Y-185433668D01*
X218010323Y-185267981D01*
X218054531Y-184702727D01*
X217458636Y-184097589D01*
X217349337Y-183986962D01*
X217215608Y-183852660D01*
X217095636Y-183733351D01*
X216993630Y-183633162D01*
X216913799Y-183556219D01*
X216860352Y-183506650D01*
X216837497Y-183488580D01*
X216822172Y-183497214D01*
X216776527Y-183536496D01*
X216707834Y-183602115D01*
X216622238Y-183688153D01*
X216525882Y-183788692D01*
X216500747Y-183815355D01*
X216388042Y-183934623D01*
X216253741Y-184076397D01*
X216107957Y-184230021D01*
X215960800Y-184384837D01*
X215822383Y-184530186D01*
X215814068Y-184538907D01*
X215685380Y-184674319D01*
X215587184Y-184779174D01*
X215515597Y-184858461D01*
X215466736Y-184917166D01*
X215436719Y-184960279D01*
X215421663Y-184992787D01*
X215417685Y-185019677D01*
X215008421Y-185019677D01*
X215017365Y-185009691D01*
X215094430Y-184919815D01*
X215140284Y-184860970D01*
X215155550Y-184832471D01*
X215155551Y-184832302D01*
X215153458Y-184796784D01*
X215147341Y-184717168D01*
X215137679Y-184598870D01*
X215124953Y-184447312D01*
X215109641Y-184267911D01*
X215092222Y-184066086D01*
X215073177Y-183847256D01*
X215052983Y-183616840D01*
X215032120Y-183380257D01*
X215011068Y-183142926D01*
X214990306Y-182910265D01*
X214970313Y-182687693D01*
X214951568Y-182480630D01*
X214934550Y-182294494D01*
X214919739Y-182134704D01*
X214907614Y-182006679D01*
X214898655Y-181915837D01*
X214893339Y-181867598D01*
X214882622Y-181786801D01*
X215138461Y-181786801D01*
X215141739Y-181848037D01*
X215148950Y-181951018D01*
X215159735Y-182091297D01*
X215173732Y-182264432D01*
X215190579Y-182465976D01*
X215209917Y-182691484D01*
X215231384Y-182936512D01*
X215254619Y-183196615D01*
X215272783Y-183397210D01*
X215295533Y-183645981D01*
X215316833Y-183876175D01*
X215336259Y-184083359D01*
X215353389Y-184263100D01*
X215367798Y-184410964D01*
X215379065Y-184522519D01*
X215386764Y-184593332D01*
X215390473Y-184618970D01*
X215401724Y-184611027D01*
X215442981Y-184572038D01*
X215510021Y-184505068D01*
X215598228Y-184414990D01*
X215702987Y-184306680D01*
X215819682Y-184185013D01*
X215943700Y-184054863D01*
X216070424Y-183921104D01*
X216195240Y-183788612D01*
X216313532Y-183662261D01*
X216420686Y-183546926D01*
X216512086Y-183447481D01*
X216583117Y-183368801D01*
X216629164Y-183315761D01*
X216642618Y-183297337D01*
X217002699Y-183297337D01*
X217548703Y-183842917D01*
X217682221Y-183976110D01*
X217808058Y-184100751D01*
X217905538Y-184195688D01*
X217978231Y-184263999D01*
X218029710Y-184308767D01*
X218063546Y-184333070D01*
X218083311Y-184339991D01*
X218092577Y-184332608D01*
X218094916Y-184314004D01*
X218096415Y-184284111D01*
X218101817Y-184207139D01*
X218110743Y-184090320D01*
X218122765Y-183938975D01*
X218137454Y-183758428D01*
X218154379Y-183554000D01*
X218173113Y-183331016D01*
X218193225Y-183094797D01*
X218210981Y-182886604D01*
X218229483Y-182667322D01*
X218246072Y-182468219D01*
X218260352Y-182294200D01*
X218271922Y-182150171D01*
X218280386Y-182041041D01*
X218285344Y-181971714D01*
X218286398Y-181947099D01*
X218285563Y-181947562D01*
X218262046Y-181970222D01*
X218209806Y-182023392D01*
X218133442Y-182102250D01*
X218037558Y-182201972D01*
X217926755Y-182317737D01*
X217805633Y-182444720D01*
X217678794Y-182578100D01*
X217550840Y-182713054D01*
X217426372Y-182844759D01*
X217309992Y-182968393D01*
X217206301Y-183079132D01*
X217006526Y-183293235D01*
X217002699Y-183297337D01*
X216642618Y-183297337D01*
X216645613Y-183293235D01*
X216629489Y-183271406D01*
X216582612Y-183219154D01*
X216509338Y-183140984D01*
X216414026Y-183041300D01*
X216301038Y-182924508D01*
X216174735Y-182795016D01*
X216039478Y-182657230D01*
X215899629Y-182515554D01*
X215759548Y-182374396D01*
X215623597Y-182238162D01*
X215496136Y-182111258D01*
X215381528Y-181998090D01*
X215284132Y-181903064D01*
X215208311Y-181830587D01*
X215158426Y-181785064D01*
X215138836Y-181770902D01*
X215138461Y-181786801D01*
X214882622Y-181786801D01*
X214879301Y-181761765D01*
X214334510Y-181761765D01*
X214334199Y-181562549D01*
X214533726Y-181562549D01*
X214695588Y-181562549D01*
X214709988Y-181562536D01*
X214791293Y-181560801D01*
X214835509Y-181553383D01*
X214853831Y-181536358D01*
X214857451Y-181505800D01*
X214841507Y-181460883D01*
X214786895Y-181386161D01*
X214695588Y-181288628D01*
X214533726Y-181128204D01*
X214533726Y-181562549D01*
X214334199Y-181562549D01*
X214333206Y-180927549D01*
X213438614Y-180018628D01*
X212544022Y-179109706D01*
X212542795Y-178937248D01*
X212541569Y-178764791D01*
X213614581Y-179852395D01*
X213718291Y-179957446D01*
X213933492Y-180174842D01*
X214117482Y-180359696D01*
X214272639Y-180514283D01*
X214401340Y-180640878D01*
X214505962Y-180741755D01*
X214588882Y-180819189D01*
X214652478Y-180875456D01*
X214699126Y-180912831D01*
X214731204Y-180933587D01*
X214751089Y-180940000D01*
X214784617Y-180938058D01*
X214803440Y-180923874D01*
X214806686Y-180885069D01*
X214798881Y-180809265D01*
X214793500Y-180761539D01*
X214786013Y-180681768D01*
X214782996Y-180628726D01*
X214781519Y-180610441D01*
X214767124Y-180590857D01*
X214727362Y-180584367D01*
X214650168Y-180587200D01*
X214630459Y-180588310D01*
X214551562Y-180587058D01*
X214495442Y-180569722D01*
X214455886Y-180541569D01*
X215016863Y-180541569D01*
X215025104Y-180634951D01*
X215028911Y-180677320D01*
X215040772Y-180792997D01*
X215052459Y-180869186D01*
X215066125Y-180913805D01*
X215083920Y-180934771D01*
X215107996Y-180940000D01*
X215129644Y-180943562D01*
X215144000Y-180960579D01*
X215152021Y-181000137D01*
X215155512Y-181071323D01*
X215156275Y-181183219D01*
X215156275Y-181426438D01*
X215235884Y-181505800D01*
X215430196Y-181699510D01*
X215704118Y-181972582D01*
X215704118Y-181761765D01*
X217198235Y-181761765D01*
X217198235Y-182234902D01*
X215973350Y-182234902D01*
X216388760Y-182664461D01*
X216468328Y-182746504D01*
X216578355Y-182859121D01*
X216673894Y-182955926D01*
X216749942Y-183031893D01*
X216801496Y-183081996D01*
X216823552Y-183101208D01*
X216831935Y-183095910D01*
X216871246Y-183060294D01*
X216939030Y-182994343D01*
X217031665Y-182901722D01*
X217145531Y-182786093D01*
X217277006Y-182651118D01*
X217422470Y-182500461D01*
X217578300Y-182337783D01*
X217734930Y-182173397D01*
X217888471Y-182011386D01*
X218012987Y-181878595D01*
X218111523Y-181771503D01*
X218187126Y-181686589D01*
X218242841Y-181620332D01*
X218281713Y-181569214D01*
X218306788Y-181529712D01*
X218321111Y-181498307D01*
X218327728Y-181471477D01*
X218329482Y-181458409D01*
X218337261Y-181386399D01*
X218347106Y-181280387D01*
X218357934Y-181152460D01*
X218368662Y-181014706D01*
X218372299Y-180966728D01*
X218382809Y-180837097D01*
X218392830Y-180725283D01*
X218401375Y-180641909D01*
X218407456Y-180597598D01*
X218419380Y-180541569D01*
X215016863Y-180541569D01*
X214455886Y-180541569D01*
X214440130Y-180530355D01*
X214430604Y-180522068D01*
X214352699Y-180421707D01*
X214321846Y-180317451D01*
X214996755Y-180317451D01*
X217798064Y-180317451D01*
X218219216Y-180317451D01*
X218332151Y-180317451D01*
X218365986Y-180317212D01*
X218416120Y-180312855D01*
X218430593Y-180298740D01*
X218419358Y-180269379D01*
X218416038Y-180263781D01*
X218378769Y-180220732D01*
X218324774Y-180172957D01*
X218270914Y-180134208D01*
X218234048Y-180118235D01*
X218230733Y-180120760D01*
X218222508Y-180155443D01*
X218219216Y-180217843D01*
X218219216Y-180317451D01*
X217798064Y-180317451D01*
X217790748Y-180137854D01*
X217783431Y-179958257D01*
X217634020Y-179928245D01*
X217559091Y-179914633D01*
X217433963Y-179895574D01*
X217316520Y-179881197D01*
X217148431Y-179864161D01*
X217148431Y-180068431D01*
X216002941Y-180068431D01*
X216002941Y-179888379D01*
X215859755Y-179905470D01*
X215640977Y-179942100D01*
X215420793Y-180008330D01*
X215238664Y-180100681D01*
X215091504Y-180220419D01*
X214996755Y-180317451D01*
X214321846Y-180317451D01*
X214318418Y-180305869D01*
X214328919Y-180184354D01*
X214385361Y-180066961D01*
X214390824Y-180059651D01*
X214466254Y-179996763D01*
X214564588Y-179959564D01*
X214670591Y-179949669D01*
X214769028Y-179968695D01*
X214844664Y-180018256D01*
X214870272Y-180043557D01*
X214895220Y-180049690D01*
X214930944Y-180030720D01*
X214991269Y-179983358D01*
X215009777Y-179968801D01*
X215152676Y-179876927D01*
X215168654Y-179869216D01*
X216202157Y-179869216D01*
X216949216Y-179869216D01*
X216949216Y-179744706D01*
X216202157Y-179744706D01*
X216202157Y-179869216D01*
X215168654Y-179869216D01*
X215321968Y-179795224D01*
X215501891Y-179729579D01*
X215676680Y-179685876D01*
X215830574Y-179670000D01*
X215846924Y-179669874D01*
X215937799Y-179661027D01*
X215987705Y-179636221D01*
X216002941Y-179592630D01*
X216004731Y-179578897D01*
X216014512Y-179567085D01*
X216038269Y-179558439D01*
X216081974Y-179552467D01*
X216151596Y-179548677D01*
X216253108Y-179546579D01*
X216392481Y-179545681D01*
X216575686Y-179545490D01*
X216747346Y-179545826D01*
X216893246Y-179547181D01*
X217000055Y-179549915D01*
X217073374Y-179554381D01*
X217118808Y-179560933D01*
X217141959Y-179569926D01*
X217148431Y-179581715D01*
X217169718Y-179610660D01*
X217229363Y-179629132D01*
X217252192Y-179632363D01*
X217330030Y-179643739D01*
X217433608Y-179659159D01*
X217546863Y-179676240D01*
X217609323Y-179684935D01*
X217700733Y-179694352D01*
X217765230Y-179696624D01*
X217791732Y-179691078D01*
X217796257Y-179687465D01*
X217838037Y-179678543D01*
X217913193Y-179672331D01*
X218009624Y-179670000D01*
X218219216Y-179670000D01*
X218219240Y-179744706D01*
X218219241Y-179750931D01*
G37*
D14*
%TO.C,J3*%
X275230000Y-183430000D02*
X272570000Y-183430000D01*
X275230000Y-165590000D02*
X275230000Y-183430000D01*
X275230000Y-165590000D02*
X272570000Y-165590000D01*
X275230000Y-164320000D02*
X275230000Y-162990000D01*
X275230000Y-162990000D02*
X273900000Y-162990000D01*
X272570000Y-165590000D02*
X272570000Y-183430000D01*
D15*
%TO.C,S3*%
X231200000Y-108850000D02*
X231200000Y-111050000D01*
X231200000Y-106100000D02*
X231200000Y-106450000D01*
X229400000Y-106100000D02*
X231200000Y-106100000D01*
X229400000Y-104200000D02*
X229400000Y-106100000D01*
X225900000Y-106100000D02*
X225900000Y-104200000D01*
X225900000Y-104200000D02*
X229400000Y-104200000D01*
X224650000Y-112700000D02*
X230650000Y-112700000D01*
X224100000Y-108850000D02*
X224100000Y-111050000D01*
X224100000Y-106450000D02*
X224100000Y-106100000D01*
X224100000Y-106100000D02*
X225900000Y-106100000D01*
X223250000Y-109850000D02*
X223250000Y-109850000D01*
X223050000Y-109850000D02*
X223050000Y-109850000D01*
X223050000Y-109850000D02*
G75*
G03*
X223250000Y-109850000I100000J0D01*
G01*
X223250000Y-109850000D02*
G75*
G03*
X223050000Y-109850000I-100000J0D01*
G01*
%TO.C,S1*%
X207700000Y-108850000D02*
X207700000Y-111050000D01*
X207700000Y-106100000D02*
X207700000Y-106450000D01*
X205900000Y-106100000D02*
X207700000Y-106100000D01*
X205900000Y-104200000D02*
X205900000Y-106100000D01*
X202400000Y-106100000D02*
X202400000Y-104200000D01*
X202400000Y-104200000D02*
X205900000Y-104200000D01*
X201150000Y-112700000D02*
X207150000Y-112700000D01*
X200600000Y-108850000D02*
X200600000Y-111050000D01*
X200600000Y-106450000D02*
X200600000Y-106100000D01*
X200600000Y-106100000D02*
X202400000Y-106100000D01*
X199750000Y-109850000D02*
X199750000Y-109850000D01*
X199550000Y-109850000D02*
X199550000Y-109850000D01*
X199550000Y-109850000D02*
G75*
G03*
X199750000Y-109850000I100000J0D01*
G01*
X199750000Y-109850000D02*
G75*
G03*
X199550000Y-109850000I-100000J0D01*
G01*
D14*
%TO.C,J6*%
X206870000Y-169730000D02*
X206870000Y-167070000D01*
X222170000Y-169730000D02*
X206870000Y-169730000D01*
X222170000Y-169730000D02*
X222170000Y-167070000D01*
X223440000Y-169730000D02*
X224770000Y-169730000D01*
X224770000Y-169730000D02*
X224770000Y-168400000D01*
X222170000Y-167070000D02*
X206870000Y-167070000D01*
%TD*%
M02*
