%TF.GenerationSoftware,KiCad,Pcbnew,7.0.7*%
%TF.CreationDate,2023-11-05T16:04:25+01:00*%
%TF.ProjectId,FC_Wheel_PCB-2.0,46435f57-6865-4656-9c5f-5043422d322e,rev?*%
%TF.SameCoordinates,Original*%
%TF.FileFunction,Profile,NP*%
%FSLAX46Y46*%
G04 Gerber Fmt 4.6, Leading zero omitted, Abs format (unit mm)*
G04 Created by KiCad (PCBNEW 7.0.7) date 2023-11-05 16:04:25*
%MOMM*%
%LPD*%
G01*
G04 APERTURE LIST*
%TA.AperFunction,Profile*%
%ADD10C,0.200000*%
%TD*%
G04 APERTURE END LIST*
D10*
X146764152Y-154860548D02*
X146764152Y-193022771D01*
X148764152Y-195022771D02*
X283035780Y-195022771D01*
X233899994Y-109730806D02*
G75*
G03*
X234900000Y-110730806I1000006J6D01*
G01*
X232900000Y-104730806D02*
X198900000Y-104730806D01*
X197900000Y-105730806D02*
X197900000Y-109730806D01*
X196900000Y-110730806D02*
X135508969Y-110730806D01*
X283035780Y-195022780D02*
G75*
G03*
X285035780Y-193022771I20J1999980D01*
G01*
X198900000Y-104730800D02*
G75*
G03*
X197900000Y-105730806I0J-1000000D01*
G01*
X233899994Y-105730806D02*
G75*
G03*
X232900000Y-104730806I-999994J6D01*
G01*
X299107104Y-114764976D02*
G75*
G03*
X296290963Y-110730806I-2816104J1034176D01*
G01*
X135508969Y-110730769D02*
G75*
G03*
X132692853Y-114764967I31J-3000031D01*
G01*
X146764166Y-154860548D02*
G75*
G03*
X146151207Y-151413348I-10000066J-52D01*
G01*
X285035780Y-193022771D02*
X285035780Y-154860548D01*
X146764229Y-193022771D02*
G75*
G03*
X148764152Y-195022771I1999971J-29D01*
G01*
X296290963Y-110730806D02*
X234900000Y-110730806D01*
X132692852Y-114764967D02*
X146151207Y-151413348D01*
X233900000Y-109730806D02*
X233900000Y-105730806D01*
X196900000Y-110730800D02*
G75*
G03*
X197900000Y-109730806I0J1000000D01*
G01*
X285648717Y-151413345D02*
G75*
G03*
X285035780Y-154860548I9387483J-3447255D01*
G01*
X285648725Y-151413348D02*
X299107080Y-114764967D01*
M02*
