%TF.GenerationSoftware,KiCad,Pcbnew,7.0.7*%
%TF.CreationDate,2023-11-05T16:04:25+01:00*%
%TF.ProjectId,FC_Wheel_PCB-2.0,46435f57-6865-4656-9c5f-5043422d322e,rev?*%
%TF.SameCoordinates,Original*%
%TF.FileFunction,Soldermask,Bot*%
%TF.FilePolarity,Negative*%
%FSLAX46Y46*%
G04 Gerber Fmt 4.6, Leading zero omitted, Abs format (unit mm)*
G04 Created by KiCad (PCBNEW 7.0.7) date 2023-11-05 16:04:25*
%MOMM*%
%LPD*%
G01*
G04 APERTURE LIST*
%ADD10R,2.200000X2.200000*%
%ADD11C,2.250000*%
%ADD12C,2.200000*%
%ADD13O,2.200000X2.200000*%
%ADD14C,2.340000*%
%ADD15R,2.000000X2.000000*%
%ADD16C,2.000000*%
%ADD17R,1.700000X1.700000*%
%ADD18O,1.700000X1.700000*%
%ADD19C,5.600000*%
%ADD20O,3.000000X5.000000*%
%ADD21C,0.650000*%
%ADD22O,1.000000X2.100000*%
%ADD23O,1.000000X1.600000*%
%ADD24C,1.980000*%
%ADD25C,5.325000*%
%ADD26C,3.585000*%
%ADD27O,3.500000X1.500000*%
%ADD28R,3.000000X2.500000*%
%ADD29R,1.800000X1.800000*%
%ADD30C,1.800000*%
%ADD31R,1.000000X1.900000*%
%ADD32R,1.500000X1.300000*%
%ADD33R,1.500000X0.600000*%
G04 APERTURE END LIST*
D10*
%TO.C,J7*%
X251404306Y-141836172D03*
D11*
X248864306Y-141836172D03*
D12*
X246324306Y-141836172D03*
D13*
X243784306Y-141836172D03*
X241244306Y-141836172D03*
X238704306Y-141836172D03*
%TD*%
D14*
%TO.C,Volume1*%
X248900000Y-117200000D03*
X251400000Y-113400000D03*
X253900000Y-117200000D03*
%TD*%
D15*
%TO.C,BZ1*%
X165100000Y-152400000D03*
D16*
X172700000Y-152400000D03*
%TD*%
D17*
%TO.C,PADDLE2*%
X191400000Y-113125000D03*
D18*
X191400000Y-115665000D03*
%TD*%
D19*
%TO.C,REF\u002A\u002A*%
X295100000Y-114730000D03*
%TD*%
D20*
%TO.C,BTN1*%
X148465581Y-124663941D03*
X143385581Y-124663941D03*
%TD*%
%TO.C,BTN3*%
X283371152Y-124663081D03*
X288451152Y-124663081D03*
%TD*%
D15*
%TO.C,BZ2*%
X266700000Y-152400000D03*
D16*
X259100000Y-152400000D03*
%TD*%
D21*
%TO.C,J1*%
X218790000Y-111250000D03*
X213010000Y-111250000D03*
D22*
X220220000Y-111780000D03*
D23*
X220220000Y-107600000D03*
D22*
X211580000Y-111780000D03*
D23*
X211580000Y-107600000D03*
%TD*%
D19*
%TO.C,REF\u002A\u002A*%
X251900000Y-126150000D03*
%TD*%
D20*
%TO.C,BTN4*%
X278369449Y-139664752D03*
X283449449Y-139664752D03*
%TD*%
D17*
%TO.C,J2*%
X184600000Y-153580000D03*
D18*
X184600000Y-151040000D03*
X184600000Y-148500000D03*
X184600000Y-145960000D03*
X184600000Y-143420000D03*
X184600000Y-140880000D03*
X184600000Y-138340000D03*
X184600000Y-135800000D03*
%TD*%
D24*
%TO.C,BT1*%
X252020000Y-183400000D03*
X179800000Y-183400000D03*
D25*
X188620000Y-191270000D03*
D26*
X252020000Y-191270000D03*
D25*
X243820000Y-175530000D03*
%TD*%
D20*
%TO.C,BTN2*%
X148370544Y-139661928D03*
X153450544Y-139661928D03*
%TD*%
D19*
%TO.C,REF\u002A\u002A*%
X185400000Y-163150000D03*
%TD*%
D27*
%TO.C,SW3*%
X262900000Y-114400000D03*
X262900000Y-119400000D03*
%TD*%
D17*
%TO.C,PADDLE1*%
X240400000Y-113625000D03*
D18*
X240400000Y-116165000D03*
%TD*%
D19*
%TO.C,REF\u002A\u002A*%
X136700000Y-114730000D03*
%TD*%
D15*
%TO.C,SW10*%
X155650000Y-172900000D03*
D16*
X155650000Y-177900000D03*
X155650000Y-175400000D03*
D28*
X163150000Y-169800000D03*
X163150000Y-181000000D03*
D16*
X170150000Y-172900000D03*
X170150000Y-177900000D03*
%TD*%
D19*
%TO.C,REF\u002A\u002A*%
X281035000Y-191022700D03*
%TD*%
D29*
%TO.C,D1*%
X261360000Y-132400000D03*
D30*
X263900000Y-132400000D03*
%TD*%
D19*
%TO.C,REF\u002A\u002A*%
X251900000Y-163150000D03*
%TD*%
%TO.C,REF\u002A\u002A*%
X150765000Y-191022700D03*
%TD*%
%TO.C,REF\u002A\u002A*%
X185400000Y-126150000D03*
%TD*%
D17*
%TO.C,J5*%
X274400000Y-113875000D03*
D18*
X276940000Y-113875000D03*
X279480000Y-113875000D03*
%TD*%
D17*
%TO.C,J4*%
X143375000Y-113900000D03*
D18*
X145915000Y-113900000D03*
X148455000Y-113900000D03*
%TD*%
D17*
%TO.C,J3*%
X273900000Y-164320000D03*
D18*
X273900000Y-166860000D03*
X273900000Y-169400000D03*
X273900000Y-171940000D03*
X273900000Y-174480000D03*
X273900000Y-177020000D03*
X273900000Y-179560000D03*
X273900000Y-182100000D03*
%TD*%
D31*
%TO.C,S3*%
X225400000Y-109850000D03*
X229900000Y-109850000D03*
D32*
X223350000Y-107600000D03*
X223350000Y-112200000D03*
X231950000Y-112200000D03*
X231950000Y-107600000D03*
D33*
X227650000Y-106300000D03*
%TD*%
D31*
%TO.C,S1*%
X201900000Y-109850000D03*
X206400000Y-109850000D03*
D32*
X199850000Y-107600000D03*
X199850000Y-112200000D03*
X208450000Y-112200000D03*
X208450000Y-107600000D03*
D33*
X204150000Y-106300000D03*
%TD*%
D17*
%TO.C,J6*%
X223440000Y-168400000D03*
D18*
X220900000Y-168400000D03*
X218360000Y-168400000D03*
X215820000Y-168400000D03*
X213280000Y-168400000D03*
X210740000Y-168400000D03*
X208200000Y-168400000D03*
%TD*%
M02*
