0
SECTION
2
HEADER
9
$INSUNITS
70
4
9
$ACADVER
1
AC1014
9
$HANDSEED
5
FFFF
0
ENDSEC
0
SECTION
2
TABLES
0
TABLE
2
VPORT
5
8
100
AcDbSymbolTable
0
ENDTAB
0
TABLE
2
LTYPE
5
5
100
AcDbSymbolTable
0
LTYPE
5
14
100
AcDbSymbolTableRecord
100
AcDbLinetypeTableRecord
2
BYBLOCK
70
0
0
LTYPE
5
15
100
AcDbSymbolTableRecord
100
AcDbLinetypeTableRecord
2
BYLAYER
70
0
0
ENDTAB
0
TABLE
2
LAYER
5
2
100
AcDbSymbolTable
70
2
0
LAYER
5
50
100
AcDbSymbolTableRecord
100
AcDbLayerTableRecord
2
0
70
0
6
CONTINUOUS
0
ENDTAB
0
TABLE
2
STYLE
5
3
100
AcDbSymbolTable
70
1
0
STYLE
5
11
100
AcDbSymbolTableRecord
100
AcDbTextStyleTableRecord
2
STANDARD
70
0
0
ENDTAB
0
TABLE
2
VIEW
5
6
100
AcDbSymbolTable
70
0
0
ENDTAB
0
TABLE
2
UCS
5
7
100
AcDbSymbolTable
70
0
0
ENDTAB
0
TABLE
2
APPID
5
9
100
AcDbSymbolTable
70
2
0
APPID
5
12
100
AcDbSymbolTableRecord
100
AcDbRegAppTableRecord
2
ACAD
70
0
0
ENDTAB
0
TABLE
2
DIMSTYLE
5
A
100
AcDbSymbolTable
70
1
0
ENDTAB
0
TABLE
2
BLOCK_RECORD
5
1
100
AcDbSymbolTable
70
1
0
BLOCK_RECORD
5
1F
100
AcDbSymbolTableRecord
100
AcDbBlockTableRecord
2
*MODEL_SPACE
0
BLOCK_RECORD
5
1B
100
AcDbSymbolTableRecord
100
AcDbBlockTableRecord
2
*PAPER_SPACE
0
ENDTAB
0
ENDSEC
0
SECTION
2
BLOCKS
0
BLOCK
5
20
100
AcDbEntity
100
AcDbBlockBegin
2
*MODEL_SPACE
0
ENDBLK
5
21
100
AcDbEntity
100
AcDbBlockEnd
0
BLOCK
5
1C
100
AcDbEntity
100
AcDbBlockBegin
2
*PAPER_SPACE
0
ENDBLK
5
1D
100
AcDbEntity
100
AcDbBlockEnd
0
ENDSEC
0
SECTION
2
ENTITIES
0
LWPOLYLINE
5
100
100
AcDbEntity
8
0
100
AcDbPolyline
90
28
70
1
43
0.0
10
-19.000000000168495
20
85.864995085477531
42
0.41421356237309537
10
-21.000000000168491
20
83.864995085477545
10
-21.000000000168502
20
76.523252938696388
42
-0.41421356237309503
10
-23.000000000168505
20
74.523252938696388
10
-41.886438821354048
20
74.523252938696402
42
0.13773877087008915
10
-43.44812724741228
20
74.084723075144552
10
-53.052678629335823
20
68.228977768103675
42
0.13143724821471556
10
-54.122969586013298
20
67.107189724637919
10
-61.853566833001224
20
52.974366464916699
42
0.15694667622205466
10
-62.199225905189479
20
51.169076341718871
10
-57.386310605097293
20
11.971026809269461
42
0.37886610869531395
10
-52.897881294488009
20
8.0000000000000231
10
-26.600532825888283
20
8.0000000000000338
42
0.29944545547605778
10
-23.416924035500632
20
10.094437513581047
42
-0.65788155878473764
10
23.416924035500635
20
10.094437513581047
42
0.29944545547605811
10
26.600532825888283
20
8.0000000000000284
10
52.897881294488002
20
8.000000000000016
42
0.37886610869531412
10
57.386310605097307
20
11.971026809269457
10
62.199225905189479
20
51.169076341718863
42
0.15694667622205546
10
61.853566833001224
20
52.974366464916699
10
54.122969586013298
20
67.107189724637919
42
0.13143724821471583
10
53.052678629335823
20
68.22897776810369
10
43.44812724741228
20
74.084723075144552
42
0.13773877087008946
10
41.886438821354048
20
74.523252938696402
10
8.5
20
74.523252938696402
42
-0.41421356237309503
10
6.5000000000000018
20
76.523252938696402
10
6.5
20
83.864995085477545
42
0.41421356237309548
10
4.5
20
85.864995085477531
0
CIRCLE
5
101
100
AcDbEntity
8
0
100
AcDbCircle
10
-25
20
25.000000000000234
30
0
40
1.4999999999999991
210
0
220
0
230
1
0
CIRCLE
5
102
100
AcDbEntity
8
0
100
AcDbCircle
10
54.999999999999886
20
55.000000000000227
30
0
40
1.5000000000000036
210
0
220
0
230
1
0
CIRCLE
5
103
100
AcDbEntity
8
0
100
AcDbCircle
10
-54.999999999999886
20
55.000000000000227
30
0
40
1.5000000000000036
210
0
220
0
230
1
0
CIRCLE
5
104
100
AcDbEntity
8
0
100
AcDbCircle
10
25
20
25.000000000000234
30
0
40
1.4999999999999991
210
0
220
0
230
1
0
ENDSEC
0
SECTION
2
OBJECTS
0
DICTIONARY
5
C
100
AcDbDictionary
3
ACAD_GROUP
350
D
3
ACAD_MLINESTYLE
350
17
0
DICTIONARY
5
D
100
AcDbDictionary
0
DICTIONARY
5
1A
330
C
100
AcDbDictionary
0
DICTIONARY
5
17
100
AcDbDictionary
0
ENDSEC
0
EOF
