M48
; DRILL file {KiCad 7.0.7} date Sun Oct 22 15:44:34 2023
; FORMAT={-:-/ absolute / inch / decimal}
; #@! TF.CreationDate,2023-10-22T15:44:34+02:00
; #@! TF.GenerationSoftware,Kicad,Pcbnew,7.0.7
; #@! TF.FileFunction,Plated,1,2,PTH
FMAT,2
INCH
; #@! TA.AperFunction,Plated,PTH,ComponentDrill
T1C0.0079
; #@! TA.AperFunction,Plated,PTH,ViaDrill
T2C0.0157
; #@! TA.AperFunction,Plated,PTH,ComponentDrill
T3C0.0236
; #@! TA.AperFunction,Plated,PTH,ComponentDrill
T4C0.0315
; #@! TA.AperFunction,Plated,PTH,ComponentDrill
T5C0.0354
; #@! TA.AperFunction,Plated,PTH,ComponentDrill
T6C0.0394
%
G90
G05
T1
X7.976Y-7.1526
X7.976Y-7.2077
X8.0035Y-7.125
X8.0035Y-7.1802
X8.0035Y-7.2353
X8.0311Y-7.1526
X8.0311Y-7.2077
X8.0587Y-7.125
X8.0587Y-7.1802
X8.0587Y-7.2353
X8.0862Y-7.1526
X8.0862Y-7.2077
T2
X7.4661Y-7.2327
X7.4957Y-7.1539
X7.5254Y-5.5228
X7.5449Y-6.2976
X7.5646Y-5.8607
X7.6138Y-6.4551
X7.6203Y-5.6628
X7.6203Y-5.6928
X7.6203Y-5.7228
X7.6554Y-4.7028
X7.6754Y-4.8728
X7.6754Y-5.0828
X7.7284Y-5.5613
X7.7354Y-5.4328
X7.7551Y-5.5947
X7.7554Y-5.4128
X7.7754Y-5.3928
X7.8054Y-5.0828
X7.8446Y-5.5952
X7.8454Y-4.6828
X7.8684Y-5.5713
X7.9386Y-6.8783
X7.9834Y-5.7018
X7.9854Y-4.7128
X7.9878Y-6.8783
X8.0154Y-5.0828
X8.0354Y-4.8728
X8.0469Y-6.8587
X8.0567Y-6.0909
X8.0703Y-4.8882
X8.0961Y-5.8449
X8.1059Y-5.6677
X8.1254Y-4.8528
X8.1453Y-6.8685
X8.1454Y-4.8228
X8.1454Y-5.0828
X8.1454Y-5.4928
X8.1458Y-5.992
X8.165Y-7.4886
X8.1748Y-6.022
X8.1748Y-6.9276
X8.1758Y-6.2035
X8.1846Y-6.4748
X8.1945Y-6.337
X8.1954Y-5.1763
X8.2054Y-5.9029
X8.2142Y-5.963
X8.2142Y-6.9965
X8.2142Y-7.0457
X8.2142Y-7.0949
X8.232Y-5.2563
X8.2339Y-6.8587
X8.2339Y-7.3803
X8.2339Y-7.4394
X8.2519Y-6.2796
X8.2535Y-6.9276
X8.2639Y-6.1111
X8.2754Y-4.6828
X8.2785Y-5.4993
X8.3109Y-5.4528
X8.3224Y-6.0049
X8.3224Y-6.4846
X8.3323Y-5.5299
X8.352Y-6.7307
X8.3618Y-6.4748
X8.3743Y-6.4375
X8.3754Y-5.1128
X8.3815Y-6.9965
X8.3909Y-6.2517
X8.3954Y-4.8428
X8.4012Y-6.9472
X8.411Y-5.4906
X8.4154Y-4.9128
X8.4209Y-6.6421
X8.4234Y-5.8313
X8.4454Y-4.9328
X8.4602Y-6.8783
X8.4799Y-6.4256
X8.4885Y-4.8797
X8.4954Y-4.8428
X8.5154Y-5.1128
X8.5154Y-5.6528
X8.5184Y-5.6113
X8.5193Y-6.0319
X8.5454Y-5.6528
X8.5468Y-5.6113
X8.5488Y-6.6323
X8.5685Y-6.2189
X8.5685Y-6.4748
X8.6374Y-5.9236
X8.6669Y-5.6214
X8.6669Y-7.2622
X8.6969Y-5.9536
X8.7054Y-5.5128
X8.7063Y-7.2327
X8.785Y-6.2691
X8.8047Y-5.8516
X8.8454Y-5.6228
X8.8933Y-6.6323
X8.8954Y-5.8428
T4
X7.7417Y-6.3665
X7.7417Y-6.4453
X7.7417Y-6.524
X8.5291Y-4.0831
X8.5291Y-4.1618
T5
X8.5094Y-7.1244
X8.6276Y-7.1244
T6
X7.4718Y-6.1788
X7.4987Y-5.3921
X7.5702Y-6.1788
X7.5971Y-5.3921
X8.0591Y-4.0594
X8.1591Y-4.0594
X8.2591Y-4.0594
X8.3224Y-6.1591
X8.4209Y-6.1591
X8.5165Y-6.7317
X8.6165Y-6.7317
X8.6728Y-5.3921
X8.7165Y-6.7317
X8.7636Y-4.7836
X8.7636Y-4.882
X8.7712Y-5.3921
X8.8165Y-6.7317
T3
G00X8.3984Y-7.4839
M15
G01X8.3984Y-7.5272
M16
G05
G00X8.3984Y-7.6583
M15
G01X8.3984Y-7.6819
M16
G05
G00X8.7386Y-7.4839
M15
G01X8.7386Y-7.5272
M16
G05
G00X8.7386Y-7.6583
M15
G01X8.7386Y-7.6819
M16
G05
T0
M30
