G04 #@! TF.GenerationSoftware,KiCad,Pcbnew,7.0.7*
G04 #@! TF.CreationDate,2023-10-22T15:44:31+02:00*
G04 #@! TF.ProjectId,FC Control board 1.1,46432043-6f6e-4747-926f-6c20626f6172,rev?*
G04 #@! TF.SameCoordinates,Original*
G04 #@! TF.FileFunction,Legend,Bot*
G04 #@! TF.FilePolarity,Positive*
%FSLAX46Y46*%
G04 Gerber Fmt 4.6, Leading zero omitted, Abs format (unit mm)*
G04 Created by KiCad (PCBNEW 7.0.7) date 2023-10-22 15:44:31*
%MOMM*%
%LPD*%
G01*
G04 APERTURE LIST*
G04 Aperture macros list*
%AMRoundRect*
0 Rectangle with rounded corners*
0 $1 Rounding radius*
0 $2 $3 $4 $5 $6 $7 $8 $9 X,Y pos of 4 corners*
0 Add a 4 corners polygon primitive as box body*
4,1,4,$2,$3,$4,$5,$6,$7,$8,$9,$2,$3,0*
0 Add four circle primitives for the rounded corners*
1,1,$1+$1,$2,$3*
1,1,$1+$1,$4,$5*
1,1,$1+$1,$6,$7*
1,1,$1+$1,$8,$9*
0 Add four rect primitives between the rounded corners*
20,1,$1+$1,$2,$3,$4,$5,0*
20,1,$1+$1,$4,$5,$6,$7,0*
20,1,$1+$1,$6,$7,$8,$9,0*
20,1,$1+$1,$8,$9,$2,$3,0*%
%AMFreePoly0*
4,1,19,0.550000,-0.750000,0.000000,-0.750000,0.000000,-0.744911,-0.071157,-0.744911,-0.207708,-0.704816,-0.327430,-0.627875,-0.420627,-0.520320,-0.479746,-0.390866,-0.500000,-0.250000,-0.500000,0.250000,-0.479746,0.390866,-0.420627,0.520320,-0.327430,0.627875,-0.207708,0.704816,-0.071157,0.744911,0.000000,0.744911,0.000000,0.750000,0.550000,0.750000,0.550000,-0.750000,0.550000,-0.750000,
$1*%
%AMFreePoly1*
4,1,19,0.000000,0.744911,0.071157,0.744911,0.207708,0.704816,0.327430,0.627875,0.420627,0.520320,0.479746,0.390866,0.500000,0.250000,0.500000,-0.250000,0.479746,-0.390866,0.420627,-0.520320,0.327430,-0.627875,0.207708,-0.704816,0.071157,-0.744911,0.000000,-0.744911,0.000000,-0.750000,-0.550000,-0.750000,-0.550000,0.750000,0.000000,0.750000,0.000000,0.744911,0.000000,0.744911,
$1*%
G04 Aperture macros list end*
%ADD10C,0.150000*%
%ADD11C,0.120000*%
%ADD12RoundRect,0.250000X0.750000X-0.600000X0.750000X0.600000X-0.750000X0.600000X-0.750000X-0.600000X0*%
%ADD13O,2.000000X1.700000*%
%ADD14RoundRect,0.250000X-0.600000X-0.750000X0.600000X-0.750000X0.600000X0.750000X-0.600000X0.750000X0*%
%ADD15O,1.700000X2.000000*%
%ADD16R,1.700000X1.700000*%
%ADD17O,1.700000X1.700000*%
%ADD18R,1.350000X1.350000*%
%ADD19O,1.350000X1.350000*%
%ADD20R,2.000000X2.000000*%
%ADD21C,2.000000*%
%ADD22C,0.650000*%
%ADD23O,1.000000X2.100000*%
%ADD24O,1.000000X1.600000*%
%ADD25RoundRect,0.250000X0.600000X0.750000X-0.600000X0.750000X-0.600000X-0.750000X0.600000X-0.750000X0*%
%ADD26R,0.600000X1.650000*%
%ADD27FreePoly0,270.000000*%
%ADD28R,1.500000X1.000000*%
%ADD29FreePoly1,270.000000*%
%ADD30RoundRect,0.250000X-0.475000X0.337500X-0.475000X-0.337500X0.475000X-0.337500X0.475000X0.337500X0*%
G04 APERTURE END LIST*
D10*
X213449523Y-154095819D02*
X213449523Y-153095819D01*
X213449523Y-153095819D02*
X213116190Y-153810104D01*
X213116190Y-153810104D02*
X212782857Y-153095819D01*
X212782857Y-153095819D02*
X212782857Y-154095819D01*
X212354285Y-153191057D02*
X212306666Y-153143438D01*
X212306666Y-153143438D02*
X212211428Y-153095819D01*
X212211428Y-153095819D02*
X211973333Y-153095819D01*
X211973333Y-153095819D02*
X211878095Y-153143438D01*
X211878095Y-153143438D02*
X211830476Y-153191057D01*
X211830476Y-153191057D02*
X211782857Y-153286295D01*
X211782857Y-153286295D02*
X211782857Y-153381533D01*
X211782857Y-153381533D02*
X211830476Y-153524390D01*
X211830476Y-153524390D02*
X212401904Y-154095819D01*
X212401904Y-154095819D02*
X211782857Y-154095819D01*
X190878094Y-163664819D02*
X190878094Y-164474342D01*
X190878094Y-164474342D02*
X190830475Y-164569580D01*
X190830475Y-164569580D02*
X190782856Y-164617200D01*
X190782856Y-164617200D02*
X190687618Y-164664819D01*
X190687618Y-164664819D02*
X190497142Y-164664819D01*
X190497142Y-164664819D02*
X190401904Y-164617200D01*
X190401904Y-164617200D02*
X190354285Y-164569580D01*
X190354285Y-164569580D02*
X190306666Y-164474342D01*
X190306666Y-164474342D02*
X190306666Y-163664819D01*
X189306666Y-164664819D02*
X189878094Y-164664819D01*
X189592380Y-164664819D02*
X189592380Y-163664819D01*
X189592380Y-163664819D02*
X189687618Y-163807676D01*
X189687618Y-163807676D02*
X189782856Y-163902914D01*
X189782856Y-163902914D02*
X189878094Y-163950533D01*
X188354285Y-164664819D02*
X188925713Y-164664819D01*
X188639999Y-164664819D02*
X188639999Y-163664819D01*
X188639999Y-163664819D02*
X188735237Y-163807676D01*
X188735237Y-163807676D02*
X188830475Y-163902914D01*
X188830475Y-163902914D02*
X188925713Y-163950533D01*
X211901904Y-162914819D02*
X211901904Y-163724342D01*
X211901904Y-163724342D02*
X211854285Y-163819580D01*
X211854285Y-163819580D02*
X211806666Y-163867200D01*
X211806666Y-163867200D02*
X211711428Y-163914819D01*
X211711428Y-163914819D02*
X211520952Y-163914819D01*
X211520952Y-163914819D02*
X211425714Y-163867200D01*
X211425714Y-163867200D02*
X211378095Y-163819580D01*
X211378095Y-163819580D02*
X211330476Y-163724342D01*
X211330476Y-163724342D02*
X211330476Y-162914819D01*
X210711428Y-163343390D02*
X210806666Y-163295771D01*
X210806666Y-163295771D02*
X210854285Y-163248152D01*
X210854285Y-163248152D02*
X210901904Y-163152914D01*
X210901904Y-163152914D02*
X210901904Y-163105295D01*
X210901904Y-163105295D02*
X210854285Y-163010057D01*
X210854285Y-163010057D02*
X210806666Y-162962438D01*
X210806666Y-162962438D02*
X210711428Y-162914819D01*
X210711428Y-162914819D02*
X210520952Y-162914819D01*
X210520952Y-162914819D02*
X210425714Y-162962438D01*
X210425714Y-162962438D02*
X210378095Y-163010057D01*
X210378095Y-163010057D02*
X210330476Y-163105295D01*
X210330476Y-163105295D02*
X210330476Y-163152914D01*
X210330476Y-163152914D02*
X210378095Y-163248152D01*
X210378095Y-163248152D02*
X210425714Y-163295771D01*
X210425714Y-163295771D02*
X210520952Y-163343390D01*
X210520952Y-163343390D02*
X210711428Y-163343390D01*
X210711428Y-163343390D02*
X210806666Y-163391009D01*
X210806666Y-163391009D02*
X210854285Y-163438628D01*
X210854285Y-163438628D02*
X210901904Y-163533866D01*
X210901904Y-163533866D02*
X210901904Y-163724342D01*
X210901904Y-163724342D02*
X210854285Y-163819580D01*
X210854285Y-163819580D02*
X210806666Y-163867200D01*
X210806666Y-163867200D02*
X210711428Y-163914819D01*
X210711428Y-163914819D02*
X210520952Y-163914819D01*
X210520952Y-163914819D02*
X210425714Y-163867200D01*
X210425714Y-163867200D02*
X210378095Y-163819580D01*
X210378095Y-163819580D02*
X210330476Y-163724342D01*
X210330476Y-163724342D02*
X210330476Y-163533866D01*
X210330476Y-163533866D02*
X210378095Y-163438628D01*
X210378095Y-163438628D02*
X210425714Y-163391009D01*
X210425714Y-163391009D02*
X210520952Y-163343390D01*
X191842023Y-154595819D02*
X191842023Y-153595819D01*
X191842023Y-153595819D02*
X191508690Y-154310104D01*
X191508690Y-154310104D02*
X191175357Y-153595819D01*
X191175357Y-153595819D02*
X191175357Y-154595819D01*
X190270595Y-153929152D02*
X190270595Y-154595819D01*
X190508690Y-153548200D02*
X190746785Y-154262485D01*
X190746785Y-154262485D02*
X190127738Y-154262485D01*
X210136819Y-146812666D02*
X210851104Y-146812666D01*
X210851104Y-146812666D02*
X210993961Y-146765047D01*
X210993961Y-146765047D02*
X211089200Y-146669809D01*
X211089200Y-146669809D02*
X211136819Y-146526952D01*
X211136819Y-146526952D02*
X211136819Y-146431714D01*
X211136819Y-147288857D02*
X210136819Y-147288857D01*
X210136819Y-147288857D02*
X210136819Y-147669809D01*
X210136819Y-147669809D02*
X210184438Y-147765047D01*
X210184438Y-147765047D02*
X210232057Y-147812666D01*
X210232057Y-147812666D02*
X210327295Y-147860285D01*
X210327295Y-147860285D02*
X210470152Y-147860285D01*
X210470152Y-147860285D02*
X210565390Y-147812666D01*
X210565390Y-147812666D02*
X210613009Y-147765047D01*
X210613009Y-147765047D02*
X210660628Y-147669809D01*
X210660628Y-147669809D02*
X210660628Y-147288857D01*
X211136819Y-148812666D02*
X211136819Y-148241238D01*
X211136819Y-148526952D02*
X210136819Y-148526952D01*
X210136819Y-148526952D02*
X210279676Y-148431714D01*
X210279676Y-148431714D02*
X210374914Y-148336476D01*
X210374914Y-148336476D02*
X210422533Y-148241238D01*
D11*
X216800000Y-159051000D02*
X214300000Y-159051000D01*
X216800000Y-156551000D02*
X216800000Y-159051000D01*
X216500000Y-158751000D02*
X208780000Y-158751000D01*
X216500000Y-157251000D02*
X215500000Y-157251000D01*
X216500000Y-156441000D02*
X216000000Y-156441000D01*
X216500000Y-154731000D02*
X216500000Y-158751000D01*
X216000000Y-156441000D02*
X216000000Y-155231000D01*
X216000000Y-155231000D02*
X209280000Y-155231000D01*
X215500000Y-157251000D02*
X215500000Y-158751000D01*
X209780000Y-157251000D02*
X209780000Y-158751000D01*
X209280000Y-156441000D02*
X208780000Y-156441000D01*
X209280000Y-155231000D02*
X209280000Y-156441000D01*
X208780000Y-158751000D02*
X208780000Y-154731000D01*
X208780000Y-157251000D02*
X209780000Y-157251000D01*
X208780000Y-154731000D02*
X216500000Y-154731000D01*
X192453500Y-167610000D02*
X192453500Y-160160000D01*
X192453500Y-160160000D02*
X187043500Y-160160000D01*
X191653500Y-168410000D02*
X192453500Y-167610000D01*
X187043500Y-168410000D02*
X191653500Y-168410000D01*
X187043500Y-160160000D02*
X187043500Y-168410000D01*
X214061000Y-167110000D02*
X214061000Y-159660000D01*
X214061000Y-159660000D02*
X208651000Y-159660000D01*
X213261000Y-167910000D02*
X214061000Y-167110000D01*
X208651000Y-167910000D02*
X213261000Y-167910000D01*
X208651000Y-159660000D02*
X208651000Y-167910000D01*
X195192500Y-159551000D02*
X192692500Y-159551000D01*
X195192500Y-157051000D02*
X195192500Y-159551000D01*
X194892500Y-159251000D02*
X187172500Y-159251000D01*
X194892500Y-157751000D02*
X193892500Y-157751000D01*
X194892500Y-156941000D02*
X194392500Y-156941000D01*
X194892500Y-155231000D02*
X194892500Y-159251000D01*
X194392500Y-156941000D02*
X194392500Y-155731000D01*
X194392500Y-155731000D02*
X187672500Y-155731000D01*
X193892500Y-157751000D02*
X193892500Y-159251000D01*
X188172500Y-157751000D02*
X188172500Y-159251000D01*
X187672500Y-156941000D02*
X187172500Y-156941000D01*
X187672500Y-155731000D02*
X187672500Y-156941000D01*
X187172500Y-159251000D02*
X187172500Y-155231000D01*
X187172500Y-157751000D02*
X188172500Y-157751000D01*
X187172500Y-155231000D02*
X194892500Y-155231000D01*
X212782000Y-145596000D02*
X212182000Y-145596000D01*
X213982000Y-146146000D02*
X213982000Y-146746000D01*
X211482000Y-146246000D02*
X211482000Y-149046000D01*
X213682000Y-146446000D02*
X213982000Y-146146000D01*
X213682000Y-146446000D02*
X213982000Y-146746000D01*
X213482000Y-149046000D02*
X213482000Y-146246000D01*
X212182000Y-149696000D02*
X212782000Y-149696000D01*
X213482000Y-146296000D02*
G75*
G03*
X212782000Y-145596000I-699999J1D01*
G01*
X212182000Y-145596000D02*
G75*
G03*
X211482000Y-146296000I-1J-699999D01*
G01*
X212782000Y-149696000D02*
G75*
G03*
X213482000Y-148996000I0J700000D01*
G01*
X211482000Y-148996000D02*
G75*
G03*
X212182000Y-149696000I700000J0D01*
G01*
X194293500Y-161102748D02*
X194293500Y-161625252D01*
X192823500Y-161102748D02*
X192823500Y-161625252D01*
X215901000Y-160602748D02*
X215901000Y-161125252D01*
X214431000Y-160602748D02*
X214431000Y-161125252D01*
%LPC*%
D12*
X222596000Y-124004000D03*
D13*
X222596000Y-121504000D03*
D14*
X220289599Y-136959500D03*
D15*
X222789599Y-136959500D03*
D16*
X223940000Y-170985000D03*
D17*
X221400000Y-170985000D03*
X218860000Y-170985000D03*
X216320000Y-170985000D03*
D18*
X196640000Y-161710000D03*
D19*
X196640000Y-163710000D03*
X196640000Y-165710000D03*
D18*
X216640000Y-103710000D03*
D19*
X216640000Y-105710000D03*
D14*
X190466000Y-136959500D03*
D15*
X192966000Y-136959500D03*
D20*
X216140000Y-180960000D03*
D21*
X219140000Y-180960000D03*
D22*
X214750000Y-191170000D03*
X220530000Y-191170000D03*
D23*
X213320000Y-190640000D03*
D24*
X213320000Y-194820000D03*
D23*
X221960000Y-190640000D03*
D24*
X221960000Y-194820000D03*
D16*
X204700000Y-103110000D03*
D17*
X207240000Y-103110000D03*
X209780000Y-103110000D03*
D25*
X213890000Y-156441000D03*
D15*
X211390000Y-156441000D03*
D26*
X191653500Y-167085000D03*
X190383500Y-167085000D03*
X189113500Y-167085000D03*
X187843500Y-167085000D03*
X187843500Y-161485000D03*
X189113500Y-161485000D03*
X190383500Y-161485000D03*
X191653500Y-161485000D03*
X213261000Y-166585000D03*
X211991000Y-166585000D03*
X210721000Y-166585000D03*
X209451000Y-166585000D03*
X209451000Y-160985000D03*
X210721000Y-160985000D03*
X211991000Y-160985000D03*
X213261000Y-160985000D03*
D25*
X192282500Y-156941000D03*
D15*
X189782500Y-156941000D03*
D27*
X212482000Y-146346000D03*
D28*
X212482000Y-147646000D03*
D29*
X212482000Y-148946000D03*
D30*
X193558500Y-160326500D03*
X193558500Y-162401500D03*
X215166000Y-159826500D03*
X215166000Y-161901500D03*
%LPD*%
M02*
