G04 #@! TF.GenerationSoftware,KiCad,Pcbnew,7.0.7*
G04 #@! TF.CreationDate,2023-10-22T15:44:31+02:00*
G04 #@! TF.ProjectId,FC Control board 1.1,46432043-6f6e-4747-926f-6c20626f6172,rev?*
G04 #@! TF.SameCoordinates,Original*
G04 #@! TF.FileFunction,Soldermask,Bot*
G04 #@! TF.FilePolarity,Negative*
%FSLAX46Y46*%
G04 Gerber Fmt 4.6, Leading zero omitted, Abs format (unit mm)*
G04 Created by KiCad (PCBNEW 7.0.7) date 2023-10-22 15:44:31*
%MOMM*%
%LPD*%
G01*
G04 APERTURE LIST*
G04 Aperture macros list*
%AMRoundRect*
0 Rectangle with rounded corners*
0 $1 Rounding radius*
0 $2 $3 $4 $5 $6 $7 $8 $9 X,Y pos of 4 corners*
0 Add a 4 corners polygon primitive as box body*
4,1,4,$2,$3,$4,$5,$6,$7,$8,$9,$2,$3,0*
0 Add four circle primitives for the rounded corners*
1,1,$1+$1,$2,$3*
1,1,$1+$1,$4,$5*
1,1,$1+$1,$6,$7*
1,1,$1+$1,$8,$9*
0 Add four rect primitives between the rounded corners*
20,1,$1+$1,$2,$3,$4,$5,0*
20,1,$1+$1,$4,$5,$6,$7,0*
20,1,$1+$1,$6,$7,$8,$9,0*
20,1,$1+$1,$8,$9,$2,$3,0*%
%AMFreePoly0*
4,1,19,0.550000,-0.750000,0.000000,-0.750000,0.000000,-0.744911,-0.071157,-0.744911,-0.207708,-0.704816,-0.327430,-0.627875,-0.420627,-0.520320,-0.479746,-0.390866,-0.500000,-0.250000,-0.500000,0.250000,-0.479746,0.390866,-0.420627,0.520320,-0.327430,0.627875,-0.207708,0.704816,-0.071157,0.744911,0.000000,0.744911,0.000000,0.750000,0.550000,0.750000,0.550000,-0.750000,0.550000,-0.750000,
$1*%
%AMFreePoly1*
4,1,19,0.000000,0.744911,0.071157,0.744911,0.207708,0.704816,0.327430,0.627875,0.420627,0.520320,0.479746,0.390866,0.500000,0.250000,0.500000,-0.250000,0.479746,-0.390866,0.420627,-0.520320,0.327430,-0.627875,0.207708,-0.704816,0.071157,-0.744911,0.000000,-0.744911,0.000000,-0.750000,-0.550000,-0.750000,-0.550000,0.750000,0.000000,0.750000,0.000000,0.744911,0.000000,0.744911,
$1*%
G04 Aperture macros list end*
%ADD10RoundRect,0.250000X0.750000X-0.600000X0.750000X0.600000X-0.750000X0.600000X-0.750000X-0.600000X0*%
%ADD11O,2.000000X1.700000*%
%ADD12RoundRect,0.250000X-0.600000X-0.750000X0.600000X-0.750000X0.600000X0.750000X-0.600000X0.750000X0*%
%ADD13O,1.700000X2.000000*%
%ADD14R,1.700000X1.700000*%
%ADD15O,1.700000X1.700000*%
%ADD16R,1.350000X1.350000*%
%ADD17O,1.350000X1.350000*%
%ADD18R,2.000000X2.000000*%
%ADD19C,2.000000*%
%ADD20C,0.650000*%
%ADD21O,1.000000X2.100000*%
%ADD22O,1.000000X1.600000*%
%ADD23RoundRect,0.250000X0.600000X0.750000X-0.600000X0.750000X-0.600000X-0.750000X0.600000X-0.750000X0*%
%ADD24R,0.600000X1.650000*%
%ADD25FreePoly0,270.000000*%
%ADD26R,1.500000X1.000000*%
%ADD27FreePoly1,270.000000*%
%ADD28RoundRect,0.250000X-0.475000X0.337500X-0.475000X-0.337500X0.475000X-0.337500X0.475000X0.337500X0*%
G04 APERTURE END LIST*
D10*
X222596000Y-124004000D03*
D11*
X222596000Y-121504000D03*
D12*
X220289599Y-136959500D03*
D13*
X222789599Y-136959500D03*
D14*
X223940000Y-170985000D03*
D15*
X221400000Y-170985000D03*
X218860000Y-170985000D03*
X216320000Y-170985000D03*
D16*
X196640000Y-161710000D03*
D17*
X196640000Y-163710000D03*
X196640000Y-165710000D03*
D16*
X216640000Y-103710000D03*
D17*
X216640000Y-105710000D03*
D12*
X190466000Y-136959500D03*
D13*
X192966000Y-136959500D03*
D18*
X216140000Y-180960000D03*
D19*
X219140000Y-180960000D03*
D20*
X214750000Y-191170000D03*
X220530000Y-191170000D03*
D21*
X213320000Y-190640000D03*
D22*
X213320000Y-194820000D03*
D21*
X221960000Y-190640000D03*
D22*
X221960000Y-194820000D03*
D14*
X204700000Y-103110000D03*
D15*
X207240000Y-103110000D03*
X209780000Y-103110000D03*
D23*
X213890000Y-156441000D03*
D13*
X211390000Y-156441000D03*
D24*
X191653500Y-167085000D03*
X190383500Y-167085000D03*
X189113500Y-167085000D03*
X187843500Y-167085000D03*
X187843500Y-161485000D03*
X189113500Y-161485000D03*
X190383500Y-161485000D03*
X191653500Y-161485000D03*
X213261000Y-166585000D03*
X211991000Y-166585000D03*
X210721000Y-166585000D03*
X209451000Y-166585000D03*
X209451000Y-160985000D03*
X210721000Y-160985000D03*
X211991000Y-160985000D03*
X213261000Y-160985000D03*
D23*
X192282500Y-156941000D03*
D13*
X189782500Y-156941000D03*
D25*
X212482000Y-146346000D03*
D26*
X212482000Y-147646000D03*
D27*
X212482000Y-148946000D03*
D28*
X193558500Y-160326500D03*
X193558500Y-162401500D03*
X215166000Y-159826500D03*
X215166000Y-161901500D03*
M02*
