%TF.GenerationSoftware,KiCad,Pcbnew,(7.0.0)*%
%TF.CreationDate,2023-09-25T00:06:05+02:00*%
%TF.ProjectId,FC Control board 1.0,46432043-6f6e-4747-926f-6c20626f6172,rev?*%
%TF.SameCoordinates,Original*%
%TF.FileFunction,Drillmap*%
%TF.FilePolarity,Positive*%
%FSLAX45Y45*%
G04 Gerber Fmt 4.5, Leading zero omitted, Abs format (unit mm)*
G04 Created by KiCad (PCBNEW (7.0.0)) date 2023-09-25 00:06:05*
%MOMM*%
%LPD*%
G01*
G04 APERTURE LIST*
%ADD10C,0.200000*%
%ADD11C,0.065000*%
G04 APERTURE END LIST*
D10*
X18492044Y-19192293D02*
X18482425Y-19199226D01*
X19867785Y-9967704D02*
G75*
G03*
X19781825Y-9987121I5J-200006D01*
G01*
X23048003Y-19805075D02*
G75*
G03*
X23031652Y-19255453I-2003J274995D01*
G01*
X19077001Y-11122030D02*
G75*
G03*
X19077001Y-11122030I-150000J0D01*
G01*
X22696000Y-18928648D02*
X22696545Y-18949126D01*
X22698213Y-18969438D01*
X22701052Y-18989546D01*
X22705108Y-19009416D01*
X22710431Y-19029010D01*
X22717067Y-19048292D01*
X22720101Y-19055910D01*
X18615566Y-19018603D02*
X18620687Y-18996438D01*
X18624247Y-18974020D01*
X18626326Y-18951405D01*
X18627001Y-18928648D01*
X18291348Y-19255457D02*
G75*
G03*
X18274998Y-19805071I-14348J-274624D01*
G01*
X18427001Y-19530078D02*
G75*
G03*
X18427001Y-19530078I-150000J0D01*
G01*
X21541177Y-9987119D02*
G75*
G03*
X21455216Y-9967706I-85947J-180541D01*
G01*
X23196000Y-19530078D02*
G75*
G03*
X23196000Y-19530078I-150000J0D01*
G01*
X22840576Y-19199226D02*
G75*
G03*
X23031652Y-19255453I175424J243366D01*
G01*
X22840576Y-19199226D02*
X22830957Y-19192293D01*
X19781825Y-9987121D02*
X18741040Y-10482547D01*
X22764670Y-19130416D02*
X22779656Y-19147531D01*
X22795760Y-19163528D01*
X22812891Y-19178438D01*
X22830957Y-19192293D01*
X22546000Y-11122030D02*
G75*
G03*
X22546000Y-11122030I-150000J0D01*
G01*
X21455216Y-9967706D02*
X19867785Y-9967706D01*
X18581188Y-19098325D02*
X18591972Y-19079351D01*
X18601289Y-19059725D01*
X18609150Y-19039468D01*
X18615566Y-19018603D01*
X18274998Y-19805071D02*
X23048003Y-19805071D01*
X18741040Y-10482546D02*
G75*
G03*
X18627001Y-10663131I85960J-180584D01*
G01*
X18492044Y-19192293D02*
X18508337Y-19179875D01*
X18523839Y-19166645D01*
X18538491Y-19152584D01*
X18552238Y-19137675D01*
X18565020Y-19121900D01*
X18576782Y-19105240D01*
X18581188Y-19098325D01*
X19077001Y-13122030D02*
G75*
G03*
X19077001Y-13122030I-150000J0D01*
G01*
X22546000Y-15122030D02*
G75*
G03*
X22546000Y-15122030I-150000J0D01*
G01*
X22696000Y-10905352D02*
X22696000Y-10663131D01*
X18627001Y-10663131D02*
X18627001Y-10905352D01*
X18627001Y-10905352D02*
X18627001Y-18928648D01*
X18291349Y-19255453D02*
G75*
G03*
X18482425Y-19199226I15651J299593D01*
G01*
X22546000Y-13122030D02*
G75*
G03*
X22546000Y-13122030I-150000J0D01*
G01*
X22581960Y-10482547D02*
X21541176Y-9987121D01*
X22696000Y-18928648D02*
X22696000Y-10905352D01*
X19127001Y-17630078D02*
G75*
G03*
X19127001Y-17630078I-150000J0D01*
G01*
X22720101Y-19055910D02*
X22729187Y-19075754D01*
X22739660Y-19094788D01*
X22751496Y-19113010D01*
X22764670Y-19130416D01*
X19077001Y-15122030D02*
G75*
G03*
X19077001Y-15122030I-150000J0D01*
G01*
X22695999Y-10663131D02*
G75*
G03*
X22581960Y-10482547I-199999J1D01*
G01*
X22496000Y-17630078D02*
G75*
G03*
X22496000Y-17630078I-150000J0D01*
G01*
D11*
X21952300Y-17449900D02*
X22017300Y-17514900D01*
X22017300Y-17449900D02*
X21952300Y-17514900D01*
X21952300Y-18027900D02*
X22017300Y-18092900D01*
X22017300Y-18027900D02*
X21952300Y-18092900D01*
D10*
X18239621Y-20108547D02*
X18239621Y-19908547D01*
X18239621Y-19908547D02*
X18287240Y-19908547D01*
X18287240Y-19908547D02*
X18315811Y-19918071D01*
X18315811Y-19918071D02*
X18334859Y-19937119D01*
X18334859Y-19937119D02*
X18344383Y-19956166D01*
X18344383Y-19956166D02*
X18353907Y-19994261D01*
X18353907Y-19994261D02*
X18353907Y-20022833D01*
X18353907Y-20022833D02*
X18344383Y-20060928D01*
X18344383Y-20060928D02*
X18334859Y-20079976D01*
X18334859Y-20079976D02*
X18315811Y-20099023D01*
X18315811Y-20099023D02*
X18287240Y-20108547D01*
X18287240Y-20108547D02*
X18239621Y-20108547D01*
X18439621Y-20108547D02*
X18439621Y-19975214D01*
X18439621Y-20013309D02*
X18449145Y-19994261D01*
X18449145Y-19994261D02*
X18458668Y-19984738D01*
X18458668Y-19984738D02*
X18477716Y-19975214D01*
X18477716Y-19975214D02*
X18496764Y-19975214D01*
X18563430Y-20108547D02*
X18563430Y-19975214D01*
X18563430Y-19908547D02*
X18553907Y-19918071D01*
X18553907Y-19918071D02*
X18563430Y-19927595D01*
X18563430Y-19927595D02*
X18572954Y-19918071D01*
X18572954Y-19918071D02*
X18563430Y-19908547D01*
X18563430Y-19908547D02*
X18563430Y-19927595D01*
X18687240Y-20108547D02*
X18668192Y-20099023D01*
X18668192Y-20099023D02*
X18658668Y-20079976D01*
X18658668Y-20079976D02*
X18658668Y-19908547D01*
X18792002Y-20108547D02*
X18772954Y-20099023D01*
X18772954Y-20099023D02*
X18763430Y-20079976D01*
X18763430Y-20079976D02*
X18763430Y-19908547D01*
X18988192Y-20108547D02*
X18988192Y-19908547D01*
X18988192Y-19908547D02*
X19054859Y-20051404D01*
X19054859Y-20051404D02*
X19121526Y-19908547D01*
X19121526Y-19908547D02*
X19121526Y-20108547D01*
X19302478Y-20108547D02*
X19302478Y-20003785D01*
X19302478Y-20003785D02*
X19292954Y-19984738D01*
X19292954Y-19984738D02*
X19273907Y-19975214D01*
X19273907Y-19975214D02*
X19235811Y-19975214D01*
X19235811Y-19975214D02*
X19216764Y-19984738D01*
X19302478Y-20099023D02*
X19283430Y-20108547D01*
X19283430Y-20108547D02*
X19235811Y-20108547D01*
X19235811Y-20108547D02*
X19216764Y-20099023D01*
X19216764Y-20099023D02*
X19207240Y-20079976D01*
X19207240Y-20079976D02*
X19207240Y-20060928D01*
X19207240Y-20060928D02*
X19216764Y-20041880D01*
X19216764Y-20041880D02*
X19235811Y-20032357D01*
X19235811Y-20032357D02*
X19283430Y-20032357D01*
X19283430Y-20032357D02*
X19302478Y-20022833D01*
X19397716Y-19975214D02*
X19397716Y-20175214D01*
X19397716Y-19984738D02*
X19416764Y-19975214D01*
X19416764Y-19975214D02*
X19454859Y-19975214D01*
X19454859Y-19975214D02*
X19473907Y-19984738D01*
X19473907Y-19984738D02*
X19483430Y-19994261D01*
X19483430Y-19994261D02*
X19492954Y-20013309D01*
X19492954Y-20013309D02*
X19492954Y-20070452D01*
X19492954Y-20070452D02*
X19483430Y-20089499D01*
X19483430Y-20089499D02*
X19473907Y-20099023D01*
X19473907Y-20099023D02*
X19454859Y-20108547D01*
X19454859Y-20108547D02*
X19416764Y-20108547D01*
X19416764Y-20108547D02*
X19397716Y-20099023D01*
X19578668Y-20089499D02*
X19588192Y-20099023D01*
X19588192Y-20099023D02*
X19578668Y-20108547D01*
X19578668Y-20108547D02*
X19569145Y-20099023D01*
X19569145Y-20099023D02*
X19578668Y-20089499D01*
X19578668Y-20089499D02*
X19578668Y-20108547D01*
X19578668Y-19984738D02*
X19588192Y-19994261D01*
X19588192Y-19994261D02*
X19578668Y-20003785D01*
X19578668Y-20003785D02*
X19569145Y-19994261D01*
X19569145Y-19994261D02*
X19578668Y-19984738D01*
X19578668Y-19984738D02*
X19578668Y-20003785D01*
D11*
X17927002Y-20422571D02*
X17992002Y-20487571D01*
X17992002Y-20422571D02*
X17927002Y-20487571D01*
D10*
X18277716Y-20328547D02*
X18296764Y-20328547D01*
X18296764Y-20328547D02*
X18315811Y-20338071D01*
X18315811Y-20338071D02*
X18325335Y-20347595D01*
X18325335Y-20347595D02*
X18334859Y-20366642D01*
X18334859Y-20366642D02*
X18344383Y-20404738D01*
X18344383Y-20404738D02*
X18344383Y-20452357D01*
X18344383Y-20452357D02*
X18334859Y-20490452D01*
X18334859Y-20490452D02*
X18325335Y-20509499D01*
X18325335Y-20509499D02*
X18315811Y-20519023D01*
X18315811Y-20519023D02*
X18296764Y-20528547D01*
X18296764Y-20528547D02*
X18277716Y-20528547D01*
X18277716Y-20528547D02*
X18258668Y-20519023D01*
X18258668Y-20519023D02*
X18249145Y-20509499D01*
X18249145Y-20509499D02*
X18239621Y-20490452D01*
X18239621Y-20490452D02*
X18230097Y-20452357D01*
X18230097Y-20452357D02*
X18230097Y-20404738D01*
X18230097Y-20404738D02*
X18239621Y-20366642D01*
X18239621Y-20366642D02*
X18249145Y-20347595D01*
X18249145Y-20347595D02*
X18258668Y-20338071D01*
X18258668Y-20338071D02*
X18277716Y-20328547D01*
X18430097Y-20509499D02*
X18439621Y-20519023D01*
X18439621Y-20519023D02*
X18430097Y-20528547D01*
X18430097Y-20528547D02*
X18420573Y-20519023D01*
X18420573Y-20519023D02*
X18430097Y-20509499D01*
X18430097Y-20509499D02*
X18430097Y-20528547D01*
X18611049Y-20328547D02*
X18572954Y-20328547D01*
X18572954Y-20328547D02*
X18553907Y-20338071D01*
X18553907Y-20338071D02*
X18544383Y-20347595D01*
X18544383Y-20347595D02*
X18525335Y-20376166D01*
X18525335Y-20376166D02*
X18515811Y-20414261D01*
X18515811Y-20414261D02*
X18515811Y-20490452D01*
X18515811Y-20490452D02*
X18525335Y-20509499D01*
X18525335Y-20509499D02*
X18534859Y-20519023D01*
X18534859Y-20519023D02*
X18553907Y-20528547D01*
X18553907Y-20528547D02*
X18592002Y-20528547D01*
X18592002Y-20528547D02*
X18611049Y-20519023D01*
X18611049Y-20519023D02*
X18620573Y-20509499D01*
X18620573Y-20509499D02*
X18630097Y-20490452D01*
X18630097Y-20490452D02*
X18630097Y-20442833D01*
X18630097Y-20442833D02*
X18620573Y-20423785D01*
X18620573Y-20423785D02*
X18611049Y-20414261D01*
X18611049Y-20414261D02*
X18592002Y-20404738D01*
X18592002Y-20404738D02*
X18553907Y-20404738D01*
X18553907Y-20404738D02*
X18534859Y-20414261D01*
X18534859Y-20414261D02*
X18525335Y-20423785D01*
X18525335Y-20423785D02*
X18515811Y-20442833D01*
X18811049Y-20328547D02*
X18715811Y-20328547D01*
X18715811Y-20328547D02*
X18706288Y-20423785D01*
X18706288Y-20423785D02*
X18715811Y-20414261D01*
X18715811Y-20414261D02*
X18734859Y-20404738D01*
X18734859Y-20404738D02*
X18782478Y-20404738D01*
X18782478Y-20404738D02*
X18801526Y-20414261D01*
X18801526Y-20414261D02*
X18811049Y-20423785D01*
X18811049Y-20423785D02*
X18820573Y-20442833D01*
X18820573Y-20442833D02*
X18820573Y-20490452D01*
X18820573Y-20490452D02*
X18811049Y-20509499D01*
X18811049Y-20509499D02*
X18801526Y-20519023D01*
X18801526Y-20519023D02*
X18782478Y-20528547D01*
X18782478Y-20528547D02*
X18734859Y-20528547D01*
X18734859Y-20528547D02*
X18715811Y-20519023D01*
X18715811Y-20519023D02*
X18706288Y-20509499D01*
X18944383Y-20328547D02*
X18963430Y-20328547D01*
X18963430Y-20328547D02*
X18982478Y-20338071D01*
X18982478Y-20338071D02*
X18992002Y-20347595D01*
X18992002Y-20347595D02*
X19001526Y-20366642D01*
X19001526Y-20366642D02*
X19011049Y-20404738D01*
X19011049Y-20404738D02*
X19011049Y-20452357D01*
X19011049Y-20452357D02*
X19001526Y-20490452D01*
X19001526Y-20490452D02*
X18992002Y-20509499D01*
X18992002Y-20509499D02*
X18982478Y-20519023D01*
X18982478Y-20519023D02*
X18963430Y-20528547D01*
X18963430Y-20528547D02*
X18944383Y-20528547D01*
X18944383Y-20528547D02*
X18925335Y-20519023D01*
X18925335Y-20519023D02*
X18915811Y-20509499D01*
X18915811Y-20509499D02*
X18906288Y-20490452D01*
X18906288Y-20490452D02*
X18896764Y-20452357D01*
X18896764Y-20452357D02*
X18896764Y-20404738D01*
X18896764Y-20404738D02*
X18906288Y-20366642D01*
X18906288Y-20366642D02*
X18915811Y-20347595D01*
X18915811Y-20347595D02*
X18925335Y-20338071D01*
X18925335Y-20338071D02*
X18944383Y-20328547D01*
X19096764Y-20528547D02*
X19096764Y-20395214D01*
X19096764Y-20414261D02*
X19106288Y-20404738D01*
X19106288Y-20404738D02*
X19125335Y-20395214D01*
X19125335Y-20395214D02*
X19153907Y-20395214D01*
X19153907Y-20395214D02*
X19172954Y-20404738D01*
X19172954Y-20404738D02*
X19182478Y-20423785D01*
X19182478Y-20423785D02*
X19182478Y-20528547D01*
X19182478Y-20423785D02*
X19192002Y-20404738D01*
X19192002Y-20404738D02*
X19211049Y-20395214D01*
X19211049Y-20395214D02*
X19239621Y-20395214D01*
X19239621Y-20395214D02*
X19258669Y-20404738D01*
X19258669Y-20404738D02*
X19268192Y-20423785D01*
X19268192Y-20423785D02*
X19268192Y-20528547D01*
X19363430Y-20528547D02*
X19363430Y-20395214D01*
X19363430Y-20414261D02*
X19372954Y-20404738D01*
X19372954Y-20404738D02*
X19392002Y-20395214D01*
X19392002Y-20395214D02*
X19420573Y-20395214D01*
X19420573Y-20395214D02*
X19439621Y-20404738D01*
X19439621Y-20404738D02*
X19449145Y-20423785D01*
X19449145Y-20423785D02*
X19449145Y-20528547D01*
X19449145Y-20423785D02*
X19458669Y-20404738D01*
X19458669Y-20404738D02*
X19477716Y-20395214D01*
X19477716Y-20395214D02*
X19506288Y-20395214D01*
X19506288Y-20395214D02*
X19525335Y-20404738D01*
X19525335Y-20404738D02*
X19534859Y-20423785D01*
X19534859Y-20423785D02*
X19534859Y-20528547D01*
X19892954Y-20319023D02*
X19721526Y-20576166D01*
X20117716Y-20328547D02*
X20136764Y-20328547D01*
X20136764Y-20328547D02*
X20155811Y-20338071D01*
X20155811Y-20338071D02*
X20165335Y-20347595D01*
X20165335Y-20347595D02*
X20174859Y-20366642D01*
X20174859Y-20366642D02*
X20184383Y-20404738D01*
X20184383Y-20404738D02*
X20184383Y-20452357D01*
X20184383Y-20452357D02*
X20174859Y-20490452D01*
X20174859Y-20490452D02*
X20165335Y-20509499D01*
X20165335Y-20509499D02*
X20155811Y-20519023D01*
X20155811Y-20519023D02*
X20136764Y-20528547D01*
X20136764Y-20528547D02*
X20117716Y-20528547D01*
X20117716Y-20528547D02*
X20098669Y-20519023D01*
X20098669Y-20519023D02*
X20089145Y-20509499D01*
X20089145Y-20509499D02*
X20079621Y-20490452D01*
X20079621Y-20490452D02*
X20070097Y-20452357D01*
X20070097Y-20452357D02*
X20070097Y-20404738D01*
X20070097Y-20404738D02*
X20079621Y-20366642D01*
X20079621Y-20366642D02*
X20089145Y-20347595D01*
X20089145Y-20347595D02*
X20098669Y-20338071D01*
X20098669Y-20338071D02*
X20117716Y-20328547D01*
X20270097Y-20509499D02*
X20279621Y-20519023D01*
X20279621Y-20519023D02*
X20270097Y-20528547D01*
X20270097Y-20528547D02*
X20260573Y-20519023D01*
X20260573Y-20519023D02*
X20270097Y-20509499D01*
X20270097Y-20509499D02*
X20270097Y-20528547D01*
X20403430Y-20328547D02*
X20422478Y-20328547D01*
X20422478Y-20328547D02*
X20441526Y-20338071D01*
X20441526Y-20338071D02*
X20451050Y-20347595D01*
X20451050Y-20347595D02*
X20460573Y-20366642D01*
X20460573Y-20366642D02*
X20470097Y-20404738D01*
X20470097Y-20404738D02*
X20470097Y-20452357D01*
X20470097Y-20452357D02*
X20460573Y-20490452D01*
X20460573Y-20490452D02*
X20451050Y-20509499D01*
X20451050Y-20509499D02*
X20441526Y-20519023D01*
X20441526Y-20519023D02*
X20422478Y-20528547D01*
X20422478Y-20528547D02*
X20403430Y-20528547D01*
X20403430Y-20528547D02*
X20384383Y-20519023D01*
X20384383Y-20519023D02*
X20374859Y-20509499D01*
X20374859Y-20509499D02*
X20365335Y-20490452D01*
X20365335Y-20490452D02*
X20355811Y-20452357D01*
X20355811Y-20452357D02*
X20355811Y-20404738D01*
X20355811Y-20404738D02*
X20365335Y-20366642D01*
X20365335Y-20366642D02*
X20374859Y-20347595D01*
X20374859Y-20347595D02*
X20384383Y-20338071D01*
X20384383Y-20338071D02*
X20403430Y-20328547D01*
X20546288Y-20347595D02*
X20555811Y-20338071D01*
X20555811Y-20338071D02*
X20574859Y-20328547D01*
X20574859Y-20328547D02*
X20622478Y-20328547D01*
X20622478Y-20328547D02*
X20641526Y-20338071D01*
X20641526Y-20338071D02*
X20651050Y-20347595D01*
X20651050Y-20347595D02*
X20660573Y-20366642D01*
X20660573Y-20366642D02*
X20660573Y-20385690D01*
X20660573Y-20385690D02*
X20651050Y-20414261D01*
X20651050Y-20414261D02*
X20536764Y-20528547D01*
X20536764Y-20528547D02*
X20660573Y-20528547D01*
X20841526Y-20328547D02*
X20746288Y-20328547D01*
X20746288Y-20328547D02*
X20736764Y-20423785D01*
X20736764Y-20423785D02*
X20746288Y-20414261D01*
X20746288Y-20414261D02*
X20765335Y-20404738D01*
X20765335Y-20404738D02*
X20812954Y-20404738D01*
X20812954Y-20404738D02*
X20832002Y-20414261D01*
X20832002Y-20414261D02*
X20841526Y-20423785D01*
X20841526Y-20423785D02*
X20851050Y-20442833D01*
X20851050Y-20442833D02*
X20851050Y-20490452D01*
X20851050Y-20490452D02*
X20841526Y-20509499D01*
X20841526Y-20509499D02*
X20832002Y-20519023D01*
X20832002Y-20519023D02*
X20812954Y-20528547D01*
X20812954Y-20528547D02*
X20765335Y-20528547D01*
X20765335Y-20528547D02*
X20746288Y-20519023D01*
X20746288Y-20519023D02*
X20736764Y-20509499D01*
X21022478Y-20328547D02*
X20984383Y-20328547D01*
X20984383Y-20328547D02*
X20965335Y-20338071D01*
X20965335Y-20338071D02*
X20955811Y-20347595D01*
X20955811Y-20347595D02*
X20936764Y-20376166D01*
X20936764Y-20376166D02*
X20927240Y-20414261D01*
X20927240Y-20414261D02*
X20927240Y-20490452D01*
X20927240Y-20490452D02*
X20936764Y-20509499D01*
X20936764Y-20509499D02*
X20946288Y-20519023D01*
X20946288Y-20519023D02*
X20965335Y-20528547D01*
X20965335Y-20528547D02*
X21003431Y-20528547D01*
X21003431Y-20528547D02*
X21022478Y-20519023D01*
X21022478Y-20519023D02*
X21032002Y-20509499D01*
X21032002Y-20509499D02*
X21041526Y-20490452D01*
X21041526Y-20490452D02*
X21041526Y-20442833D01*
X21041526Y-20442833D02*
X21032002Y-20423785D01*
X21032002Y-20423785D02*
X21022478Y-20414261D01*
X21022478Y-20414261D02*
X21003431Y-20404738D01*
X21003431Y-20404738D02*
X20965335Y-20404738D01*
X20965335Y-20404738D02*
X20946288Y-20414261D01*
X20946288Y-20414261D02*
X20936764Y-20423785D01*
X20936764Y-20423785D02*
X20927240Y-20442833D01*
X21117716Y-20328547D02*
X21117716Y-20366642D01*
X21193907Y-20328547D02*
X21193907Y-20366642D01*
X21456764Y-20604738D02*
X21447240Y-20595214D01*
X21447240Y-20595214D02*
X21428192Y-20566642D01*
X21428192Y-20566642D02*
X21418669Y-20547595D01*
X21418669Y-20547595D02*
X21409145Y-20519023D01*
X21409145Y-20519023D02*
X21399621Y-20471404D01*
X21399621Y-20471404D02*
X21399621Y-20433309D01*
X21399621Y-20433309D02*
X21409145Y-20385690D01*
X21409145Y-20385690D02*
X21418669Y-20357119D01*
X21418669Y-20357119D02*
X21428192Y-20338071D01*
X21428192Y-20338071D02*
X21447240Y-20309499D01*
X21447240Y-20309499D02*
X21456764Y-20299976D01*
X21523431Y-20347595D02*
X21532954Y-20338071D01*
X21532954Y-20338071D02*
X21552002Y-20328547D01*
X21552002Y-20328547D02*
X21599621Y-20328547D01*
X21599621Y-20328547D02*
X21618669Y-20338071D01*
X21618669Y-20338071D02*
X21628192Y-20347595D01*
X21628192Y-20347595D02*
X21637716Y-20366642D01*
X21637716Y-20366642D02*
X21637716Y-20385690D01*
X21637716Y-20385690D02*
X21628192Y-20414261D01*
X21628192Y-20414261D02*
X21513907Y-20528547D01*
X21513907Y-20528547D02*
X21637716Y-20528547D01*
X21843431Y-20528547D02*
X21843431Y-20328547D01*
X21929145Y-20528547D02*
X21929145Y-20423785D01*
X21929145Y-20423785D02*
X21919621Y-20404738D01*
X21919621Y-20404738D02*
X21900573Y-20395214D01*
X21900573Y-20395214D02*
X21872002Y-20395214D01*
X21872002Y-20395214D02*
X21852954Y-20404738D01*
X21852954Y-20404738D02*
X21843431Y-20414261D01*
X22052954Y-20528547D02*
X22033907Y-20519023D01*
X22033907Y-20519023D02*
X22024383Y-20509499D01*
X22024383Y-20509499D02*
X22014859Y-20490452D01*
X22014859Y-20490452D02*
X22014859Y-20433309D01*
X22014859Y-20433309D02*
X22024383Y-20414261D01*
X22024383Y-20414261D02*
X22033907Y-20404738D01*
X22033907Y-20404738D02*
X22052954Y-20395214D01*
X22052954Y-20395214D02*
X22081526Y-20395214D01*
X22081526Y-20395214D02*
X22100573Y-20404738D01*
X22100573Y-20404738D02*
X22110097Y-20414261D01*
X22110097Y-20414261D02*
X22119621Y-20433309D01*
X22119621Y-20433309D02*
X22119621Y-20490452D01*
X22119621Y-20490452D02*
X22110097Y-20509499D01*
X22110097Y-20509499D02*
X22100573Y-20519023D01*
X22100573Y-20519023D02*
X22081526Y-20528547D01*
X22081526Y-20528547D02*
X22052954Y-20528547D01*
X22233907Y-20528547D02*
X22214859Y-20519023D01*
X22214859Y-20519023D02*
X22205335Y-20499976D01*
X22205335Y-20499976D02*
X22205335Y-20328547D01*
X22386288Y-20519023D02*
X22367240Y-20528547D01*
X22367240Y-20528547D02*
X22329145Y-20528547D01*
X22329145Y-20528547D02*
X22310097Y-20519023D01*
X22310097Y-20519023D02*
X22300573Y-20499976D01*
X22300573Y-20499976D02*
X22300573Y-20423785D01*
X22300573Y-20423785D02*
X22310097Y-20404738D01*
X22310097Y-20404738D02*
X22329145Y-20395214D01*
X22329145Y-20395214D02*
X22367240Y-20395214D01*
X22367240Y-20395214D02*
X22386288Y-20404738D01*
X22386288Y-20404738D02*
X22395811Y-20423785D01*
X22395811Y-20423785D02*
X22395811Y-20442833D01*
X22395811Y-20442833D02*
X22300573Y-20461880D01*
X22472002Y-20519023D02*
X22491050Y-20528547D01*
X22491050Y-20528547D02*
X22529145Y-20528547D01*
X22529145Y-20528547D02*
X22548192Y-20519023D01*
X22548192Y-20519023D02*
X22557716Y-20499976D01*
X22557716Y-20499976D02*
X22557716Y-20490452D01*
X22557716Y-20490452D02*
X22548192Y-20471404D01*
X22548192Y-20471404D02*
X22529145Y-20461880D01*
X22529145Y-20461880D02*
X22500573Y-20461880D01*
X22500573Y-20461880D02*
X22481526Y-20452357D01*
X22481526Y-20452357D02*
X22472002Y-20433309D01*
X22472002Y-20433309D02*
X22472002Y-20423785D01*
X22472002Y-20423785D02*
X22481526Y-20404738D01*
X22481526Y-20404738D02*
X22500573Y-20395214D01*
X22500573Y-20395214D02*
X22529145Y-20395214D01*
X22529145Y-20395214D02*
X22548192Y-20404738D01*
X22624383Y-20604738D02*
X22633907Y-20595214D01*
X22633907Y-20595214D02*
X22652954Y-20566642D01*
X22652954Y-20566642D02*
X22662478Y-20547595D01*
X22662478Y-20547595D02*
X22672002Y-20519023D01*
X22672002Y-20519023D02*
X22681526Y-20471404D01*
X22681526Y-20471404D02*
X22681526Y-20433309D01*
X22681526Y-20433309D02*
X22672002Y-20385690D01*
X22672002Y-20385690D02*
X22662478Y-20357119D01*
X22662478Y-20357119D02*
X22652954Y-20338071D01*
X22652954Y-20338071D02*
X22633907Y-20309499D01*
X22633907Y-20309499D02*
X22624383Y-20299976D01*
X22953907Y-20604738D02*
X22944383Y-20595214D01*
X22944383Y-20595214D02*
X22925335Y-20566642D01*
X22925335Y-20566642D02*
X22915811Y-20547595D01*
X22915811Y-20547595D02*
X22906288Y-20519023D01*
X22906288Y-20519023D02*
X22896764Y-20471404D01*
X22896764Y-20471404D02*
X22896764Y-20433309D01*
X22896764Y-20433309D02*
X22906288Y-20385690D01*
X22906288Y-20385690D02*
X22915811Y-20357119D01*
X22915811Y-20357119D02*
X22925335Y-20338071D01*
X22925335Y-20338071D02*
X22944383Y-20309499D01*
X22944383Y-20309499D02*
X22953907Y-20299976D01*
X23030097Y-20395214D02*
X23030097Y-20528547D01*
X23030097Y-20414261D02*
X23039621Y-20404738D01*
X23039621Y-20404738D02*
X23058669Y-20395214D01*
X23058669Y-20395214D02*
X23087240Y-20395214D01*
X23087240Y-20395214D02*
X23106288Y-20404738D01*
X23106288Y-20404738D02*
X23115811Y-20423785D01*
X23115811Y-20423785D02*
X23115811Y-20528547D01*
X23239621Y-20528547D02*
X23220573Y-20519023D01*
X23220573Y-20519023D02*
X23211050Y-20509499D01*
X23211050Y-20509499D02*
X23201526Y-20490452D01*
X23201526Y-20490452D02*
X23201526Y-20433309D01*
X23201526Y-20433309D02*
X23211050Y-20414261D01*
X23211050Y-20414261D02*
X23220573Y-20404738D01*
X23220573Y-20404738D02*
X23239621Y-20395214D01*
X23239621Y-20395214D02*
X23268192Y-20395214D01*
X23268192Y-20395214D02*
X23287240Y-20404738D01*
X23287240Y-20404738D02*
X23296764Y-20414261D01*
X23296764Y-20414261D02*
X23306288Y-20433309D01*
X23306288Y-20433309D02*
X23306288Y-20490452D01*
X23306288Y-20490452D02*
X23296764Y-20509499D01*
X23296764Y-20509499D02*
X23287240Y-20519023D01*
X23287240Y-20519023D02*
X23268192Y-20528547D01*
X23268192Y-20528547D02*
X23239621Y-20528547D01*
X23363431Y-20395214D02*
X23439621Y-20395214D01*
X23392002Y-20328547D02*
X23392002Y-20499976D01*
X23392002Y-20499976D02*
X23401526Y-20519023D01*
X23401526Y-20519023D02*
X23420573Y-20528547D01*
X23420573Y-20528547D02*
X23439621Y-20528547D01*
X23626288Y-20395214D02*
X23626288Y-20595214D01*
X23626288Y-20404738D02*
X23645335Y-20395214D01*
X23645335Y-20395214D02*
X23683431Y-20395214D01*
X23683431Y-20395214D02*
X23702478Y-20404738D01*
X23702478Y-20404738D02*
X23712002Y-20414261D01*
X23712002Y-20414261D02*
X23721526Y-20433309D01*
X23721526Y-20433309D02*
X23721526Y-20490452D01*
X23721526Y-20490452D02*
X23712002Y-20509499D01*
X23712002Y-20509499D02*
X23702478Y-20519023D01*
X23702478Y-20519023D02*
X23683431Y-20528547D01*
X23683431Y-20528547D02*
X23645335Y-20528547D01*
X23645335Y-20528547D02*
X23626288Y-20519023D01*
X23835811Y-20528547D02*
X23816764Y-20519023D01*
X23816764Y-20519023D02*
X23807240Y-20499976D01*
X23807240Y-20499976D02*
X23807240Y-20328547D01*
X23997716Y-20528547D02*
X23997716Y-20423785D01*
X23997716Y-20423785D02*
X23988192Y-20404738D01*
X23988192Y-20404738D02*
X23969145Y-20395214D01*
X23969145Y-20395214D02*
X23931050Y-20395214D01*
X23931050Y-20395214D02*
X23912002Y-20404738D01*
X23997716Y-20519023D02*
X23978669Y-20528547D01*
X23978669Y-20528547D02*
X23931050Y-20528547D01*
X23931050Y-20528547D02*
X23912002Y-20519023D01*
X23912002Y-20519023D02*
X23902478Y-20499976D01*
X23902478Y-20499976D02*
X23902478Y-20480928D01*
X23902478Y-20480928D02*
X23912002Y-20461880D01*
X23912002Y-20461880D02*
X23931050Y-20452357D01*
X23931050Y-20452357D02*
X23978669Y-20452357D01*
X23978669Y-20452357D02*
X23997716Y-20442833D01*
X24064383Y-20395214D02*
X24140573Y-20395214D01*
X24092954Y-20328547D02*
X24092954Y-20499976D01*
X24092954Y-20499976D02*
X24102478Y-20519023D01*
X24102478Y-20519023D02*
X24121526Y-20528547D01*
X24121526Y-20528547D02*
X24140573Y-20528547D01*
X24283431Y-20519023D02*
X24264383Y-20528547D01*
X24264383Y-20528547D02*
X24226288Y-20528547D01*
X24226288Y-20528547D02*
X24207240Y-20519023D01*
X24207240Y-20519023D02*
X24197716Y-20499976D01*
X24197716Y-20499976D02*
X24197716Y-20423785D01*
X24197716Y-20423785D02*
X24207240Y-20404738D01*
X24207240Y-20404738D02*
X24226288Y-20395214D01*
X24226288Y-20395214D02*
X24264383Y-20395214D01*
X24264383Y-20395214D02*
X24283431Y-20404738D01*
X24283431Y-20404738D02*
X24292954Y-20423785D01*
X24292954Y-20423785D02*
X24292954Y-20442833D01*
X24292954Y-20442833D02*
X24197716Y-20461880D01*
X24464383Y-20528547D02*
X24464383Y-20328547D01*
X24464383Y-20519023D02*
X24445335Y-20528547D01*
X24445335Y-20528547D02*
X24407240Y-20528547D01*
X24407240Y-20528547D02*
X24388192Y-20519023D01*
X24388192Y-20519023D02*
X24378669Y-20509499D01*
X24378669Y-20509499D02*
X24369145Y-20490452D01*
X24369145Y-20490452D02*
X24369145Y-20433309D01*
X24369145Y-20433309D02*
X24378669Y-20414261D01*
X24378669Y-20414261D02*
X24388192Y-20404738D01*
X24388192Y-20404738D02*
X24407240Y-20395214D01*
X24407240Y-20395214D02*
X24445335Y-20395214D01*
X24445335Y-20395214D02*
X24464383Y-20404738D01*
X24540573Y-20604738D02*
X24550097Y-20595214D01*
X24550097Y-20595214D02*
X24569145Y-20566642D01*
X24569145Y-20566642D02*
X24578669Y-20547595D01*
X24578669Y-20547595D02*
X24588192Y-20519023D01*
X24588192Y-20519023D02*
X24597716Y-20471404D01*
X24597716Y-20471404D02*
X24597716Y-20433309D01*
X24597716Y-20433309D02*
X24588192Y-20385690D01*
X24588192Y-20385690D02*
X24578669Y-20357119D01*
X24578669Y-20357119D02*
X24569145Y-20338071D01*
X24569145Y-20338071D02*
X24550097Y-20309499D01*
X24550097Y-20309499D02*
X24540573Y-20299976D01*
M02*
