G04 #@! TF.GenerationSoftware,KiCad,Pcbnew,(7.0.0)*
G04 #@! TF.CreationDate,2023-09-25T00:06:07+02:00*
G04 #@! TF.ProjectId,FC Control board 1.0,46432043-6f6e-4747-926f-6c20626f6172,rev?*
G04 #@! TF.SameCoordinates,Original*
G04 #@! TF.FileFunction,Copper,L2,Bot*
G04 #@! TF.FilePolarity,Positive*
%FSLAX46Y46*%
G04 Gerber Fmt 4.6, Leading zero omitted, Abs format (unit mm)*
G04 Created by KiCad (PCBNEW (7.0.0)) date 2023-09-25 00:06:07*
%MOMM*%
%LPD*%
G01*
G04 APERTURE LIST*
G04 Aperture macros list*
%AMRoundRect*
0 Rectangle with rounded corners*
0 $1 Rounding radius*
0 $2 $3 $4 $5 $6 $7 $8 $9 X,Y pos of 4 corners*
0 Add a 4 corners polygon primitive as box body*
4,1,4,$2,$3,$4,$5,$6,$7,$8,$9,$2,$3,0*
0 Add four circle primitives for the rounded corners*
1,1,$1+$1,$2,$3*
1,1,$1+$1,$4,$5*
1,1,$1+$1,$6,$7*
1,1,$1+$1,$8,$9*
0 Add four rect primitives between the rounded corners*
20,1,$1+$1,$2,$3,$4,$5,0*
20,1,$1+$1,$4,$5,$6,$7,0*
20,1,$1+$1,$6,$7,$8,$9,0*
20,1,$1+$1,$8,$9,$2,$3,0*%
%AMFreePoly0*
4,1,19,0.550000,-0.750000,0.000000,-0.750000,0.000000,-0.744911,-0.071157,-0.744911,-0.207708,-0.704816,-0.327430,-0.627875,-0.420627,-0.520320,-0.479746,-0.390866,-0.500000,-0.250000,-0.500000,0.250000,-0.479746,0.390866,-0.420627,0.520320,-0.327430,0.627875,-0.207708,0.704816,-0.071157,0.744911,0.000000,0.744911,0.000000,0.750000,0.550000,0.750000,0.550000,-0.750000,0.550000,-0.750000,
$1*%
%AMFreePoly1*
4,1,19,0.000000,0.744911,0.071157,0.744911,0.207708,0.704816,0.327430,0.627875,0.420627,0.520320,0.479746,0.390866,0.500000,0.250000,0.500000,-0.250000,0.479746,-0.390866,0.420627,-0.520320,0.327430,-0.627875,0.207708,-0.704816,0.071157,-0.744911,0.000000,-0.744911,0.000000,-0.750000,-0.550000,-0.750000,-0.550000,0.750000,0.000000,0.750000,0.000000,0.744911,0.000000,0.744911,
$1*%
G04 Aperture macros list end*
G04 #@! TA.AperFunction,ComponentPad*
%ADD10O,1.700000X2.000000*%
G04 #@! TD*
G04 #@! TA.AperFunction,ComponentPad*
%ADD11RoundRect,0.250000X-0.600000X-0.750000X0.600000X-0.750000X0.600000X0.750000X-0.600000X0.750000X0*%
G04 #@! TD*
G04 #@! TA.AperFunction,ComponentPad*
%ADD12R,1.700000X1.700000*%
G04 #@! TD*
G04 #@! TA.AperFunction,ComponentPad*
%ADD13O,1.700000X1.700000*%
G04 #@! TD*
G04 #@! TA.AperFunction,ComponentPad*
%ADD14O,2.100000X1.000000*%
G04 #@! TD*
G04 #@! TA.AperFunction,ComponentPad*
%ADD15O,1.600000X1.000000*%
G04 #@! TD*
G04 #@! TA.AperFunction,ComponentPad*
%ADD16RoundRect,0.250000X0.750000X-0.600000X0.750000X0.600000X-0.750000X0.600000X-0.750000X-0.600000X0*%
G04 #@! TD*
G04 #@! TA.AperFunction,ComponentPad*
%ADD17O,2.000000X1.700000*%
G04 #@! TD*
G04 #@! TA.AperFunction,SMDPad,CuDef*
%ADD18FreePoly0,270.000000*%
G04 #@! TD*
G04 #@! TA.AperFunction,SMDPad,CuDef*
%ADD19R,1.500000X1.000000*%
G04 #@! TD*
G04 #@! TA.AperFunction,SMDPad,CuDef*
%ADD20FreePoly1,270.000000*%
G04 #@! TD*
G04 #@! TA.AperFunction,ViaPad*
%ADD21C,0.800000*%
G04 #@! TD*
G04 #@! TA.AperFunction,Conductor*
%ADD22C,0.250000*%
G04 #@! TD*
G04 #@! TA.AperFunction,Conductor*
%ADD23C,0.400000*%
G04 #@! TD*
G04 APERTURE END LIST*
G36*
X212782000Y-147246000D02*
G01*
X212182000Y-147246000D01*
X212182000Y-146746000D01*
X212782000Y-146746000D01*
X212782000Y-147246000D01*
G37*
D10*
X222789598Y-136959499D03*
D11*
X220289599Y-136959500D03*
X220311000Y-157279500D03*
D10*
X222810999Y-157279499D03*
D12*
X212989999Y-185491999D03*
D13*
X212989999Y-182951999D03*
X212989999Y-180411999D03*
X212989999Y-177871999D03*
D11*
X190466000Y-157279500D03*
D10*
X192965999Y-157279499D03*
D11*
X190466000Y-136959500D03*
D10*
X192965999Y-136959499D03*
D14*
X219317999Y-182033999D03*
D15*
X223497999Y-182033999D03*
D14*
X219317999Y-173393999D03*
D15*
X223497999Y-173393999D03*
D16*
X222596000Y-124004000D03*
D17*
X222595999Y-121503999D03*
D12*
X188884999Y-182966999D03*
D13*
X188884999Y-185506999D03*
X188884999Y-188046999D03*
D18*
X212482000Y-146346000D03*
D19*
X212481999Y-147645999D03*
D20*
X212482000Y-148946000D03*
D21*
X212736000Y-129866000D03*
X203592000Y-129104000D03*
X214768000Y-173554000D03*
X207386000Y-165328000D03*
X220864000Y-160346000D03*
X198766000Y-173808000D03*
X194702000Y-190064000D03*
X202322000Y-183460000D03*
X209434000Y-189810000D03*
X212482000Y-158060000D03*
X221118000Y-140026000D03*
X204862000Y-183460000D03*
X209092859Y-133509141D03*
X218324000Y-171014000D03*
X206894000Y-129104000D03*
X212736000Y-196160000D03*
X194448000Y-119452000D03*
X202322000Y-181174000D03*
X204862000Y-181174000D03*
X216038000Y-194382000D03*
X194956000Y-129104000D03*
X216292000Y-129866000D03*
X191146000Y-140280000D03*
X213244000Y-123008000D03*
X202830000Y-119706000D03*
X201306000Y-176094000D03*
X191146000Y-160600000D03*
X198258000Y-129104000D03*
X202777359Y-144826539D03*
X193555500Y-145360000D03*
X196226000Y-160092000D03*
X222134000Y-165934000D03*
X196480000Y-137994000D03*
X204985834Y-124160498D03*
X213752000Y-124786000D03*
X206386000Y-123262000D03*
X196988000Y-137486000D03*
X214514000Y-125294000D03*
X194194000Y-160092000D03*
X204100000Y-123770000D03*
X215784000Y-123008000D03*
X208672000Y-167712000D03*
X193555500Y-143836000D03*
X195210000Y-160092000D03*
X215608832Y-123945168D03*
X206894000Y-122500000D03*
X197496000Y-136978000D03*
X193555500Y-144598000D03*
X214260000Y-187778000D03*
X214278722Y-174805278D03*
X214006000Y-190064000D03*
X214768000Y-172284000D03*
X220864000Y-172538000D03*
X208164000Y-131478746D03*
X213968000Y-165718000D03*
X199274000Y-118944000D03*
X206894000Y-139518000D03*
X208164000Y-191477700D03*
X214006000Y-164156000D03*
X210196000Y-118944000D03*
X211715701Y-189297701D03*
X194956000Y-123770000D03*
X213955000Y-148116000D03*
X194956000Y-188540000D03*
X211720000Y-172030000D03*
X210704000Y-172030000D03*
X211212000Y-140026000D03*
X208164000Y-155520000D03*
X194956000Y-187270000D03*
X215784000Y-170252000D03*
X207910000Y-170252000D03*
X216546000Y-171014000D03*
X208672000Y-171014000D03*
X198761701Y-190068299D03*
X210704000Y-181174000D03*
X206640000Y-173300000D03*
X205624000Y-166696000D03*
X202830000Y-140026000D03*
X205870396Y-151463604D03*
X212482000Y-190826000D03*
X211720000Y-187016000D03*
X217089099Y-142528000D03*
X216368000Y-142528000D03*
X220686000Y-142782000D03*
X219924000Y-142728500D03*
X199858000Y-141512000D03*
X199252590Y-142117410D03*
X196978926Y-142105074D03*
X196302000Y-141258000D03*
X216292000Y-143582000D03*
X217054000Y-143582000D03*
X194956000Y-163140000D03*
X195680500Y-175147636D03*
X194956000Y-165934000D03*
X194956000Y-174316000D03*
X224674000Y-142820000D03*
X207910000Y-168802500D03*
X226198000Y-147392000D03*
X208672000Y-169490000D03*
D22*
X216038000Y-194382000D02*
X214260000Y-196160000D01*
X195210000Y-129104000D02*
X195464000Y-128850000D01*
X214260000Y-196160000D02*
X212736000Y-196160000D01*
X207277000Y-192479000D02*
X209434000Y-192479000D01*
X194956000Y-129104000D02*
X195210000Y-129104000D01*
X207148000Y-192350000D02*
X207277000Y-192479000D01*
D23*
X193555500Y-145360000D02*
X193555500Y-144598000D01*
X194194000Y-160092000D02*
X194216000Y-160070000D01*
X215784000Y-123008000D02*
X215608832Y-123183168D01*
X194216000Y-160070000D02*
X194216000Y-146020500D01*
X214514000Y-125294000D02*
X214260000Y-125294000D01*
X193555500Y-144598000D02*
X193555500Y-143836000D01*
X204985834Y-124160498D02*
X205884332Y-123262000D01*
X215608832Y-123183168D02*
X215608832Y-123945168D01*
X194194000Y-160092000D02*
X195210000Y-160092000D01*
X215784000Y-123008000D02*
X214006000Y-124786000D01*
X214006000Y-124786000D02*
X213752000Y-124786000D01*
X193555500Y-143836000D02*
X193555500Y-140918500D01*
X196480000Y-137994000D02*
X197496000Y-136978000D01*
X214260000Y-125294000D02*
X213752000Y-124786000D01*
X194216000Y-146020500D02*
X193555500Y-145360000D01*
X193555500Y-140918500D02*
X196226000Y-138248000D01*
X195210000Y-160092000D02*
X196226000Y-160092000D01*
X220356000Y-167712000D02*
X222134000Y-165934000D01*
X208672000Y-167712000D02*
X220356000Y-167712000D01*
X205884332Y-123262000D02*
X206386000Y-123262000D01*
D22*
X220864000Y-172538000D02*
X215022000Y-172538000D01*
D23*
X212482000Y-138756000D02*
X212482000Y-146346000D01*
X215022000Y-164664000D02*
X215022000Y-148051629D01*
X214278722Y-188173778D02*
X214006000Y-188446500D01*
X214006000Y-188446500D02*
X214006000Y-190064000D01*
X213968000Y-165718000D02*
X215022000Y-164664000D01*
X208164000Y-131478746D02*
X208164000Y-134438000D01*
D22*
X215022000Y-172538000D02*
X214768000Y-172284000D01*
D23*
X214278722Y-174805278D02*
X214278722Y-188173778D01*
X208164000Y-134438000D02*
X212482000Y-138756000D01*
X215022000Y-148051629D02*
X213316371Y-146346000D01*
X213316371Y-146346000D02*
X212482000Y-146346000D01*
D22*
X209535702Y-191477700D02*
X211715701Y-189297701D01*
D23*
X207832629Y-156320000D02*
X208634000Y-156320000D01*
X199312000Y-118906000D02*
X199274000Y-118944000D01*
X214006000Y-164156000D02*
X214006000Y-150470000D01*
X210196000Y-118944000D02*
X210158000Y-118906000D01*
X208634000Y-156320000D02*
X212482000Y-152472000D01*
X194956000Y-123262000D02*
X194956000Y-123770000D01*
X210158000Y-118906000D02*
X199312000Y-118906000D01*
X212482000Y-152472000D02*
X212482000Y-148946000D01*
X206894000Y-139518000D02*
X206894000Y-155381371D01*
X206894000Y-155381371D02*
X207832629Y-156320000D01*
X214006000Y-150470000D02*
X212482000Y-148946000D01*
X199274000Y-118944000D02*
X194956000Y-123262000D01*
D22*
X208164000Y-191477700D02*
X209535702Y-191477700D01*
X212482000Y-147646000D02*
X213485000Y-147646000D01*
X213485000Y-147646000D02*
X213955000Y-148116000D01*
X195406000Y-179962000D02*
X200544000Y-174824000D01*
X200544000Y-174824000D02*
X208935305Y-174824000D01*
X194956000Y-188540000D02*
X195681000Y-187815000D01*
X195406000Y-186508000D02*
X195406000Y-179962000D01*
X195681000Y-187815000D02*
X195681000Y-186783000D01*
X208935305Y-174824000D02*
X211720000Y-172039305D01*
X211720000Y-172039305D02*
X211720000Y-172030000D01*
X195681000Y-186783000D02*
X195406000Y-186508000D01*
X200357604Y-174374000D02*
X194956000Y-179775604D01*
X208672000Y-140026000D02*
X211212000Y-140026000D01*
X208360000Y-174374000D02*
X200357604Y-174374000D01*
X194956000Y-179775604D02*
X194956000Y-187270000D01*
X208164000Y-140534000D02*
X208672000Y-140026000D01*
X208164000Y-155520000D02*
X208164000Y-140534000D01*
X210704000Y-172030000D02*
X208360000Y-174374000D01*
X207910000Y-170252000D02*
X215784000Y-170252000D01*
X208672000Y-171014000D02*
X216546000Y-171014000D01*
X210704000Y-186000000D02*
X210704000Y-181174000D01*
X198761701Y-190068299D02*
X198766000Y-190064000D01*
X198766000Y-190064000D02*
X206640000Y-190064000D01*
X206640000Y-190064000D02*
X210704000Y-186000000D01*
X206640000Y-173300000D02*
X206640000Y-167712000D01*
X206640000Y-167712000D02*
X205624000Y-166696000D01*
X205878000Y-140280000D02*
X205624000Y-140026000D01*
X205870396Y-151463604D02*
X205878000Y-151456000D01*
X205878000Y-151456000D02*
X205878000Y-140280000D01*
X205624000Y-140026000D02*
X202830000Y-140026000D01*
X212482000Y-187778000D02*
X212482000Y-190826000D01*
X211720000Y-187016000D02*
X212482000Y-187778000D01*
D23*
X219924000Y-142728500D02*
X219540500Y-142728500D01*
X216368000Y-142528000D02*
X219340000Y-142528000D01*
X220432000Y-142528000D02*
X220686000Y-142782000D01*
X219540500Y-142728500D02*
X219340000Y-142528000D01*
X219340000Y-142528000D02*
X220432000Y-142528000D01*
X196978926Y-142105074D02*
X199240254Y-142105074D01*
X199240254Y-142105074D02*
X199252590Y-142117410D01*
X199252590Y-142117410D02*
X199858000Y-141512000D01*
X196302000Y-141258000D02*
X196302000Y-141428148D01*
X196302000Y-141428148D02*
X196978926Y-142105074D01*
X216292000Y-143582000D02*
X221017371Y-143582000D01*
X222789599Y-141809772D02*
X222789599Y-136959500D01*
X221017371Y-143582000D02*
X222789599Y-141809772D01*
D22*
X195680500Y-175147636D02*
X195680500Y-163864500D01*
X195680500Y-163864500D02*
X194956000Y-163140000D01*
X194956000Y-174316000D02*
X194956000Y-165934000D01*
X225473000Y-143619000D02*
X225473000Y-147937000D01*
X225944000Y-168474000D02*
X225653000Y-168765000D01*
X224674000Y-142820000D02*
X225473000Y-143619000D01*
X225473000Y-147937000D02*
X225944000Y-148408000D01*
X225944000Y-148408000D02*
X225944000Y-168474000D01*
X207947500Y-168765000D02*
X207910000Y-168802500D01*
X225653000Y-168765000D02*
X207947500Y-168765000D01*
X215263535Y-169490000D02*
X216409006Y-169490000D01*
X225944000Y-169490000D02*
X226452000Y-168982000D01*
X216409006Y-169490000D02*
X225944000Y-169490000D01*
X226452000Y-147646000D02*
X226198000Y-147392000D01*
X208672000Y-169490000D02*
X215263535Y-169490000D01*
X226452000Y-168982000D02*
X226452000Y-147646000D01*
G04 #@! TA.AperFunction,Conductor*
G36*
X214555592Y-99677747D02*
G01*
X214560858Y-99678039D01*
X214577914Y-99678986D01*
X214580092Y-99679126D01*
X214806590Y-99695916D01*
X214817958Y-99697290D01*
X214900809Y-99711220D01*
X214907542Y-99712545D01*
X215075628Y-99750506D01*
X215082239Y-99752193D01*
X215163058Y-99775228D01*
X215173915Y-99778875D01*
X215386439Y-99861379D01*
X215388386Y-99862155D01*
X215408104Y-99870232D01*
X215414359Y-99873000D01*
X225815879Y-104824246D01*
X225822772Y-104827795D01*
X225874781Y-104856673D01*
X225875538Y-104857097D01*
X226041763Y-104951102D01*
X226053979Y-104958990D01*
X226138093Y-105020581D01*
X226140421Y-105022328D01*
X226255786Y-105111034D01*
X226265375Y-105119215D01*
X226347314Y-105196658D01*
X226350773Y-105200058D01*
X226446748Y-105298152D01*
X226453869Y-105306085D01*
X226527382Y-105395441D01*
X226531535Y-105400781D01*
X226611285Y-105509322D01*
X226616203Y-105516535D01*
X226678394Y-105615018D01*
X226682792Y-105622557D01*
X226746509Y-105741199D01*
X226749556Y-105747266D01*
X226798640Y-105852045D01*
X226802746Y-105861891D01*
X226850066Y-105990712D01*
X226851648Y-105995296D01*
X226886352Y-106102555D01*
X226889618Y-106114730D01*
X226920123Y-106257000D01*
X226920700Y-106259854D01*
X226940166Y-106362319D01*
X226942037Y-106376734D01*
X226955396Y-106566059D01*
X226955461Y-106567032D01*
X226959257Y-106627609D01*
X226959500Y-106635364D01*
X226959500Y-146588820D01*
X226941227Y-146653610D01*
X226891795Y-146699305D01*
X226825771Y-146712438D01*
X226762615Y-146689138D01*
X226655988Y-146611669D01*
X226655987Y-146611668D01*
X226650730Y-146607849D01*
X226607991Y-146588820D01*
X226483745Y-146533501D01*
X226483740Y-146533499D01*
X226477803Y-146530856D01*
X226471444Y-146529504D01*
X226471440Y-146529503D01*
X226299008Y-146492852D01*
X226299005Y-146492851D01*
X226292646Y-146491500D01*
X226222500Y-146491500D01*
X226160500Y-146474887D01*
X226115113Y-146429500D01*
X226098500Y-146367500D01*
X226098500Y-143696775D01*
X226099021Y-143685719D01*
X226100673Y-143678333D01*
X226098561Y-143611113D01*
X226098500Y-143607219D01*
X226098500Y-143583542D01*
X226098500Y-143579650D01*
X226097998Y-143575683D01*
X226097081Y-143564026D01*
X226095710Y-143520373D01*
X226090118Y-143501128D01*
X226086174Y-143482083D01*
X226083664Y-143462208D01*
X226067579Y-143421583D01*
X226063806Y-143410562D01*
X226051618Y-143368610D01*
X226041417Y-143351360D01*
X226032863Y-143333901D01*
X226025486Y-143315268D01*
X225999808Y-143279925D01*
X225993401Y-143270171D01*
X225975142Y-143239296D01*
X225975141Y-143239294D01*
X225971170Y-143232580D01*
X225957005Y-143218415D01*
X225944370Y-143203622D01*
X225932594Y-143187413D01*
X225926583Y-143182440D01*
X225926581Y-143182438D01*
X225898941Y-143159573D01*
X225890300Y-143151710D01*
X225612961Y-142874370D01*
X225588721Y-142840072D01*
X225577321Y-142799650D01*
X225575830Y-142785467D01*
X225559674Y-142631744D01*
X225501179Y-142451716D01*
X225406533Y-142287784D01*
X225391892Y-142271524D01*
X225284220Y-142151942D01*
X225284219Y-142151941D01*
X225279871Y-142147112D01*
X225274613Y-142143292D01*
X225274611Y-142143290D01*
X225131988Y-142039669D01*
X225131987Y-142039668D01*
X225126730Y-142035849D01*
X225120792Y-142033205D01*
X224959745Y-141961501D01*
X224959740Y-141961499D01*
X224953803Y-141958856D01*
X224947444Y-141957504D01*
X224947440Y-141957503D01*
X224775008Y-141920852D01*
X224775005Y-141920851D01*
X224768646Y-141919500D01*
X224579354Y-141919500D01*
X224572995Y-141920851D01*
X224572991Y-141920852D01*
X224400559Y-141957503D01*
X224400552Y-141957505D01*
X224394197Y-141958856D01*
X224388262Y-141961498D01*
X224388254Y-141961501D01*
X224227207Y-142033205D01*
X224227202Y-142033207D01*
X224221270Y-142035849D01*
X224216016Y-142039665D01*
X224216011Y-142039669D01*
X224073388Y-142143290D01*
X224073381Y-142143295D01*
X224068129Y-142147112D01*
X224063784Y-142151937D01*
X224063779Y-142151942D01*
X223945813Y-142282956D01*
X223945808Y-142282962D01*
X223941467Y-142287784D01*
X223938222Y-142293404D01*
X223938218Y-142293410D01*
X223850069Y-142446089D01*
X223850066Y-142446094D01*
X223846821Y-142451716D01*
X223844815Y-142457888D01*
X223844813Y-142457894D01*
X223790333Y-142625564D01*
X223790331Y-142625573D01*
X223788326Y-142631744D01*
X223787648Y-142638194D01*
X223787646Y-142638204D01*
X223778794Y-142722435D01*
X223768540Y-142820000D01*
X223769219Y-142826460D01*
X223787646Y-143001795D01*
X223787647Y-143001803D01*
X223788326Y-143008256D01*
X223790331Y-143014428D01*
X223790333Y-143014435D01*
X223837492Y-143159573D01*
X223846821Y-143188284D01*
X223850068Y-143193908D01*
X223850069Y-143193910D01*
X223930887Y-143333892D01*
X223941467Y-143352216D01*
X223945811Y-143357041D01*
X223945813Y-143357043D01*
X224045464Y-143467716D01*
X224068129Y-143492888D01*
X224221270Y-143604151D01*
X224394197Y-143681144D01*
X224579354Y-143720500D01*
X224638548Y-143720500D01*
X224686001Y-143729939D01*
X224726229Y-143756819D01*
X224811181Y-143841771D01*
X224838061Y-143881999D01*
X224847500Y-143929452D01*
X224847500Y-147859225D01*
X224846978Y-147870280D01*
X224845327Y-147877667D01*
X224845571Y-147885453D01*
X224845571Y-147885461D01*
X224847439Y-147944873D01*
X224847500Y-147948768D01*
X224847500Y-147976350D01*
X224847988Y-147980219D01*
X224847989Y-147980225D01*
X224848004Y-147980343D01*
X224848918Y-147991966D01*
X224850045Y-148027830D01*
X224850046Y-148027837D01*
X224850291Y-148035627D01*
X224852467Y-148043119D01*
X224852468Y-148043121D01*
X224855879Y-148054862D01*
X224859825Y-148073915D01*
X224862336Y-148093792D01*
X224865206Y-148101042D01*
X224865208Y-148101048D01*
X224878414Y-148134404D01*
X224882197Y-148145451D01*
X224894382Y-148187390D01*
X224898353Y-148194105D01*
X224898354Y-148194107D01*
X224904581Y-148204637D01*
X224913136Y-148222099D01*
X224917642Y-148233480D01*
X224917643Y-148233483D01*
X224920514Y-148240732D01*
X224942440Y-148270912D01*
X224946181Y-148276060D01*
X224952593Y-148285822D01*
X224970856Y-148316702D01*
X224970859Y-148316707D01*
X224974830Y-148323420D01*
X224980345Y-148328935D01*
X224988990Y-148337580D01*
X225001626Y-148352374D01*
X225008819Y-148362275D01*
X225008823Y-148362279D01*
X225013406Y-148368587D01*
X225019415Y-148373558D01*
X225019416Y-148373559D01*
X225047058Y-148396426D01*
X225055699Y-148404289D01*
X225282181Y-148630771D01*
X225309061Y-148670999D01*
X225318500Y-148718452D01*
X225318500Y-150162763D01*
X225304516Y-150219969D01*
X225265717Y-150264272D01*
X225210855Y-150285680D01*
X225152304Y-150279363D01*
X225103270Y-150246746D01*
X224983215Y-150116331D01*
X224983211Y-150116328D01*
X224979744Y-150112561D01*
X224783509Y-149959825D01*
X224709180Y-149919600D01*
X224569316Y-149843909D01*
X224569310Y-149843906D01*
X224564810Y-149841471D01*
X224559969Y-149839809D01*
X224559962Y-149839806D01*
X224334465Y-149762393D01*
X224334461Y-149762392D01*
X224329614Y-149760728D01*
X224298290Y-149755501D01*
X224089398Y-149720643D01*
X224089387Y-149720642D01*
X224084335Y-149719799D01*
X223835665Y-149719799D01*
X223830613Y-149720642D01*
X223830601Y-149720643D01*
X223595443Y-149759884D01*
X223595441Y-149759884D01*
X223590386Y-149760728D01*
X223585541Y-149762391D01*
X223585534Y-149762393D01*
X223360037Y-149839806D01*
X223360026Y-149839810D01*
X223355190Y-149841471D01*
X223350693Y-149843904D01*
X223350683Y-149843909D01*
X223141002Y-149957383D01*
X223140995Y-149957387D01*
X223136491Y-149959825D01*
X223132448Y-149962971D01*
X223132440Y-149962977D01*
X222944304Y-150109410D01*
X222940256Y-150112561D01*
X222936793Y-150116322D01*
X222936784Y-150116331D01*
X222775311Y-150291738D01*
X222775305Y-150291745D01*
X222771836Y-150295514D01*
X222769031Y-150299805D01*
X222769028Y-150299811D01*
X222638631Y-150499398D01*
X222638624Y-150499410D01*
X222635827Y-150503692D01*
X222633772Y-150508376D01*
X222633766Y-150508388D01*
X222594815Y-150597189D01*
X222535937Y-150731418D01*
X222534679Y-150736383D01*
X222534678Y-150736388D01*
X222476151Y-150967503D01*
X222476149Y-150967512D01*
X222474892Y-150972478D01*
X222474468Y-150977587D01*
X222474467Y-150977597D01*
X222465179Y-151089693D01*
X222454357Y-151220299D01*
X222454781Y-151225416D01*
X222474467Y-151463000D01*
X222474468Y-151463008D01*
X222474892Y-151468120D01*
X222476149Y-151473087D01*
X222476151Y-151473094D01*
X222522986Y-151658039D01*
X222535937Y-151709180D01*
X222537997Y-151713876D01*
X222633766Y-151932209D01*
X222633769Y-151932215D01*
X222635827Y-151936906D01*
X222638627Y-151941192D01*
X222638631Y-151941199D01*
X222762295Y-152130481D01*
X222771836Y-152145084D01*
X222775310Y-152148858D01*
X222775311Y-152148859D01*
X222936784Y-152324266D01*
X222936787Y-152324269D01*
X222940256Y-152328037D01*
X223136491Y-152480773D01*
X223355190Y-152599127D01*
X223590386Y-152679870D01*
X223835665Y-152720799D01*
X224079201Y-152720799D01*
X224084335Y-152720799D01*
X224329614Y-152679870D01*
X224564810Y-152599127D01*
X224783509Y-152480773D01*
X224979744Y-152328037D01*
X225103269Y-152193852D01*
X225152304Y-152161235D01*
X225210855Y-152154918D01*
X225265717Y-152176326D01*
X225304516Y-152220629D01*
X225318500Y-152277835D01*
X225318500Y-168015500D01*
X225301887Y-168077500D01*
X225256500Y-168122887D01*
X225194500Y-168139500D01*
X221218519Y-168139500D01*
X221162224Y-168125985D01*
X221118201Y-168088385D01*
X221096046Y-168034898D01*
X221100588Y-167977182D01*
X221130838Y-167927819D01*
X221656694Y-167401963D01*
X222196975Y-166861681D01*
X222225485Y-166840392D01*
X222258869Y-166828075D01*
X222413803Y-166795144D01*
X222586730Y-166718151D01*
X222739871Y-166606888D01*
X222866533Y-166466216D01*
X222961179Y-166302284D01*
X223019674Y-166122256D01*
X223039460Y-165934000D01*
X223019674Y-165745744D01*
X222961179Y-165565716D01*
X222866533Y-165401784D01*
X222739871Y-165261112D01*
X222734613Y-165257292D01*
X222734611Y-165257290D01*
X222591988Y-165153669D01*
X222591987Y-165153668D01*
X222586730Y-165149849D01*
X222580792Y-165147205D01*
X222419745Y-165075501D01*
X222419740Y-165075499D01*
X222413803Y-165072856D01*
X222407444Y-165071504D01*
X222407440Y-165071503D01*
X222235008Y-165034852D01*
X222235005Y-165034851D01*
X222228646Y-165033500D01*
X222039354Y-165033500D01*
X222032995Y-165034851D01*
X222032991Y-165034852D01*
X221860559Y-165071503D01*
X221860552Y-165071505D01*
X221854197Y-165072856D01*
X221848262Y-165075498D01*
X221848254Y-165075501D01*
X221687207Y-165147205D01*
X221687202Y-165147207D01*
X221681270Y-165149849D01*
X221676016Y-165153665D01*
X221676011Y-165153669D01*
X221533388Y-165257290D01*
X221533381Y-165257295D01*
X221528129Y-165261112D01*
X221523784Y-165265937D01*
X221523779Y-165265942D01*
X221405813Y-165396956D01*
X221405808Y-165396962D01*
X221401467Y-165401784D01*
X221398222Y-165407404D01*
X221398218Y-165407410D01*
X221310069Y-165560089D01*
X221310066Y-165560094D01*
X221306821Y-165565716D01*
X221304815Y-165571888D01*
X221304813Y-165571894D01*
X221250334Y-165739563D01*
X221248326Y-165745744D01*
X221247647Y-165752196D01*
X221247646Y-165752205D01*
X221243135Y-165795128D01*
X221231734Y-165835549D01*
X221207495Y-165869846D01*
X220102162Y-166975181D01*
X220061934Y-167002061D01*
X220014481Y-167011500D01*
X209280155Y-167011500D01*
X209241837Y-167005431D01*
X209207273Y-166987820D01*
X209124730Y-166927849D01*
X209118792Y-166925205D01*
X208957745Y-166853501D01*
X208957740Y-166853499D01*
X208951803Y-166850856D01*
X208945444Y-166849504D01*
X208945440Y-166849503D01*
X208773008Y-166812852D01*
X208773005Y-166812851D01*
X208766646Y-166811500D01*
X208577354Y-166811500D01*
X208570995Y-166812851D01*
X208570991Y-166812852D01*
X208398559Y-166849503D01*
X208398552Y-166849505D01*
X208392197Y-166850856D01*
X208386262Y-166853498D01*
X208386254Y-166853501D01*
X208225207Y-166925205D01*
X208225202Y-166925207D01*
X208219270Y-166927849D01*
X208214016Y-166931665D01*
X208214011Y-166931669D01*
X208071388Y-167035290D01*
X208071381Y-167035295D01*
X208066129Y-167039112D01*
X208061784Y-167043937D01*
X208061779Y-167043942D01*
X207943813Y-167174956D01*
X207943808Y-167174962D01*
X207939467Y-167179784D01*
X207936222Y-167185404D01*
X207936218Y-167185410D01*
X207848069Y-167338089D01*
X207848066Y-167338094D01*
X207844821Y-167343716D01*
X207842815Y-167349888D01*
X207842813Y-167349894D01*
X207788333Y-167517564D01*
X207788331Y-167517573D01*
X207786326Y-167523744D01*
X207785648Y-167530194D01*
X207785646Y-167530204D01*
X207771704Y-167662869D01*
X207766540Y-167712000D01*
X207767219Y-167718460D01*
X207767219Y-167718461D01*
X207775469Y-167796959D01*
X207767119Y-167856372D01*
X207731854Y-167904909D01*
X207677930Y-167931209D01*
X207661172Y-167934772D01*
X207636557Y-167940004D01*
X207636555Y-167940004D01*
X207630197Y-167941356D01*
X207624262Y-167943998D01*
X207624254Y-167944001D01*
X207463212Y-168015703D01*
X207463208Y-168015704D01*
X207457270Y-168018349D01*
X207452006Y-168022173D01*
X207451501Y-168022465D01*
X207389501Y-168039078D01*
X207327500Y-168022465D01*
X207282113Y-167977078D01*
X207265500Y-167915078D01*
X207265500Y-167789775D01*
X207266021Y-167778719D01*
X207267673Y-167771333D01*
X207265561Y-167704127D01*
X207265500Y-167700232D01*
X207265500Y-167676541D01*
X207265500Y-167672650D01*
X207264998Y-167668677D01*
X207264080Y-167657018D01*
X207262954Y-167621173D01*
X207262709Y-167613373D01*
X207257120Y-167594140D01*
X207253174Y-167575083D01*
X207251641Y-167562944D01*
X207250664Y-167555208D01*
X207234582Y-167514591D01*
X207230803Y-167503551D01*
X207220795Y-167469102D01*
X207220793Y-167469099D01*
X207218618Y-167461610D01*
X207208417Y-167444360D01*
X207199863Y-167426901D01*
X207192486Y-167408268D01*
X207166808Y-167372925D01*
X207160401Y-167363171D01*
X207142142Y-167332296D01*
X207142141Y-167332294D01*
X207138170Y-167325580D01*
X207124004Y-167311414D01*
X207111370Y-167296622D01*
X207099594Y-167280413D01*
X207093583Y-167275440D01*
X207093581Y-167275438D01*
X207065941Y-167252573D01*
X207057300Y-167244710D01*
X206562961Y-166750370D01*
X206538721Y-166716072D01*
X206527321Y-166675650D01*
X206510353Y-166514204D01*
X206510352Y-166514203D01*
X206509674Y-166507744D01*
X206451179Y-166327716D01*
X206356533Y-166163784D01*
X206313323Y-166115795D01*
X206234220Y-166027942D01*
X206234219Y-166027941D01*
X206229871Y-166023112D01*
X206224613Y-166019292D01*
X206224611Y-166019290D01*
X206081988Y-165915669D01*
X206081987Y-165915668D01*
X206076730Y-165911849D01*
X206070792Y-165909205D01*
X205909745Y-165837501D01*
X205909740Y-165837499D01*
X205903803Y-165834856D01*
X205897444Y-165833504D01*
X205897440Y-165833503D01*
X205725008Y-165796852D01*
X205725005Y-165796851D01*
X205718646Y-165795500D01*
X205529354Y-165795500D01*
X205522995Y-165796851D01*
X205522991Y-165796852D01*
X205350559Y-165833503D01*
X205350552Y-165833505D01*
X205344197Y-165834856D01*
X205338262Y-165837498D01*
X205338254Y-165837501D01*
X205177207Y-165909205D01*
X205177202Y-165909207D01*
X205171270Y-165911849D01*
X205166016Y-165915665D01*
X205166011Y-165915669D01*
X205023388Y-166019290D01*
X205023381Y-166019295D01*
X205018129Y-166023112D01*
X205013784Y-166027937D01*
X205013779Y-166027942D01*
X204895813Y-166158956D01*
X204895808Y-166158962D01*
X204891467Y-166163784D01*
X204888222Y-166169404D01*
X204888218Y-166169410D01*
X204800069Y-166322089D01*
X204800066Y-166322094D01*
X204796821Y-166327716D01*
X204794815Y-166333888D01*
X204794813Y-166333894D01*
X204740333Y-166501564D01*
X204740331Y-166501573D01*
X204738326Y-166507744D01*
X204737648Y-166514194D01*
X204737646Y-166514204D01*
X204726685Y-166618500D01*
X204718540Y-166696000D01*
X204719219Y-166702460D01*
X204737646Y-166877795D01*
X204737647Y-166877803D01*
X204738326Y-166884256D01*
X204740331Y-166890428D01*
X204740333Y-166890435D01*
X204776603Y-167002061D01*
X204796821Y-167064284D01*
X204891467Y-167228216D01*
X204895811Y-167233041D01*
X204895813Y-167233043D01*
X204960167Y-167304515D01*
X205018129Y-167368888D01*
X205023387Y-167372708D01*
X205023388Y-167372709D01*
X205063653Y-167401963D01*
X205171270Y-167480151D01*
X205344197Y-167557144D01*
X205529354Y-167596500D01*
X205588548Y-167596500D01*
X205636001Y-167605939D01*
X205676229Y-167632819D01*
X205978181Y-167934772D01*
X206005061Y-167975000D01*
X206014500Y-168022453D01*
X206014500Y-172601313D01*
X206006264Y-172645751D01*
X205982650Y-172684285D01*
X205911813Y-172762956D01*
X205911808Y-172762962D01*
X205907467Y-172767784D01*
X205904222Y-172773404D01*
X205904218Y-172773410D01*
X205816069Y-172926089D01*
X205816066Y-172926094D01*
X205812821Y-172931716D01*
X205810815Y-172937888D01*
X205810813Y-172937894D01*
X205756333Y-173105564D01*
X205756331Y-173105573D01*
X205754326Y-173111744D01*
X205753648Y-173118194D01*
X205753646Y-173118204D01*
X205743504Y-173214709D01*
X205734540Y-173300000D01*
X205735219Y-173306460D01*
X205753646Y-173481795D01*
X205753647Y-173481803D01*
X205754326Y-173488256D01*
X205756331Y-173494428D01*
X205756333Y-173494435D01*
X205786144Y-173586182D01*
X205790686Y-173643898D01*
X205768531Y-173697385D01*
X205724508Y-173734985D01*
X205668213Y-173748500D01*
X200435379Y-173748500D01*
X200424323Y-173747978D01*
X200416937Y-173746327D01*
X200409149Y-173746571D01*
X200409142Y-173746571D01*
X200349717Y-173748439D01*
X200345823Y-173748500D01*
X200318254Y-173748500D01*
X200314398Y-173748986D01*
X200314395Y-173748987D01*
X200314339Y-173748994D01*
X200314266Y-173749003D01*
X200302648Y-173749917D01*
X200266769Y-173751045D01*
X200266768Y-173751045D01*
X200258977Y-173751290D01*
X200251492Y-173753464D01*
X200251488Y-173753465D01*
X200239729Y-173756881D01*
X200220691Y-173760823D01*
X200208553Y-173762357D01*
X200208545Y-173762358D01*
X200200812Y-173763336D01*
X200193564Y-173766205D01*
X200193558Y-173766207D01*
X200160201Y-173779413D01*
X200149158Y-173783194D01*
X200114704Y-173793205D01*
X200114698Y-173793207D01*
X200107214Y-173795382D01*
X200100502Y-173799351D01*
X200100500Y-173799352D01*
X200089968Y-173805580D01*
X200072508Y-173814134D01*
X200061123Y-173818642D01*
X200061117Y-173818644D01*
X200053872Y-173821514D01*
X200047567Y-173826094D01*
X200047559Y-173826099D01*
X200018536Y-173847185D01*
X200008778Y-173853595D01*
X199977900Y-173871857D01*
X199977894Y-173871861D01*
X199971184Y-173875830D01*
X199965671Y-173881341D01*
X199965664Y-173881348D01*
X199957014Y-173889998D01*
X199942231Y-173902624D01*
X199932330Y-173909817D01*
X199932320Y-173909826D01*
X199926017Y-173914406D01*
X199921048Y-173920411D01*
X199921045Y-173920415D01*
X199898176Y-173948059D01*
X199890315Y-173956697D01*
X194568696Y-179278315D01*
X194560511Y-179285763D01*
X194554123Y-179289818D01*
X194548788Y-179295498D01*
X194548783Y-179295503D01*
X194508096Y-179338829D01*
X194505392Y-179341620D01*
X194488628Y-179358384D01*
X194488621Y-179358391D01*
X194485880Y-179361133D01*
X194483500Y-179364200D01*
X194483489Y-179364213D01*
X194483400Y-179364329D01*
X194475842Y-179373174D01*
X194451280Y-179399331D01*
X194451273Y-179399340D01*
X194445938Y-179405022D01*
X194442182Y-179411853D01*
X194442179Y-179411858D01*
X194436285Y-179422579D01*
X194425609Y-179438831D01*
X194418109Y-179448500D01*
X194418101Y-179448511D01*
X194413327Y-179454668D01*
X194410234Y-179461812D01*
X194410229Y-179461823D01*
X194395974Y-179494764D01*
X194390838Y-179505247D01*
X194369803Y-179543512D01*
X194367864Y-179551060D01*
X194367863Y-179551065D01*
X194364822Y-179562911D01*
X194358521Y-179581315D01*
X194353658Y-179592552D01*
X194353656Y-179592556D01*
X194350562Y-179599708D01*
X194349342Y-179607407D01*
X194349342Y-179607409D01*
X194343729Y-179642845D01*
X194341361Y-179654280D01*
X194332438Y-179689032D01*
X194332436Y-179689040D01*
X194330500Y-179696585D01*
X194330500Y-179704381D01*
X194330500Y-179716621D01*
X194328974Y-179736006D01*
X194325840Y-179755800D01*
X194326574Y-179763565D01*
X194326574Y-179763568D01*
X194329950Y-179799280D01*
X194330500Y-179810949D01*
X194330500Y-186571313D01*
X194322264Y-186615751D01*
X194298650Y-186654285D01*
X194227813Y-186732956D01*
X194227808Y-186732962D01*
X194223467Y-186737784D01*
X194220222Y-186743404D01*
X194220218Y-186743410D01*
X194132069Y-186896089D01*
X194132066Y-186896094D01*
X194128821Y-186901716D01*
X194126815Y-186907888D01*
X194126813Y-186907894D01*
X194072333Y-187075564D01*
X194072331Y-187075573D01*
X194070326Y-187081744D01*
X194069648Y-187088194D01*
X194069646Y-187088204D01*
X194053085Y-187245784D01*
X194050540Y-187270000D01*
X194051219Y-187276460D01*
X194069646Y-187451795D01*
X194069647Y-187451803D01*
X194070326Y-187458256D01*
X194072331Y-187464428D01*
X194072333Y-187464435D01*
X194125787Y-187628946D01*
X194128821Y-187638284D01*
X194132068Y-187643908D01*
X194132069Y-187643910D01*
X194220068Y-187796330D01*
X194223467Y-187802216D01*
X194235443Y-187815517D01*
X194241307Y-187822030D01*
X194269472Y-187875003D01*
X194269472Y-187934997D01*
X194241307Y-187987970D01*
X194227814Y-188002956D01*
X194223467Y-188007784D01*
X194220222Y-188013404D01*
X194220218Y-188013410D01*
X194132069Y-188166089D01*
X194132066Y-188166094D01*
X194128821Y-188171716D01*
X194126815Y-188177888D01*
X194126813Y-188177894D01*
X194072333Y-188345564D01*
X194072331Y-188345573D01*
X194070326Y-188351744D01*
X194069648Y-188358194D01*
X194069646Y-188358204D01*
X194053623Y-188510663D01*
X194050540Y-188540000D01*
X194051219Y-188546460D01*
X194069646Y-188721795D01*
X194069647Y-188721803D01*
X194070326Y-188728256D01*
X194072331Y-188734428D01*
X194072333Y-188734435D01*
X194126813Y-188902105D01*
X194128821Y-188908284D01*
X194223467Y-189072216D01*
X194227811Y-189077041D01*
X194227813Y-189077043D01*
X194310748Y-189169151D01*
X194350129Y-189212888D01*
X194503270Y-189324151D01*
X194676197Y-189401144D01*
X194861354Y-189440500D01*
X195044143Y-189440500D01*
X195050646Y-189440500D01*
X195235803Y-189401144D01*
X195408730Y-189324151D01*
X195561871Y-189212888D01*
X195688533Y-189072216D01*
X195783179Y-188908284D01*
X195841674Y-188728256D01*
X195859321Y-188560345D01*
X195870721Y-188519926D01*
X195894958Y-188485631D01*
X196068311Y-188312278D01*
X196076481Y-188304844D01*
X196082877Y-188300786D01*
X196128918Y-188251756D01*
X196131535Y-188249054D01*
X196151120Y-188229471D01*
X196153585Y-188226292D01*
X196161167Y-188217416D01*
X196191062Y-188185582D01*
X196200713Y-188168023D01*
X196211390Y-188151770D01*
X196223673Y-188135936D01*
X196241026Y-188095832D01*
X196246158Y-188085361D01*
X196263435Y-188053935D01*
X196263435Y-188053934D01*
X196267197Y-188047092D01*
X196272177Y-188027691D01*
X196278481Y-188009281D01*
X196279129Y-188007784D01*
X196286438Y-187990896D01*
X196293272Y-187947741D01*
X196295638Y-187936321D01*
X196300728Y-187916500D01*
X196306500Y-187894019D01*
X196306500Y-187873983D01*
X196308025Y-187854597D01*
X196311160Y-187834804D01*
X196307050Y-187791324D01*
X196306500Y-187779655D01*
X196306500Y-186860775D01*
X196307021Y-186849719D01*
X196308673Y-186842333D01*
X196306561Y-186775113D01*
X196306500Y-186771219D01*
X196306500Y-186747542D01*
X196306500Y-186743650D01*
X196305998Y-186739683D01*
X196305081Y-186728026D01*
X196304811Y-186719437D01*
X196303710Y-186684373D01*
X196298118Y-186665128D01*
X196294174Y-186646083D01*
X196291664Y-186626208D01*
X196275579Y-186585583D01*
X196271806Y-186574562D01*
X196259618Y-186532610D01*
X196249417Y-186515360D01*
X196240863Y-186497901D01*
X196233486Y-186479268D01*
X196207808Y-186443925D01*
X196201401Y-186434171D01*
X196183142Y-186403296D01*
X196183141Y-186403294D01*
X196179170Y-186396580D01*
X196165005Y-186382415D01*
X196152370Y-186367622D01*
X196140594Y-186351413D01*
X196134583Y-186346441D01*
X196134581Y-186346438D01*
X196106941Y-186323573D01*
X196098300Y-186315710D01*
X196067819Y-186285229D01*
X196040939Y-186245001D01*
X196031500Y-186197548D01*
X196031500Y-180272452D01*
X196040939Y-180224999D01*
X196067819Y-180184771D01*
X200766772Y-175485819D01*
X200807000Y-175458939D01*
X200854453Y-175449500D01*
X208857530Y-175449500D01*
X208868585Y-175450021D01*
X208875972Y-175451673D01*
X208943177Y-175449561D01*
X208947073Y-175449500D01*
X208970753Y-175449500D01*
X208974655Y-175449500D01*
X208978618Y-175448999D01*
X208990268Y-175448080D01*
X209033932Y-175446709D01*
X209053166Y-175441119D01*
X209072222Y-175437174D01*
X209092097Y-175434664D01*
X209132700Y-175418587D01*
X209143755Y-175414802D01*
X209185695Y-175402618D01*
X209202934Y-175392422D01*
X209220408Y-175383862D01*
X209231779Y-175379360D01*
X209231781Y-175379358D01*
X209239037Y-175376486D01*
X209274374Y-175350811D01*
X209284129Y-175344403D01*
X209321725Y-175322170D01*
X209335889Y-175308005D01*
X209350684Y-175295368D01*
X209366892Y-175283594D01*
X209394733Y-175249938D01*
X209402584Y-175241309D01*
X211677076Y-172966819D01*
X211717305Y-172939939D01*
X211764758Y-172930500D01*
X211808143Y-172930500D01*
X211814646Y-172930500D01*
X211999803Y-172891144D01*
X212172730Y-172814151D01*
X212325871Y-172702888D01*
X212452533Y-172562216D01*
X212547179Y-172398284D01*
X212605674Y-172218256D01*
X212625460Y-172030000D01*
X212611364Y-171895886D01*
X212606353Y-171848204D01*
X212606352Y-171848203D01*
X212605674Y-171841744D01*
X212592700Y-171801816D01*
X212588159Y-171744103D01*
X212610314Y-171690615D01*
X212654337Y-171653015D01*
X212710632Y-171639500D01*
X213885520Y-171639500D01*
X213947520Y-171656113D01*
X213992907Y-171701500D01*
X214009520Y-171763500D01*
X213992907Y-171825500D01*
X213944069Y-171910089D01*
X213944066Y-171910094D01*
X213940821Y-171915716D01*
X213938815Y-171921888D01*
X213938813Y-171921894D01*
X213884333Y-172089564D01*
X213884331Y-172089573D01*
X213882326Y-172095744D01*
X213881648Y-172102194D01*
X213881646Y-172102204D01*
X213868800Y-172224435D01*
X213862540Y-172284000D01*
X213863219Y-172290460D01*
X213881646Y-172465795D01*
X213881647Y-172465803D01*
X213882326Y-172472256D01*
X213884331Y-172478428D01*
X213884333Y-172478435D01*
X213938698Y-172645751D01*
X213940821Y-172652284D01*
X213944068Y-172657908D01*
X213944069Y-172657910D01*
X214032068Y-172810330D01*
X214035467Y-172816216D01*
X214039811Y-172821041D01*
X214039813Y-172821043D01*
X214134397Y-172926089D01*
X214162129Y-172956888D01*
X214315270Y-173068151D01*
X214488197Y-173145144D01*
X214673354Y-173184500D01*
X214856143Y-173184500D01*
X214862646Y-173184500D01*
X214943807Y-173167248D01*
X214988982Y-173166067D01*
X215002196Y-173168160D01*
X215040276Y-173164560D01*
X215045676Y-173164050D01*
X215057345Y-173163500D01*
X219444000Y-173163500D01*
X219506000Y-173180113D01*
X219551387Y-173225500D01*
X219568000Y-173287500D01*
X219568000Y-173520000D01*
X219551387Y-173582000D01*
X219506000Y-173627387D01*
X219444000Y-173644000D01*
X217808038Y-173644000D01*
X217797354Y-173646337D01*
X217797026Y-173651502D01*
X217797114Y-173651840D01*
X217863378Y-173830760D01*
X217868894Y-173842006D01*
X217969819Y-174003926D01*
X217977478Y-174013820D01*
X218108936Y-174152114D01*
X218118427Y-174160262D01*
X218275036Y-174269265D01*
X218285970Y-174275334D01*
X218461318Y-174350581D01*
X218473247Y-174354324D01*
X218660152Y-174392734D01*
X218672598Y-174394000D01*
X219217616Y-174394000D01*
X219276069Y-174408642D01*
X219320718Y-174449109D01*
X219341019Y-174505846D01*
X219332177Y-174565453D01*
X219290423Y-174666254D01*
X219290421Y-174666259D01*
X219287313Y-174673764D01*
X219286252Y-174681815D01*
X219286251Y-174681823D01*
X219270545Y-174801126D01*
X219267534Y-174824000D01*
X219268595Y-174832059D01*
X219286251Y-174966176D01*
X219286252Y-174966182D01*
X219287313Y-174974236D01*
X219290422Y-174981742D01*
X219290423Y-174981745D01*
X219316811Y-175045451D01*
X219345302Y-175114233D01*
X219350245Y-175120674D01*
X219350248Y-175120680D01*
X219432605Y-175228008D01*
X219437549Y-175234451D01*
X219443991Y-175239394D01*
X219551319Y-175321751D01*
X219551322Y-175321753D01*
X219557767Y-175326698D01*
X219697764Y-175384687D01*
X219810280Y-175399500D01*
X219881667Y-175399500D01*
X219885720Y-175399500D01*
X219998236Y-175384687D01*
X220138233Y-175326698D01*
X220258451Y-175234451D01*
X220350698Y-175114233D01*
X220408687Y-174974236D01*
X220428466Y-174824000D01*
X220408687Y-174673764D01*
X220350698Y-174533767D01*
X220296200Y-174462744D01*
X220273697Y-174414904D01*
X220273167Y-174362039D01*
X220294706Y-174313758D01*
X220334399Y-174278838D01*
X220436717Y-174222047D01*
X220446982Y-174214902D01*
X220591754Y-174090620D01*
X220600385Y-174081541D01*
X220717167Y-173930670D01*
X220723792Y-173920042D01*
X220807819Y-173748740D01*
X220812163Y-173737010D01*
X220834303Y-173651502D01*
X222227026Y-173651502D01*
X222227114Y-173651840D01*
X222293378Y-173830760D01*
X222298894Y-173842006D01*
X222399819Y-174003926D01*
X222407478Y-174013820D01*
X222538936Y-174152114D01*
X222548427Y-174160262D01*
X222705036Y-174269265D01*
X222715970Y-174275334D01*
X222891318Y-174350581D01*
X222903247Y-174354324D01*
X223090152Y-174392734D01*
X223102598Y-174394000D01*
X223231674Y-174394000D01*
X223244549Y-174390549D01*
X223248000Y-174377674D01*
X223748000Y-174377674D01*
X223751450Y-174390549D01*
X223764326Y-174394000D01*
X223845570Y-174394000D01*
X223851835Y-174393682D01*
X223994084Y-174379216D01*
X224006335Y-174376698D01*
X224188385Y-174319580D01*
X224199889Y-174314644D01*
X224366720Y-174222045D01*
X224376982Y-174214902D01*
X224521754Y-174090620D01*
X224530385Y-174081541D01*
X224647167Y-173930670D01*
X224653792Y-173920042D01*
X224737817Y-173748743D01*
X224742165Y-173737002D01*
X224762686Y-173657746D01*
X224762971Y-173646535D01*
X224752046Y-173644000D01*
X223764326Y-173644000D01*
X223751450Y-173647450D01*
X223748000Y-173660326D01*
X223748000Y-174377674D01*
X223248000Y-174377674D01*
X223248000Y-173660326D01*
X223244549Y-173647450D01*
X223231674Y-173644000D01*
X222238038Y-173644000D01*
X222227354Y-173646337D01*
X222227026Y-173651502D01*
X220834303Y-173651502D01*
X220859989Y-173552296D01*
X220861715Y-173541032D01*
X220881382Y-173490617D01*
X220920648Y-173453379D01*
X220959109Y-173440678D01*
X220958646Y-173438500D01*
X221143803Y-173399144D01*
X221316730Y-173322151D01*
X221469871Y-173210888D01*
X221532381Y-173141464D01*
X222233028Y-173141464D01*
X222243954Y-173144000D01*
X223231674Y-173144000D01*
X223244549Y-173140549D01*
X223248000Y-173127674D01*
X223748000Y-173127674D01*
X223751450Y-173140549D01*
X223764326Y-173144000D01*
X224757962Y-173144000D01*
X224768645Y-173141662D01*
X224768973Y-173136497D01*
X224768885Y-173136159D01*
X224702621Y-172957239D01*
X224697105Y-172945993D01*
X224596180Y-172784073D01*
X224588521Y-172774179D01*
X224457063Y-172635885D01*
X224447572Y-172627737D01*
X224290963Y-172518734D01*
X224280029Y-172512665D01*
X224104681Y-172437418D01*
X224092752Y-172433675D01*
X223905847Y-172395265D01*
X223893402Y-172394000D01*
X223764326Y-172394000D01*
X223751450Y-172397450D01*
X223748000Y-172410326D01*
X223748000Y-173127674D01*
X223248000Y-173127674D01*
X223248000Y-172410326D01*
X223244549Y-172397450D01*
X223231674Y-172394000D01*
X223150430Y-172394000D01*
X223144164Y-172394317D01*
X223001915Y-172408783D01*
X222989664Y-172411301D01*
X222807614Y-172468419D01*
X222796110Y-172473355D01*
X222629279Y-172565954D01*
X222619017Y-172573097D01*
X222474245Y-172697379D01*
X222465614Y-172706458D01*
X222348832Y-172857329D01*
X222342207Y-172867957D01*
X222258182Y-173039256D01*
X222253834Y-173050997D01*
X222233313Y-173130253D01*
X222233028Y-173141464D01*
X221532381Y-173141464D01*
X221596533Y-173070216D01*
X221691179Y-172906284D01*
X221749674Y-172726256D01*
X221769460Y-172538000D01*
X221749674Y-172349744D01*
X221691179Y-172169716D01*
X221596533Y-172005784D01*
X221512539Y-171912500D01*
X221474220Y-171869942D01*
X221474219Y-171869941D01*
X221469871Y-171865112D01*
X221464613Y-171861292D01*
X221464611Y-171861290D01*
X221321988Y-171757669D01*
X221321987Y-171757668D01*
X221316730Y-171753849D01*
X221310792Y-171751205D01*
X221149745Y-171679501D01*
X221149740Y-171679499D01*
X221143803Y-171676856D01*
X221137444Y-171675504D01*
X221137440Y-171675503D01*
X220965008Y-171638852D01*
X220965005Y-171638851D01*
X220958646Y-171637500D01*
X220769354Y-171637500D01*
X220762995Y-171638851D01*
X220762991Y-171638852D01*
X220590559Y-171675503D01*
X220590552Y-171675505D01*
X220584197Y-171676856D01*
X220578262Y-171679498D01*
X220578254Y-171679501D01*
X220417207Y-171751205D01*
X220417202Y-171751207D01*
X220411270Y-171753849D01*
X220406016Y-171757665D01*
X220406011Y-171757669D01*
X220263388Y-171861290D01*
X220263381Y-171861295D01*
X220258129Y-171865112D01*
X220253780Y-171869941D01*
X220253781Y-171869941D01*
X220252399Y-171871476D01*
X220250728Y-171872689D01*
X220248950Y-171874291D01*
X220248781Y-171874104D01*
X220210685Y-171901781D01*
X220160252Y-171912500D01*
X217222975Y-171912500D01*
X217163238Y-171897162D01*
X217118279Y-171854943D01*
X217099220Y-171796287D01*
X217110776Y-171735704D01*
X217143149Y-171696570D01*
X217141785Y-171695055D01*
X217146610Y-171690710D01*
X217151871Y-171686888D01*
X217278533Y-171546216D01*
X217373179Y-171382284D01*
X217431674Y-171202256D01*
X217451460Y-171014000D01*
X217431674Y-170825744D01*
X217373179Y-170645716D01*
X217278533Y-170481784D01*
X217151871Y-170341112D01*
X217146611Y-170337291D01*
X217141785Y-170332945D01*
X217143149Y-170331429D01*
X217110776Y-170292296D01*
X217099220Y-170231713D01*
X217118279Y-170173057D01*
X217163238Y-170130838D01*
X217222975Y-170115500D01*
X225866225Y-170115500D01*
X225877280Y-170116021D01*
X225884667Y-170117673D01*
X225951872Y-170115561D01*
X225955768Y-170115500D01*
X225979448Y-170115500D01*
X225983350Y-170115500D01*
X225987313Y-170114999D01*
X225998963Y-170114080D01*
X226042627Y-170112709D01*
X226061861Y-170107119D01*
X226080917Y-170103174D01*
X226100792Y-170100664D01*
X226141395Y-170084587D01*
X226152450Y-170080802D01*
X226194390Y-170068618D01*
X226211629Y-170058422D01*
X226229103Y-170049862D01*
X226240474Y-170045360D01*
X226240476Y-170045358D01*
X226247732Y-170042486D01*
X226283069Y-170016811D01*
X226292824Y-170010403D01*
X226330420Y-169988170D01*
X226344584Y-169974005D01*
X226359379Y-169961368D01*
X226375587Y-169949594D01*
X226403428Y-169915938D01*
X226411279Y-169907309D01*
X226747819Y-169570770D01*
X226797182Y-169540520D01*
X226854898Y-169535978D01*
X226908385Y-169558133D01*
X226945985Y-169602156D01*
X226959500Y-169658451D01*
X226959500Y-189286384D01*
X226957592Y-189286384D01*
X226957592Y-189286439D01*
X226959498Y-189286389D01*
X226959500Y-189286464D01*
X226959500Y-189286574D01*
X226957594Y-189286574D01*
X226957594Y-189286631D01*
X226959503Y-189286581D01*
X226964951Y-189491190D01*
X226963577Y-189491226D01*
X226963582Y-189491305D01*
X226964947Y-189491203D01*
X226964953Y-189491283D01*
X226964956Y-189491374D01*
X226963588Y-189491419D01*
X226963593Y-189491499D01*
X226964962Y-189491387D01*
X226981627Y-189694333D01*
X226980792Y-189694401D01*
X226980799Y-189694463D01*
X226981624Y-189694349D01*
X226981636Y-189694435D01*
X226981643Y-189694517D01*
X226980815Y-189694587D01*
X226980822Y-189694645D01*
X226981649Y-189694529D01*
X227010010Y-189895447D01*
X227008972Y-189895593D01*
X227008986Y-189895669D01*
X227010007Y-189895465D01*
X227010025Y-189895555D01*
X227010036Y-189895630D01*
X227009006Y-189895781D01*
X227009018Y-189895851D01*
X227010043Y-189895642D01*
X227050577Y-190094175D01*
X227049741Y-190094345D01*
X227049757Y-190094406D01*
X227050576Y-190094191D01*
X227050596Y-190094267D01*
X227050614Y-190094352D01*
X227049787Y-190094527D01*
X227049802Y-190094588D01*
X227050623Y-190094366D01*
X227103806Y-190290146D01*
X227102790Y-190290421D01*
X227102814Y-190290499D01*
X227103805Y-190290165D01*
X227103833Y-190290248D01*
X227103854Y-190290323D01*
X227102847Y-190290604D01*
X227102869Y-190290677D01*
X227103863Y-190290335D01*
X227170174Y-190483004D01*
X227168863Y-190483455D01*
X227168888Y-190483522D01*
X227170174Y-190483017D01*
X227170207Y-190483101D01*
X227170235Y-190483181D01*
X227168931Y-190483637D01*
X227168955Y-190483701D01*
X227170242Y-190483189D01*
X227200510Y-190559207D01*
X227199444Y-190559631D01*
X227199474Y-190559697D01*
X227200511Y-190559222D01*
X227200550Y-190559307D01*
X227200579Y-190559380D01*
X227200586Y-190559387D01*
X227200589Y-190559393D01*
X227291381Y-190757670D01*
X227290937Y-190757873D01*
X227291042Y-190758081D01*
X227291469Y-190757847D01*
X227396125Y-190948053D01*
X227395439Y-190948430D01*
X227395477Y-190948493D01*
X227396129Y-190948072D01*
X227396171Y-190948137D01*
X227396212Y-190948211D01*
X227395533Y-190948586D01*
X227395571Y-190948648D01*
X227396227Y-190948223D01*
X227514496Y-191130307D01*
X227514087Y-191130572D01*
X227514221Y-191130761D01*
X227514609Y-191130468D01*
X227646257Y-191304396D01*
X227645655Y-191304851D01*
X227645698Y-191304904D01*
X227646263Y-191304412D01*
X227646311Y-191304467D01*
X227646365Y-191304538D01*
X227645770Y-191304990D01*
X227645814Y-191305044D01*
X227646382Y-191304548D01*
X227796130Y-191475573D01*
X227795396Y-191476214D01*
X227795454Y-191476274D01*
X227796138Y-191475591D01*
X227796197Y-191475650D01*
X227796250Y-191475710D01*
X227795526Y-191476349D01*
X227795580Y-191476406D01*
X227796265Y-191475717D01*
X227957191Y-191635571D01*
X227956722Y-191636042D01*
X227956899Y-191636206D01*
X227957335Y-191635706D01*
X228128520Y-191784699D01*
X228127825Y-191785496D01*
X228127889Y-191785548D01*
X228128530Y-191784716D01*
X228128608Y-191784776D01*
X228128660Y-191784821D01*
X228127972Y-191785615D01*
X228128029Y-191785662D01*
X228128672Y-191784825D01*
X228309195Y-191923267D01*
X228307956Y-191924881D01*
X228308167Y-191925029D01*
X228309353Y-191923385D01*
X228405004Y-191992331D01*
X228405054Y-191992383D01*
X228405062Y-191992374D01*
X228405468Y-191992667D01*
X228405467Y-191992668D01*
X228515925Y-192072287D01*
X228523223Y-192077547D01*
X228774020Y-192223782D01*
X229037762Y-192345124D01*
X229040597Y-192346109D01*
X229040601Y-192346111D01*
X229076848Y-192358710D01*
X229311985Y-192440441D01*
X229594129Y-192508842D01*
X229881558Y-192549688D01*
X230171587Y-192562598D01*
X230312881Y-192555216D01*
X230320148Y-192555051D01*
X230536650Y-192556526D01*
X230635711Y-192557425D01*
X230649996Y-192558384D01*
X230829056Y-192580852D01*
X230829237Y-192580876D01*
X230963821Y-192598696D01*
X230977337Y-192601257D01*
X231145209Y-192642846D01*
X231146217Y-192643101D01*
X231284547Y-192679042D01*
X231297135Y-192683040D01*
X231455986Y-192742990D01*
X231457715Y-192743658D01*
X231593280Y-192797295D01*
X231604775Y-192802537D01*
X231753984Y-192880005D01*
X231756045Y-192881102D01*
X231885552Y-192951737D01*
X231895863Y-192958031D01*
X232034005Y-193051913D01*
X232036463Y-193053629D01*
X232157134Y-193140119D01*
X232166176Y-193147259D01*
X232291733Y-193256258D01*
X232294437Y-193258677D01*
X232404118Y-193359720D01*
X232411830Y-193367482D01*
X232523369Y-193490165D01*
X232526122Y-193493300D01*
X232622919Y-193607337D01*
X232629317Y-193615550D01*
X232725393Y-193750175D01*
X232728096Y-193754121D01*
X232810412Y-193879419D01*
X232815488Y-193887858D01*
X232894899Y-194032594D01*
X232897370Y-194037336D01*
X232963871Y-194172003D01*
X232967667Y-194180476D01*
X233029414Y-194333382D01*
X233031495Y-194338912D01*
X233081088Y-194480850D01*
X233083674Y-194489182D01*
X233126949Y-194648158D01*
X233128486Y-194654444D01*
X233160378Y-194801488D01*
X233161844Y-194809515D01*
X233186094Y-194972437D01*
X233186932Y-194979422D01*
X233200611Y-195129291D01*
X233201069Y-195136874D01*
X233205967Y-195301501D01*
X233205960Y-195309099D01*
X233201215Y-195459490D01*
X233200794Y-195466513D01*
X233186270Y-195630607D01*
X233185284Y-195638706D01*
X233162196Y-195787346D01*
X233161036Y-195793714D01*
X233127275Y-195955039D01*
X233125189Y-195963509D01*
X233084130Y-196108114D01*
X233082381Y-196113757D01*
X233029832Y-196270068D01*
X233026546Y-196278752D01*
X232968167Y-196417137D01*
X232965982Y-196422019D01*
X232895313Y-196571222D01*
X232890748Y-196579947D01*
X232816016Y-196709935D01*
X232813552Y-196714035D01*
X232725676Y-196854090D01*
X232719779Y-196862668D01*
X232629902Y-196982298D01*
X232627309Y-196985629D01*
X232523323Y-197114649D01*
X232516065Y-197122880D01*
X232412582Y-197230265D01*
X232410006Y-197232861D01*
X232291185Y-197349098D01*
X232282574Y-197356771D01*
X232167284Y-197450261D01*
X232164855Y-197452181D01*
X232032595Y-197554064D01*
X232022663Y-197560970D01*
X231897687Y-197639114D01*
X231895526Y-197640435D01*
X231751273Y-197726585D01*
X231740088Y-197732512D01*
X231608001Y-197794090D01*
X231606209Y-197794908D01*
X231451270Y-197864164D01*
X231438929Y-197868908D01*
X231303245Y-197912922D01*
X231301905Y-197913349D01*
X231136900Y-197964813D01*
X231123534Y-197968179D01*
X230990648Y-197993890D01*
X230989819Y-197994048D01*
X230812716Y-198027065D01*
X230798472Y-198028875D01*
X230693879Y-198036046D01*
X230693612Y-198036064D01*
X230484662Y-198049937D01*
X230476447Y-198050209D01*
X211590000Y-198050209D01*
X211528000Y-198033596D01*
X211482613Y-197988209D01*
X211466000Y-197926209D01*
X211466000Y-195300782D01*
X228954357Y-195300782D01*
X228954781Y-195305899D01*
X228974467Y-195543483D01*
X228974468Y-195543491D01*
X228974892Y-195548603D01*
X228976149Y-195553570D01*
X228976151Y-195553577D01*
X229014322Y-195704308D01*
X229035937Y-195789663D01*
X229037997Y-195794359D01*
X229133766Y-196012692D01*
X229133769Y-196012698D01*
X229135827Y-196017389D01*
X229138627Y-196021675D01*
X229138631Y-196021682D01*
X229198787Y-196113757D01*
X229271836Y-196225567D01*
X229275310Y-196229341D01*
X229275311Y-196229342D01*
X229436784Y-196404749D01*
X229436787Y-196404752D01*
X229440256Y-196408520D01*
X229636491Y-196561256D01*
X229855190Y-196679610D01*
X230090386Y-196760353D01*
X230335665Y-196801282D01*
X230579201Y-196801282D01*
X230584335Y-196801282D01*
X230829614Y-196760353D01*
X231064810Y-196679610D01*
X231283509Y-196561256D01*
X231479744Y-196408520D01*
X231648164Y-196225567D01*
X231784173Y-196017389D01*
X231884063Y-195789663D01*
X231945108Y-195548603D01*
X231965643Y-195300782D01*
X231945108Y-195052961D01*
X231884063Y-194811901D01*
X231784173Y-194584175D01*
X231779542Y-194577087D01*
X231650971Y-194380294D01*
X231648164Y-194375997D01*
X231608934Y-194333382D01*
X231483215Y-194196814D01*
X231483211Y-194196811D01*
X231479744Y-194193044D01*
X231283509Y-194040308D01*
X231278997Y-194037866D01*
X231069316Y-193924392D01*
X231069310Y-193924389D01*
X231064810Y-193921954D01*
X231059969Y-193920292D01*
X231059962Y-193920289D01*
X230834465Y-193842876D01*
X230834461Y-193842875D01*
X230829614Y-193841211D01*
X230820768Y-193839734D01*
X230589398Y-193801126D01*
X230589387Y-193801125D01*
X230584335Y-193800282D01*
X230335665Y-193800282D01*
X230330613Y-193801125D01*
X230330601Y-193801126D01*
X230095443Y-193840367D01*
X230095441Y-193840367D01*
X230090386Y-193841211D01*
X230085541Y-193842874D01*
X230085534Y-193842876D01*
X229860037Y-193920289D01*
X229860026Y-193920293D01*
X229855190Y-193921954D01*
X229850693Y-193924387D01*
X229850683Y-193924392D01*
X229641002Y-194037866D01*
X229640995Y-194037870D01*
X229636491Y-194040308D01*
X229632448Y-194043454D01*
X229632440Y-194043460D01*
X229467289Y-194172003D01*
X229440256Y-194193044D01*
X229436793Y-194196805D01*
X229436784Y-194196814D01*
X229275311Y-194372221D01*
X229275305Y-194372228D01*
X229271836Y-194375997D01*
X229269031Y-194380288D01*
X229269028Y-194380294D01*
X229138631Y-194579881D01*
X229138624Y-194579893D01*
X229135827Y-194584175D01*
X229133772Y-194588859D01*
X229133766Y-194588871D01*
X229040492Y-194801516D01*
X229035937Y-194811901D01*
X229034679Y-194816866D01*
X229034678Y-194816871D01*
X228976151Y-195047986D01*
X228976149Y-195047995D01*
X228974892Y-195052961D01*
X228974468Y-195058070D01*
X228974467Y-195058080D01*
X228954781Y-195295665D01*
X228954357Y-195300782D01*
X211466000Y-195300782D01*
X211466000Y-192620326D01*
X211466000Y-192604000D01*
X208376121Y-192604000D01*
X208317906Y-192589485D01*
X208273320Y-192549340D01*
X208252800Y-192492961D01*
X208261150Y-192433549D01*
X208296415Y-192385010D01*
X208350340Y-192358710D01*
X208443803Y-192338844D01*
X208616730Y-192261851D01*
X208769871Y-192150588D01*
X208775601Y-192144223D01*
X208777271Y-192143010D01*
X208779050Y-192141409D01*
X208779218Y-192141595D01*
X208817315Y-192113919D01*
X208867748Y-192103200D01*
X209457927Y-192103200D01*
X209468982Y-192103721D01*
X209476369Y-192105373D01*
X209543574Y-192103261D01*
X209547470Y-192103200D01*
X209571150Y-192103200D01*
X209575052Y-192103200D01*
X209579015Y-192102699D01*
X209590665Y-192101780D01*
X209634329Y-192100409D01*
X209653563Y-192094819D01*
X209672619Y-192090874D01*
X209692494Y-192088364D01*
X209733097Y-192072287D01*
X209744152Y-192068502D01*
X209786092Y-192056318D01*
X209803331Y-192046122D01*
X209820805Y-192037562D01*
X209832176Y-192033060D01*
X209832178Y-192033058D01*
X209839434Y-192030186D01*
X209874771Y-192004511D01*
X209884526Y-191998103D01*
X209922122Y-191975870D01*
X209936286Y-191961705D01*
X209951081Y-191949068D01*
X209967289Y-191937294D01*
X209995130Y-191903638D01*
X210002981Y-191895009D01*
X211392866Y-190505125D01*
X211449703Y-190472706D01*
X211515132Y-190473731D01*
X211570929Y-190507918D01*
X211601555Y-190565746D01*
X211598766Y-190625012D01*
X211599685Y-190625208D01*
X211598494Y-190630810D01*
X211598480Y-190631111D01*
X211598335Y-190631554D01*
X211598330Y-190631574D01*
X211596326Y-190637744D01*
X211595648Y-190644194D01*
X211595646Y-190644204D01*
X211583719Y-190757691D01*
X211576540Y-190826000D01*
X211577219Y-190832460D01*
X211595646Y-191007795D01*
X211595647Y-191007803D01*
X211596326Y-191014256D01*
X211598331Y-191020428D01*
X211598333Y-191020435D01*
X211634181Y-191130761D01*
X211654821Y-191194284D01*
X211658068Y-191199908D01*
X211658069Y-191199910D01*
X211709761Y-191289444D01*
X211749467Y-191358216D01*
X211753811Y-191363041D01*
X211753813Y-191363043D01*
X211854582Y-191474958D01*
X211876129Y-191498888D01*
X211881387Y-191502708D01*
X211881388Y-191502709D01*
X211913805Y-191526261D01*
X212029270Y-191610151D01*
X212202197Y-191687144D01*
X212387354Y-191726500D01*
X212570143Y-191726500D01*
X212576646Y-191726500D01*
X212761803Y-191687144D01*
X212934730Y-191610151D01*
X213087871Y-191498888D01*
X213214533Y-191358216D01*
X213309179Y-191194284D01*
X213367674Y-191014256D01*
X213374870Y-190945787D01*
X213396000Y-190888513D01*
X213441899Y-190848263D01*
X213501442Y-190834792D01*
X213552771Y-190849270D01*
X213553270Y-190848151D01*
X213726197Y-190925144D01*
X213911354Y-190964500D01*
X214094143Y-190964500D01*
X214100646Y-190964500D01*
X214285803Y-190925144D01*
X214458730Y-190848151D01*
X214611871Y-190736888D01*
X214738533Y-190596216D01*
X214833179Y-190432284D01*
X214891674Y-190252256D01*
X214911460Y-190064000D01*
X214891674Y-189875744D01*
X214833179Y-189695716D01*
X214738533Y-189531784D01*
X214734185Y-189526955D01*
X214730363Y-189521694D01*
X214731703Y-189520720D01*
X214714749Y-189493080D01*
X214706500Y-189448608D01*
X214706500Y-188788018D01*
X214715939Y-188740565D01*
X214742819Y-188700337D01*
X214756437Y-188686719D01*
X214761892Y-188681584D01*
X214806905Y-188641707D01*
X214841077Y-188592198D01*
X214845497Y-188586191D01*
X214882600Y-188538835D01*
X214886755Y-188529600D01*
X214897785Y-188510043D01*
X214903540Y-188501708D01*
X214924868Y-188445466D01*
X214927724Y-188438569D01*
X214952416Y-188383710D01*
X214953767Y-188376334D01*
X214956001Y-188369167D01*
X214958624Y-188369984D01*
X214982568Y-188321282D01*
X214992533Y-188310216D01*
X215087179Y-188146284D01*
X215145674Y-187966256D01*
X215165460Y-187778000D01*
X215145674Y-187589744D01*
X215087179Y-187409716D01*
X215006514Y-187270000D01*
X214995835Y-187251503D01*
X214979222Y-187189503D01*
X214979222Y-182291502D01*
X217797026Y-182291502D01*
X217797114Y-182291840D01*
X217863378Y-182470760D01*
X217868894Y-182482006D01*
X217969819Y-182643926D01*
X217977478Y-182653820D01*
X218108936Y-182792114D01*
X218118427Y-182800262D01*
X218275036Y-182909265D01*
X218285970Y-182915334D01*
X218461318Y-182990581D01*
X218473247Y-182994324D01*
X218660152Y-183032734D01*
X218672598Y-183034000D01*
X219051674Y-183034000D01*
X219064549Y-183030549D01*
X219068000Y-183017674D01*
X219568000Y-183017674D01*
X219571450Y-183030549D01*
X219584326Y-183034000D01*
X219915570Y-183034000D01*
X219921835Y-183033682D01*
X220064084Y-183019216D01*
X220076335Y-183016698D01*
X220258385Y-182959580D01*
X220269889Y-182954644D01*
X220436720Y-182862045D01*
X220446982Y-182854902D01*
X220591754Y-182730620D01*
X220600385Y-182721541D01*
X220717167Y-182570670D01*
X220723792Y-182560042D01*
X220807817Y-182388743D01*
X220812165Y-182377002D01*
X220832686Y-182297746D01*
X220832845Y-182291502D01*
X222227026Y-182291502D01*
X222227114Y-182291840D01*
X222293378Y-182470760D01*
X222298894Y-182482006D01*
X222399819Y-182643926D01*
X222407478Y-182653820D01*
X222538936Y-182792114D01*
X222548427Y-182800262D01*
X222705036Y-182909265D01*
X222715970Y-182915334D01*
X222891318Y-182990581D01*
X222903247Y-182994324D01*
X223090152Y-183032734D01*
X223102598Y-183034000D01*
X223231674Y-183034000D01*
X223244549Y-183030549D01*
X223248000Y-183017674D01*
X223748000Y-183017674D01*
X223751450Y-183030549D01*
X223764326Y-183034000D01*
X223845570Y-183034000D01*
X223851835Y-183033682D01*
X223994084Y-183019216D01*
X224006335Y-183016698D01*
X224188385Y-182959580D01*
X224199889Y-182954644D01*
X224366720Y-182862045D01*
X224376982Y-182854902D01*
X224521754Y-182730620D01*
X224530385Y-182721541D01*
X224647167Y-182570670D01*
X224653792Y-182560042D01*
X224737817Y-182388743D01*
X224742165Y-182377002D01*
X224762686Y-182297746D01*
X224762971Y-182286535D01*
X224752046Y-182284000D01*
X223764326Y-182284000D01*
X223751450Y-182287450D01*
X223748000Y-182300326D01*
X223748000Y-183017674D01*
X223248000Y-183017674D01*
X223248000Y-182300326D01*
X223244549Y-182287450D01*
X223231674Y-182284000D01*
X222238038Y-182284000D01*
X222227354Y-182286337D01*
X222227026Y-182291502D01*
X220832845Y-182291502D01*
X220832971Y-182286535D01*
X220822046Y-182284000D01*
X219584326Y-182284000D01*
X219571450Y-182287450D01*
X219568000Y-182300326D01*
X219568000Y-183017674D01*
X219068000Y-183017674D01*
X219068000Y-182300326D01*
X219064549Y-182287450D01*
X219051674Y-182284000D01*
X217808038Y-182284000D01*
X217797354Y-182286337D01*
X217797026Y-182291502D01*
X214979222Y-182291502D01*
X214979222Y-181781464D01*
X217803028Y-181781464D01*
X217813954Y-181784000D01*
X220827962Y-181784000D01*
X220838645Y-181781662D01*
X220838658Y-181781464D01*
X222233028Y-181781464D01*
X222243954Y-181784000D01*
X223231674Y-181784000D01*
X223244549Y-181780549D01*
X223248000Y-181767674D01*
X223748000Y-181767674D01*
X223751450Y-181780549D01*
X223764326Y-181784000D01*
X224757962Y-181784000D01*
X224768645Y-181781662D01*
X224768973Y-181776497D01*
X224768885Y-181776159D01*
X224702621Y-181597239D01*
X224697105Y-181585993D01*
X224596180Y-181424073D01*
X224588521Y-181414179D01*
X224457063Y-181275885D01*
X224447572Y-181267737D01*
X224290963Y-181158734D01*
X224280029Y-181152665D01*
X224104681Y-181077418D01*
X224092752Y-181073675D01*
X223905847Y-181035265D01*
X223893402Y-181034000D01*
X223764326Y-181034000D01*
X223751450Y-181037450D01*
X223748000Y-181050326D01*
X223748000Y-181767674D01*
X223248000Y-181767674D01*
X223248000Y-181050326D01*
X223244549Y-181037450D01*
X223231674Y-181034000D01*
X223150430Y-181034000D01*
X223144164Y-181034317D01*
X223001915Y-181048783D01*
X222989664Y-181051301D01*
X222807614Y-181108419D01*
X222796110Y-181113355D01*
X222629279Y-181205954D01*
X222619017Y-181213097D01*
X222474245Y-181337379D01*
X222465614Y-181346458D01*
X222348832Y-181497329D01*
X222342207Y-181507957D01*
X222258182Y-181679256D01*
X222253834Y-181690997D01*
X222233313Y-181770253D01*
X222233028Y-181781464D01*
X220838658Y-181781464D01*
X220838973Y-181776497D01*
X220838885Y-181776159D01*
X220772621Y-181597239D01*
X220767105Y-181585993D01*
X220666180Y-181424073D01*
X220658521Y-181414179D01*
X220527063Y-181275885D01*
X220517572Y-181267737D01*
X220360963Y-181158734D01*
X220350027Y-181152664D01*
X220347920Y-181151760D01*
X220346433Y-181150669D01*
X220344528Y-181149612D01*
X220344662Y-181149370D01*
X220302821Y-181118677D01*
X220276848Y-181069142D01*
X220275285Y-181013233D01*
X220298450Y-180962324D01*
X220345748Y-180900684D01*
X220345748Y-180900683D01*
X220350698Y-180894233D01*
X220408687Y-180754236D01*
X220428466Y-180604000D01*
X220415556Y-180505942D01*
X220409748Y-180461823D01*
X220409747Y-180461822D01*
X220408687Y-180453764D01*
X220350698Y-180313767D01*
X220345753Y-180307322D01*
X220345751Y-180307319D01*
X220263394Y-180199991D01*
X220258451Y-180193549D01*
X220252008Y-180188605D01*
X220144680Y-180106248D01*
X220144674Y-180106245D01*
X220138233Y-180101302D01*
X220130724Y-180098191D01*
X220130723Y-180098191D01*
X220005745Y-180046423D01*
X220005742Y-180046422D01*
X219998236Y-180043313D01*
X219990182Y-180042252D01*
X219990176Y-180042251D01*
X219889739Y-180029029D01*
X219889737Y-180029028D01*
X219885720Y-180028500D01*
X219810280Y-180028500D01*
X219806263Y-180029028D01*
X219806260Y-180029029D01*
X219705823Y-180042251D01*
X219705815Y-180042252D01*
X219697764Y-180043313D01*
X219690259Y-180046421D01*
X219690254Y-180046423D01*
X219565276Y-180098191D01*
X219565272Y-180098193D01*
X219557767Y-180101302D01*
X219551328Y-180106242D01*
X219551319Y-180106248D01*
X219443991Y-180188605D01*
X219443987Y-180188608D01*
X219437549Y-180193549D01*
X219432608Y-180199987D01*
X219432605Y-180199991D01*
X219350248Y-180307319D01*
X219350242Y-180307328D01*
X219345302Y-180313767D01*
X219342193Y-180321272D01*
X219342191Y-180321276D01*
X219290423Y-180446254D01*
X219290421Y-180446259D01*
X219287313Y-180453764D01*
X219286252Y-180461815D01*
X219286251Y-180461823D01*
X219275873Y-180540659D01*
X219267534Y-180604000D01*
X219268595Y-180612059D01*
X219286251Y-180746176D01*
X219286252Y-180746182D01*
X219287313Y-180754236D01*
X219290422Y-180761742D01*
X219290423Y-180761745D01*
X219332177Y-180862547D01*
X219341019Y-180922154D01*
X219320718Y-180978891D01*
X219276069Y-181019358D01*
X219217616Y-181034000D01*
X218720430Y-181034000D01*
X218714164Y-181034317D01*
X218571915Y-181048783D01*
X218559664Y-181051301D01*
X218377614Y-181108419D01*
X218366110Y-181113355D01*
X218199279Y-181205954D01*
X218189017Y-181213097D01*
X218044245Y-181337379D01*
X218035614Y-181346458D01*
X217918832Y-181497329D01*
X217912207Y-181507957D01*
X217828182Y-181679256D01*
X217823834Y-181690997D01*
X217803313Y-181770253D01*
X217803028Y-181781464D01*
X214979222Y-181781464D01*
X214979222Y-176300782D01*
X221954357Y-176300782D01*
X221954781Y-176305899D01*
X221974467Y-176543483D01*
X221974468Y-176543491D01*
X221974892Y-176548603D01*
X221976149Y-176553570D01*
X221976151Y-176553577D01*
X222013503Y-176701073D01*
X222035937Y-176789663D01*
X222037997Y-176794359D01*
X222133766Y-177012692D01*
X222133769Y-177012698D01*
X222135827Y-177017389D01*
X222138627Y-177021675D01*
X222138631Y-177021682D01*
X222248423Y-177189731D01*
X222271836Y-177225567D01*
X222275310Y-177229341D01*
X222275311Y-177229342D01*
X222436784Y-177404749D01*
X222436787Y-177404752D01*
X222440256Y-177408520D01*
X222636491Y-177561256D01*
X222855190Y-177679610D01*
X223090386Y-177760353D01*
X223335665Y-177801282D01*
X223579201Y-177801282D01*
X223584335Y-177801282D01*
X223829614Y-177760353D01*
X224064810Y-177679610D01*
X224283509Y-177561256D01*
X224479744Y-177408520D01*
X224648164Y-177225567D01*
X224784173Y-177017389D01*
X224884063Y-176789663D01*
X224945108Y-176548603D01*
X224965643Y-176300782D01*
X224945108Y-176052961D01*
X224884063Y-175811901D01*
X224784173Y-175584175D01*
X224648164Y-175375997D01*
X224622008Y-175347584D01*
X224483215Y-175196814D01*
X224483211Y-175196811D01*
X224479744Y-175193044D01*
X224283509Y-175040308D01*
X224278997Y-175037866D01*
X224069316Y-174924392D01*
X224069310Y-174924389D01*
X224064810Y-174921954D01*
X224059969Y-174920292D01*
X224059962Y-174920289D01*
X223834465Y-174842876D01*
X223834461Y-174842875D01*
X223829614Y-174841211D01*
X223820768Y-174839734D01*
X223589398Y-174801126D01*
X223589387Y-174801125D01*
X223584335Y-174800282D01*
X223335665Y-174800282D01*
X223330613Y-174801125D01*
X223330601Y-174801126D01*
X223095443Y-174840367D01*
X223095441Y-174840367D01*
X223090386Y-174841211D01*
X223085541Y-174842874D01*
X223085534Y-174842876D01*
X222860037Y-174920289D01*
X222860026Y-174920293D01*
X222855190Y-174921954D01*
X222850693Y-174924387D01*
X222850683Y-174924392D01*
X222641002Y-175037866D01*
X222640995Y-175037870D01*
X222636491Y-175040308D01*
X222632448Y-175043454D01*
X222632440Y-175043460D01*
X222444304Y-175189893D01*
X222440256Y-175193044D01*
X222436793Y-175196805D01*
X222436784Y-175196814D01*
X222275311Y-175372221D01*
X222275305Y-175372228D01*
X222271836Y-175375997D01*
X222269031Y-175380288D01*
X222269028Y-175380294D01*
X222138631Y-175579881D01*
X222138624Y-175579893D01*
X222135827Y-175584175D01*
X222133772Y-175588859D01*
X222133766Y-175588871D01*
X222037997Y-175807204D01*
X222035937Y-175811901D01*
X222034679Y-175816866D01*
X222034678Y-175816871D01*
X221976151Y-176047986D01*
X221976149Y-176047995D01*
X221974892Y-176052961D01*
X221974468Y-176058070D01*
X221974467Y-176058080D01*
X221954781Y-176295665D01*
X221954357Y-176300782D01*
X214979222Y-176300782D01*
X214979222Y-175420670D01*
X214987471Y-175376198D01*
X215004425Y-175348557D01*
X215003085Y-175347584D01*
X215006906Y-175342323D01*
X215011255Y-175337494D01*
X215105901Y-175173562D01*
X215164396Y-174993534D01*
X215184182Y-174805278D01*
X215164396Y-174617022D01*
X215105901Y-174436994D01*
X215011255Y-174273062D01*
X214884593Y-174132390D01*
X214879335Y-174128570D01*
X214879333Y-174128568D01*
X214736710Y-174024947D01*
X214736709Y-174024946D01*
X214731452Y-174021127D01*
X214725514Y-174018483D01*
X214564467Y-173946779D01*
X214564462Y-173946777D01*
X214558525Y-173944134D01*
X214552166Y-173942782D01*
X214552162Y-173942781D01*
X214379730Y-173906130D01*
X214379727Y-173906129D01*
X214373368Y-173904778D01*
X214184076Y-173904778D01*
X214177717Y-173906129D01*
X214177713Y-173906130D01*
X214005281Y-173942781D01*
X214005274Y-173942783D01*
X213998919Y-173944134D01*
X213992984Y-173946776D01*
X213992976Y-173946779D01*
X213831929Y-174018483D01*
X213831924Y-174018485D01*
X213825992Y-174021127D01*
X213820738Y-174024943D01*
X213820733Y-174024947D01*
X213678110Y-174128568D01*
X213678103Y-174128573D01*
X213672851Y-174132390D01*
X213668506Y-174137215D01*
X213668501Y-174137220D01*
X213550535Y-174268234D01*
X213550530Y-174268240D01*
X213546189Y-174273062D01*
X213542944Y-174278682D01*
X213542940Y-174278688D01*
X213454791Y-174431367D01*
X213454788Y-174431372D01*
X213451543Y-174436994D01*
X213449537Y-174443166D01*
X213449535Y-174443172D01*
X213395055Y-174610842D01*
X213395053Y-174610851D01*
X213393048Y-174617022D01*
X213392370Y-174623472D01*
X213392368Y-174623482D01*
X213385387Y-174689910D01*
X213373262Y-174805278D01*
X213373941Y-174811738D01*
X213392368Y-174987073D01*
X213392369Y-174987081D01*
X213393048Y-174993534D01*
X213395053Y-174999706D01*
X213395055Y-174999713D01*
X213434360Y-175120680D01*
X213451543Y-175173562D01*
X213454790Y-175179186D01*
X213454791Y-175179188D01*
X213521866Y-175295365D01*
X213546189Y-175337494D01*
X213550535Y-175342321D01*
X213554359Y-175347584D01*
X213553018Y-175348557D01*
X213569973Y-175376198D01*
X213578222Y-175420670D01*
X213578222Y-176469873D01*
X213565434Y-176524717D01*
X213529708Y-176568249D01*
X213478413Y-176591490D01*
X213422130Y-176589648D01*
X213268947Y-176548603D01*
X213230634Y-176538337D01*
X213230630Y-176538336D01*
X213225408Y-176536937D01*
X213220020Y-176536465D01*
X213220017Y-176536465D01*
X212995395Y-176516813D01*
X212990000Y-176516341D01*
X212984605Y-176516813D01*
X212759982Y-176536465D01*
X212759977Y-176536465D01*
X212754592Y-176536937D01*
X212749371Y-176538335D01*
X212749365Y-176538337D01*
X212531569Y-176596694D01*
X212531557Y-176596698D01*
X212526337Y-176598097D01*
X212521432Y-176600383D01*
X212521427Y-176600386D01*
X212317081Y-176695675D01*
X212317077Y-176695677D01*
X212312171Y-176697965D01*
X212307738Y-176701068D01*
X212307731Y-176701073D01*
X212123034Y-176830399D01*
X212123029Y-176830402D01*
X212118599Y-176833505D01*
X212114775Y-176837328D01*
X212114769Y-176837334D01*
X211955334Y-176996769D01*
X211955328Y-176996775D01*
X211951505Y-177000599D01*
X211948402Y-177005029D01*
X211948399Y-177005034D01*
X211819073Y-177189731D01*
X211819068Y-177189738D01*
X211815965Y-177194171D01*
X211813677Y-177199077D01*
X211813675Y-177199081D01*
X211718386Y-177403427D01*
X211718383Y-177403432D01*
X211716097Y-177408337D01*
X211714698Y-177413557D01*
X211714694Y-177413569D01*
X211656337Y-177631365D01*
X211656335Y-177631371D01*
X211654937Y-177636592D01*
X211654465Y-177641977D01*
X211654465Y-177641982D01*
X211644630Y-177754398D01*
X211634341Y-177872000D01*
X211654937Y-178107408D01*
X211656336Y-178112630D01*
X211656337Y-178112634D01*
X211714694Y-178330430D01*
X211714697Y-178330438D01*
X211716097Y-178335663D01*
X211718385Y-178340570D01*
X211718386Y-178340572D01*
X211813678Y-178544927D01*
X211813681Y-178544933D01*
X211815965Y-178549830D01*
X211819064Y-178554257D01*
X211819066Y-178554259D01*
X211948399Y-178738966D01*
X211948402Y-178738970D01*
X211951505Y-178743401D01*
X212118599Y-178910495D01*
X212123032Y-178913599D01*
X212123038Y-178913604D01*
X212304158Y-179040425D01*
X212343024Y-179084743D01*
X212357035Y-179142000D01*
X212343024Y-179199257D01*
X212304159Y-179243575D01*
X212245738Y-179284482D01*
X212118599Y-179373505D01*
X212114775Y-179377328D01*
X212114769Y-179377334D01*
X211955334Y-179536769D01*
X211955328Y-179536775D01*
X211951505Y-179540599D01*
X211948402Y-179545029D01*
X211948399Y-179545034D01*
X211819073Y-179729731D01*
X211819068Y-179729738D01*
X211815965Y-179734171D01*
X211813677Y-179739077D01*
X211813675Y-179739081D01*
X211718386Y-179943427D01*
X211718383Y-179943432D01*
X211716097Y-179948337D01*
X211714698Y-179953557D01*
X211714694Y-179953569D01*
X211656337Y-180171365D01*
X211656335Y-180171371D01*
X211654937Y-180176592D01*
X211654465Y-180181977D01*
X211654465Y-180181982D01*
X211636510Y-180387205D01*
X211634341Y-180412000D01*
X211634813Y-180417395D01*
X211634813Y-180417396D01*
X211645597Y-180540659D01*
X211635698Y-180601109D01*
X211598070Y-180649445D01*
X211541894Y-180673871D01*
X211480881Y-180668426D01*
X211429919Y-180634438D01*
X211314220Y-180505942D01*
X211314219Y-180505941D01*
X211309871Y-180501112D01*
X211304613Y-180497292D01*
X211304611Y-180497290D01*
X211161988Y-180393669D01*
X211161987Y-180393668D01*
X211156730Y-180389849D01*
X211150792Y-180387205D01*
X210989745Y-180315501D01*
X210989740Y-180315499D01*
X210983803Y-180312856D01*
X210977444Y-180311504D01*
X210977440Y-180311503D01*
X210805008Y-180274852D01*
X210805005Y-180274851D01*
X210798646Y-180273500D01*
X210609354Y-180273500D01*
X210602995Y-180274851D01*
X210602991Y-180274852D01*
X210430559Y-180311503D01*
X210430552Y-180311505D01*
X210424197Y-180312856D01*
X210418262Y-180315498D01*
X210418254Y-180315501D01*
X210257207Y-180387205D01*
X210257202Y-180387207D01*
X210251270Y-180389849D01*
X210246016Y-180393665D01*
X210246011Y-180393669D01*
X210103388Y-180497290D01*
X210103381Y-180497295D01*
X210098129Y-180501112D01*
X210093784Y-180505937D01*
X210093779Y-180505942D01*
X209975813Y-180636956D01*
X209975808Y-180636962D01*
X209971467Y-180641784D01*
X209968222Y-180647404D01*
X209968218Y-180647410D01*
X209880069Y-180800089D01*
X209880066Y-180800094D01*
X209876821Y-180805716D01*
X209874815Y-180811888D01*
X209874813Y-180811894D01*
X209820333Y-180979564D01*
X209820331Y-180979573D01*
X209818326Y-180985744D01*
X209817648Y-180992194D01*
X209817646Y-180992204D01*
X209801129Y-181149370D01*
X209798540Y-181174000D01*
X209799219Y-181180460D01*
X209817646Y-181355795D01*
X209817647Y-181355803D01*
X209818326Y-181362256D01*
X209820331Y-181368428D01*
X209820333Y-181368435D01*
X209862214Y-181497329D01*
X209876821Y-181542284D01*
X209880068Y-181547908D01*
X209880069Y-181547910D01*
X209955901Y-181679256D01*
X209971467Y-181706216D01*
X209975811Y-181711041D01*
X209975813Y-181711043D01*
X210046650Y-181789715D01*
X210070264Y-181828249D01*
X210078500Y-181872687D01*
X210078500Y-185689548D01*
X210069061Y-185737001D01*
X210042181Y-185777229D01*
X206417228Y-189402181D01*
X206377000Y-189429061D01*
X206329547Y-189438500D01*
X199461578Y-189438500D01*
X199411148Y-189427782D01*
X199377727Y-189403503D01*
X199376750Y-189404589D01*
X199371921Y-189400241D01*
X199367572Y-189395411D01*
X199214431Y-189284148D01*
X199199165Y-189277351D01*
X199047446Y-189209800D01*
X199047441Y-189209798D01*
X199041504Y-189207155D01*
X199035145Y-189205803D01*
X199035141Y-189205802D01*
X198862709Y-189169151D01*
X198862706Y-189169150D01*
X198856347Y-189167799D01*
X198667055Y-189167799D01*
X198660696Y-189169150D01*
X198660692Y-189169151D01*
X198488260Y-189205802D01*
X198488253Y-189205804D01*
X198481898Y-189207155D01*
X198475963Y-189209797D01*
X198475955Y-189209800D01*
X198314908Y-189281504D01*
X198314903Y-189281506D01*
X198308971Y-189284148D01*
X198303717Y-189287964D01*
X198303712Y-189287968D01*
X198161089Y-189391589D01*
X198161082Y-189391594D01*
X198155830Y-189395411D01*
X198151485Y-189400236D01*
X198151480Y-189400241D01*
X198033514Y-189531255D01*
X198033509Y-189531261D01*
X198029168Y-189536083D01*
X198025923Y-189541703D01*
X198025919Y-189541709D01*
X197937770Y-189694388D01*
X197937767Y-189694393D01*
X197934522Y-189700015D01*
X197932516Y-189706187D01*
X197932514Y-189706193D01*
X197878034Y-189873863D01*
X197878032Y-189873872D01*
X197876027Y-189880043D01*
X197875349Y-189886493D01*
X197875347Y-189886503D01*
X197867120Y-189964788D01*
X197856241Y-190068299D01*
X197856920Y-190074759D01*
X197875347Y-190250094D01*
X197875348Y-190250102D01*
X197876027Y-190256555D01*
X197878032Y-190262727D01*
X197878034Y-190262734D01*
X197931117Y-190426105D01*
X197934522Y-190436583D01*
X197937769Y-190442207D01*
X197937770Y-190442209D01*
X198016487Y-190578552D01*
X198029168Y-190600515D01*
X198033512Y-190605340D01*
X198033514Y-190605342D01*
X198146234Y-190730530D01*
X198155830Y-190741187D01*
X198161088Y-190745007D01*
X198161089Y-190745008D01*
X198178796Y-190757873D01*
X198308971Y-190852450D01*
X198481898Y-190929443D01*
X198667055Y-190968799D01*
X198849844Y-190968799D01*
X198856347Y-190968799D01*
X199041504Y-190929443D01*
X199214431Y-190852450D01*
X199367572Y-190741187D01*
X199377168Y-190730528D01*
X199418882Y-190700221D01*
X199469319Y-190689500D01*
X206562225Y-190689500D01*
X206573280Y-190690021D01*
X206580667Y-190691673D01*
X206647872Y-190689561D01*
X206651768Y-190689500D01*
X206675448Y-190689500D01*
X206679350Y-190689500D01*
X206683313Y-190688999D01*
X206694963Y-190688080D01*
X206738627Y-190686709D01*
X206757861Y-190681119D01*
X206776917Y-190677174D01*
X206796792Y-190674664D01*
X206837395Y-190658587D01*
X206848450Y-190654802D01*
X206890390Y-190642618D01*
X206907629Y-190632422D01*
X206925103Y-190623862D01*
X206936474Y-190619360D01*
X206936476Y-190619358D01*
X206943732Y-190616486D01*
X206979069Y-190590811D01*
X206988824Y-190584403D01*
X207026420Y-190562170D01*
X207040584Y-190548005D01*
X207055379Y-190535368D01*
X207071587Y-190523594D01*
X207099428Y-190489938D01*
X207107279Y-190481309D01*
X210607704Y-186980885D01*
X210668014Y-186947627D01*
X210736773Y-186951681D01*
X210792760Y-186991801D01*
X210818702Y-187055607D01*
X210831314Y-187175599D01*
X210834326Y-187204256D01*
X210836331Y-187210428D01*
X210836333Y-187210435D01*
X210887910Y-187369171D01*
X210892821Y-187384284D01*
X210896068Y-187389908D01*
X210896069Y-187389910D01*
X210935528Y-187458256D01*
X210987467Y-187548216D01*
X210991811Y-187553041D01*
X210991813Y-187553043D01*
X211109779Y-187684057D01*
X211114129Y-187688888D01*
X211267270Y-187800151D01*
X211440197Y-187877144D01*
X211625354Y-187916500D01*
X211684548Y-187916500D01*
X211732001Y-187925939D01*
X211772229Y-187952819D01*
X211820181Y-188000771D01*
X211847061Y-188040999D01*
X211856500Y-188088452D01*
X211856500Y-188273201D01*
X211839887Y-188335201D01*
X211794500Y-188380588D01*
X211732500Y-188397201D01*
X211621055Y-188397201D01*
X211614696Y-188398552D01*
X211614692Y-188398553D01*
X211442260Y-188435204D01*
X211442253Y-188435206D01*
X211435898Y-188436557D01*
X211429963Y-188439199D01*
X211429955Y-188439202D01*
X211268908Y-188510906D01*
X211268903Y-188510908D01*
X211262971Y-188513550D01*
X211257717Y-188517366D01*
X211257712Y-188517370D01*
X211115089Y-188620991D01*
X211115082Y-188620996D01*
X211109830Y-188624813D01*
X211105485Y-188629638D01*
X211105480Y-188629643D01*
X210987514Y-188760657D01*
X210987509Y-188760663D01*
X210983168Y-188765485D01*
X210979923Y-188771105D01*
X210979919Y-188771111D01*
X210891770Y-188923790D01*
X210891767Y-188923795D01*
X210888522Y-188929417D01*
X210886516Y-188935589D01*
X210886514Y-188935595D01*
X210832034Y-189103265D01*
X210832032Y-189103274D01*
X210830027Y-189109445D01*
X210829348Y-189115904D01*
X210829348Y-189115905D01*
X210812379Y-189277351D01*
X210800979Y-189317772D01*
X210776739Y-189352070D01*
X209312930Y-190815881D01*
X209272702Y-190842761D01*
X209225249Y-190852200D01*
X208867748Y-190852200D01*
X208817315Y-190841481D01*
X208779218Y-190813804D01*
X208779050Y-190813991D01*
X208777271Y-190812389D01*
X208775601Y-190811176D01*
X208769871Y-190804812D01*
X208764613Y-190800992D01*
X208764611Y-190800990D01*
X208621988Y-190697369D01*
X208621987Y-190697368D01*
X208616730Y-190693549D01*
X208610792Y-190690905D01*
X208449745Y-190619201D01*
X208449740Y-190619199D01*
X208443803Y-190616556D01*
X208437444Y-190615204D01*
X208437440Y-190615203D01*
X208265008Y-190578552D01*
X208265005Y-190578551D01*
X208258646Y-190577200D01*
X208069354Y-190577200D01*
X208062995Y-190578551D01*
X208062991Y-190578552D01*
X207890559Y-190615203D01*
X207890552Y-190615205D01*
X207884197Y-190616556D01*
X207878262Y-190619198D01*
X207878254Y-190619201D01*
X207717207Y-190690905D01*
X207717202Y-190690907D01*
X207711270Y-190693549D01*
X207706016Y-190697365D01*
X207706011Y-190697369D01*
X207563388Y-190800990D01*
X207563381Y-190800995D01*
X207558129Y-190804812D01*
X207553784Y-190809637D01*
X207553779Y-190809642D01*
X207435813Y-190940656D01*
X207435808Y-190940662D01*
X207431467Y-190945484D01*
X207428222Y-190951104D01*
X207428218Y-190951110D01*
X207340069Y-191103789D01*
X207340066Y-191103794D01*
X207336821Y-191109416D01*
X207334815Y-191115588D01*
X207334813Y-191115594D01*
X207280333Y-191283264D01*
X207280331Y-191283273D01*
X207278326Y-191289444D01*
X207277648Y-191295894D01*
X207277646Y-191295904D01*
X207269021Y-191377976D01*
X207258540Y-191477700D01*
X207259219Y-191484160D01*
X207277646Y-191659495D01*
X207277647Y-191659503D01*
X207278326Y-191665956D01*
X207280331Y-191672128D01*
X207280333Y-191672135D01*
X207321888Y-191800025D01*
X207336821Y-191845984D01*
X207340068Y-191851608D01*
X207340069Y-191851610D01*
X207421555Y-191992749D01*
X207431467Y-192009916D01*
X207435811Y-192014741D01*
X207435813Y-192014743D01*
X207517417Y-192105373D01*
X207558129Y-192150588D01*
X207711270Y-192261851D01*
X207884197Y-192338844D01*
X207977660Y-192358710D01*
X208031585Y-192385010D01*
X208066850Y-192433549D01*
X208075200Y-192492961D01*
X208054680Y-192549340D01*
X208010094Y-192589485D01*
X207951879Y-192604000D01*
X192670000Y-192604000D01*
X192670000Y-192620326D01*
X192670000Y-197926209D01*
X192653387Y-197988209D01*
X192608000Y-198033596D01*
X192546000Y-198050209D01*
X182754115Y-198050209D01*
X182745901Y-198049937D01*
X182530255Y-198035620D01*
X182529975Y-198035601D01*
X182431549Y-198028843D01*
X182417318Y-198027034D01*
X182240163Y-197994008D01*
X182239333Y-197993850D01*
X182106478Y-197968145D01*
X182093113Y-197964779D01*
X181928091Y-197913310D01*
X181926750Y-197912883D01*
X181791095Y-197868878D01*
X181778755Y-197864135D01*
X181623755Y-197794852D01*
X181621962Y-197794033D01*
X181489938Y-197732485D01*
X181478753Y-197726558D01*
X181334457Y-197640382D01*
X181332297Y-197639062D01*
X181207368Y-197560949D01*
X181197435Y-197554042D01*
X181065152Y-197452141D01*
X181062724Y-197450222D01*
X180947480Y-197356771D01*
X180947447Y-197356744D01*
X180938851Y-197349084D01*
X180874662Y-197286291D01*
X180820007Y-197232824D01*
X180817432Y-197230229D01*
X180713967Y-197122863D01*
X180706721Y-197114646D01*
X180602691Y-196985572D01*
X180600099Y-196982241D01*
X180510264Y-196862668D01*
X180510256Y-196862657D01*
X180504366Y-196854090D01*
X180416446Y-196713965D01*
X180414024Y-196709935D01*
X180339281Y-196579927D01*
X180334724Y-196571216D01*
X180264043Y-196421986D01*
X180261859Y-196417106D01*
X180203492Y-196278753D01*
X180200213Y-196270090D01*
X180147638Y-196113704D01*
X180145906Y-196108114D01*
X180104843Y-195963494D01*
X180102764Y-195955056D01*
X180068985Y-195793647D01*
X180067845Y-195787386D01*
X180044748Y-195638688D01*
X180043767Y-195630634D01*
X180029235Y-195466436D01*
X180028821Y-195459539D01*
X180024074Y-195309077D01*
X180024068Y-195301559D01*
X180024091Y-195300782D01*
X181264365Y-195300782D01*
X181264789Y-195305899D01*
X181284475Y-195543483D01*
X181284476Y-195543491D01*
X181284900Y-195548603D01*
X181286157Y-195553570D01*
X181286159Y-195553577D01*
X181324330Y-195704308D01*
X181345945Y-195789663D01*
X181348005Y-195794359D01*
X181443774Y-196012692D01*
X181443777Y-196012698D01*
X181445835Y-196017389D01*
X181448635Y-196021675D01*
X181448639Y-196021682D01*
X181508795Y-196113757D01*
X181581844Y-196225567D01*
X181585318Y-196229341D01*
X181585319Y-196229342D01*
X181746792Y-196404749D01*
X181746795Y-196404752D01*
X181750264Y-196408520D01*
X181946499Y-196561256D01*
X182165198Y-196679610D01*
X182400394Y-196760353D01*
X182645673Y-196801282D01*
X182889209Y-196801282D01*
X182894343Y-196801282D01*
X183139622Y-196760353D01*
X183374818Y-196679610D01*
X183593517Y-196561256D01*
X183789752Y-196408520D01*
X183958172Y-196225567D01*
X184094181Y-196017389D01*
X184194071Y-195789663D01*
X184255116Y-195548603D01*
X184275651Y-195300782D01*
X184255116Y-195052961D01*
X184194071Y-194811901D01*
X184094181Y-194584175D01*
X184089550Y-194577087D01*
X183960979Y-194380294D01*
X183958172Y-194375997D01*
X183918942Y-194333382D01*
X183793223Y-194196814D01*
X183793219Y-194196811D01*
X183789752Y-194193044D01*
X183593517Y-194040308D01*
X183589005Y-194037866D01*
X183379324Y-193924392D01*
X183379318Y-193924389D01*
X183374818Y-193921954D01*
X183369977Y-193920292D01*
X183369970Y-193920289D01*
X183144473Y-193842876D01*
X183144469Y-193842875D01*
X183139622Y-193841211D01*
X183130776Y-193839734D01*
X182899406Y-193801126D01*
X182899395Y-193801125D01*
X182894343Y-193800282D01*
X182645673Y-193800282D01*
X182640621Y-193801125D01*
X182640609Y-193801126D01*
X182405451Y-193840367D01*
X182405449Y-193840367D01*
X182400394Y-193841211D01*
X182395549Y-193842874D01*
X182395542Y-193842876D01*
X182170045Y-193920289D01*
X182170034Y-193920293D01*
X182165198Y-193921954D01*
X182160701Y-193924387D01*
X182160691Y-193924392D01*
X181951010Y-194037866D01*
X181951003Y-194037870D01*
X181946499Y-194040308D01*
X181942456Y-194043454D01*
X181942448Y-194043460D01*
X181777297Y-194172003D01*
X181750264Y-194193044D01*
X181746801Y-194196805D01*
X181746792Y-194196814D01*
X181585319Y-194372221D01*
X181585313Y-194372228D01*
X181581844Y-194375997D01*
X181579039Y-194380288D01*
X181579036Y-194380294D01*
X181448639Y-194579881D01*
X181448632Y-194579893D01*
X181445835Y-194584175D01*
X181443780Y-194588859D01*
X181443774Y-194588871D01*
X181350500Y-194801516D01*
X181345945Y-194811901D01*
X181344687Y-194816866D01*
X181344686Y-194816871D01*
X181286159Y-195047986D01*
X181286157Y-195047995D01*
X181284900Y-195052961D01*
X181284476Y-195058070D01*
X181284475Y-195058080D01*
X181264789Y-195295665D01*
X181264365Y-195300782D01*
X180024091Y-195300782D01*
X180028968Y-195136818D01*
X180029421Y-195129325D01*
X180043104Y-194979401D01*
X180043932Y-194972500D01*
X180068200Y-194809458D01*
X180069651Y-194801516D01*
X180101550Y-194654438D01*
X180103063Y-194648249D01*
X180146379Y-194489127D01*
X180148942Y-194480870D01*
X180198541Y-194338912D01*
X180200593Y-194333461D01*
X180262390Y-194180430D01*
X180266152Y-194172035D01*
X180332680Y-194037314D01*
X180335071Y-194032724D01*
X180414574Y-193887820D01*
X180419603Y-193879461D01*
X180501948Y-193754119D01*
X180504600Y-193750246D01*
X180600731Y-193615545D01*
X180607097Y-193607373D01*
X180703922Y-193493304D01*
X180706636Y-193490214D01*
X180818207Y-193367494D01*
X180825897Y-193359755D01*
X180935649Y-193258647D01*
X180938228Y-193256341D01*
X181063868Y-193147269D01*
X181072872Y-193140159D01*
X181193619Y-193053615D01*
X181195931Y-193052001D01*
X181334185Y-192958044D01*
X181344469Y-192951765D01*
X181474011Y-192881112D01*
X181475897Y-192880108D01*
X181625260Y-192802560D01*
X181636722Y-192797333D01*
X181772335Y-192743677D01*
X181774004Y-192743033D01*
X181932893Y-192683069D01*
X181945472Y-192679074D01*
X182083714Y-192643156D01*
X182084471Y-192642964D01*
X182252712Y-192601284D01*
X182266203Y-192598729D01*
X182400693Y-192580921D01*
X182580030Y-192558417D01*
X182594299Y-192557460D01*
X182687929Y-192556599D01*
X182687988Y-192556599D01*
X182687988Y-192556668D01*
X182688274Y-192556597D01*
X182910423Y-192555084D01*
X182917677Y-192555249D01*
X183058421Y-192562601D01*
X183348450Y-192549690D01*
X183635879Y-192508843D01*
X183918023Y-192440442D01*
X184192246Y-192345124D01*
X184455988Y-192223781D01*
X184706785Y-192077546D01*
X184824538Y-191992668D01*
X184824598Y-191992751D01*
X184824599Y-191992749D01*
X184824540Y-191992667D01*
X184824946Y-191992374D01*
X184824952Y-191992383D01*
X184825002Y-191992331D01*
X184920651Y-191923386D01*
X184920652Y-191923385D01*
X184922246Y-191925596D01*
X184922463Y-191925439D01*
X184920810Y-191923269D01*
X185083604Y-191799203D01*
X185084358Y-191800192D01*
X185084566Y-191800025D01*
X185083759Y-191799079D01*
X185238650Y-191666886D01*
X185239191Y-191667520D01*
X185239374Y-191667356D01*
X185238796Y-191666754D01*
X185385200Y-191526261D01*
X185385854Y-191526942D01*
X185386030Y-191526759D01*
X185385337Y-191526120D01*
X185522687Y-191377149D01*
X185523584Y-191377976D01*
X185523765Y-191377769D01*
X185522816Y-191377000D01*
X185650541Y-191219373D01*
X185651221Y-191219924D01*
X185651374Y-191219720D01*
X185650659Y-191219215D01*
X185713783Y-191129808D01*
X185768180Y-191052762D01*
X185768190Y-191052756D01*
X185768233Y-191052688D01*
X185768287Y-191052612D01*
X185768287Y-191052610D01*
X185768293Y-191052601D01*
X185768289Y-191052599D01*
X185812259Y-190983594D01*
X185813117Y-190984141D01*
X185813246Y-190983928D01*
X185812361Y-190983425D01*
X185920119Y-190793825D01*
X185920569Y-190794080D01*
X185920677Y-190793872D01*
X185920209Y-190793650D01*
X186013310Y-190597531D01*
X186013977Y-190597847D01*
X186014077Y-190597617D01*
X186013388Y-190597350D01*
X186091939Y-190394935D01*
X186092780Y-190395261D01*
X186092867Y-190395014D01*
X186092004Y-190394749D01*
X186156116Y-190186253D01*
X186156693Y-190186430D01*
X186156757Y-190186199D01*
X186156168Y-190186063D01*
X186207292Y-189964788D01*
X186207341Y-189964573D01*
X186207351Y-189964559D01*
X186207363Y-189964480D01*
X186207996Y-189964480D01*
X186208286Y-189964547D01*
X186208290Y-189964526D01*
X186207996Y-189964480D01*
X186207363Y-189964480D01*
X186207364Y-189964476D01*
X186207382Y-189964399D01*
X186207381Y-189964394D01*
X186207384Y-189964383D01*
X186207379Y-189964382D01*
X186207379Y-189964381D01*
X186242948Y-189740392D01*
X186242968Y-189740345D01*
X186242963Y-189740345D01*
X186242971Y-189740257D01*
X186242983Y-189740182D01*
X186242987Y-189740182D01*
X186242981Y-189740138D01*
X186263746Y-189514173D01*
X186264782Y-189514268D01*
X186264799Y-189514007D01*
X186263758Y-189513977D01*
X186270505Y-189286580D01*
X186272550Y-189286640D01*
X186272553Y-189286574D01*
X186270508Y-189286574D01*
X186270508Y-189286492D01*
X186270511Y-189286391D01*
X186272556Y-189286451D01*
X186272559Y-189286383D01*
X186270508Y-189286383D01*
X186270508Y-188047000D01*
X187529341Y-188047000D01*
X187529813Y-188052395D01*
X187548694Y-188268209D01*
X187549937Y-188282408D01*
X187551336Y-188287630D01*
X187551337Y-188287634D01*
X187609694Y-188505430D01*
X187609697Y-188505438D01*
X187611097Y-188510663D01*
X187613385Y-188515570D01*
X187613386Y-188515572D01*
X187708678Y-188719927D01*
X187708681Y-188719933D01*
X187710965Y-188724830D01*
X187714064Y-188729257D01*
X187714066Y-188729259D01*
X187843399Y-188913966D01*
X187843402Y-188913970D01*
X187846505Y-188918401D01*
X188013599Y-189085495D01*
X188207170Y-189221035D01*
X188421337Y-189320903D01*
X188649592Y-189382063D01*
X188857363Y-189400241D01*
X188879536Y-189402181D01*
X188885000Y-189402659D01*
X188890464Y-189402181D01*
X188912637Y-189400241D01*
X189120408Y-189382063D01*
X189348663Y-189320903D01*
X189562830Y-189221035D01*
X189756401Y-189085495D01*
X189923495Y-188918401D01*
X190059035Y-188724830D01*
X190158903Y-188510663D01*
X190220063Y-188282408D01*
X190240659Y-188047000D01*
X190220063Y-187811592D01*
X190158903Y-187583337D01*
X190059035Y-187369171D01*
X189923495Y-187175599D01*
X189756401Y-187008505D01*
X189751970Y-187005402D01*
X189751966Y-187005399D01*
X189570405Y-186878269D01*
X189531540Y-186833951D01*
X189517529Y-186776694D01*
X189531540Y-186719437D01*
X189570406Y-186675119D01*
X189751638Y-186548219D01*
X189759909Y-186541278D01*
X189919278Y-186381909D01*
X189926215Y-186373643D01*
X190055498Y-186189008D01*
X190060886Y-186179676D01*
X190156143Y-185975397D01*
X190159831Y-185965263D01*
X190211943Y-185770780D01*
X190212311Y-185759551D01*
X190201369Y-185757000D01*
X187568631Y-185757000D01*
X187557688Y-185759551D01*
X187558056Y-185770780D01*
X187610168Y-185965263D01*
X187613856Y-185975397D01*
X187709113Y-186179676D01*
X187714501Y-186189008D01*
X187843784Y-186373643D01*
X187850721Y-186381909D01*
X188010090Y-186541278D01*
X188018356Y-186548215D01*
X188199595Y-186675120D01*
X188238460Y-186719438D01*
X188252471Y-186776695D01*
X188238460Y-186833952D01*
X188199594Y-186878270D01*
X188018034Y-187005399D01*
X188018029Y-187005402D01*
X188013599Y-187008505D01*
X188009775Y-187012328D01*
X188009769Y-187012334D01*
X187850334Y-187171769D01*
X187850328Y-187171775D01*
X187846505Y-187175599D01*
X187843402Y-187180029D01*
X187843399Y-187180034D01*
X187714073Y-187364731D01*
X187714068Y-187364738D01*
X187710965Y-187369171D01*
X187708677Y-187374077D01*
X187708675Y-187374081D01*
X187613386Y-187578427D01*
X187613383Y-187578432D01*
X187611097Y-187583337D01*
X187609698Y-187588557D01*
X187609694Y-187588569D01*
X187551337Y-187806365D01*
X187551335Y-187806371D01*
X187549937Y-187811592D01*
X187549465Y-187816977D01*
X187549465Y-187816982D01*
X187533623Y-187998055D01*
X187529341Y-188047000D01*
X186270508Y-188047000D01*
X186270508Y-183861578D01*
X187534500Y-183861578D01*
X187534501Y-183864872D01*
X187534853Y-183868150D01*
X187534854Y-183868161D01*
X187540079Y-183916768D01*
X187540080Y-183916773D01*
X187540909Y-183924483D01*
X187543619Y-183931749D01*
X187543620Y-183931753D01*
X187565530Y-183990495D01*
X187591204Y-184059331D01*
X187596518Y-184066430D01*
X187596519Y-184066431D01*
X187657513Y-184147909D01*
X187677454Y-184174546D01*
X187792669Y-184260796D01*
X187924598Y-184310002D01*
X187974977Y-184344981D01*
X188002431Y-184399825D01*
X188000242Y-184461118D01*
X187968947Y-184513865D01*
X187850714Y-184632098D01*
X187843784Y-184640357D01*
X187714508Y-184824982D01*
X187709110Y-184834332D01*
X187613856Y-185038602D01*
X187610168Y-185048736D01*
X187558056Y-185243219D01*
X187557688Y-185254448D01*
X187568631Y-185257000D01*
X190201369Y-185257000D01*
X190212311Y-185254448D01*
X190211943Y-185243219D01*
X190159831Y-185048736D01*
X190156143Y-185038602D01*
X190060889Y-184834332D01*
X190055491Y-184824982D01*
X189926215Y-184640357D01*
X189919280Y-184632092D01*
X189801053Y-184513865D01*
X189769757Y-184461119D01*
X189767568Y-184399825D01*
X189795022Y-184344981D01*
X189845398Y-184310003D01*
X189977331Y-184260796D01*
X190092546Y-184174546D01*
X190178796Y-184059331D01*
X190229091Y-183924483D01*
X190235500Y-183864873D01*
X190235499Y-182069128D01*
X190229091Y-182009517D01*
X190178796Y-181874669D01*
X190092546Y-181759454D01*
X190065566Y-181739257D01*
X189984431Y-181678519D01*
X189984430Y-181678518D01*
X189977331Y-181673204D01*
X189842483Y-181622909D01*
X189834770Y-181622079D01*
X189834767Y-181622079D01*
X189786180Y-181616855D01*
X189786169Y-181616854D01*
X189782873Y-181616500D01*
X189779550Y-181616500D01*
X187990439Y-181616500D01*
X187990420Y-181616500D01*
X187987128Y-181616501D01*
X187983850Y-181616853D01*
X187983838Y-181616854D01*
X187935231Y-181622079D01*
X187935225Y-181622080D01*
X187927517Y-181622909D01*
X187920252Y-181625618D01*
X187920246Y-181625620D01*
X187800980Y-181670104D01*
X187800978Y-181670104D01*
X187792669Y-181673204D01*
X187785572Y-181678516D01*
X187785568Y-181678519D01*
X187684550Y-181754141D01*
X187684546Y-181754144D01*
X187677454Y-181759454D01*
X187672144Y-181766546D01*
X187672141Y-181766550D01*
X187596519Y-181867568D01*
X187596516Y-181867572D01*
X187591204Y-181874669D01*
X187588104Y-181882978D01*
X187588104Y-181882980D01*
X187543620Y-182002247D01*
X187543619Y-182002250D01*
X187540909Y-182009517D01*
X187540079Y-182017227D01*
X187540079Y-182017232D01*
X187534855Y-182065819D01*
X187534854Y-182065831D01*
X187534500Y-182069127D01*
X187534500Y-182072448D01*
X187534500Y-182072449D01*
X187534500Y-183861560D01*
X187534500Y-183861578D01*
X186270508Y-183861578D01*
X186270508Y-176300782D01*
X188264365Y-176300782D01*
X188264789Y-176305899D01*
X188284475Y-176543483D01*
X188284476Y-176543491D01*
X188284900Y-176548603D01*
X188286157Y-176553570D01*
X188286159Y-176553577D01*
X188323511Y-176701073D01*
X188345945Y-176789663D01*
X188348005Y-176794359D01*
X188443774Y-177012692D01*
X188443777Y-177012698D01*
X188445835Y-177017389D01*
X188448635Y-177021675D01*
X188448639Y-177021682D01*
X188558431Y-177189731D01*
X188581844Y-177225567D01*
X188585318Y-177229341D01*
X188585319Y-177229342D01*
X188746792Y-177404749D01*
X188746795Y-177404752D01*
X188750264Y-177408520D01*
X188946499Y-177561256D01*
X189165198Y-177679610D01*
X189400394Y-177760353D01*
X189645673Y-177801282D01*
X189889209Y-177801282D01*
X189894343Y-177801282D01*
X190139622Y-177760353D01*
X190374818Y-177679610D01*
X190593517Y-177561256D01*
X190789752Y-177408520D01*
X190958172Y-177225567D01*
X191094181Y-177017389D01*
X191194071Y-176789663D01*
X191255116Y-176548603D01*
X191275651Y-176300782D01*
X191255116Y-176052961D01*
X191194071Y-175811901D01*
X191094181Y-175584175D01*
X190958172Y-175375997D01*
X190932016Y-175347584D01*
X190793223Y-175196814D01*
X190793219Y-175196811D01*
X190789752Y-175193044D01*
X190593517Y-175040308D01*
X190589005Y-175037866D01*
X190379324Y-174924392D01*
X190379318Y-174924389D01*
X190374818Y-174921954D01*
X190369977Y-174920292D01*
X190369970Y-174920289D01*
X190144473Y-174842876D01*
X190144469Y-174842875D01*
X190139622Y-174841211D01*
X190130776Y-174839734D01*
X189899406Y-174801126D01*
X189899395Y-174801125D01*
X189894343Y-174800282D01*
X189645673Y-174800282D01*
X189640621Y-174801125D01*
X189640609Y-174801126D01*
X189405451Y-174840367D01*
X189405449Y-174840367D01*
X189400394Y-174841211D01*
X189395549Y-174842874D01*
X189395542Y-174842876D01*
X189170045Y-174920289D01*
X189170034Y-174920293D01*
X189165198Y-174921954D01*
X189160701Y-174924387D01*
X189160691Y-174924392D01*
X188951010Y-175037866D01*
X188951003Y-175037870D01*
X188946499Y-175040308D01*
X188942456Y-175043454D01*
X188942448Y-175043460D01*
X188754312Y-175189893D01*
X188750264Y-175193044D01*
X188746801Y-175196805D01*
X188746792Y-175196814D01*
X188585319Y-175372221D01*
X188585313Y-175372228D01*
X188581844Y-175375997D01*
X188579039Y-175380288D01*
X188579036Y-175380294D01*
X188448639Y-175579881D01*
X188448632Y-175579893D01*
X188445835Y-175584175D01*
X188443780Y-175588859D01*
X188443774Y-175588871D01*
X188348005Y-175807204D01*
X188345945Y-175811901D01*
X188344687Y-175816866D01*
X188344686Y-175816871D01*
X188286159Y-176047986D01*
X188286157Y-176047995D01*
X188284900Y-176052961D01*
X188284476Y-176058070D01*
X188284475Y-176058080D01*
X188264789Y-176295665D01*
X188264365Y-176300782D01*
X186270508Y-176300782D01*
X186270508Y-174316000D01*
X194050540Y-174316000D01*
X194051219Y-174322460D01*
X194069646Y-174497795D01*
X194069647Y-174497803D01*
X194070326Y-174504256D01*
X194072331Y-174510428D01*
X194072333Y-174510435D01*
X194125403Y-174673764D01*
X194128821Y-174684284D01*
X194132068Y-174689908D01*
X194132069Y-174689910D01*
X194219422Y-174841211D01*
X194223467Y-174848216D01*
X194350129Y-174988888D01*
X194503270Y-175100151D01*
X194676197Y-175177144D01*
X194688932Y-175179850D01*
X194692343Y-175180576D01*
X194739449Y-175201547D01*
X194773952Y-175239865D01*
X194789887Y-175288904D01*
X194794146Y-175329430D01*
X194794147Y-175329437D01*
X194794826Y-175335892D01*
X194796833Y-175342071D01*
X194796834Y-175342072D01*
X194843540Y-175485819D01*
X194853321Y-175515920D01*
X194947967Y-175679852D01*
X194952311Y-175684677D01*
X194952313Y-175684679D01*
X195066865Y-175811901D01*
X195074629Y-175820524D01*
X195227770Y-175931787D01*
X195400697Y-176008780D01*
X195585854Y-176048136D01*
X195768643Y-176048136D01*
X195775146Y-176048136D01*
X195960303Y-176008780D01*
X196133230Y-175931787D01*
X196286371Y-175820524D01*
X196413033Y-175679852D01*
X196507679Y-175515920D01*
X196566174Y-175335892D01*
X196585960Y-175147636D01*
X196566174Y-174959380D01*
X196507679Y-174779352D01*
X196413033Y-174615420D01*
X196337849Y-174531920D01*
X196314236Y-174493387D01*
X196306000Y-174448949D01*
X196306000Y-163942275D01*
X196306521Y-163931219D01*
X196308173Y-163923833D01*
X196306061Y-163856613D01*
X196306000Y-163852719D01*
X196306000Y-163829042D01*
X196306000Y-163825150D01*
X196305498Y-163821183D01*
X196304581Y-163809526D01*
X196303719Y-163782089D01*
X196303210Y-163765873D01*
X196297618Y-163746628D01*
X196293674Y-163727583D01*
X196291164Y-163707708D01*
X196275079Y-163667083D01*
X196271306Y-163656062D01*
X196259118Y-163614110D01*
X196248917Y-163596860D01*
X196240363Y-163579401D01*
X196232986Y-163560768D01*
X196207308Y-163525425D01*
X196200901Y-163515671D01*
X196182642Y-163484796D01*
X196182641Y-163484794D01*
X196178670Y-163478080D01*
X196164505Y-163463915D01*
X196151870Y-163449122D01*
X196140094Y-163432913D01*
X196134083Y-163427940D01*
X196134081Y-163427938D01*
X196106441Y-163405073D01*
X196097800Y-163397210D01*
X195894961Y-163194370D01*
X195870721Y-163160072D01*
X195859321Y-163119650D01*
X195842353Y-162958204D01*
X195842352Y-162958203D01*
X195841674Y-162951744D01*
X195783179Y-162771716D01*
X195688533Y-162607784D01*
X195561871Y-162467112D01*
X195556613Y-162463292D01*
X195556611Y-162463290D01*
X195413988Y-162359669D01*
X195413987Y-162359668D01*
X195408730Y-162355849D01*
X195402792Y-162353205D01*
X195241745Y-162281501D01*
X195241740Y-162281499D01*
X195235803Y-162278856D01*
X195229444Y-162277504D01*
X195229440Y-162277503D01*
X195057008Y-162240852D01*
X195057005Y-162240851D01*
X195050646Y-162239500D01*
X194861354Y-162239500D01*
X194854995Y-162240851D01*
X194854991Y-162240852D01*
X194682559Y-162277503D01*
X194682552Y-162277505D01*
X194676197Y-162278856D01*
X194670262Y-162281498D01*
X194670254Y-162281501D01*
X194509207Y-162353205D01*
X194509202Y-162353207D01*
X194503270Y-162355849D01*
X194498016Y-162359665D01*
X194498011Y-162359669D01*
X194355388Y-162463290D01*
X194355381Y-162463295D01*
X194350129Y-162467112D01*
X194345784Y-162471937D01*
X194345779Y-162471942D01*
X194227813Y-162602956D01*
X194227808Y-162602962D01*
X194223467Y-162607784D01*
X194220222Y-162613404D01*
X194220218Y-162613410D01*
X194132069Y-162766089D01*
X194132066Y-162766094D01*
X194128821Y-162771716D01*
X194126815Y-162777888D01*
X194126813Y-162777894D01*
X194072333Y-162945564D01*
X194072331Y-162945573D01*
X194070326Y-162951744D01*
X194069648Y-162958194D01*
X194069646Y-162958204D01*
X194052679Y-163119650D01*
X194050540Y-163140000D01*
X194051219Y-163146460D01*
X194069646Y-163321795D01*
X194069647Y-163321803D01*
X194070326Y-163328256D01*
X194072331Y-163334428D01*
X194072333Y-163334435D01*
X194119007Y-163478080D01*
X194128821Y-163508284D01*
X194132068Y-163513908D01*
X194132069Y-163513910D01*
X194189919Y-163614110D01*
X194223467Y-163672216D01*
X194227811Y-163677041D01*
X194227813Y-163677043D01*
X194273309Y-163727571D01*
X194350129Y-163812888D01*
X194503270Y-163924151D01*
X194676197Y-164001144D01*
X194861354Y-164040500D01*
X194920548Y-164040500D01*
X194968001Y-164049939D01*
X195008229Y-164076819D01*
X195018681Y-164087271D01*
X195045561Y-164127499D01*
X195055000Y-164174952D01*
X195055000Y-164909500D01*
X195038387Y-164971500D01*
X194993000Y-165016887D01*
X194931000Y-165033500D01*
X194861354Y-165033500D01*
X194854995Y-165034851D01*
X194854991Y-165034852D01*
X194682559Y-165071503D01*
X194682552Y-165071505D01*
X194676197Y-165072856D01*
X194670262Y-165075498D01*
X194670254Y-165075501D01*
X194509207Y-165147205D01*
X194509202Y-165147207D01*
X194503270Y-165149849D01*
X194498016Y-165153665D01*
X194498011Y-165153669D01*
X194355388Y-165257290D01*
X194355381Y-165257295D01*
X194350129Y-165261112D01*
X194345784Y-165265937D01*
X194345779Y-165265942D01*
X194227813Y-165396956D01*
X194227808Y-165396962D01*
X194223467Y-165401784D01*
X194220222Y-165407404D01*
X194220218Y-165407410D01*
X194132069Y-165560089D01*
X194132066Y-165560094D01*
X194128821Y-165565716D01*
X194126815Y-165571888D01*
X194126813Y-165571894D01*
X194072333Y-165739564D01*
X194072331Y-165739573D01*
X194070326Y-165745744D01*
X194069648Y-165752194D01*
X194069646Y-165752204D01*
X194052467Y-165915669D01*
X194050540Y-165934000D01*
X194051219Y-165940460D01*
X194069646Y-166115795D01*
X194069647Y-166115803D01*
X194070326Y-166122256D01*
X194072331Y-166128428D01*
X194072333Y-166128435D01*
X194111903Y-166250216D01*
X194128821Y-166302284D01*
X194223467Y-166466216D01*
X194227811Y-166471041D01*
X194227813Y-166471043D01*
X194298650Y-166549715D01*
X194322264Y-166588249D01*
X194330500Y-166632687D01*
X194330500Y-173617313D01*
X194322264Y-173661751D01*
X194298650Y-173700285D01*
X194227813Y-173778956D01*
X194227808Y-173778962D01*
X194223467Y-173783784D01*
X194220222Y-173789404D01*
X194220218Y-173789410D01*
X194132069Y-173942089D01*
X194132066Y-173942094D01*
X194128821Y-173947716D01*
X194126815Y-173953888D01*
X194126813Y-173953894D01*
X194072333Y-174121564D01*
X194072331Y-174121573D01*
X194070326Y-174127744D01*
X194069648Y-174134194D01*
X194069646Y-174134204D01*
X194054446Y-174278838D01*
X194050540Y-174316000D01*
X186270508Y-174316000D01*
X186270508Y-158076378D01*
X189115500Y-158076378D01*
X189115501Y-158079508D01*
X189115820Y-158082640D01*
X189115821Y-158082641D01*
X189125312Y-158175561D01*
X189125313Y-158175569D01*
X189126001Y-158182297D01*
X189128129Y-158188719D01*
X189128130Y-158188723D01*
X189166571Y-158304730D01*
X189181186Y-158348834D01*
X189184977Y-158354980D01*
X189269497Y-158492011D01*
X189269500Y-158492015D01*
X189273288Y-158498156D01*
X189397344Y-158622212D01*
X189403485Y-158626000D01*
X189403488Y-158626002D01*
X189460558Y-158661202D01*
X189546666Y-158714314D01*
X189713203Y-158769499D01*
X189815991Y-158780000D01*
X191116008Y-158779999D01*
X191218797Y-158769499D01*
X191385334Y-158714314D01*
X191534656Y-158622212D01*
X191658712Y-158498156D01*
X191750814Y-158348834D01*
X191751698Y-158349379D01*
X191783662Y-158309546D01*
X191837618Y-158285800D01*
X191896441Y-158289653D01*
X191946838Y-158320234D01*
X192094599Y-158467995D01*
X192288170Y-158603535D01*
X192293070Y-158605820D01*
X192293072Y-158605821D01*
X192317273Y-158617106D01*
X192502337Y-158703403D01*
X192730592Y-158764563D01*
X192966000Y-158785159D01*
X193201408Y-158764563D01*
X193327289Y-158730833D01*
X193359407Y-158722228D01*
X193415692Y-158720386D01*
X193466987Y-158743627D01*
X193502712Y-158787159D01*
X193515500Y-158842003D01*
X193515500Y-159452175D01*
X193507264Y-159496612D01*
X193483650Y-159535147D01*
X193465814Y-159554955D01*
X193465809Y-159554960D01*
X193461467Y-159559784D01*
X193458222Y-159565404D01*
X193458218Y-159565410D01*
X193370069Y-159718089D01*
X193370066Y-159718094D01*
X193366821Y-159723716D01*
X193364815Y-159729888D01*
X193364813Y-159729894D01*
X193310333Y-159897564D01*
X193310331Y-159897573D01*
X193308326Y-159903744D01*
X193307648Y-159910194D01*
X193307646Y-159910204D01*
X193289962Y-160078464D01*
X193288540Y-160092000D01*
X193289219Y-160098460D01*
X193307646Y-160273795D01*
X193307647Y-160273803D01*
X193308326Y-160280256D01*
X193310331Y-160286428D01*
X193310333Y-160286435D01*
X193364813Y-160454105D01*
X193366821Y-160460284D01*
X193461467Y-160624216D01*
X193588129Y-160764888D01*
X193741270Y-160876151D01*
X193914197Y-160953144D01*
X194099354Y-160992500D01*
X194282143Y-160992500D01*
X194288646Y-160992500D01*
X194473803Y-160953144D01*
X194646730Y-160876151D01*
X194647246Y-160877310D01*
X194702000Y-160862639D01*
X194756753Y-160877310D01*
X194757270Y-160876151D01*
X194930197Y-160953144D01*
X195115354Y-160992500D01*
X195298143Y-160992500D01*
X195304646Y-160992500D01*
X195489803Y-160953144D01*
X195662730Y-160876151D01*
X195663246Y-160877310D01*
X195718000Y-160862639D01*
X195772753Y-160877310D01*
X195773270Y-160876151D01*
X195946197Y-160953144D01*
X196131354Y-160992500D01*
X196314143Y-160992500D01*
X196320646Y-160992500D01*
X196505803Y-160953144D01*
X196678730Y-160876151D01*
X196831871Y-160764888D01*
X196958533Y-160624216D01*
X197053179Y-160460284D01*
X197111674Y-160280256D01*
X197131460Y-160092000D01*
X197111674Y-159903744D01*
X197053179Y-159723716D01*
X196958533Y-159559784D01*
X196831871Y-159419112D01*
X196826613Y-159415292D01*
X196826611Y-159415290D01*
X196683988Y-159311669D01*
X196683987Y-159311668D01*
X196678730Y-159307849D01*
X196672792Y-159305205D01*
X196511745Y-159233501D01*
X196511740Y-159233499D01*
X196505803Y-159230856D01*
X196499444Y-159229504D01*
X196499440Y-159229503D01*
X196327008Y-159192852D01*
X196327005Y-159192851D01*
X196320646Y-159191500D01*
X196131354Y-159191500D01*
X196124995Y-159192851D01*
X196124991Y-159192852D01*
X195952559Y-159229503D01*
X195952552Y-159229505D01*
X195946197Y-159230856D01*
X195940262Y-159233498D01*
X195940254Y-159233501D01*
X195773270Y-159307849D01*
X195772755Y-159306692D01*
X195718000Y-159321360D01*
X195663244Y-159306692D01*
X195662730Y-159307849D01*
X195495745Y-159233501D01*
X195495740Y-159233499D01*
X195489803Y-159230856D01*
X195483444Y-159229504D01*
X195483440Y-159229503D01*
X195311008Y-159192852D01*
X195311005Y-159192851D01*
X195304646Y-159191500D01*
X195115354Y-159191500D01*
X195066279Y-159201930D01*
X195011553Y-159201215D01*
X194962464Y-159177007D01*
X194928579Y-159134024D01*
X194916500Y-159080641D01*
X194916500Y-146045421D01*
X194916726Y-146037933D01*
X194917323Y-146028057D01*
X194920358Y-145977894D01*
X194909514Y-145918720D01*
X194908387Y-145911314D01*
X194905385Y-145886589D01*
X194901140Y-145851628D01*
X194897547Y-145842156D01*
X194891522Y-145820542D01*
X194889695Y-145810568D01*
X194865006Y-145755712D01*
X194862142Y-145748797D01*
X194843480Y-145699588D01*
X194843478Y-145699584D01*
X194840818Y-145692570D01*
X194835063Y-145684233D01*
X194824035Y-145664679D01*
X194822958Y-145662285D01*
X194822954Y-145662279D01*
X194819878Y-145655443D01*
X194782785Y-145608097D01*
X194778355Y-145602077D01*
X194744183Y-145552571D01*
X194699170Y-145512693D01*
X194693716Y-145507559D01*
X194482004Y-145295847D01*
X194457764Y-145261549D01*
X194446364Y-145221127D01*
X194441174Y-145171744D01*
X194390996Y-145017313D01*
X194384928Y-144979000D01*
X194390996Y-144940686D01*
X194441174Y-144786256D01*
X194460960Y-144598000D01*
X194448679Y-144481147D01*
X194441853Y-144416204D01*
X194441852Y-144416203D01*
X194441174Y-144409744D01*
X194390996Y-144255313D01*
X194384928Y-144217000D01*
X194390996Y-144178686D01*
X194441174Y-144024256D01*
X194460960Y-143836000D01*
X194445100Y-143685102D01*
X194441853Y-143654204D01*
X194441852Y-143654203D01*
X194441174Y-143647744D01*
X194382679Y-143467716D01*
X194288033Y-143303784D01*
X194283685Y-143298955D01*
X194279863Y-143293694D01*
X194281203Y-143292720D01*
X194264249Y-143265080D01*
X194256000Y-143220608D01*
X194256000Y-141260019D01*
X194256402Y-141258000D01*
X195396540Y-141258000D01*
X195397219Y-141264460D01*
X195415646Y-141439795D01*
X195415647Y-141439803D01*
X195416326Y-141446256D01*
X195418331Y-141452428D01*
X195418333Y-141452435D01*
X195472813Y-141620105D01*
X195474821Y-141626284D01*
X195478068Y-141631908D01*
X195478069Y-141631910D01*
X195544902Y-141747669D01*
X195569467Y-141790216D01*
X195573811Y-141795041D01*
X195573813Y-141795043D01*
X195687096Y-141920856D01*
X195696129Y-141930888D01*
X195701387Y-141934708D01*
X195701388Y-141934709D01*
X195734624Y-141958856D01*
X195849270Y-142042151D01*
X195855201Y-142044792D01*
X195855207Y-142044795D01*
X195965407Y-142093859D01*
X196002653Y-142119458D01*
X196052421Y-142169226D01*
X196076660Y-142203523D01*
X196088061Y-142243944D01*
X196092572Y-142286869D01*
X196092573Y-142286877D01*
X196093252Y-142293330D01*
X196095259Y-142299509D01*
X196095260Y-142299510D01*
X196142886Y-142446089D01*
X196151747Y-142473358D01*
X196154994Y-142478982D01*
X196154995Y-142478984D01*
X196183294Y-142528000D01*
X196246393Y-142637290D01*
X196250737Y-142642115D01*
X196250739Y-142642117D01*
X196323058Y-142722435D01*
X196373055Y-142777962D01*
X196526196Y-142889225D01*
X196699123Y-142966218D01*
X196884280Y-143005574D01*
X197067069Y-143005574D01*
X197073572Y-143005574D01*
X197258729Y-142966218D01*
X197431656Y-142889225D01*
X197514199Y-142829253D01*
X197548763Y-142811643D01*
X197587081Y-142805574D01*
X198627456Y-142805574D01*
X198665774Y-142811643D01*
X198700337Y-142829253D01*
X198799860Y-142901561D01*
X198972787Y-142978554D01*
X199157944Y-143017910D01*
X199340733Y-143017910D01*
X199347236Y-143017910D01*
X199532393Y-142978554D01*
X199705320Y-142901561D01*
X199858461Y-142790298D01*
X199985123Y-142649626D01*
X200079769Y-142485694D01*
X200095648Y-142436820D01*
X200121427Y-142392169D01*
X200163136Y-142361864D01*
X200310730Y-142296151D01*
X200463871Y-142184888D01*
X200590533Y-142044216D01*
X200685179Y-141880284D01*
X200743674Y-141700256D01*
X200763460Y-141512000D01*
X200752169Y-141404574D01*
X200744353Y-141330204D01*
X200744352Y-141330203D01*
X200743674Y-141323744D01*
X200685179Y-141143716D01*
X200590533Y-140979784D01*
X200562909Y-140949105D01*
X200468220Y-140843942D01*
X200468219Y-140843941D01*
X200463871Y-140839112D01*
X200458613Y-140835292D01*
X200458611Y-140835290D01*
X200315988Y-140731669D01*
X200315987Y-140731668D01*
X200310730Y-140727849D01*
X200304792Y-140725205D01*
X200143745Y-140653501D01*
X200143740Y-140653499D01*
X200137803Y-140650856D01*
X200131444Y-140649504D01*
X200131440Y-140649503D01*
X199959008Y-140612852D01*
X199959005Y-140612851D01*
X199952646Y-140611500D01*
X199763354Y-140611500D01*
X199756995Y-140612851D01*
X199756991Y-140612852D01*
X199584559Y-140649503D01*
X199584552Y-140649505D01*
X199578197Y-140650856D01*
X199572262Y-140653498D01*
X199572254Y-140653501D01*
X199411207Y-140725205D01*
X199411202Y-140725207D01*
X199405270Y-140727849D01*
X199400016Y-140731665D01*
X199400011Y-140731669D01*
X199257388Y-140835290D01*
X199257381Y-140835295D01*
X199252129Y-140839112D01*
X199247784Y-140843937D01*
X199247779Y-140843942D01*
X199129813Y-140974956D01*
X199129808Y-140974962D01*
X199125467Y-140979784D01*
X199122222Y-140985404D01*
X199122218Y-140985410D01*
X199034070Y-141138087D01*
X199034066Y-141138093D01*
X199030821Y-141143716D01*
X199028814Y-141149890D01*
X199028811Y-141149899D01*
X199014939Y-141192590D01*
X198989158Y-141237242D01*
X198947446Y-141267548D01*
X198805794Y-141330616D01*
X198805786Y-141330620D01*
X198799860Y-141333259D01*
X198734295Y-141380894D01*
X198699732Y-141398505D01*
X198661414Y-141404574D01*
X197587081Y-141404574D01*
X197548763Y-141398505D01*
X197514199Y-141380894D01*
X197431656Y-141320923D01*
X197390109Y-141302425D01*
X197268793Y-141248410D01*
X197218910Y-141208015D01*
X197195908Y-141148091D01*
X197188353Y-141076205D01*
X197188353Y-141076204D01*
X197187674Y-141069744D01*
X197129179Y-140889716D01*
X197034533Y-140725784D01*
X197023472Y-140713500D01*
X196912220Y-140589942D01*
X196912219Y-140589941D01*
X196907871Y-140585112D01*
X196902613Y-140581292D01*
X196902611Y-140581290D01*
X196759988Y-140477669D01*
X196759987Y-140477668D01*
X196754730Y-140473849D01*
X196748792Y-140471205D01*
X196587745Y-140399501D01*
X196587740Y-140399499D01*
X196581803Y-140396856D01*
X196575444Y-140395504D01*
X196575440Y-140395503D01*
X196403008Y-140358852D01*
X196403005Y-140358851D01*
X196396646Y-140357500D01*
X196207354Y-140357500D01*
X196200995Y-140358851D01*
X196200991Y-140358852D01*
X196028559Y-140395503D01*
X196028552Y-140395505D01*
X196022197Y-140396856D01*
X196016262Y-140399498D01*
X196016254Y-140399501D01*
X195855207Y-140471205D01*
X195855202Y-140471207D01*
X195849270Y-140473849D01*
X195844016Y-140477665D01*
X195844011Y-140477669D01*
X195701388Y-140581290D01*
X195701381Y-140581295D01*
X195696129Y-140585112D01*
X195691784Y-140589937D01*
X195691779Y-140589942D01*
X195573813Y-140720956D01*
X195573808Y-140720962D01*
X195569467Y-140725784D01*
X195566222Y-140731404D01*
X195566218Y-140731410D01*
X195478069Y-140884089D01*
X195478066Y-140884094D01*
X195474821Y-140889716D01*
X195472815Y-140895888D01*
X195472813Y-140895894D01*
X195418333Y-141063564D01*
X195418331Y-141063573D01*
X195416326Y-141069744D01*
X195415648Y-141076194D01*
X195415646Y-141076204D01*
X195401726Y-141208657D01*
X195396540Y-141258000D01*
X194256402Y-141258000D01*
X194265439Y-141212566D01*
X194292319Y-141172338D01*
X195416443Y-140048214D01*
X195438657Y-140026000D01*
X201924540Y-140026000D01*
X201925219Y-140032460D01*
X201943646Y-140207795D01*
X201943647Y-140207803D01*
X201944326Y-140214256D01*
X201946331Y-140220428D01*
X201946333Y-140220435D01*
X201990869Y-140357500D01*
X202002821Y-140394284D01*
X202006068Y-140399908D01*
X202006069Y-140399910D01*
X202065674Y-140503150D01*
X202097467Y-140558216D01*
X202101811Y-140563041D01*
X202101813Y-140563043D01*
X202189959Y-140660939D01*
X202224129Y-140698888D01*
X202229387Y-140702708D01*
X202229388Y-140702709D01*
X202266432Y-140729623D01*
X202377270Y-140810151D01*
X202550197Y-140887144D01*
X202735354Y-140926500D01*
X202918143Y-140926500D01*
X202924646Y-140926500D01*
X203109803Y-140887144D01*
X203282730Y-140810151D01*
X203435871Y-140698888D01*
X203441601Y-140692523D01*
X203443271Y-140691310D01*
X203445050Y-140689709D01*
X203445218Y-140689895D01*
X203483315Y-140662219D01*
X203533748Y-140651500D01*
X205128500Y-140651500D01*
X205190500Y-140668113D01*
X205235887Y-140713500D01*
X205252500Y-140775500D01*
X205252500Y-150756472D01*
X205244264Y-150800910D01*
X205220650Y-150839444D01*
X205142209Y-150926560D01*
X205142204Y-150926566D01*
X205137863Y-150931388D01*
X205134618Y-150937008D01*
X205134614Y-150937014D01*
X205046465Y-151089693D01*
X205046462Y-151089698D01*
X205043217Y-151095320D01*
X205041211Y-151101492D01*
X205041209Y-151101498D01*
X204986729Y-151269168D01*
X204986727Y-151269177D01*
X204984722Y-151275348D01*
X204984044Y-151281798D01*
X204984042Y-151281808D01*
X204966358Y-151450068D01*
X204964936Y-151463604D01*
X204965615Y-151470064D01*
X204984042Y-151645399D01*
X204984043Y-151645407D01*
X204984722Y-151651860D01*
X204986727Y-151658032D01*
X204986729Y-151658039D01*
X205004872Y-151713876D01*
X205043217Y-151831888D01*
X205046464Y-151837512D01*
X205046465Y-151837514D01*
X205106327Y-151941199D01*
X205137863Y-151995820D01*
X205264525Y-152136492D01*
X205417666Y-152247755D01*
X205590593Y-152324748D01*
X205775750Y-152364104D01*
X205958539Y-152364104D01*
X205965042Y-152364104D01*
X206040350Y-152348097D01*
X206043719Y-152347381D01*
X206098448Y-152348097D01*
X206147536Y-152372305D01*
X206181421Y-152415288D01*
X206193500Y-152468671D01*
X206193500Y-155356450D01*
X206193274Y-155363938D01*
X206190094Y-155416489D01*
X206190094Y-155416497D01*
X206189642Y-155423977D01*
X206190993Y-155431353D01*
X206190994Y-155431358D01*
X206200483Y-155483142D01*
X206201610Y-155490542D01*
X206207955Y-155542796D01*
X206207956Y-155542801D01*
X206208860Y-155550243D01*
X206211519Y-155557256D01*
X206211521Y-155557262D01*
X206212450Y-155559711D01*
X206218475Y-155581323D01*
X206218951Y-155583922D01*
X206218954Y-155583931D01*
X206220305Y-155591303D01*
X206223382Y-155598140D01*
X206223383Y-155598143D01*
X206244991Y-155646155D01*
X206247857Y-155653073D01*
X206269182Y-155709301D01*
X206273442Y-155715473D01*
X206273445Y-155715478D01*
X206274937Y-155717639D01*
X206285959Y-155737181D01*
X206287039Y-155739581D01*
X206287044Y-155739590D01*
X206290122Y-155746428D01*
X206294745Y-155752329D01*
X206294747Y-155752332D01*
X206327216Y-155793775D01*
X206331636Y-155799781D01*
X206365817Y-155849300D01*
X206410847Y-155889193D01*
X206416282Y-155894310D01*
X207319688Y-156797716D01*
X207324822Y-156803170D01*
X207364700Y-156848183D01*
X207414206Y-156882355D01*
X207420226Y-156886785D01*
X207467572Y-156923878D01*
X207474408Y-156926954D01*
X207474414Y-156926958D01*
X207476808Y-156928035D01*
X207496362Y-156939063D01*
X207504699Y-156944818D01*
X207560917Y-156966138D01*
X207560925Y-156966141D01*
X207567846Y-156969007D01*
X207622698Y-156993695D01*
X207632670Y-156995522D01*
X207654285Y-157001547D01*
X207663757Y-157005140D01*
X207721460Y-157012146D01*
X207723444Y-157012387D01*
X207730851Y-157013514D01*
X207790023Y-157024358D01*
X207850062Y-157020725D01*
X207857550Y-157020500D01*
X208609079Y-157020500D01*
X208616566Y-157020725D01*
X208676606Y-157024358D01*
X208735782Y-157013513D01*
X208743181Y-157012387D01*
X208802872Y-157005140D01*
X208812332Y-157001551D01*
X208833959Y-156995522D01*
X208843932Y-156993695D01*
X208898808Y-156968996D01*
X208905673Y-156966152D01*
X208961930Y-156944818D01*
X208970264Y-156939064D01*
X208989821Y-156928034D01*
X208999057Y-156923878D01*
X209046413Y-156886775D01*
X209052420Y-156882355D01*
X209101929Y-156848183D01*
X209141822Y-156803151D01*
X209146924Y-156797731D01*
X212959731Y-152984924D01*
X212965151Y-152979822D01*
X213010183Y-152939929D01*
X213044362Y-152890411D01*
X213048789Y-152884396D01*
X213083890Y-152839594D01*
X213131980Y-152802385D01*
X213191976Y-152792511D01*
X213249454Y-152812346D01*
X213290592Y-152857120D01*
X213305500Y-152916068D01*
X213305500Y-163540608D01*
X213297251Y-163585080D01*
X213280296Y-163612720D01*
X213281637Y-163613694D01*
X213277812Y-163618957D01*
X213273467Y-163623784D01*
X213270220Y-163629407D01*
X213270217Y-163629412D01*
X213182069Y-163782089D01*
X213182066Y-163782094D01*
X213178821Y-163787716D01*
X213176815Y-163793888D01*
X213176813Y-163793894D01*
X213122333Y-163961564D01*
X213122331Y-163961573D01*
X213120326Y-163967744D01*
X213119648Y-163974194D01*
X213119646Y-163974204D01*
X213103946Y-164123590D01*
X213100540Y-164156000D01*
X213101219Y-164162460D01*
X213119646Y-164337795D01*
X213119647Y-164337803D01*
X213120326Y-164344256D01*
X213122331Y-164350428D01*
X213122333Y-164350435D01*
X213176813Y-164518105D01*
X213178821Y-164524284D01*
X213273467Y-164688216D01*
X213400129Y-164828888D01*
X213403473Y-164831317D01*
X213434416Y-164875099D01*
X213443685Y-164929041D01*
X213428829Y-164981719D01*
X213392742Y-165022870D01*
X213367386Y-165041292D01*
X213367382Y-165041295D01*
X213362129Y-165045112D01*
X213357784Y-165049937D01*
X213357779Y-165049942D01*
X213239813Y-165180956D01*
X213239808Y-165180962D01*
X213235467Y-165185784D01*
X213232222Y-165191404D01*
X213232218Y-165191410D01*
X213144069Y-165344089D01*
X213144066Y-165344094D01*
X213140821Y-165349716D01*
X213138815Y-165355888D01*
X213138813Y-165355894D01*
X213084333Y-165523564D01*
X213084331Y-165523573D01*
X213082326Y-165529744D01*
X213081648Y-165536194D01*
X213081646Y-165536204D01*
X213063962Y-165704464D01*
X213062540Y-165718000D01*
X213063219Y-165724460D01*
X213081646Y-165899795D01*
X213081647Y-165899803D01*
X213082326Y-165906256D01*
X213084331Y-165912428D01*
X213084333Y-165912435D01*
X213119053Y-166019290D01*
X213140821Y-166086284D01*
X213144068Y-166091908D01*
X213144069Y-166091910D01*
X213185565Y-166163784D01*
X213235467Y-166250216D01*
X213239811Y-166255041D01*
X213239813Y-166255043D01*
X213310811Y-166333894D01*
X213362129Y-166390888D01*
X213515270Y-166502151D01*
X213688197Y-166579144D01*
X213873354Y-166618500D01*
X214056143Y-166618500D01*
X214062646Y-166618500D01*
X214247803Y-166579144D01*
X214420730Y-166502151D01*
X214573871Y-166390888D01*
X214700533Y-166250216D01*
X214795179Y-166086284D01*
X214853674Y-165906256D01*
X214858864Y-165856870D01*
X214870264Y-165816449D01*
X214894501Y-165782154D01*
X215499731Y-165176924D01*
X215505151Y-165171822D01*
X215550183Y-165131929D01*
X215584355Y-165082420D01*
X215588775Y-165076413D01*
X215625878Y-165029057D01*
X215630034Y-165019821D01*
X215641064Y-165000264D01*
X215646818Y-164991930D01*
X215668152Y-164935673D01*
X215670996Y-164928808D01*
X215695695Y-164873932D01*
X215697522Y-164863959D01*
X215703551Y-164842332D01*
X215707140Y-164832872D01*
X215714390Y-164773157D01*
X215715509Y-164765799D01*
X215726357Y-164706606D01*
X215722726Y-164646577D01*
X215722500Y-164639090D01*
X215722500Y-158076378D01*
X218960500Y-158076378D01*
X218960501Y-158079508D01*
X218960820Y-158082640D01*
X218960821Y-158082641D01*
X218970312Y-158175561D01*
X218970313Y-158175569D01*
X218971001Y-158182297D01*
X218973129Y-158188719D01*
X218973130Y-158188723D01*
X219011571Y-158304730D01*
X219026186Y-158348834D01*
X219029977Y-158354980D01*
X219114497Y-158492011D01*
X219114500Y-158492015D01*
X219118288Y-158498156D01*
X219242344Y-158622212D01*
X219248485Y-158626000D01*
X219248488Y-158626002D01*
X219305558Y-158661202D01*
X219391666Y-158714314D01*
X219558203Y-158769499D01*
X219660991Y-158780000D01*
X220961008Y-158779999D01*
X221063797Y-158769499D01*
X221230334Y-158714314D01*
X221379656Y-158622212D01*
X221503712Y-158498156D01*
X221595814Y-158348834D01*
X221596698Y-158349379D01*
X221628662Y-158309546D01*
X221682618Y-158285800D01*
X221741441Y-158289653D01*
X221791838Y-158320234D01*
X221939599Y-158467995D01*
X222133170Y-158603535D01*
X222138070Y-158605820D01*
X222138072Y-158605821D01*
X222162273Y-158617106D01*
X222347337Y-158703403D01*
X222575592Y-158764563D01*
X222811000Y-158785159D01*
X223046408Y-158764563D01*
X223274663Y-158703403D01*
X223488829Y-158603535D01*
X223682401Y-158467995D01*
X223849495Y-158300901D01*
X223985035Y-158107329D01*
X224084903Y-157893163D01*
X224146063Y-157664908D01*
X224161500Y-157488466D01*
X224161500Y-157070534D01*
X224146063Y-156894092D01*
X224084903Y-156665837D01*
X223985035Y-156451671D01*
X223849495Y-156258099D01*
X223682401Y-156091005D01*
X223677970Y-156087902D01*
X223677966Y-156087899D01*
X223493259Y-155958566D01*
X223493257Y-155958564D01*
X223488830Y-155955465D01*
X223483933Y-155953181D01*
X223483927Y-155953178D01*
X223279572Y-155857886D01*
X223279570Y-155857885D01*
X223274663Y-155855597D01*
X223269438Y-155854197D01*
X223269430Y-155854194D01*
X223051634Y-155795837D01*
X223051630Y-155795836D01*
X223046408Y-155794437D01*
X223041020Y-155793965D01*
X223041017Y-155793965D01*
X222816395Y-155774313D01*
X222811000Y-155773841D01*
X222805605Y-155774313D01*
X222580982Y-155793965D01*
X222580977Y-155793965D01*
X222575592Y-155794437D01*
X222570371Y-155795835D01*
X222570365Y-155795837D01*
X222352569Y-155854194D01*
X222352557Y-155854198D01*
X222347337Y-155855597D01*
X222342432Y-155857883D01*
X222342427Y-155857886D01*
X222138081Y-155953175D01*
X222138077Y-155953177D01*
X222133171Y-155955465D01*
X222128738Y-155958568D01*
X222128731Y-155958573D01*
X221944034Y-156087899D01*
X221944029Y-156087902D01*
X221939599Y-156091005D01*
X221935775Y-156094828D01*
X221935775Y-156094829D01*
X221791838Y-156238766D01*
X221741443Y-156269345D01*
X221682621Y-156273200D01*
X221628667Y-156249457D01*
X221596697Y-156209620D01*
X221595814Y-156210166D01*
X221507502Y-156066988D01*
X221507500Y-156066985D01*
X221503712Y-156060844D01*
X221379656Y-155936788D01*
X221373515Y-155933000D01*
X221373511Y-155932997D01*
X221245749Y-155854194D01*
X221230334Y-155844686D01*
X221206451Y-155836772D01*
X221070225Y-155791631D01*
X221070224Y-155791630D01*
X221063797Y-155789501D01*
X221057064Y-155788813D01*
X221057059Y-155788812D01*
X220964140Y-155779319D01*
X220964123Y-155779318D01*
X220961009Y-155779000D01*
X220957860Y-155779000D01*
X219664140Y-155779000D01*
X219664120Y-155779000D01*
X219660992Y-155779001D01*
X219657860Y-155779320D01*
X219657858Y-155779321D01*
X219564938Y-155788812D01*
X219564928Y-155788813D01*
X219558203Y-155789501D01*
X219551781Y-155791628D01*
X219551776Y-155791630D01*
X219398521Y-155842414D01*
X219398517Y-155842415D01*
X219391666Y-155844686D01*
X219385522Y-155848475D01*
X219385519Y-155848477D01*
X219248488Y-155932997D01*
X219248480Y-155933003D01*
X219242344Y-155936788D01*
X219237242Y-155941889D01*
X219237238Y-155941893D01*
X219123393Y-156055738D01*
X219123389Y-156055742D01*
X219118288Y-156060844D01*
X219114503Y-156066980D01*
X219114497Y-156066988D01*
X219029977Y-156204019D01*
X219026186Y-156210166D01*
X219023915Y-156217017D01*
X219023914Y-156217021D01*
X218973131Y-156370274D01*
X218971001Y-156376703D01*
X218970313Y-156383433D01*
X218970312Y-156383440D01*
X218960819Y-156476359D01*
X218960818Y-156476377D01*
X218960500Y-156479491D01*
X218960500Y-156482638D01*
X218960500Y-156482639D01*
X218960500Y-158076359D01*
X218960500Y-158076378D01*
X215722500Y-158076378D01*
X215722500Y-148076550D01*
X215722726Y-148069062D01*
X215725905Y-148016510D01*
X215726358Y-148009023D01*
X215715514Y-147949850D01*
X215714387Y-147942444D01*
X215714146Y-147940460D01*
X215707140Y-147882757D01*
X215703547Y-147873285D01*
X215697522Y-147851670D01*
X215695695Y-147841698D01*
X215671009Y-147786849D01*
X215668142Y-147779927D01*
X215649480Y-147730719D01*
X215646818Y-147723699D01*
X215641059Y-147715356D01*
X215630033Y-147695806D01*
X215628956Y-147693413D01*
X215625878Y-147686573D01*
X215588791Y-147639234D01*
X215584353Y-147633203D01*
X215554446Y-147589876D01*
X215550183Y-147583700D01*
X215544568Y-147578726D01*
X215544565Y-147578722D01*
X215505170Y-147543822D01*
X215499716Y-147538688D01*
X213829310Y-145868282D01*
X213824193Y-145862847D01*
X213784300Y-145817817D01*
X213734781Y-145783636D01*
X213728775Y-145779216D01*
X213687332Y-145746747D01*
X213687329Y-145746745D01*
X213681428Y-145742122D01*
X213674590Y-145739044D01*
X213674581Y-145739039D01*
X213672181Y-145737959D01*
X213652639Y-145726937D01*
X213650478Y-145725445D01*
X213650473Y-145725442D01*
X213644301Y-145721182D01*
X213588073Y-145699857D01*
X213581155Y-145696991D01*
X213533143Y-145675383D01*
X213533140Y-145675382D01*
X213526303Y-145672305D01*
X213518931Y-145670954D01*
X213518922Y-145670951D01*
X213516323Y-145670475D01*
X213494707Y-145664449D01*
X213489908Y-145662629D01*
X213448393Y-145635787D01*
X213448073Y-145636132D01*
X213446463Y-145634633D01*
X213444887Y-145633057D01*
X213336226Y-145538903D01*
X213332499Y-145536508D01*
X213332486Y-145536498D01*
X213239461Y-145476715D01*
X213197668Y-145431827D01*
X213182500Y-145372400D01*
X213182500Y-143582000D01*
X215386540Y-143582000D01*
X215387219Y-143588460D01*
X215405646Y-143763795D01*
X215405647Y-143763803D01*
X215406326Y-143770256D01*
X215408331Y-143776428D01*
X215408333Y-143776435D01*
X215458052Y-143929452D01*
X215464821Y-143950284D01*
X215468068Y-143955908D01*
X215468069Y-143955910D01*
X215553895Y-144104566D01*
X215559467Y-144114216D01*
X215563811Y-144119041D01*
X215563813Y-144119043D01*
X215652013Y-144216999D01*
X215686129Y-144254888D01*
X215839270Y-144366151D01*
X216012197Y-144443144D01*
X216197354Y-144482500D01*
X216380143Y-144482500D01*
X216386646Y-144482500D01*
X216571803Y-144443144D01*
X216622565Y-144420542D01*
X216673000Y-144409822D01*
X216723434Y-144420542D01*
X216774197Y-144443144D01*
X216959354Y-144482500D01*
X217142143Y-144482500D01*
X217148646Y-144482500D01*
X217333803Y-144443144D01*
X217506730Y-144366151D01*
X217589273Y-144306179D01*
X217623837Y-144288569D01*
X217662155Y-144282500D01*
X220992450Y-144282500D01*
X220999937Y-144282725D01*
X221059977Y-144286358D01*
X221119153Y-144275513D01*
X221126552Y-144274387D01*
X221186243Y-144267140D01*
X221195703Y-144263551D01*
X221217330Y-144257522D01*
X221227303Y-144255695D01*
X221282179Y-144230996D01*
X221289044Y-144228152D01*
X221345301Y-144206818D01*
X221353635Y-144201064D01*
X221373192Y-144190034D01*
X221382428Y-144185878D01*
X221429784Y-144148775D01*
X221435791Y-144144355D01*
X221485300Y-144110183D01*
X221525193Y-144065151D01*
X221530295Y-144059731D01*
X223267330Y-142322696D01*
X223272750Y-142317594D01*
X223317782Y-142277701D01*
X223351954Y-142228192D01*
X223356374Y-142222185D01*
X223393477Y-142174829D01*
X223397633Y-142165593D01*
X223408663Y-142146036D01*
X223414417Y-142137702D01*
X223435744Y-142081462D01*
X223438609Y-142074548D01*
X223463294Y-142019703D01*
X223465121Y-142009729D01*
X223471147Y-141988112D01*
X223474739Y-141978644D01*
X223481985Y-141918956D01*
X223483113Y-141911548D01*
X223493957Y-141852378D01*
X223490324Y-141792338D01*
X223490099Y-141784851D01*
X223490099Y-138332211D01*
X223504110Y-138274954D01*
X223542976Y-138230636D01*
X223661000Y-138147995D01*
X223828094Y-137980901D01*
X223963634Y-137787329D01*
X224063502Y-137573163D01*
X224124662Y-137344908D01*
X224140099Y-137168466D01*
X224140099Y-136750534D01*
X224124662Y-136574092D01*
X224063502Y-136345837D01*
X223963634Y-136131671D01*
X223828094Y-135938099D01*
X223661000Y-135771005D01*
X223656569Y-135767902D01*
X223656565Y-135767899D01*
X223471858Y-135638566D01*
X223471856Y-135638564D01*
X223467429Y-135635465D01*
X223462532Y-135633181D01*
X223462526Y-135633178D01*
X223258171Y-135537886D01*
X223258169Y-135537885D01*
X223253262Y-135535597D01*
X223248037Y-135534197D01*
X223248029Y-135534194D01*
X223030233Y-135475837D01*
X223030229Y-135475836D01*
X223025007Y-135474437D01*
X223019619Y-135473965D01*
X223019616Y-135473965D01*
X222794994Y-135454313D01*
X222789599Y-135453841D01*
X222784204Y-135454313D01*
X222559581Y-135473965D01*
X222559576Y-135473965D01*
X222554191Y-135474437D01*
X222548970Y-135475835D01*
X222548964Y-135475837D01*
X222331168Y-135534194D01*
X222331156Y-135534198D01*
X222325936Y-135535597D01*
X222321031Y-135537883D01*
X222321026Y-135537886D01*
X222116680Y-135633175D01*
X222116676Y-135633177D01*
X222111770Y-135635465D01*
X222107337Y-135638568D01*
X222107330Y-135638573D01*
X221922633Y-135767899D01*
X221922628Y-135767902D01*
X221918198Y-135771005D01*
X221914374Y-135774829D01*
X221770437Y-135918766D01*
X221720042Y-135949345D01*
X221661220Y-135953200D01*
X221607266Y-135929457D01*
X221575296Y-135889620D01*
X221574413Y-135890166D01*
X221486101Y-135746988D01*
X221486099Y-135746985D01*
X221482311Y-135740844D01*
X221358255Y-135616788D01*
X221352114Y-135613000D01*
X221352110Y-135612997D01*
X221215079Y-135528477D01*
X221208933Y-135524686D01*
X221055867Y-135473965D01*
X221048824Y-135471631D01*
X221048823Y-135471630D01*
X221042396Y-135469501D01*
X221035663Y-135468813D01*
X221035658Y-135468812D01*
X220942739Y-135459319D01*
X220942722Y-135459318D01*
X220939608Y-135459000D01*
X220936459Y-135459000D01*
X219642739Y-135459000D01*
X219642719Y-135459000D01*
X219639591Y-135459001D01*
X219636459Y-135459320D01*
X219636457Y-135459321D01*
X219543537Y-135468812D01*
X219543527Y-135468813D01*
X219536802Y-135469501D01*
X219530380Y-135471628D01*
X219530375Y-135471630D01*
X219377120Y-135522414D01*
X219377116Y-135522415D01*
X219370265Y-135524686D01*
X219364121Y-135528475D01*
X219364118Y-135528477D01*
X219227087Y-135612997D01*
X219227079Y-135613003D01*
X219220943Y-135616788D01*
X219215841Y-135621889D01*
X219215837Y-135621893D01*
X219101992Y-135735738D01*
X219101988Y-135735742D01*
X219096887Y-135740844D01*
X219093102Y-135746980D01*
X219093096Y-135746988D01*
X219008576Y-135884019D01*
X219004785Y-135890166D01*
X219002514Y-135897017D01*
X219002513Y-135897021D01*
X218951730Y-136050274D01*
X218949600Y-136056703D01*
X218948912Y-136063433D01*
X218948911Y-136063440D01*
X218939418Y-136156359D01*
X218939417Y-136156377D01*
X218939099Y-136159491D01*
X218939099Y-136162638D01*
X218939099Y-136162639D01*
X218939099Y-137756359D01*
X218939099Y-137756378D01*
X218939100Y-137759508D01*
X218939419Y-137762640D01*
X218939420Y-137762641D01*
X218948911Y-137855561D01*
X218948912Y-137855569D01*
X218949600Y-137862297D01*
X218951728Y-137868719D01*
X218951729Y-137868723D01*
X219002513Y-138021978D01*
X219004785Y-138028834D01*
X219008576Y-138034980D01*
X219093096Y-138172011D01*
X219093099Y-138172015D01*
X219096887Y-138178156D01*
X219220943Y-138302212D01*
X219227084Y-138306000D01*
X219227087Y-138306002D01*
X219263057Y-138328188D01*
X219370265Y-138394314D01*
X219536802Y-138449499D01*
X219639590Y-138460000D01*
X220939607Y-138459999D01*
X221042396Y-138449499D01*
X221208933Y-138394314D01*
X221358255Y-138302212D01*
X221482311Y-138178156D01*
X221574413Y-138028834D01*
X221575297Y-138029379D01*
X221607261Y-137989546D01*
X221661217Y-137965800D01*
X221720040Y-137969653D01*
X221770437Y-138000234D01*
X221918198Y-138147995D01*
X222036222Y-138230636D01*
X222075088Y-138274954D01*
X222089099Y-138332211D01*
X222089099Y-141468253D01*
X222079660Y-141515706D01*
X222052780Y-141555934D01*
X221482689Y-142126023D01*
X221425007Y-142158659D01*
X221358755Y-142156924D01*
X221302859Y-142121315D01*
X221296221Y-142113943D01*
X221296220Y-142113942D01*
X221291871Y-142109112D01*
X221286613Y-142105292D01*
X221286611Y-142105290D01*
X221143988Y-142001669D01*
X221143987Y-142001668D01*
X221138730Y-141997849D01*
X221132792Y-141995205D01*
X220971745Y-141923501D01*
X220971740Y-141923499D01*
X220965803Y-141920856D01*
X220959444Y-141919504D01*
X220959440Y-141919503D01*
X220787008Y-141882852D01*
X220787005Y-141882851D01*
X220780646Y-141881500D01*
X220774143Y-141881500D01*
X220728976Y-141881500D01*
X220678085Y-141870576D01*
X220648769Y-141857382D01*
X220648768Y-141857381D01*
X220641932Y-141854305D01*
X220634560Y-141852954D01*
X220634551Y-141852951D01*
X220631952Y-141852475D01*
X220610340Y-141846450D01*
X220607891Y-141845521D01*
X220607885Y-141845519D01*
X220600872Y-141842860D01*
X220593430Y-141841956D01*
X220593425Y-141841955D01*
X220541171Y-141835610D01*
X220533771Y-141834483D01*
X220481987Y-141824994D01*
X220481982Y-141824993D01*
X220474606Y-141823642D01*
X220467126Y-141824094D01*
X220467118Y-141824094D01*
X220414567Y-141827274D01*
X220407079Y-141827500D01*
X219414927Y-141827500D01*
X219392576Y-141825469D01*
X219389985Y-141824994D01*
X219389983Y-141824993D01*
X219382606Y-141823642D01*
X219375126Y-141824094D01*
X219375118Y-141824094D01*
X219322567Y-141827274D01*
X219315079Y-141827500D01*
X217697254Y-141827500D01*
X217658936Y-141821431D01*
X217624372Y-141803820D01*
X217541829Y-141743849D01*
X217535891Y-141741205D01*
X217374844Y-141669501D01*
X217374839Y-141669499D01*
X217368902Y-141666856D01*
X217362543Y-141665504D01*
X217362539Y-141665503D01*
X217190107Y-141628852D01*
X217190104Y-141628851D01*
X217183745Y-141627500D01*
X216994453Y-141627500D01*
X216988094Y-141628851D01*
X216988090Y-141628852D01*
X216815656Y-141665503D01*
X216815645Y-141665506D01*
X216809296Y-141666856D01*
X216803364Y-141669497D01*
X216803352Y-141669501D01*
X216778980Y-141680352D01*
X216728547Y-141691071D01*
X216678114Y-141680351D01*
X216653745Y-141669501D01*
X216653740Y-141669499D01*
X216647803Y-141666856D01*
X216641444Y-141665504D01*
X216641440Y-141665503D01*
X216469008Y-141628852D01*
X216469005Y-141628851D01*
X216462646Y-141627500D01*
X216273354Y-141627500D01*
X216266995Y-141628851D01*
X216266991Y-141628852D01*
X216094559Y-141665503D01*
X216094552Y-141665505D01*
X216088197Y-141666856D01*
X216082262Y-141669498D01*
X216082254Y-141669501D01*
X215921207Y-141741205D01*
X215921202Y-141741207D01*
X215915270Y-141743849D01*
X215910016Y-141747665D01*
X215910011Y-141747669D01*
X215767388Y-141851290D01*
X215767381Y-141851295D01*
X215762129Y-141855112D01*
X215757784Y-141859937D01*
X215757779Y-141859942D01*
X215639813Y-141990956D01*
X215639808Y-141990962D01*
X215635467Y-141995784D01*
X215632222Y-142001404D01*
X215632218Y-142001410D01*
X215544069Y-142154089D01*
X215544066Y-142154094D01*
X215540821Y-142159716D01*
X215538815Y-142165888D01*
X215538813Y-142165894D01*
X215484333Y-142333564D01*
X215484331Y-142333573D01*
X215482326Y-142339744D01*
X215481648Y-142346194D01*
X215481646Y-142346204D01*
X215466986Y-142485694D01*
X215462540Y-142528000D01*
X215463219Y-142534460D01*
X215481646Y-142709795D01*
X215481647Y-142709803D01*
X215482326Y-142716256D01*
X215484331Y-142722428D01*
X215484333Y-142722435D01*
X215537286Y-142885404D01*
X215540821Y-142896284D01*
X215544069Y-142901909D01*
X215558661Y-142927185D01*
X215575272Y-142989183D01*
X215558659Y-143051181D01*
X215468071Y-143208085D01*
X215468067Y-143208092D01*
X215464821Y-143213716D01*
X215462815Y-143219888D01*
X215462813Y-143219894D01*
X215408333Y-143387564D01*
X215408331Y-143387573D01*
X215406326Y-143393744D01*
X215405648Y-143400194D01*
X215405646Y-143400204D01*
X215393804Y-143512884D01*
X215386540Y-143582000D01*
X213182500Y-143582000D01*
X213182500Y-138780910D01*
X213182726Y-138773423D01*
X213185904Y-138720881D01*
X213186357Y-138713394D01*
X213178416Y-138670066D01*
X213175516Y-138654235D01*
X213174389Y-138646830D01*
X213174118Y-138644602D01*
X213167140Y-138587128D01*
X213164480Y-138580116D01*
X213164480Y-138580113D01*
X213163547Y-138577653D01*
X213157520Y-138556035D01*
X213155694Y-138546068D01*
X213131010Y-138491223D01*
X213128143Y-138484301D01*
X213118805Y-138459678D01*
X213106818Y-138428070D01*
X213101061Y-138419730D01*
X213090036Y-138400181D01*
X213088957Y-138397784D01*
X213088956Y-138397783D01*
X213085878Y-138390943D01*
X213065898Y-138365441D01*
X213048785Y-138343597D01*
X213044355Y-138337577D01*
X213010183Y-138288071D01*
X212965170Y-138248193D01*
X212959716Y-138243059D01*
X208900819Y-134184162D01*
X208873939Y-134143934D01*
X208864500Y-134096481D01*
X208864500Y-132094138D01*
X208872749Y-132049666D01*
X208889703Y-132022025D01*
X208888363Y-132021052D01*
X208892184Y-132015791D01*
X208896533Y-132010962D01*
X208991179Y-131847030D01*
X209049674Y-131667002D01*
X209069460Y-131478746D01*
X209049674Y-131290490D01*
X209026867Y-131220299D01*
X222454357Y-131220299D01*
X222454781Y-131225416D01*
X222474467Y-131463000D01*
X222474468Y-131463008D01*
X222474892Y-131468120D01*
X222476149Y-131473087D01*
X222476151Y-131473094D01*
X222523620Y-131660541D01*
X222535937Y-131709180D01*
X222537997Y-131713876D01*
X222633766Y-131932209D01*
X222633769Y-131932215D01*
X222635827Y-131936906D01*
X222638627Y-131941192D01*
X222638631Y-131941199D01*
X222738551Y-132094138D01*
X222771836Y-132145084D01*
X222775310Y-132148858D01*
X222775311Y-132148859D01*
X222936784Y-132324266D01*
X222936787Y-132324269D01*
X222940256Y-132328037D01*
X223136491Y-132480773D01*
X223355190Y-132599127D01*
X223590386Y-132679870D01*
X223835665Y-132720799D01*
X224079201Y-132720799D01*
X224084335Y-132720799D01*
X224329614Y-132679870D01*
X224564810Y-132599127D01*
X224783509Y-132480773D01*
X224979744Y-132328037D01*
X225148164Y-132145084D01*
X225284173Y-131936906D01*
X225384063Y-131709180D01*
X225445108Y-131468120D01*
X225465643Y-131220299D01*
X225445108Y-130972478D01*
X225384063Y-130731418D01*
X225284173Y-130503692D01*
X225148164Y-130295514D01*
X224979744Y-130112561D01*
X224783509Y-129959825D01*
X224778997Y-129957383D01*
X224569316Y-129843909D01*
X224569310Y-129843906D01*
X224564810Y-129841471D01*
X224559969Y-129839809D01*
X224559962Y-129839806D01*
X224334465Y-129762393D01*
X224334461Y-129762392D01*
X224329614Y-129760728D01*
X224320768Y-129759251D01*
X224089398Y-129720643D01*
X224089387Y-129720642D01*
X224084335Y-129719799D01*
X223835665Y-129719799D01*
X223830613Y-129720642D01*
X223830601Y-129720643D01*
X223595443Y-129759884D01*
X223595441Y-129759884D01*
X223590386Y-129760728D01*
X223585541Y-129762391D01*
X223585534Y-129762393D01*
X223360037Y-129839806D01*
X223360026Y-129839810D01*
X223355190Y-129841471D01*
X223350693Y-129843904D01*
X223350683Y-129843909D01*
X223141002Y-129957383D01*
X223140995Y-129957387D01*
X223136491Y-129959825D01*
X223132448Y-129962971D01*
X223132440Y-129962977D01*
X222944304Y-130109410D01*
X222940256Y-130112561D01*
X222936793Y-130116322D01*
X222936784Y-130116331D01*
X222775311Y-130291738D01*
X222775305Y-130291745D01*
X222771836Y-130295514D01*
X222769031Y-130299805D01*
X222769028Y-130299811D01*
X222638631Y-130499398D01*
X222638624Y-130499410D01*
X222635827Y-130503692D01*
X222633772Y-130508376D01*
X222633766Y-130508388D01*
X222552089Y-130694595D01*
X222535937Y-130731418D01*
X222534679Y-130736383D01*
X222534678Y-130736388D01*
X222476151Y-130967503D01*
X222476149Y-130967512D01*
X222474892Y-130972478D01*
X222474468Y-130977587D01*
X222474467Y-130977597D01*
X222463458Y-131110462D01*
X222454357Y-131220299D01*
X209026867Y-131220299D01*
X208991179Y-131110462D01*
X208896533Y-130946530D01*
X208769871Y-130805858D01*
X208764613Y-130802038D01*
X208764611Y-130802036D01*
X208621988Y-130698415D01*
X208621987Y-130698414D01*
X208616730Y-130694595D01*
X208610792Y-130691951D01*
X208449745Y-130620247D01*
X208449740Y-130620245D01*
X208443803Y-130617602D01*
X208437444Y-130616250D01*
X208437440Y-130616249D01*
X208265008Y-130579598D01*
X208265005Y-130579597D01*
X208258646Y-130578246D01*
X208069354Y-130578246D01*
X208062995Y-130579597D01*
X208062991Y-130579598D01*
X207890559Y-130616249D01*
X207890552Y-130616251D01*
X207884197Y-130617602D01*
X207878262Y-130620244D01*
X207878254Y-130620247D01*
X207717207Y-130691951D01*
X207717202Y-130691953D01*
X207711270Y-130694595D01*
X207706016Y-130698411D01*
X207706011Y-130698415D01*
X207563388Y-130802036D01*
X207563381Y-130802041D01*
X207558129Y-130805858D01*
X207553784Y-130810683D01*
X207553779Y-130810688D01*
X207435813Y-130941702D01*
X207435808Y-130941708D01*
X207431467Y-130946530D01*
X207428222Y-130952150D01*
X207428218Y-130952156D01*
X207340069Y-131104835D01*
X207340066Y-131104840D01*
X207336821Y-131110462D01*
X207334815Y-131116634D01*
X207334813Y-131116640D01*
X207280333Y-131284310D01*
X207280331Y-131284319D01*
X207278326Y-131290490D01*
X207277648Y-131296940D01*
X207277646Y-131296950D01*
X207260195Y-131463000D01*
X207258540Y-131478746D01*
X207259219Y-131485206D01*
X207277646Y-131660541D01*
X207277647Y-131660549D01*
X207278326Y-131667002D01*
X207280331Y-131673174D01*
X207280333Y-131673181D01*
X207293556Y-131713876D01*
X207336821Y-131847030D01*
X207431467Y-132010962D01*
X207435813Y-132015789D01*
X207439637Y-132021052D01*
X207438296Y-132022025D01*
X207455251Y-132049666D01*
X207463500Y-132094138D01*
X207463500Y-134413079D01*
X207463274Y-134420567D01*
X207460094Y-134473118D01*
X207460094Y-134473126D01*
X207459642Y-134480606D01*
X207460993Y-134487982D01*
X207460994Y-134487987D01*
X207470483Y-134539771D01*
X207471610Y-134547171D01*
X207477955Y-134599425D01*
X207477956Y-134599430D01*
X207478860Y-134606872D01*
X207481519Y-134613885D01*
X207481521Y-134613891D01*
X207482450Y-134616340D01*
X207488475Y-134637952D01*
X207488951Y-134640551D01*
X207488954Y-134640560D01*
X207490305Y-134647932D01*
X207493382Y-134654769D01*
X207493383Y-134654772D01*
X207514991Y-134702784D01*
X207517857Y-134709702D01*
X207539182Y-134765930D01*
X207543442Y-134772102D01*
X207543445Y-134772107D01*
X207544937Y-134774268D01*
X207555959Y-134793810D01*
X207557039Y-134796210D01*
X207557044Y-134796219D01*
X207560122Y-134803057D01*
X207564745Y-134808958D01*
X207564747Y-134808961D01*
X207597216Y-134850404D01*
X207601636Y-134856410D01*
X207635817Y-134905929D01*
X207680847Y-134945822D01*
X207686282Y-134950939D01*
X211745181Y-139009838D01*
X211772061Y-139050066D01*
X211781500Y-139097519D01*
X211781500Y-139102895D01*
X211766473Y-139162063D01*
X211725035Y-139206890D01*
X211667229Y-139226513D01*
X211607064Y-139216174D01*
X211497745Y-139167501D01*
X211497740Y-139167499D01*
X211491803Y-139164856D01*
X211485444Y-139163504D01*
X211485440Y-139163503D01*
X211313008Y-139126852D01*
X211313005Y-139126851D01*
X211306646Y-139125500D01*
X211117354Y-139125500D01*
X211110995Y-139126851D01*
X211110991Y-139126852D01*
X210938559Y-139163503D01*
X210938552Y-139163505D01*
X210932197Y-139164856D01*
X210926262Y-139167498D01*
X210926254Y-139167501D01*
X210765207Y-139239205D01*
X210765202Y-139239207D01*
X210759270Y-139241849D01*
X210754016Y-139245665D01*
X210754011Y-139245669D01*
X210611388Y-139349290D01*
X210611381Y-139349295D01*
X210606129Y-139353112D01*
X210601780Y-139357941D01*
X210601781Y-139357941D01*
X210600399Y-139359476D01*
X210598728Y-139360689D01*
X210596950Y-139362291D01*
X210596781Y-139362104D01*
X210558685Y-139389781D01*
X210508252Y-139400500D01*
X208749771Y-139400500D01*
X208738718Y-139399979D01*
X208731332Y-139398328D01*
X208723534Y-139398573D01*
X208664144Y-139400439D01*
X208660250Y-139400500D01*
X208632650Y-139400500D01*
X208628799Y-139400986D01*
X208628768Y-139400988D01*
X208628640Y-139401005D01*
X208617029Y-139401918D01*
X208581171Y-139403045D01*
X208581164Y-139403046D01*
X208573372Y-139403291D01*
X208565888Y-139405465D01*
X208565877Y-139405467D01*
X208554128Y-139408881D01*
X208535083Y-139412825D01*
X208522947Y-139414358D01*
X208522944Y-139414358D01*
X208515208Y-139415336D01*
X208507960Y-139418205D01*
X208507950Y-139418208D01*
X208474592Y-139431415D01*
X208463550Y-139435196D01*
X208429097Y-139445207D01*
X208429092Y-139445208D01*
X208421610Y-139447383D01*
X208414902Y-139451349D01*
X208414897Y-139451352D01*
X208404364Y-139457581D01*
X208386900Y-139466136D01*
X208375524Y-139470640D01*
X208375517Y-139470643D01*
X208368268Y-139473514D01*
X208361962Y-139478094D01*
X208361957Y-139478098D01*
X208332927Y-139499189D01*
X208323169Y-139505598D01*
X208292298Y-139523856D01*
X208285579Y-139527830D01*
X208280063Y-139533344D01*
X208280056Y-139533351D01*
X208271407Y-139542000D01*
X208256624Y-139554626D01*
X208246727Y-139561817D01*
X208246720Y-139561823D01*
X208240413Y-139566406D01*
X208235446Y-139572408D01*
X208235435Y-139572420D01*
X208212570Y-139600059D01*
X208204710Y-139608697D01*
X207986401Y-139827006D01*
X207932065Y-139858757D01*
X207869140Y-139859745D01*
X207813834Y-139829715D01*
X207780393Y-139776402D01*
X207777431Y-139713539D01*
X207777664Y-139712440D01*
X207779674Y-139706256D01*
X207799460Y-139518000D01*
X207779674Y-139329744D01*
X207721179Y-139149716D01*
X207626533Y-138985784D01*
X207549645Y-138900392D01*
X207504220Y-138849942D01*
X207504219Y-138849941D01*
X207499871Y-138845112D01*
X207494613Y-138841292D01*
X207494611Y-138841290D01*
X207351988Y-138737669D01*
X207351987Y-138737668D01*
X207346730Y-138733849D01*
X207317604Y-138720881D01*
X207179745Y-138659501D01*
X207179740Y-138659499D01*
X207173803Y-138656856D01*
X207167444Y-138655504D01*
X207167440Y-138655503D01*
X206995008Y-138618852D01*
X206995005Y-138618851D01*
X206988646Y-138617500D01*
X206799354Y-138617500D01*
X206792995Y-138618851D01*
X206792991Y-138618852D01*
X206620559Y-138655503D01*
X206620552Y-138655505D01*
X206614197Y-138656856D01*
X206608262Y-138659498D01*
X206608254Y-138659501D01*
X206447207Y-138731205D01*
X206447202Y-138731207D01*
X206441270Y-138733849D01*
X206436016Y-138737665D01*
X206436011Y-138737669D01*
X206293388Y-138841290D01*
X206293381Y-138841295D01*
X206288129Y-138845112D01*
X206283784Y-138849937D01*
X206283779Y-138849942D01*
X206165813Y-138980956D01*
X206165808Y-138980962D01*
X206161467Y-138985784D01*
X206158222Y-138991404D01*
X206158218Y-138991410D01*
X206070069Y-139144089D01*
X206070066Y-139144094D01*
X206066821Y-139149716D01*
X206064815Y-139155888D01*
X206064813Y-139155894D01*
X206010334Y-139323563D01*
X206008326Y-139329744D01*
X206007646Y-139336204D01*
X206006295Y-139342565D01*
X206004727Y-139342231D01*
X205991487Y-139382265D01*
X205955523Y-139420966D01*
X205906712Y-139441182D01*
X205853916Y-139439244D01*
X205836688Y-139434820D01*
X205818284Y-139428519D01*
X205807057Y-139423660D01*
X205807050Y-139423658D01*
X205799896Y-139420562D01*
X205792192Y-139419341D01*
X205792190Y-139419341D01*
X205756759Y-139413729D01*
X205745324Y-139411361D01*
X205710571Y-139402438D01*
X205710563Y-139402437D01*
X205703019Y-139400500D01*
X205695223Y-139400500D01*
X205682983Y-139400500D01*
X205663597Y-139398974D01*
X205643804Y-139395840D01*
X205636038Y-139396574D01*
X205636035Y-139396574D01*
X205600324Y-139399950D01*
X205588655Y-139400500D01*
X203533748Y-139400500D01*
X203483315Y-139389781D01*
X203445218Y-139362104D01*
X203445050Y-139362291D01*
X203443271Y-139360689D01*
X203441601Y-139359476D01*
X203435871Y-139353112D01*
X203430613Y-139349292D01*
X203430611Y-139349290D01*
X203287988Y-139245669D01*
X203287987Y-139245668D01*
X203282730Y-139241849D01*
X203276792Y-139239205D01*
X203115745Y-139167501D01*
X203115740Y-139167499D01*
X203109803Y-139164856D01*
X203103444Y-139163504D01*
X203103440Y-139163503D01*
X202931008Y-139126852D01*
X202931005Y-139126851D01*
X202924646Y-139125500D01*
X202735354Y-139125500D01*
X202728995Y-139126851D01*
X202728991Y-139126852D01*
X202556559Y-139163503D01*
X202556552Y-139163505D01*
X202550197Y-139164856D01*
X202544262Y-139167498D01*
X202544254Y-139167501D01*
X202383207Y-139239205D01*
X202383202Y-139239207D01*
X202377270Y-139241849D01*
X202372016Y-139245665D01*
X202372011Y-139245669D01*
X202229388Y-139349290D01*
X202229381Y-139349295D01*
X202224129Y-139353112D01*
X202219784Y-139357937D01*
X202219779Y-139357942D01*
X202101813Y-139488956D01*
X202101808Y-139488962D01*
X202097467Y-139493784D01*
X202094222Y-139499404D01*
X202094218Y-139499410D01*
X202006069Y-139652089D01*
X202006066Y-139652094D01*
X202002821Y-139657716D01*
X202000815Y-139663888D01*
X202000813Y-139663894D01*
X201946333Y-139831564D01*
X201946331Y-139831573D01*
X201944326Y-139837744D01*
X201943648Y-139844194D01*
X201943646Y-139844204D01*
X201939224Y-139886284D01*
X201924540Y-140026000D01*
X195438657Y-140026000D01*
X196542975Y-138921681D01*
X196571486Y-138900392D01*
X196604869Y-138888075D01*
X196759803Y-138855144D01*
X196932730Y-138778151D01*
X197085871Y-138666888D01*
X197212533Y-138526216D01*
X197307179Y-138362284D01*
X197307192Y-138362292D01*
X197330628Y-138328188D01*
X197367877Y-138302587D01*
X197440730Y-138270151D01*
X197593871Y-138158888D01*
X197720533Y-138018216D01*
X197815179Y-137854284D01*
X197815192Y-137854292D01*
X197838628Y-137820188D01*
X197875877Y-137794587D01*
X197948730Y-137762151D01*
X198101871Y-137650888D01*
X198228533Y-137510216D01*
X198323179Y-137346284D01*
X198381674Y-137166256D01*
X198401460Y-136978000D01*
X198381674Y-136789744D01*
X198323179Y-136609716D01*
X198228533Y-136445784D01*
X198101871Y-136305112D01*
X198096613Y-136301292D01*
X198096611Y-136301290D01*
X197953988Y-136197669D01*
X197953987Y-136197668D01*
X197948730Y-136193849D01*
X197942792Y-136191205D01*
X197781745Y-136119501D01*
X197781740Y-136119499D01*
X197775803Y-136116856D01*
X197769444Y-136115504D01*
X197769440Y-136115503D01*
X197597008Y-136078852D01*
X197597005Y-136078851D01*
X197590646Y-136077500D01*
X197401354Y-136077500D01*
X197394995Y-136078851D01*
X197394991Y-136078852D01*
X197222559Y-136115503D01*
X197222552Y-136115505D01*
X197216197Y-136116856D01*
X197210262Y-136119498D01*
X197210254Y-136119501D01*
X197049207Y-136191205D01*
X197049202Y-136191207D01*
X197043270Y-136193849D01*
X197038016Y-136197665D01*
X197038011Y-136197669D01*
X196895388Y-136301290D01*
X196895381Y-136301295D01*
X196890129Y-136305112D01*
X196885784Y-136309937D01*
X196885779Y-136309942D01*
X196767813Y-136440956D01*
X196767808Y-136440962D01*
X196763467Y-136445784D01*
X196760222Y-136451404D01*
X196760218Y-136451410D01*
X196672068Y-136604090D01*
X196672064Y-136604098D01*
X196668915Y-136609552D01*
X196668913Y-136609556D01*
X196668821Y-136609716D01*
X196668808Y-136609708D01*
X196645366Y-136643816D01*
X196608123Y-136669412D01*
X196541205Y-136699206D01*
X196541201Y-136699208D01*
X196535270Y-136701849D01*
X196530016Y-136705665D01*
X196530011Y-136705669D01*
X196387388Y-136809290D01*
X196387381Y-136809295D01*
X196382129Y-136813112D01*
X196377784Y-136817937D01*
X196377779Y-136817942D01*
X196259813Y-136948956D01*
X196259808Y-136948962D01*
X196255467Y-136953784D01*
X196252222Y-136959404D01*
X196252218Y-136959410D01*
X196164068Y-137112090D01*
X196164064Y-137112098D01*
X196160915Y-137117552D01*
X196160913Y-137117556D01*
X196160821Y-137117716D01*
X196160808Y-137117708D01*
X196137366Y-137151816D01*
X196100123Y-137177412D01*
X196033205Y-137207206D01*
X196033201Y-137207208D01*
X196027270Y-137209849D01*
X196022016Y-137213665D01*
X196022011Y-137213669D01*
X195879388Y-137317290D01*
X195879381Y-137317295D01*
X195874129Y-137321112D01*
X195869784Y-137325937D01*
X195869779Y-137325942D01*
X195751813Y-137456956D01*
X195751808Y-137456962D01*
X195747467Y-137461784D01*
X195744222Y-137467404D01*
X195744218Y-137467410D01*
X195656069Y-137620089D01*
X195656066Y-137620094D01*
X195652821Y-137625716D01*
X195650815Y-137631888D01*
X195650813Y-137631894D01*
X195609349Y-137759508D01*
X195594326Y-137805744D01*
X195593647Y-137812196D01*
X195593646Y-137812205D01*
X195589135Y-137855128D01*
X195577734Y-137895549D01*
X195553495Y-137929846D01*
X193077790Y-140405551D01*
X193072338Y-140410684D01*
X193032931Y-140445596D01*
X193032925Y-140445602D01*
X193027317Y-140450571D01*
X193023060Y-140456736D01*
X193023051Y-140456748D01*
X192993149Y-140500068D01*
X192988713Y-140506097D01*
X192956249Y-140547535D01*
X192956243Y-140547543D01*
X192951622Y-140553443D01*
X192948544Y-140560280D01*
X192948543Y-140560283D01*
X192947462Y-140562685D01*
X192936440Y-140582227D01*
X192934941Y-140584398D01*
X192934937Y-140584404D01*
X192930682Y-140590570D01*
X192928026Y-140597570D01*
X192928022Y-140597580D01*
X192909353Y-140646805D01*
X192906489Y-140653719D01*
X192884882Y-140701729D01*
X192884879Y-140701735D01*
X192881805Y-140708568D01*
X192880453Y-140715939D01*
X192880451Y-140715949D01*
X192879974Y-140718553D01*
X192873956Y-140740143D01*
X192873019Y-140742614D01*
X192873017Y-140742619D01*
X192870360Y-140749628D01*
X192869456Y-140757065D01*
X192869456Y-140757069D01*
X192863110Y-140809327D01*
X192861983Y-140816726D01*
X192852494Y-140868510D01*
X192852493Y-140868518D01*
X192851142Y-140875894D01*
X192851594Y-140883373D01*
X192851594Y-140883381D01*
X192854774Y-140935933D01*
X192855000Y-140943421D01*
X192855000Y-143220608D01*
X192846751Y-143265080D01*
X192829796Y-143292720D01*
X192831137Y-143293694D01*
X192827312Y-143298957D01*
X192822967Y-143303784D01*
X192819720Y-143309407D01*
X192819717Y-143309412D01*
X192731569Y-143462089D01*
X192731566Y-143462094D01*
X192728321Y-143467716D01*
X192726315Y-143473888D01*
X192726313Y-143473894D01*
X192671833Y-143641564D01*
X192671831Y-143641573D01*
X192669826Y-143647744D01*
X192669148Y-143654194D01*
X192669146Y-143654204D01*
X192656300Y-143776435D01*
X192650040Y-143836000D01*
X192650719Y-143842460D01*
X192669146Y-144017795D01*
X192669147Y-144017803D01*
X192669826Y-144024256D01*
X192671831Y-144030428D01*
X192671833Y-144030435D01*
X192720002Y-144178682D01*
X192726071Y-144217000D01*
X192720002Y-144255318D01*
X192671833Y-144403564D01*
X192671831Y-144403573D01*
X192669826Y-144409744D01*
X192669148Y-144416194D01*
X192669146Y-144416204D01*
X192662321Y-144481147D01*
X192650040Y-144598000D01*
X192650719Y-144604460D01*
X192669146Y-144779795D01*
X192669147Y-144779803D01*
X192669826Y-144786256D01*
X192671831Y-144792428D01*
X192671833Y-144792435D01*
X192720002Y-144940682D01*
X192726071Y-144979000D01*
X192720002Y-145017318D01*
X192671833Y-145165564D01*
X192671831Y-145165573D01*
X192669826Y-145171744D01*
X192669148Y-145178194D01*
X192669146Y-145178204D01*
X192651462Y-145346464D01*
X192650040Y-145360000D01*
X192650719Y-145366460D01*
X192669146Y-145541795D01*
X192669147Y-145541803D01*
X192669826Y-145548256D01*
X192671831Y-145554428D01*
X192671833Y-145554435D01*
X192718153Y-145696991D01*
X192728321Y-145728284D01*
X192731568Y-145733908D01*
X192731569Y-145733910D01*
X192809148Y-145868282D01*
X192822967Y-145892216D01*
X192949629Y-146032888D01*
X193102770Y-146144151D01*
X193275697Y-146221144D01*
X193417282Y-146251238D01*
X193467842Y-146274814D01*
X193502950Y-146318170D01*
X193515500Y-146372528D01*
X193515500Y-155716997D01*
X193502712Y-155771841D01*
X193466987Y-155815373D01*
X193415692Y-155838614D01*
X193359407Y-155836772D01*
X193206634Y-155795837D01*
X193206630Y-155795836D01*
X193201408Y-155794437D01*
X193196020Y-155793965D01*
X193196017Y-155793965D01*
X192971395Y-155774313D01*
X192966000Y-155773841D01*
X192960605Y-155774313D01*
X192735982Y-155793965D01*
X192735977Y-155793965D01*
X192730592Y-155794437D01*
X192725371Y-155795835D01*
X192725365Y-155795837D01*
X192507569Y-155854194D01*
X192507557Y-155854198D01*
X192502337Y-155855597D01*
X192497432Y-155857883D01*
X192497427Y-155857886D01*
X192293081Y-155953175D01*
X192293077Y-155953177D01*
X192288171Y-155955465D01*
X192283738Y-155958568D01*
X192283731Y-155958573D01*
X192099034Y-156087899D01*
X192099029Y-156087902D01*
X192094599Y-156091005D01*
X192090775Y-156094828D01*
X192090775Y-156094829D01*
X191946838Y-156238766D01*
X191896443Y-156269345D01*
X191837621Y-156273200D01*
X191783667Y-156249457D01*
X191751697Y-156209620D01*
X191750814Y-156210166D01*
X191662502Y-156066988D01*
X191662500Y-156066985D01*
X191658712Y-156060844D01*
X191534656Y-155936788D01*
X191528515Y-155933000D01*
X191528511Y-155932997D01*
X191400749Y-155854194D01*
X191385334Y-155844686D01*
X191361451Y-155836772D01*
X191225225Y-155791631D01*
X191225224Y-155791630D01*
X191218797Y-155789501D01*
X191212064Y-155788813D01*
X191212059Y-155788812D01*
X191119140Y-155779319D01*
X191119123Y-155779318D01*
X191116009Y-155779000D01*
X191112860Y-155779000D01*
X189819140Y-155779000D01*
X189819120Y-155779000D01*
X189815992Y-155779001D01*
X189812860Y-155779320D01*
X189812858Y-155779321D01*
X189719938Y-155788812D01*
X189719928Y-155788813D01*
X189713203Y-155789501D01*
X189706781Y-155791628D01*
X189706776Y-155791630D01*
X189553521Y-155842414D01*
X189553517Y-155842415D01*
X189546666Y-155844686D01*
X189540522Y-155848475D01*
X189540519Y-155848477D01*
X189403488Y-155932997D01*
X189403480Y-155933003D01*
X189397344Y-155936788D01*
X189392242Y-155941889D01*
X189392238Y-155941893D01*
X189278393Y-156055738D01*
X189278389Y-156055742D01*
X189273288Y-156060844D01*
X189269503Y-156066980D01*
X189269497Y-156066988D01*
X189184977Y-156204019D01*
X189181186Y-156210166D01*
X189178915Y-156217017D01*
X189178914Y-156217021D01*
X189128131Y-156370274D01*
X189126001Y-156376703D01*
X189125313Y-156383433D01*
X189125312Y-156383440D01*
X189115819Y-156476359D01*
X189115818Y-156476377D01*
X189115500Y-156479491D01*
X189115500Y-156482638D01*
X189115500Y-156482639D01*
X189115500Y-158076359D01*
X189115500Y-158076378D01*
X186270508Y-158076378D01*
X186270508Y-151220299D01*
X187764365Y-151220299D01*
X187764789Y-151225416D01*
X187784475Y-151463000D01*
X187784476Y-151463008D01*
X187784900Y-151468120D01*
X187786157Y-151473087D01*
X187786159Y-151473094D01*
X187832994Y-151658039D01*
X187845945Y-151709180D01*
X187848005Y-151713876D01*
X187943774Y-151932209D01*
X187943777Y-151932215D01*
X187945835Y-151936906D01*
X187948635Y-151941192D01*
X187948639Y-151941199D01*
X188072303Y-152130481D01*
X188081844Y-152145084D01*
X188085318Y-152148858D01*
X188085319Y-152148859D01*
X188246792Y-152324266D01*
X188246795Y-152324269D01*
X188250264Y-152328037D01*
X188446499Y-152480773D01*
X188665198Y-152599127D01*
X188900394Y-152679870D01*
X189145673Y-152720799D01*
X189389209Y-152720799D01*
X189394343Y-152720799D01*
X189639622Y-152679870D01*
X189874818Y-152599127D01*
X190093517Y-152480773D01*
X190289752Y-152328037D01*
X190458172Y-152145084D01*
X190594181Y-151936906D01*
X190694071Y-151709180D01*
X190755116Y-151468120D01*
X190775651Y-151220299D01*
X190755116Y-150972478D01*
X190694071Y-150731418D01*
X190594181Y-150503692D01*
X190458172Y-150295514D01*
X190388628Y-150219969D01*
X190293223Y-150116331D01*
X190293219Y-150116328D01*
X190289752Y-150112561D01*
X190093517Y-149959825D01*
X190019188Y-149919600D01*
X189879324Y-149843909D01*
X189879318Y-149843906D01*
X189874818Y-149841471D01*
X189869977Y-149839809D01*
X189869970Y-149839806D01*
X189644473Y-149762393D01*
X189644469Y-149762392D01*
X189639622Y-149760728D01*
X189608298Y-149755501D01*
X189399406Y-149720643D01*
X189399395Y-149720642D01*
X189394343Y-149719799D01*
X189145673Y-149719799D01*
X189140621Y-149720642D01*
X189140609Y-149720643D01*
X188905451Y-149759884D01*
X188905449Y-149759884D01*
X188900394Y-149760728D01*
X188895549Y-149762391D01*
X188895542Y-149762393D01*
X188670045Y-149839806D01*
X188670034Y-149839810D01*
X188665198Y-149841471D01*
X188660701Y-149843904D01*
X188660691Y-149843909D01*
X188451010Y-149957383D01*
X188451003Y-149957387D01*
X188446499Y-149959825D01*
X188442456Y-149962971D01*
X188442448Y-149962977D01*
X188254312Y-150109410D01*
X188250264Y-150112561D01*
X188246801Y-150116322D01*
X188246792Y-150116331D01*
X188085319Y-150291738D01*
X188085313Y-150291745D01*
X188081844Y-150295514D01*
X188079039Y-150299805D01*
X188079036Y-150299811D01*
X187948639Y-150499398D01*
X187948632Y-150499410D01*
X187945835Y-150503692D01*
X187943780Y-150508376D01*
X187943774Y-150508388D01*
X187904823Y-150597189D01*
X187845945Y-150731418D01*
X187844687Y-150736383D01*
X187844686Y-150736388D01*
X187786159Y-150967503D01*
X187786157Y-150967512D01*
X187784900Y-150972478D01*
X187784476Y-150977587D01*
X187784475Y-150977597D01*
X187775187Y-151089693D01*
X187764365Y-151220299D01*
X186270508Y-151220299D01*
X186270508Y-137756378D01*
X189115500Y-137756378D01*
X189115501Y-137759508D01*
X189115820Y-137762640D01*
X189115821Y-137762641D01*
X189125312Y-137855561D01*
X189125313Y-137855569D01*
X189126001Y-137862297D01*
X189128129Y-137868719D01*
X189128130Y-137868723D01*
X189178914Y-138021978D01*
X189181186Y-138028834D01*
X189184977Y-138034980D01*
X189269497Y-138172011D01*
X189269500Y-138172015D01*
X189273288Y-138178156D01*
X189397344Y-138302212D01*
X189403485Y-138306000D01*
X189403488Y-138306002D01*
X189439458Y-138328188D01*
X189546666Y-138394314D01*
X189713203Y-138449499D01*
X189815991Y-138460000D01*
X191116008Y-138459999D01*
X191218797Y-138449499D01*
X191385334Y-138394314D01*
X191534656Y-138302212D01*
X191658712Y-138178156D01*
X191750814Y-138028834D01*
X191751698Y-138029379D01*
X191783662Y-137989546D01*
X191837618Y-137965800D01*
X191896441Y-137969653D01*
X191946838Y-138000234D01*
X192094599Y-138147995D01*
X192099031Y-138151098D01*
X192099033Y-138151100D01*
X192128897Y-138172011D01*
X192288170Y-138283535D01*
X192293070Y-138285820D01*
X192293072Y-138285821D01*
X192317273Y-138297106D01*
X192502337Y-138383403D01*
X192730592Y-138444563D01*
X192966000Y-138465159D01*
X193201408Y-138444563D01*
X193429663Y-138383403D01*
X193643829Y-138283535D01*
X193837401Y-138147995D01*
X194004495Y-137980901D01*
X194140035Y-137787329D01*
X194239903Y-137573163D01*
X194301063Y-137344908D01*
X194316500Y-137168466D01*
X194316500Y-136750534D01*
X194301063Y-136574092D01*
X194239903Y-136345837D01*
X194140035Y-136131671D01*
X194004495Y-135938099D01*
X193837401Y-135771005D01*
X193832970Y-135767902D01*
X193832966Y-135767899D01*
X193648259Y-135638566D01*
X193648257Y-135638564D01*
X193643830Y-135635465D01*
X193638933Y-135633181D01*
X193638927Y-135633178D01*
X193434572Y-135537886D01*
X193434570Y-135537885D01*
X193429663Y-135535597D01*
X193424438Y-135534197D01*
X193424430Y-135534194D01*
X193206634Y-135475837D01*
X193206630Y-135475836D01*
X193201408Y-135474437D01*
X193196020Y-135473965D01*
X193196017Y-135473965D01*
X192971395Y-135454313D01*
X192966000Y-135453841D01*
X192960605Y-135454313D01*
X192735982Y-135473965D01*
X192735977Y-135473965D01*
X192730592Y-135474437D01*
X192725371Y-135475835D01*
X192725365Y-135475837D01*
X192507569Y-135534194D01*
X192507557Y-135534198D01*
X192502337Y-135535597D01*
X192497432Y-135537883D01*
X192497427Y-135537886D01*
X192293081Y-135633175D01*
X192293077Y-135633177D01*
X192288171Y-135635465D01*
X192283738Y-135638568D01*
X192283731Y-135638573D01*
X192099034Y-135767899D01*
X192099029Y-135767902D01*
X192094599Y-135771005D01*
X192090775Y-135774829D01*
X191946838Y-135918766D01*
X191896443Y-135949345D01*
X191837621Y-135953200D01*
X191783667Y-135929457D01*
X191751697Y-135889620D01*
X191750814Y-135890166D01*
X191662502Y-135746988D01*
X191662500Y-135746985D01*
X191658712Y-135740844D01*
X191534656Y-135616788D01*
X191528515Y-135613000D01*
X191528511Y-135612997D01*
X191391480Y-135528477D01*
X191385334Y-135524686D01*
X191232268Y-135473965D01*
X191225225Y-135471631D01*
X191225224Y-135471630D01*
X191218797Y-135469501D01*
X191212064Y-135468813D01*
X191212059Y-135468812D01*
X191119140Y-135459319D01*
X191119123Y-135459318D01*
X191116009Y-135459000D01*
X191112860Y-135459000D01*
X189819140Y-135459000D01*
X189819120Y-135459000D01*
X189815992Y-135459001D01*
X189812860Y-135459320D01*
X189812858Y-135459321D01*
X189719938Y-135468812D01*
X189719928Y-135468813D01*
X189713203Y-135469501D01*
X189706781Y-135471628D01*
X189706776Y-135471630D01*
X189553521Y-135522414D01*
X189553517Y-135522415D01*
X189546666Y-135524686D01*
X189540522Y-135528475D01*
X189540519Y-135528477D01*
X189403488Y-135612997D01*
X189403480Y-135613003D01*
X189397344Y-135616788D01*
X189392242Y-135621889D01*
X189392238Y-135621893D01*
X189278393Y-135735738D01*
X189278389Y-135735742D01*
X189273288Y-135740844D01*
X189269503Y-135746980D01*
X189269497Y-135746988D01*
X189184977Y-135884019D01*
X189181186Y-135890166D01*
X189178915Y-135897017D01*
X189178914Y-135897021D01*
X189128131Y-136050274D01*
X189126001Y-136056703D01*
X189125313Y-136063433D01*
X189125312Y-136063440D01*
X189115819Y-136156359D01*
X189115818Y-136156377D01*
X189115500Y-136159491D01*
X189115500Y-136162638D01*
X189115500Y-136162639D01*
X189115500Y-137756359D01*
X189115500Y-137756378D01*
X186270508Y-137756378D01*
X186270508Y-131220299D01*
X187764365Y-131220299D01*
X187764789Y-131225416D01*
X187784475Y-131463000D01*
X187784476Y-131463008D01*
X187784900Y-131468120D01*
X187786157Y-131473087D01*
X187786159Y-131473094D01*
X187833628Y-131660541D01*
X187845945Y-131709180D01*
X187848005Y-131713876D01*
X187943774Y-131932209D01*
X187943777Y-131932215D01*
X187945835Y-131936906D01*
X187948635Y-131941192D01*
X187948639Y-131941199D01*
X188048559Y-132094138D01*
X188081844Y-132145084D01*
X188085318Y-132148858D01*
X188085319Y-132148859D01*
X188246792Y-132324266D01*
X188246795Y-132324269D01*
X188250264Y-132328037D01*
X188446499Y-132480773D01*
X188665198Y-132599127D01*
X188900394Y-132679870D01*
X189145673Y-132720799D01*
X189389209Y-132720799D01*
X189394343Y-132720799D01*
X189639622Y-132679870D01*
X189874818Y-132599127D01*
X190093517Y-132480773D01*
X190289752Y-132328037D01*
X190458172Y-132145084D01*
X190594181Y-131936906D01*
X190694071Y-131709180D01*
X190755116Y-131468120D01*
X190775651Y-131220299D01*
X190755116Y-130972478D01*
X190694071Y-130731418D01*
X190594181Y-130503692D01*
X190458172Y-130295514D01*
X190289752Y-130112561D01*
X190093517Y-129959825D01*
X190089005Y-129957383D01*
X189879324Y-129843909D01*
X189879318Y-129843906D01*
X189874818Y-129841471D01*
X189869977Y-129839809D01*
X189869970Y-129839806D01*
X189644473Y-129762393D01*
X189644469Y-129762392D01*
X189639622Y-129760728D01*
X189630776Y-129759251D01*
X189399406Y-129720643D01*
X189399395Y-129720642D01*
X189394343Y-129719799D01*
X189145673Y-129719799D01*
X189140621Y-129720642D01*
X189140609Y-129720643D01*
X188905451Y-129759884D01*
X188905449Y-129759884D01*
X188900394Y-129760728D01*
X188895549Y-129762391D01*
X188895542Y-129762393D01*
X188670045Y-129839806D01*
X188670034Y-129839810D01*
X188665198Y-129841471D01*
X188660701Y-129843904D01*
X188660691Y-129843909D01*
X188451010Y-129957383D01*
X188451003Y-129957387D01*
X188446499Y-129959825D01*
X188442456Y-129962971D01*
X188442448Y-129962977D01*
X188254312Y-130109410D01*
X188250264Y-130112561D01*
X188246801Y-130116322D01*
X188246792Y-130116331D01*
X188085319Y-130291738D01*
X188085313Y-130291745D01*
X188081844Y-130295514D01*
X188079039Y-130299805D01*
X188079036Y-130299811D01*
X187948639Y-130499398D01*
X187948632Y-130499410D01*
X187945835Y-130503692D01*
X187943780Y-130508376D01*
X187943774Y-130508388D01*
X187862097Y-130694595D01*
X187845945Y-130731418D01*
X187844687Y-130736383D01*
X187844686Y-130736388D01*
X187786159Y-130967503D01*
X187786157Y-130967512D01*
X187784900Y-130972478D01*
X187784476Y-130977587D01*
X187784475Y-130977597D01*
X187773466Y-131110462D01*
X187764365Y-131220299D01*
X186270508Y-131220299D01*
X186270508Y-123770000D01*
X194050540Y-123770000D01*
X194051219Y-123776460D01*
X194069646Y-123951795D01*
X194069647Y-123951803D01*
X194070326Y-123958256D01*
X194072331Y-123964428D01*
X194072333Y-123964435D01*
X194126813Y-124132105D01*
X194128821Y-124138284D01*
X194132068Y-124143908D01*
X194132069Y-124143910D01*
X194198485Y-124258947D01*
X194223467Y-124302216D01*
X194227811Y-124307041D01*
X194227813Y-124307043D01*
X194265370Y-124348754D01*
X194350129Y-124442888D01*
X194503270Y-124554151D01*
X194676197Y-124631144D01*
X194861354Y-124670500D01*
X195044143Y-124670500D01*
X195050646Y-124670500D01*
X195235803Y-124631144D01*
X195408730Y-124554151D01*
X195561871Y-124442888D01*
X195688533Y-124302216D01*
X195783179Y-124138284D01*
X195841674Y-123958256D01*
X195861460Y-123770000D01*
X203194540Y-123770000D01*
X203195219Y-123776460D01*
X203213646Y-123951795D01*
X203213647Y-123951803D01*
X203214326Y-123958256D01*
X203216331Y-123964428D01*
X203216333Y-123964435D01*
X203270813Y-124132105D01*
X203272821Y-124138284D01*
X203276068Y-124143908D01*
X203276069Y-124143910D01*
X203342485Y-124258947D01*
X203367467Y-124302216D01*
X203371811Y-124307041D01*
X203371813Y-124307043D01*
X203409370Y-124348754D01*
X203494129Y-124442888D01*
X203647270Y-124554151D01*
X203820197Y-124631144D01*
X204005354Y-124670500D01*
X204011857Y-124670500D01*
X204178091Y-124670500D01*
X204228526Y-124681220D01*
X204270241Y-124711528D01*
X204324943Y-124772280D01*
X204379963Y-124833386D01*
X204385221Y-124837206D01*
X204385222Y-124837207D01*
X204396459Y-124845371D01*
X204533104Y-124944649D01*
X204706031Y-125021642D01*
X204891188Y-125060998D01*
X205073977Y-125060998D01*
X205080480Y-125060998D01*
X205265637Y-125021642D01*
X205438564Y-124944649D01*
X205591705Y-124833386D01*
X205634372Y-124786000D01*
X212846540Y-124786000D01*
X212847219Y-124792460D01*
X212865646Y-124967795D01*
X212865647Y-124967803D01*
X212866326Y-124974256D01*
X212868331Y-124980428D01*
X212868333Y-124980435D01*
X212898298Y-125072656D01*
X212924821Y-125154284D01*
X212928068Y-125159908D01*
X212928069Y-125159910D01*
X213009215Y-125300460D01*
X213019467Y-125318216D01*
X213023811Y-125323041D01*
X213023813Y-125323043D01*
X213051847Y-125354178D01*
X213146129Y-125458888D01*
X213151387Y-125462708D01*
X213151388Y-125462709D01*
X213178292Y-125482256D01*
X213299270Y-125570151D01*
X213472197Y-125647144D01*
X213627130Y-125680075D01*
X213660514Y-125692392D01*
X213689028Y-125713684D01*
X213742475Y-125767131D01*
X213762181Y-125792812D01*
X213781467Y-125826216D01*
X213908129Y-125966888D01*
X214061270Y-126078151D01*
X214234197Y-126155144D01*
X214419354Y-126194500D01*
X214602143Y-126194500D01*
X214608646Y-126194500D01*
X214793803Y-126155144D01*
X214966730Y-126078151D01*
X215119871Y-125966888D01*
X215246533Y-125826216D01*
X215341179Y-125662284D01*
X215399674Y-125482256D01*
X215419460Y-125294000D01*
X215399674Y-125105744D01*
X215366773Y-125004488D01*
X215363416Y-124940386D01*
X215392561Y-124883192D01*
X215446399Y-124848236D01*
X215501185Y-124845371D01*
X215501368Y-124843637D01*
X215507823Y-124844315D01*
X215514186Y-124845668D01*
X215696975Y-124845668D01*
X215703478Y-124845668D01*
X215888635Y-124806312D01*
X216061562Y-124729319D01*
X216214703Y-124618056D01*
X216341365Y-124477384D01*
X216436011Y-124313452D01*
X216494506Y-124133424D01*
X216514292Y-123945168D01*
X216494506Y-123756912D01*
X216470731Y-123683740D01*
X216467372Y-123619639D01*
X216496514Y-123562448D01*
X216516533Y-123540216D01*
X216611179Y-123376284D01*
X216669674Y-123196256D01*
X216689460Y-123008000D01*
X216669674Y-122819744D01*
X216611179Y-122639716D01*
X216516533Y-122475784D01*
X216426147Y-122375401D01*
X216394220Y-122339942D01*
X216394219Y-122339941D01*
X216389871Y-122335112D01*
X216384613Y-122331292D01*
X216384611Y-122331290D01*
X216241988Y-122227669D01*
X216241987Y-122227668D01*
X216236730Y-122223849D01*
X216230792Y-122221205D01*
X216069745Y-122149501D01*
X216069740Y-122149499D01*
X216063803Y-122146856D01*
X216057444Y-122145504D01*
X216057440Y-122145503D01*
X215885008Y-122108852D01*
X215885005Y-122108851D01*
X215878646Y-122107500D01*
X215689354Y-122107500D01*
X215682995Y-122108851D01*
X215682991Y-122108852D01*
X215510559Y-122145503D01*
X215510552Y-122145505D01*
X215504197Y-122146856D01*
X215498262Y-122149498D01*
X215498254Y-122149501D01*
X215337207Y-122221205D01*
X215337202Y-122221207D01*
X215331270Y-122223849D01*
X215326016Y-122227665D01*
X215326011Y-122227669D01*
X215183388Y-122331290D01*
X215183381Y-122331295D01*
X215178129Y-122335112D01*
X215173784Y-122339937D01*
X215173779Y-122339942D01*
X215055813Y-122470956D01*
X215055808Y-122470962D01*
X215051467Y-122475784D01*
X215048222Y-122481404D01*
X215048218Y-122481410D01*
X214960069Y-122634089D01*
X214960066Y-122634094D01*
X214956821Y-122639716D01*
X214954815Y-122645888D01*
X214954813Y-122645894D01*
X214900334Y-122813563D01*
X214898326Y-122819744D01*
X214897647Y-122826196D01*
X214897646Y-122826205D01*
X214893135Y-122869128D01*
X214881734Y-122909549D01*
X214857495Y-122943846D01*
X213950465Y-123850876D01*
X213904180Y-123880081D01*
X213850858Y-123886395D01*
X213846646Y-123885500D01*
X213657354Y-123885500D01*
X213650995Y-123886851D01*
X213650991Y-123886852D01*
X213478559Y-123923503D01*
X213478552Y-123923505D01*
X213472197Y-123924856D01*
X213466262Y-123927498D01*
X213466254Y-123927501D01*
X213305207Y-123999205D01*
X213305202Y-123999207D01*
X213299270Y-124001849D01*
X213294016Y-124005665D01*
X213294011Y-124005669D01*
X213151388Y-124109290D01*
X213151381Y-124109295D01*
X213146129Y-124113112D01*
X213141784Y-124117937D01*
X213141779Y-124117942D01*
X213023813Y-124248956D01*
X213023808Y-124248962D01*
X213019467Y-124253784D01*
X213016222Y-124259404D01*
X213016218Y-124259410D01*
X212928069Y-124412089D01*
X212928066Y-124412094D01*
X212924821Y-124417716D01*
X212922815Y-124423888D01*
X212922813Y-124423894D01*
X212868333Y-124591564D01*
X212868331Y-124591573D01*
X212866326Y-124597744D01*
X212865648Y-124604194D01*
X212865646Y-124604204D01*
X212855837Y-124697541D01*
X212846540Y-124786000D01*
X205634372Y-124786000D01*
X205718367Y-124692714D01*
X205813013Y-124528782D01*
X205871508Y-124348754D01*
X205876698Y-124299368D01*
X205888098Y-124258947D01*
X205912335Y-124224652D01*
X205983302Y-124153685D01*
X206042036Y-124120794D01*
X206106160Y-124123314D01*
X206106197Y-124123144D01*
X206291354Y-124162500D01*
X206474143Y-124162500D01*
X206480646Y-124162500D01*
X206665803Y-124123144D01*
X206838730Y-124046151D01*
X206991871Y-123934888D01*
X207118533Y-123794216D01*
X207213179Y-123630284D01*
X207271674Y-123450256D01*
X207278894Y-123381551D01*
X207298221Y-123326977D01*
X207340219Y-123287124D01*
X207340780Y-123286799D01*
X207346730Y-123284151D01*
X207499871Y-123172888D01*
X207626533Y-123032216D01*
X207721179Y-122868284D01*
X207779674Y-122688256D01*
X207799460Y-122500000D01*
X207779674Y-122311744D01*
X207721179Y-122131716D01*
X207626533Y-121967784D01*
X207499871Y-121827112D01*
X207494613Y-121823292D01*
X207494611Y-121823290D01*
X207351988Y-121719669D01*
X207351987Y-121719668D01*
X207346730Y-121715849D01*
X207340792Y-121713205D01*
X207179745Y-121641501D01*
X207179740Y-121641499D01*
X207173803Y-121638856D01*
X207167444Y-121637504D01*
X207167440Y-121637503D01*
X206995008Y-121600852D01*
X206995005Y-121600851D01*
X206988646Y-121599500D01*
X206799354Y-121599500D01*
X206792995Y-121600851D01*
X206792991Y-121600852D01*
X206620559Y-121637503D01*
X206620552Y-121637505D01*
X206614197Y-121638856D01*
X206608262Y-121641498D01*
X206608254Y-121641501D01*
X206447207Y-121713205D01*
X206447202Y-121713207D01*
X206441270Y-121715849D01*
X206436016Y-121719665D01*
X206436011Y-121719669D01*
X206293388Y-121823290D01*
X206293381Y-121823295D01*
X206288129Y-121827112D01*
X206283784Y-121831937D01*
X206283779Y-121831942D01*
X206165813Y-121962956D01*
X206165808Y-121962962D01*
X206161467Y-121967784D01*
X206158222Y-121973404D01*
X206158218Y-121973410D01*
X206070069Y-122126089D01*
X206070066Y-122126094D01*
X206066821Y-122131716D01*
X206064815Y-122137888D01*
X206064813Y-122137894D01*
X206010334Y-122305563D01*
X206008326Y-122311744D01*
X206007647Y-122318196D01*
X206007646Y-122318205D01*
X206001104Y-122380448D01*
X205981779Y-122435018D01*
X205939789Y-122474869D01*
X205939202Y-122475207D01*
X205933270Y-122477849D01*
X205928016Y-122481665D01*
X205928011Y-122481669D01*
X205840082Y-122545552D01*
X205789556Y-122567201D01*
X205782568Y-122568482D01*
X205775159Y-122569610D01*
X205722901Y-122575956D01*
X205722897Y-122575956D01*
X205715460Y-122576860D01*
X205708451Y-122579517D01*
X205708446Y-122579519D01*
X205705975Y-122580456D01*
X205684385Y-122586474D01*
X205681781Y-122586951D01*
X205681771Y-122586953D01*
X205674400Y-122588305D01*
X205667567Y-122591379D01*
X205667561Y-122591382D01*
X205619551Y-122612989D01*
X205612637Y-122615853D01*
X205563412Y-122634522D01*
X205563402Y-122634526D01*
X205556402Y-122637182D01*
X205550236Y-122641437D01*
X205550230Y-122641441D01*
X205548059Y-122642940D01*
X205528517Y-122653962D01*
X205526115Y-122655043D01*
X205526112Y-122655044D01*
X205519275Y-122658122D01*
X205513375Y-122662743D01*
X205513367Y-122662749D01*
X205471929Y-122695213D01*
X205465900Y-122699649D01*
X205422580Y-122729551D01*
X205422568Y-122729560D01*
X205416403Y-122733817D01*
X205411434Y-122739425D01*
X205411428Y-122739431D01*
X205376516Y-122778838D01*
X205371383Y-122784290D01*
X204965371Y-123190303D01*
X204907688Y-123222939D01*
X204841436Y-123221204D01*
X204785541Y-123185595D01*
X204705871Y-123097112D01*
X204700613Y-123093292D01*
X204700611Y-123093290D01*
X204557988Y-122989669D01*
X204557987Y-122989668D01*
X204552730Y-122985849D01*
X204546792Y-122983205D01*
X204385745Y-122911501D01*
X204385740Y-122911499D01*
X204379803Y-122908856D01*
X204373444Y-122907504D01*
X204373440Y-122907503D01*
X204201008Y-122870852D01*
X204201005Y-122870851D01*
X204194646Y-122869500D01*
X204005354Y-122869500D01*
X203998995Y-122870851D01*
X203998991Y-122870852D01*
X203826559Y-122907503D01*
X203826552Y-122907505D01*
X203820197Y-122908856D01*
X203814262Y-122911498D01*
X203814254Y-122911501D01*
X203653207Y-122983205D01*
X203653202Y-122983207D01*
X203647270Y-122985849D01*
X203642016Y-122989665D01*
X203642011Y-122989669D01*
X203499388Y-123093290D01*
X203499381Y-123093295D01*
X203494129Y-123097112D01*
X203489784Y-123101937D01*
X203489779Y-123101942D01*
X203371813Y-123232956D01*
X203371808Y-123232962D01*
X203367467Y-123237784D01*
X203364222Y-123243404D01*
X203364218Y-123243410D01*
X203276069Y-123396089D01*
X203276066Y-123396094D01*
X203272821Y-123401716D01*
X203270815Y-123407888D01*
X203270813Y-123407894D01*
X203216333Y-123575564D01*
X203216331Y-123575573D01*
X203214326Y-123581744D01*
X203213648Y-123588194D01*
X203213646Y-123588204D01*
X203203606Y-123683740D01*
X203194540Y-123770000D01*
X195861460Y-123770000D01*
X195841674Y-123581744D01*
X195812486Y-123491916D01*
X195809844Y-123424652D01*
X195842735Y-123365920D01*
X197704656Y-121504000D01*
X221090341Y-121504000D01*
X221090813Y-121509395D01*
X221108875Y-121715849D01*
X221110937Y-121739408D01*
X221112336Y-121744630D01*
X221112337Y-121744634D01*
X221170694Y-121962430D01*
X221170697Y-121962438D01*
X221172097Y-121967663D01*
X221271965Y-122181829D01*
X221275072Y-122186266D01*
X221275073Y-122186268D01*
X221304062Y-122227669D01*
X221407505Y-122375401D01*
X221411334Y-122379230D01*
X221555265Y-122523161D01*
X221585844Y-122573552D01*
X221589701Y-122632369D01*
X221565965Y-122686322D01*
X221526122Y-122718304D01*
X221526666Y-122719186D01*
X221383488Y-122807497D01*
X221383480Y-122807503D01*
X221377344Y-122811288D01*
X221372242Y-122816389D01*
X221372238Y-122816393D01*
X221258393Y-122930238D01*
X221258389Y-122930242D01*
X221253288Y-122935344D01*
X221249503Y-122941480D01*
X221249497Y-122941488D01*
X221164977Y-123078519D01*
X221161186Y-123084666D01*
X221158915Y-123091517D01*
X221158914Y-123091521D01*
X221108583Y-123243410D01*
X221106001Y-123251203D01*
X221105313Y-123257933D01*
X221105312Y-123257940D01*
X221095819Y-123350859D01*
X221095818Y-123350877D01*
X221095500Y-123353991D01*
X221095500Y-123357138D01*
X221095500Y-123357139D01*
X221095500Y-124650859D01*
X221095500Y-124650878D01*
X221095501Y-124654008D01*
X221095820Y-124657140D01*
X221095821Y-124657141D01*
X221105312Y-124750061D01*
X221105313Y-124750069D01*
X221106001Y-124756797D01*
X221108129Y-124763219D01*
X221108130Y-124763223D01*
X221135450Y-124845668D01*
X221161186Y-124923334D01*
X221164977Y-124929480D01*
X221249497Y-125066511D01*
X221249500Y-125066515D01*
X221253288Y-125072656D01*
X221377344Y-125196712D01*
X221383485Y-125200500D01*
X221383488Y-125200502D01*
X221440558Y-125235702D01*
X221526666Y-125288814D01*
X221693203Y-125343999D01*
X221795991Y-125354500D01*
X223396008Y-125354499D01*
X223498797Y-125343999D01*
X223665334Y-125288814D01*
X223814656Y-125196712D01*
X223938712Y-125072656D01*
X224030814Y-124923334D01*
X224085999Y-124756797D01*
X224096500Y-124654009D01*
X224096499Y-123353992D01*
X224085999Y-123251203D01*
X224030814Y-123084666D01*
X223938712Y-122935344D01*
X223814656Y-122811288D01*
X223808515Y-122807500D01*
X223808511Y-122807497D01*
X223665334Y-122719186D01*
X223665878Y-122718303D01*
X223626038Y-122686327D01*
X223602299Y-122632373D01*
X223606154Y-122573554D01*
X223636730Y-122523165D01*
X223784495Y-122375401D01*
X223920035Y-122181830D01*
X224019903Y-121967663D01*
X224081063Y-121739408D01*
X224101659Y-121504000D01*
X224081063Y-121268592D01*
X224019903Y-121040337D01*
X223920035Y-120826171D01*
X223784495Y-120632599D01*
X223617401Y-120465505D01*
X223423829Y-120329965D01*
X223209663Y-120230097D01*
X223204438Y-120228697D01*
X223204430Y-120228694D01*
X222986634Y-120170337D01*
X222986630Y-120170336D01*
X222981408Y-120168937D01*
X222976020Y-120168465D01*
X222976017Y-120168465D01*
X222807664Y-120153736D01*
X222807662Y-120153735D01*
X222804966Y-120153500D01*
X222387034Y-120153500D01*
X222384338Y-120153735D01*
X222384335Y-120153736D01*
X222215982Y-120168465D01*
X222215977Y-120168465D01*
X222210592Y-120168937D01*
X222205371Y-120170335D01*
X222205365Y-120170337D01*
X221987569Y-120228694D01*
X221987557Y-120228698D01*
X221982337Y-120230097D01*
X221977432Y-120232383D01*
X221977427Y-120232386D01*
X221773081Y-120327675D01*
X221773077Y-120327677D01*
X221768171Y-120329965D01*
X221763738Y-120333068D01*
X221763731Y-120333073D01*
X221579034Y-120462399D01*
X221579029Y-120462402D01*
X221574599Y-120465505D01*
X221570775Y-120469328D01*
X221570769Y-120469334D01*
X221411336Y-120628767D01*
X221411330Y-120628773D01*
X221407505Y-120632599D01*
X221404406Y-120637023D01*
X221404399Y-120637033D01*
X221275066Y-120821740D01*
X221275061Y-120821747D01*
X221271965Y-120826170D01*
X221269683Y-120831061D01*
X221269678Y-120831072D01*
X221174386Y-121035427D01*
X221174383Y-121035432D01*
X221172097Y-121040337D01*
X221170698Y-121045557D01*
X221170694Y-121045569D01*
X221112337Y-121263365D01*
X221112335Y-121263371D01*
X221110937Y-121268592D01*
X221090341Y-121504000D01*
X197704656Y-121504000D01*
X199336975Y-119871681D01*
X199365486Y-119850392D01*
X199398869Y-119838075D01*
X199553803Y-119805144D01*
X199726730Y-119728151D01*
X199861574Y-119630181D01*
X199896140Y-119612569D01*
X199934458Y-119606500D01*
X209535542Y-119606500D01*
X209573860Y-119612569D01*
X209608425Y-119630181D01*
X209743270Y-119728151D01*
X209916197Y-119805144D01*
X210101354Y-119844500D01*
X210284143Y-119844500D01*
X210290646Y-119844500D01*
X210475803Y-119805144D01*
X210648730Y-119728151D01*
X210801871Y-119616888D01*
X210928533Y-119476216D01*
X211023179Y-119312284D01*
X211081674Y-119132256D01*
X211101460Y-118944000D01*
X211081674Y-118755744D01*
X211023179Y-118575716D01*
X210928533Y-118411784D01*
X210801871Y-118271112D01*
X210796613Y-118267292D01*
X210796611Y-118267290D01*
X210653988Y-118163669D01*
X210653987Y-118163668D01*
X210648730Y-118159849D01*
X210642792Y-118157205D01*
X210481745Y-118085501D01*
X210481740Y-118085499D01*
X210475803Y-118082856D01*
X210469444Y-118081504D01*
X210469440Y-118081503D01*
X210297008Y-118044852D01*
X210297005Y-118044851D01*
X210290646Y-118043500D01*
X210101354Y-118043500D01*
X210094995Y-118044851D01*
X210094991Y-118044852D01*
X209922559Y-118081503D01*
X209922552Y-118081505D01*
X209916197Y-118082856D01*
X209910262Y-118085498D01*
X209910254Y-118085501D01*
X209749205Y-118157206D01*
X209749200Y-118157208D01*
X209743270Y-118159849D01*
X209738020Y-118163662D01*
X209738010Y-118163669D01*
X209713031Y-118181818D01*
X209678464Y-118199431D01*
X209640146Y-118205500D01*
X199829854Y-118205500D01*
X199791536Y-118199431D01*
X199756969Y-118181818D01*
X199731989Y-118163669D01*
X199731982Y-118163665D01*
X199726730Y-118159849D01*
X199720792Y-118157205D01*
X199559745Y-118085501D01*
X199559740Y-118085499D01*
X199553803Y-118082856D01*
X199547444Y-118081504D01*
X199547440Y-118081503D01*
X199375008Y-118044852D01*
X199375005Y-118044851D01*
X199368646Y-118043500D01*
X199179354Y-118043500D01*
X199172995Y-118044851D01*
X199172991Y-118044852D01*
X199000559Y-118081503D01*
X199000552Y-118081505D01*
X198994197Y-118082856D01*
X198988262Y-118085498D01*
X198988254Y-118085501D01*
X198827207Y-118157205D01*
X198827202Y-118157207D01*
X198821270Y-118159849D01*
X198816016Y-118163665D01*
X198816011Y-118163669D01*
X198673388Y-118267290D01*
X198673381Y-118267295D01*
X198668129Y-118271112D01*
X198663784Y-118275937D01*
X198663779Y-118275942D01*
X198545813Y-118406956D01*
X198545808Y-118406962D01*
X198541467Y-118411784D01*
X198538222Y-118417404D01*
X198538218Y-118417410D01*
X198450069Y-118570089D01*
X198450066Y-118570094D01*
X198446821Y-118575716D01*
X198444815Y-118581888D01*
X198444813Y-118581894D01*
X198390334Y-118749563D01*
X198388326Y-118755744D01*
X198387647Y-118762196D01*
X198387646Y-118762205D01*
X198383135Y-118805128D01*
X198371734Y-118845549D01*
X198347495Y-118879846D01*
X194478290Y-122749051D01*
X194472838Y-122754184D01*
X194433431Y-122789096D01*
X194433425Y-122789102D01*
X194427817Y-122794071D01*
X194423560Y-122800236D01*
X194423551Y-122800248D01*
X194393649Y-122843568D01*
X194389213Y-122849597D01*
X194356749Y-122891035D01*
X194356743Y-122891043D01*
X194352122Y-122896943D01*
X194349044Y-122903780D01*
X194349043Y-122903783D01*
X194347962Y-122906185D01*
X194336940Y-122925727D01*
X194335441Y-122927898D01*
X194335437Y-122927904D01*
X194331182Y-122934070D01*
X194328526Y-122941070D01*
X194328522Y-122941080D01*
X194309853Y-122990305D01*
X194306989Y-122997219D01*
X194285382Y-123045229D01*
X194285379Y-123045235D01*
X194282305Y-123052068D01*
X194280953Y-123059439D01*
X194280951Y-123059449D01*
X194280474Y-123062053D01*
X194274456Y-123083643D01*
X194273519Y-123086114D01*
X194273517Y-123086119D01*
X194270860Y-123093128D01*
X194269956Y-123100565D01*
X194269956Y-123100569D01*
X194263611Y-123152822D01*
X194262483Y-123160233D01*
X194260936Y-123168672D01*
X194231126Y-123229277D01*
X194227814Y-123232955D01*
X194227810Y-123232960D01*
X194223467Y-123237784D01*
X194220223Y-123243402D01*
X194220217Y-123243411D01*
X194132069Y-123396089D01*
X194132066Y-123396094D01*
X194128821Y-123401716D01*
X194126815Y-123407888D01*
X194126813Y-123407894D01*
X194072333Y-123575564D01*
X194072331Y-123575573D01*
X194070326Y-123581744D01*
X194069648Y-123588194D01*
X194069646Y-123588204D01*
X194059606Y-123683740D01*
X194050540Y-123770000D01*
X186270508Y-123770000D01*
X186270508Y-111220299D01*
X187764365Y-111220299D01*
X187764789Y-111225416D01*
X187784475Y-111463000D01*
X187784476Y-111463008D01*
X187784900Y-111468120D01*
X187786157Y-111473087D01*
X187786159Y-111473094D01*
X187844686Y-111704209D01*
X187845945Y-111709180D01*
X187848005Y-111713876D01*
X187943774Y-111932209D01*
X187943777Y-111932215D01*
X187945835Y-111936906D01*
X187948635Y-111941192D01*
X187948639Y-111941199D01*
X188076683Y-112137184D01*
X188081844Y-112145084D01*
X188085318Y-112148858D01*
X188085319Y-112148859D01*
X188246792Y-112324266D01*
X188246795Y-112324269D01*
X188250264Y-112328037D01*
X188446499Y-112480773D01*
X188665198Y-112599127D01*
X188900394Y-112679870D01*
X189145673Y-112720799D01*
X189389209Y-112720799D01*
X189394343Y-112720799D01*
X189639622Y-112679870D01*
X189874818Y-112599127D01*
X190093517Y-112480773D01*
X190289752Y-112328037D01*
X190458172Y-112145084D01*
X190594181Y-111936906D01*
X190694071Y-111709180D01*
X190755116Y-111468120D01*
X190775651Y-111220299D01*
X222454357Y-111220299D01*
X222454781Y-111225416D01*
X222474467Y-111463000D01*
X222474468Y-111463008D01*
X222474892Y-111468120D01*
X222476149Y-111473087D01*
X222476151Y-111473094D01*
X222534678Y-111704209D01*
X222535937Y-111709180D01*
X222537997Y-111713876D01*
X222633766Y-111932209D01*
X222633769Y-111932215D01*
X222635827Y-111936906D01*
X222638627Y-111941192D01*
X222638631Y-111941199D01*
X222766675Y-112137184D01*
X222771836Y-112145084D01*
X222775310Y-112148858D01*
X222775311Y-112148859D01*
X222936784Y-112324266D01*
X222936787Y-112324269D01*
X222940256Y-112328037D01*
X223136491Y-112480773D01*
X223355190Y-112599127D01*
X223590386Y-112679870D01*
X223835665Y-112720799D01*
X224079201Y-112720799D01*
X224084335Y-112720799D01*
X224329614Y-112679870D01*
X224564810Y-112599127D01*
X224783509Y-112480773D01*
X224979744Y-112328037D01*
X225148164Y-112145084D01*
X225284173Y-111936906D01*
X225384063Y-111709180D01*
X225445108Y-111468120D01*
X225465643Y-111220299D01*
X225445108Y-110972478D01*
X225384063Y-110731418D01*
X225284173Y-110503692D01*
X225148164Y-110295514D01*
X224979744Y-110112561D01*
X224783509Y-109959825D01*
X224778997Y-109957383D01*
X224569316Y-109843909D01*
X224569310Y-109843906D01*
X224564810Y-109841471D01*
X224559969Y-109839809D01*
X224559962Y-109839806D01*
X224334465Y-109762393D01*
X224334461Y-109762392D01*
X224329614Y-109760728D01*
X224320768Y-109759251D01*
X224089398Y-109720643D01*
X224089387Y-109720642D01*
X224084335Y-109719799D01*
X223835665Y-109719799D01*
X223830613Y-109720642D01*
X223830601Y-109720643D01*
X223595443Y-109759884D01*
X223595441Y-109759884D01*
X223590386Y-109760728D01*
X223585541Y-109762391D01*
X223585534Y-109762393D01*
X223360037Y-109839806D01*
X223360026Y-109839810D01*
X223355190Y-109841471D01*
X223350693Y-109843904D01*
X223350683Y-109843909D01*
X223141002Y-109957383D01*
X223140995Y-109957387D01*
X223136491Y-109959825D01*
X223132448Y-109962971D01*
X223132440Y-109962977D01*
X222944304Y-110109410D01*
X222940256Y-110112561D01*
X222936793Y-110116322D01*
X222936784Y-110116331D01*
X222775311Y-110291738D01*
X222775305Y-110291745D01*
X222771836Y-110295514D01*
X222769031Y-110299805D01*
X222769028Y-110299811D01*
X222638631Y-110499398D01*
X222638624Y-110499410D01*
X222635827Y-110503692D01*
X222633772Y-110508376D01*
X222633766Y-110508388D01*
X222537997Y-110726721D01*
X222535937Y-110731418D01*
X222534679Y-110736383D01*
X222534678Y-110736388D01*
X222476151Y-110967503D01*
X222476149Y-110967512D01*
X222474892Y-110972478D01*
X222474468Y-110977587D01*
X222474467Y-110977597D01*
X222454781Y-111215182D01*
X222454357Y-111220299D01*
X190775651Y-111220299D01*
X190755116Y-110972478D01*
X190694071Y-110731418D01*
X190594181Y-110503692D01*
X190458172Y-110295514D01*
X190289752Y-110112561D01*
X190093517Y-109959825D01*
X190089005Y-109957383D01*
X189879324Y-109843909D01*
X189879318Y-109843906D01*
X189874818Y-109841471D01*
X189869977Y-109839809D01*
X189869970Y-109839806D01*
X189644473Y-109762393D01*
X189644469Y-109762392D01*
X189639622Y-109760728D01*
X189630776Y-109759251D01*
X189399406Y-109720643D01*
X189399395Y-109720642D01*
X189394343Y-109719799D01*
X189145673Y-109719799D01*
X189140621Y-109720642D01*
X189140609Y-109720643D01*
X188905451Y-109759884D01*
X188905449Y-109759884D01*
X188900394Y-109760728D01*
X188895549Y-109762391D01*
X188895542Y-109762393D01*
X188670045Y-109839806D01*
X188670034Y-109839810D01*
X188665198Y-109841471D01*
X188660701Y-109843904D01*
X188660691Y-109843909D01*
X188451010Y-109957383D01*
X188451003Y-109957387D01*
X188446499Y-109959825D01*
X188442456Y-109962971D01*
X188442448Y-109962977D01*
X188254312Y-110109410D01*
X188250264Y-110112561D01*
X188246801Y-110116322D01*
X188246792Y-110116331D01*
X188085319Y-110291738D01*
X188085313Y-110291745D01*
X188081844Y-110295514D01*
X188079039Y-110299805D01*
X188079036Y-110299811D01*
X187948639Y-110499398D01*
X187948632Y-110499410D01*
X187945835Y-110503692D01*
X187943780Y-110508376D01*
X187943774Y-110508388D01*
X187848005Y-110726721D01*
X187845945Y-110731418D01*
X187844687Y-110736383D01*
X187844686Y-110736388D01*
X187786159Y-110967503D01*
X187786157Y-110967512D01*
X187784900Y-110972478D01*
X187784476Y-110977587D01*
X187784475Y-110977597D01*
X187764789Y-111215182D01*
X187764365Y-111220299D01*
X186270508Y-111220299D01*
X186270508Y-106635186D01*
X186270751Y-106627433D01*
X186274484Y-106567847D01*
X186274507Y-106567509D01*
X186287963Y-106376694D01*
X186289828Y-106362328D01*
X186309314Y-106259760D01*
X186309848Y-106257122D01*
X186340387Y-106114695D01*
X186343644Y-106102555D01*
X186378355Y-105995272D01*
X186379902Y-105990792D01*
X186427267Y-105861847D01*
X186431356Y-105852045D01*
X186469095Y-105771481D01*
X186480441Y-105747263D01*
X186483477Y-105741218D01*
X186547215Y-105622537D01*
X186551598Y-105615023D01*
X186613814Y-105516502D01*
X186618678Y-105509368D01*
X186698492Y-105400739D01*
X186702613Y-105395442D01*
X186776138Y-105306072D01*
X186783231Y-105298169D01*
X186879296Y-105199984D01*
X186882651Y-105196686D01*
X186964627Y-105119208D01*
X186974193Y-105111046D01*
X187089632Y-105022283D01*
X187091902Y-105020581D01*
X187176041Y-104958971D01*
X187188219Y-104951108D01*
X187355215Y-104856673D01*
X187355425Y-104856555D01*
X187407156Y-104827832D01*
X187414036Y-104824289D01*
X197815334Y-99873149D01*
X197821619Y-99870369D01*
X197831497Y-99866322D01*
X197842389Y-99861861D01*
X197844413Y-99861053D01*
X198056105Y-99778887D01*
X198066918Y-99775256D01*
X198147786Y-99752204D01*
X198154366Y-99750525D01*
X198322463Y-99712555D01*
X198329191Y-99711230D01*
X198412038Y-99697296D01*
X198423402Y-99695922D01*
X198650772Y-99679063D01*
X198652835Y-99678930D01*
X198669741Y-99677990D01*
X198674121Y-99677747D01*
X198681000Y-99677556D01*
X214548720Y-99677556D01*
X214555592Y-99677747D01*
G37*
G04 #@! TD.AperFunction*
M02*
