G04 #@! TF.GenerationSoftware,KiCad,Pcbnew,(7.0.0)*
G04 #@! TF.CreationDate,2023-09-25T00:06:07+02:00*
G04 #@! TF.ProjectId,FC Control board 1.0,46432043-6f6e-4747-926f-6c20626f6172,rev?*
G04 #@! TF.SameCoordinates,Original*
G04 #@! TF.FileFunction,Legend,Top*
G04 #@! TF.FilePolarity,Positive*
%FSLAX46Y46*%
G04 Gerber Fmt 4.6, Leading zero omitted, Abs format (unit mm)*
G04 Created by KiCad (PCBNEW (7.0.0)) date 2023-09-25 00:06:07*
%MOMM*%
%LPD*%
G01*
G04 APERTURE LIST*
G04 Aperture macros list*
%AMRoundRect*
0 Rectangle with rounded corners*
0 $1 Rounding radius*
0 $2 $3 $4 $5 $6 $7 $8 $9 X,Y pos of 4 corners*
0 Add a 4 corners polygon primitive as box body*
4,1,4,$2,$3,$4,$5,$6,$7,$8,$9,$2,$3,0*
0 Add four circle primitives for the rounded corners*
1,1,$1+$1,$2,$3*
1,1,$1+$1,$4,$5*
1,1,$1+$1,$6,$7*
1,1,$1+$1,$8,$9*
0 Add four rect primitives between the rounded corners*
20,1,$1+$1,$2,$3,$4,$5,0*
20,1,$1+$1,$4,$5,$6,$7,0*
20,1,$1+$1,$6,$7,$8,$9,0*
20,1,$1+$1,$8,$9,$2,$3,0*%
G04 Aperture macros list end*
%ADD10C,0.150000*%
%ADD11C,0.120000*%
%ADD12C,0.127000*%
%ADD13C,0.200000*%
%ADD14C,0.100000*%
%ADD15RoundRect,0.250000X0.650000X-0.325000X0.650000X0.325000X-0.650000X0.325000X-0.650000X-0.325000X0*%
%ADD16O,1.700000X2.000000*%
%ADD17RoundRect,0.250000X-0.600000X-0.750000X0.600000X-0.750000X0.600000X0.750000X-0.600000X0.750000X0*%
%ADD18RoundRect,0.250000X-0.650000X0.325000X-0.650000X-0.325000X0.650000X-0.325000X0.650000X0.325000X0*%
%ADD19RoundRect,0.250000X0.475000X-0.337500X0.475000X0.337500X-0.475000X0.337500X-0.475000X-0.337500X0*%
%ADD20RoundRect,0.250000X-0.475000X0.337500X-0.475000X-0.337500X0.475000X-0.337500X0.475000X0.337500X0*%
%ADD21R,1.500000X2.000000*%
%ADD22R,3.800000X2.000000*%
%ADD23RoundRect,0.250000X0.350000X-0.850000X0.350000X0.850000X-0.350000X0.850000X-0.350000X-0.850000X0*%
%ADD24RoundRect,0.249997X2.650003X-2.950003X2.650003X2.950003X-2.650003X2.950003X-2.650003X-2.950003X0*%
%ADD25R,0.600000X1.650000*%
%ADD26RoundRect,0.250000X-0.450000X0.350000X-0.450000X-0.350000X0.450000X-0.350000X0.450000X0.350000X0*%
%ADD27RoundRect,0.250000X-0.325000X-0.450000X0.325000X-0.450000X0.325000X0.450000X-0.325000X0.450000X0*%
%ADD28R,1.700000X1.700000*%
%ADD29O,1.700000X1.700000*%
%ADD30RoundRect,0.150000X0.662500X0.150000X-0.662500X0.150000X-0.662500X-0.150000X0.662500X-0.150000X0*%
%ADD31R,2.514000X3.200000*%
%ADD32RoundRect,0.250000X0.450000X-0.350000X0.450000X0.350000X-0.450000X0.350000X-0.450000X-0.350000X0*%
%ADD33RoundRect,0.122500X0.764500X0.184500X-0.764500X0.184500X-0.764500X-0.184500X0.764500X-0.184500X0*%
%ADD34RoundRect,0.250000X-0.350000X-0.450000X0.350000X-0.450000X0.350000X0.450000X-0.350000X0.450000X0*%
%ADD35R,1.550000X1.300000*%
%ADD36RoundRect,0.250000X0.625000X-0.312500X0.625000X0.312500X-0.625000X0.312500X-0.625000X-0.312500X0*%
%ADD37R,0.838200X0.889000*%
%ADD38R,0.889000X0.838200*%
%ADD39R,3.708400X3.708400*%
%ADD40C,0.650000*%
%ADD41R,1.450000X0.600000*%
%ADD42R,1.450000X0.300000*%
%ADD43O,2.100000X1.000000*%
%ADD44O,1.600000X1.000000*%
%ADD45RoundRect,0.237500X0.250000X0.237500X-0.250000X0.237500X-0.250000X-0.237500X0.250000X-0.237500X0*%
%ADD46RoundRect,0.225000X0.250000X-0.225000X0.250000X0.225000X-0.250000X0.225000X-0.250000X-0.225000X0*%
%ADD47RoundRect,0.250000X0.750000X-0.600000X0.750000X0.600000X-0.750000X0.600000X-0.750000X-0.600000X0*%
%ADD48O,2.000000X1.700000*%
%ADD49RoundRect,0.250000X0.312500X0.625000X-0.312500X0.625000X-0.312500X-0.625000X0.312500X-0.625000X0*%
%ADD50RoundRect,0.250000X-0.312500X-0.625000X0.312500X-0.625000X0.312500X0.625000X-0.312500X0.625000X0*%
G04 APERTURE END LIST*
D10*
X200353428Y-106039571D02*
X200020095Y-106039571D01*
X200020095Y-106563380D02*
X200020095Y-105563380D01*
X200020095Y-105563380D02*
X200496285Y-105563380D01*
X201448666Y-106468142D02*
X201401047Y-106515761D01*
X201401047Y-106515761D02*
X201258190Y-106563380D01*
X201258190Y-106563380D02*
X201162952Y-106563380D01*
X201162952Y-106563380D02*
X201020095Y-106515761D01*
X201020095Y-106515761D02*
X200924857Y-106420523D01*
X200924857Y-106420523D02*
X200877238Y-106325285D01*
X200877238Y-106325285D02*
X200829619Y-106134809D01*
X200829619Y-106134809D02*
X200829619Y-105991952D01*
X200829619Y-105991952D02*
X200877238Y-105801476D01*
X200877238Y-105801476D02*
X200924857Y-105706238D01*
X200924857Y-105706238D02*
X201020095Y-105611000D01*
X201020095Y-105611000D02*
X201162952Y-105563380D01*
X201162952Y-105563380D02*
X201258190Y-105563380D01*
X201258190Y-105563380D02*
X201401047Y-105611000D01*
X201401047Y-105611000D02*
X201448666Y-105658619D01*
X203048666Y-106468142D02*
X203001047Y-106515761D01*
X203001047Y-106515761D02*
X202858190Y-106563380D01*
X202858190Y-106563380D02*
X202762952Y-106563380D01*
X202762952Y-106563380D02*
X202620095Y-106515761D01*
X202620095Y-106515761D02*
X202524857Y-106420523D01*
X202524857Y-106420523D02*
X202477238Y-106325285D01*
X202477238Y-106325285D02*
X202429619Y-106134809D01*
X202429619Y-106134809D02*
X202429619Y-105991952D01*
X202429619Y-105991952D02*
X202477238Y-105801476D01*
X202477238Y-105801476D02*
X202524857Y-105706238D01*
X202524857Y-105706238D02*
X202620095Y-105611000D01*
X202620095Y-105611000D02*
X202762952Y-105563380D01*
X202762952Y-105563380D02*
X202858190Y-105563380D01*
X202858190Y-105563380D02*
X203001047Y-105611000D01*
X203001047Y-105611000D02*
X203048666Y-105658619D01*
X203620095Y-106563380D02*
X203524857Y-106515761D01*
X203524857Y-106515761D02*
X203477238Y-106468142D01*
X203477238Y-106468142D02*
X203429619Y-106372904D01*
X203429619Y-106372904D02*
X203429619Y-106087190D01*
X203429619Y-106087190D02*
X203477238Y-105991952D01*
X203477238Y-105991952D02*
X203524857Y-105944333D01*
X203524857Y-105944333D02*
X203620095Y-105896714D01*
X203620095Y-105896714D02*
X203762952Y-105896714D01*
X203762952Y-105896714D02*
X203858190Y-105944333D01*
X203858190Y-105944333D02*
X203905809Y-105991952D01*
X203905809Y-105991952D02*
X203953428Y-106087190D01*
X203953428Y-106087190D02*
X203953428Y-106372904D01*
X203953428Y-106372904D02*
X203905809Y-106468142D01*
X203905809Y-106468142D02*
X203858190Y-106515761D01*
X203858190Y-106515761D02*
X203762952Y-106563380D01*
X203762952Y-106563380D02*
X203620095Y-106563380D01*
X204382000Y-105896714D02*
X204382000Y-106563380D01*
X204382000Y-105991952D02*
X204429619Y-105944333D01*
X204429619Y-105944333D02*
X204524857Y-105896714D01*
X204524857Y-105896714D02*
X204667714Y-105896714D01*
X204667714Y-105896714D02*
X204762952Y-105944333D01*
X204762952Y-105944333D02*
X204810571Y-106039571D01*
X204810571Y-106039571D02*
X204810571Y-106563380D01*
X205143905Y-105896714D02*
X205524857Y-105896714D01*
X205286762Y-105563380D02*
X205286762Y-106420523D01*
X205286762Y-106420523D02*
X205334381Y-106515761D01*
X205334381Y-106515761D02*
X205429619Y-106563380D01*
X205429619Y-106563380D02*
X205524857Y-106563380D01*
X205858191Y-106563380D02*
X205858191Y-105896714D01*
X205858191Y-106087190D02*
X205905810Y-105991952D01*
X205905810Y-105991952D02*
X205953429Y-105944333D01*
X205953429Y-105944333D02*
X206048667Y-105896714D01*
X206048667Y-105896714D02*
X206143905Y-105896714D01*
X206620096Y-106563380D02*
X206524858Y-106515761D01*
X206524858Y-106515761D02*
X206477239Y-106468142D01*
X206477239Y-106468142D02*
X206429620Y-106372904D01*
X206429620Y-106372904D02*
X206429620Y-106087190D01*
X206429620Y-106087190D02*
X206477239Y-105991952D01*
X206477239Y-105991952D02*
X206524858Y-105944333D01*
X206524858Y-105944333D02*
X206620096Y-105896714D01*
X206620096Y-105896714D02*
X206762953Y-105896714D01*
X206762953Y-105896714D02*
X206858191Y-105944333D01*
X206858191Y-105944333D02*
X206905810Y-105991952D01*
X206905810Y-105991952D02*
X206953429Y-106087190D01*
X206953429Y-106087190D02*
X206953429Y-106372904D01*
X206953429Y-106372904D02*
X206905810Y-106468142D01*
X206905810Y-106468142D02*
X206858191Y-106515761D01*
X206858191Y-106515761D02*
X206762953Y-106563380D01*
X206762953Y-106563380D02*
X206620096Y-106563380D01*
X207524858Y-106563380D02*
X207429620Y-106515761D01*
X207429620Y-106515761D02*
X207382001Y-106420523D01*
X207382001Y-106420523D02*
X207382001Y-105563380D01*
X208505811Y-106563380D02*
X208505811Y-105563380D01*
X208505811Y-105944333D02*
X208601049Y-105896714D01*
X208601049Y-105896714D02*
X208791525Y-105896714D01*
X208791525Y-105896714D02*
X208886763Y-105944333D01*
X208886763Y-105944333D02*
X208934382Y-105991952D01*
X208934382Y-105991952D02*
X208982001Y-106087190D01*
X208982001Y-106087190D02*
X208982001Y-106372904D01*
X208982001Y-106372904D02*
X208934382Y-106468142D01*
X208934382Y-106468142D02*
X208886763Y-106515761D01*
X208886763Y-106515761D02*
X208791525Y-106563380D01*
X208791525Y-106563380D02*
X208601049Y-106563380D01*
X208601049Y-106563380D02*
X208505811Y-106515761D01*
X209553430Y-106563380D02*
X209458192Y-106515761D01*
X209458192Y-106515761D02*
X209410573Y-106468142D01*
X209410573Y-106468142D02*
X209362954Y-106372904D01*
X209362954Y-106372904D02*
X209362954Y-106087190D01*
X209362954Y-106087190D02*
X209410573Y-105991952D01*
X209410573Y-105991952D02*
X209458192Y-105944333D01*
X209458192Y-105944333D02*
X209553430Y-105896714D01*
X209553430Y-105896714D02*
X209696287Y-105896714D01*
X209696287Y-105896714D02*
X209791525Y-105944333D01*
X209791525Y-105944333D02*
X209839144Y-105991952D01*
X209839144Y-105991952D02*
X209886763Y-106087190D01*
X209886763Y-106087190D02*
X209886763Y-106372904D01*
X209886763Y-106372904D02*
X209839144Y-106468142D01*
X209839144Y-106468142D02*
X209791525Y-106515761D01*
X209791525Y-106515761D02*
X209696287Y-106563380D01*
X209696287Y-106563380D02*
X209553430Y-106563380D01*
X210743906Y-106563380D02*
X210743906Y-106039571D01*
X210743906Y-106039571D02*
X210696287Y-105944333D01*
X210696287Y-105944333D02*
X210601049Y-105896714D01*
X210601049Y-105896714D02*
X210410573Y-105896714D01*
X210410573Y-105896714D02*
X210315335Y-105944333D01*
X210743906Y-106515761D02*
X210648668Y-106563380D01*
X210648668Y-106563380D02*
X210410573Y-106563380D01*
X210410573Y-106563380D02*
X210315335Y-106515761D01*
X210315335Y-106515761D02*
X210267716Y-106420523D01*
X210267716Y-106420523D02*
X210267716Y-106325285D01*
X210267716Y-106325285D02*
X210315335Y-106230047D01*
X210315335Y-106230047D02*
X210410573Y-106182428D01*
X210410573Y-106182428D02*
X210648668Y-106182428D01*
X210648668Y-106182428D02*
X210743906Y-106134809D01*
X211220097Y-106563380D02*
X211220097Y-105896714D01*
X211220097Y-106087190D02*
X211267716Y-105991952D01*
X211267716Y-105991952D02*
X211315335Y-105944333D01*
X211315335Y-105944333D02*
X211410573Y-105896714D01*
X211410573Y-105896714D02*
X211505811Y-105896714D01*
X212267716Y-106563380D02*
X212267716Y-105563380D01*
X212267716Y-106515761D02*
X212172478Y-106563380D01*
X212172478Y-106563380D02*
X211982002Y-106563380D01*
X211982002Y-106563380D02*
X211886764Y-106515761D01*
X211886764Y-106515761D02*
X211839145Y-106468142D01*
X211839145Y-106468142D02*
X211791526Y-106372904D01*
X211791526Y-106372904D02*
X211791526Y-106087190D01*
X211791526Y-106087190D02*
X211839145Y-105991952D01*
X211839145Y-105991952D02*
X211886764Y-105944333D01*
X211886764Y-105944333D02*
X211982002Y-105896714D01*
X211982002Y-105896714D02*
X212172478Y-105896714D01*
X212172478Y-105896714D02*
X212267716Y-105944333D01*
X213248669Y-105896714D02*
X213486764Y-106563380D01*
X213486764Y-106563380D02*
X213724859Y-105896714D01*
X214296288Y-105563380D02*
X214391526Y-105563380D01*
X214391526Y-105563380D02*
X214486764Y-105611000D01*
X214486764Y-105611000D02*
X214534383Y-105658619D01*
X214534383Y-105658619D02*
X214582002Y-105753857D01*
X214582002Y-105753857D02*
X214629621Y-105944333D01*
X214629621Y-105944333D02*
X214629621Y-106182428D01*
X214629621Y-106182428D02*
X214582002Y-106372904D01*
X214582002Y-106372904D02*
X214534383Y-106468142D01*
X214534383Y-106468142D02*
X214486764Y-106515761D01*
X214486764Y-106515761D02*
X214391526Y-106563380D01*
X214391526Y-106563380D02*
X214296288Y-106563380D01*
X214296288Y-106563380D02*
X214201050Y-106515761D01*
X214201050Y-106515761D02*
X214153431Y-106468142D01*
X214153431Y-106468142D02*
X214105812Y-106372904D01*
X214105812Y-106372904D02*
X214058193Y-106182428D01*
X214058193Y-106182428D02*
X214058193Y-105944333D01*
X214058193Y-105944333D02*
X214105812Y-105753857D01*
X214105812Y-105753857D02*
X214153431Y-105658619D01*
X214153431Y-105658619D02*
X214201050Y-105611000D01*
X214201050Y-105611000D02*
X214296288Y-105563380D01*
X215058193Y-106468142D02*
X215105812Y-106515761D01*
X215105812Y-106515761D02*
X215058193Y-106563380D01*
X215058193Y-106563380D02*
X215010574Y-106515761D01*
X215010574Y-106515761D02*
X215058193Y-106468142D01*
X215058193Y-106468142D02*
X215058193Y-106563380D01*
X216058192Y-106563380D02*
X215486764Y-106563380D01*
X215772478Y-106563380D02*
X215772478Y-105563380D01*
X215772478Y-105563380D02*
X215677240Y-105706238D01*
X215677240Y-105706238D02*
X215582002Y-105801476D01*
X215582002Y-105801476D02*
X215486764Y-105849095D01*
X200305809Y-107183380D02*
X200305809Y-107897666D01*
X200305809Y-107897666D02*
X200258190Y-108040523D01*
X200258190Y-108040523D02*
X200162952Y-108135761D01*
X200162952Y-108135761D02*
X200020095Y-108183380D01*
X200020095Y-108183380D02*
X199924857Y-108183380D01*
X200782000Y-108088142D02*
X200829619Y-108135761D01*
X200829619Y-108135761D02*
X200782000Y-108183380D01*
X200782000Y-108183380D02*
X200734381Y-108135761D01*
X200734381Y-108135761D02*
X200782000Y-108088142D01*
X200782000Y-108088142D02*
X200782000Y-108183380D01*
X201762952Y-107183380D02*
X202001047Y-108183380D01*
X202001047Y-108183380D02*
X202191523Y-107469095D01*
X202191523Y-107469095D02*
X202381999Y-108183380D01*
X202381999Y-108183380D02*
X202620095Y-107183380D01*
X203001047Y-108183380D02*
X203001047Y-107183380D01*
X203429618Y-108183380D02*
X203429618Y-107659571D01*
X203429618Y-107659571D02*
X203381999Y-107564333D01*
X203381999Y-107564333D02*
X203286761Y-107516714D01*
X203286761Y-107516714D02*
X203143904Y-107516714D01*
X203143904Y-107516714D02*
X203048666Y-107564333D01*
X203048666Y-107564333D02*
X203001047Y-107611952D01*
X204286761Y-108135761D02*
X204191523Y-108183380D01*
X204191523Y-108183380D02*
X204001047Y-108183380D01*
X204001047Y-108183380D02*
X203905809Y-108135761D01*
X203905809Y-108135761D02*
X203858190Y-108040523D01*
X203858190Y-108040523D02*
X203858190Y-107659571D01*
X203858190Y-107659571D02*
X203905809Y-107564333D01*
X203905809Y-107564333D02*
X204001047Y-107516714D01*
X204001047Y-107516714D02*
X204191523Y-107516714D01*
X204191523Y-107516714D02*
X204286761Y-107564333D01*
X204286761Y-107564333D02*
X204334380Y-107659571D01*
X204334380Y-107659571D02*
X204334380Y-107754809D01*
X204334380Y-107754809D02*
X203858190Y-107850047D01*
X205143904Y-108135761D02*
X205048666Y-108183380D01*
X205048666Y-108183380D02*
X204858190Y-108183380D01*
X204858190Y-108183380D02*
X204762952Y-108135761D01*
X204762952Y-108135761D02*
X204715333Y-108040523D01*
X204715333Y-108040523D02*
X204715333Y-107659571D01*
X204715333Y-107659571D02*
X204762952Y-107564333D01*
X204762952Y-107564333D02*
X204858190Y-107516714D01*
X204858190Y-107516714D02*
X205048666Y-107516714D01*
X205048666Y-107516714D02*
X205143904Y-107564333D01*
X205143904Y-107564333D02*
X205191523Y-107659571D01*
X205191523Y-107659571D02*
X205191523Y-107754809D01*
X205191523Y-107754809D02*
X204715333Y-107850047D01*
X205762952Y-108183380D02*
X205667714Y-108135761D01*
X205667714Y-108135761D02*
X205620095Y-108040523D01*
X205620095Y-108040523D02*
X205620095Y-107183380D01*
X206524857Y-108135761D02*
X206429619Y-108183380D01*
X206429619Y-108183380D02*
X206239143Y-108183380D01*
X206239143Y-108183380D02*
X206143905Y-108135761D01*
X206143905Y-108135761D02*
X206096286Y-108040523D01*
X206096286Y-108040523D02*
X206096286Y-107659571D01*
X206096286Y-107659571D02*
X206143905Y-107564333D01*
X206143905Y-107564333D02*
X206239143Y-107516714D01*
X206239143Y-107516714D02*
X206429619Y-107516714D01*
X206429619Y-107516714D02*
X206524857Y-107564333D01*
X206524857Y-107564333D02*
X206572476Y-107659571D01*
X206572476Y-107659571D02*
X206572476Y-107754809D01*
X206572476Y-107754809D02*
X206096286Y-107850047D01*
X207001048Y-108183380D02*
X207001048Y-107516714D01*
X207001048Y-107707190D02*
X207048667Y-107611952D01*
X207048667Y-107611952D02*
X207096286Y-107564333D01*
X207096286Y-107564333D02*
X207191524Y-107516714D01*
X207191524Y-107516714D02*
X207286762Y-107516714D01*
X208743905Y-107231000D02*
X208648667Y-107183380D01*
X208648667Y-107183380D02*
X208505810Y-107183380D01*
X208505810Y-107183380D02*
X208362953Y-107231000D01*
X208362953Y-107231000D02*
X208267715Y-107326238D01*
X208267715Y-107326238D02*
X208220096Y-107421476D01*
X208220096Y-107421476D02*
X208172477Y-107611952D01*
X208172477Y-107611952D02*
X208172477Y-107754809D01*
X208172477Y-107754809D02*
X208220096Y-107945285D01*
X208220096Y-107945285D02*
X208267715Y-108040523D01*
X208267715Y-108040523D02*
X208362953Y-108135761D01*
X208362953Y-108135761D02*
X208505810Y-108183380D01*
X208505810Y-108183380D02*
X208601048Y-108183380D01*
X208601048Y-108183380D02*
X208743905Y-108135761D01*
X208743905Y-108135761D02*
X208791524Y-108088142D01*
X208791524Y-108088142D02*
X208791524Y-107754809D01*
X208791524Y-107754809D02*
X208601048Y-107754809D01*
X209220096Y-108088142D02*
X209267715Y-108135761D01*
X209267715Y-108135761D02*
X209220096Y-108183380D01*
X209220096Y-108183380D02*
X209172477Y-108135761D01*
X209172477Y-108135761D02*
X209220096Y-108088142D01*
X209220096Y-108088142D02*
X209220096Y-108183380D01*
X210248667Y-107897666D02*
X210724857Y-107897666D01*
X210153429Y-108183380D02*
X210486762Y-107183380D01*
X210486762Y-107183380D02*
X210820095Y-108183380D01*
X211153429Y-108183380D02*
X211153429Y-107183380D01*
X211153429Y-107564333D02*
X211248667Y-107516714D01*
X211248667Y-107516714D02*
X211439143Y-107516714D01*
X211439143Y-107516714D02*
X211534381Y-107564333D01*
X211534381Y-107564333D02*
X211582000Y-107611952D01*
X211582000Y-107611952D02*
X211629619Y-107707190D01*
X211629619Y-107707190D02*
X211629619Y-107992904D01*
X211629619Y-107992904D02*
X211582000Y-108088142D01*
X211582000Y-108088142D02*
X211534381Y-108135761D01*
X211534381Y-108135761D02*
X211439143Y-108183380D01*
X211439143Y-108183380D02*
X211248667Y-108183380D01*
X211248667Y-108183380D02*
X211153429Y-108135761D01*
X212058191Y-108183380D02*
X212058191Y-107516714D01*
X212058191Y-107707190D02*
X212105810Y-107611952D01*
X212105810Y-107611952D02*
X212153429Y-107564333D01*
X212153429Y-107564333D02*
X212248667Y-107516714D01*
X212248667Y-107516714D02*
X212343905Y-107516714D01*
X213105810Y-108183380D02*
X213105810Y-107659571D01*
X213105810Y-107659571D02*
X213058191Y-107564333D01*
X213058191Y-107564333D02*
X212962953Y-107516714D01*
X212962953Y-107516714D02*
X212772477Y-107516714D01*
X212772477Y-107516714D02*
X212677239Y-107564333D01*
X213105810Y-108135761D02*
X213010572Y-108183380D01*
X213010572Y-108183380D02*
X212772477Y-108183380D01*
X212772477Y-108183380D02*
X212677239Y-108135761D01*
X212677239Y-108135761D02*
X212629620Y-108040523D01*
X212629620Y-108040523D02*
X212629620Y-107945285D01*
X212629620Y-107945285D02*
X212677239Y-107850047D01*
X212677239Y-107850047D02*
X212772477Y-107802428D01*
X212772477Y-107802428D02*
X213010572Y-107802428D01*
X213010572Y-107802428D02*
X213105810Y-107754809D01*
X213582001Y-108183380D02*
X213582001Y-107183380D01*
X214010572Y-108183380D02*
X214010572Y-107659571D01*
X214010572Y-107659571D02*
X213962953Y-107564333D01*
X213962953Y-107564333D02*
X213867715Y-107516714D01*
X213867715Y-107516714D02*
X213724858Y-107516714D01*
X213724858Y-107516714D02*
X213629620Y-107564333D01*
X213629620Y-107564333D02*
X213582001Y-107611952D01*
X214915334Y-108183380D02*
X214915334Y-107659571D01*
X214915334Y-107659571D02*
X214867715Y-107564333D01*
X214867715Y-107564333D02*
X214772477Y-107516714D01*
X214772477Y-107516714D02*
X214582001Y-107516714D01*
X214582001Y-107516714D02*
X214486763Y-107564333D01*
X214915334Y-108135761D02*
X214820096Y-108183380D01*
X214820096Y-108183380D02*
X214582001Y-108183380D01*
X214582001Y-108183380D02*
X214486763Y-108135761D01*
X214486763Y-108135761D02*
X214439144Y-108040523D01*
X214439144Y-108040523D02*
X214439144Y-107945285D01*
X214439144Y-107945285D02*
X214486763Y-107850047D01*
X214486763Y-107850047D02*
X214582001Y-107802428D01*
X214582001Y-107802428D02*
X214820096Y-107802428D01*
X214820096Y-107802428D02*
X214915334Y-107754809D01*
X215391525Y-108183380D02*
X215391525Y-107516714D01*
X215391525Y-107611952D02*
X215439144Y-107564333D01*
X215439144Y-107564333D02*
X215534382Y-107516714D01*
X215534382Y-107516714D02*
X215677239Y-107516714D01*
X215677239Y-107516714D02*
X215772477Y-107564333D01*
X215772477Y-107564333D02*
X215820096Y-107659571D01*
X215820096Y-107659571D02*
X215820096Y-108183380D01*
X215820096Y-107659571D02*
X215867715Y-107564333D01*
X215867715Y-107564333D02*
X215962953Y-107516714D01*
X215962953Y-107516714D02*
X216105810Y-107516714D01*
X216105810Y-107516714D02*
X216201049Y-107564333D01*
X216201049Y-107564333D02*
X216248668Y-107659571D01*
X216248668Y-107659571D02*
X216248668Y-108183380D01*
X216677239Y-108135761D02*
X216772477Y-108183380D01*
X216772477Y-108183380D02*
X216962953Y-108183380D01*
X216962953Y-108183380D02*
X217058191Y-108135761D01*
X217058191Y-108135761D02*
X217105810Y-108040523D01*
X217105810Y-108040523D02*
X217105810Y-107992904D01*
X217105810Y-107992904D02*
X217058191Y-107897666D01*
X217058191Y-107897666D02*
X216962953Y-107850047D01*
X216962953Y-107850047D02*
X216820096Y-107850047D01*
X216820096Y-107850047D02*
X216724858Y-107802428D01*
X216724858Y-107802428D02*
X216677239Y-107707190D01*
X216677239Y-107707190D02*
X216677239Y-107659571D01*
X216677239Y-107659571D02*
X216724858Y-107564333D01*
X216724858Y-107564333D02*
X216820096Y-107516714D01*
X216820096Y-107516714D02*
X216962953Y-107516714D01*
X216962953Y-107516714D02*
X217058191Y-107564333D01*
X217486763Y-108135761D02*
X217582001Y-108183380D01*
X217582001Y-108183380D02*
X217772477Y-108183380D01*
X217772477Y-108183380D02*
X217867715Y-108135761D01*
X217867715Y-108135761D02*
X217915334Y-108040523D01*
X217915334Y-108040523D02*
X217915334Y-107992904D01*
X217915334Y-107992904D02*
X217867715Y-107897666D01*
X217867715Y-107897666D02*
X217772477Y-107850047D01*
X217772477Y-107850047D02*
X217629620Y-107850047D01*
X217629620Y-107850047D02*
X217534382Y-107802428D01*
X217534382Y-107802428D02*
X217486763Y-107707190D01*
X217486763Y-107707190D02*
X217486763Y-107659571D01*
X217486763Y-107659571D02*
X217534382Y-107564333D01*
X217534382Y-107564333D02*
X217629620Y-107516714D01*
X217629620Y-107516714D02*
X217772477Y-107516714D01*
X217772477Y-107516714D02*
X217867715Y-107564333D01*
X218486763Y-108183380D02*
X218391525Y-108135761D01*
X218391525Y-108135761D02*
X218343906Y-108088142D01*
X218343906Y-108088142D02*
X218296287Y-107992904D01*
X218296287Y-107992904D02*
X218296287Y-107707190D01*
X218296287Y-107707190D02*
X218343906Y-107611952D01*
X218343906Y-107611952D02*
X218391525Y-107564333D01*
X218391525Y-107564333D02*
X218486763Y-107516714D01*
X218486763Y-107516714D02*
X218629620Y-107516714D01*
X218629620Y-107516714D02*
X218724858Y-107564333D01*
X218724858Y-107564333D02*
X218772477Y-107611952D01*
X218772477Y-107611952D02*
X218820096Y-107707190D01*
X218820096Y-107707190D02*
X218820096Y-107992904D01*
X218820096Y-107992904D02*
X218772477Y-108088142D01*
X218772477Y-108088142D02*
X218724858Y-108135761D01*
X218724858Y-108135761D02*
X218629620Y-108183380D01*
X218629620Y-108183380D02*
X218486763Y-108183380D01*
X219248668Y-107516714D02*
X219248668Y-108183380D01*
X219248668Y-107611952D02*
X219296287Y-107564333D01*
X219296287Y-107564333D02*
X219391525Y-107516714D01*
X219391525Y-107516714D02*
X219534382Y-107516714D01*
X219534382Y-107516714D02*
X219629620Y-107564333D01*
X219629620Y-107564333D02*
X219677239Y-107659571D01*
X219677239Y-107659571D02*
X219677239Y-108183380D01*
X220705811Y-107278619D02*
X220753430Y-107231000D01*
X220753430Y-107231000D02*
X220848668Y-107183380D01*
X220848668Y-107183380D02*
X221086763Y-107183380D01*
X221086763Y-107183380D02*
X221182001Y-107231000D01*
X221182001Y-107231000D02*
X221229620Y-107278619D01*
X221229620Y-107278619D02*
X221277239Y-107373857D01*
X221277239Y-107373857D02*
X221277239Y-107469095D01*
X221277239Y-107469095D02*
X221229620Y-107611952D01*
X221229620Y-107611952D02*
X220658192Y-108183380D01*
X220658192Y-108183380D02*
X221277239Y-108183380D01*
X221896287Y-107183380D02*
X221991525Y-107183380D01*
X221991525Y-107183380D02*
X222086763Y-107231000D01*
X222086763Y-107231000D02*
X222134382Y-107278619D01*
X222134382Y-107278619D02*
X222182001Y-107373857D01*
X222182001Y-107373857D02*
X222229620Y-107564333D01*
X222229620Y-107564333D02*
X222229620Y-107802428D01*
X222229620Y-107802428D02*
X222182001Y-107992904D01*
X222182001Y-107992904D02*
X222134382Y-108088142D01*
X222134382Y-108088142D02*
X222086763Y-108135761D01*
X222086763Y-108135761D02*
X221991525Y-108183380D01*
X221991525Y-108183380D02*
X221896287Y-108183380D01*
X221896287Y-108183380D02*
X221801049Y-108135761D01*
X221801049Y-108135761D02*
X221753430Y-108088142D01*
X221753430Y-108088142D02*
X221705811Y-107992904D01*
X221705811Y-107992904D02*
X221658192Y-107802428D01*
X221658192Y-107802428D02*
X221658192Y-107564333D01*
X221658192Y-107564333D02*
X221705811Y-107373857D01*
X221705811Y-107373857D02*
X221753430Y-107278619D01*
X221753430Y-107278619D02*
X221801049Y-107231000D01*
X221801049Y-107231000D02*
X221896287Y-107183380D01*
X222610573Y-107278619D02*
X222658192Y-107231000D01*
X222658192Y-107231000D02*
X222753430Y-107183380D01*
X222753430Y-107183380D02*
X222991525Y-107183380D01*
X222991525Y-107183380D02*
X223086763Y-107231000D01*
X223086763Y-107231000D02*
X223134382Y-107278619D01*
X223134382Y-107278619D02*
X223182001Y-107373857D01*
X223182001Y-107373857D02*
X223182001Y-107469095D01*
X223182001Y-107469095D02*
X223134382Y-107611952D01*
X223134382Y-107611952D02*
X222562954Y-108183380D01*
X222562954Y-108183380D02*
X223182001Y-108183380D01*
X223515335Y-107183380D02*
X224134382Y-107183380D01*
X224134382Y-107183380D02*
X223801049Y-107564333D01*
X223801049Y-107564333D02*
X223943906Y-107564333D01*
X223943906Y-107564333D02*
X224039144Y-107611952D01*
X224039144Y-107611952D02*
X224086763Y-107659571D01*
X224086763Y-107659571D02*
X224134382Y-107754809D01*
X224134382Y-107754809D02*
X224134382Y-107992904D01*
X224134382Y-107992904D02*
X224086763Y-108088142D01*
X224086763Y-108088142D02*
X224039144Y-108135761D01*
X224039144Y-108135761D02*
X223943906Y-108183380D01*
X223943906Y-108183380D02*
X223658192Y-108183380D01*
X223658192Y-108183380D02*
X223562954Y-108135761D01*
X223562954Y-108135761D02*
X223515335Y-108088142D01*
X193378142Y-126628666D02*
X193425761Y-126676285D01*
X193425761Y-126676285D02*
X193473380Y-126819142D01*
X193473380Y-126819142D02*
X193473380Y-126914380D01*
X193473380Y-126914380D02*
X193425761Y-127057237D01*
X193425761Y-127057237D02*
X193330523Y-127152475D01*
X193330523Y-127152475D02*
X193235285Y-127200094D01*
X193235285Y-127200094D02*
X193044809Y-127247713D01*
X193044809Y-127247713D02*
X192901952Y-127247713D01*
X192901952Y-127247713D02*
X192711476Y-127200094D01*
X192711476Y-127200094D02*
X192616238Y-127152475D01*
X192616238Y-127152475D02*
X192521000Y-127057237D01*
X192521000Y-127057237D02*
X192473380Y-126914380D01*
X192473380Y-126914380D02*
X192473380Y-126819142D01*
X192473380Y-126819142D02*
X192521000Y-126676285D01*
X192521000Y-126676285D02*
X192568619Y-126628666D01*
X192473380Y-126295332D02*
X192473380Y-125628666D01*
X192473380Y-125628666D02*
X193473380Y-126057237D01*
X220730075Y-134526880D02*
X220730075Y-133526880D01*
X220730075Y-133526880D02*
X221063408Y-134241166D01*
X221063408Y-134241166D02*
X221396741Y-133526880D01*
X221396741Y-133526880D02*
X221396741Y-134526880D01*
X222396741Y-134526880D02*
X221825313Y-134526880D01*
X222111027Y-134526880D02*
X222111027Y-133526880D01*
X222111027Y-133526880D02*
X222015789Y-133669738D01*
X222015789Y-133669738D02*
X221920551Y-133764976D01*
X221920551Y-133764976D02*
X221825313Y-133812595D01*
X214604142Y-160766666D02*
X214651761Y-160814285D01*
X214651761Y-160814285D02*
X214699380Y-160957142D01*
X214699380Y-160957142D02*
X214699380Y-161052380D01*
X214699380Y-161052380D02*
X214651761Y-161195237D01*
X214651761Y-161195237D02*
X214556523Y-161290475D01*
X214556523Y-161290475D02*
X214461285Y-161338094D01*
X214461285Y-161338094D02*
X214270809Y-161385713D01*
X214270809Y-161385713D02*
X214127952Y-161385713D01*
X214127952Y-161385713D02*
X213937476Y-161338094D01*
X213937476Y-161338094D02*
X213842238Y-161290475D01*
X213842238Y-161290475D02*
X213747000Y-161195237D01*
X213747000Y-161195237D02*
X213699380Y-161052380D01*
X213699380Y-161052380D02*
X213699380Y-160957142D01*
X213699380Y-160957142D02*
X213747000Y-160814285D01*
X213747000Y-160814285D02*
X213794619Y-160766666D01*
X214699380Y-159814285D02*
X214699380Y-160385713D01*
X214699380Y-160099999D02*
X213699380Y-160099999D01*
X213699380Y-160099999D02*
X213842238Y-160195237D01*
X213842238Y-160195237D02*
X213937476Y-160290475D01*
X213937476Y-160290475D02*
X213985095Y-160385713D01*
X220751476Y-154846880D02*
X220751476Y-153846880D01*
X220751476Y-153846880D02*
X221084809Y-154561166D01*
X221084809Y-154561166D02*
X221418142Y-153846880D01*
X221418142Y-153846880D02*
X221418142Y-154846880D01*
X221846714Y-153942119D02*
X221894333Y-153894500D01*
X221894333Y-153894500D02*
X221989571Y-153846880D01*
X221989571Y-153846880D02*
X222227666Y-153846880D01*
X222227666Y-153846880D02*
X222322904Y-153894500D01*
X222322904Y-153894500D02*
X222370523Y-153942119D01*
X222370523Y-153942119D02*
X222418142Y-154037357D01*
X222418142Y-154037357D02*
X222418142Y-154132595D01*
X222418142Y-154132595D02*
X222370523Y-154275452D01*
X222370523Y-154275452D02*
X221799095Y-154846880D01*
X221799095Y-154846880D02*
X222418142Y-154846880D01*
X214278142Y-202168666D02*
X214325761Y-202216285D01*
X214325761Y-202216285D02*
X214373380Y-202359142D01*
X214373380Y-202359142D02*
X214373380Y-202454380D01*
X214373380Y-202454380D02*
X214325761Y-202597237D01*
X214325761Y-202597237D02*
X214230523Y-202692475D01*
X214230523Y-202692475D02*
X214135285Y-202740094D01*
X214135285Y-202740094D02*
X213944809Y-202787713D01*
X213944809Y-202787713D02*
X213801952Y-202787713D01*
X213801952Y-202787713D02*
X213611476Y-202740094D01*
X213611476Y-202740094D02*
X213516238Y-202692475D01*
X213516238Y-202692475D02*
X213421000Y-202597237D01*
X213421000Y-202597237D02*
X213373380Y-202454380D01*
X213373380Y-202454380D02*
X213373380Y-202359142D01*
X213373380Y-202359142D02*
X213421000Y-202216285D01*
X213421000Y-202216285D02*
X213468619Y-202168666D01*
X213706714Y-201311523D02*
X214373380Y-201311523D01*
X213325761Y-201549618D02*
X214040047Y-201787713D01*
X214040047Y-201787713D02*
X214040047Y-201168666D01*
X185068142Y-141684857D02*
X185115761Y-141732476D01*
X185115761Y-141732476D02*
X185163380Y-141875333D01*
X185163380Y-141875333D02*
X185163380Y-141970571D01*
X185163380Y-141970571D02*
X185115761Y-142113428D01*
X185115761Y-142113428D02*
X185020523Y-142208666D01*
X185020523Y-142208666D02*
X184925285Y-142256285D01*
X184925285Y-142256285D02*
X184734809Y-142303904D01*
X184734809Y-142303904D02*
X184591952Y-142303904D01*
X184591952Y-142303904D02*
X184401476Y-142256285D01*
X184401476Y-142256285D02*
X184306238Y-142208666D01*
X184306238Y-142208666D02*
X184211000Y-142113428D01*
X184211000Y-142113428D02*
X184163380Y-141970571D01*
X184163380Y-141970571D02*
X184163380Y-141875333D01*
X184163380Y-141875333D02*
X184211000Y-141732476D01*
X184211000Y-141732476D02*
X184258619Y-141684857D01*
X185163380Y-140732476D02*
X185163380Y-141303904D01*
X185163380Y-141018190D02*
X184163380Y-141018190D01*
X184163380Y-141018190D02*
X184306238Y-141113428D01*
X184306238Y-141113428D02*
X184401476Y-141208666D01*
X184401476Y-141208666D02*
X184449095Y-141303904D01*
X184163380Y-140399142D02*
X184163380Y-139780095D01*
X184163380Y-139780095D02*
X184544333Y-140113428D01*
X184544333Y-140113428D02*
X184544333Y-139970571D01*
X184544333Y-139970571D02*
X184591952Y-139875333D01*
X184591952Y-139875333D02*
X184639571Y-139827714D01*
X184639571Y-139827714D02*
X184734809Y-139780095D01*
X184734809Y-139780095D02*
X184972904Y-139780095D01*
X184972904Y-139780095D02*
X185068142Y-139827714D01*
X185068142Y-139827714D02*
X185115761Y-139875333D01*
X185115761Y-139875333D02*
X185163380Y-139970571D01*
X185163380Y-139970571D02*
X185163380Y-140256285D01*
X185163380Y-140256285D02*
X185115761Y-140351523D01*
X185115761Y-140351523D02*
X185068142Y-140399142D01*
X191601380Y-118587904D02*
X192410904Y-118587904D01*
X192410904Y-118587904D02*
X192506142Y-118540285D01*
X192506142Y-118540285D02*
X192553761Y-118492666D01*
X192553761Y-118492666D02*
X192601380Y-118397428D01*
X192601380Y-118397428D02*
X192601380Y-118206952D01*
X192601380Y-118206952D02*
X192553761Y-118111714D01*
X192553761Y-118111714D02*
X192506142Y-118064095D01*
X192506142Y-118064095D02*
X192410904Y-118016476D01*
X192410904Y-118016476D02*
X191601380Y-118016476D01*
X191601380Y-117635523D02*
X191601380Y-116968857D01*
X191601380Y-116968857D02*
X192601380Y-117397428D01*
X209381380Y-118689904D02*
X210190904Y-118689904D01*
X210190904Y-118689904D02*
X210286142Y-118642285D01*
X210286142Y-118642285D02*
X210333761Y-118594666D01*
X210333761Y-118594666D02*
X210381380Y-118499428D01*
X210381380Y-118499428D02*
X210381380Y-118308952D01*
X210381380Y-118308952D02*
X210333761Y-118213714D01*
X210333761Y-118213714D02*
X210286142Y-118166095D01*
X210286142Y-118166095D02*
X210190904Y-118118476D01*
X210190904Y-118118476D02*
X209381380Y-118118476D01*
X209381380Y-117737523D02*
X209381380Y-117118476D01*
X209381380Y-117118476D02*
X209762333Y-117451809D01*
X209762333Y-117451809D02*
X209762333Y-117308952D01*
X209762333Y-117308952D02*
X209809952Y-117213714D01*
X209809952Y-117213714D02*
X209857571Y-117166095D01*
X209857571Y-117166095D02*
X209952809Y-117118476D01*
X209952809Y-117118476D02*
X210190904Y-117118476D01*
X210190904Y-117118476D02*
X210286142Y-117166095D01*
X210286142Y-117166095D02*
X210333761Y-117213714D01*
X210333761Y-117213714D02*
X210381380Y-117308952D01*
X210381380Y-117308952D02*
X210381380Y-117594666D01*
X210381380Y-117594666D02*
X210333761Y-117689904D01*
X210333761Y-117689904D02*
X210286142Y-117737523D01*
X188662380Y-165861594D02*
X189471904Y-165861594D01*
X189471904Y-165861594D02*
X189567142Y-165813975D01*
X189567142Y-165813975D02*
X189614761Y-165766356D01*
X189614761Y-165766356D02*
X189662380Y-165671118D01*
X189662380Y-165671118D02*
X189662380Y-165480642D01*
X189662380Y-165480642D02*
X189614761Y-165385404D01*
X189614761Y-165385404D02*
X189567142Y-165337785D01*
X189567142Y-165337785D02*
X189471904Y-165290166D01*
X189471904Y-165290166D02*
X188662380Y-165290166D01*
X189662380Y-164290166D02*
X189662380Y-164861594D01*
X189662380Y-164575880D02*
X188662380Y-164575880D01*
X188662380Y-164575880D02*
X188805238Y-164671118D01*
X188805238Y-164671118D02*
X188900476Y-164766356D01*
X188900476Y-164766356D02*
X188948095Y-164861594D01*
X189662380Y-163337785D02*
X189662380Y-163909213D01*
X189662380Y-163623499D02*
X188662380Y-163623499D01*
X188662380Y-163623499D02*
X188805238Y-163718737D01*
X188805238Y-163718737D02*
X188900476Y-163813975D01*
X188900476Y-163813975D02*
X188948095Y-163909213D01*
X231137380Y-180578666D02*
X230661190Y-180911999D01*
X231137380Y-181150094D02*
X230137380Y-181150094D01*
X230137380Y-181150094D02*
X230137380Y-180769142D01*
X230137380Y-180769142D02*
X230185000Y-180673904D01*
X230185000Y-180673904D02*
X230232619Y-180626285D01*
X230232619Y-180626285D02*
X230327857Y-180578666D01*
X230327857Y-180578666D02*
X230470714Y-180578666D01*
X230470714Y-180578666D02*
X230565952Y-180626285D01*
X230565952Y-180626285D02*
X230613571Y-180673904D01*
X230613571Y-180673904D02*
X230661190Y-180769142D01*
X230661190Y-180769142D02*
X230661190Y-181150094D01*
X230232619Y-180197713D02*
X230185000Y-180150094D01*
X230185000Y-180150094D02*
X230137380Y-180054856D01*
X230137380Y-180054856D02*
X230137380Y-179816761D01*
X230137380Y-179816761D02*
X230185000Y-179721523D01*
X230185000Y-179721523D02*
X230232619Y-179673904D01*
X230232619Y-179673904D02*
X230327857Y-179626285D01*
X230327857Y-179626285D02*
X230423095Y-179626285D01*
X230423095Y-179626285D02*
X230565952Y-179673904D01*
X230565952Y-179673904D02*
X231137380Y-180245332D01*
X231137380Y-180245332D02*
X231137380Y-179626285D01*
X229867380Y-172006094D02*
X228867380Y-172006094D01*
X228867380Y-172006094D02*
X228867380Y-171767999D01*
X228867380Y-171767999D02*
X228915000Y-171625142D01*
X228915000Y-171625142D02*
X229010238Y-171529904D01*
X229010238Y-171529904D02*
X229105476Y-171482285D01*
X229105476Y-171482285D02*
X229295952Y-171434666D01*
X229295952Y-171434666D02*
X229438809Y-171434666D01*
X229438809Y-171434666D02*
X229629285Y-171482285D01*
X229629285Y-171482285D02*
X229724523Y-171529904D01*
X229724523Y-171529904D02*
X229819761Y-171625142D01*
X229819761Y-171625142D02*
X229867380Y-171767999D01*
X229867380Y-171767999D02*
X229867380Y-172006094D01*
X229867380Y-170482285D02*
X229867380Y-171053713D01*
X229867380Y-170767999D02*
X228867380Y-170767999D01*
X228867380Y-170767999D02*
X229010238Y-170863237D01*
X229010238Y-170863237D02*
X229105476Y-170958475D01*
X229105476Y-170958475D02*
X229153095Y-171053713D01*
X196728142Y-126628666D02*
X196775761Y-126676285D01*
X196775761Y-126676285D02*
X196823380Y-126819142D01*
X196823380Y-126819142D02*
X196823380Y-126914380D01*
X196823380Y-126914380D02*
X196775761Y-127057237D01*
X196775761Y-127057237D02*
X196680523Y-127152475D01*
X196680523Y-127152475D02*
X196585285Y-127200094D01*
X196585285Y-127200094D02*
X196394809Y-127247713D01*
X196394809Y-127247713D02*
X196251952Y-127247713D01*
X196251952Y-127247713D02*
X196061476Y-127200094D01*
X196061476Y-127200094D02*
X195966238Y-127152475D01*
X195966238Y-127152475D02*
X195871000Y-127057237D01*
X195871000Y-127057237D02*
X195823380Y-126914380D01*
X195823380Y-126914380D02*
X195823380Y-126819142D01*
X195823380Y-126819142D02*
X195871000Y-126676285D01*
X195871000Y-126676285D02*
X195918619Y-126628666D01*
X196251952Y-126057237D02*
X196204333Y-126152475D01*
X196204333Y-126152475D02*
X196156714Y-126200094D01*
X196156714Y-126200094D02*
X196061476Y-126247713D01*
X196061476Y-126247713D02*
X196013857Y-126247713D01*
X196013857Y-126247713D02*
X195918619Y-126200094D01*
X195918619Y-126200094D02*
X195871000Y-126152475D01*
X195871000Y-126152475D02*
X195823380Y-126057237D01*
X195823380Y-126057237D02*
X195823380Y-125866761D01*
X195823380Y-125866761D02*
X195871000Y-125771523D01*
X195871000Y-125771523D02*
X195918619Y-125723904D01*
X195918619Y-125723904D02*
X196013857Y-125676285D01*
X196013857Y-125676285D02*
X196061476Y-125676285D01*
X196061476Y-125676285D02*
X196156714Y-125723904D01*
X196156714Y-125723904D02*
X196204333Y-125771523D01*
X196204333Y-125771523D02*
X196251952Y-125866761D01*
X196251952Y-125866761D02*
X196251952Y-126057237D01*
X196251952Y-126057237D02*
X196299571Y-126152475D01*
X196299571Y-126152475D02*
X196347190Y-126200094D01*
X196347190Y-126200094D02*
X196442428Y-126247713D01*
X196442428Y-126247713D02*
X196632904Y-126247713D01*
X196632904Y-126247713D02*
X196728142Y-126200094D01*
X196728142Y-126200094D02*
X196775761Y-126152475D01*
X196775761Y-126152475D02*
X196823380Y-126057237D01*
X196823380Y-126057237D02*
X196823380Y-125866761D01*
X196823380Y-125866761D02*
X196775761Y-125771523D01*
X196775761Y-125771523D02*
X196728142Y-125723904D01*
X196728142Y-125723904D02*
X196632904Y-125676285D01*
X196632904Y-125676285D02*
X196442428Y-125676285D01*
X196442428Y-125676285D02*
X196347190Y-125723904D01*
X196347190Y-125723904D02*
X196299571Y-125771523D01*
X196299571Y-125771523D02*
X196251952Y-125866761D01*
X212656666Y-187629380D02*
X212656666Y-188343666D01*
X212656666Y-188343666D02*
X212609047Y-188486523D01*
X212609047Y-188486523D02*
X212513809Y-188581761D01*
X212513809Y-188581761D02*
X212370952Y-188629380D01*
X212370952Y-188629380D02*
X212275714Y-188629380D01*
X213085238Y-187724619D02*
X213132857Y-187677000D01*
X213132857Y-187677000D02*
X213228095Y-187629380D01*
X213228095Y-187629380D02*
X213466190Y-187629380D01*
X213466190Y-187629380D02*
X213561428Y-187677000D01*
X213561428Y-187677000D02*
X213609047Y-187724619D01*
X213609047Y-187724619D02*
X213656666Y-187819857D01*
X213656666Y-187819857D02*
X213656666Y-187915095D01*
X213656666Y-187915095D02*
X213609047Y-188057952D01*
X213609047Y-188057952D02*
X213037619Y-188629380D01*
X213037619Y-188629380D02*
X213656666Y-188629380D01*
X211157142Y-127399666D02*
X211204761Y-127447285D01*
X211204761Y-127447285D02*
X211252380Y-127590142D01*
X211252380Y-127590142D02*
X211252380Y-127685380D01*
X211252380Y-127685380D02*
X211204761Y-127828237D01*
X211204761Y-127828237D02*
X211109523Y-127923475D01*
X211109523Y-127923475D02*
X211014285Y-127971094D01*
X211014285Y-127971094D02*
X210823809Y-128018713D01*
X210823809Y-128018713D02*
X210680952Y-128018713D01*
X210680952Y-128018713D02*
X210490476Y-127971094D01*
X210490476Y-127971094D02*
X210395238Y-127923475D01*
X210395238Y-127923475D02*
X210300000Y-127828237D01*
X210300000Y-127828237D02*
X210252380Y-127685380D01*
X210252380Y-127685380D02*
X210252380Y-127590142D01*
X210252380Y-127590142D02*
X210300000Y-127447285D01*
X210300000Y-127447285D02*
X210347619Y-127399666D01*
X210252380Y-126494904D02*
X210252380Y-126971094D01*
X210252380Y-126971094D02*
X210728571Y-127018713D01*
X210728571Y-127018713D02*
X210680952Y-126971094D01*
X210680952Y-126971094D02*
X210633333Y-126875856D01*
X210633333Y-126875856D02*
X210633333Y-126637761D01*
X210633333Y-126637761D02*
X210680952Y-126542523D01*
X210680952Y-126542523D02*
X210728571Y-126494904D01*
X210728571Y-126494904D02*
X210823809Y-126447285D01*
X210823809Y-126447285D02*
X211061904Y-126447285D01*
X211061904Y-126447285D02*
X211157142Y-126494904D01*
X211157142Y-126494904D02*
X211204761Y-126542523D01*
X211204761Y-126542523D02*
X211252380Y-126637761D01*
X211252380Y-126637761D02*
X211252380Y-126875856D01*
X211252380Y-126875856D02*
X211204761Y-126971094D01*
X211204761Y-126971094D02*
X211157142Y-127018713D01*
X206208095Y-139453380D02*
X206208095Y-140262904D01*
X206208095Y-140262904D02*
X206255714Y-140358142D01*
X206255714Y-140358142D02*
X206303333Y-140405761D01*
X206303333Y-140405761D02*
X206398571Y-140453380D01*
X206398571Y-140453380D02*
X206589047Y-140453380D01*
X206589047Y-140453380D02*
X206684285Y-140405761D01*
X206684285Y-140405761D02*
X206731904Y-140358142D01*
X206731904Y-140358142D02*
X206779523Y-140262904D01*
X206779523Y-140262904D02*
X206779523Y-139453380D01*
X207303333Y-140453380D02*
X207493809Y-140453380D01*
X207493809Y-140453380D02*
X207589047Y-140405761D01*
X207589047Y-140405761D02*
X207636666Y-140358142D01*
X207636666Y-140358142D02*
X207731904Y-140215285D01*
X207731904Y-140215285D02*
X207779523Y-140024809D01*
X207779523Y-140024809D02*
X207779523Y-139643857D01*
X207779523Y-139643857D02*
X207731904Y-139548619D01*
X207731904Y-139548619D02*
X207684285Y-139501000D01*
X207684285Y-139501000D02*
X207589047Y-139453380D01*
X207589047Y-139453380D02*
X207398571Y-139453380D01*
X207398571Y-139453380D02*
X207303333Y-139501000D01*
X207303333Y-139501000D02*
X207255714Y-139548619D01*
X207255714Y-139548619D02*
X207208095Y-139643857D01*
X207208095Y-139643857D02*
X207208095Y-139881952D01*
X207208095Y-139881952D02*
X207255714Y-139977190D01*
X207255714Y-139977190D02*
X207303333Y-140024809D01*
X207303333Y-140024809D02*
X207398571Y-140072428D01*
X207398571Y-140072428D02*
X207589047Y-140072428D01*
X207589047Y-140072428D02*
X207684285Y-140024809D01*
X207684285Y-140024809D02*
X207731904Y-139977190D01*
X207731904Y-139977190D02*
X207779523Y-139881952D01*
X218507380Y-165385404D02*
X219316904Y-165385404D01*
X219316904Y-165385404D02*
X219412142Y-165337785D01*
X219412142Y-165337785D02*
X219459761Y-165290166D01*
X219459761Y-165290166D02*
X219507380Y-165194928D01*
X219507380Y-165194928D02*
X219507380Y-165004452D01*
X219507380Y-165004452D02*
X219459761Y-164909214D01*
X219459761Y-164909214D02*
X219412142Y-164861595D01*
X219412142Y-164861595D02*
X219316904Y-164813976D01*
X219316904Y-164813976D02*
X218507380Y-164813976D01*
X218935952Y-164194928D02*
X218888333Y-164290166D01*
X218888333Y-164290166D02*
X218840714Y-164337785D01*
X218840714Y-164337785D02*
X218745476Y-164385404D01*
X218745476Y-164385404D02*
X218697857Y-164385404D01*
X218697857Y-164385404D02*
X218602619Y-164337785D01*
X218602619Y-164337785D02*
X218555000Y-164290166D01*
X218555000Y-164290166D02*
X218507380Y-164194928D01*
X218507380Y-164194928D02*
X218507380Y-164004452D01*
X218507380Y-164004452D02*
X218555000Y-163909214D01*
X218555000Y-163909214D02*
X218602619Y-163861595D01*
X218602619Y-163861595D02*
X218697857Y-163813976D01*
X218697857Y-163813976D02*
X218745476Y-163813976D01*
X218745476Y-163813976D02*
X218840714Y-163861595D01*
X218840714Y-163861595D02*
X218888333Y-163909214D01*
X218888333Y-163909214D02*
X218935952Y-164004452D01*
X218935952Y-164004452D02*
X218935952Y-164194928D01*
X218935952Y-164194928D02*
X218983571Y-164290166D01*
X218983571Y-164290166D02*
X219031190Y-164337785D01*
X219031190Y-164337785D02*
X219126428Y-164385404D01*
X219126428Y-164385404D02*
X219316904Y-164385404D01*
X219316904Y-164385404D02*
X219412142Y-164337785D01*
X219412142Y-164337785D02*
X219459761Y-164290166D01*
X219459761Y-164290166D02*
X219507380Y-164194928D01*
X219507380Y-164194928D02*
X219507380Y-164004452D01*
X219507380Y-164004452D02*
X219459761Y-163909214D01*
X219459761Y-163909214D02*
X219412142Y-163861595D01*
X219412142Y-163861595D02*
X219316904Y-163813976D01*
X219316904Y-163813976D02*
X219126428Y-163813976D01*
X219126428Y-163813976D02*
X219031190Y-163861595D01*
X219031190Y-163861595D02*
X218983571Y-163909214D01*
X218983571Y-163909214D02*
X218935952Y-164004452D01*
X231391380Y-177022666D02*
X230915190Y-177355999D01*
X231391380Y-177594094D02*
X230391380Y-177594094D01*
X230391380Y-177594094D02*
X230391380Y-177213142D01*
X230391380Y-177213142D02*
X230439000Y-177117904D01*
X230439000Y-177117904D02*
X230486619Y-177070285D01*
X230486619Y-177070285D02*
X230581857Y-177022666D01*
X230581857Y-177022666D02*
X230724714Y-177022666D01*
X230724714Y-177022666D02*
X230819952Y-177070285D01*
X230819952Y-177070285D02*
X230867571Y-177117904D01*
X230867571Y-177117904D02*
X230915190Y-177213142D01*
X230915190Y-177213142D02*
X230915190Y-177594094D01*
X230391380Y-176689332D02*
X230391380Y-176070285D01*
X230391380Y-176070285D02*
X230772333Y-176403618D01*
X230772333Y-176403618D02*
X230772333Y-176260761D01*
X230772333Y-176260761D02*
X230819952Y-176165523D01*
X230819952Y-176165523D02*
X230867571Y-176117904D01*
X230867571Y-176117904D02*
X230962809Y-176070285D01*
X230962809Y-176070285D02*
X231200904Y-176070285D01*
X231200904Y-176070285D02*
X231296142Y-176117904D01*
X231296142Y-176117904D02*
X231343761Y-176165523D01*
X231343761Y-176165523D02*
X231391380Y-176260761D01*
X231391380Y-176260761D02*
X231391380Y-176546475D01*
X231391380Y-176546475D02*
X231343761Y-176641713D01*
X231343761Y-176641713D02*
X231296142Y-176689332D01*
X190906476Y-154846880D02*
X190906476Y-153846880D01*
X190906476Y-153846880D02*
X191239809Y-154561166D01*
X191239809Y-154561166D02*
X191573142Y-153846880D01*
X191573142Y-153846880D02*
X191573142Y-154846880D01*
X192477904Y-154180214D02*
X192477904Y-154846880D01*
X192239809Y-153799261D02*
X192001714Y-154513547D01*
X192001714Y-154513547D02*
X192620761Y-154513547D01*
X206533095Y-148058380D02*
X206533095Y-148867904D01*
X206533095Y-148867904D02*
X206580714Y-148963142D01*
X206580714Y-148963142D02*
X206628333Y-149010761D01*
X206628333Y-149010761D02*
X206723571Y-149058380D01*
X206723571Y-149058380D02*
X206914047Y-149058380D01*
X206914047Y-149058380D02*
X207009285Y-149010761D01*
X207009285Y-149010761D02*
X207056904Y-148963142D01*
X207056904Y-148963142D02*
X207104523Y-148867904D01*
X207104523Y-148867904D02*
X207104523Y-148058380D01*
X208009285Y-148058380D02*
X207818809Y-148058380D01*
X207818809Y-148058380D02*
X207723571Y-148106000D01*
X207723571Y-148106000D02*
X207675952Y-148153619D01*
X207675952Y-148153619D02*
X207580714Y-148296476D01*
X207580714Y-148296476D02*
X207533095Y-148486952D01*
X207533095Y-148486952D02*
X207533095Y-148867904D01*
X207533095Y-148867904D02*
X207580714Y-148963142D01*
X207580714Y-148963142D02*
X207628333Y-149010761D01*
X207628333Y-149010761D02*
X207723571Y-149058380D01*
X207723571Y-149058380D02*
X207914047Y-149058380D01*
X207914047Y-149058380D02*
X208009285Y-149010761D01*
X208009285Y-149010761D02*
X208056904Y-148963142D01*
X208056904Y-148963142D02*
X208104523Y-148867904D01*
X208104523Y-148867904D02*
X208104523Y-148629809D01*
X208104523Y-148629809D02*
X208056904Y-148534571D01*
X208056904Y-148534571D02*
X208009285Y-148486952D01*
X208009285Y-148486952D02*
X207914047Y-148439333D01*
X207914047Y-148439333D02*
X207723571Y-148439333D01*
X207723571Y-148439333D02*
X207628333Y-148486952D01*
X207628333Y-148486952D02*
X207580714Y-148534571D01*
X207580714Y-148534571D02*
X207533095Y-148629809D01*
X217167380Y-201660666D02*
X216691190Y-201993999D01*
X217167380Y-202232094D02*
X216167380Y-202232094D01*
X216167380Y-202232094D02*
X216167380Y-201851142D01*
X216167380Y-201851142D02*
X216215000Y-201755904D01*
X216215000Y-201755904D02*
X216262619Y-201708285D01*
X216262619Y-201708285D02*
X216357857Y-201660666D01*
X216357857Y-201660666D02*
X216500714Y-201660666D01*
X216500714Y-201660666D02*
X216595952Y-201708285D01*
X216595952Y-201708285D02*
X216643571Y-201755904D01*
X216643571Y-201755904D02*
X216691190Y-201851142D01*
X216691190Y-201851142D02*
X216691190Y-202232094D01*
X216500714Y-200803523D02*
X217167380Y-200803523D01*
X216119761Y-201041618D02*
X216834047Y-201279713D01*
X216834047Y-201279713D02*
X216834047Y-200660666D01*
X231111333Y-168841380D02*
X230778000Y-168365190D01*
X230539905Y-168841380D02*
X230539905Y-167841380D01*
X230539905Y-167841380D02*
X230920857Y-167841380D01*
X230920857Y-167841380D02*
X231016095Y-167889000D01*
X231016095Y-167889000D02*
X231063714Y-167936619D01*
X231063714Y-167936619D02*
X231111333Y-168031857D01*
X231111333Y-168031857D02*
X231111333Y-168174714D01*
X231111333Y-168174714D02*
X231063714Y-168269952D01*
X231063714Y-168269952D02*
X231016095Y-168317571D01*
X231016095Y-168317571D02*
X230920857Y-168365190D01*
X230920857Y-168365190D02*
X230539905Y-168365190D01*
X232063714Y-168841380D02*
X231492286Y-168841380D01*
X231778000Y-168841380D02*
X231778000Y-167841380D01*
X231778000Y-167841380D02*
X231682762Y-167984238D01*
X231682762Y-167984238D02*
X231587524Y-168079476D01*
X231587524Y-168079476D02*
X231492286Y-168127095D01*
X188662380Y-145541594D02*
X189471904Y-145541594D01*
X189471904Y-145541594D02*
X189567142Y-145493975D01*
X189567142Y-145493975D02*
X189614761Y-145446356D01*
X189614761Y-145446356D02*
X189662380Y-145351118D01*
X189662380Y-145351118D02*
X189662380Y-145160642D01*
X189662380Y-145160642D02*
X189614761Y-145065404D01*
X189614761Y-145065404D02*
X189567142Y-145017785D01*
X189567142Y-145017785D02*
X189471904Y-144970166D01*
X189471904Y-144970166D02*
X188662380Y-144970166D01*
X189662380Y-143970166D02*
X189662380Y-144541594D01*
X189662380Y-144255880D02*
X188662380Y-144255880D01*
X188662380Y-144255880D02*
X188805238Y-144351118D01*
X188805238Y-144351118D02*
X188900476Y-144446356D01*
X188900476Y-144446356D02*
X188948095Y-144541594D01*
X188662380Y-143351118D02*
X188662380Y-143255880D01*
X188662380Y-143255880D02*
X188710000Y-143160642D01*
X188710000Y-143160642D02*
X188757619Y-143113023D01*
X188757619Y-143113023D02*
X188852857Y-143065404D01*
X188852857Y-143065404D02*
X189043333Y-143017785D01*
X189043333Y-143017785D02*
X189281428Y-143017785D01*
X189281428Y-143017785D02*
X189471904Y-143065404D01*
X189471904Y-143065404D02*
X189567142Y-143113023D01*
X189567142Y-143113023D02*
X189614761Y-143160642D01*
X189614761Y-143160642D02*
X189662380Y-143255880D01*
X189662380Y-143255880D02*
X189662380Y-143351118D01*
X189662380Y-143351118D02*
X189614761Y-143446356D01*
X189614761Y-143446356D02*
X189567142Y-143493975D01*
X189567142Y-143493975D02*
X189471904Y-143541594D01*
X189471904Y-143541594D02*
X189281428Y-143589213D01*
X189281428Y-143589213D02*
X189043333Y-143589213D01*
X189043333Y-143589213D02*
X188852857Y-143541594D01*
X188852857Y-143541594D02*
X188757619Y-143493975D01*
X188757619Y-143493975D02*
X188710000Y-143446356D01*
X188710000Y-143446356D02*
X188662380Y-143351118D01*
X190906476Y-134526880D02*
X190906476Y-133526880D01*
X190906476Y-133526880D02*
X191239809Y-134241166D01*
X191239809Y-134241166D02*
X191573142Y-133526880D01*
X191573142Y-133526880D02*
X191573142Y-134526880D01*
X191954095Y-133526880D02*
X192573142Y-133526880D01*
X192573142Y-133526880D02*
X192239809Y-133907833D01*
X192239809Y-133907833D02*
X192382666Y-133907833D01*
X192382666Y-133907833D02*
X192477904Y-133955452D01*
X192477904Y-133955452D02*
X192525523Y-134003071D01*
X192525523Y-134003071D02*
X192573142Y-134098309D01*
X192573142Y-134098309D02*
X192573142Y-134336404D01*
X192573142Y-134336404D02*
X192525523Y-134431642D01*
X192525523Y-134431642D02*
X192477904Y-134479261D01*
X192477904Y-134479261D02*
X192382666Y-134526880D01*
X192382666Y-134526880D02*
X192096952Y-134526880D01*
X192096952Y-134526880D02*
X192001714Y-134479261D01*
X192001714Y-134479261D02*
X191954095Y-134431642D01*
X218857667Y-187553761D02*
X219000524Y-187601380D01*
X219000524Y-187601380D02*
X219238619Y-187601380D01*
X219238619Y-187601380D02*
X219333857Y-187553761D01*
X219333857Y-187553761D02*
X219381476Y-187506142D01*
X219381476Y-187506142D02*
X219429095Y-187410904D01*
X219429095Y-187410904D02*
X219429095Y-187315666D01*
X219429095Y-187315666D02*
X219381476Y-187220428D01*
X219381476Y-187220428D02*
X219333857Y-187172809D01*
X219333857Y-187172809D02*
X219238619Y-187125190D01*
X219238619Y-187125190D02*
X219048143Y-187077571D01*
X219048143Y-187077571D02*
X218952905Y-187029952D01*
X218952905Y-187029952D02*
X218905286Y-186982333D01*
X218905286Y-186982333D02*
X218857667Y-186887095D01*
X218857667Y-186887095D02*
X218857667Y-186791857D01*
X218857667Y-186791857D02*
X218905286Y-186696619D01*
X218905286Y-186696619D02*
X218952905Y-186649000D01*
X218952905Y-186649000D02*
X219048143Y-186601380D01*
X219048143Y-186601380D02*
X219286238Y-186601380D01*
X219286238Y-186601380D02*
X219429095Y-186649000D01*
X219762429Y-186601380D02*
X220000524Y-187601380D01*
X220000524Y-187601380D02*
X220191000Y-186887095D01*
X220191000Y-186887095D02*
X220381476Y-187601380D01*
X220381476Y-187601380D02*
X220619572Y-186601380D01*
X220952905Y-186696619D02*
X221000524Y-186649000D01*
X221000524Y-186649000D02*
X221095762Y-186601380D01*
X221095762Y-186601380D02*
X221333857Y-186601380D01*
X221333857Y-186601380D02*
X221429095Y-186649000D01*
X221429095Y-186649000D02*
X221476714Y-186696619D01*
X221476714Y-186696619D02*
X221524333Y-186791857D01*
X221524333Y-186791857D02*
X221524333Y-186887095D01*
X221524333Y-186887095D02*
X221476714Y-187029952D01*
X221476714Y-187029952D02*
X220905286Y-187601380D01*
X220905286Y-187601380D02*
X221524333Y-187601380D01*
X229359380Y-145613714D02*
X228883190Y-145947047D01*
X229359380Y-146185142D02*
X228359380Y-146185142D01*
X228359380Y-146185142D02*
X228359380Y-145804190D01*
X228359380Y-145804190D02*
X228407000Y-145708952D01*
X228407000Y-145708952D02*
X228454619Y-145661333D01*
X228454619Y-145661333D02*
X228549857Y-145613714D01*
X228549857Y-145613714D02*
X228692714Y-145613714D01*
X228692714Y-145613714D02*
X228787952Y-145661333D01*
X228787952Y-145661333D02*
X228835571Y-145708952D01*
X228835571Y-145708952D02*
X228883190Y-145804190D01*
X228883190Y-145804190D02*
X228883190Y-146185142D01*
X229311761Y-145232761D02*
X229359380Y-145137523D01*
X229359380Y-145137523D02*
X229359380Y-144947047D01*
X229359380Y-144947047D02*
X229311761Y-144851809D01*
X229311761Y-144851809D02*
X229216523Y-144804190D01*
X229216523Y-144804190D02*
X229168904Y-144804190D01*
X229168904Y-144804190D02*
X229073666Y-144851809D01*
X229073666Y-144851809D02*
X229026047Y-144947047D01*
X229026047Y-144947047D02*
X229026047Y-145089904D01*
X229026047Y-145089904D02*
X228978428Y-145185142D01*
X228978428Y-145185142D02*
X228883190Y-145232761D01*
X228883190Y-145232761D02*
X228835571Y-145232761D01*
X228835571Y-145232761D02*
X228740333Y-145185142D01*
X228740333Y-145185142D02*
X228692714Y-145089904D01*
X228692714Y-145089904D02*
X228692714Y-144947047D01*
X228692714Y-144947047D02*
X228740333Y-144851809D01*
X229311761Y-143994666D02*
X229359380Y-144089904D01*
X229359380Y-144089904D02*
X229359380Y-144280380D01*
X229359380Y-144280380D02*
X229311761Y-144375618D01*
X229311761Y-144375618D02*
X229216523Y-144423237D01*
X229216523Y-144423237D02*
X228835571Y-144423237D01*
X228835571Y-144423237D02*
X228740333Y-144375618D01*
X228740333Y-144375618D02*
X228692714Y-144280380D01*
X228692714Y-144280380D02*
X228692714Y-144089904D01*
X228692714Y-144089904D02*
X228740333Y-143994666D01*
X228740333Y-143994666D02*
X228835571Y-143947047D01*
X228835571Y-143947047D02*
X228930809Y-143947047D01*
X228930809Y-143947047D02*
X229026047Y-144423237D01*
X228692714Y-143518475D02*
X229359380Y-143518475D01*
X228787952Y-143518475D02*
X228740333Y-143470856D01*
X228740333Y-143470856D02*
X228692714Y-143375618D01*
X228692714Y-143375618D02*
X228692714Y-143232761D01*
X228692714Y-143232761D02*
X228740333Y-143137523D01*
X228740333Y-143137523D02*
X228835571Y-143089904D01*
X228835571Y-143089904D02*
X229359380Y-143089904D01*
X229311761Y-142661332D02*
X229359380Y-142566094D01*
X229359380Y-142566094D02*
X229359380Y-142375618D01*
X229359380Y-142375618D02*
X229311761Y-142280380D01*
X229311761Y-142280380D02*
X229216523Y-142232761D01*
X229216523Y-142232761D02*
X229168904Y-142232761D01*
X229168904Y-142232761D02*
X229073666Y-142280380D01*
X229073666Y-142280380D02*
X229026047Y-142375618D01*
X229026047Y-142375618D02*
X229026047Y-142518475D01*
X229026047Y-142518475D02*
X228978428Y-142613713D01*
X228978428Y-142613713D02*
X228883190Y-142661332D01*
X228883190Y-142661332D02*
X228835571Y-142661332D01*
X228835571Y-142661332D02*
X228740333Y-142613713D01*
X228740333Y-142613713D02*
X228692714Y-142518475D01*
X228692714Y-142518475D02*
X228692714Y-142375618D01*
X228692714Y-142375618D02*
X228740333Y-142280380D01*
X229311761Y-141423237D02*
X229359380Y-141518475D01*
X229359380Y-141518475D02*
X229359380Y-141708951D01*
X229359380Y-141708951D02*
X229311761Y-141804189D01*
X229311761Y-141804189D02*
X229216523Y-141851808D01*
X229216523Y-141851808D02*
X228835571Y-141851808D01*
X228835571Y-141851808D02*
X228740333Y-141804189D01*
X228740333Y-141804189D02*
X228692714Y-141708951D01*
X228692714Y-141708951D02*
X228692714Y-141518475D01*
X228692714Y-141518475D02*
X228740333Y-141423237D01*
X228740333Y-141423237D02*
X228835571Y-141375618D01*
X228835571Y-141375618D02*
X228930809Y-141375618D01*
X228930809Y-141375618D02*
X229026047Y-141851808D01*
X229359380Y-140423237D02*
X229359380Y-140994665D01*
X229359380Y-140708951D02*
X228359380Y-140708951D01*
X228359380Y-140708951D02*
X228502238Y-140804189D01*
X228502238Y-140804189D02*
X228597476Y-140899427D01*
X228597476Y-140899427D02*
X228645095Y-140994665D01*
X240207904Y-153093380D02*
X239874571Y-152617190D01*
X239636476Y-153093380D02*
X239636476Y-152093380D01*
X239636476Y-152093380D02*
X240017428Y-152093380D01*
X240017428Y-152093380D02*
X240112666Y-152141000D01*
X240112666Y-152141000D02*
X240160285Y-152188619D01*
X240160285Y-152188619D02*
X240207904Y-152283857D01*
X240207904Y-152283857D02*
X240207904Y-152426714D01*
X240207904Y-152426714D02*
X240160285Y-152521952D01*
X240160285Y-152521952D02*
X240112666Y-152569571D01*
X240112666Y-152569571D02*
X240017428Y-152617190D01*
X240017428Y-152617190D02*
X239636476Y-152617190D01*
X240398381Y-153188619D02*
X241160285Y-153188619D01*
X241398381Y-153093380D02*
X241398381Y-152093380D01*
X241398381Y-152474333D02*
X241493619Y-152426714D01*
X241493619Y-152426714D02*
X241684095Y-152426714D01*
X241684095Y-152426714D02*
X241779333Y-152474333D01*
X241779333Y-152474333D02*
X241826952Y-152521952D01*
X241826952Y-152521952D02*
X241874571Y-152617190D01*
X241874571Y-152617190D02*
X241874571Y-152902904D01*
X241874571Y-152902904D02*
X241826952Y-152998142D01*
X241826952Y-152998142D02*
X241779333Y-153045761D01*
X241779333Y-153045761D02*
X241684095Y-153093380D01*
X241684095Y-153093380D02*
X241493619Y-153093380D01*
X241493619Y-153093380D02*
X241398381Y-153045761D01*
X242731714Y-153093380D02*
X242731714Y-152569571D01*
X242731714Y-152569571D02*
X242684095Y-152474333D01*
X242684095Y-152474333D02*
X242588857Y-152426714D01*
X242588857Y-152426714D02*
X242398381Y-152426714D01*
X242398381Y-152426714D02*
X242303143Y-152474333D01*
X242731714Y-153045761D02*
X242636476Y-153093380D01*
X242636476Y-153093380D02*
X242398381Y-153093380D01*
X242398381Y-153093380D02*
X242303143Y-153045761D01*
X242303143Y-153045761D02*
X242255524Y-152950523D01*
X242255524Y-152950523D02*
X242255524Y-152855285D01*
X242255524Y-152855285D02*
X242303143Y-152760047D01*
X242303143Y-152760047D02*
X242398381Y-152712428D01*
X242398381Y-152712428D02*
X242636476Y-152712428D01*
X242636476Y-152712428D02*
X242731714Y-152664809D01*
X243065048Y-152426714D02*
X243446000Y-152426714D01*
X243207905Y-152093380D02*
X243207905Y-152950523D01*
X243207905Y-152950523D02*
X243255524Y-153045761D01*
X243255524Y-153045761D02*
X243350762Y-153093380D01*
X243350762Y-153093380D02*
X243446000Y-153093380D01*
X244303143Y-153093380D02*
X243731715Y-153093380D01*
X244017429Y-153093380D02*
X244017429Y-152093380D01*
X244017429Y-152093380D02*
X243922191Y-152236238D01*
X243922191Y-152236238D02*
X243826953Y-152331476D01*
X243826953Y-152331476D02*
X243731715Y-152379095D01*
X201306095Y-184097380D02*
X201306095Y-184906904D01*
X201306095Y-184906904D02*
X201353714Y-185002142D01*
X201353714Y-185002142D02*
X201401333Y-185049761D01*
X201401333Y-185049761D02*
X201496571Y-185097380D01*
X201496571Y-185097380D02*
X201687047Y-185097380D01*
X201687047Y-185097380D02*
X201782285Y-185049761D01*
X201782285Y-185049761D02*
X201829904Y-185002142D01*
X201829904Y-185002142D02*
X201877523Y-184906904D01*
X201877523Y-184906904D02*
X201877523Y-184097380D01*
X202877523Y-185097380D02*
X202306095Y-185097380D01*
X202591809Y-185097380D02*
X202591809Y-184097380D01*
X202591809Y-184097380D02*
X202496571Y-184240238D01*
X202496571Y-184240238D02*
X202401333Y-184335476D01*
X202401333Y-184335476D02*
X202306095Y-184383095D01*
X211702999Y-192987380D02*
X211702999Y-193225476D01*
X211464904Y-193130238D02*
X211702999Y-193225476D01*
X211702999Y-193225476D02*
X211941094Y-193130238D01*
X211560142Y-193415952D02*
X211702999Y-193225476D01*
X211702999Y-193225476D02*
X211845856Y-193415952D01*
X211702999Y-192987380D02*
X211702999Y-193225476D01*
X211464904Y-193130238D02*
X211702999Y-193225476D01*
X211702999Y-193225476D02*
X211941094Y-193130238D01*
X211560142Y-193415952D02*
X211702999Y-193225476D01*
X211702999Y-193225476D02*
X211845856Y-193415952D01*
X199983380Y-118689904D02*
X200792904Y-118689904D01*
X200792904Y-118689904D02*
X200888142Y-118642285D01*
X200888142Y-118642285D02*
X200935761Y-118594666D01*
X200935761Y-118594666D02*
X200983380Y-118499428D01*
X200983380Y-118499428D02*
X200983380Y-118308952D01*
X200983380Y-118308952D02*
X200935761Y-118213714D01*
X200935761Y-118213714D02*
X200888142Y-118166095D01*
X200888142Y-118166095D02*
X200792904Y-118118476D01*
X200792904Y-118118476D02*
X199983380Y-118118476D01*
X200078619Y-117689904D02*
X200031000Y-117642285D01*
X200031000Y-117642285D02*
X199983380Y-117547047D01*
X199983380Y-117547047D02*
X199983380Y-117308952D01*
X199983380Y-117308952D02*
X200031000Y-117213714D01*
X200031000Y-117213714D02*
X200078619Y-117166095D01*
X200078619Y-117166095D02*
X200173857Y-117118476D01*
X200173857Y-117118476D02*
X200269095Y-117118476D01*
X200269095Y-117118476D02*
X200411952Y-117166095D01*
X200411952Y-117166095D02*
X200983380Y-117737523D01*
X200983380Y-117737523D02*
X200983380Y-117118476D01*
X216170380Y-178047333D02*
X216884666Y-178047333D01*
X216884666Y-178047333D02*
X217027523Y-178094952D01*
X217027523Y-178094952D02*
X217122761Y-178190190D01*
X217122761Y-178190190D02*
X217170380Y-178333047D01*
X217170380Y-178333047D02*
X217170380Y-178428285D01*
X217170380Y-177047333D02*
X217170380Y-177618761D01*
X217170380Y-177333047D02*
X216170380Y-177333047D01*
X216170380Y-177333047D02*
X216313238Y-177428285D01*
X216313238Y-177428285D02*
X216408476Y-177523523D01*
X216408476Y-177523523D02*
X216456095Y-177618761D01*
X205316142Y-126579666D02*
X205363761Y-126627285D01*
X205363761Y-126627285D02*
X205411380Y-126770142D01*
X205411380Y-126770142D02*
X205411380Y-126865380D01*
X205411380Y-126865380D02*
X205363761Y-127008237D01*
X205363761Y-127008237D02*
X205268523Y-127103475D01*
X205268523Y-127103475D02*
X205173285Y-127151094D01*
X205173285Y-127151094D02*
X204982809Y-127198713D01*
X204982809Y-127198713D02*
X204839952Y-127198713D01*
X204839952Y-127198713D02*
X204649476Y-127151094D01*
X204649476Y-127151094D02*
X204554238Y-127103475D01*
X204554238Y-127103475D02*
X204459000Y-127008237D01*
X204459000Y-127008237D02*
X204411380Y-126865380D01*
X204411380Y-126865380D02*
X204411380Y-126770142D01*
X204411380Y-126770142D02*
X204459000Y-126627285D01*
X204459000Y-126627285D02*
X204506619Y-126579666D01*
X204411380Y-126246332D02*
X204411380Y-125627285D01*
X204411380Y-125627285D02*
X204792333Y-125960618D01*
X204792333Y-125960618D02*
X204792333Y-125817761D01*
X204792333Y-125817761D02*
X204839952Y-125722523D01*
X204839952Y-125722523D02*
X204887571Y-125674904D01*
X204887571Y-125674904D02*
X204982809Y-125627285D01*
X204982809Y-125627285D02*
X205220904Y-125627285D01*
X205220904Y-125627285D02*
X205316142Y-125674904D01*
X205316142Y-125674904D02*
X205363761Y-125722523D01*
X205363761Y-125722523D02*
X205411380Y-125817761D01*
X205411380Y-125817761D02*
X205411380Y-126103475D01*
X205411380Y-126103475D02*
X205363761Y-126198713D01*
X205363761Y-126198713D02*
X205316142Y-126246332D01*
X228317333Y-133535380D02*
X227984000Y-133059190D01*
X227745905Y-133535380D02*
X227745905Y-132535380D01*
X227745905Y-132535380D02*
X228126857Y-132535380D01*
X228126857Y-132535380D02*
X228222095Y-132583000D01*
X228222095Y-132583000D02*
X228269714Y-132630619D01*
X228269714Y-132630619D02*
X228317333Y-132725857D01*
X228317333Y-132725857D02*
X228317333Y-132868714D01*
X228317333Y-132868714D02*
X228269714Y-132963952D01*
X228269714Y-132963952D02*
X228222095Y-133011571D01*
X228222095Y-133011571D02*
X228126857Y-133059190D01*
X228126857Y-133059190D02*
X227745905Y-133059190D01*
X229174476Y-132535380D02*
X228984000Y-132535380D01*
X228984000Y-132535380D02*
X228888762Y-132583000D01*
X228888762Y-132583000D02*
X228841143Y-132630619D01*
X228841143Y-132630619D02*
X228745905Y-132773476D01*
X228745905Y-132773476D02*
X228698286Y-132963952D01*
X228698286Y-132963952D02*
X228698286Y-133344904D01*
X228698286Y-133344904D02*
X228745905Y-133440142D01*
X228745905Y-133440142D02*
X228793524Y-133487761D01*
X228793524Y-133487761D02*
X228888762Y-133535380D01*
X228888762Y-133535380D02*
X229079238Y-133535380D01*
X229079238Y-133535380D02*
X229174476Y-133487761D01*
X229174476Y-133487761D02*
X229222095Y-133440142D01*
X229222095Y-133440142D02*
X229269714Y-133344904D01*
X229269714Y-133344904D02*
X229269714Y-133106809D01*
X229269714Y-133106809D02*
X229222095Y-133011571D01*
X229222095Y-133011571D02*
X229174476Y-132963952D01*
X229174476Y-132963952D02*
X229079238Y-132916333D01*
X229079238Y-132916333D02*
X228888762Y-132916333D01*
X228888762Y-132916333D02*
X228793524Y-132963952D01*
X228793524Y-132963952D02*
X228745905Y-133011571D01*
X228745905Y-133011571D02*
X228698286Y-133106809D01*
X229010142Y-139652857D02*
X229057761Y-139700476D01*
X229057761Y-139700476D02*
X229105380Y-139843333D01*
X229105380Y-139843333D02*
X229105380Y-139938571D01*
X229105380Y-139938571D02*
X229057761Y-140081428D01*
X229057761Y-140081428D02*
X228962523Y-140176666D01*
X228962523Y-140176666D02*
X228867285Y-140224285D01*
X228867285Y-140224285D02*
X228676809Y-140271904D01*
X228676809Y-140271904D02*
X228533952Y-140271904D01*
X228533952Y-140271904D02*
X228343476Y-140224285D01*
X228343476Y-140224285D02*
X228248238Y-140176666D01*
X228248238Y-140176666D02*
X228153000Y-140081428D01*
X228153000Y-140081428D02*
X228105380Y-139938571D01*
X228105380Y-139938571D02*
X228105380Y-139843333D01*
X228105380Y-139843333D02*
X228153000Y-139700476D01*
X228153000Y-139700476D02*
X228200619Y-139652857D01*
X229105380Y-138700476D02*
X229105380Y-139271904D01*
X229105380Y-138986190D02*
X228105380Y-138986190D01*
X228105380Y-138986190D02*
X228248238Y-139081428D01*
X228248238Y-139081428D02*
X228343476Y-139176666D01*
X228343476Y-139176666D02*
X228391095Y-139271904D01*
X228200619Y-138319523D02*
X228153000Y-138271904D01*
X228153000Y-138271904D02*
X228105380Y-138176666D01*
X228105380Y-138176666D02*
X228105380Y-137938571D01*
X228105380Y-137938571D02*
X228153000Y-137843333D01*
X228153000Y-137843333D02*
X228200619Y-137795714D01*
X228200619Y-137795714D02*
X228295857Y-137748095D01*
X228295857Y-137748095D02*
X228391095Y-137748095D01*
X228391095Y-137748095D02*
X228533952Y-137795714D01*
X228533952Y-137795714D02*
X229105380Y-138367142D01*
X229105380Y-138367142D02*
X229105380Y-137748095D01*
X230026142Y-149812857D02*
X230073761Y-149860476D01*
X230073761Y-149860476D02*
X230121380Y-150003333D01*
X230121380Y-150003333D02*
X230121380Y-150098571D01*
X230121380Y-150098571D02*
X230073761Y-150241428D01*
X230073761Y-150241428D02*
X229978523Y-150336666D01*
X229978523Y-150336666D02*
X229883285Y-150384285D01*
X229883285Y-150384285D02*
X229692809Y-150431904D01*
X229692809Y-150431904D02*
X229549952Y-150431904D01*
X229549952Y-150431904D02*
X229359476Y-150384285D01*
X229359476Y-150384285D02*
X229264238Y-150336666D01*
X229264238Y-150336666D02*
X229169000Y-150241428D01*
X229169000Y-150241428D02*
X229121380Y-150098571D01*
X229121380Y-150098571D02*
X229121380Y-150003333D01*
X229121380Y-150003333D02*
X229169000Y-149860476D01*
X229169000Y-149860476D02*
X229216619Y-149812857D01*
X230121380Y-148860476D02*
X230121380Y-149431904D01*
X230121380Y-149146190D02*
X229121380Y-149146190D01*
X229121380Y-149146190D02*
X229264238Y-149241428D01*
X229264238Y-149241428D02*
X229359476Y-149336666D01*
X229359476Y-149336666D02*
X229407095Y-149431904D01*
X229121380Y-148241428D02*
X229121380Y-148146190D01*
X229121380Y-148146190D02*
X229169000Y-148050952D01*
X229169000Y-148050952D02*
X229216619Y-148003333D01*
X229216619Y-148003333D02*
X229311857Y-147955714D01*
X229311857Y-147955714D02*
X229502333Y-147908095D01*
X229502333Y-147908095D02*
X229740428Y-147908095D01*
X229740428Y-147908095D02*
X229930904Y-147955714D01*
X229930904Y-147955714D02*
X230026142Y-148003333D01*
X230026142Y-148003333D02*
X230073761Y-148050952D01*
X230073761Y-148050952D02*
X230121380Y-148146190D01*
X230121380Y-148146190D02*
X230121380Y-148241428D01*
X230121380Y-148241428D02*
X230073761Y-148336666D01*
X230073761Y-148336666D02*
X230026142Y-148384285D01*
X230026142Y-148384285D02*
X229930904Y-148431904D01*
X229930904Y-148431904D02*
X229740428Y-148479523D01*
X229740428Y-148479523D02*
X229502333Y-148479523D01*
X229502333Y-148479523D02*
X229311857Y-148431904D01*
X229311857Y-148431904D02*
X229216619Y-148384285D01*
X229216619Y-148384285D02*
X229169000Y-148336666D01*
X229169000Y-148336666D02*
X229121380Y-148241428D01*
X229587333Y-130487380D02*
X229254000Y-130011190D01*
X229015905Y-130487380D02*
X229015905Y-129487380D01*
X229015905Y-129487380D02*
X229396857Y-129487380D01*
X229396857Y-129487380D02*
X229492095Y-129535000D01*
X229492095Y-129535000D02*
X229539714Y-129582619D01*
X229539714Y-129582619D02*
X229587333Y-129677857D01*
X229587333Y-129677857D02*
X229587333Y-129820714D01*
X229587333Y-129820714D02*
X229539714Y-129915952D01*
X229539714Y-129915952D02*
X229492095Y-129963571D01*
X229492095Y-129963571D02*
X229396857Y-130011190D01*
X229396857Y-130011190D02*
X229015905Y-130011190D01*
X230492095Y-129487380D02*
X230015905Y-129487380D01*
X230015905Y-129487380D02*
X229968286Y-129963571D01*
X229968286Y-129963571D02*
X230015905Y-129915952D01*
X230015905Y-129915952D02*
X230111143Y-129868333D01*
X230111143Y-129868333D02*
X230349238Y-129868333D01*
X230349238Y-129868333D02*
X230444476Y-129915952D01*
X230444476Y-129915952D02*
X230492095Y-129963571D01*
X230492095Y-129963571D02*
X230539714Y-130058809D01*
X230539714Y-130058809D02*
X230539714Y-130296904D01*
X230539714Y-130296904D02*
X230492095Y-130392142D01*
X230492095Y-130392142D02*
X230444476Y-130439761D01*
X230444476Y-130439761D02*
X230349238Y-130487380D01*
X230349238Y-130487380D02*
X230111143Y-130487380D01*
X230111143Y-130487380D02*
X230015905Y-130439761D01*
X230015905Y-130439761D02*
X229968286Y-130392142D01*
X185322142Y-162004857D02*
X185369761Y-162052476D01*
X185369761Y-162052476D02*
X185417380Y-162195333D01*
X185417380Y-162195333D02*
X185417380Y-162290571D01*
X185417380Y-162290571D02*
X185369761Y-162433428D01*
X185369761Y-162433428D02*
X185274523Y-162528666D01*
X185274523Y-162528666D02*
X185179285Y-162576285D01*
X185179285Y-162576285D02*
X184988809Y-162623904D01*
X184988809Y-162623904D02*
X184845952Y-162623904D01*
X184845952Y-162623904D02*
X184655476Y-162576285D01*
X184655476Y-162576285D02*
X184560238Y-162528666D01*
X184560238Y-162528666D02*
X184465000Y-162433428D01*
X184465000Y-162433428D02*
X184417380Y-162290571D01*
X184417380Y-162290571D02*
X184417380Y-162195333D01*
X184417380Y-162195333D02*
X184465000Y-162052476D01*
X184465000Y-162052476D02*
X184512619Y-162004857D01*
X185417380Y-161052476D02*
X185417380Y-161623904D01*
X185417380Y-161338190D02*
X184417380Y-161338190D01*
X184417380Y-161338190D02*
X184560238Y-161433428D01*
X184560238Y-161433428D02*
X184655476Y-161528666D01*
X184655476Y-161528666D02*
X184703095Y-161623904D01*
X184750714Y-160195333D02*
X185417380Y-160195333D01*
X184369761Y-160433428D02*
X185084047Y-160671523D01*
X185084047Y-160671523D02*
X185084047Y-160052476D01*
X218768667Y-194313395D02*
X218911524Y-194361014D01*
X218911524Y-194361014D02*
X219149619Y-194361014D01*
X219149619Y-194361014D02*
X219244857Y-194313395D01*
X219244857Y-194313395D02*
X219292476Y-194265776D01*
X219292476Y-194265776D02*
X219340095Y-194170538D01*
X219340095Y-194170538D02*
X219340095Y-194075300D01*
X219340095Y-194075300D02*
X219292476Y-193980062D01*
X219292476Y-193980062D02*
X219244857Y-193932443D01*
X219244857Y-193932443D02*
X219149619Y-193884824D01*
X219149619Y-193884824D02*
X218959143Y-193837205D01*
X218959143Y-193837205D02*
X218863905Y-193789586D01*
X218863905Y-193789586D02*
X218816286Y-193741967D01*
X218816286Y-193741967D02*
X218768667Y-193646729D01*
X218768667Y-193646729D02*
X218768667Y-193551491D01*
X218768667Y-193551491D02*
X218816286Y-193456253D01*
X218816286Y-193456253D02*
X218863905Y-193408634D01*
X218863905Y-193408634D02*
X218959143Y-193361014D01*
X218959143Y-193361014D02*
X219197238Y-193361014D01*
X219197238Y-193361014D02*
X219340095Y-193408634D01*
X219673429Y-193361014D02*
X219911524Y-194361014D01*
X219911524Y-194361014D02*
X220102000Y-193646729D01*
X220102000Y-193646729D02*
X220292476Y-194361014D01*
X220292476Y-194361014D02*
X220530572Y-193361014D01*
X221435333Y-194361014D02*
X220863905Y-194361014D01*
X221149619Y-194361014D02*
X221149619Y-193361014D01*
X221149619Y-193361014D02*
X221054381Y-193503872D01*
X221054381Y-193503872D02*
X220959143Y-193599110D01*
X220959143Y-193599110D02*
X220863905Y-193646729D01*
X219639571Y-123539714D02*
X219687190Y-123396857D01*
X219687190Y-123396857D02*
X219734809Y-123349238D01*
X219734809Y-123349238D02*
X219830047Y-123301619D01*
X219830047Y-123301619D02*
X219972904Y-123301619D01*
X219972904Y-123301619D02*
X220068142Y-123349238D01*
X220068142Y-123349238D02*
X220115761Y-123396857D01*
X220115761Y-123396857D02*
X220163380Y-123492095D01*
X220163380Y-123492095D02*
X220163380Y-123873047D01*
X220163380Y-123873047D02*
X219163380Y-123873047D01*
X219163380Y-123873047D02*
X219163380Y-123539714D01*
X219163380Y-123539714D02*
X219211000Y-123444476D01*
X219211000Y-123444476D02*
X219258619Y-123396857D01*
X219258619Y-123396857D02*
X219353857Y-123349238D01*
X219353857Y-123349238D02*
X219449095Y-123349238D01*
X219449095Y-123349238D02*
X219544333Y-123396857D01*
X219544333Y-123396857D02*
X219591952Y-123444476D01*
X219591952Y-123444476D02*
X219639571Y-123539714D01*
X219639571Y-123539714D02*
X219639571Y-123873047D01*
X219163380Y-123015904D02*
X219163380Y-122444476D01*
X220163380Y-122730190D02*
X219163380Y-122730190D01*
X220163380Y-121587333D02*
X220163380Y-122158761D01*
X220163380Y-121873047D02*
X219163380Y-121873047D01*
X219163380Y-121873047D02*
X219306238Y-121968285D01*
X219306238Y-121968285D02*
X219401476Y-122063523D01*
X219401476Y-122063523D02*
X219449095Y-122158761D01*
X218485979Y-145065404D02*
X219295503Y-145065404D01*
X219295503Y-145065404D02*
X219390741Y-145017785D01*
X219390741Y-145017785D02*
X219438360Y-144970166D01*
X219438360Y-144970166D02*
X219485979Y-144874928D01*
X219485979Y-144874928D02*
X219485979Y-144684452D01*
X219485979Y-144684452D02*
X219438360Y-144589214D01*
X219438360Y-144589214D02*
X219390741Y-144541595D01*
X219390741Y-144541595D02*
X219295503Y-144493976D01*
X219295503Y-144493976D02*
X218485979Y-144493976D01*
X218485979Y-143541595D02*
X218485979Y-144017785D01*
X218485979Y-144017785D02*
X218962170Y-144065404D01*
X218962170Y-144065404D02*
X218914551Y-144017785D01*
X218914551Y-144017785D02*
X218866932Y-143922547D01*
X218866932Y-143922547D02*
X218866932Y-143684452D01*
X218866932Y-143684452D02*
X218914551Y-143589214D01*
X218914551Y-143589214D02*
X218962170Y-143541595D01*
X218962170Y-143541595D02*
X219057408Y-143493976D01*
X219057408Y-143493976D02*
X219295503Y-143493976D01*
X219295503Y-143493976D02*
X219390741Y-143541595D01*
X219390741Y-143541595D02*
X219438360Y-143589214D01*
X219438360Y-143589214D02*
X219485979Y-143684452D01*
X219485979Y-143684452D02*
X219485979Y-143922547D01*
X219485979Y-143922547D02*
X219438360Y-144017785D01*
X219438360Y-144017785D02*
X219390741Y-144065404D01*
X214713142Y-127399666D02*
X214760761Y-127447285D01*
X214760761Y-127447285D02*
X214808380Y-127590142D01*
X214808380Y-127590142D02*
X214808380Y-127685380D01*
X214808380Y-127685380D02*
X214760761Y-127828237D01*
X214760761Y-127828237D02*
X214665523Y-127923475D01*
X214665523Y-127923475D02*
X214570285Y-127971094D01*
X214570285Y-127971094D02*
X214379809Y-128018713D01*
X214379809Y-128018713D02*
X214236952Y-128018713D01*
X214236952Y-128018713D02*
X214046476Y-127971094D01*
X214046476Y-127971094D02*
X213951238Y-127923475D01*
X213951238Y-127923475D02*
X213856000Y-127828237D01*
X213856000Y-127828237D02*
X213808380Y-127685380D01*
X213808380Y-127685380D02*
X213808380Y-127590142D01*
X213808380Y-127590142D02*
X213856000Y-127447285D01*
X213856000Y-127447285D02*
X213903619Y-127399666D01*
X213808380Y-126542523D02*
X213808380Y-126732999D01*
X213808380Y-126732999D02*
X213856000Y-126828237D01*
X213856000Y-126828237D02*
X213903619Y-126875856D01*
X213903619Y-126875856D02*
X214046476Y-126971094D01*
X214046476Y-126971094D02*
X214236952Y-127018713D01*
X214236952Y-127018713D02*
X214617904Y-127018713D01*
X214617904Y-127018713D02*
X214713142Y-126971094D01*
X214713142Y-126971094D02*
X214760761Y-126923475D01*
X214760761Y-126923475D02*
X214808380Y-126828237D01*
X214808380Y-126828237D02*
X214808380Y-126637761D01*
X214808380Y-126637761D02*
X214760761Y-126542523D01*
X214760761Y-126542523D02*
X214713142Y-126494904D01*
X214713142Y-126494904D02*
X214617904Y-126447285D01*
X214617904Y-126447285D02*
X214379809Y-126447285D01*
X214379809Y-126447285D02*
X214284571Y-126494904D01*
X214284571Y-126494904D02*
X214236952Y-126542523D01*
X214236952Y-126542523D02*
X214189333Y-126637761D01*
X214189333Y-126637761D02*
X214189333Y-126828237D01*
X214189333Y-126828237D02*
X214236952Y-126923475D01*
X214236952Y-126923475D02*
X214284571Y-126971094D01*
X214284571Y-126971094D02*
X214379809Y-127018713D01*
X188551666Y-179564380D02*
X188551666Y-180278666D01*
X188551666Y-180278666D02*
X188504047Y-180421523D01*
X188504047Y-180421523D02*
X188408809Y-180516761D01*
X188408809Y-180516761D02*
X188265952Y-180564380D01*
X188265952Y-180564380D02*
X188170714Y-180564380D01*
X188932619Y-179564380D02*
X189551666Y-179564380D01*
X189551666Y-179564380D02*
X189218333Y-179945333D01*
X189218333Y-179945333D02*
X189361190Y-179945333D01*
X189361190Y-179945333D02*
X189456428Y-179992952D01*
X189456428Y-179992952D02*
X189504047Y-180040571D01*
X189504047Y-180040571D02*
X189551666Y-180135809D01*
X189551666Y-180135809D02*
X189551666Y-180373904D01*
X189551666Y-180373904D02*
X189504047Y-180469142D01*
X189504047Y-180469142D02*
X189456428Y-180516761D01*
X189456428Y-180516761D02*
X189361190Y-180564380D01*
X189361190Y-180564380D02*
X189075476Y-180564380D01*
X189075476Y-180564380D02*
X188980238Y-180516761D01*
X188980238Y-180516761D02*
X188932619Y-180469142D01*
X209510285Y-152843380D02*
X209176952Y-152367190D01*
X208938857Y-152843380D02*
X208938857Y-151843380D01*
X208938857Y-151843380D02*
X209319809Y-151843380D01*
X209319809Y-151843380D02*
X209415047Y-151891000D01*
X209415047Y-151891000D02*
X209462666Y-151938619D01*
X209462666Y-151938619D02*
X209510285Y-152033857D01*
X209510285Y-152033857D02*
X209510285Y-152176714D01*
X209510285Y-152176714D02*
X209462666Y-152271952D01*
X209462666Y-152271952D02*
X209415047Y-152319571D01*
X209415047Y-152319571D02*
X209319809Y-152367190D01*
X209319809Y-152367190D02*
X208938857Y-152367190D01*
X209891238Y-152795761D02*
X209986476Y-152843380D01*
X209986476Y-152843380D02*
X210176952Y-152843380D01*
X210176952Y-152843380D02*
X210272190Y-152795761D01*
X210272190Y-152795761D02*
X210319809Y-152700523D01*
X210319809Y-152700523D02*
X210319809Y-152652904D01*
X210319809Y-152652904D02*
X210272190Y-152557666D01*
X210272190Y-152557666D02*
X210176952Y-152510047D01*
X210176952Y-152510047D02*
X210034095Y-152510047D01*
X210034095Y-152510047D02*
X209938857Y-152462428D01*
X209938857Y-152462428D02*
X209891238Y-152367190D01*
X209891238Y-152367190D02*
X209891238Y-152319571D01*
X209891238Y-152319571D02*
X209938857Y-152224333D01*
X209938857Y-152224333D02*
X210034095Y-152176714D01*
X210034095Y-152176714D02*
X210176952Y-152176714D01*
X210176952Y-152176714D02*
X210272190Y-152224333D01*
X211129333Y-152795761D02*
X211034095Y-152843380D01*
X211034095Y-152843380D02*
X210843619Y-152843380D01*
X210843619Y-152843380D02*
X210748381Y-152795761D01*
X210748381Y-152795761D02*
X210700762Y-152700523D01*
X210700762Y-152700523D02*
X210700762Y-152319571D01*
X210700762Y-152319571D02*
X210748381Y-152224333D01*
X210748381Y-152224333D02*
X210843619Y-152176714D01*
X210843619Y-152176714D02*
X211034095Y-152176714D01*
X211034095Y-152176714D02*
X211129333Y-152224333D01*
X211129333Y-152224333D02*
X211176952Y-152319571D01*
X211176952Y-152319571D02*
X211176952Y-152414809D01*
X211176952Y-152414809D02*
X210700762Y-152510047D01*
X211605524Y-152176714D02*
X211605524Y-152843380D01*
X211605524Y-152271952D02*
X211653143Y-152224333D01*
X211653143Y-152224333D02*
X211748381Y-152176714D01*
X211748381Y-152176714D02*
X211891238Y-152176714D01*
X211891238Y-152176714D02*
X211986476Y-152224333D01*
X211986476Y-152224333D02*
X212034095Y-152319571D01*
X212034095Y-152319571D02*
X212034095Y-152843380D01*
X212462667Y-152795761D02*
X212557905Y-152843380D01*
X212557905Y-152843380D02*
X212748381Y-152843380D01*
X212748381Y-152843380D02*
X212843619Y-152795761D01*
X212843619Y-152795761D02*
X212891238Y-152700523D01*
X212891238Y-152700523D02*
X212891238Y-152652904D01*
X212891238Y-152652904D02*
X212843619Y-152557666D01*
X212843619Y-152557666D02*
X212748381Y-152510047D01*
X212748381Y-152510047D02*
X212605524Y-152510047D01*
X212605524Y-152510047D02*
X212510286Y-152462428D01*
X212510286Y-152462428D02*
X212462667Y-152367190D01*
X212462667Y-152367190D02*
X212462667Y-152319571D01*
X212462667Y-152319571D02*
X212510286Y-152224333D01*
X212510286Y-152224333D02*
X212605524Y-152176714D01*
X212605524Y-152176714D02*
X212748381Y-152176714D01*
X212748381Y-152176714D02*
X212843619Y-152224333D01*
X213700762Y-152795761D02*
X213605524Y-152843380D01*
X213605524Y-152843380D02*
X213415048Y-152843380D01*
X213415048Y-152843380D02*
X213319810Y-152795761D01*
X213319810Y-152795761D02*
X213272191Y-152700523D01*
X213272191Y-152700523D02*
X213272191Y-152319571D01*
X213272191Y-152319571D02*
X213319810Y-152224333D01*
X213319810Y-152224333D02*
X213415048Y-152176714D01*
X213415048Y-152176714D02*
X213605524Y-152176714D01*
X213605524Y-152176714D02*
X213700762Y-152224333D01*
X213700762Y-152224333D02*
X213748381Y-152319571D01*
X213748381Y-152319571D02*
X213748381Y-152414809D01*
X213748381Y-152414809D02*
X213272191Y-152510047D01*
X214129334Y-151938619D02*
X214176953Y-151891000D01*
X214176953Y-151891000D02*
X214272191Y-151843380D01*
X214272191Y-151843380D02*
X214510286Y-151843380D01*
X214510286Y-151843380D02*
X214605524Y-151891000D01*
X214605524Y-151891000D02*
X214653143Y-151938619D01*
X214653143Y-151938619D02*
X214700762Y-152033857D01*
X214700762Y-152033857D02*
X214700762Y-152129095D01*
X214700762Y-152129095D02*
X214653143Y-152271952D01*
X214653143Y-152271952D02*
X214081715Y-152843380D01*
X214081715Y-152843380D02*
X214700762Y-152843380D01*
X199675380Y-145946698D02*
X199199190Y-146280031D01*
X199675380Y-146518126D02*
X198675380Y-146518126D01*
X198675380Y-146518126D02*
X198675380Y-146137174D01*
X198675380Y-146137174D02*
X198723000Y-146041936D01*
X198723000Y-146041936D02*
X198770619Y-145994317D01*
X198770619Y-145994317D02*
X198865857Y-145946698D01*
X198865857Y-145946698D02*
X199008714Y-145946698D01*
X199008714Y-145946698D02*
X199103952Y-145994317D01*
X199103952Y-145994317D02*
X199151571Y-146041936D01*
X199151571Y-146041936D02*
X199199190Y-146137174D01*
X199199190Y-146137174D02*
X199199190Y-146518126D01*
X199627761Y-145565745D02*
X199675380Y-145470507D01*
X199675380Y-145470507D02*
X199675380Y-145280031D01*
X199675380Y-145280031D02*
X199627761Y-145184793D01*
X199627761Y-145184793D02*
X199532523Y-145137174D01*
X199532523Y-145137174D02*
X199484904Y-145137174D01*
X199484904Y-145137174D02*
X199389666Y-145184793D01*
X199389666Y-145184793D02*
X199342047Y-145280031D01*
X199342047Y-145280031D02*
X199342047Y-145422888D01*
X199342047Y-145422888D02*
X199294428Y-145518126D01*
X199294428Y-145518126D02*
X199199190Y-145565745D01*
X199199190Y-145565745D02*
X199151571Y-145565745D01*
X199151571Y-145565745D02*
X199056333Y-145518126D01*
X199056333Y-145518126D02*
X199008714Y-145422888D01*
X199008714Y-145422888D02*
X199008714Y-145280031D01*
X199008714Y-145280031D02*
X199056333Y-145184793D01*
X199627761Y-144327650D02*
X199675380Y-144422888D01*
X199675380Y-144422888D02*
X199675380Y-144613364D01*
X199675380Y-144613364D02*
X199627761Y-144708602D01*
X199627761Y-144708602D02*
X199532523Y-144756221D01*
X199532523Y-144756221D02*
X199151571Y-144756221D01*
X199151571Y-144756221D02*
X199056333Y-144708602D01*
X199056333Y-144708602D02*
X199008714Y-144613364D01*
X199008714Y-144613364D02*
X199008714Y-144422888D01*
X199008714Y-144422888D02*
X199056333Y-144327650D01*
X199056333Y-144327650D02*
X199151571Y-144280031D01*
X199151571Y-144280031D02*
X199246809Y-144280031D01*
X199246809Y-144280031D02*
X199342047Y-144756221D01*
X199008714Y-143851459D02*
X199675380Y-143851459D01*
X199103952Y-143851459D02*
X199056333Y-143803840D01*
X199056333Y-143803840D02*
X199008714Y-143708602D01*
X199008714Y-143708602D02*
X199008714Y-143565745D01*
X199008714Y-143565745D02*
X199056333Y-143470507D01*
X199056333Y-143470507D02*
X199151571Y-143422888D01*
X199151571Y-143422888D02*
X199675380Y-143422888D01*
X199627761Y-142994316D02*
X199675380Y-142899078D01*
X199675380Y-142899078D02*
X199675380Y-142708602D01*
X199675380Y-142708602D02*
X199627761Y-142613364D01*
X199627761Y-142613364D02*
X199532523Y-142565745D01*
X199532523Y-142565745D02*
X199484904Y-142565745D01*
X199484904Y-142565745D02*
X199389666Y-142613364D01*
X199389666Y-142613364D02*
X199342047Y-142708602D01*
X199342047Y-142708602D02*
X199342047Y-142851459D01*
X199342047Y-142851459D02*
X199294428Y-142946697D01*
X199294428Y-142946697D02*
X199199190Y-142994316D01*
X199199190Y-142994316D02*
X199151571Y-142994316D01*
X199151571Y-142994316D02*
X199056333Y-142946697D01*
X199056333Y-142946697D02*
X199008714Y-142851459D01*
X199008714Y-142851459D02*
X199008714Y-142708602D01*
X199008714Y-142708602D02*
X199056333Y-142613364D01*
X199627761Y-141756221D02*
X199675380Y-141851459D01*
X199675380Y-141851459D02*
X199675380Y-142041935D01*
X199675380Y-142041935D02*
X199627761Y-142137173D01*
X199627761Y-142137173D02*
X199532523Y-142184792D01*
X199532523Y-142184792D02*
X199151571Y-142184792D01*
X199151571Y-142184792D02*
X199056333Y-142137173D01*
X199056333Y-142137173D02*
X199008714Y-142041935D01*
X199008714Y-142041935D02*
X199008714Y-141851459D01*
X199008714Y-141851459D02*
X199056333Y-141756221D01*
X199056333Y-141756221D02*
X199151571Y-141708602D01*
X199151571Y-141708602D02*
X199246809Y-141708602D01*
X199246809Y-141708602D02*
X199342047Y-142184792D01*
X198675380Y-141375268D02*
X198675380Y-140756221D01*
X198675380Y-140756221D02*
X199056333Y-141089554D01*
X199056333Y-141089554D02*
X199056333Y-140946697D01*
X199056333Y-140946697D02*
X199103952Y-140851459D01*
X199103952Y-140851459D02*
X199151571Y-140803840D01*
X199151571Y-140803840D02*
X199246809Y-140756221D01*
X199246809Y-140756221D02*
X199484904Y-140756221D01*
X199484904Y-140756221D02*
X199580142Y-140803840D01*
X199580142Y-140803840D02*
X199627761Y-140851459D01*
X199627761Y-140851459D02*
X199675380Y-140946697D01*
X199675380Y-140946697D02*
X199675380Y-141232411D01*
X199675380Y-141232411D02*
X199627761Y-141327649D01*
X199627761Y-141327649D02*
X199580142Y-141375268D01*
X199858285Y-149203380D02*
X199524952Y-148727190D01*
X199286857Y-149203380D02*
X199286857Y-148203380D01*
X199286857Y-148203380D02*
X199667809Y-148203380D01*
X199667809Y-148203380D02*
X199763047Y-148251000D01*
X199763047Y-148251000D02*
X199810666Y-148298619D01*
X199810666Y-148298619D02*
X199858285Y-148393857D01*
X199858285Y-148393857D02*
X199858285Y-148536714D01*
X199858285Y-148536714D02*
X199810666Y-148631952D01*
X199810666Y-148631952D02*
X199763047Y-148679571D01*
X199763047Y-148679571D02*
X199667809Y-148727190D01*
X199667809Y-148727190D02*
X199286857Y-148727190D01*
X200239238Y-149155761D02*
X200334476Y-149203380D01*
X200334476Y-149203380D02*
X200524952Y-149203380D01*
X200524952Y-149203380D02*
X200620190Y-149155761D01*
X200620190Y-149155761D02*
X200667809Y-149060523D01*
X200667809Y-149060523D02*
X200667809Y-149012904D01*
X200667809Y-149012904D02*
X200620190Y-148917666D01*
X200620190Y-148917666D02*
X200524952Y-148870047D01*
X200524952Y-148870047D02*
X200382095Y-148870047D01*
X200382095Y-148870047D02*
X200286857Y-148822428D01*
X200286857Y-148822428D02*
X200239238Y-148727190D01*
X200239238Y-148727190D02*
X200239238Y-148679571D01*
X200239238Y-148679571D02*
X200286857Y-148584333D01*
X200286857Y-148584333D02*
X200382095Y-148536714D01*
X200382095Y-148536714D02*
X200524952Y-148536714D01*
X200524952Y-148536714D02*
X200620190Y-148584333D01*
X201477333Y-149155761D02*
X201382095Y-149203380D01*
X201382095Y-149203380D02*
X201191619Y-149203380D01*
X201191619Y-149203380D02*
X201096381Y-149155761D01*
X201096381Y-149155761D02*
X201048762Y-149060523D01*
X201048762Y-149060523D02*
X201048762Y-148679571D01*
X201048762Y-148679571D02*
X201096381Y-148584333D01*
X201096381Y-148584333D02*
X201191619Y-148536714D01*
X201191619Y-148536714D02*
X201382095Y-148536714D01*
X201382095Y-148536714D02*
X201477333Y-148584333D01*
X201477333Y-148584333D02*
X201524952Y-148679571D01*
X201524952Y-148679571D02*
X201524952Y-148774809D01*
X201524952Y-148774809D02*
X201048762Y-148870047D01*
X201953524Y-148536714D02*
X201953524Y-149203380D01*
X201953524Y-148631952D02*
X202001143Y-148584333D01*
X202001143Y-148584333D02*
X202096381Y-148536714D01*
X202096381Y-148536714D02*
X202239238Y-148536714D01*
X202239238Y-148536714D02*
X202334476Y-148584333D01*
X202334476Y-148584333D02*
X202382095Y-148679571D01*
X202382095Y-148679571D02*
X202382095Y-149203380D01*
X202810667Y-149155761D02*
X202905905Y-149203380D01*
X202905905Y-149203380D02*
X203096381Y-149203380D01*
X203096381Y-149203380D02*
X203191619Y-149155761D01*
X203191619Y-149155761D02*
X203239238Y-149060523D01*
X203239238Y-149060523D02*
X203239238Y-149012904D01*
X203239238Y-149012904D02*
X203191619Y-148917666D01*
X203191619Y-148917666D02*
X203096381Y-148870047D01*
X203096381Y-148870047D02*
X202953524Y-148870047D01*
X202953524Y-148870047D02*
X202858286Y-148822428D01*
X202858286Y-148822428D02*
X202810667Y-148727190D01*
X202810667Y-148727190D02*
X202810667Y-148679571D01*
X202810667Y-148679571D02*
X202858286Y-148584333D01*
X202858286Y-148584333D02*
X202953524Y-148536714D01*
X202953524Y-148536714D02*
X203096381Y-148536714D01*
X203096381Y-148536714D02*
X203191619Y-148584333D01*
X204048762Y-149155761D02*
X203953524Y-149203380D01*
X203953524Y-149203380D02*
X203763048Y-149203380D01*
X203763048Y-149203380D02*
X203667810Y-149155761D01*
X203667810Y-149155761D02*
X203620191Y-149060523D01*
X203620191Y-149060523D02*
X203620191Y-148679571D01*
X203620191Y-148679571D02*
X203667810Y-148584333D01*
X203667810Y-148584333D02*
X203763048Y-148536714D01*
X203763048Y-148536714D02*
X203953524Y-148536714D01*
X203953524Y-148536714D02*
X204048762Y-148584333D01*
X204048762Y-148584333D02*
X204096381Y-148679571D01*
X204096381Y-148679571D02*
X204096381Y-148774809D01*
X204096381Y-148774809D02*
X203620191Y-148870047D01*
X204953524Y-148536714D02*
X204953524Y-149203380D01*
X204715429Y-148155761D02*
X204477334Y-148870047D01*
X204477334Y-148870047D02*
X205096381Y-148870047D01*
X230026142Y-162258857D02*
X230073761Y-162306476D01*
X230073761Y-162306476D02*
X230121380Y-162449333D01*
X230121380Y-162449333D02*
X230121380Y-162544571D01*
X230121380Y-162544571D02*
X230073761Y-162687428D01*
X230073761Y-162687428D02*
X229978523Y-162782666D01*
X229978523Y-162782666D02*
X229883285Y-162830285D01*
X229883285Y-162830285D02*
X229692809Y-162877904D01*
X229692809Y-162877904D02*
X229549952Y-162877904D01*
X229549952Y-162877904D02*
X229359476Y-162830285D01*
X229359476Y-162830285D02*
X229264238Y-162782666D01*
X229264238Y-162782666D02*
X229169000Y-162687428D01*
X229169000Y-162687428D02*
X229121380Y-162544571D01*
X229121380Y-162544571D02*
X229121380Y-162449333D01*
X229121380Y-162449333D02*
X229169000Y-162306476D01*
X229169000Y-162306476D02*
X229216619Y-162258857D01*
X230121380Y-161306476D02*
X230121380Y-161877904D01*
X230121380Y-161592190D02*
X229121380Y-161592190D01*
X229121380Y-161592190D02*
X229264238Y-161687428D01*
X229264238Y-161687428D02*
X229359476Y-161782666D01*
X229359476Y-161782666D02*
X229407095Y-161877904D01*
X230121380Y-160354095D02*
X230121380Y-160925523D01*
X230121380Y-160639809D02*
X229121380Y-160639809D01*
X229121380Y-160639809D02*
X229264238Y-160735047D01*
X229264238Y-160735047D02*
X229359476Y-160830285D01*
X229359476Y-160830285D02*
X229407095Y-160925523D01*
X243509904Y-160967380D02*
X243176571Y-160491190D01*
X242938476Y-160967380D02*
X242938476Y-159967380D01*
X242938476Y-159967380D02*
X243319428Y-159967380D01*
X243319428Y-159967380D02*
X243414666Y-160015000D01*
X243414666Y-160015000D02*
X243462285Y-160062619D01*
X243462285Y-160062619D02*
X243509904Y-160157857D01*
X243509904Y-160157857D02*
X243509904Y-160300714D01*
X243509904Y-160300714D02*
X243462285Y-160395952D01*
X243462285Y-160395952D02*
X243414666Y-160443571D01*
X243414666Y-160443571D02*
X243319428Y-160491190D01*
X243319428Y-160491190D02*
X242938476Y-160491190D01*
X243700381Y-161062619D02*
X244462285Y-161062619D01*
X244700381Y-160967380D02*
X244700381Y-159967380D01*
X244700381Y-160348333D02*
X244795619Y-160300714D01*
X244795619Y-160300714D02*
X244986095Y-160300714D01*
X244986095Y-160300714D02*
X245081333Y-160348333D01*
X245081333Y-160348333D02*
X245128952Y-160395952D01*
X245128952Y-160395952D02*
X245176571Y-160491190D01*
X245176571Y-160491190D02*
X245176571Y-160776904D01*
X245176571Y-160776904D02*
X245128952Y-160872142D01*
X245128952Y-160872142D02*
X245081333Y-160919761D01*
X245081333Y-160919761D02*
X244986095Y-160967380D01*
X244986095Y-160967380D02*
X244795619Y-160967380D01*
X244795619Y-160967380D02*
X244700381Y-160919761D01*
X246033714Y-160967380D02*
X246033714Y-160443571D01*
X246033714Y-160443571D02*
X245986095Y-160348333D01*
X245986095Y-160348333D02*
X245890857Y-160300714D01*
X245890857Y-160300714D02*
X245700381Y-160300714D01*
X245700381Y-160300714D02*
X245605143Y-160348333D01*
X246033714Y-160919761D02*
X245938476Y-160967380D01*
X245938476Y-160967380D02*
X245700381Y-160967380D01*
X245700381Y-160967380D02*
X245605143Y-160919761D01*
X245605143Y-160919761D02*
X245557524Y-160824523D01*
X245557524Y-160824523D02*
X245557524Y-160729285D01*
X245557524Y-160729285D02*
X245605143Y-160634047D01*
X245605143Y-160634047D02*
X245700381Y-160586428D01*
X245700381Y-160586428D02*
X245938476Y-160586428D01*
X245938476Y-160586428D02*
X246033714Y-160538809D01*
X246367048Y-160300714D02*
X246748000Y-160300714D01*
X246509905Y-159967380D02*
X246509905Y-160824523D01*
X246509905Y-160824523D02*
X246557524Y-160919761D01*
X246557524Y-160919761D02*
X246652762Y-160967380D01*
X246652762Y-160967380D02*
X246748000Y-160967380D01*
X247033715Y-160062619D02*
X247081334Y-160015000D01*
X247081334Y-160015000D02*
X247176572Y-159967380D01*
X247176572Y-159967380D02*
X247414667Y-159967380D01*
X247414667Y-159967380D02*
X247509905Y-160015000D01*
X247509905Y-160015000D02*
X247557524Y-160062619D01*
X247557524Y-160062619D02*
X247605143Y-160157857D01*
X247605143Y-160157857D02*
X247605143Y-160253095D01*
X247605143Y-160253095D02*
X247557524Y-160395952D01*
X247557524Y-160395952D02*
X246986096Y-160967380D01*
X246986096Y-160967380D02*
X247605143Y-160967380D01*
X202014142Y-126579666D02*
X202061761Y-126627285D01*
X202061761Y-126627285D02*
X202109380Y-126770142D01*
X202109380Y-126770142D02*
X202109380Y-126865380D01*
X202109380Y-126865380D02*
X202061761Y-127008237D01*
X202061761Y-127008237D02*
X201966523Y-127103475D01*
X201966523Y-127103475D02*
X201871285Y-127151094D01*
X201871285Y-127151094D02*
X201680809Y-127198713D01*
X201680809Y-127198713D02*
X201537952Y-127198713D01*
X201537952Y-127198713D02*
X201347476Y-127151094D01*
X201347476Y-127151094D02*
X201252238Y-127103475D01*
X201252238Y-127103475D02*
X201157000Y-127008237D01*
X201157000Y-127008237D02*
X201109380Y-126865380D01*
X201109380Y-126865380D02*
X201109380Y-126770142D01*
X201109380Y-126770142D02*
X201157000Y-126627285D01*
X201157000Y-126627285D02*
X201204619Y-126579666D01*
X201204619Y-126198713D02*
X201157000Y-126151094D01*
X201157000Y-126151094D02*
X201109380Y-126055856D01*
X201109380Y-126055856D02*
X201109380Y-125817761D01*
X201109380Y-125817761D02*
X201157000Y-125722523D01*
X201157000Y-125722523D02*
X201204619Y-125674904D01*
X201204619Y-125674904D02*
X201299857Y-125627285D01*
X201299857Y-125627285D02*
X201395095Y-125627285D01*
X201395095Y-125627285D02*
X201537952Y-125674904D01*
X201537952Y-125674904D02*
X202109380Y-126246332D01*
X202109380Y-126246332D02*
X202109380Y-125627285D01*
G36*
X193932101Y-111924043D02*
G01*
X193597890Y-111924043D01*
X193597890Y-111620216D01*
X193932101Y-111620216D01*
X193932101Y-111924043D01*
G37*
G36*
X196545019Y-111924043D02*
G01*
X196210809Y-111924043D01*
X196210809Y-111620216D01*
X196545019Y-111620216D01*
X196545019Y-111924043D01*
G37*
G36*
X198914876Y-111924043D02*
G01*
X198580665Y-111924043D01*
X198580665Y-111620216D01*
X198914876Y-111620216D01*
X198914876Y-111924043D01*
G37*
G36*
X200616311Y-110708732D02*
G01*
X199431383Y-110708732D01*
X199431383Y-111042943D01*
X200555546Y-111042943D01*
X200555546Y-111286005D01*
X199431383Y-111286005D01*
X199431383Y-111680981D01*
X200616311Y-111680981D01*
X200616311Y-111924043D01*
X199157938Y-111924043D01*
X199157938Y-110496053D01*
X200616311Y-110496053D01*
X200616311Y-110708732D01*
G37*
G36*
X195125860Y-110498917D02*
G01*
X195199996Y-110548600D01*
X195283738Y-110644312D01*
X195383672Y-110785689D01*
X195506381Y-110972364D01*
X195607655Y-111127211D01*
X195725078Y-111305703D01*
X195833897Y-111471441D01*
X195928829Y-111616353D01*
X196004591Y-111732364D01*
X196055899Y-111811402D01*
X196074487Y-111840491D01*
X196126649Y-111924043D01*
X195794122Y-111924043D01*
X195447980Y-111377785D01*
X195344775Y-111216269D01*
X195251996Y-111073641D01*
X195174657Y-110957400D01*
X195117772Y-110875044D01*
X195086354Y-110834071D01*
X195082300Y-110830895D01*
X195060723Y-110855029D01*
X195011369Y-110922897D01*
X194939316Y-111027111D01*
X194849640Y-111160284D01*
X194747417Y-111315032D01*
X194706862Y-111377153D01*
X194350960Y-111924043D01*
X194202296Y-111924043D01*
X194116692Y-111919979D01*
X194062957Y-111909609D01*
X194053632Y-111901914D01*
X194069823Y-111871773D01*
X194115501Y-111797885D01*
X194186327Y-111686983D01*
X194277959Y-111545798D01*
X194386057Y-111381062D01*
X194506281Y-111199508D01*
X194513990Y-111187919D01*
X194668782Y-110953746D01*
X194793668Y-110767796D01*
X194895234Y-110629704D01*
X194980064Y-110539104D01*
X195054744Y-110495630D01*
X195125860Y-110498917D01*
G37*
G36*
X193415594Y-110704253D02*
G01*
X192791596Y-110714089D01*
X192575059Y-110718193D01*
X192411820Y-110723182D01*
X192294415Y-110729692D01*
X192215377Y-110738355D01*
X192167240Y-110749805D01*
X192142539Y-110764677D01*
X192138832Y-110769498D01*
X192125381Y-110821033D01*
X192116005Y-110917000D01*
X192110597Y-111043236D01*
X192109046Y-111185575D01*
X192111242Y-111329852D01*
X192117076Y-111461904D01*
X192126440Y-111567564D01*
X192139222Y-111632669D01*
X192145594Y-111644522D01*
X192181543Y-111658327D01*
X192261002Y-111668634D01*
X192388291Y-111675685D01*
X192567731Y-111679720D01*
X192798823Y-111680981D01*
X193415594Y-111680981D01*
X193415594Y-111924043D01*
X192800342Y-111921303D01*
X192605780Y-111919045D01*
X192425581Y-111914362D01*
X192270988Y-111907751D01*
X192153244Y-111899707D01*
X192083592Y-111890723D01*
X192078752Y-111889538D01*
X191984567Y-111847236D01*
X191905249Y-111785568D01*
X191904051Y-111784244D01*
X191878709Y-111752872D01*
X191860543Y-111717499D01*
X191848363Y-111668084D01*
X191840979Y-111594588D01*
X191837201Y-111486971D01*
X191835841Y-111335195D01*
X191835689Y-111207285D01*
X191837178Y-110997213D01*
X191843249Y-110839224D01*
X191856306Y-110724675D01*
X191878756Y-110644924D01*
X191913002Y-110591326D01*
X191961452Y-110555239D01*
X192024525Y-110528709D01*
X192087211Y-110517767D01*
X192202406Y-110508668D01*
X192361870Y-110501776D01*
X192557364Y-110497452D01*
X192766898Y-110496053D01*
X193415594Y-110496053D01*
X193415594Y-110704253D01*
G37*
G36*
X198367986Y-110704409D02*
G01*
X197713607Y-110714167D01*
X197488145Y-110717838D01*
X197316183Y-110722503D01*
X197190463Y-110730031D01*
X197103725Y-110742291D01*
X197048710Y-110761151D01*
X197018159Y-110788480D01*
X197004814Y-110826147D01*
X197001415Y-110876020D01*
X197001226Y-110897556D01*
X197023366Y-110977762D01*
X197059529Y-111011491D01*
X197110604Y-111022650D01*
X197212642Y-111031868D01*
X197355856Y-111038615D01*
X197530459Y-111042357D01*
X197638311Y-111042943D01*
X197878852Y-111045672D01*
X198065481Y-111056365D01*
X198204905Y-111078784D01*
X198303833Y-111116691D01*
X198368971Y-111173845D01*
X198407028Y-111254009D01*
X198424711Y-111360943D01*
X198428752Y-111486156D01*
X198424747Y-111604345D01*
X198408780Y-111699273D01*
X198374921Y-111773458D01*
X198317240Y-111829419D01*
X198229806Y-111869672D01*
X198106691Y-111896737D01*
X197941963Y-111913131D01*
X197729693Y-111921371D01*
X197463950Y-111923976D01*
X197397474Y-111924043D01*
X196757699Y-111924043D01*
X196757699Y-111680981D01*
X197397735Y-111680981D01*
X197617297Y-111679472D01*
X197804288Y-111675160D01*
X197951525Y-111668369D01*
X198051827Y-111659421D01*
X198096538Y-111649529D01*
X198136908Y-111609298D01*
X198153749Y-111535102D01*
X198155307Y-111486144D01*
X198147112Y-111397852D01*
X198126575Y-111334803D01*
X198117328Y-111323296D01*
X198075401Y-111312452D01*
X197982694Y-111301918D01*
X197849194Y-111292428D01*
X197684885Y-111284718D01*
X197532460Y-111280203D01*
X197289395Y-111272560D01*
X197100382Y-111259528D01*
X196958741Y-111237759D01*
X196857792Y-111203907D01*
X196790855Y-111154625D01*
X196751250Y-111086565D01*
X196732298Y-110996381D01*
X196727319Y-110880725D01*
X196727316Y-110876766D01*
X196742797Y-110722363D01*
X196791779Y-110613959D01*
X196878069Y-110544532D01*
X196916151Y-110528709D01*
X196978734Y-110517853D01*
X197094469Y-110508839D01*
X197255759Y-110501987D01*
X197455010Y-110497618D01*
X197684626Y-110496053D01*
X198367986Y-110496053D01*
X198367986Y-110704409D01*
G37*
G36*
X196338687Y-103373053D02*
G01*
X196343867Y-103501794D01*
X196351510Y-103582344D01*
X196365251Y-103627267D01*
X196388724Y-103649124D01*
X196421593Y-103659557D01*
X196465200Y-103678706D01*
X196496052Y-103721072D01*
X196522323Y-103801195D01*
X196537642Y-103865997D01*
X196574288Y-103999448D01*
X196616584Y-104074817D01*
X196671825Y-104094256D01*
X196747306Y-104059918D01*
X196850322Y-103973954D01*
X196863057Y-103961997D01*
X197028301Y-103805716D01*
X197204424Y-103914638D01*
X197307302Y-103980071D01*
X197399383Y-104041724D01*
X197453974Y-104081164D01*
X197527402Y-104138767D01*
X197458761Y-104322310D01*
X197419295Y-104449973D01*
X197407180Y-104544437D01*
X197411388Y-104572860D01*
X197431060Y-104613123D01*
X197467852Y-104629071D01*
X197540121Y-104626305D01*
X197573706Y-104622386D01*
X197683021Y-104607080D01*
X197783966Y-104590178D01*
X197808001Y-104585460D01*
X197857747Y-104578377D01*
X197893887Y-104589367D01*
X197927813Y-104629039D01*
X197970916Y-104708003D01*
X197997870Y-104762287D01*
X198066349Y-104907011D01*
X198105029Y-105010764D01*
X198113729Y-105085634D01*
X198092265Y-105143711D01*
X198040454Y-105197084D01*
X197990717Y-105234764D01*
X197876485Y-105328289D01*
X197819388Y-105407024D01*
X197820222Y-105475290D01*
X197879778Y-105537407D01*
X197998851Y-105597696D01*
X198061807Y-105621723D01*
X198220899Y-105678931D01*
X198210890Y-105839208D01*
X198206739Y-105932171D01*
X198214016Y-105979730D01*
X198239698Y-105997086D01*
X198284433Y-105999444D01*
X198367986Y-105999402D01*
X198367986Y-109584570D01*
X198094541Y-109584570D01*
X198094541Y-106242464D01*
X196089278Y-106242464D01*
X196089278Y-104911310D01*
X196332340Y-104911310D01*
X196332340Y-105999402D01*
X196621728Y-105999402D01*
X196756098Y-105998691D01*
X196842270Y-105994512D01*
X196892813Y-105983793D01*
X196920292Y-105963466D01*
X196937276Y-105930460D01*
X196940748Y-105921467D01*
X196968648Y-105782930D01*
X196964204Y-105619213D01*
X196929349Y-105455309D01*
X196898505Y-105375398D01*
X196816330Y-105242800D01*
X196702697Y-105116425D01*
X196574972Y-105012624D01*
X196450524Y-104947748D01*
X196441004Y-104944660D01*
X196332340Y-104911310D01*
X196089278Y-104911310D01*
X196089278Y-103358964D01*
X195929768Y-103375877D01*
X195587943Y-103435776D01*
X195281154Y-103538338D01*
X195013907Y-103681687D01*
X194816095Y-103839055D01*
X194692990Y-103972292D01*
X194593356Y-104118282D01*
X194514417Y-104285379D01*
X194453395Y-104481941D01*
X194407511Y-104716322D01*
X194373988Y-104996879D01*
X194356656Y-105221071D01*
X194339655Y-105452275D01*
X194319605Y-105638017D01*
X194292766Y-105793598D01*
X194255398Y-105934317D01*
X194203764Y-106075476D01*
X194134122Y-106232373D01*
X194084039Y-106336548D01*
X194013510Y-106484558D01*
X193972321Y-106590890D01*
X193962253Y-106668022D01*
X193985083Y-106728429D01*
X194042594Y-106784590D01*
X194136563Y-106848983D01*
X194159206Y-106863510D01*
X194254734Y-106931403D01*
X194334300Y-106999893D01*
X194373040Y-107043937D01*
X194399606Y-107106904D01*
X194429097Y-107211907D01*
X194456714Y-107340707D01*
X194467376Y-107402356D01*
X194494637Y-107545002D01*
X194528406Y-107680917D01*
X194562820Y-107787542D01*
X194574700Y-107815380D01*
X194669914Y-107950529D01*
X194816027Y-108063276D01*
X195014612Y-108154304D01*
X195267247Y-108224297D01*
X195575506Y-108273938D01*
X195650650Y-108282166D01*
X195998130Y-108317394D01*
X195998130Y-109584570D01*
X195755067Y-109584570D01*
X195755067Y-109071313D01*
X195754917Y-108876374D01*
X195752392Y-108733948D01*
X195744385Y-108635786D01*
X195727785Y-108573641D01*
X195699485Y-108539264D01*
X195656374Y-108524408D01*
X195595344Y-108520823D01*
X195547499Y-108520645D01*
X195340933Y-108502116D01*
X195120444Y-108452590D01*
X194904213Y-108378411D01*
X194710426Y-108285923D01*
X194557265Y-108181469D01*
X194545352Y-108171032D01*
X194436587Y-108056232D01*
X194353572Y-107925464D01*
X194290511Y-107765866D01*
X194241611Y-107564579D01*
X194222174Y-107453804D01*
X194191408Y-107291491D01*
X194160159Y-107187421D01*
X194127668Y-107139073D01*
X194127162Y-107138756D01*
X193988751Y-107052412D01*
X193892635Y-106988496D01*
X193828422Y-106939158D01*
X193785721Y-106896550D01*
X193759348Y-106860943D01*
X193714901Y-106755137D01*
X193711399Y-106629949D01*
X193749818Y-106477923D01*
X193831134Y-106291602D01*
X193834736Y-106284433D01*
X193918688Y-106111098D01*
X193981951Y-105959801D01*
X194028384Y-105815083D01*
X194061848Y-105661487D01*
X194086202Y-105483554D01*
X194105306Y-105265825D01*
X194111580Y-105175638D01*
X194140382Y-104844847D01*
X194181060Y-104565569D01*
X194236708Y-104329191D01*
X194310418Y-104127097D01*
X194405285Y-103950675D01*
X194524399Y-103791309D01*
X194658749Y-103651703D01*
X194888645Y-103464864D01*
X195138648Y-103321466D01*
X195417219Y-103218224D01*
X195732819Y-103151850D01*
X196019667Y-103122962D01*
X196329842Y-103103957D01*
X196338687Y-103373053D01*
G37*
D11*
X194046000Y-127173252D02*
X194046000Y-125750748D01*
X195866000Y-127173252D02*
X195866000Y-125750748D01*
X225399599Y-139269500D02*
X225399599Y-135249500D01*
X225399599Y-137769500D02*
X224399599Y-137769500D01*
X225399599Y-135249500D02*
X217679599Y-135249500D01*
X224899599Y-136959500D02*
X225399599Y-136959500D01*
X224899599Y-135749500D02*
X224899599Y-136959500D01*
X224399599Y-137769500D02*
X224399599Y-139269500D01*
X218679599Y-137769500D02*
X218679599Y-139269500D01*
X218179599Y-136959500D02*
X218179599Y-135749500D01*
X218179599Y-135749500D02*
X224899599Y-135749500D01*
X217679599Y-139269500D02*
X225399599Y-139269500D01*
X217679599Y-137769500D02*
X218679599Y-137769500D01*
X217679599Y-136959500D02*
X218179599Y-136959500D01*
X217679599Y-135249500D02*
X217679599Y-139269500D01*
X217379599Y-139569500D02*
X219879599Y-139569500D01*
X217379599Y-137069500D02*
X217379599Y-139569500D01*
X213392000Y-159888748D02*
X213392000Y-161311252D01*
X211572000Y-159888748D02*
X211572000Y-161311252D01*
X217401000Y-157389500D02*
X217401000Y-159889500D01*
X217401000Y-159889500D02*
X219901000Y-159889500D01*
X217701000Y-155569500D02*
X217701000Y-159589500D01*
X217701000Y-157279500D02*
X218201000Y-157279500D01*
X217701000Y-158089500D02*
X218701000Y-158089500D01*
X217701000Y-159589500D02*
X225421000Y-159589500D01*
X218201000Y-156069500D02*
X224921000Y-156069500D01*
X218201000Y-157279500D02*
X218201000Y-156069500D01*
X218701000Y-158089500D02*
X218701000Y-159589500D01*
X224421000Y-158089500D02*
X224421000Y-159589500D01*
X224921000Y-156069500D02*
X224921000Y-157279500D01*
X224921000Y-157279500D02*
X225421000Y-157279500D01*
X225421000Y-155569500D02*
X217701000Y-155569500D01*
X225421000Y-158089500D02*
X224421000Y-158089500D01*
X225421000Y-159589500D02*
X225421000Y-155569500D01*
X213271000Y-195383752D02*
X213271000Y-194861248D01*
X214741000Y-195383752D02*
X214741000Y-194861248D01*
X189925000Y-141121248D02*
X189925000Y-141643752D01*
X188455000Y-141121248D02*
X188455000Y-141643752D01*
X193324000Y-121926000D02*
X193324000Y-115916000D01*
X200144000Y-119676000D02*
X200144000Y-115916000D01*
X193324000Y-115916000D02*
X194584000Y-115916000D01*
X200144000Y-115916000D02*
X198884000Y-115916000D01*
X211064000Y-121238000D02*
X211334000Y-121238000D01*
X211334000Y-121238000D02*
X211334000Y-124068000D01*
X217694000Y-121238000D02*
X217694000Y-122338000D01*
X217964000Y-121238000D02*
X217694000Y-121238000D01*
X211064000Y-114818000D02*
X211064000Y-121238000D01*
X217964000Y-114818000D02*
X217964000Y-121238000D01*
X190295000Y-160498500D02*
X195705000Y-160498500D01*
X190295000Y-167948500D02*
X190295000Y-160498500D01*
X191095000Y-168748500D02*
X190295000Y-167948500D01*
X195705000Y-160498500D02*
X195705000Y-168748500D01*
X195705000Y-168748500D02*
X191095000Y-168748500D01*
X216773000Y-180661936D02*
X216773000Y-181116064D01*
X215303000Y-180661936D02*
X215303000Y-181116064D01*
X222560000Y-170054000D02*
X222560000Y-171974000D01*
X222560000Y-171974000D02*
X225420000Y-171974000D01*
X225420000Y-170054000D02*
X222560000Y-170054000D01*
X197396000Y-127173252D02*
X197396000Y-125750748D01*
X199216000Y-127173252D02*
X199216000Y-125750748D01*
X214320000Y-184222000D02*
X214320000Y-176542000D01*
X214320000Y-184222000D02*
X211660000Y-184222000D01*
X214320000Y-176542000D02*
X211660000Y-176542000D01*
X212990000Y-186822000D02*
X211660000Y-186822000D01*
X211660000Y-186822000D02*
X211660000Y-185492000D01*
X211660000Y-184222000D02*
X211660000Y-176542000D01*
X211825000Y-127944252D02*
X211825000Y-126521748D01*
X213645000Y-127944252D02*
X213645000Y-126521748D01*
X206970000Y-139246000D02*
X210420000Y-139246000D01*
X206970000Y-139246000D02*
X205020000Y-139246000D01*
X206970000Y-134126000D02*
X208920000Y-134126000D01*
X206970000Y-134126000D02*
X205020000Y-134126000D01*
X220140000Y-160498500D02*
X225550000Y-160498500D01*
X220140000Y-167948500D02*
X220140000Y-160498500D01*
X220940000Y-168748500D02*
X220140000Y-167948500D01*
X225550000Y-160498500D02*
X225550000Y-168748500D01*
X225550000Y-168748500D02*
X220940000Y-168748500D01*
X215303000Y-174766064D02*
X215303000Y-174311936D01*
X216773000Y-174766064D02*
X216773000Y-174311936D01*
X187556000Y-157389500D02*
X187556000Y-159889500D01*
X187556000Y-159889500D02*
X190056000Y-159889500D01*
X187856000Y-155569500D02*
X187856000Y-159589500D01*
X187856000Y-157279500D02*
X188356000Y-157279500D01*
X187856000Y-158089500D02*
X188856000Y-158089500D01*
X187856000Y-159589500D02*
X195576000Y-159589500D01*
X188356000Y-156069500D02*
X195076000Y-156069500D01*
X188356000Y-157279500D02*
X188356000Y-156069500D01*
X188856000Y-158089500D02*
X188856000Y-159589500D01*
X194576000Y-158089500D02*
X194576000Y-159589500D01*
X195076000Y-156069500D02*
X195076000Y-157279500D01*
X195076000Y-157279500D02*
X195576000Y-157279500D01*
X195576000Y-155569500D02*
X187856000Y-155569500D01*
X195576000Y-158089500D02*
X194576000Y-158089500D01*
X195576000Y-159589500D02*
X195576000Y-155569500D01*
D12*
X209170000Y-147756000D02*
X204770000Y-147756000D01*
X209170000Y-140856000D02*
X204770000Y-140856000D01*
D13*
X211260000Y-147231000D02*
G75*
G03*
X211260000Y-147231000I-100000J0D01*
G01*
D11*
X213271000Y-191323064D02*
X213271000Y-190868936D01*
X214741000Y-191323064D02*
X214741000Y-190868936D01*
X220128936Y-170279000D02*
X220583064Y-170279000D01*
X220128936Y-171749000D02*
X220583064Y-171749000D01*
X190295000Y-140178500D02*
X195705000Y-140178500D01*
X190295000Y-147628500D02*
X190295000Y-140178500D01*
X191095000Y-148428500D02*
X190295000Y-147628500D01*
X195705000Y-140178500D02*
X195705000Y-148428500D01*
X195705000Y-148428500D02*
X191095000Y-148428500D01*
X187556000Y-137069500D02*
X187556000Y-139569500D01*
X187556000Y-139569500D02*
X190056000Y-139569500D01*
X187856000Y-135249500D02*
X187856000Y-139269500D01*
X187856000Y-136959500D02*
X188356000Y-136959500D01*
X187856000Y-137769500D02*
X188856000Y-137769500D01*
X187856000Y-139269500D02*
X195576000Y-139269500D01*
X188356000Y-135749500D02*
X195076000Y-135749500D01*
X188356000Y-136959500D02*
X188356000Y-135749500D01*
X188856000Y-137769500D02*
X188856000Y-139269500D01*
X194576000Y-137769500D02*
X194576000Y-139269500D01*
X195076000Y-135749500D02*
X195076000Y-136959500D01*
X195076000Y-136959500D02*
X195576000Y-136959500D01*
X195576000Y-135249500D02*
X187856000Y-135249500D01*
X195576000Y-137769500D02*
X194576000Y-137769500D01*
X195576000Y-139269500D02*
X195576000Y-135249500D01*
X216961000Y-184004000D02*
X223421000Y-184004000D01*
X216961000Y-184034000D02*
X216961000Y-184004000D01*
X216961000Y-185934000D02*
X216961000Y-188534000D01*
X216961000Y-190464000D02*
X216961000Y-190434000D01*
X216961000Y-190464000D02*
X223421000Y-190464000D01*
X223421000Y-184004000D02*
X223421000Y-184034000D01*
X223421000Y-185934000D02*
X223421000Y-188534000D01*
X223421000Y-190464000D02*
X223421000Y-190434000D01*
X214188000Y-144388048D02*
X214188000Y-142933920D01*
X216008000Y-144388048D02*
X216008000Y-142933920D01*
X206158936Y-161643000D02*
X206613064Y-161643000D01*
X206158936Y-163113000D02*
X206613064Y-163113000D01*
X211199300Y-197607800D02*
X211199300Y-193735239D01*
X211199300Y-175724761D02*
X211199300Y-171852200D01*
X211199300Y-171852200D02*
X209804718Y-171852200D01*
X194331282Y-171852200D02*
X192936700Y-171852200D01*
X192936700Y-197607800D02*
X211199300Y-197607800D01*
X192936700Y-193735239D02*
X192936700Y-197607800D01*
X192936700Y-171852200D02*
X192936700Y-175724761D01*
G36*
X211576000Y-181745500D02*
G01*
X211322000Y-181745500D01*
X211322000Y-181364500D01*
X211576000Y-181364500D01*
X211576000Y-181745500D01*
G37*
D14*
X211576000Y-181745500D02*
X211322000Y-181745500D01*
X211322000Y-181364500D01*
X211576000Y-181364500D01*
X211576000Y-181745500D01*
G36*
X206703500Y-197988000D02*
G01*
X206322500Y-197988000D01*
X206322500Y-197734000D01*
X206703500Y-197734000D01*
X206703500Y-197988000D01*
G37*
X206703500Y-197988000D02*
X206322500Y-197988000D01*
X206322500Y-197734000D01*
X206703500Y-197734000D01*
X206703500Y-197988000D01*
G36*
X202893500Y-171726000D02*
G01*
X202512500Y-171726000D01*
X202512500Y-171472000D01*
X202893500Y-171472000D01*
X202893500Y-171726000D01*
G37*
X202893500Y-171726000D02*
X202512500Y-171726000D01*
X202512500Y-171472000D01*
X202893500Y-171472000D01*
X202893500Y-171726000D01*
G36*
X192814000Y-193175500D02*
G01*
X192560000Y-193175500D01*
X192560000Y-192794500D01*
X192814000Y-192794500D01*
X192814000Y-193175500D01*
G37*
X192814000Y-193175500D02*
X192560000Y-193175500D01*
X192560000Y-192794500D01*
X192814000Y-192794500D01*
X192814000Y-193175500D01*
G36*
X192814000Y-180475500D02*
G01*
X192560000Y-180475500D01*
X192560000Y-180094500D01*
X192814000Y-180094500D01*
X192814000Y-180475500D01*
G37*
X192814000Y-180475500D02*
X192560000Y-180475500D01*
X192560000Y-180094500D01*
X192814000Y-180094500D01*
X192814000Y-180475500D01*
D11*
X201706000Y-122028000D02*
X201706000Y-116018000D01*
X208526000Y-119778000D02*
X208526000Y-116018000D01*
X201706000Y-116018000D02*
X202966000Y-116018000D01*
X208526000Y-116018000D02*
X207266000Y-116018000D01*
X220548000Y-182414000D02*
X222548000Y-182414000D01*
X224448000Y-182414000D02*
X226348000Y-182414000D01*
X226348000Y-182414000D02*
X226348000Y-173014000D01*
X220548000Y-173014000D02*
X222548000Y-173014000D01*
X224448000Y-173014000D02*
X226348000Y-173014000D01*
X205984000Y-127124252D02*
X205984000Y-125701748D01*
X207804000Y-127124252D02*
X207804000Y-125701748D01*
X209304189Y-133075746D02*
X208794741Y-133075746D01*
X209304189Y-132030746D02*
X208794741Y-132030746D01*
X218278599Y-141121248D02*
X218278599Y-141643752D01*
X219748599Y-141121248D02*
X219748599Y-141643752D01*
X212556000Y-146478580D02*
X212556000Y-146197420D01*
X213576000Y-146478580D02*
X213576000Y-146197420D01*
X209290988Y-130963771D02*
X208781540Y-130963771D01*
X209290988Y-129918771D02*
X208781540Y-129918771D01*
X189925000Y-161441248D02*
X189925000Y-161963752D01*
X188455000Y-161441248D02*
X188455000Y-161963752D01*
X216872000Y-190763634D02*
X223332000Y-190763634D01*
X216872000Y-190793634D02*
X216872000Y-190763634D01*
X216872000Y-192693634D02*
X216872000Y-195293634D01*
X216872000Y-197223634D02*
X216872000Y-197193634D01*
X216872000Y-197223634D02*
X223332000Y-197223634D01*
X223332000Y-190763634D02*
X223332000Y-190793634D01*
X223332000Y-192693634D02*
X223332000Y-195293634D01*
X223332000Y-197223634D02*
X223332000Y-197193634D01*
X222706000Y-126914000D02*
X225206000Y-126914000D01*
X225206000Y-126914000D02*
X225206000Y-124414000D01*
X220886000Y-126614000D02*
X224906000Y-126614000D01*
X222596000Y-126614000D02*
X222596000Y-126114000D01*
X223406000Y-126614000D02*
X223406000Y-125614000D01*
X224906000Y-126614000D02*
X224906000Y-118894000D01*
X221386000Y-126114000D02*
X221386000Y-119394000D01*
X222596000Y-126114000D02*
X221386000Y-126114000D01*
X223406000Y-125614000D02*
X224906000Y-125614000D01*
X223406000Y-119894000D02*
X224906000Y-119894000D01*
X221386000Y-119394000D02*
X222596000Y-119394000D01*
X222596000Y-119394000D02*
X222596000Y-118894000D01*
X220886000Y-118894000D02*
X220886000Y-126614000D01*
X223406000Y-118894000D02*
X223406000Y-119894000D01*
X224906000Y-118894000D02*
X220886000Y-118894000D01*
X225528599Y-148428500D02*
X220918599Y-148428500D01*
X225528599Y-140178500D02*
X225528599Y-148428500D01*
X220918599Y-148428500D02*
X220118599Y-147628500D01*
X220118599Y-147628500D02*
X220118599Y-140178500D01*
X220118599Y-140178500D02*
X225528599Y-140178500D01*
X215381000Y-127944252D02*
X215381000Y-126521748D01*
X217201000Y-127944252D02*
X217201000Y-126521748D01*
X187555000Y-184237000D02*
X187555000Y-189377000D01*
X187555000Y-184237000D02*
X190215000Y-184237000D01*
X187555000Y-189377000D02*
X190215000Y-189377000D01*
X188885000Y-181637000D02*
X190215000Y-181637000D01*
X190215000Y-181637000D02*
X190215000Y-182967000D01*
X190215000Y-184237000D02*
X190215000Y-189377000D01*
X212523064Y-151566000D02*
X211068936Y-151566000D01*
X212523064Y-149746000D02*
X211068936Y-149746000D01*
X200218000Y-144388048D02*
X200218000Y-142933920D01*
X202038000Y-144388048D02*
X202038000Y-142933920D01*
X201416936Y-149746000D02*
X202871064Y-149746000D01*
X201416936Y-151566000D02*
X202871064Y-151566000D01*
X219770000Y-161441248D02*
X219770000Y-161963752D01*
X218300000Y-161441248D02*
X218300000Y-161963752D01*
X206158936Y-164593000D02*
X206613064Y-164593000D01*
X206158936Y-166063000D02*
X206613064Y-166063000D01*
X202682000Y-127124252D02*
X202682000Y-125701748D01*
X204502000Y-127124252D02*
X204502000Y-125701748D01*
%LPC*%
D15*
X194956000Y-127937000D03*
X194956000Y-124987000D03*
D16*
X222789598Y-136959499D03*
D17*
X220289599Y-136959500D03*
D18*
X212482000Y-159125000D03*
X212482000Y-162075000D03*
D17*
X220311000Y-157279500D03*
D16*
X222810999Y-157279499D03*
D19*
X214006000Y-196160000D03*
X214006000Y-194085000D03*
D20*
X189190000Y-140345000D03*
X189190000Y-142420000D03*
D21*
X194433999Y-120975999D03*
X196733999Y-120975999D03*
D22*
X196733999Y-114675999D03*
D21*
X199033999Y-120975999D03*
D23*
X212234000Y-122968000D03*
D24*
X214514000Y-116668000D03*
D23*
X216794000Y-122968000D03*
D25*
X191094999Y-167423499D03*
X192364999Y-167423499D03*
X193634999Y-167423499D03*
X194904999Y-167423499D03*
X194904999Y-161823499D03*
X193634999Y-161823499D03*
X192364999Y-161823499D03*
X191094999Y-161823499D03*
D26*
X216038000Y-179889000D03*
X216038000Y-181889000D03*
D27*
X223395000Y-171014000D03*
X225445000Y-171014000D03*
D15*
X198306000Y-127937000D03*
X198306000Y-124987000D03*
D28*
X212989999Y-185491999D03*
D29*
X212989999Y-182951999D03*
X212989999Y-180411999D03*
X212989999Y-177871999D03*
D15*
X212735000Y-128708000D03*
X212735000Y-125758000D03*
D30*
X209607500Y-138591000D03*
X209607500Y-137321000D03*
X209607500Y-136051000D03*
X209607500Y-134781000D03*
X204332500Y-134781000D03*
X204332500Y-136051000D03*
X204332500Y-137321000D03*
X204332500Y-138591000D03*
D31*
X206969999Y-136685999D03*
D25*
X220939999Y-167423499D03*
X222209999Y-167423499D03*
X223479999Y-167423499D03*
X224749999Y-167423499D03*
X224749999Y-161823499D03*
X223479999Y-161823499D03*
X222209999Y-161823499D03*
X220939999Y-161823499D03*
D32*
X216038000Y-175539000D03*
X216038000Y-173539000D03*
D17*
X190466000Y-157279500D03*
D16*
X192965999Y-157279499D03*
D33*
X209840000Y-147231000D03*
X209840000Y-146581000D03*
X209840000Y-145931000D03*
X209840000Y-145281000D03*
X209840000Y-144631000D03*
X209840000Y-143981000D03*
X209840000Y-143331000D03*
X209840000Y-142681000D03*
X209840000Y-142031000D03*
X209840000Y-141381000D03*
X204100000Y-141381000D03*
X204100000Y-142031000D03*
X204100000Y-142681000D03*
X204100000Y-143331000D03*
X204100000Y-143981000D03*
X204100000Y-144631000D03*
X204100000Y-145281000D03*
X204100000Y-145931000D03*
X204100000Y-146581000D03*
X204100000Y-147231000D03*
D32*
X214006000Y-192096000D03*
X214006000Y-190096000D03*
D34*
X219356000Y-171014000D03*
X221356000Y-171014000D03*
D25*
X191094999Y-147103499D03*
X192364999Y-147103499D03*
X193634999Y-147103499D03*
X194904999Y-147103499D03*
X194904999Y-141503499D03*
X193634999Y-141503499D03*
X192364999Y-141503499D03*
X191094999Y-141503499D03*
D17*
X190466000Y-136959500D03*
D16*
X192965999Y-136959499D03*
D35*
X216215999Y-184983999D03*
X224165999Y-184983999D03*
X216215999Y-189483999D03*
X224165999Y-189483999D03*
D36*
X215098000Y-145123484D03*
X215098000Y-142198484D03*
D34*
X205386000Y-162378000D03*
X207386000Y-162378000D03*
D37*
X210648899Y-189983699D03*
X210648899Y-188713699D03*
X210648899Y-187443699D03*
X210648899Y-186173699D03*
X210648899Y-184903699D03*
X210648899Y-183633699D03*
X210648899Y-182363699D03*
X210648899Y-181093699D03*
X210648899Y-179823699D03*
X210648899Y-178553699D03*
X210648899Y-177283699D03*
X210648899Y-176013699D03*
X210648899Y-174743699D03*
X210648899Y-173473699D03*
D38*
X209052999Y-172399099D03*
X207782999Y-172399099D03*
X206512999Y-172399099D03*
X205242999Y-172399099D03*
X203972999Y-172399099D03*
X202702999Y-172399099D03*
X201432999Y-172399099D03*
X200162999Y-172399099D03*
X198892999Y-172399099D03*
X197622999Y-172399099D03*
X196352999Y-172399099D03*
X195082999Y-172399099D03*
D37*
X193487099Y-173473699D03*
X193487099Y-174743699D03*
X193487099Y-176013699D03*
X193487099Y-177283699D03*
X193487099Y-178553699D03*
X193487099Y-179823699D03*
X193487099Y-181093699D03*
X193487099Y-182363699D03*
X193487099Y-183633699D03*
X193487099Y-184903699D03*
X193487099Y-186173699D03*
X193487099Y-187443699D03*
X193487099Y-188713699D03*
X193487099Y-189983699D03*
D39*
X203563698Y-182269199D03*
D21*
X202815999Y-121077999D03*
X205115999Y-121077999D03*
D22*
X205115999Y-114777999D03*
D21*
X207415999Y-121077999D03*
D40*
X219848000Y-180604000D03*
X219848000Y-174824000D03*
D41*
X218402999Y-180963999D03*
X218402999Y-180163999D03*
D42*
X218402999Y-178963999D03*
X218402999Y-177963999D03*
X218402999Y-177463999D03*
X218402999Y-176463999D03*
D41*
X218402999Y-175263999D03*
X218402999Y-174463999D03*
X218402999Y-174463999D03*
X218402999Y-175263999D03*
D42*
X218402999Y-175963999D03*
X218402999Y-176963999D03*
X218402999Y-178463999D03*
X218402999Y-179463999D03*
D41*
X218402999Y-180163999D03*
X218402999Y-180963999D03*
D43*
X219317999Y-182033999D03*
D44*
X223497999Y-182033999D03*
D43*
X219317999Y-173393999D03*
D44*
X223497999Y-173393999D03*
D15*
X206894000Y-127888000D03*
X206894000Y-124938000D03*
D45*
X209961965Y-132553246D03*
X208136965Y-132553246D03*
D20*
X219013599Y-142420000D03*
X219013599Y-140345000D03*
D46*
X213066000Y-147113000D03*
X213066000Y-145563000D03*
D45*
X209948764Y-130441271D03*
X208123764Y-130441271D03*
D20*
X189190000Y-160665000D03*
X189190000Y-162740000D03*
D35*
X216126999Y-191743633D03*
X224076999Y-191743633D03*
X216126999Y-196243633D03*
X224076999Y-196243633D03*
D47*
X222596000Y-124004000D03*
D48*
X222595999Y-121503999D03*
D25*
X220918598Y-141503499D03*
X222188598Y-141503499D03*
X223458598Y-141503499D03*
X224728598Y-141503499D03*
X224728598Y-147103499D03*
X223458598Y-147103499D03*
X222188598Y-147103499D03*
X220918598Y-147103499D03*
D15*
X216291000Y-128708000D03*
X216291000Y-125758000D03*
D28*
X188884999Y-182966999D03*
D29*
X188884999Y-185506999D03*
X188884999Y-188046999D03*
D49*
X213258500Y-150656000D03*
X210333500Y-150656000D03*
D36*
X201128000Y-145123484D03*
X201128000Y-142198484D03*
D50*
X200681500Y-150656000D03*
X203606500Y-150656000D03*
D20*
X219035000Y-160665000D03*
X219035000Y-162740000D03*
D34*
X205386000Y-165328000D03*
X207386000Y-165328000D03*
D15*
X203592000Y-127888000D03*
X203592000Y-124938000D03*
M02*
