G04 #@! TF.GenerationSoftware,KiCad,Pcbnew,(7.0.0)*
G04 #@! TF.CreationDate,2023-09-25T00:06:07+02:00*
G04 #@! TF.ProjectId,FC Control board 1.0,46432043-6f6e-4747-926f-6c20626f6172,rev?*
G04 #@! TF.SameCoordinates,Original*
G04 #@! TF.FileFunction,Paste,Top*
G04 #@! TF.FilePolarity,Positive*
%FSLAX46Y46*%
G04 Gerber Fmt 4.6, Leading zero omitted, Abs format (unit mm)*
G04 Created by KiCad (PCBNEW (7.0.0)) date 2023-09-25 00:06:07*
%MOMM*%
%LPD*%
G01*
G04 APERTURE LIST*
G04 Aperture macros list*
%AMRoundRect*
0 Rectangle with rounded corners*
0 $1 Rounding radius*
0 $2 $3 $4 $5 $6 $7 $8 $9 X,Y pos of 4 corners*
0 Add a 4 corners polygon primitive as box body*
4,1,4,$2,$3,$4,$5,$6,$7,$8,$9,$2,$3,0*
0 Add four circle primitives for the rounded corners*
1,1,$1+$1,$2,$3*
1,1,$1+$1,$4,$5*
1,1,$1+$1,$6,$7*
1,1,$1+$1,$8,$9*
0 Add four rect primitives between the rounded corners*
20,1,$1+$1,$2,$3,$4,$5,0*
20,1,$1+$1,$4,$5,$6,$7,0*
20,1,$1+$1,$6,$7,$8,$9,0*
20,1,$1+$1,$8,$9,$2,$3,0*%
G04 Aperture macros list end*
%ADD10C,0.100000*%
%ADD11RoundRect,0.250000X0.650000X-0.325000X0.650000X0.325000X-0.650000X0.325000X-0.650000X-0.325000X0*%
%ADD12RoundRect,0.250000X-0.650000X0.325000X-0.650000X-0.325000X0.650000X-0.325000X0.650000X0.325000X0*%
%ADD13RoundRect,0.250000X0.475000X-0.337500X0.475000X0.337500X-0.475000X0.337500X-0.475000X-0.337500X0*%
%ADD14RoundRect,0.250000X-0.475000X0.337500X-0.475000X-0.337500X0.475000X-0.337500X0.475000X0.337500X0*%
%ADD15R,1.500000X2.000000*%
%ADD16R,3.800000X2.000000*%
%ADD17RoundRect,0.250000X0.350000X-0.850000X0.350000X0.850000X-0.350000X0.850000X-0.350000X-0.850000X0*%
%ADD18RoundRect,0.250000X1.125000X-1.275000X1.125000X1.275000X-1.125000X1.275000X-1.125000X-1.275000X0*%
%ADD19R,0.600000X1.650000*%
%ADD20RoundRect,0.250000X-0.450000X0.350000X-0.450000X-0.350000X0.450000X-0.350000X0.450000X0.350000X0*%
%ADD21RoundRect,0.250000X-0.325000X-0.450000X0.325000X-0.450000X0.325000X0.450000X-0.325000X0.450000X0*%
%ADD22RoundRect,0.250000X0.255000X0.395000X-0.255000X0.395000X-0.255000X-0.395000X0.255000X-0.395000X0*%
%ADD23RoundRect,0.150000X0.662500X0.150000X-0.662500X0.150000X-0.662500X-0.150000X0.662500X-0.150000X0*%
%ADD24RoundRect,0.250000X0.450000X-0.350000X0.450000X0.350000X-0.450000X0.350000X-0.450000X-0.350000X0*%
%ADD25RoundRect,0.020500X0.764500X0.184500X-0.764500X0.184500X-0.764500X-0.184500X0.764500X-0.184500X0*%
%ADD26RoundRect,0.250000X-0.350000X-0.450000X0.350000X-0.450000X0.350000X0.450000X-0.350000X0.450000X0*%
%ADD27R,1.550000X1.300000*%
%ADD28RoundRect,0.250000X0.625000X-0.312500X0.625000X0.312500X-0.625000X0.312500X-0.625000X-0.312500X0*%
%ADD29R,0.838200X0.889000*%
%ADD30R,0.889000X0.838200*%
%ADD31R,1.450000X0.600000*%
%ADD32R,1.450000X0.300000*%
%ADD33RoundRect,0.237500X0.250000X0.237500X-0.250000X0.237500X-0.250000X-0.237500X0.250000X-0.237500X0*%
%ADD34RoundRect,0.225000X0.250000X-0.225000X0.250000X0.225000X-0.250000X0.225000X-0.250000X-0.225000X0*%
%ADD35RoundRect,0.250000X0.312500X0.625000X-0.312500X0.625000X-0.312500X-0.625000X0.312500X-0.625000X0*%
%ADD36RoundRect,0.250000X-0.312500X-0.625000X0.312500X-0.625000X0.312500X0.625000X-0.312500X0.625000X0*%
G04 APERTURE END LIST*
G36*
X203822200Y-186484200D02*
G01*
X202168000Y-186484200D01*
X202168000Y-184830000D01*
X203822200Y-184830000D01*
X203822200Y-186484200D01*
G37*
D10*
X203822200Y-186484200D02*
X202168000Y-186484200D01*
X202168000Y-184830000D01*
X203822200Y-184830000D01*
X203822200Y-186484200D01*
G36*
X203822200Y-184630000D02*
G01*
X202168000Y-184630000D01*
X202168000Y-182975800D01*
X203822200Y-182975800D01*
X203822200Y-184630000D01*
G37*
X203822200Y-184630000D02*
X202168000Y-184630000D01*
X202168000Y-182975800D01*
X203822200Y-182975800D01*
X203822200Y-184630000D01*
G36*
X201968000Y-186484200D02*
G01*
X200313800Y-186484200D01*
X200313800Y-184830000D01*
X201968000Y-184830000D01*
X201968000Y-186484200D01*
G37*
X201968000Y-186484200D02*
X200313800Y-186484200D01*
X200313800Y-184830000D01*
X201968000Y-184830000D01*
X201968000Y-186484200D01*
G36*
X201968000Y-184630000D02*
G01*
X200313800Y-184630000D01*
X200313800Y-182975800D01*
X201968000Y-182975800D01*
X201968000Y-184630000D01*
G37*
X201968000Y-184630000D02*
X200313800Y-184630000D01*
X200313800Y-182975800D01*
X201968000Y-182975800D01*
X201968000Y-184630000D01*
D11*
X194956000Y-127937000D03*
X194956000Y-124987000D03*
D12*
X212482000Y-159125000D03*
X212482000Y-162075000D03*
D13*
X214006000Y-196160000D03*
X214006000Y-194085000D03*
D14*
X189190000Y-140345000D03*
X189190000Y-142420000D03*
D15*
X194433999Y-120975999D03*
X196733999Y-120975999D03*
D16*
X196733999Y-114675999D03*
D15*
X199033999Y-120975999D03*
D17*
X212234000Y-122968000D03*
D18*
X212989000Y-118343000D03*
X216039000Y-118343000D03*
X212989000Y-114993000D03*
X216039000Y-114993000D03*
D17*
X216794000Y-122968000D03*
D19*
X191094999Y-167423499D03*
X192364999Y-167423499D03*
X193634999Y-167423499D03*
X194904999Y-167423499D03*
X194904999Y-161823499D03*
X193634999Y-161823499D03*
X192364999Y-161823499D03*
X191094999Y-161823499D03*
D20*
X216038000Y-179889000D03*
X216038000Y-181889000D03*
D21*
X223395000Y-171014000D03*
X225445000Y-171014000D03*
D11*
X198306000Y-127937000D03*
X198306000Y-124987000D03*
X212735000Y-128708000D03*
X212735000Y-125758000D03*
D22*
X207600000Y-137486000D03*
X207600000Y-135886000D03*
X206340000Y-137486000D03*
X206340000Y-135886000D03*
D23*
X209607500Y-138591000D03*
X209607500Y-137321000D03*
X209607500Y-136051000D03*
X209607500Y-134781000D03*
X204332500Y-134781000D03*
X204332500Y-136051000D03*
X204332500Y-137321000D03*
X204332500Y-138591000D03*
D19*
X220939999Y-167423499D03*
X222209999Y-167423499D03*
X223479999Y-167423499D03*
X224749999Y-167423499D03*
X224749999Y-161823499D03*
X223479999Y-161823499D03*
X222209999Y-161823499D03*
X220939999Y-161823499D03*
D24*
X216038000Y-175539000D03*
X216038000Y-173539000D03*
D25*
X209840000Y-147231000D03*
X209840000Y-146581000D03*
X209840000Y-145931000D03*
X209840000Y-145281000D03*
X209840000Y-144631000D03*
X209840000Y-143981000D03*
X209840000Y-143331000D03*
X209840000Y-142681000D03*
X209840000Y-142031000D03*
X209840000Y-141381000D03*
X204100000Y-141381000D03*
X204100000Y-142031000D03*
X204100000Y-142681000D03*
X204100000Y-143331000D03*
X204100000Y-143981000D03*
X204100000Y-144631000D03*
X204100000Y-145281000D03*
X204100000Y-145931000D03*
X204100000Y-146581000D03*
X204100000Y-147231000D03*
D24*
X214006000Y-192096000D03*
X214006000Y-190096000D03*
D26*
X219356000Y-171014000D03*
X221356000Y-171014000D03*
D19*
X191094999Y-147103499D03*
X192364999Y-147103499D03*
X193634999Y-147103499D03*
X194904999Y-147103499D03*
X194904999Y-141503499D03*
X193634999Y-141503499D03*
X192364999Y-141503499D03*
X191094999Y-141503499D03*
D27*
X216215999Y-184983999D03*
X224165999Y-184983999D03*
X216215999Y-189483999D03*
X224165999Y-189483999D03*
D28*
X215098000Y-145123484D03*
X215098000Y-142198484D03*
D26*
X205386000Y-162378000D03*
X207386000Y-162378000D03*
D29*
X210648899Y-189983699D03*
X210648899Y-188713699D03*
X210648899Y-187443699D03*
X210648899Y-186173699D03*
X210648899Y-184903699D03*
X210648899Y-183633699D03*
X210648899Y-182363699D03*
X210648899Y-181093699D03*
X210648899Y-179823699D03*
X210648899Y-178553699D03*
X210648899Y-177283699D03*
X210648899Y-176013699D03*
X210648899Y-174743699D03*
X210648899Y-173473699D03*
D30*
X209052999Y-172399099D03*
X207782999Y-172399099D03*
X206512999Y-172399099D03*
X205242999Y-172399099D03*
X203972999Y-172399099D03*
X202702999Y-172399099D03*
X201432999Y-172399099D03*
X200162999Y-172399099D03*
X198892999Y-172399099D03*
X197622999Y-172399099D03*
X196352999Y-172399099D03*
X195082999Y-172399099D03*
D29*
X193487099Y-173473699D03*
X193487099Y-174743699D03*
X193487099Y-176013699D03*
X193487099Y-177283699D03*
X193487099Y-178553699D03*
X193487099Y-179823699D03*
X193487099Y-181093699D03*
X193487099Y-182363699D03*
X193487099Y-183633699D03*
X193487099Y-184903699D03*
X193487099Y-186173699D03*
X193487099Y-187443699D03*
X193487099Y-188713699D03*
X193487099Y-189983699D03*
D15*
X202815999Y-121077999D03*
X205115999Y-121077999D03*
D16*
X205115999Y-114777999D03*
D15*
X207415999Y-121077999D03*
D31*
X218402999Y-180963999D03*
X218402999Y-180163999D03*
D32*
X218402999Y-178963999D03*
X218402999Y-177963999D03*
X218402999Y-177463999D03*
X218402999Y-176463999D03*
D31*
X218402999Y-175263999D03*
X218402999Y-174463999D03*
X218402999Y-174463999D03*
X218402999Y-175263999D03*
D32*
X218402999Y-175963999D03*
X218402999Y-176963999D03*
X218402999Y-178463999D03*
X218402999Y-179463999D03*
D31*
X218402999Y-180163999D03*
X218402999Y-180963999D03*
D11*
X206894000Y-127888000D03*
X206894000Y-124938000D03*
D33*
X209961965Y-132553246D03*
X208136965Y-132553246D03*
D14*
X219013599Y-142420000D03*
X219013599Y-140345000D03*
D34*
X213066000Y-147113000D03*
X213066000Y-145563000D03*
D33*
X209948764Y-130441271D03*
X208123764Y-130441271D03*
D14*
X189190000Y-160665000D03*
X189190000Y-162740000D03*
D27*
X216126999Y-191743633D03*
X224076999Y-191743633D03*
X216126999Y-196243633D03*
X224076999Y-196243633D03*
D19*
X220918598Y-141503499D03*
X222188598Y-141503499D03*
X223458598Y-141503499D03*
X224728598Y-141503499D03*
X224728598Y-147103499D03*
X223458598Y-147103499D03*
X222188598Y-147103499D03*
X220918598Y-147103499D03*
D11*
X216291000Y-128708000D03*
X216291000Y-125758000D03*
D35*
X213258500Y-150656000D03*
X210333500Y-150656000D03*
D28*
X201128000Y-145123484D03*
X201128000Y-142198484D03*
D36*
X200681500Y-150656000D03*
X203606500Y-150656000D03*
D14*
X219035000Y-160665000D03*
X219035000Y-162740000D03*
D26*
X205386000Y-165328000D03*
X207386000Y-165328000D03*
D11*
X203592000Y-127888000D03*
X203592000Y-124938000D03*
M02*
