M48
; DRILL file {KiCad (7.0.0)} date Mon Sep 25 00:06:04 2023
; FORMAT={-:-/ absolute / metric / decimal}
; #@! TF.CreationDate,2023-09-25T00:06:04+02:00
; #@! TF.GenerationSoftware,Kicad,Pcbnew,(7.0.0)
; #@! TF.FileFunction,Plated,1,2,PTH
FMAT,2
METRIC
; #@! TA.AperFunction,Plated,PTH,ViaDrill
T1C0.400
; #@! TA.AperFunction,Plated,PTH,ComponentDrill
T2C0.600
; #@! TA.AperFunction,Plated,PTH,ComponentDrill
T3C1.000
%
G90
G05
T1
X191.146Y-140.28
X191.146Y-160.6
X193.555Y-143.836
X193.555Y-144.598
X193.555Y-145.36
X194.194Y-160.092
X194.448Y-119.452
X194.702Y-190.064
X194.956Y-123.77
X194.956Y-129.104
X194.956Y-163.14
X194.956Y-165.934
X194.956Y-174.316
X194.956Y-187.27
X194.956Y-188.54
X195.21Y-160.092
X195.68Y-175.148
X196.226Y-160.092
X196.302Y-141.258
X196.48Y-137.994
X196.979Y-142.105
X196.988Y-137.486
X197.496Y-136.978
X198.258Y-129.104
X198.762Y-190.068
X198.766Y-173.808
X199.253Y-142.117
X199.274Y-118.944
X199.858Y-141.512
X201.306Y-176.094
X202.322Y-181.174
X202.322Y-183.46
X202.777Y-144.827
X202.83Y-119.706
X202.83Y-140.026
X203.592Y-129.104
X204.1Y-123.77
X204.862Y-181.174
X204.862Y-183.46
X204.986Y-124.16
X205.624Y-166.696
X205.87Y-151.464
X206.386Y-123.262
X206.64Y-173.3
X206.894Y-122.5
X206.894Y-129.104
X206.894Y-139.518
X207.386Y-165.328
X207.91Y-168.802
X207.91Y-170.252
X208.164Y-131.479
X208.164Y-155.52
X208.164Y-191.478
X208.672Y-167.712
X208.672Y-169.49
X208.672Y-171.014
X209.093Y-133.509
X209.434Y-189.81
X210.196Y-118.944
X210.704Y-172.03
X210.704Y-181.174
X211.212Y-140.026
X211.716Y-189.298
X211.72Y-172.03
X211.72Y-187.016
X212.482Y-158.06
X212.482Y-190.826
X212.736Y-129.866
X212.736Y-196.16
X213.244Y-123.008
X213.752Y-124.786
X213.955Y-148.116
X213.968Y-165.718
X214.006Y-164.156
X214.006Y-190.064
X214.26Y-187.778
X214.279Y-174.805
X214.514Y-125.294
X214.768Y-172.284
X214.768Y-173.554
X215.609Y-123.945
X215.784Y-123.008
X215.784Y-170.252
X216.038Y-194.382
X216.292Y-129.866
X216.292Y-143.582
X216.368Y-142.528
X216.546Y-171.014
X217.054Y-143.582
X217.089Y-142.528
X218.324Y-171.014
X219.924Y-142.728
X220.686Y-142.782
X220.864Y-160.346
X220.864Y-172.538
X221.118Y-140.026
X222.134Y-165.934
X224.674Y-142.82
X226.198Y-147.392
T3
X188.885Y-182.967
X188.885Y-185.507
X188.885Y-188.047
X190.466Y-136.959
X190.466Y-157.279
X192.966Y-136.959
X192.966Y-157.279
X212.99Y-177.872
X212.99Y-180.412
X212.99Y-182.952
X212.99Y-185.492
X220.29Y-136.959
X220.311Y-157.279
X222.596Y-121.504
X222.596Y-124.004
X222.79Y-136.959
X222.811Y-157.279
T2
X218.768Y-173.394G85X219.868Y-173.394
G05
X218.768Y-182.034G85X219.868Y-182.034
G05
X223.198Y-173.394G85X223.798Y-173.394
G05
X223.198Y-182.034G85X223.798Y-182.034
G05
T0
M30
