0
SECTION
2
HEADER
9
$INSUNITS
70
4
9
$ACADVER
1
AC1014
9
$HANDSEED
5
FFFF
0
ENDSEC
0
SECTION
2
TABLES
0
TABLE
2
VPORT
5
8
100
AcDbSymbolTable
0
ENDTAB
0
TABLE
2
LTYPE
5
5
100
AcDbSymbolTable
0
LTYPE
5
14
100
AcDbSymbolTableRecord
100
AcDbLinetypeTableRecord
2
BYBLOCK
70
0
0
LTYPE
5
15
100
AcDbSymbolTableRecord
100
AcDbLinetypeTableRecord
2
BYLAYER
70
0
0
ENDTAB
0
TABLE
2
LAYER
5
2
100
AcDbSymbolTable
70
2
0
LAYER
5
50
100
AcDbSymbolTableRecord
100
AcDbLayerTableRecord
2
0
70
0
6
CONTINUOUS
0
ENDTAB
0
TABLE
2
STYLE
5
3
100
AcDbSymbolTable
70
1
0
STYLE
5
11
100
AcDbSymbolTableRecord
100
AcDbTextStyleTableRecord
2
STANDARD
70
0
0
ENDTAB
0
TABLE
2
VIEW
5
6
100
AcDbSymbolTable
70
0
0
ENDTAB
0
TABLE
2
UCS
5
7
100
AcDbSymbolTable
70
0
0
ENDTAB
0
TABLE
2
APPID
5
9
100
AcDbSymbolTable
70
2
0
APPID
5
12
100
AcDbSymbolTableRecord
100
AcDbRegAppTableRecord
2
ACAD
70
0
0
ENDTAB
0
TABLE
2
DIMSTYLE
5
A
100
AcDbSymbolTable
70
1
0
ENDTAB
0
TABLE
2
BLOCK_RECORD
5
1
100
AcDbSymbolTable
70
1
0
BLOCK_RECORD
5
1F
100
AcDbSymbolTableRecord
100
AcDbBlockTableRecord
2
*MODEL_SPACE
0
BLOCK_RECORD
5
1B
100
AcDbSymbolTableRecord
100
AcDbBlockTableRecord
2
*PAPER_SPACE
0
ENDTAB
0
ENDSEC
0
SECTION
2
BLOCKS
0
BLOCK
5
20
100
AcDbEntity
100
AcDbBlockBegin
2
*MODEL_SPACE
0
ENDBLK
5
21
100
AcDbEntity
100
AcDbBlockEnd
0
BLOCK
5
1C
100
AcDbEntity
100
AcDbBlockBegin
2
*PAPER_SPACE
0
ENDBLK
5
1D
100
AcDbEntity
100
AcDbBlockEnd
0
ENDSEC
0
SECTION
2
ENTITIES
0
CIRCLE
5
100
100
AcDbEntity
8
0
100
AcDbCircle
10
-17.34499578545751
20
-23.689512742727501
30
0
40
1.5000000000000022
210
-2.0417933806217053e-31
220
-9.7367675449159301e-46
230
1
0
CIRCLE
5
101
100
AcDbEntity
8
0
100
AcDbCircle
10
-17.344995785457606
20
-3.6895127427275023
30
-2.2204460492503131e-15
40
1.5000000000000022
210
-2.0417933806217053e-31
220
-9.7367675449159301e-46
230
1
0
CIRCLE
5
102
100
AcDbEntity
8
0
100
AcDbCircle
10
17.344995785456973
20
-23.689512742727338
30
2.2204460492503131e-15
40
1.5000000000000022
210
-1.7270345256785009e-31
220
-9.8607613152627636e-32
230
1
0
CIRCLE
5
103
100
AcDbEntity
8
0
100
AcDbCircle
10
17.344995785456835
20
-3.6895127427273366
30
0
40
1.5000000000000022
210
-1.7270345256785009e-31
220
-9.8607613152627636e-32
230
1
0
ARC
5
104
100
AcDbEntity
8
0
100
AcDbCircle
10
7.9371513085770031
20
25.853730436029746
30
-2.3195321260064111e-45
40
1.9999999999999618
210
-2.5078035158675589e-31
220
-3.5470367378221926e-45
230
1
100
AcDbArc
50
64.545005474457881
51
90.000000000000611
0
LINE
5
105
100
AcDbEntity
8
0
100
AcDbLine
10
7.9371513085769818
20
27.853730436029707
30
-4.3790577010150533e-46
11
-7.9371513085781595
21
27.853730436029633
31
-2.2898855737991921e-30
0
ARC
5
106
100
AcDbEntity
8
0
100
AcDbCircle
10
-7.9371513085781622
20
25.853730436029636
30
-2.8463875056597847e-45
40
1.9999999999999973
210
-2.2045194549806471e-31
220
1.1449427868995966e-30
230
1
100
AcDbArc
50
89.999999999999929
51
115.45499452554226
0
LINE
5
107
100
AcDbEntity
8
0
100
AcDbLine
10
-8.7967552865865954
20
27.65957677528224
30
-1.9721522630525317e-31
11
-19.204599768256038
21
22.705321075631165
31
-2.4651903288156619e-30
0
ARC
5
108
100
AcDbEntity
8
0
100
AcDbCircle
10
-18.344995790247587
20
20.899474736378544
30
2.0800524079821503e-45
40
2.0000000000000102
210
-8.0986272689019273e-31
220
9.7961220104265727e-31
230
1
100
AcDbArc
50
115.45499452554249
51
180
0
LINE
5
109
100
AcDbEntity
8
0
100
AcDbLine
10
-20.34499579024758
20
20.899474743963889
30
-5.9323497005327355e-31
11
-20.344995785456948
21
18.477262405396161
31
1.4791141972893971e-30
0
LINE
5
110
100
AcDbEntity
8
0
100
AcDbLine
10
-20.344995785456948
20
18.477262405396161
30
1.4791141972893971e-30
11
-20.344995785456842
21
-61.755689249331652
31
-7.8886090522101181e-30
0
SPLINE
5
111
100
AcDbEntity
8
0
100
AcDbSpline
70
0
71
3
72
12
73
8
74
0
42
0.000000001
43
0.0000000001
44
0.0000000001
40
0
40
0
40
0
40
0
40
0.13152112549418193
40
0.13152112549418193
40
0.21923634777040157
40
0.21923634777040157
40
0.3105050012756731
40
0.3105050012756731
40
0.3105050012756731
40
0.3105050012756731
10
-21.694569405854818
20
-64.392141330389208
30
2.2204460492503131e-15
10
-21.338929257124391
20
-64.135786236682449
30
2.2204460492503131e-15
10
-21.033450810719941
20
-63.825139653426476
30
2.2204460492503131e-15
10
-20.649506341046798
20
-63.203921069016701
30
0
10
-20.535300508291417
20
-62.937401650362446
30
0
10
-20.380304479213358
20
-62.361654538791768
30
0
10
-20.344995785456845
20
-62.059808533693463
30
0
10
-20.344995785456842
20
-61.75568924933166
30
0
0
LINE
5
112
100
AcDbEntity
8
0
100
AcDbLine
10
-21.694569405854818
20
-64.392141330389208
30
2.2204460492503131e-15
11
-21.790756050438873
21
-64.461475280376874
31
2.2204460492503131e-15
0
ARC
5
113
100
AcDbEntity
8
0
100
AcDbCircle
10
-23.544995785456798
20
-62.027827205555432
30
-2.2204460492503127e-15
40
3.0000000000000124
210
-2.3746961033326783e-31
220
-6.9878465659738334e-32
230
1
100
AcDbArc
50
267.0092970933357
51
305.78508895124668
0
ARC
5
114
100
AcDbEntity
8
0
100
AcDbCircle
10
-23.844995785456774
20
-67.769995785456814
30
0
40
2.7500000000005578
210
4.2127039669551242e-17
220
8.0633521184932463e-16
230
1
100
AcDbArc
50
87.009297093336201
51
269.58268981907679
0
LINE
5
115
100
AcDbEntity
8
0
100
AcDbLine
10
-23.865025059181505
20
-70.519922844161655
30
2.4731128255426794e-32
11
23.865025059181445
21
-70.51992284416167
31
-2.2204460492503048e-15
0
ARC
5
116
100
AcDbEntity
8
0
100
AcDbCircle
10
23.844995785456703
20
-67.769995785456814
30
2.2204460492503131e-15
40
2.7500000000005524
210
1.1761698303850021e-17
220
-1.6148270210182475e-15
230
1
100
AcDbArc
50
-89.582689819076549
51
92.99070290666387
0
ARC
5
117
100
AcDbEntity
8
0
100
AcDbCircle
10
23.544995785456702
20
-62.027827205555553
30
-2.2114241390126019e-44
40
2.9999999999999054
210
-1.4564251236386973e-31
220
-1.0635120178712917e-31
230
1
100
AcDbArc
50
234.21491104875255
51
272.99070290666481
0
LINE
5
118
100
AcDbEntity
8
0
100
AcDbLine
10
21.790756050438588
20
-64.461475280377186
30
-5.1431327978080255e-31
11
21.694569405854736
21
-64.392141330389222
31
-2.2204460492503131e-15
0
SPLINE
5
119
100
AcDbEntity
8
0
100
AcDbSpline
70
0
71
3
72
12
73
8
74
0
42
0.000000001
43
0.0000000001
44
0.0000000001
40
0
40
0
40
0
40
0
40
0.1315211254941793
40
0.1315211254941793
40
0.21923634777038895
40
0.21923634777038895
40
0.31050500127564762
40
0.31050500127564762
40
0.31050500127564762
40
0.31050500127564762
10
20.34499578545676
20
-61.755689249331667
30
0
10
20.344995785456767
20
-62.194093000978931
30
0
10
20.418369795595769
20
-62.623551538607899
30
0
10
20.697802051346443
20
-63.298268886728415
30
0
10
20.84722540478657
20
-63.546760806520268
30
0
10
21.223647290346562
20
-64.009162222590163
30
0
10
21.447862968886945
20
-64.214308619451742
30
0
10
21.694569405854736
20
-64.392141330389222
30
0
0
LINE
5
120
100
AcDbEntity
8
0
100
AcDbLine
10
20.34499578545676
20
-61.755689249331667
30
0
11
20.344995785456724
21
18.477262405396147
31
7.8886090522101181e-30
0
LINE
5
121
100
AcDbEntity
8
0
100
AcDbLine
10
20.344995785456724
20
18.477262405396147
30
7.8886090522101181e-30
11
20.344995790246443
21
20.899474743964113
31
9.8607613152626476e-31
0
ARC
5
122
100
AcDbEntity
8
0
100
AcDbCircle
10
18.344995790246447
20
20.899474736378739
30
2.2204460492503135e-15
40
1.9999999999999973
210
1.1102230246251579e-15
220
4.2107299708918234e-24
230
1
100
AcDbArc
50
0
51
64.545005474458151
0
LINE
5
123
100
AcDbEntity
8
0
100
AcDbLine
10
19.204599768254869
20
22.705321075631353
30
2.2204460492503135e-15
11
8.7967552865854213
21
27.659576775282328
31
2.1557178783032928e-31
0
CIRCLE
5
124
100
AcDbEntity
8
0
100
AcDbCircle
10
17.344995785456724
20
16.310487257272669
30
2.2204460492503131e-15
40
1.5000000000000002
210
-7.475035466976284e-32
220
-9.8607613152626541e-32
230
1
0
CIRCLE
5
125
100
AcDbEntity
8
0
100
AcDbCircle
10
-17.344995785456941
20
16.310487257272676
30
0
40
1.5000000000000002
210
-7.475035466976284e-32
220
-9.8607613152626541e-32
230
1
0
CIRCLE
5
126
100
AcDbEntity
8
0
100
AcDbCircle
10
16.844995785456771
20
-48.769995785456793
30
0
40
1.5000000000000002
210
-7.4750354669762829e-32
220
-9.8607613152626541e-32
230
1
0
CIRCLE
5
127
100
AcDbEntity
8
0
100
AcDbCircle
10
-16.844995785456877
20
-48.769995785456786
30
-2.2204460492503131e-15
40
1.5000000000000002
210
-7.475035466976284e-32
220
-9.8607613152626541e-32
230
1
0
CIRCLE
5
128
100
AcDbEntity
8
0
100
AcDbCircle
10
-23.844995785456774
20
-67.769995785456814
30
0
40
1.5000000000000047
210
-7.4750354669762851e-32
220
-9.8607613152626541e-32
230
1
0
CIRCLE
5
129
100
AcDbEntity
8
0
100
AcDbCircle
10
23.844995785456703
20
-67.769995785456814
30
2.2204460492503131e-15
40
1.5000000000000047
210
-7.4750354669762851e-32
220
-9.8607613152626541e-32
230
1
0
ENDSEC
0
SECTION
2
OBJECTS
0
DICTIONARY
5
C
100
AcDbDictionary
3
ACAD_GROUP
350
D
3
ACAD_MLINESTYLE
350
17
0
DICTIONARY
5
D
100
AcDbDictionary
0
DICTIONARY
5
1A
330
C
100
AcDbDictionary
0
DICTIONARY
5
17
100
AcDbDictionary
0
ENDSEC
0
EOF
